%TF.GenerationSoftware,KiCad,Pcbnew,(5.1.6)-1*%
%TF.CreationDate,2020-11-22T13:37:39-05:00*%
%TF.ProjectId,GLV_BOBV6,474c565f-424f-4425-9636-2e6b69636164,rev?*%
%TF.SameCoordinates,Original*%
%TF.FileFunction,Copper,L2,Bot*%
%TF.FilePolarity,Positive*%
%FSLAX46Y46*%
G04 Gerber Fmt 4.6, Leading zero omitted, Abs format (unit mm)*
G04 Created by KiCad (PCBNEW (5.1.6)-1) date 2020-11-22 13:37:39*
%MOMM*%
%LPD*%
G01*
G04 APERTURE LIST*
%TA.AperFunction,ComponentPad*%
%ADD10R,2.800000X2.800000*%
%TD*%
%TA.AperFunction,ComponentPad*%
%ADD11C,2.800000*%
%TD*%
%TA.AperFunction,ComponentPad*%
%ADD12C,5.000000*%
%TD*%
%TA.AperFunction,ViaPad*%
%ADD13C,0.800000*%
%TD*%
%TA.AperFunction,Conductor*%
%ADD14C,0.250000*%
%TD*%
%TA.AperFunction,Conductor*%
%ADD15C,1.800000*%
%TD*%
%TA.AperFunction,Conductor*%
%ADD16C,2.300000*%
%TD*%
G04 APERTURE END LIST*
D10*
%TO.P,J1,1*%
%TO.N,/GLV_RTN*%
X153670000Y-21590000D03*
D11*
%TO.P,J1,2*%
%TO.N,/BATT+*%
X153670000Y-27090000D03*
%TD*%
D10*
%TO.P,J2,1*%
%TO.N,/GLV_RTN*%
X179070000Y-21590000D03*
D11*
%TO.P,J2,2*%
%TO.N,/24V*%
X179070000Y-27090000D03*
%TD*%
%TO.P,J3,2*%
%TO.N,/24V*%
X142240000Y-27090000D03*
D10*
%TO.P,J3,1*%
%TO.N,/GLV_RTN*%
X142240000Y-21590000D03*
%TD*%
%TO.P,J4,1*%
%TO.N,/GLV_RTN*%
X166370000Y-21590000D03*
D11*
%TO.P,J4,2*%
%TO.N,/24V*%
X166370000Y-27090000D03*
%TD*%
%TO.P,J5,4*%
%TO.N,/24V*%
X170600000Y-58030000D03*
%TO.P,J5,3*%
%TO.N,/GLV_RTN*%
X170600000Y-62230000D03*
%TO.P,J5,2*%
%TO.N,/SDA_NOT_ISO*%
X165100000Y-58030000D03*
D10*
%TO.P,J5,1*%
%TO.N,/SCL_NOT_ISO*%
X165100000Y-62230000D03*
%TD*%
%TO.P,J6,1*%
%TO.N,/24V*%
X132080000Y-36830000D03*
D11*
%TO.P,J6,2*%
%TO.N,/GLV_RTN*%
X136280000Y-36830000D03*
%TO.P,J6,3*%
%TO.N,/BREAKER_OUT_SL*%
X132080000Y-42330000D03*
%TO.P,J6,4*%
%TO.N,/BREAKER_OUT_COOL*%
X136280000Y-42330000D03*
%TD*%
D10*
%TO.P,J8,1*%
%TO.N,/BATT+*%
X139700000Y-62865000D03*
D11*
%TO.P,J8,2*%
X135500000Y-62865000D03*
%TO.P,J8,3*%
X131300000Y-62865000D03*
%TO.P,J8,4*%
%TO.N,/24V*%
X139700000Y-57365000D03*
%TO.P,J8,5*%
%TO.N,/BREAKER_OUT_COOL*%
X135500000Y-57365000D03*
%TO.P,J8,6*%
%TO.N,/BREAKER_OUT_SL*%
X131300000Y-57365000D03*
%TD*%
%TO.P,J9,2*%
%TO.N,/24V*%
X191770000Y-27090000D03*
D10*
%TO.P,J9,1*%
%TO.N,/GLV_RTN*%
X191770000Y-21590000D03*
%TD*%
D12*
%TO.P,H1,1*%
%TO.N,N/C*%
X123825000Y-22225000D03*
%TD*%
%TO.P,H2,1*%
%TO.N,N/C*%
X123825000Y-69850000D03*
%TD*%
%TO.P,H3,1*%
%TO.N,N/C*%
X206375000Y-22225000D03*
%TD*%
%TO.P,H4,1*%
%TO.N,N/C*%
X206375000Y-69850000D03*
%TD*%
D13*
%TO.N,/GLV_RTN*%
X177800000Y-60325000D03*
X177800000Y-50165000D03*
%TO.N,/24V*%
X127000000Y-52070000D03*
X139700000Y-52070000D03*
X173990000Y-54610000D03*
X173990000Y-48260000D03*
X132080000Y-27305000D03*
X185420000Y-46355000D03*
X173990000Y-46445000D03*
%TO.N,/BATT+*%
X124460000Y-32385000D03*
%TO.N,/SDA_NOT_ISO*%
X151130000Y-44450000D03*
X151130000Y-58420000D03*
X151130000Y-58420000D03*
%TO.N,/SCL_NOT_ISO*%
X152400000Y-43180000D03*
X153670000Y-62230000D03*
%TD*%
D14*
%TO.N,/GLV_RTN*%
X177800000Y-60325000D02*
X177800000Y-50165000D01*
D15*
%TO.N,/24V*%
X127000000Y-52070000D02*
X139700000Y-52070000D01*
D14*
X173990000Y-54610000D02*
X173990000Y-48260000D01*
D15*
X142025000Y-27305000D02*
X142240000Y-27090000D01*
X132080000Y-27305000D02*
X142025000Y-27305000D01*
D14*
X185420000Y-46355000D02*
X174080000Y-46355000D01*
X174080000Y-46355000D02*
X173990000Y-46445000D01*
D16*
%TO.N,/BATT+*%
X148375000Y-32385000D02*
X153670000Y-27090000D01*
X124460000Y-32385000D02*
X148375000Y-32385000D01*
D14*
%TO.N,/SDA_NOT_ISO*%
X151130000Y-44450000D02*
X151130000Y-58420000D01*
%TO.N,/SCL_NOT_ISO*%
X152400000Y-43180000D02*
X153670000Y-44450000D01*
X153670000Y-44450000D02*
X153670000Y-62230000D01*
%TD*%
M02*
