M48
; DRILL file {KiCad (5.1.6)-1} date 11/22/20 13:37:44
; FORMAT={-:-/ absolute / inch / decimal}
; #@! TF.CreationDate,2020-11-22T13:37:44-05:00
; #@! TF.GenerationSoftware,Kicad,Pcbnew,(5.1.6)-1
; #@! TF.FileFunction,Plated,1,2,PTH
FMAT,2
INCH
T1C0.0157
T2C0.0551
T3C0.0984
%
G90
G05
T1
X4.9Y-1.275
X5.0Y-2.05
X5.2Y-1.075
X5.5Y-2.05
X5.95Y-1.75
X5.95Y-2.3
X5.95Y-2.3
X6.0Y-1.7
X6.05Y-2.45
X6.85Y-1.8285
X6.85Y-1.9
X6.85Y-2.15
X7.0Y-1.975
X7.0Y-2.375
X7.3Y-1.825
T2
X7.05Y-0.85
X7.05Y-1.0665
X5.2Y-1.45
X5.2Y-1.6665
X5.3654Y-1.45
X5.3654Y-1.6665
X6.55Y-0.85
X6.55Y-1.0665
X5.6Y-0.85
X5.6Y-1.0665
X6.05Y-0.85
X6.05Y-1.0665
X7.55Y-0.85
X7.55Y-1.0665
X6.5Y-2.2846
X6.5Y-2.45
X6.7165Y-2.2846
X6.7165Y-2.45
X5.1693Y-2.2585
X5.1693Y-2.475
X5.3346Y-2.2585
X5.3346Y-2.475
X5.5Y-2.2585
X5.5Y-2.475
T3
X8.125Y-2.75
X8.125Y-0.875
X4.875Y-2.75
X4.875Y-0.875
T0
M30
