%TF.GenerationSoftware,KiCad,Pcbnew,(5.1.6)-1*%
%TF.CreationDate,2020-11-22T13:37:39-05:00*%
%TF.ProjectId,GLV_BOBV6,474c565f-424f-4425-9636-2e6b69636164,rev?*%
%TF.SameCoordinates,Original*%
%TF.FileFunction,Legend,Top*%
%TF.FilePolarity,Positive*%
%FSLAX46Y46*%
G04 Gerber Fmt 4.6, Leading zero omitted, Abs format (unit mm)*
G04 Created by KiCad (PCBNEW (5.1.6)-1) date 2020-11-22 13:37:39*
%MOMM*%
%LPD*%
G01*
G04 APERTURE LIST*
%ADD10C,0.150000*%
%ADD11C,0.125000*%
%ADD12C,0.250000*%
%ADD13C,0.010000*%
%ADD14C,0.120000*%
%ADD15C,0.152400*%
G04 APERTURE END LIST*
D10*
X209732619Y-41354761D02*
X210208809Y-41021428D01*
X209732619Y-40783333D02*
X210732619Y-40783333D01*
X210732619Y-41164285D01*
X210685000Y-41259523D01*
X210637380Y-41307142D01*
X210542142Y-41354761D01*
X210399285Y-41354761D01*
X210304047Y-41307142D01*
X210256428Y-41259523D01*
X210208809Y-41164285D01*
X210208809Y-40783333D01*
X209732619Y-41783333D02*
X210399285Y-41783333D01*
X210732619Y-41783333D02*
X210685000Y-41735714D01*
X210637380Y-41783333D01*
X210685000Y-41830952D01*
X210732619Y-41783333D01*
X210637380Y-41783333D01*
X210399285Y-42688095D02*
X209589761Y-42688095D01*
X209494523Y-42640476D01*
X209446904Y-42592857D01*
X209399285Y-42497619D01*
X209399285Y-42354761D01*
X209446904Y-42259523D01*
X209780238Y-42688095D02*
X209732619Y-42592857D01*
X209732619Y-42402380D01*
X209780238Y-42307142D01*
X209827857Y-42259523D01*
X209923095Y-42211904D01*
X210208809Y-42211904D01*
X210304047Y-42259523D01*
X210351666Y-42307142D01*
X210399285Y-42402380D01*
X210399285Y-42592857D01*
X210351666Y-42688095D01*
X209732619Y-43164285D02*
X210732619Y-43164285D01*
X209732619Y-43592857D02*
X210256428Y-43592857D01*
X210351666Y-43545238D01*
X210399285Y-43450000D01*
X210399285Y-43307142D01*
X210351666Y-43211904D01*
X210304047Y-43164285D01*
X210399285Y-43926190D02*
X210399285Y-44307142D01*
X210732619Y-44069047D02*
X209875476Y-44069047D01*
X209780238Y-44116666D01*
X209732619Y-44211904D01*
X209732619Y-44307142D01*
X209780238Y-45354761D02*
X209732619Y-45497619D01*
X209732619Y-45735714D01*
X209780238Y-45830952D01*
X209827857Y-45878571D01*
X209923095Y-45926190D01*
X210018333Y-45926190D01*
X210113571Y-45878571D01*
X210161190Y-45830952D01*
X210208809Y-45735714D01*
X210256428Y-45545238D01*
X210304047Y-45450000D01*
X210351666Y-45402380D01*
X210446904Y-45354761D01*
X210542142Y-45354761D01*
X210637380Y-45402380D01*
X210685000Y-45450000D01*
X210732619Y-45545238D01*
X210732619Y-45783333D01*
X210685000Y-45926190D01*
X209732619Y-46354761D02*
X210399285Y-46354761D01*
X210732619Y-46354761D02*
X210685000Y-46307142D01*
X210637380Y-46354761D01*
X210685000Y-46402380D01*
X210732619Y-46354761D01*
X210637380Y-46354761D01*
X209732619Y-47259523D02*
X210732619Y-47259523D01*
X209780238Y-47259523D02*
X209732619Y-47164285D01*
X209732619Y-46973809D01*
X209780238Y-46878571D01*
X209827857Y-46830952D01*
X209923095Y-46783333D01*
X210208809Y-46783333D01*
X210304047Y-46830952D01*
X210351666Y-46878571D01*
X210399285Y-46973809D01*
X210399285Y-47164285D01*
X210351666Y-47259523D01*
X209780238Y-48116666D02*
X209732619Y-48021428D01*
X209732619Y-47830952D01*
X209780238Y-47735714D01*
X209875476Y-47688095D01*
X210256428Y-47688095D01*
X210351666Y-47735714D01*
X210399285Y-47830952D01*
X210399285Y-48021428D01*
X210351666Y-48116666D01*
X210256428Y-48164285D01*
X210161190Y-48164285D01*
X210065952Y-47688095D01*
X119832380Y-47116666D02*
X119832380Y-47592857D01*
X118832380Y-47592857D01*
X119784761Y-46402380D02*
X119832380Y-46497619D01*
X119832380Y-46688095D01*
X119784761Y-46783333D01*
X119689523Y-46830952D01*
X119308571Y-46830952D01*
X119213333Y-46783333D01*
X119165714Y-46688095D01*
X119165714Y-46497619D01*
X119213333Y-46402380D01*
X119308571Y-46354761D01*
X119403809Y-46354761D01*
X119499047Y-46830952D01*
X119165714Y-46069047D02*
X119165714Y-45688095D01*
X119832380Y-45926190D02*
X118975238Y-45926190D01*
X118880000Y-45878571D01*
X118832380Y-45783333D01*
X118832380Y-45688095D01*
X119165714Y-45497619D02*
X119165714Y-45116666D01*
X118832380Y-45354761D02*
X119689523Y-45354761D01*
X119784761Y-45307142D01*
X119832380Y-45211904D01*
X119832380Y-45116666D01*
X119784761Y-44069047D02*
X119832380Y-43926190D01*
X119832380Y-43688095D01*
X119784761Y-43592857D01*
X119737142Y-43545238D01*
X119641904Y-43497619D01*
X119546666Y-43497619D01*
X119451428Y-43545238D01*
X119403809Y-43592857D01*
X119356190Y-43688095D01*
X119308571Y-43878571D01*
X119260952Y-43973809D01*
X119213333Y-44021428D01*
X119118095Y-44069047D01*
X119022857Y-44069047D01*
X118927619Y-44021428D01*
X118880000Y-43973809D01*
X118832380Y-43878571D01*
X118832380Y-43640476D01*
X118880000Y-43497619D01*
X119832380Y-43069047D02*
X119165714Y-43069047D01*
X118832380Y-43069047D02*
X118880000Y-43116666D01*
X118927619Y-43069047D01*
X118880000Y-43021428D01*
X118832380Y-43069047D01*
X118927619Y-43069047D01*
X119832380Y-42164285D02*
X118832380Y-42164285D01*
X119784761Y-42164285D02*
X119832380Y-42259523D01*
X119832380Y-42450000D01*
X119784761Y-42545238D01*
X119737142Y-42592857D01*
X119641904Y-42640476D01*
X119356190Y-42640476D01*
X119260952Y-42592857D01*
X119213333Y-42545238D01*
X119165714Y-42450000D01*
X119165714Y-42259523D01*
X119213333Y-42164285D01*
X119784761Y-41307142D02*
X119832380Y-41402380D01*
X119832380Y-41592857D01*
X119784761Y-41688095D01*
X119689523Y-41735714D01*
X119308571Y-41735714D01*
X119213333Y-41688095D01*
X119165714Y-41592857D01*
X119165714Y-41402380D01*
X119213333Y-41307142D01*
X119308571Y-41259523D01*
X119403809Y-41259523D01*
X119499047Y-41735714D01*
D11*
X175613571Y-69495000D02*
X175542142Y-69459285D01*
X175435000Y-69459285D01*
X175327857Y-69495000D01*
X175256428Y-69566428D01*
X175220714Y-69637857D01*
X175185000Y-69780714D01*
X175185000Y-69887857D01*
X175220714Y-70030714D01*
X175256428Y-70102142D01*
X175327857Y-70173571D01*
X175435000Y-70209285D01*
X175506428Y-70209285D01*
X175613571Y-70173571D01*
X175649285Y-70137857D01*
X175649285Y-69887857D01*
X175506428Y-69887857D01*
X176327857Y-70209285D02*
X175970714Y-70209285D01*
X175970714Y-69459285D01*
X176470714Y-69459285D02*
X176720714Y-70209285D01*
X176970714Y-69459285D01*
X178042142Y-69816428D02*
X178149285Y-69852142D01*
X178185000Y-69887857D01*
X178220714Y-69959285D01*
X178220714Y-70066428D01*
X178185000Y-70137857D01*
X178149285Y-70173571D01*
X178077857Y-70209285D01*
X177792142Y-70209285D01*
X177792142Y-69459285D01*
X178042142Y-69459285D01*
X178113571Y-69495000D01*
X178149285Y-69530714D01*
X178185000Y-69602142D01*
X178185000Y-69673571D01*
X178149285Y-69745000D01*
X178113571Y-69780714D01*
X178042142Y-69816428D01*
X177792142Y-69816428D01*
X178685000Y-69459285D02*
X178827857Y-69459285D01*
X178899285Y-69495000D01*
X178970714Y-69566428D01*
X179006428Y-69709285D01*
X179006428Y-69959285D01*
X178970714Y-70102142D01*
X178899285Y-70173571D01*
X178827857Y-70209285D01*
X178685000Y-70209285D01*
X178613571Y-70173571D01*
X178542142Y-70102142D01*
X178506428Y-69959285D01*
X178506428Y-69709285D01*
X178542142Y-69566428D01*
X178613571Y-69495000D01*
X178685000Y-69459285D01*
X179577857Y-69816428D02*
X179685000Y-69852142D01*
X179720714Y-69887857D01*
X179756428Y-69959285D01*
X179756428Y-70066428D01*
X179720714Y-70137857D01*
X179685000Y-70173571D01*
X179613571Y-70209285D01*
X179327857Y-70209285D01*
X179327857Y-69459285D01*
X179577857Y-69459285D01*
X179649285Y-69495000D01*
X179685000Y-69530714D01*
X179720714Y-69602142D01*
X179720714Y-69673571D01*
X179685000Y-69745000D01*
X179649285Y-69780714D01*
X179577857Y-69816428D01*
X179327857Y-69816428D01*
X180542142Y-69459285D02*
X180792142Y-70209285D01*
X181042142Y-69459285D01*
X181613571Y-69459285D02*
X181470714Y-69459285D01*
X181399285Y-69495000D01*
X181363571Y-69530714D01*
X181292142Y-69637857D01*
X181256428Y-69780714D01*
X181256428Y-70066428D01*
X181292142Y-70137857D01*
X181327857Y-70173571D01*
X181399285Y-70209285D01*
X181542142Y-70209285D01*
X181613571Y-70173571D01*
X181649285Y-70137857D01*
X181685000Y-70066428D01*
X181685000Y-69887857D01*
X181649285Y-69816428D01*
X181613571Y-69780714D01*
X181542142Y-69745000D01*
X181399285Y-69745000D01*
X181327857Y-69780714D01*
X181292142Y-69816428D01*
X181256428Y-69887857D01*
X168845714Y-70709285D02*
X169274285Y-70709285D01*
X169060000Y-71459285D02*
X169060000Y-70709285D01*
X169524285Y-71459285D02*
X169524285Y-70959285D01*
X169524285Y-71102142D02*
X169560000Y-71030714D01*
X169595714Y-70995000D01*
X169667142Y-70959285D01*
X169738571Y-70959285D01*
X170095714Y-71459285D02*
X170024285Y-71423571D01*
X169988571Y-71387857D01*
X169952857Y-71316428D01*
X169952857Y-71102142D01*
X169988571Y-71030714D01*
X170024285Y-70995000D01*
X170095714Y-70959285D01*
X170202857Y-70959285D01*
X170274285Y-70995000D01*
X170310000Y-71030714D01*
X170345714Y-71102142D01*
X170345714Y-71316428D01*
X170310000Y-71387857D01*
X170274285Y-71423571D01*
X170202857Y-71459285D01*
X170095714Y-71459285D01*
X170595714Y-70959285D02*
X170774285Y-71459285D01*
X170952857Y-70959285D02*
X170774285Y-71459285D01*
X170702857Y-71637857D01*
X170667142Y-71673571D01*
X170595714Y-71709285D01*
X172238571Y-71387857D02*
X172202857Y-71423571D01*
X172095714Y-71459285D01*
X172024285Y-71459285D01*
X171917142Y-71423571D01*
X171845714Y-71352142D01*
X171810000Y-71280714D01*
X171774285Y-71137857D01*
X171774285Y-71030714D01*
X171810000Y-70887857D01*
X171845714Y-70816428D01*
X171917142Y-70745000D01*
X172024285Y-70709285D01*
X172095714Y-70709285D01*
X172202857Y-70745000D01*
X172238571Y-70780714D01*
X172667142Y-71459285D02*
X172595714Y-71423571D01*
X172560000Y-71387857D01*
X172524285Y-71316428D01*
X172524285Y-71102142D01*
X172560000Y-71030714D01*
X172595714Y-70995000D01*
X172667142Y-70959285D01*
X172774285Y-70959285D01*
X172845714Y-70995000D01*
X172881428Y-71030714D01*
X172917142Y-71102142D01*
X172917142Y-71316428D01*
X172881428Y-71387857D01*
X172845714Y-71423571D01*
X172774285Y-71459285D01*
X172667142Y-71459285D01*
X173345714Y-71459285D02*
X173274285Y-71423571D01*
X173238571Y-71352142D01*
X173238571Y-70709285D01*
X173917142Y-71423571D02*
X173845714Y-71459285D01*
X173702857Y-71459285D01*
X173631428Y-71423571D01*
X173595714Y-71352142D01*
X173595714Y-71066428D01*
X173631428Y-70995000D01*
X173702857Y-70959285D01*
X173845714Y-70959285D01*
X173917142Y-70995000D01*
X173952857Y-71066428D01*
X173952857Y-71137857D01*
X173595714Y-71209285D01*
X174274285Y-71459285D02*
X174274285Y-70959285D01*
X174274285Y-71030714D02*
X174310000Y-70995000D01*
X174381428Y-70959285D01*
X174488571Y-70959285D01*
X174560000Y-70995000D01*
X174595714Y-71066428D01*
X174595714Y-71459285D01*
X174595714Y-71066428D02*
X174631428Y-70995000D01*
X174702857Y-70959285D01*
X174810000Y-70959285D01*
X174881428Y-70995000D01*
X174917142Y-71066428D01*
X174917142Y-71459285D01*
X175595714Y-71459285D02*
X175595714Y-71066428D01*
X175560000Y-70995000D01*
X175488571Y-70959285D01*
X175345714Y-70959285D01*
X175274285Y-70995000D01*
X175595714Y-71423571D02*
X175524285Y-71459285D01*
X175345714Y-71459285D01*
X175274285Y-71423571D01*
X175238571Y-71352142D01*
X175238571Y-71280714D01*
X175274285Y-71209285D01*
X175345714Y-71173571D01*
X175524285Y-71173571D01*
X175595714Y-71137857D01*
X175952857Y-70959285D02*
X175952857Y-71459285D01*
X175952857Y-71030714D02*
X175988571Y-70995000D01*
X176060000Y-70959285D01*
X176167142Y-70959285D01*
X176238571Y-70995000D01*
X176274285Y-71066428D01*
X176274285Y-71459285D01*
X177524285Y-71459285D02*
X177524285Y-71066428D01*
X177488571Y-70995000D01*
X177417142Y-70959285D01*
X177274285Y-70959285D01*
X177202857Y-70995000D01*
X177524285Y-71423571D02*
X177452857Y-71459285D01*
X177274285Y-71459285D01*
X177202857Y-71423571D01*
X177167142Y-71352142D01*
X177167142Y-71280714D01*
X177202857Y-71209285D01*
X177274285Y-71173571D01*
X177452857Y-71173571D01*
X177524285Y-71137857D01*
X177881428Y-70959285D02*
X177881428Y-71459285D01*
X177881428Y-71030714D02*
X177917142Y-70995000D01*
X177988571Y-70959285D01*
X178095714Y-70959285D01*
X178167142Y-70995000D01*
X178202857Y-71066428D01*
X178202857Y-71459285D01*
X178881428Y-71459285D02*
X178881428Y-70709285D01*
X178881428Y-71423571D02*
X178810000Y-71459285D01*
X178667142Y-71459285D01*
X178595714Y-71423571D01*
X178560000Y-71387857D01*
X178524285Y-71316428D01*
X178524285Y-71102142D01*
X178560000Y-71030714D01*
X178595714Y-70995000D01*
X178667142Y-70959285D01*
X178810000Y-70959285D01*
X178881428Y-70995000D01*
X179738571Y-70709285D02*
X180238571Y-70709285D01*
X179738571Y-71459285D01*
X180238571Y-71459285D01*
X180845714Y-71459285D02*
X180845714Y-71066428D01*
X180810000Y-70995000D01*
X180738571Y-70959285D01*
X180595714Y-70959285D01*
X180524285Y-70995000D01*
X180845714Y-71423571D02*
X180774285Y-71459285D01*
X180595714Y-71459285D01*
X180524285Y-71423571D01*
X180488571Y-71352142D01*
X180488571Y-71280714D01*
X180524285Y-71209285D01*
X180595714Y-71173571D01*
X180774285Y-71173571D01*
X180845714Y-71137857D01*
X181524285Y-71423571D02*
X181452857Y-71459285D01*
X181310000Y-71459285D01*
X181238571Y-71423571D01*
X181202857Y-71387857D01*
X181167142Y-71316428D01*
X181167142Y-71102142D01*
X181202857Y-71030714D01*
X181238571Y-70995000D01*
X181310000Y-70959285D01*
X181452857Y-70959285D01*
X181524285Y-70995000D01*
X181845714Y-71459285D02*
X181845714Y-70709285D01*
X182167142Y-71459285D02*
X182167142Y-71066428D01*
X182131428Y-70995000D01*
X182060000Y-70959285D01*
X181952857Y-70959285D01*
X181881428Y-70995000D01*
X181845714Y-71030714D01*
X182845714Y-71459285D02*
X182845714Y-71066428D01*
X182810000Y-70995000D01*
X182738571Y-70959285D01*
X182595714Y-70959285D01*
X182524285Y-70995000D01*
X182845714Y-71423571D02*
X182774285Y-71459285D01*
X182595714Y-71459285D01*
X182524285Y-71423571D01*
X182488571Y-71352142D01*
X182488571Y-71280714D01*
X182524285Y-71209285D01*
X182595714Y-71173571D01*
X182774285Y-71173571D01*
X182845714Y-71137857D01*
X183202857Y-71459285D02*
X183202857Y-70959285D01*
X183202857Y-71102142D02*
X183238571Y-71030714D01*
X183274285Y-70995000D01*
X183345714Y-70959285D01*
X183417142Y-70959285D01*
X183595714Y-70959285D02*
X183774285Y-71459285D01*
X183952857Y-70959285D02*
X183774285Y-71459285D01*
X183702857Y-71637857D01*
X183667142Y-71673571D01*
X183595714Y-71709285D01*
X184810000Y-71459285D02*
X184810000Y-70709285D01*
X185060000Y-71245000D01*
X185310000Y-70709285D01*
X185310000Y-71459285D01*
X185988571Y-71459285D02*
X185988571Y-71066428D01*
X185952857Y-70995000D01*
X185881428Y-70959285D01*
X185738571Y-70959285D01*
X185667142Y-70995000D01*
X185988571Y-71423571D02*
X185917142Y-71459285D01*
X185738571Y-71459285D01*
X185667142Y-71423571D01*
X185631428Y-71352142D01*
X185631428Y-71280714D01*
X185667142Y-71209285D01*
X185738571Y-71173571D01*
X185917142Y-71173571D01*
X185988571Y-71137857D01*
X186345714Y-71459285D02*
X186345714Y-70959285D01*
X186345714Y-71102142D02*
X186381428Y-71030714D01*
X186417142Y-70995000D01*
X186488571Y-70959285D01*
X186560000Y-70959285D01*
X186702857Y-70959285D02*
X186988571Y-70959285D01*
X186810000Y-70709285D02*
X186810000Y-71352142D01*
X186845714Y-71423571D01*
X186917142Y-71459285D01*
X186988571Y-71459285D01*
X187238571Y-71459285D02*
X187238571Y-70959285D01*
X187238571Y-70709285D02*
X187202857Y-70745000D01*
X187238571Y-70780714D01*
X187274285Y-70745000D01*
X187238571Y-70709285D01*
X187238571Y-70780714D01*
X187595714Y-70959285D02*
X187595714Y-71459285D01*
X187595714Y-71030714D02*
X187631428Y-70995000D01*
X187702857Y-70959285D01*
X187810000Y-70959285D01*
X187881428Y-70995000D01*
X187917142Y-71066428D01*
X187917142Y-71459285D01*
X176077857Y-72709285D02*
X175649285Y-72709285D01*
X175863571Y-72709285D02*
X175863571Y-71959285D01*
X175792142Y-72066428D01*
X175720714Y-72137857D01*
X175649285Y-72173571D01*
X176792142Y-72709285D02*
X176363571Y-72709285D01*
X176577857Y-72709285D02*
X176577857Y-71959285D01*
X176506428Y-72066428D01*
X176435000Y-72137857D01*
X176363571Y-72173571D01*
X177649285Y-71923571D02*
X177006428Y-72887857D01*
X177863571Y-72030714D02*
X177899285Y-71995000D01*
X177970714Y-71959285D01*
X178149285Y-71959285D01*
X178220714Y-71995000D01*
X178256428Y-72030714D01*
X178292142Y-72102142D01*
X178292142Y-72173571D01*
X178256428Y-72280714D01*
X177827857Y-72709285D01*
X178292142Y-72709285D01*
X178577857Y-72030714D02*
X178613571Y-71995000D01*
X178685000Y-71959285D01*
X178863571Y-71959285D01*
X178935000Y-71995000D01*
X178970714Y-72030714D01*
X179006428Y-72102142D01*
X179006428Y-72173571D01*
X178970714Y-72280714D01*
X178542142Y-72709285D01*
X179006428Y-72709285D01*
X179863571Y-71923571D02*
X179220714Y-72887857D01*
X180077857Y-72030714D02*
X180113571Y-71995000D01*
X180185000Y-71959285D01*
X180363571Y-71959285D01*
X180435000Y-71995000D01*
X180470714Y-72030714D01*
X180506428Y-72102142D01*
X180506428Y-72173571D01*
X180470714Y-72280714D01*
X180042142Y-72709285D01*
X180506428Y-72709285D01*
X180970714Y-71959285D02*
X181042142Y-71959285D01*
X181113571Y-71995000D01*
X181149285Y-72030714D01*
X181185000Y-72102142D01*
X181220714Y-72245000D01*
X181220714Y-72423571D01*
X181185000Y-72566428D01*
X181149285Y-72637857D01*
X181113571Y-72673571D01*
X181042142Y-72709285D01*
X180970714Y-72709285D01*
X180899285Y-72673571D01*
X180863571Y-72637857D01*
X180827857Y-72566428D01*
X180792142Y-72423571D01*
X180792142Y-72245000D01*
X180827857Y-72102142D01*
X180863571Y-72030714D01*
X180899285Y-71995000D01*
X180970714Y-71959285D01*
D12*
X164720714Y-67238571D02*
X165054047Y-67238571D01*
X165196904Y-67762380D02*
X164720714Y-67762380D01*
X164720714Y-66762380D01*
X165196904Y-66762380D01*
X165768333Y-67762380D02*
X165673095Y-67714761D01*
X165625476Y-67619523D01*
X165625476Y-66762380D01*
X166530238Y-67714761D02*
X166435000Y-67762380D01*
X166244523Y-67762380D01*
X166149285Y-67714761D01*
X166101666Y-67619523D01*
X166101666Y-67238571D01*
X166149285Y-67143333D01*
X166244523Y-67095714D01*
X166435000Y-67095714D01*
X166530238Y-67143333D01*
X166577857Y-67238571D01*
X166577857Y-67333809D01*
X166101666Y-67429047D01*
X167435000Y-67714761D02*
X167339761Y-67762380D01*
X167149285Y-67762380D01*
X167054047Y-67714761D01*
X167006428Y-67667142D01*
X166958809Y-67571904D01*
X166958809Y-67286190D01*
X167006428Y-67190952D01*
X167054047Y-67143333D01*
X167149285Y-67095714D01*
X167339761Y-67095714D01*
X167435000Y-67143333D01*
X167720714Y-67095714D02*
X168101666Y-67095714D01*
X167863571Y-66762380D02*
X167863571Y-67619523D01*
X167911190Y-67714761D01*
X168006428Y-67762380D01*
X168101666Y-67762380D01*
X168435000Y-67762380D02*
X168435000Y-67095714D01*
X168435000Y-67286190D02*
X168482619Y-67190952D01*
X168530238Y-67143333D01*
X168625476Y-67095714D01*
X168720714Y-67095714D01*
X169054047Y-67762380D02*
X169054047Y-67095714D01*
X169054047Y-66762380D02*
X169006428Y-66810000D01*
X169054047Y-66857619D01*
X169101666Y-66810000D01*
X169054047Y-66762380D01*
X169054047Y-66857619D01*
X169958809Y-67714761D02*
X169863571Y-67762380D01*
X169673095Y-67762380D01*
X169577857Y-67714761D01*
X169530238Y-67667142D01*
X169482619Y-67571904D01*
X169482619Y-67286190D01*
X169530238Y-67190952D01*
X169577857Y-67143333D01*
X169673095Y-67095714D01*
X169863571Y-67095714D01*
X169958809Y-67143333D01*
X170815952Y-67762380D02*
X170815952Y-67238571D01*
X170768333Y-67143333D01*
X170673095Y-67095714D01*
X170482619Y-67095714D01*
X170387380Y-67143333D01*
X170815952Y-67714761D02*
X170720714Y-67762380D01*
X170482619Y-67762380D01*
X170387380Y-67714761D01*
X170339761Y-67619523D01*
X170339761Y-67524285D01*
X170387380Y-67429047D01*
X170482619Y-67381428D01*
X170720714Y-67381428D01*
X170815952Y-67333809D01*
X171435000Y-67762380D02*
X171339761Y-67714761D01*
X171292142Y-67619523D01*
X171292142Y-66762380D01*
X173006428Y-67762380D02*
X173006428Y-67238571D01*
X172958809Y-67143333D01*
X172863571Y-67095714D01*
X172673095Y-67095714D01*
X172577857Y-67143333D01*
X173006428Y-67714761D02*
X172911190Y-67762380D01*
X172673095Y-67762380D01*
X172577857Y-67714761D01*
X172530238Y-67619523D01*
X172530238Y-67524285D01*
X172577857Y-67429047D01*
X172673095Y-67381428D01*
X172911190Y-67381428D01*
X173006428Y-67333809D01*
X173482619Y-67095714D02*
X173482619Y-67762380D01*
X173482619Y-67190952D02*
X173530238Y-67143333D01*
X173625476Y-67095714D01*
X173768333Y-67095714D01*
X173863571Y-67143333D01*
X173911190Y-67238571D01*
X173911190Y-67762380D01*
X174815952Y-67762380D02*
X174815952Y-66762380D01*
X174815952Y-67714761D02*
X174720714Y-67762380D01*
X174530238Y-67762380D01*
X174435000Y-67714761D01*
X174387380Y-67667142D01*
X174339761Y-67571904D01*
X174339761Y-67286190D01*
X174387380Y-67190952D01*
X174435000Y-67143333D01*
X174530238Y-67095714D01*
X174720714Y-67095714D01*
X174815952Y-67143333D01*
X176625476Y-67667142D02*
X176577857Y-67714761D01*
X176435000Y-67762380D01*
X176339761Y-67762380D01*
X176196904Y-67714761D01*
X176101666Y-67619523D01*
X176054047Y-67524285D01*
X176006428Y-67333809D01*
X176006428Y-67190952D01*
X176054047Y-67000476D01*
X176101666Y-66905238D01*
X176196904Y-66810000D01*
X176339761Y-66762380D01*
X176435000Y-66762380D01*
X176577857Y-66810000D01*
X176625476Y-66857619D01*
X177196904Y-67762380D02*
X177101666Y-67714761D01*
X177054047Y-67667142D01*
X177006428Y-67571904D01*
X177006428Y-67286190D01*
X177054047Y-67190952D01*
X177101666Y-67143333D01*
X177196904Y-67095714D01*
X177339761Y-67095714D01*
X177435000Y-67143333D01*
X177482619Y-67190952D01*
X177530238Y-67286190D01*
X177530238Y-67571904D01*
X177482619Y-67667142D01*
X177435000Y-67714761D01*
X177339761Y-67762380D01*
X177196904Y-67762380D01*
X177958809Y-67762380D02*
X177958809Y-67095714D01*
X177958809Y-67190952D02*
X178006428Y-67143333D01*
X178101666Y-67095714D01*
X178244523Y-67095714D01*
X178339761Y-67143333D01*
X178387380Y-67238571D01*
X178387380Y-67762380D01*
X178387380Y-67238571D02*
X178435000Y-67143333D01*
X178530238Y-67095714D01*
X178673095Y-67095714D01*
X178768333Y-67143333D01*
X178815952Y-67238571D01*
X178815952Y-67762380D01*
X179292142Y-67095714D02*
X179292142Y-68095714D01*
X179292142Y-67143333D02*
X179387380Y-67095714D01*
X179577857Y-67095714D01*
X179673095Y-67143333D01*
X179720714Y-67190952D01*
X179768333Y-67286190D01*
X179768333Y-67571904D01*
X179720714Y-67667142D01*
X179673095Y-67714761D01*
X179577857Y-67762380D01*
X179387380Y-67762380D01*
X179292142Y-67714761D01*
X180625476Y-67095714D02*
X180625476Y-67762380D01*
X180196904Y-67095714D02*
X180196904Y-67619523D01*
X180244523Y-67714761D01*
X180339761Y-67762380D01*
X180482619Y-67762380D01*
X180577857Y-67714761D01*
X180625476Y-67667142D01*
X180958809Y-67095714D02*
X181339761Y-67095714D01*
X181101666Y-66762380D02*
X181101666Y-67619523D01*
X181149285Y-67714761D01*
X181244523Y-67762380D01*
X181339761Y-67762380D01*
X182054047Y-67714761D02*
X181958809Y-67762380D01*
X181768333Y-67762380D01*
X181673095Y-67714761D01*
X181625476Y-67619523D01*
X181625476Y-67238571D01*
X181673095Y-67143333D01*
X181768333Y-67095714D01*
X181958809Y-67095714D01*
X182054047Y-67143333D01*
X182101666Y-67238571D01*
X182101666Y-67333809D01*
X181625476Y-67429047D01*
X182530238Y-67762380D02*
X182530238Y-67095714D01*
X182530238Y-67286190D02*
X182577857Y-67190952D01*
X182625476Y-67143333D01*
X182720714Y-67095714D01*
X182815952Y-67095714D01*
X183911190Y-67238571D02*
X184244523Y-67238571D01*
X184387380Y-67762380D02*
X183911190Y-67762380D01*
X183911190Y-66762380D01*
X184387380Y-66762380D01*
X184815952Y-67095714D02*
X184815952Y-67762380D01*
X184815952Y-67190952D02*
X184863571Y-67143333D01*
X184958809Y-67095714D01*
X185101666Y-67095714D01*
X185196904Y-67143333D01*
X185244523Y-67238571D01*
X185244523Y-67762380D01*
X186149285Y-67095714D02*
X186149285Y-67905238D01*
X186101666Y-68000476D01*
X186054047Y-68048095D01*
X185958809Y-68095714D01*
X185815952Y-68095714D01*
X185720714Y-68048095D01*
X186149285Y-67714761D02*
X186054047Y-67762380D01*
X185863571Y-67762380D01*
X185768333Y-67714761D01*
X185720714Y-67667142D01*
X185673095Y-67571904D01*
X185673095Y-67286190D01*
X185720714Y-67190952D01*
X185768333Y-67143333D01*
X185863571Y-67095714D01*
X186054047Y-67095714D01*
X186149285Y-67143333D01*
X186625476Y-67762380D02*
X186625476Y-67095714D01*
X186625476Y-66762380D02*
X186577857Y-66810000D01*
X186625476Y-66857619D01*
X186673095Y-66810000D01*
X186625476Y-66762380D01*
X186625476Y-66857619D01*
X187101666Y-67095714D02*
X187101666Y-67762380D01*
X187101666Y-67190952D02*
X187149285Y-67143333D01*
X187244523Y-67095714D01*
X187387380Y-67095714D01*
X187482619Y-67143333D01*
X187530238Y-67238571D01*
X187530238Y-67762380D01*
X188387380Y-67714761D02*
X188292142Y-67762380D01*
X188101666Y-67762380D01*
X188006428Y-67714761D01*
X187958809Y-67619523D01*
X187958809Y-67238571D01*
X188006428Y-67143333D01*
X188101666Y-67095714D01*
X188292142Y-67095714D01*
X188387380Y-67143333D01*
X188435000Y-67238571D01*
X188435000Y-67333809D01*
X187958809Y-67429047D01*
X189244523Y-67714761D02*
X189149285Y-67762380D01*
X188958809Y-67762380D01*
X188863571Y-67714761D01*
X188815952Y-67619523D01*
X188815952Y-67238571D01*
X188863571Y-67143333D01*
X188958809Y-67095714D01*
X189149285Y-67095714D01*
X189244523Y-67143333D01*
X189292142Y-67238571D01*
X189292142Y-67333809D01*
X188815952Y-67429047D01*
X189720714Y-67762380D02*
X189720714Y-67095714D01*
X189720714Y-67286190D02*
X189768333Y-67190952D01*
X189815952Y-67143333D01*
X189911190Y-67095714D01*
X190006428Y-67095714D01*
X190339761Y-67762380D02*
X190339761Y-67095714D01*
X190339761Y-66762380D02*
X190292142Y-66810000D01*
X190339761Y-66857619D01*
X190387380Y-66810000D01*
X190339761Y-66762380D01*
X190339761Y-66857619D01*
X190815952Y-67095714D02*
X190815952Y-67762380D01*
X190815952Y-67190952D02*
X190863571Y-67143333D01*
X190958809Y-67095714D01*
X191101666Y-67095714D01*
X191196904Y-67143333D01*
X191244523Y-67238571D01*
X191244523Y-67762380D01*
X192149285Y-67095714D02*
X192149285Y-67905238D01*
X192101666Y-68000476D01*
X192054047Y-68048095D01*
X191958809Y-68095714D01*
X191815952Y-68095714D01*
X191720714Y-68048095D01*
X192149285Y-67714761D02*
X192054047Y-67762380D01*
X191863571Y-67762380D01*
X191768333Y-67714761D01*
X191720714Y-67667142D01*
X191673095Y-67571904D01*
X191673095Y-67286190D01*
X191720714Y-67190952D01*
X191768333Y-67143333D01*
X191863571Y-67095714D01*
X192054047Y-67095714D01*
X192149285Y-67143333D01*
D13*
%TO.C,G\u002A\u002A\u002A*%
G36*
X148606116Y-69630405D02*
G01*
X148755991Y-69701800D01*
X148773232Y-69728691D01*
X148781480Y-69887788D01*
X148697540Y-69964820D01*
X148573703Y-69920500D01*
X148550644Y-69895921D01*
X148362975Y-69790098D01*
X148089054Y-69775861D01*
X147785188Y-69853416D01*
X147700046Y-69892826D01*
X147456705Y-70101215D01*
X147331354Y-70384331D01*
X147318609Y-70700912D01*
X147413091Y-71009696D01*
X147609418Y-71269420D01*
X147901647Y-71438639D01*
X148148466Y-71499669D01*
X148338109Y-71480288D01*
X148486155Y-71417472D01*
X148681873Y-71322158D01*
X148762139Y-71304721D01*
X148764270Y-71369999D01*
X148743579Y-71450839D01*
X148623184Y-71606170D01*
X148389367Y-71691954D01*
X148085509Y-71702572D01*
X147754990Y-71632403D01*
X147651485Y-71592320D01*
X147313461Y-71364147D01*
X147096318Y-71042728D01*
X147023666Y-70681044D01*
X147089759Y-70264861D01*
X147275681Y-69928776D01*
X147528895Y-69724433D01*
X147766994Y-69643632D01*
X148060185Y-69601145D01*
X148357037Y-69596794D01*
X148606116Y-69630405D01*
G37*
X148606116Y-69630405D02*
X148755991Y-69701800D01*
X148773232Y-69728691D01*
X148781480Y-69887788D01*
X148697540Y-69964820D01*
X148573703Y-69920500D01*
X148550644Y-69895921D01*
X148362975Y-69790098D01*
X148089054Y-69775861D01*
X147785188Y-69853416D01*
X147700046Y-69892826D01*
X147456705Y-70101215D01*
X147331354Y-70384331D01*
X147318609Y-70700912D01*
X147413091Y-71009696D01*
X147609418Y-71269420D01*
X147901647Y-71438639D01*
X148148466Y-71499669D01*
X148338109Y-71480288D01*
X148486155Y-71417472D01*
X148681873Y-71322158D01*
X148762139Y-71304721D01*
X148764270Y-71369999D01*
X148743579Y-71450839D01*
X148623184Y-71606170D01*
X148389367Y-71691954D01*
X148085509Y-71702572D01*
X147754990Y-71632403D01*
X147651485Y-71592320D01*
X147313461Y-71364147D01*
X147096318Y-71042728D01*
X147023666Y-70681044D01*
X147089759Y-70264861D01*
X147275681Y-69928776D01*
X147528895Y-69724433D01*
X147766994Y-69643632D01*
X148060185Y-69601145D01*
X148357037Y-69596794D01*
X148606116Y-69630405D01*
G36*
X150280650Y-69647987D02*
G01*
X150577809Y-69814763D01*
X150791816Y-70104935D01*
X150916089Y-70510770D01*
X150884755Y-70909166D01*
X150708877Y-71265179D01*
X150399522Y-71543865D01*
X150322395Y-71587358D01*
X149985479Y-71699974D01*
X149654375Y-71667420D01*
X149397287Y-71556742D01*
X149073686Y-71299780D01*
X148885812Y-70969709D01*
X148856951Y-70746649D01*
X149149228Y-70746649D01*
X149265551Y-71116555D01*
X149388096Y-71308349D01*
X149538324Y-71408291D01*
X149774678Y-71446860D01*
X149908741Y-71451982D01*
X150211294Y-71399157D01*
X150389298Y-71268167D01*
X150591665Y-70938012D01*
X150633325Y-70560439D01*
X150581237Y-70320425D01*
X150408428Y-70006917D01*
X150159872Y-69816591D01*
X149871883Y-69758202D01*
X149580778Y-69840509D01*
X149359526Y-70025829D01*
X149178278Y-70364471D01*
X149149228Y-70746649D01*
X148856951Y-70746649D01*
X148838009Y-70600252D01*
X148934623Y-70225132D01*
X149179997Y-69878070D01*
X149180877Y-69877189D01*
X149387111Y-69698399D01*
X149585655Y-69616284D01*
X149862485Y-69596017D01*
X149875027Y-69596000D01*
X150280650Y-69647987D01*
G37*
X150280650Y-69647987D02*
X150577809Y-69814763D01*
X150791816Y-70104935D01*
X150916089Y-70510770D01*
X150884755Y-70909166D01*
X150708877Y-71265179D01*
X150399522Y-71543865D01*
X150322395Y-71587358D01*
X149985479Y-71699974D01*
X149654375Y-71667420D01*
X149397287Y-71556742D01*
X149073686Y-71299780D01*
X148885812Y-70969709D01*
X148856951Y-70746649D01*
X149149228Y-70746649D01*
X149265551Y-71116555D01*
X149388096Y-71308349D01*
X149538324Y-71408291D01*
X149774678Y-71446860D01*
X149908741Y-71451982D01*
X150211294Y-71399157D01*
X150389298Y-71268167D01*
X150591665Y-70938012D01*
X150633325Y-70560439D01*
X150581237Y-70320425D01*
X150408428Y-70006917D01*
X150159872Y-69816591D01*
X149871883Y-69758202D01*
X149580778Y-69840509D01*
X149359526Y-70025829D01*
X149178278Y-70364471D01*
X149149228Y-70746649D01*
X148856951Y-70746649D01*
X148838009Y-70600252D01*
X148934623Y-70225132D01*
X149179997Y-69878070D01*
X149180877Y-69877189D01*
X149387111Y-69698399D01*
X149585655Y-69616284D01*
X149862485Y-69596017D01*
X149875027Y-69596000D01*
X150280650Y-69647987D01*
G36*
X157327522Y-69601142D02*
G01*
X157411546Y-69639061D01*
X157436182Y-69720664D01*
X157437666Y-69798112D01*
X157418063Y-69978032D01*
X157344961Y-70000708D01*
X157213904Y-69892333D01*
X157045318Y-69805172D01*
X156807928Y-69765556D01*
X156790106Y-69765333D01*
X156471681Y-69840015D01*
X156219627Y-70037383D01*
X156053399Y-70317419D01*
X155992448Y-70640105D01*
X156056228Y-70965424D01*
X156136398Y-71110105D01*
X156329980Y-71293470D01*
X156594082Y-71436353D01*
X156860588Y-71508789D01*
X157020548Y-71499027D01*
X157125190Y-71406592D01*
X157182312Y-71253472D01*
X157180467Y-71107325D01*
X157108210Y-71035805D01*
X157099000Y-71035333D01*
X157016793Y-70970904D01*
X157014333Y-70950667D01*
X157088762Y-70894704D01*
X157271776Y-70866731D01*
X157310666Y-70866000D01*
X157506534Y-70887265D01*
X157604440Y-70939555D01*
X157607000Y-70950667D01*
X157542570Y-71032873D01*
X157522333Y-71035333D01*
X157465556Y-71109567D01*
X157438127Y-71291266D01*
X157437666Y-71321083D01*
X157417297Y-71522051D01*
X157323508Y-71618198D01*
X157173083Y-71659750D01*
X156879082Y-71703784D01*
X156647745Y-71686464D01*
X156389083Y-71596853D01*
X156288243Y-71552214D01*
X155955496Y-71320648D01*
X155753747Y-71007883D01*
X155688935Y-70646883D01*
X155767000Y-70270616D01*
X155992953Y-69913084D01*
X156135833Y-69769983D01*
X156281010Y-69685188D01*
X156482257Y-69639407D01*
X156793344Y-69613347D01*
X156835081Y-69610940D01*
X157147553Y-69595554D01*
X157327522Y-69601142D01*
G37*
X157327522Y-69601142D02*
X157411546Y-69639061D01*
X157436182Y-69720664D01*
X157437666Y-69798112D01*
X157418063Y-69978032D01*
X157344961Y-70000708D01*
X157213904Y-69892333D01*
X157045318Y-69805172D01*
X156807928Y-69765556D01*
X156790106Y-69765333D01*
X156471681Y-69840015D01*
X156219627Y-70037383D01*
X156053399Y-70317419D01*
X155992448Y-70640105D01*
X156056228Y-70965424D01*
X156136398Y-71110105D01*
X156329980Y-71293470D01*
X156594082Y-71436353D01*
X156860588Y-71508789D01*
X157020548Y-71499027D01*
X157125190Y-71406592D01*
X157182312Y-71253472D01*
X157180467Y-71107325D01*
X157108210Y-71035805D01*
X157099000Y-71035333D01*
X157016793Y-70970904D01*
X157014333Y-70950667D01*
X157088762Y-70894704D01*
X157271776Y-70866731D01*
X157310666Y-70866000D01*
X157506534Y-70887265D01*
X157604440Y-70939555D01*
X157607000Y-70950667D01*
X157542570Y-71032873D01*
X157522333Y-71035333D01*
X157465556Y-71109567D01*
X157438127Y-71291266D01*
X157437666Y-71321083D01*
X157417297Y-71522051D01*
X157323508Y-71618198D01*
X157173083Y-71659750D01*
X156879082Y-71703784D01*
X156647745Y-71686464D01*
X156389083Y-71596853D01*
X156288243Y-71552214D01*
X155955496Y-71320648D01*
X155753747Y-71007883D01*
X155688935Y-70646883D01*
X155767000Y-70270616D01*
X155992953Y-69913084D01*
X156135833Y-69769983D01*
X156281010Y-69685188D01*
X156482257Y-69639407D01*
X156793344Y-69613347D01*
X156835081Y-69610940D01*
X157147553Y-69595554D01*
X157327522Y-69601142D01*
G36*
X151611219Y-69612816D02*
G01*
X151747517Y-69655364D01*
X151765000Y-69680667D01*
X151696423Y-69755781D01*
X151638000Y-69765333D01*
X151578777Y-69793311D01*
X151540755Y-69895814D01*
X151519755Y-70100693D01*
X151511601Y-70435801D01*
X151511000Y-70612000D01*
X151511000Y-71458667D01*
X151746161Y-71458667D01*
X151999607Y-71408651D01*
X152174969Y-71323031D01*
X152344988Y-71226599D01*
X152411672Y-71259916D01*
X152389401Y-71431005D01*
X152386767Y-71441197D01*
X152348953Y-71534845D01*
X152271259Y-71590631D01*
X152116449Y-71618238D01*
X151847289Y-71627351D01*
X151668506Y-71628000D01*
X150999096Y-71628000D01*
X151137063Y-71417436D01*
X151200058Y-71238820D01*
X151238081Y-70965031D01*
X151251968Y-70642287D01*
X151242555Y-70316803D01*
X151210680Y-70034799D01*
X151157177Y-69842490D01*
X151107545Y-69786070D01*
X150997969Y-69718809D01*
X151034169Y-69654358D01*
X151193091Y-69608568D01*
X151384000Y-69596000D01*
X151611219Y-69612816D01*
G37*
X151611219Y-69612816D02*
X151747517Y-69655364D01*
X151765000Y-69680667D01*
X151696423Y-69755781D01*
X151638000Y-69765333D01*
X151578777Y-69793311D01*
X151540755Y-69895814D01*
X151519755Y-70100693D01*
X151511601Y-70435801D01*
X151511000Y-70612000D01*
X151511000Y-71458667D01*
X151746161Y-71458667D01*
X151999607Y-71408651D01*
X152174969Y-71323031D01*
X152344988Y-71226599D01*
X152411672Y-71259916D01*
X152389401Y-71431005D01*
X152386767Y-71441197D01*
X152348953Y-71534845D01*
X152271259Y-71590631D01*
X152116449Y-71618238D01*
X151847289Y-71627351D01*
X151668506Y-71628000D01*
X150999096Y-71628000D01*
X151137063Y-71417436D01*
X151200058Y-71238820D01*
X151238081Y-70965031D01*
X151251968Y-70642287D01*
X151242555Y-70316803D01*
X151210680Y-70034799D01*
X151157177Y-69842490D01*
X151107545Y-69786070D01*
X150997969Y-69718809D01*
X151034169Y-69654358D01*
X151193091Y-69608568D01*
X151384000Y-69596000D01*
X151611219Y-69612816D01*
G36*
X153156582Y-69616704D02*
G01*
X153279946Y-69670039D01*
X153261673Y-69742833D01*
X153158803Y-69797177D01*
X153096648Y-69850499D01*
X153060540Y-69972667D01*
X153046500Y-70195061D01*
X153050548Y-70549058D01*
X153052970Y-70631736D01*
X153077333Y-71416333D01*
X153315639Y-71443652D01*
X153567943Y-71417245D01*
X153760139Y-71335867D01*
X153914775Y-71261078D01*
X153963267Y-71315141D01*
X153914941Y-71494075D01*
X153854734Y-71562981D01*
X153717344Y-71603841D01*
X153469913Y-71622476D01*
X153174108Y-71625307D01*
X152839273Y-71620526D01*
X152649788Y-71606034D01*
X152581730Y-71576741D01*
X152611177Y-71527559D01*
X152632833Y-71510140D01*
X152707653Y-71373499D01*
X152759883Y-71124587D01*
X152788957Y-70809235D01*
X152794310Y-70473273D01*
X152775374Y-70162535D01*
X152731584Y-69922850D01*
X152662375Y-69800051D01*
X152654000Y-69795951D01*
X152531238Y-69718068D01*
X152560881Y-69650309D01*
X152726032Y-69605977D01*
X152908000Y-69596000D01*
X153156582Y-69616704D01*
G37*
X153156582Y-69616704D02*
X153279946Y-69670039D01*
X153261673Y-69742833D01*
X153158803Y-69797177D01*
X153096648Y-69850499D01*
X153060540Y-69972667D01*
X153046500Y-70195061D01*
X153050548Y-70549058D01*
X153052970Y-70631736D01*
X153077333Y-71416333D01*
X153315639Y-71443652D01*
X153567943Y-71417245D01*
X153760139Y-71335867D01*
X153914775Y-71261078D01*
X153963267Y-71315141D01*
X153914941Y-71494075D01*
X153854734Y-71562981D01*
X153717344Y-71603841D01*
X153469913Y-71622476D01*
X153174108Y-71625307D01*
X152839273Y-71620526D01*
X152649788Y-71606034D01*
X152581730Y-71576741D01*
X152611177Y-71527559D01*
X152632833Y-71510140D01*
X152707653Y-71373499D01*
X152759883Y-71124587D01*
X152788957Y-70809235D01*
X152794310Y-70473273D01*
X152775374Y-70162535D01*
X152731584Y-69922850D01*
X152662375Y-69800051D01*
X152654000Y-69795951D01*
X152531238Y-69718068D01*
X152560881Y-69650309D01*
X152726032Y-69605977D01*
X152908000Y-69596000D01*
X153156582Y-69616704D01*
G36*
X155148929Y-69598255D02*
G01*
X155350077Y-69612220D01*
X155450992Y-69648690D01*
X155486223Y-69718462D01*
X155490333Y-69807667D01*
X155485636Y-69958031D01*
X155442592Y-70005595D01*
X155317764Y-69961847D01*
X155174711Y-69891139D01*
X154906353Y-69803002D01*
X154732507Y-69855000D01*
X154650948Y-70048287D01*
X154643666Y-70166540D01*
X154643666Y-70464962D01*
X154982333Y-70419538D01*
X155198862Y-70399805D01*
X155295996Y-70432764D01*
X155320641Y-70539207D01*
X155321000Y-70569667D01*
X155304876Y-70692533D01*
X155225234Y-70737938D01*
X155035167Y-70726675D01*
X154982333Y-70719795D01*
X154643666Y-70674371D01*
X154643666Y-71066519D01*
X154649885Y-71305052D01*
X154689964Y-71419670D01*
X154796036Y-71455782D01*
X154921161Y-71458667D01*
X155179433Y-71417939D01*
X155386827Y-71326866D01*
X155530308Y-71256031D01*
X155572161Y-71318542D01*
X155523608Y-71494075D01*
X155465739Y-71561144D01*
X155333708Y-71601785D01*
X155095383Y-71621387D01*
X154740441Y-71625425D01*
X154385155Y-71618774D01*
X154184504Y-71600433D01*
X154124053Y-71568205D01*
X154156833Y-71536551D01*
X154226140Y-71471990D01*
X154270268Y-71353736D01*
X154294483Y-71148759D01*
X154304057Y-70824033D01*
X154305000Y-70607793D01*
X154296912Y-70215842D01*
X154274296Y-69932648D01*
X154239616Y-69782759D01*
X154220333Y-69765333D01*
X154138126Y-69700904D01*
X154135666Y-69680667D01*
X154214882Y-69638737D01*
X154431152Y-69609273D01*
X154752407Y-69596282D01*
X154813000Y-69596000D01*
X155148929Y-69598255D01*
G37*
X155148929Y-69598255D02*
X155350077Y-69612220D01*
X155450992Y-69648690D01*
X155486223Y-69718462D01*
X155490333Y-69807667D01*
X155485636Y-69958031D01*
X155442592Y-70005595D01*
X155317764Y-69961847D01*
X155174711Y-69891139D01*
X154906353Y-69803002D01*
X154732507Y-69855000D01*
X154650948Y-70048287D01*
X154643666Y-70166540D01*
X154643666Y-70464962D01*
X154982333Y-70419538D01*
X155198862Y-70399805D01*
X155295996Y-70432764D01*
X155320641Y-70539207D01*
X155321000Y-70569667D01*
X155304876Y-70692533D01*
X155225234Y-70737938D01*
X155035167Y-70726675D01*
X154982333Y-70719795D01*
X154643666Y-70674371D01*
X154643666Y-71066519D01*
X154649885Y-71305052D01*
X154689964Y-71419670D01*
X154796036Y-71455782D01*
X154921161Y-71458667D01*
X155179433Y-71417939D01*
X155386827Y-71326866D01*
X155530308Y-71256031D01*
X155572161Y-71318542D01*
X155523608Y-71494075D01*
X155465739Y-71561144D01*
X155333708Y-71601785D01*
X155095383Y-71621387D01*
X154740441Y-71625425D01*
X154385155Y-71618774D01*
X154184504Y-71600433D01*
X154124053Y-71568205D01*
X154156833Y-71536551D01*
X154226140Y-71471990D01*
X154270268Y-71353736D01*
X154294483Y-71148759D01*
X154304057Y-70824033D01*
X154305000Y-70607793D01*
X154296912Y-70215842D01*
X154274296Y-69932648D01*
X154239616Y-69782759D01*
X154220333Y-69765333D01*
X154138126Y-69700904D01*
X154135666Y-69680667D01*
X154214882Y-69638737D01*
X154431152Y-69609273D01*
X154752407Y-69596282D01*
X154813000Y-69596000D01*
X155148929Y-69598255D01*
G36*
X158752127Y-69597760D02*
G01*
X158961960Y-69609700D01*
X159067654Y-69641806D01*
X159101804Y-69704065D01*
X159097008Y-69806464D01*
X159096866Y-69807802D01*
X159062246Y-69971823D01*
X159012491Y-70081104D01*
X158971803Y-70095623D01*
X158961666Y-70031349D01*
X158891231Y-69930374D01*
X158744456Y-69847892D01*
X158478271Y-69811253D01*
X158288811Y-69914944D01*
X158202305Y-70141990D01*
X158199666Y-70200538D01*
X158210378Y-70365575D01*
X158274708Y-70433525D01*
X158440948Y-70436845D01*
X158538333Y-70428155D01*
X158756709Y-70418534D01*
X158854326Y-70458511D01*
X158876996Y-70567230D01*
X158877000Y-70569667D01*
X158855168Y-70679658D01*
X158759133Y-70720598D01*
X158543081Y-70711628D01*
X158538333Y-70711178D01*
X158321952Y-70698852D01*
X158225403Y-70738890D01*
X158200429Y-70863162D01*
X158199666Y-70934849D01*
X158216256Y-71166009D01*
X158251058Y-71324742D01*
X158370467Y-71425973D01*
X158584127Y-71456066D01*
X158832916Y-71415642D01*
X159042401Y-71316424D01*
X159181938Y-71224919D01*
X159216728Y-71235091D01*
X159188240Y-71323349D01*
X159139124Y-71489284D01*
X159131000Y-71550258D01*
X159052746Y-71584658D01*
X158843520Y-71610636D01*
X158541621Y-71624307D01*
X158390166Y-71625425D01*
X158031814Y-71618818D01*
X157828209Y-71600625D01*
X157765027Y-71568700D01*
X157797500Y-71536551D01*
X157868340Y-71469989D01*
X157912800Y-71347797D01*
X157936527Y-71136102D01*
X157945163Y-70801031D01*
X157945666Y-70647469D01*
X157940056Y-70254285D01*
X157920319Y-70000938D01*
X157882099Y-69858212D01*
X157821038Y-69796893D01*
X157818666Y-69795951D01*
X157690946Y-69721429D01*
X157723278Y-69661593D01*
X157906781Y-69619466D01*
X158232574Y-69598074D01*
X158405557Y-69596000D01*
X158752127Y-69597760D01*
G37*
X158752127Y-69597760D02*
X158961960Y-69609700D01*
X159067654Y-69641806D01*
X159101804Y-69704065D01*
X159097008Y-69806464D01*
X159096866Y-69807802D01*
X159062246Y-69971823D01*
X159012491Y-70081104D01*
X158971803Y-70095623D01*
X158961666Y-70031349D01*
X158891231Y-69930374D01*
X158744456Y-69847892D01*
X158478271Y-69811253D01*
X158288811Y-69914944D01*
X158202305Y-70141990D01*
X158199666Y-70200538D01*
X158210378Y-70365575D01*
X158274708Y-70433525D01*
X158440948Y-70436845D01*
X158538333Y-70428155D01*
X158756709Y-70418534D01*
X158854326Y-70458511D01*
X158876996Y-70567230D01*
X158877000Y-70569667D01*
X158855168Y-70679658D01*
X158759133Y-70720598D01*
X158543081Y-70711628D01*
X158538333Y-70711178D01*
X158321952Y-70698852D01*
X158225403Y-70738890D01*
X158200429Y-70863162D01*
X158199666Y-70934849D01*
X158216256Y-71166009D01*
X158251058Y-71324742D01*
X158370467Y-71425973D01*
X158584127Y-71456066D01*
X158832916Y-71415642D01*
X159042401Y-71316424D01*
X159181938Y-71224919D01*
X159216728Y-71235091D01*
X159188240Y-71323349D01*
X159139124Y-71489284D01*
X159131000Y-71550258D01*
X159052746Y-71584658D01*
X158843520Y-71610636D01*
X158541621Y-71624307D01*
X158390166Y-71625425D01*
X158031814Y-71618818D01*
X157828209Y-71600625D01*
X157765027Y-71568700D01*
X157797500Y-71536551D01*
X157868340Y-71469989D01*
X157912800Y-71347797D01*
X157936527Y-71136102D01*
X157945163Y-70801031D01*
X157945666Y-70647469D01*
X157940056Y-70254285D01*
X157920319Y-70000938D01*
X157882099Y-69858212D01*
X157821038Y-69796893D01*
X157818666Y-69795951D01*
X157690946Y-69721429D01*
X157723278Y-69661593D01*
X157906781Y-69619466D01*
X158232574Y-69598074D01*
X158405557Y-69596000D01*
X158752127Y-69597760D01*
G36*
X153026345Y-68708087D02*
G01*
X153091226Y-68769274D01*
X153183228Y-68899901D01*
X153140728Y-69019437D01*
X153123193Y-69041417D01*
X153005127Y-69149885D01*
X152950333Y-69172667D01*
X152849714Y-69115091D01*
X152777473Y-69041417D01*
X152715460Y-68916736D01*
X152786557Y-68792814D01*
X152809439Y-68769274D01*
X152928467Y-68674352D01*
X153026345Y-68708087D01*
G37*
X153026345Y-68708087D02*
X153091226Y-68769274D01*
X153183228Y-68899901D01*
X153140728Y-69019437D01*
X153123193Y-69041417D01*
X153005127Y-69149885D01*
X152950333Y-69172667D01*
X152849714Y-69115091D01*
X152777473Y-69041417D01*
X152715460Y-68916736D01*
X152786557Y-68792814D01*
X152809439Y-68769274D01*
X152928467Y-68674352D01*
X153026345Y-68708087D01*
G36*
X149436963Y-68835716D02*
G01*
X150348395Y-68840826D01*
X151104848Y-68849274D01*
X151703539Y-68861003D01*
X152141683Y-68875956D01*
X152416495Y-68894076D01*
X152525193Y-68915307D01*
X152527000Y-68918667D01*
X152445641Y-68937991D01*
X152214765Y-68954903D01*
X151854170Y-68969405D01*
X151383653Y-68981496D01*
X150823015Y-68991175D01*
X150192052Y-68998443D01*
X149510564Y-69003300D01*
X148798349Y-69005746D01*
X148075205Y-69005780D01*
X147360931Y-69003404D01*
X146675325Y-68998616D01*
X146038185Y-68991417D01*
X145469311Y-68981807D01*
X144988500Y-68969786D01*
X144615551Y-68955354D01*
X144370263Y-68938510D01*
X144272433Y-68919255D01*
X144272000Y-68918667D01*
X144341850Y-68896638D01*
X144579933Y-68877884D01*
X144985178Y-68862428D01*
X145556515Y-68850291D01*
X146292874Y-68841495D01*
X147193186Y-68836064D01*
X148256380Y-68834017D01*
X148373336Y-68834000D01*
X149436963Y-68835716D01*
G37*
X149436963Y-68835716D02*
X150348395Y-68840826D01*
X151104848Y-68849274D01*
X151703539Y-68861003D01*
X152141683Y-68875956D01*
X152416495Y-68894076D01*
X152525193Y-68915307D01*
X152527000Y-68918667D01*
X152445641Y-68937991D01*
X152214765Y-68954903D01*
X151854170Y-68969405D01*
X151383653Y-68981496D01*
X150823015Y-68991175D01*
X150192052Y-68998443D01*
X149510564Y-69003300D01*
X148798349Y-69005746D01*
X148075205Y-69005780D01*
X147360931Y-69003404D01*
X146675325Y-68998616D01*
X146038185Y-68991417D01*
X145469311Y-68981807D01*
X144988500Y-68969786D01*
X144615551Y-68955354D01*
X144370263Y-68938510D01*
X144272433Y-68919255D01*
X144272000Y-68918667D01*
X144341850Y-68896638D01*
X144579933Y-68877884D01*
X144985178Y-68862428D01*
X145556515Y-68850291D01*
X146292874Y-68841495D01*
X147193186Y-68836064D01*
X148256380Y-68834017D01*
X148373336Y-68834000D01*
X149436963Y-68835716D01*
G36*
X158663298Y-68835650D02*
G01*
X159598977Y-68840585D01*
X160370680Y-68848786D01*
X160977385Y-68860231D01*
X161418069Y-68874901D01*
X161691709Y-68892775D01*
X161797284Y-68913832D01*
X161798000Y-68918667D01*
X161704034Y-68937874D01*
X161460556Y-68954695D01*
X161087368Y-68969130D01*
X160604276Y-68981179D01*
X160031082Y-68990841D01*
X159387590Y-68998118D01*
X158693605Y-69003009D01*
X157968929Y-69005514D01*
X157233367Y-69005632D01*
X156506723Y-69003365D01*
X155808800Y-68998711D01*
X155159402Y-68991672D01*
X154578333Y-68982246D01*
X154085396Y-68970434D01*
X153700396Y-68956237D01*
X153443136Y-68939653D01*
X153333420Y-68920683D01*
X153331333Y-68918667D01*
X153401410Y-68896942D01*
X153639768Y-68878397D01*
X154045385Y-68863051D01*
X154617238Y-68850925D01*
X155354304Y-68842040D01*
X156255561Y-68836416D01*
X157319987Y-68834073D01*
X157564666Y-68834000D01*
X158663298Y-68835650D01*
G37*
X158663298Y-68835650D02*
X159598977Y-68840585D01*
X160370680Y-68848786D01*
X160977385Y-68860231D01*
X161418069Y-68874901D01*
X161691709Y-68892775D01*
X161797284Y-68913832D01*
X161798000Y-68918667D01*
X161704034Y-68937874D01*
X161460556Y-68954695D01*
X161087368Y-68969130D01*
X160604276Y-68981179D01*
X160031082Y-68990841D01*
X159387590Y-68998118D01*
X158693605Y-69003009D01*
X157968929Y-69005514D01*
X157233367Y-69005632D01*
X156506723Y-69003365D01*
X155808800Y-68998711D01*
X155159402Y-68991672D01*
X154578333Y-68982246D01*
X154085396Y-68970434D01*
X153700396Y-68956237D01*
X153443136Y-68939653D01*
X153333420Y-68920683D01*
X153331333Y-68918667D01*
X153401410Y-68896942D01*
X153639768Y-68878397D01*
X154045385Y-68863051D01*
X154617238Y-68850925D01*
X155354304Y-68842040D01*
X156255561Y-68836416D01*
X157319987Y-68834073D01*
X157564666Y-68834000D01*
X158663298Y-68835650D01*
G36*
X147490871Y-66705944D02*
G01*
X147656482Y-67136558D01*
X147808805Y-67516060D01*
X147934942Y-67813532D01*
X148021998Y-67998058D01*
X148046451Y-68037842D01*
X148207948Y-68136470D01*
X148402452Y-68146114D01*
X148553127Y-68068945D01*
X148580941Y-68022742D01*
X148601569Y-67887498D01*
X148618246Y-67623048D01*
X148629096Y-67269504D01*
X148632333Y-66925373D01*
X148629707Y-66502915D01*
X148618067Y-66215148D01*
X148591767Y-66027464D01*
X148545163Y-65905254D01*
X148472609Y-65813909D01*
X148447035Y-65789298D01*
X148261736Y-65616666D01*
X149166701Y-65616666D01*
X150071666Y-65616667D01*
X150071666Y-66201636D01*
X149863848Y-65993818D01*
X149583195Y-65818297D01*
X149358827Y-65786000D01*
X149096320Y-65840719D01*
X148944584Y-66011854D01*
X148896381Y-66309870D01*
X148902602Y-66445751D01*
X148934134Y-66654110D01*
X149017547Y-66748138D01*
X149206773Y-66782823D01*
X149235635Y-66785316D01*
X149533709Y-66758961D01*
X149680135Y-66673435D01*
X149770444Y-66598506D01*
X149809096Y-66637883D01*
X149817638Y-66817858D01*
X149817666Y-66841264D01*
X149808726Y-67037825D01*
X149763496Y-67099169D01*
X149654362Y-67059192D01*
X149644421Y-67053906D01*
X149435622Y-66995142D01*
X149199921Y-66987427D01*
X149012609Y-67026379D01*
X148929230Y-67131435D01*
X148900981Y-67304312D01*
X148895571Y-67629087D01*
X148936260Y-67907498D01*
X149013038Y-68097066D01*
X149101836Y-68156667D01*
X149212023Y-68203619D01*
X149225000Y-68241333D01*
X149144261Y-68280088D01*
X148917344Y-68308281D01*
X148567195Y-68323728D01*
X148336000Y-68326000D01*
X147971071Y-68319119D01*
X147678737Y-68300510D01*
X147493968Y-68273227D01*
X147447000Y-68248389D01*
X147513548Y-68153115D01*
X147547151Y-68137394D01*
X147598512Y-68073235D01*
X147587074Y-67912928D01*
X147535104Y-67703278D01*
X147422906Y-67302545D01*
X146388666Y-67352333D01*
X146221047Y-67839167D01*
X146053427Y-68326000D01*
X145183880Y-68326000D01*
X144823302Y-68319152D01*
X144535707Y-68300657D01*
X144356457Y-68273591D01*
X144314333Y-68250392D01*
X144381712Y-68157835D01*
X144441333Y-68126049D01*
X144494565Y-68077183D01*
X144531081Y-67961464D01*
X144553681Y-67753228D01*
X144565164Y-67426814D01*
X144568333Y-66962158D01*
X144565593Y-66497849D01*
X144555034Y-66173765D01*
X144533151Y-65960849D01*
X144496436Y-65830047D01*
X144441383Y-65752304D01*
X144420166Y-65734526D01*
X144359045Y-65672573D01*
X144398927Y-65638292D01*
X144564794Y-65623819D01*
X144780000Y-65621242D01*
X145057751Y-65623056D01*
X145190706Y-65637329D01*
X145203398Y-65675591D01*
X145120361Y-65749371D01*
X145094743Y-65769159D01*
X145014529Y-65839400D01*
X144961188Y-65924864D01*
X144930254Y-66057318D01*
X144917263Y-66268527D01*
X144917749Y-66590257D01*
X144925410Y-66973776D01*
X144949333Y-68029667D01*
X145841397Y-68080955D01*
X146084403Y-67547311D01*
X146234005Y-67220475D01*
X146309728Y-67056000D01*
X146526458Y-67056000D01*
X146902062Y-67056000D01*
X147127509Y-67050509D01*
X147261524Y-67036637D01*
X147277666Y-67028749D01*
X147249585Y-66905662D01*
X147180575Y-66705133D01*
X147093492Y-66484561D01*
X147011188Y-66301344D01*
X146956517Y-66212882D01*
X146952207Y-66211329D01*
X146890343Y-66283293D01*
X146790044Y-66466410D01*
X146711562Y-66634662D01*
X146526458Y-67056000D01*
X146309728Y-67056000D01*
X146422162Y-66811790D01*
X146615873Y-66392880D01*
X146680657Y-66253269D01*
X147033906Y-65492871D01*
X147490871Y-66705944D01*
G37*
X147490871Y-66705944D02*
X147656482Y-67136558D01*
X147808805Y-67516060D01*
X147934942Y-67813532D01*
X148021998Y-67998058D01*
X148046451Y-68037842D01*
X148207948Y-68136470D01*
X148402452Y-68146114D01*
X148553127Y-68068945D01*
X148580941Y-68022742D01*
X148601569Y-67887498D01*
X148618246Y-67623048D01*
X148629096Y-67269504D01*
X148632333Y-66925373D01*
X148629707Y-66502915D01*
X148618067Y-66215148D01*
X148591767Y-66027464D01*
X148545163Y-65905254D01*
X148472609Y-65813909D01*
X148447035Y-65789298D01*
X148261736Y-65616666D01*
X149166701Y-65616666D01*
X150071666Y-65616667D01*
X150071666Y-66201636D01*
X149863848Y-65993818D01*
X149583195Y-65818297D01*
X149358827Y-65786000D01*
X149096320Y-65840719D01*
X148944584Y-66011854D01*
X148896381Y-66309870D01*
X148902602Y-66445751D01*
X148934134Y-66654110D01*
X149017547Y-66748138D01*
X149206773Y-66782823D01*
X149235635Y-66785316D01*
X149533709Y-66758961D01*
X149680135Y-66673435D01*
X149770444Y-66598506D01*
X149809096Y-66637883D01*
X149817638Y-66817858D01*
X149817666Y-66841264D01*
X149808726Y-67037825D01*
X149763496Y-67099169D01*
X149654362Y-67059192D01*
X149644421Y-67053906D01*
X149435622Y-66995142D01*
X149199921Y-66987427D01*
X149012609Y-67026379D01*
X148929230Y-67131435D01*
X148900981Y-67304312D01*
X148895571Y-67629087D01*
X148936260Y-67907498D01*
X149013038Y-68097066D01*
X149101836Y-68156667D01*
X149212023Y-68203619D01*
X149225000Y-68241333D01*
X149144261Y-68280088D01*
X148917344Y-68308281D01*
X148567195Y-68323728D01*
X148336000Y-68326000D01*
X147971071Y-68319119D01*
X147678737Y-68300510D01*
X147493968Y-68273227D01*
X147447000Y-68248389D01*
X147513548Y-68153115D01*
X147547151Y-68137394D01*
X147598512Y-68073235D01*
X147587074Y-67912928D01*
X147535104Y-67703278D01*
X147422906Y-67302545D01*
X146388666Y-67352333D01*
X146221047Y-67839167D01*
X146053427Y-68326000D01*
X145183880Y-68326000D01*
X144823302Y-68319152D01*
X144535707Y-68300657D01*
X144356457Y-68273591D01*
X144314333Y-68250392D01*
X144381712Y-68157835D01*
X144441333Y-68126049D01*
X144494565Y-68077183D01*
X144531081Y-67961464D01*
X144553681Y-67753228D01*
X144565164Y-67426814D01*
X144568333Y-66962158D01*
X144565593Y-66497849D01*
X144555034Y-66173765D01*
X144533151Y-65960849D01*
X144496436Y-65830047D01*
X144441383Y-65752304D01*
X144420166Y-65734526D01*
X144359045Y-65672573D01*
X144398927Y-65638292D01*
X144564794Y-65623819D01*
X144780000Y-65621242D01*
X145057751Y-65623056D01*
X145190706Y-65637329D01*
X145203398Y-65675591D01*
X145120361Y-65749371D01*
X145094743Y-65769159D01*
X145014529Y-65839400D01*
X144961188Y-65924864D01*
X144930254Y-66057318D01*
X144917263Y-66268527D01*
X144917749Y-66590257D01*
X144925410Y-66973776D01*
X144949333Y-68029667D01*
X145841397Y-68080955D01*
X146084403Y-67547311D01*
X146234005Y-67220475D01*
X146309728Y-67056000D01*
X146526458Y-67056000D01*
X146902062Y-67056000D01*
X147127509Y-67050509D01*
X147261524Y-67036637D01*
X147277666Y-67028749D01*
X147249585Y-66905662D01*
X147180575Y-66705133D01*
X147093492Y-66484561D01*
X147011188Y-66301344D01*
X146956517Y-66212882D01*
X146952207Y-66211329D01*
X146890343Y-66283293D01*
X146790044Y-66466410D01*
X146711562Y-66634662D01*
X146526458Y-67056000D01*
X146309728Y-67056000D01*
X146422162Y-66811790D01*
X146615873Y-66392880D01*
X146680657Y-66253269D01*
X147033906Y-65492871D01*
X147490871Y-66705944D01*
G36*
X150987481Y-65617258D02*
G01*
X151010219Y-65659000D01*
X151064806Y-65796925D01*
X151167287Y-66059033D01*
X151304505Y-66411564D01*
X151463304Y-66820758D01*
X151517610Y-66960947D01*
X151719078Y-67462440D01*
X151878680Y-67815332D01*
X152003312Y-68033183D01*
X152099868Y-68129553D01*
X152114580Y-68134989D01*
X152261983Y-68197236D01*
X152257690Y-68256949D01*
X152119135Y-68303291D01*
X151863750Y-68325423D01*
X151807333Y-68326000D01*
X151552318Y-68312081D01*
X151383176Y-68276177D01*
X151341666Y-68241333D01*
X151410243Y-68166219D01*
X151468666Y-68156667D01*
X151558813Y-68143285D01*
X151586452Y-68079262D01*
X151550732Y-67928780D01*
X151457164Y-67672664D01*
X151318661Y-67310000D01*
X150344052Y-67310000D01*
X150206312Y-67654247D01*
X150119524Y-67935626D01*
X150137852Y-68097712D01*
X150263815Y-68155924D01*
X150288330Y-68156667D01*
X150397757Y-68204005D01*
X150410333Y-68241333D01*
X150333781Y-68287700D01*
X150136308Y-68318453D01*
X149944666Y-68326000D01*
X149689631Y-68313703D01*
X149520490Y-68281981D01*
X149479000Y-68251208D01*
X149548742Y-68169780D01*
X149628443Y-68137336D01*
X149738292Y-68038629D01*
X149886152Y-67803852D01*
X150056886Y-67457713D01*
X150088381Y-67386628D01*
X150248710Y-67020686D01*
X150495000Y-67020686D01*
X150570201Y-67042811D01*
X150758037Y-67055106D01*
X150833666Y-67056000D01*
X151073573Y-67031478D01*
X151165621Y-66961055D01*
X151166054Y-66950167D01*
X151129165Y-66811755D01*
X151044222Y-66591649D01*
X151006596Y-66505667D01*
X150853418Y-66167000D01*
X150674209Y-66576186D01*
X150573565Y-66812122D01*
X150508547Y-66976318D01*
X150495000Y-67020686D01*
X150248710Y-67020686D01*
X150349325Y-66791040D01*
X150552251Y-66335683D01*
X150705471Y-66004981D01*
X150817294Y-65783361D01*
X150896030Y-65655250D01*
X150949989Y-65605073D01*
X150987481Y-65617258D01*
G37*
X150987481Y-65617258D02*
X151010219Y-65659000D01*
X151064806Y-65796925D01*
X151167287Y-66059033D01*
X151304505Y-66411564D01*
X151463304Y-66820758D01*
X151517610Y-66960947D01*
X151719078Y-67462440D01*
X151878680Y-67815332D01*
X152003312Y-68033183D01*
X152099868Y-68129553D01*
X152114580Y-68134989D01*
X152261983Y-68197236D01*
X152257690Y-68256949D01*
X152119135Y-68303291D01*
X151863750Y-68325423D01*
X151807333Y-68326000D01*
X151552318Y-68312081D01*
X151383176Y-68276177D01*
X151341666Y-68241333D01*
X151410243Y-68166219D01*
X151468666Y-68156667D01*
X151558813Y-68143285D01*
X151586452Y-68079262D01*
X151550732Y-67928780D01*
X151457164Y-67672664D01*
X151318661Y-67310000D01*
X150344052Y-67310000D01*
X150206312Y-67654247D01*
X150119524Y-67935626D01*
X150137852Y-68097712D01*
X150263815Y-68155924D01*
X150288330Y-68156667D01*
X150397757Y-68204005D01*
X150410333Y-68241333D01*
X150333781Y-68287700D01*
X150136308Y-68318453D01*
X149944666Y-68326000D01*
X149689631Y-68313703D01*
X149520490Y-68281981D01*
X149479000Y-68251208D01*
X149548742Y-68169780D01*
X149628443Y-68137336D01*
X149738292Y-68038629D01*
X149886152Y-67803852D01*
X150056886Y-67457713D01*
X150088381Y-67386628D01*
X150248710Y-67020686D01*
X150495000Y-67020686D01*
X150570201Y-67042811D01*
X150758037Y-67055106D01*
X150833666Y-67056000D01*
X151073573Y-67031478D01*
X151165621Y-66961055D01*
X151166054Y-66950167D01*
X151129165Y-66811755D01*
X151044222Y-66591649D01*
X151006596Y-66505667D01*
X150853418Y-66167000D01*
X150674209Y-66576186D01*
X150573565Y-66812122D01*
X150508547Y-66976318D01*
X150495000Y-67020686D01*
X150248710Y-67020686D01*
X150349325Y-66791040D01*
X150552251Y-66335683D01*
X150705471Y-66004981D01*
X150817294Y-65783361D01*
X150896030Y-65655250D01*
X150949989Y-65605073D01*
X150987481Y-65617258D01*
G36*
X155998333Y-65870667D02*
G01*
X155968905Y-66060666D01*
X155899108Y-66123407D01*
X155816676Y-66040461D01*
X155800174Y-66002338D01*
X155684854Y-65902099D01*
X155467012Y-65829726D01*
X155212927Y-65799639D01*
X154989694Y-65825997D01*
X154885511Y-65884037D01*
X154832167Y-66003119D01*
X154813969Y-66229071D01*
X154813000Y-66342039D01*
X154813000Y-66802000D01*
X155090494Y-66802000D01*
X155348767Y-66761272D01*
X155556161Y-66670199D01*
X155681078Y-66593201D01*
X155733148Y-66622212D01*
X155744231Y-66785904D01*
X155744333Y-66839532D01*
X155716662Y-67055627D01*
X155645636Y-67142172D01*
X155549240Y-67080776D01*
X155532666Y-67056000D01*
X155421793Y-67002155D01*
X155210783Y-66973024D01*
X155142629Y-66971333D01*
X154804919Y-66971333D01*
X154855333Y-68029667D01*
X155271962Y-68056063D01*
X155584265Y-68051400D01*
X155815784Y-67976384D01*
X155942133Y-67895008D01*
X156103061Y-67781945D01*
X156158349Y-67769760D01*
X156135413Y-67854596D01*
X156129731Y-67868611D01*
X156051401Y-68081967D01*
X156021186Y-68177833D01*
X155983639Y-68243106D01*
X155895960Y-68285943D01*
X155728335Y-68310773D01*
X155450951Y-68322021D01*
X155035958Y-68324117D01*
X154628758Y-68322142D01*
X154367839Y-68315077D01*
X154230147Y-68298293D01*
X154192631Y-68267159D01*
X154232239Y-68217044D01*
X154286503Y-68173572D01*
X154365364Y-68104773D01*
X154418349Y-68021175D01*
X154449666Y-67891799D01*
X154463521Y-67685666D01*
X154464122Y-67371796D01*
X154455836Y-66926622D01*
X154444959Y-66478222D01*
X154431656Y-66171305D01*
X154410515Y-65978046D01*
X154376125Y-65870622D01*
X154323074Y-65821209D01*
X154245951Y-65801982D01*
X154236839Y-65800667D01*
X154080868Y-65802644D01*
X153939037Y-65872575D01*
X153787241Y-66033702D01*
X153601377Y-66309270D01*
X153453831Y-66555709D01*
X153273002Y-66886468D01*
X153170843Y-67144227D01*
X153126845Y-67393234D01*
X153119666Y-67602596D01*
X153135436Y-67908907D01*
X153187314Y-68076688D01*
X153246666Y-68126049D01*
X153371873Y-68202027D01*
X153342861Y-68265385D01*
X153174689Y-68307942D01*
X152886833Y-68321559D01*
X152618492Y-68316279D01*
X152495356Y-68299354D01*
X152493299Y-68259601D01*
X152588194Y-68185841D01*
X152590500Y-68184232D01*
X152710485Y-68065323D01*
X152767404Y-67890655D01*
X152781000Y-67625761D01*
X152763929Y-67378582D01*
X152701570Y-67133627D01*
X152577204Y-66841760D01*
X152395565Y-66493088D01*
X152217240Y-66187291D01*
X152055587Y-65948057D01*
X151934095Y-65808404D01*
X151892562Y-65786000D01*
X151750304Y-65732565D01*
X151722666Y-65701333D01*
X151766931Y-65651576D01*
X151961511Y-65623904D01*
X152162169Y-65619359D01*
X152429966Y-65625941D01*
X152553191Y-65647080D01*
X152556473Y-65690589D01*
X152511701Y-65730236D01*
X152444472Y-65799377D01*
X152434967Y-65890862D01*
X152492437Y-66042907D01*
X152626134Y-66293728D01*
X152664770Y-66362543D01*
X152813551Y-66619800D01*
X152928929Y-66806761D01*
X152987770Y-66886083D01*
X152989487Y-66886667D01*
X153042624Y-66818996D01*
X153153118Y-66641943D01*
X153290966Y-66404478D01*
X153438563Y-66123729D01*
X153501315Y-65940918D01*
X153490717Y-65814727D01*
X153467664Y-65769478D01*
X153440549Y-65711645D01*
X153458276Y-65670578D01*
X153543607Y-65643421D01*
X153719304Y-65627317D01*
X154008132Y-65619409D01*
X154432851Y-65616841D01*
X154685282Y-65616667D01*
X155998333Y-65616667D01*
X155998333Y-65870667D01*
G37*
X155998333Y-65870667D02*
X155968905Y-66060666D01*
X155899108Y-66123407D01*
X155816676Y-66040461D01*
X155800174Y-66002338D01*
X155684854Y-65902099D01*
X155467012Y-65829726D01*
X155212927Y-65799639D01*
X154989694Y-65825997D01*
X154885511Y-65884037D01*
X154832167Y-66003119D01*
X154813969Y-66229071D01*
X154813000Y-66342039D01*
X154813000Y-66802000D01*
X155090494Y-66802000D01*
X155348767Y-66761272D01*
X155556161Y-66670199D01*
X155681078Y-66593201D01*
X155733148Y-66622212D01*
X155744231Y-66785904D01*
X155744333Y-66839532D01*
X155716662Y-67055627D01*
X155645636Y-67142172D01*
X155549240Y-67080776D01*
X155532666Y-67056000D01*
X155421793Y-67002155D01*
X155210783Y-66973024D01*
X155142629Y-66971333D01*
X154804919Y-66971333D01*
X154855333Y-68029667D01*
X155271962Y-68056063D01*
X155584265Y-68051400D01*
X155815784Y-67976384D01*
X155942133Y-67895008D01*
X156103061Y-67781945D01*
X156158349Y-67769760D01*
X156135413Y-67854596D01*
X156129731Y-67868611D01*
X156051401Y-68081967D01*
X156021186Y-68177833D01*
X155983639Y-68243106D01*
X155895960Y-68285943D01*
X155728335Y-68310773D01*
X155450951Y-68322021D01*
X155035958Y-68324117D01*
X154628758Y-68322142D01*
X154367839Y-68315077D01*
X154230147Y-68298293D01*
X154192631Y-68267159D01*
X154232239Y-68217044D01*
X154286503Y-68173572D01*
X154365364Y-68104773D01*
X154418349Y-68021175D01*
X154449666Y-67891799D01*
X154463521Y-67685666D01*
X154464122Y-67371796D01*
X154455836Y-66926622D01*
X154444959Y-66478222D01*
X154431656Y-66171305D01*
X154410515Y-65978046D01*
X154376125Y-65870622D01*
X154323074Y-65821209D01*
X154245951Y-65801982D01*
X154236839Y-65800667D01*
X154080868Y-65802644D01*
X153939037Y-65872575D01*
X153787241Y-66033702D01*
X153601377Y-66309270D01*
X153453831Y-66555709D01*
X153273002Y-66886468D01*
X153170843Y-67144227D01*
X153126845Y-67393234D01*
X153119666Y-67602596D01*
X153135436Y-67908907D01*
X153187314Y-68076688D01*
X153246666Y-68126049D01*
X153371873Y-68202027D01*
X153342861Y-68265385D01*
X153174689Y-68307942D01*
X152886833Y-68321559D01*
X152618492Y-68316279D01*
X152495356Y-68299354D01*
X152493299Y-68259601D01*
X152588194Y-68185841D01*
X152590500Y-68184232D01*
X152710485Y-68065323D01*
X152767404Y-67890655D01*
X152781000Y-67625761D01*
X152763929Y-67378582D01*
X152701570Y-67133627D01*
X152577204Y-66841760D01*
X152395565Y-66493088D01*
X152217240Y-66187291D01*
X152055587Y-65948057D01*
X151934095Y-65808404D01*
X151892562Y-65786000D01*
X151750304Y-65732565D01*
X151722666Y-65701333D01*
X151766931Y-65651576D01*
X151961511Y-65623904D01*
X152162169Y-65619359D01*
X152429966Y-65625941D01*
X152553191Y-65647080D01*
X152556473Y-65690589D01*
X152511701Y-65730236D01*
X152444472Y-65799377D01*
X152434967Y-65890862D01*
X152492437Y-66042907D01*
X152626134Y-66293728D01*
X152664770Y-66362543D01*
X152813551Y-66619800D01*
X152928929Y-66806761D01*
X152987770Y-66886083D01*
X152989487Y-66886667D01*
X153042624Y-66818996D01*
X153153118Y-66641943D01*
X153290966Y-66404478D01*
X153438563Y-66123729D01*
X153501315Y-65940918D01*
X153490717Y-65814727D01*
X153467664Y-65769478D01*
X153440549Y-65711645D01*
X153458276Y-65670578D01*
X153543607Y-65643421D01*
X153719304Y-65627317D01*
X154008132Y-65619409D01*
X154432851Y-65616841D01*
X154685282Y-65616667D01*
X155998333Y-65616667D01*
X155998333Y-65870667D01*
G36*
X159893000Y-66241263D02*
G01*
X159720368Y-66055965D01*
X159461234Y-65898510D01*
X159254701Y-65870667D01*
X158961666Y-65870667D01*
X158961666Y-66973990D01*
X158964960Y-67439950D01*
X158976738Y-67762454D01*
X158999841Y-67967283D01*
X159037112Y-68080221D01*
X159088666Y-68126049D01*
X159213697Y-68202127D01*
X159184220Y-68265913D01*
X159015008Y-68309273D01*
X158728833Y-68324117D01*
X158458569Y-68320700D01*
X158333219Y-68304818D01*
X158328364Y-68263952D01*
X158419585Y-68185584D01*
X158435169Y-68173572D01*
X158514030Y-68104773D01*
X158567016Y-68021175D01*
X158598333Y-67891799D01*
X158612188Y-67685666D01*
X158612789Y-67371796D01*
X158604503Y-66926622D01*
X158580666Y-65828333D01*
X157480000Y-65828333D01*
X157456363Y-66951876D01*
X157449356Y-67418234D01*
X157452915Y-67741840D01*
X157469421Y-67949080D01*
X157501254Y-68066338D01*
X157550793Y-68119997D01*
X157562197Y-68125101D01*
X157688585Y-68201801D01*
X157660059Y-68266311D01*
X157490989Y-68310433D01*
X157210035Y-68326000D01*
X156728403Y-68326000D01*
X156913701Y-68153368D01*
X156994482Y-68064457D01*
X157047742Y-67954315D01*
X157079127Y-67788331D01*
X157094281Y-67531898D01*
X157098849Y-67150407D01*
X157099000Y-67017293D01*
X157094653Y-66619261D01*
X157082865Y-66275882D01*
X157065514Y-66027270D01*
X157047608Y-65919925D01*
X156927884Y-65807665D01*
X156730410Y-65799458D01*
X156506439Y-65889670D01*
X156375484Y-65993818D01*
X156167666Y-66201636D01*
X156167666Y-65616667D01*
X159893000Y-65616667D01*
X159893000Y-66241263D01*
G37*
X159893000Y-66241263D02*
X159720368Y-66055965D01*
X159461234Y-65898510D01*
X159254701Y-65870667D01*
X158961666Y-65870667D01*
X158961666Y-66973990D01*
X158964960Y-67439950D01*
X158976738Y-67762454D01*
X158999841Y-67967283D01*
X159037112Y-68080221D01*
X159088666Y-68126049D01*
X159213697Y-68202127D01*
X159184220Y-68265913D01*
X159015008Y-68309273D01*
X158728833Y-68324117D01*
X158458569Y-68320700D01*
X158333219Y-68304818D01*
X158328364Y-68263952D01*
X158419585Y-68185584D01*
X158435169Y-68173572D01*
X158514030Y-68104773D01*
X158567016Y-68021175D01*
X158598333Y-67891799D01*
X158612188Y-67685666D01*
X158612789Y-67371796D01*
X158604503Y-66926622D01*
X158580666Y-65828333D01*
X157480000Y-65828333D01*
X157456363Y-66951876D01*
X157449356Y-67418234D01*
X157452915Y-67741840D01*
X157469421Y-67949080D01*
X157501254Y-68066338D01*
X157550793Y-68119997D01*
X157562197Y-68125101D01*
X157688585Y-68201801D01*
X157660059Y-68266311D01*
X157490989Y-68310433D01*
X157210035Y-68326000D01*
X156728403Y-68326000D01*
X156913701Y-68153368D01*
X156994482Y-68064457D01*
X157047742Y-67954315D01*
X157079127Y-67788331D01*
X157094281Y-67531898D01*
X157098849Y-67150407D01*
X157099000Y-67017293D01*
X157094653Y-66619261D01*
X157082865Y-66275882D01*
X157065514Y-66027270D01*
X157047608Y-65919925D01*
X156927884Y-65807665D01*
X156730410Y-65799458D01*
X156506439Y-65889670D01*
X156375484Y-65993818D01*
X156167666Y-66201636D01*
X156167666Y-65616667D01*
X159893000Y-65616667D01*
X159893000Y-66241263D01*
G36*
X161755666Y-66201636D02*
G01*
X161547848Y-65993818D01*
X161302956Y-65838203D01*
X161021149Y-65784957D01*
X160774553Y-65847291D01*
X160768514Y-65851046D01*
X160706768Y-65965852D01*
X160658797Y-66188809D01*
X160643897Y-66336583D01*
X160617433Y-66759667D01*
X160922019Y-66785316D01*
X161218128Y-66758812D01*
X161364135Y-66673435D01*
X161454444Y-66598506D01*
X161493096Y-66637883D01*
X161501638Y-66817858D01*
X161501666Y-66841264D01*
X161492726Y-67037825D01*
X161447496Y-67099169D01*
X161338362Y-67059192D01*
X161328421Y-67053906D01*
X161163788Y-67004895D01*
X160955321Y-66988061D01*
X160762525Y-67001411D01*
X160644901Y-67042954D01*
X160633833Y-67077167D01*
X160645583Y-67191289D01*
X160653269Y-67417221D01*
X160655000Y-67606333D01*
X160655000Y-68072000D01*
X161101827Y-68072000D01*
X161437588Y-68043364D01*
X161691708Y-67966751D01*
X161736827Y-67940199D01*
X161874940Y-67853636D01*
X161916416Y-67874756D01*
X161874085Y-68024040D01*
X161842428Y-68108821D01*
X161799899Y-68204721D01*
X161738001Y-68267192D01*
X161624097Y-68303397D01*
X161425551Y-68320497D01*
X161109725Y-68325657D01*
X160852797Y-68326000D01*
X159945736Y-68326000D01*
X160131035Y-68153368D01*
X160210168Y-68066762D01*
X160262970Y-67959828D01*
X160294699Y-67799027D01*
X160310612Y-67550818D01*
X160315967Y-67181662D01*
X160316333Y-66971333D01*
X160313968Y-66538054D01*
X160303368Y-66240541D01*
X160279276Y-66045256D01*
X160236433Y-65918657D01*
X160169582Y-65827205D01*
X160131035Y-65789298D01*
X159945736Y-65616667D01*
X161755666Y-65616667D01*
X161755666Y-66201636D01*
G37*
X161755666Y-66201636D02*
X161547848Y-65993818D01*
X161302956Y-65838203D01*
X161021149Y-65784957D01*
X160774553Y-65847291D01*
X160768514Y-65851046D01*
X160706768Y-65965852D01*
X160658797Y-66188809D01*
X160643897Y-66336583D01*
X160617433Y-66759667D01*
X160922019Y-66785316D01*
X161218128Y-66758812D01*
X161364135Y-66673435D01*
X161454444Y-66598506D01*
X161493096Y-66637883D01*
X161501638Y-66817858D01*
X161501666Y-66841264D01*
X161492726Y-67037825D01*
X161447496Y-67099169D01*
X161338362Y-67059192D01*
X161328421Y-67053906D01*
X161163788Y-67004895D01*
X160955321Y-66988061D01*
X160762525Y-67001411D01*
X160644901Y-67042954D01*
X160633833Y-67077167D01*
X160645583Y-67191289D01*
X160653269Y-67417221D01*
X160655000Y-67606333D01*
X160655000Y-68072000D01*
X161101827Y-68072000D01*
X161437588Y-68043364D01*
X161691708Y-67966751D01*
X161736827Y-67940199D01*
X161874940Y-67853636D01*
X161916416Y-67874756D01*
X161874085Y-68024040D01*
X161842428Y-68108821D01*
X161799899Y-68204721D01*
X161738001Y-68267192D01*
X161624097Y-68303397D01*
X161425551Y-68320497D01*
X161109725Y-68325657D01*
X160852797Y-68326000D01*
X159945736Y-68326000D01*
X160131035Y-68153368D01*
X160210168Y-68066762D01*
X160262970Y-67959828D01*
X160294699Y-67799027D01*
X160310612Y-67550818D01*
X160315967Y-67181662D01*
X160316333Y-66971333D01*
X160313968Y-66538054D01*
X160303368Y-66240541D01*
X160279276Y-66045256D01*
X160236433Y-65918657D01*
X160169582Y-65827205D01*
X160131035Y-65789298D01*
X159945736Y-65616667D01*
X161755666Y-65616667D01*
X161755666Y-66201636D01*
D14*
%TO.C,R3*%
X149300000Y-44711252D02*
X149300000Y-44188748D01*
X147880000Y-44711252D02*
X147880000Y-44188748D01*
%TO.C,R2*%
X154230000Y-43196252D02*
X154230000Y-42673748D01*
X155650000Y-43196252D02*
X155650000Y-42673748D01*
%TO.C,C1*%
X148030000Y-38361252D02*
X148030000Y-37838748D01*
X146610000Y-38361252D02*
X146610000Y-37838748D01*
%TO.C,C2*%
X163270000Y-49658748D02*
X163270000Y-50181252D01*
X161850000Y-49658748D02*
X161850000Y-50181252D01*
%TO.C,C3*%
X181050000Y-49546252D02*
X181050000Y-49023748D01*
X179630000Y-49546252D02*
X179630000Y-49023748D01*
D15*
%TO.C,CR1*%
X171043600Y-46901100D02*
X166776400Y-46901100D01*
X166776400Y-52158900D02*
X171043600Y-52158900D01*
%TO.C,D1*%
X174066200Y-32232600D02*
G75*
G03*
X174066200Y-32232600I-76200J0D01*
G01*
X174739300Y-34820650D02*
X174739300Y-34241950D01*
X173240700Y-34241950D02*
X173240700Y-34820650D01*
%TO.C,D2*%
X178955700Y-34000650D02*
X178955700Y-34579350D01*
X180454300Y-34579350D02*
X180454300Y-34000650D01*
X179781200Y-31991300D02*
G75*
G03*
X179781200Y-31991300I-76200J0D01*
G01*
%TO.C,D3*%
X185496200Y-31991300D02*
G75*
G03*
X185496200Y-31991300I-76200J0D01*
G01*
X186169300Y-34579350D02*
X186169300Y-34000650D01*
X184670700Y-34000650D02*
X184670700Y-34579350D01*
D14*
%TO.C,J1*%
X150620000Y-18990000D02*
X150620000Y-21840000D01*
X153470000Y-18990000D02*
X150620000Y-18990000D01*
X155470000Y-30540000D02*
X153670000Y-30540000D01*
X155470000Y-29140000D02*
X155470000Y-30540000D01*
X156470000Y-29140000D02*
X155470000Y-29140000D01*
X156470000Y-19240000D02*
X156470000Y-29140000D01*
X153670000Y-19240000D02*
X156470000Y-19240000D01*
X151870000Y-30540000D02*
X153670000Y-30540000D01*
X151870000Y-29140000D02*
X151870000Y-30540000D01*
X150870000Y-29140000D02*
X151870000Y-29140000D01*
X150870000Y-19240000D02*
X150870000Y-29140000D01*
X153670000Y-19240000D02*
X150870000Y-19240000D01*
%TO.C,J2*%
X176020000Y-18990000D02*
X176020000Y-21840000D01*
X178870000Y-18990000D02*
X176020000Y-18990000D01*
X180870000Y-30540000D02*
X179070000Y-30540000D01*
X180870000Y-29140000D02*
X180870000Y-30540000D01*
X181870000Y-29140000D02*
X180870000Y-29140000D01*
X181870000Y-19240000D02*
X181870000Y-29140000D01*
X179070000Y-19240000D02*
X181870000Y-19240000D01*
X177270000Y-30540000D02*
X179070000Y-30540000D01*
X177270000Y-29140000D02*
X177270000Y-30540000D01*
X176270000Y-29140000D02*
X177270000Y-29140000D01*
X176270000Y-19240000D02*
X176270000Y-29140000D01*
X179070000Y-19240000D02*
X176270000Y-19240000D01*
%TO.C,J3*%
X142240000Y-19240000D02*
X139440000Y-19240000D01*
X139440000Y-19240000D02*
X139440000Y-29140000D01*
X139440000Y-29140000D02*
X140440000Y-29140000D01*
X140440000Y-29140000D02*
X140440000Y-30540000D01*
X140440000Y-30540000D02*
X142240000Y-30540000D01*
X142240000Y-19240000D02*
X145040000Y-19240000D01*
X145040000Y-19240000D02*
X145040000Y-29140000D01*
X145040000Y-29140000D02*
X144040000Y-29140000D01*
X144040000Y-29140000D02*
X144040000Y-30540000D01*
X144040000Y-30540000D02*
X142240000Y-30540000D01*
X142040000Y-18990000D02*
X139190000Y-18990000D01*
X139190000Y-18990000D02*
X139190000Y-21840000D01*
%TO.C,J4*%
X163320000Y-18990000D02*
X163320000Y-21840000D01*
X166170000Y-18990000D02*
X163320000Y-18990000D01*
X168170000Y-30540000D02*
X166370000Y-30540000D01*
X168170000Y-29140000D02*
X168170000Y-30540000D01*
X169170000Y-29140000D02*
X168170000Y-29140000D01*
X169170000Y-19240000D02*
X169170000Y-29140000D01*
X166370000Y-19240000D02*
X169170000Y-19240000D01*
X164570000Y-30540000D02*
X166370000Y-30540000D01*
X164570000Y-29140000D02*
X164570000Y-30540000D01*
X163570000Y-29140000D02*
X164570000Y-29140000D01*
X163570000Y-19240000D02*
X163570000Y-29140000D01*
X166370000Y-19240000D02*
X163570000Y-19240000D01*
%TO.C,J5*%
X162750000Y-60130000D02*
X162750000Y-65030000D01*
X162750000Y-65030000D02*
X172650000Y-65030000D01*
X172650000Y-65030000D02*
X172650000Y-61930000D01*
X172650000Y-61930000D02*
X174050000Y-61930000D01*
X174050000Y-61930000D02*
X174050000Y-60130000D01*
X162750000Y-60130000D02*
X162750000Y-55230000D01*
X162750000Y-55230000D02*
X172650000Y-55230000D01*
X172650000Y-55230000D02*
X172650000Y-58330000D01*
X172650000Y-58330000D02*
X174050000Y-58330000D01*
X174050000Y-58330000D02*
X174050000Y-60130000D01*
X162500000Y-62430000D02*
X162500000Y-65280000D01*
X162500000Y-65280000D02*
X165350000Y-65280000D01*
%TO.C,J6*%
X129030000Y-34230000D02*
X129030000Y-37080000D01*
X131880000Y-34230000D02*
X129030000Y-34230000D01*
X135980000Y-45780000D02*
X134180000Y-45780000D01*
X135980000Y-44380000D02*
X135980000Y-45780000D01*
X139080000Y-44380000D02*
X135980000Y-44380000D01*
X139080000Y-34480000D02*
X139080000Y-44380000D01*
X134180000Y-34480000D02*
X139080000Y-34480000D01*
X132380000Y-45780000D02*
X134180000Y-45780000D01*
X132380000Y-44380000D02*
X132380000Y-45780000D01*
X129280000Y-44380000D02*
X132380000Y-44380000D01*
X129280000Y-34480000D02*
X129280000Y-44380000D01*
X134180000Y-34480000D02*
X129280000Y-34480000D01*
%TO.C,J8*%
X142750000Y-65465000D02*
X142750000Y-62615000D01*
X139900000Y-65465000D02*
X142750000Y-65465000D01*
X133700000Y-53915000D02*
X135500000Y-53915000D01*
X133700000Y-55315000D02*
X133700000Y-53915000D01*
X128500000Y-55315000D02*
X133700000Y-55315000D01*
X128500000Y-65215000D02*
X128500000Y-55315000D01*
X135500000Y-65215000D02*
X128500000Y-65215000D01*
X137300000Y-53915000D02*
X135500000Y-53915000D01*
X137300000Y-55315000D02*
X137300000Y-53915000D01*
X142500000Y-55315000D02*
X137300000Y-55315000D01*
X142500000Y-65215000D02*
X142500000Y-55315000D01*
X135500000Y-65215000D02*
X142500000Y-65215000D01*
%TO.C,J9*%
X191770000Y-19240000D02*
X188970000Y-19240000D01*
X188970000Y-19240000D02*
X188970000Y-29140000D01*
X188970000Y-29140000D02*
X189970000Y-29140000D01*
X189970000Y-29140000D02*
X189970000Y-30540000D01*
X189970000Y-30540000D02*
X191770000Y-30540000D01*
X191770000Y-19240000D02*
X194570000Y-19240000D01*
X194570000Y-19240000D02*
X194570000Y-29140000D01*
X194570000Y-29140000D02*
X193570000Y-29140000D01*
X193570000Y-29140000D02*
X193570000Y-30540000D01*
X193570000Y-30540000D02*
X191770000Y-30540000D01*
X191570000Y-18990000D02*
X188720000Y-18990000D01*
X188720000Y-18990000D02*
X188720000Y-21840000D01*
%TO.C,R1*%
X143420000Y-60357936D02*
X143420000Y-61562064D01*
X146140000Y-60357936D02*
X146140000Y-61562064D01*
%TO.C,R4*%
X165660000Y-42416252D02*
X165660000Y-41893748D01*
X167080000Y-42416252D02*
X167080000Y-41893748D01*
%TO.C,R5*%
X167080000Y-37336252D02*
X167080000Y-36813748D01*
X165660000Y-37336252D02*
X165660000Y-36813748D01*
%TO.C,R7*%
X173280000Y-39353748D02*
X173280000Y-39876252D01*
X174700000Y-39353748D02*
X174700000Y-39876252D01*
%TO.C,R8*%
X178995000Y-39353748D02*
X178995000Y-39876252D01*
X180415000Y-39353748D02*
X180415000Y-39876252D01*
%TO.C,R9*%
X186130000Y-39353748D02*
X186130000Y-39876252D01*
X184710000Y-39353748D02*
X184710000Y-39876252D01*
D15*
%TO.C,U1*%
X155536900Y-36909499D02*
X155790900Y-36909499D01*
X155536900Y-37290499D02*
X155536900Y-36909499D01*
X155790900Y-37290499D02*
X155536900Y-37290499D01*
X155790900Y-36909499D02*
X155790900Y-37290499D01*
X153949400Y-36550600D02*
X150850600Y-36550600D01*
X150850600Y-39649400D02*
X153949400Y-39649400D01*
X152095200Y-36550600D02*
G75*
G03*
X152704800Y-36550600I304800J0D01*
G01*
%TO.C,R3*%
D10*
X147392380Y-44616666D02*
X146916190Y-44950000D01*
X147392380Y-45188095D02*
X146392380Y-45188095D01*
X146392380Y-44807142D01*
X146440000Y-44711904D01*
X146487619Y-44664285D01*
X146582857Y-44616666D01*
X146725714Y-44616666D01*
X146820952Y-44664285D01*
X146868571Y-44711904D01*
X146916190Y-44807142D01*
X146916190Y-45188095D01*
X146392380Y-44283333D02*
X146392380Y-43664285D01*
X146773333Y-43997619D01*
X146773333Y-43854761D01*
X146820952Y-43759523D01*
X146868571Y-43711904D01*
X146963809Y-43664285D01*
X147201904Y-43664285D01*
X147297142Y-43711904D01*
X147344761Y-43759523D01*
X147392380Y-43854761D01*
X147392380Y-44140476D01*
X147344761Y-44235714D01*
X147297142Y-44283333D01*
%TO.C,R2*%
X157297380Y-42711666D02*
X156821190Y-43045000D01*
X157297380Y-43283095D02*
X156297380Y-43283095D01*
X156297380Y-42902142D01*
X156345000Y-42806904D01*
X156392619Y-42759285D01*
X156487857Y-42711666D01*
X156630714Y-42711666D01*
X156725952Y-42759285D01*
X156773571Y-42806904D01*
X156821190Y-42902142D01*
X156821190Y-43283095D01*
X156392619Y-42330714D02*
X156345000Y-42283095D01*
X156297380Y-42187857D01*
X156297380Y-41949761D01*
X156345000Y-41854523D01*
X156392619Y-41806904D01*
X156487857Y-41759285D01*
X156583095Y-41759285D01*
X156725952Y-41806904D01*
X157297380Y-42378333D01*
X157297380Y-41759285D01*
%TO.C,C1*%
X146027142Y-38266666D02*
X146074761Y-38314285D01*
X146122380Y-38457142D01*
X146122380Y-38552380D01*
X146074761Y-38695238D01*
X145979523Y-38790476D01*
X145884285Y-38838095D01*
X145693809Y-38885714D01*
X145550952Y-38885714D01*
X145360476Y-38838095D01*
X145265238Y-38790476D01*
X145170000Y-38695238D01*
X145122380Y-38552380D01*
X145122380Y-38457142D01*
X145170000Y-38314285D01*
X145217619Y-38266666D01*
X146122380Y-37314285D02*
X146122380Y-37885714D01*
X146122380Y-37600000D02*
X145122380Y-37600000D01*
X145265238Y-37695238D01*
X145360476Y-37790476D01*
X145408095Y-37885714D01*
%TO.C,C2*%
X164567142Y-50086666D02*
X164614761Y-50134285D01*
X164662380Y-50277142D01*
X164662380Y-50372380D01*
X164614761Y-50515238D01*
X164519523Y-50610476D01*
X164424285Y-50658095D01*
X164233809Y-50705714D01*
X164090952Y-50705714D01*
X163900476Y-50658095D01*
X163805238Y-50610476D01*
X163710000Y-50515238D01*
X163662380Y-50372380D01*
X163662380Y-50277142D01*
X163710000Y-50134285D01*
X163757619Y-50086666D01*
X163757619Y-49705714D02*
X163710000Y-49658095D01*
X163662380Y-49562857D01*
X163662380Y-49324761D01*
X163710000Y-49229523D01*
X163757619Y-49181904D01*
X163852857Y-49134285D01*
X163948095Y-49134285D01*
X164090952Y-49181904D01*
X164662380Y-49753333D01*
X164662380Y-49134285D01*
%TO.C,C3*%
X179047142Y-49451666D02*
X179094761Y-49499285D01*
X179142380Y-49642142D01*
X179142380Y-49737380D01*
X179094761Y-49880238D01*
X178999523Y-49975476D01*
X178904285Y-50023095D01*
X178713809Y-50070714D01*
X178570952Y-50070714D01*
X178380476Y-50023095D01*
X178285238Y-49975476D01*
X178190000Y-49880238D01*
X178142380Y-49737380D01*
X178142380Y-49642142D01*
X178190000Y-49499285D01*
X178237619Y-49451666D01*
X178142380Y-49118333D02*
X178142380Y-48499285D01*
X178523333Y-48832619D01*
X178523333Y-48689761D01*
X178570952Y-48594523D01*
X178618571Y-48546904D01*
X178713809Y-48499285D01*
X178951904Y-48499285D01*
X179047142Y-48546904D01*
X179094761Y-48594523D01*
X179142380Y-48689761D01*
X179142380Y-48975476D01*
X179094761Y-49070714D01*
X179047142Y-49118333D01*
%TO.C,CR1*%
X168243333Y-49887142D02*
X168195714Y-49934761D01*
X168052857Y-49982380D01*
X167957619Y-49982380D01*
X167814761Y-49934761D01*
X167719523Y-49839523D01*
X167671904Y-49744285D01*
X167624285Y-49553809D01*
X167624285Y-49410952D01*
X167671904Y-49220476D01*
X167719523Y-49125238D01*
X167814761Y-49030000D01*
X167957619Y-48982380D01*
X168052857Y-48982380D01*
X168195714Y-49030000D01*
X168243333Y-49077619D01*
X169243333Y-49982380D02*
X168910000Y-49506190D01*
X168671904Y-49982380D02*
X168671904Y-48982380D01*
X169052857Y-48982380D01*
X169148095Y-49030000D01*
X169195714Y-49077619D01*
X169243333Y-49172857D01*
X169243333Y-49315714D01*
X169195714Y-49410952D01*
X169148095Y-49458571D01*
X169052857Y-49506190D01*
X168671904Y-49506190D01*
X170195714Y-49982380D02*
X169624285Y-49982380D01*
X169910000Y-49982380D02*
X169910000Y-48982380D01*
X169814761Y-49125238D01*
X169719523Y-49220476D01*
X169624285Y-49268095D01*
X168910000Y-47077380D02*
X168910000Y-47315476D01*
X168671904Y-47220238D02*
X168910000Y-47315476D01*
X169148095Y-47220238D01*
X168767142Y-47505952D02*
X168910000Y-47315476D01*
X169052857Y-47505952D01*
%TO.C,D1*%
X176194881Y-35269395D02*
X175194881Y-35269395D01*
X175194881Y-35031300D01*
X175242501Y-34888442D01*
X175337739Y-34793204D01*
X175432977Y-34745585D01*
X175623453Y-34697966D01*
X175766310Y-34697966D01*
X175956786Y-34745585D01*
X176052024Y-34793204D01*
X176147262Y-34888442D01*
X176194881Y-35031300D01*
X176194881Y-35269395D01*
X176194881Y-33745585D02*
X176194881Y-34317014D01*
X176194881Y-34031300D02*
X175194881Y-34031300D01*
X175337739Y-34126538D01*
X175432977Y-34221776D01*
X175480596Y-34317014D01*
%TO.C,D2*%
X181909881Y-34956994D02*
X180909881Y-34956994D01*
X180909881Y-34718899D01*
X180957501Y-34576041D01*
X181052739Y-34480803D01*
X181147977Y-34433184D01*
X181338453Y-34385565D01*
X181481310Y-34385565D01*
X181671786Y-34433184D01*
X181767024Y-34480803D01*
X181862262Y-34576041D01*
X181909881Y-34718899D01*
X181909881Y-34956994D01*
X181005120Y-34004613D02*
X180957501Y-33956994D01*
X180909881Y-33861756D01*
X180909881Y-33623660D01*
X180957501Y-33528422D01*
X181005120Y-33480803D01*
X181100358Y-33433184D01*
X181195596Y-33433184D01*
X181338453Y-33480803D01*
X181909881Y-34052232D01*
X181909881Y-33433184D01*
%TO.C,D3*%
X187624881Y-35028095D02*
X186624881Y-35028095D01*
X186624881Y-34790000D01*
X186672501Y-34647142D01*
X186767739Y-34551904D01*
X186862977Y-34504285D01*
X187053453Y-34456666D01*
X187196310Y-34456666D01*
X187386786Y-34504285D01*
X187482024Y-34551904D01*
X187577262Y-34647142D01*
X187624881Y-34790000D01*
X187624881Y-35028095D01*
X186624881Y-34123333D02*
X186624881Y-33504285D01*
X187005834Y-33837619D01*
X187005834Y-33694761D01*
X187053453Y-33599523D01*
X187101072Y-33551904D01*
X187196310Y-33504285D01*
X187434405Y-33504285D01*
X187529643Y-33551904D01*
X187577262Y-33599523D01*
X187624881Y-33694761D01*
X187624881Y-33980476D01*
X187577262Y-34075714D01*
X187529643Y-34123333D01*
%TO.C,J1*%
X153336666Y-31042380D02*
X153336666Y-31756666D01*
X153289047Y-31899523D01*
X153193809Y-31994761D01*
X153050952Y-32042380D01*
X152955714Y-32042380D01*
X154336666Y-32042380D02*
X153765238Y-32042380D01*
X154050952Y-32042380D02*
X154050952Y-31042380D01*
X153955714Y-31185238D01*
X153860476Y-31280476D01*
X153765238Y-31328095D01*
%TO.C,J2*%
X178736666Y-31042380D02*
X178736666Y-31756666D01*
X178689047Y-31899523D01*
X178593809Y-31994761D01*
X178450952Y-32042380D01*
X178355714Y-32042380D01*
X179165238Y-31137619D02*
X179212857Y-31090000D01*
X179308095Y-31042380D01*
X179546190Y-31042380D01*
X179641428Y-31090000D01*
X179689047Y-31137619D01*
X179736666Y-31232857D01*
X179736666Y-31328095D01*
X179689047Y-31470952D01*
X179117619Y-32042380D01*
X179736666Y-32042380D01*
%TO.C,J3*%
X141906666Y-31042380D02*
X141906666Y-31756666D01*
X141859047Y-31899523D01*
X141763809Y-31994761D01*
X141620952Y-32042380D01*
X141525714Y-32042380D01*
X142287619Y-31042380D02*
X142906666Y-31042380D01*
X142573333Y-31423333D01*
X142716190Y-31423333D01*
X142811428Y-31470952D01*
X142859047Y-31518571D01*
X142906666Y-31613809D01*
X142906666Y-31851904D01*
X142859047Y-31947142D01*
X142811428Y-31994761D01*
X142716190Y-32042380D01*
X142430476Y-32042380D01*
X142335238Y-31994761D01*
X142287619Y-31947142D01*
%TO.C,J4*%
X166036666Y-31042380D02*
X166036666Y-31756666D01*
X165989047Y-31899523D01*
X165893809Y-31994761D01*
X165750952Y-32042380D01*
X165655714Y-32042380D01*
X166941428Y-31375714D02*
X166941428Y-32042380D01*
X166703333Y-30994761D02*
X166465238Y-31709047D01*
X167084285Y-31709047D01*
%TO.C,J5*%
X174552380Y-60463333D02*
X175266666Y-60463333D01*
X175409523Y-60510952D01*
X175504761Y-60606190D01*
X175552380Y-60749047D01*
X175552380Y-60844285D01*
X174552380Y-59510952D02*
X174552380Y-59987142D01*
X175028571Y-60034761D01*
X174980952Y-59987142D01*
X174933333Y-59891904D01*
X174933333Y-59653809D01*
X174980952Y-59558571D01*
X175028571Y-59510952D01*
X175123809Y-59463333D01*
X175361904Y-59463333D01*
X175457142Y-59510952D01*
X175504761Y-59558571D01*
X175552380Y-59653809D01*
X175552380Y-59891904D01*
X175504761Y-59987142D01*
X175457142Y-60034761D01*
%TO.C,J6*%
X133846666Y-46282380D02*
X133846666Y-46996666D01*
X133799047Y-47139523D01*
X133703809Y-47234761D01*
X133560952Y-47282380D01*
X133465714Y-47282380D01*
X134751428Y-46282380D02*
X134560952Y-46282380D01*
X134465714Y-46330000D01*
X134418095Y-46377619D01*
X134322857Y-46520476D01*
X134275238Y-46710952D01*
X134275238Y-47091904D01*
X134322857Y-47187142D01*
X134370476Y-47234761D01*
X134465714Y-47282380D01*
X134656190Y-47282380D01*
X134751428Y-47234761D01*
X134799047Y-47187142D01*
X134846666Y-47091904D01*
X134846666Y-46853809D01*
X134799047Y-46758571D01*
X134751428Y-46710952D01*
X134656190Y-46663333D01*
X134465714Y-46663333D01*
X134370476Y-46710952D01*
X134322857Y-46758571D01*
X134275238Y-46853809D01*
%TO.C,J8*%
X135166666Y-52317380D02*
X135166666Y-53031666D01*
X135119047Y-53174523D01*
X135023809Y-53269761D01*
X134880952Y-53317380D01*
X134785714Y-53317380D01*
X135785714Y-52745952D02*
X135690476Y-52698333D01*
X135642857Y-52650714D01*
X135595238Y-52555476D01*
X135595238Y-52507857D01*
X135642857Y-52412619D01*
X135690476Y-52365000D01*
X135785714Y-52317380D01*
X135976190Y-52317380D01*
X136071428Y-52365000D01*
X136119047Y-52412619D01*
X136166666Y-52507857D01*
X136166666Y-52555476D01*
X136119047Y-52650714D01*
X136071428Y-52698333D01*
X135976190Y-52745952D01*
X135785714Y-52745952D01*
X135690476Y-52793571D01*
X135642857Y-52841190D01*
X135595238Y-52936428D01*
X135595238Y-53126904D01*
X135642857Y-53222142D01*
X135690476Y-53269761D01*
X135785714Y-53317380D01*
X135976190Y-53317380D01*
X136071428Y-53269761D01*
X136119047Y-53222142D01*
X136166666Y-53126904D01*
X136166666Y-52936428D01*
X136119047Y-52841190D01*
X136071428Y-52793571D01*
X135976190Y-52745952D01*
%TO.C,J9*%
X191436666Y-31042380D02*
X191436666Y-31756666D01*
X191389047Y-31899523D01*
X191293809Y-31994761D01*
X191150952Y-32042380D01*
X191055714Y-32042380D01*
X191960476Y-32042380D02*
X192150952Y-32042380D01*
X192246190Y-31994761D01*
X192293809Y-31947142D01*
X192389047Y-31804285D01*
X192436666Y-31613809D01*
X192436666Y-31232857D01*
X192389047Y-31137619D01*
X192341428Y-31090000D01*
X192246190Y-31042380D01*
X192055714Y-31042380D01*
X191960476Y-31090000D01*
X191912857Y-31137619D01*
X191865238Y-31232857D01*
X191865238Y-31470952D01*
X191912857Y-31566190D01*
X191960476Y-31613809D01*
X192055714Y-31661428D01*
X192246190Y-31661428D01*
X192341428Y-31613809D01*
X192389047Y-31566190D01*
X192436666Y-31470952D01*
%TO.C,R1*%
X147512380Y-61126666D02*
X147036190Y-61460000D01*
X147512380Y-61698095D02*
X146512380Y-61698095D01*
X146512380Y-61317142D01*
X146560000Y-61221904D01*
X146607619Y-61174285D01*
X146702857Y-61126666D01*
X146845714Y-61126666D01*
X146940952Y-61174285D01*
X146988571Y-61221904D01*
X147036190Y-61317142D01*
X147036190Y-61698095D01*
X147512380Y-60174285D02*
X147512380Y-60745714D01*
X147512380Y-60460000D02*
X146512380Y-60460000D01*
X146655238Y-60555238D01*
X146750476Y-60650476D01*
X146798095Y-60745714D01*
%TO.C,R4*%
X165172380Y-42321666D02*
X164696190Y-42655000D01*
X165172380Y-42893095D02*
X164172380Y-42893095D01*
X164172380Y-42512142D01*
X164220000Y-42416904D01*
X164267619Y-42369285D01*
X164362857Y-42321666D01*
X164505714Y-42321666D01*
X164600952Y-42369285D01*
X164648571Y-42416904D01*
X164696190Y-42512142D01*
X164696190Y-42893095D01*
X164505714Y-41464523D02*
X165172380Y-41464523D01*
X164124761Y-41702619D02*
X164839047Y-41940714D01*
X164839047Y-41321666D01*
%TO.C,R5*%
X168727380Y-36996666D02*
X168251190Y-37330000D01*
X168727380Y-37568095D02*
X167727380Y-37568095D01*
X167727380Y-37187142D01*
X167775000Y-37091904D01*
X167822619Y-37044285D01*
X167917857Y-36996666D01*
X168060714Y-36996666D01*
X168155952Y-37044285D01*
X168203571Y-37091904D01*
X168251190Y-37187142D01*
X168251190Y-37568095D01*
X167727380Y-36091904D02*
X167727380Y-36568095D01*
X168203571Y-36615714D01*
X168155952Y-36568095D01*
X168108333Y-36472857D01*
X168108333Y-36234761D01*
X168155952Y-36139523D01*
X168203571Y-36091904D01*
X168298809Y-36044285D01*
X168536904Y-36044285D01*
X168632142Y-36091904D01*
X168679761Y-36139523D01*
X168727380Y-36234761D01*
X168727380Y-36472857D01*
X168679761Y-36568095D01*
X168632142Y-36615714D01*
%TO.C,R7*%
X176092380Y-39781666D02*
X175616190Y-40115000D01*
X176092380Y-40353095D02*
X175092380Y-40353095D01*
X175092380Y-39972142D01*
X175140000Y-39876904D01*
X175187619Y-39829285D01*
X175282857Y-39781666D01*
X175425714Y-39781666D01*
X175520952Y-39829285D01*
X175568571Y-39876904D01*
X175616190Y-39972142D01*
X175616190Y-40353095D01*
X175092380Y-39448333D02*
X175092380Y-38781666D01*
X176092380Y-39210238D01*
%TO.C,R8*%
X181807380Y-39781666D02*
X181331190Y-40115000D01*
X181807380Y-40353095D02*
X180807380Y-40353095D01*
X180807380Y-39972142D01*
X180855000Y-39876904D01*
X180902619Y-39829285D01*
X180997857Y-39781666D01*
X181140714Y-39781666D01*
X181235952Y-39829285D01*
X181283571Y-39876904D01*
X181331190Y-39972142D01*
X181331190Y-40353095D01*
X181235952Y-39210238D02*
X181188333Y-39305476D01*
X181140714Y-39353095D01*
X181045476Y-39400714D01*
X180997857Y-39400714D01*
X180902619Y-39353095D01*
X180855000Y-39305476D01*
X180807380Y-39210238D01*
X180807380Y-39019761D01*
X180855000Y-38924523D01*
X180902619Y-38876904D01*
X180997857Y-38829285D01*
X181045476Y-38829285D01*
X181140714Y-38876904D01*
X181188333Y-38924523D01*
X181235952Y-39019761D01*
X181235952Y-39210238D01*
X181283571Y-39305476D01*
X181331190Y-39353095D01*
X181426428Y-39400714D01*
X181616904Y-39400714D01*
X181712142Y-39353095D01*
X181759761Y-39305476D01*
X181807380Y-39210238D01*
X181807380Y-39019761D01*
X181759761Y-38924523D01*
X181712142Y-38876904D01*
X181616904Y-38829285D01*
X181426428Y-38829285D01*
X181331190Y-38876904D01*
X181283571Y-38924523D01*
X181235952Y-39019761D01*
%TO.C,R9*%
X187522380Y-39781666D02*
X187046190Y-40115000D01*
X187522380Y-40353095D02*
X186522380Y-40353095D01*
X186522380Y-39972142D01*
X186570000Y-39876904D01*
X186617619Y-39829285D01*
X186712857Y-39781666D01*
X186855714Y-39781666D01*
X186950952Y-39829285D01*
X186998571Y-39876904D01*
X187046190Y-39972142D01*
X187046190Y-40353095D01*
X187522380Y-39305476D02*
X187522380Y-39115000D01*
X187474761Y-39019761D01*
X187427142Y-38972142D01*
X187284285Y-38876904D01*
X187093809Y-38829285D01*
X186712857Y-38829285D01*
X186617619Y-38876904D01*
X186570000Y-38924523D01*
X186522380Y-39019761D01*
X186522380Y-39210238D01*
X186570000Y-39305476D01*
X186617619Y-39353095D01*
X186712857Y-39400714D01*
X186950952Y-39400714D01*
X187046190Y-39353095D01*
X187093809Y-39305476D01*
X187141428Y-39210238D01*
X187141428Y-39019761D01*
X187093809Y-38924523D01*
X187046190Y-38876904D01*
X186950952Y-38829285D01*
%TO.C,U1*%
X151638095Y-35012380D02*
X151638095Y-35821904D01*
X151685714Y-35917142D01*
X151733333Y-35964761D01*
X151828571Y-36012380D01*
X152019047Y-36012380D01*
X152114285Y-35964761D01*
X152161904Y-35917142D01*
X152209523Y-35821904D01*
X152209523Y-35012380D01*
X153209523Y-36012380D02*
X152638095Y-36012380D01*
X152923809Y-36012380D02*
X152923809Y-35012380D01*
X152828571Y-35155238D01*
X152733333Y-35250476D01*
X152638095Y-35298095D01*
X150050500Y-35129980D02*
X150050500Y-35368076D01*
X149812404Y-35272838D02*
X150050500Y-35368076D01*
X150288595Y-35272838D01*
X149907642Y-35558552D02*
X150050500Y-35368076D01*
X150193357Y-35558552D01*
X150050500Y-35129980D02*
X150050500Y-35368076D01*
X149812404Y-35272838D02*
X150050500Y-35368076D01*
X150288595Y-35272838D01*
X149907642Y-35558552D02*
X150050500Y-35368076D01*
X150193357Y-35558552D01*
%TO.C,H1*%
X123063095Y-19177380D02*
X123063095Y-18177380D01*
X123063095Y-18653571D02*
X123634523Y-18653571D01*
X123634523Y-19177380D02*
X123634523Y-18177380D01*
X124634523Y-19177380D02*
X124063095Y-19177380D01*
X124348809Y-19177380D02*
X124348809Y-18177380D01*
X124253571Y-18320238D01*
X124158333Y-18415476D01*
X124063095Y-18463095D01*
%TO.C,H2*%
X123063095Y-66802380D02*
X123063095Y-65802380D01*
X123063095Y-66278571D02*
X123634523Y-66278571D01*
X123634523Y-66802380D02*
X123634523Y-65802380D01*
X124063095Y-65897619D02*
X124110714Y-65850000D01*
X124205952Y-65802380D01*
X124444047Y-65802380D01*
X124539285Y-65850000D01*
X124586904Y-65897619D01*
X124634523Y-65992857D01*
X124634523Y-66088095D01*
X124586904Y-66230952D01*
X124015476Y-66802380D01*
X124634523Y-66802380D01*
%TO.C,H3*%
X205613095Y-19177380D02*
X205613095Y-18177380D01*
X205613095Y-18653571D02*
X206184523Y-18653571D01*
X206184523Y-19177380D02*
X206184523Y-18177380D01*
X206565476Y-18177380D02*
X207184523Y-18177380D01*
X206851190Y-18558333D01*
X206994047Y-18558333D01*
X207089285Y-18605952D01*
X207136904Y-18653571D01*
X207184523Y-18748809D01*
X207184523Y-18986904D01*
X207136904Y-19082142D01*
X207089285Y-19129761D01*
X206994047Y-19177380D01*
X206708333Y-19177380D01*
X206613095Y-19129761D01*
X206565476Y-19082142D01*
%TO.C,H4*%
X205613095Y-66802380D02*
X205613095Y-65802380D01*
X205613095Y-66278571D02*
X206184523Y-66278571D01*
X206184523Y-66802380D02*
X206184523Y-65802380D01*
X207089285Y-66135714D02*
X207089285Y-66802380D01*
X206851190Y-65754761D02*
X206613095Y-66469047D01*
X207232142Y-66469047D01*
%TD*%
M02*
