%TF.GenerationSoftware,KiCad,Pcbnew,(5.1.6)-1*%
%TF.CreationDate,2021-02-09T17:38:17-05:00*%
%TF.ProjectId,GLV_BOBV6,474c565f-424f-4425-9636-2e6b69636164,rev?*%
%TF.SameCoordinates,Original*%
%TF.FileFunction,Legend,Top*%
%TF.FilePolarity,Positive*%
%FSLAX46Y46*%
G04 Gerber Fmt 4.6, Leading zero omitted, Abs format (unit mm)*
G04 Created by KiCad (PCBNEW (5.1.6)-1) date 2021-02-09 17:38:17*
%MOMM*%
%LPD*%
G01*
G04 APERTURE LIST*
%ADD10C,0.125000*%
%ADD11C,0.250000*%
%ADD12C,0.120000*%
%ADD13C,0.152400*%
%ADD14C,0.150000*%
G04 APERTURE END LIST*
D10*
X155242857Y-70325000D02*
X155171428Y-70289285D01*
X155064285Y-70289285D01*
X154957142Y-70325000D01*
X154885714Y-70396428D01*
X154850000Y-70467857D01*
X154814285Y-70610714D01*
X154814285Y-70717857D01*
X154850000Y-70860714D01*
X154885714Y-70932142D01*
X154957142Y-71003571D01*
X155064285Y-71039285D01*
X155135714Y-71039285D01*
X155242857Y-71003571D01*
X155278571Y-70967857D01*
X155278571Y-70717857D01*
X155135714Y-70717857D01*
X155957142Y-71039285D02*
X155600000Y-71039285D01*
X155600000Y-70289285D01*
X156100000Y-70289285D02*
X156350000Y-71039285D01*
X156600000Y-70289285D01*
X157671428Y-70646428D02*
X157778571Y-70682142D01*
X157814285Y-70717857D01*
X157850000Y-70789285D01*
X157850000Y-70896428D01*
X157814285Y-70967857D01*
X157778571Y-71003571D01*
X157707142Y-71039285D01*
X157421428Y-71039285D01*
X157421428Y-70289285D01*
X157671428Y-70289285D01*
X157742857Y-70325000D01*
X157778571Y-70360714D01*
X157814285Y-70432142D01*
X157814285Y-70503571D01*
X157778571Y-70575000D01*
X157742857Y-70610714D01*
X157671428Y-70646428D01*
X157421428Y-70646428D01*
X158314285Y-70289285D02*
X158457142Y-70289285D01*
X158528571Y-70325000D01*
X158600000Y-70396428D01*
X158635714Y-70539285D01*
X158635714Y-70789285D01*
X158600000Y-70932142D01*
X158528571Y-71003571D01*
X158457142Y-71039285D01*
X158314285Y-71039285D01*
X158242857Y-71003571D01*
X158171428Y-70932142D01*
X158135714Y-70789285D01*
X158135714Y-70539285D01*
X158171428Y-70396428D01*
X158242857Y-70325000D01*
X158314285Y-70289285D01*
X159207142Y-70646428D02*
X159314285Y-70682142D01*
X159350000Y-70717857D01*
X159385714Y-70789285D01*
X159385714Y-70896428D01*
X159350000Y-70967857D01*
X159314285Y-71003571D01*
X159242857Y-71039285D01*
X158957142Y-71039285D01*
X158957142Y-70289285D01*
X159207142Y-70289285D01*
X159278571Y-70325000D01*
X159314285Y-70360714D01*
X159350000Y-70432142D01*
X159350000Y-70503571D01*
X159314285Y-70575000D01*
X159278571Y-70610714D01*
X159207142Y-70646428D01*
X158957142Y-70646428D01*
X160171428Y-70289285D02*
X160421428Y-71039285D01*
X160671428Y-70289285D01*
X161242857Y-70289285D02*
X161100000Y-70289285D01*
X161028571Y-70325000D01*
X160992857Y-70360714D01*
X160921428Y-70467857D01*
X160885714Y-70610714D01*
X160885714Y-70896428D01*
X160921428Y-70967857D01*
X160957142Y-71003571D01*
X161028571Y-71039285D01*
X161171428Y-71039285D01*
X161242857Y-71003571D01*
X161278571Y-70967857D01*
X161314285Y-70896428D01*
X161314285Y-70717857D01*
X161278571Y-70646428D01*
X161242857Y-70610714D01*
X161171428Y-70575000D01*
X161028571Y-70575000D01*
X160957142Y-70610714D01*
X160921428Y-70646428D01*
X160885714Y-70717857D01*
X161635714Y-70967857D02*
X161671428Y-71003571D01*
X161635714Y-71039285D01*
X161600000Y-71003571D01*
X161635714Y-70967857D01*
X161635714Y-71039285D01*
X162135714Y-70289285D02*
X162207142Y-70289285D01*
X162278571Y-70325000D01*
X162314285Y-70360714D01*
X162350000Y-70432142D01*
X162385714Y-70575000D01*
X162385714Y-70753571D01*
X162350000Y-70896428D01*
X162314285Y-70967857D01*
X162278571Y-71003571D01*
X162207142Y-71039285D01*
X162135714Y-71039285D01*
X162064285Y-71003571D01*
X162028571Y-70967857D01*
X161992857Y-70896428D01*
X161957142Y-70753571D01*
X161957142Y-70575000D01*
X161992857Y-70432142D01*
X162028571Y-70360714D01*
X162064285Y-70325000D01*
X162135714Y-70289285D01*
X149010714Y-71539285D02*
X149439285Y-71539285D01*
X149225000Y-72289285D02*
X149225000Y-71539285D01*
X149689285Y-72289285D02*
X149689285Y-71789285D01*
X149689285Y-71932142D02*
X149725000Y-71860714D01*
X149760714Y-71825000D01*
X149832142Y-71789285D01*
X149903571Y-71789285D01*
X150260714Y-72289285D02*
X150189285Y-72253571D01*
X150153571Y-72217857D01*
X150117857Y-72146428D01*
X150117857Y-71932142D01*
X150153571Y-71860714D01*
X150189285Y-71825000D01*
X150260714Y-71789285D01*
X150367857Y-71789285D01*
X150439285Y-71825000D01*
X150475000Y-71860714D01*
X150510714Y-71932142D01*
X150510714Y-72146428D01*
X150475000Y-72217857D01*
X150439285Y-72253571D01*
X150367857Y-72289285D01*
X150260714Y-72289285D01*
X150760714Y-71789285D02*
X150939285Y-72289285D01*
X151117857Y-71789285D02*
X150939285Y-72289285D01*
X150867857Y-72467857D01*
X150832142Y-72503571D01*
X150760714Y-72539285D01*
X152403571Y-72217857D02*
X152367857Y-72253571D01*
X152260714Y-72289285D01*
X152189285Y-72289285D01*
X152082142Y-72253571D01*
X152010714Y-72182142D01*
X151975000Y-72110714D01*
X151939285Y-71967857D01*
X151939285Y-71860714D01*
X151975000Y-71717857D01*
X152010714Y-71646428D01*
X152082142Y-71575000D01*
X152189285Y-71539285D01*
X152260714Y-71539285D01*
X152367857Y-71575000D01*
X152403571Y-71610714D01*
X152832142Y-72289285D02*
X152760714Y-72253571D01*
X152725000Y-72217857D01*
X152689285Y-72146428D01*
X152689285Y-71932142D01*
X152725000Y-71860714D01*
X152760714Y-71825000D01*
X152832142Y-71789285D01*
X152939285Y-71789285D01*
X153010714Y-71825000D01*
X153046428Y-71860714D01*
X153082142Y-71932142D01*
X153082142Y-72146428D01*
X153046428Y-72217857D01*
X153010714Y-72253571D01*
X152939285Y-72289285D01*
X152832142Y-72289285D01*
X153510714Y-72289285D02*
X153439285Y-72253571D01*
X153403571Y-72182142D01*
X153403571Y-71539285D01*
X154082142Y-72253571D02*
X154010714Y-72289285D01*
X153867857Y-72289285D01*
X153796428Y-72253571D01*
X153760714Y-72182142D01*
X153760714Y-71896428D01*
X153796428Y-71825000D01*
X153867857Y-71789285D01*
X154010714Y-71789285D01*
X154082142Y-71825000D01*
X154117857Y-71896428D01*
X154117857Y-71967857D01*
X153760714Y-72039285D01*
X154439285Y-72289285D02*
X154439285Y-71789285D01*
X154439285Y-71860714D02*
X154475000Y-71825000D01*
X154546428Y-71789285D01*
X154653571Y-71789285D01*
X154725000Y-71825000D01*
X154760714Y-71896428D01*
X154760714Y-72289285D01*
X154760714Y-71896428D02*
X154796428Y-71825000D01*
X154867857Y-71789285D01*
X154975000Y-71789285D01*
X155046428Y-71825000D01*
X155082142Y-71896428D01*
X155082142Y-72289285D01*
X155760714Y-72289285D02*
X155760714Y-71896428D01*
X155725000Y-71825000D01*
X155653571Y-71789285D01*
X155510714Y-71789285D01*
X155439285Y-71825000D01*
X155760714Y-72253571D02*
X155689285Y-72289285D01*
X155510714Y-72289285D01*
X155439285Y-72253571D01*
X155403571Y-72182142D01*
X155403571Y-72110714D01*
X155439285Y-72039285D01*
X155510714Y-72003571D01*
X155689285Y-72003571D01*
X155760714Y-71967857D01*
X156117857Y-71789285D02*
X156117857Y-72289285D01*
X156117857Y-71860714D02*
X156153571Y-71825000D01*
X156225000Y-71789285D01*
X156332142Y-71789285D01*
X156403571Y-71825000D01*
X156439285Y-71896428D01*
X156439285Y-72289285D01*
X157689285Y-72289285D02*
X157689285Y-71896428D01*
X157653571Y-71825000D01*
X157582142Y-71789285D01*
X157439285Y-71789285D01*
X157367857Y-71825000D01*
X157689285Y-72253571D02*
X157617857Y-72289285D01*
X157439285Y-72289285D01*
X157367857Y-72253571D01*
X157332142Y-72182142D01*
X157332142Y-72110714D01*
X157367857Y-72039285D01*
X157439285Y-72003571D01*
X157617857Y-72003571D01*
X157689285Y-71967857D01*
X158046428Y-71789285D02*
X158046428Y-72289285D01*
X158046428Y-71860714D02*
X158082142Y-71825000D01*
X158153571Y-71789285D01*
X158260714Y-71789285D01*
X158332142Y-71825000D01*
X158367857Y-71896428D01*
X158367857Y-72289285D01*
X159046428Y-72289285D02*
X159046428Y-71539285D01*
X159046428Y-72253571D02*
X158975000Y-72289285D01*
X158832142Y-72289285D01*
X158760714Y-72253571D01*
X158725000Y-72217857D01*
X158689285Y-72146428D01*
X158689285Y-71932142D01*
X158725000Y-71860714D01*
X158760714Y-71825000D01*
X158832142Y-71789285D01*
X158975000Y-71789285D01*
X159046428Y-71825000D01*
X159903571Y-71539285D02*
X160403571Y-71539285D01*
X159903571Y-72289285D01*
X160403571Y-72289285D01*
X161010714Y-72289285D02*
X161010714Y-71896428D01*
X160975000Y-71825000D01*
X160903571Y-71789285D01*
X160760714Y-71789285D01*
X160689285Y-71825000D01*
X161010714Y-72253571D02*
X160939285Y-72289285D01*
X160760714Y-72289285D01*
X160689285Y-72253571D01*
X160653571Y-72182142D01*
X160653571Y-72110714D01*
X160689285Y-72039285D01*
X160760714Y-72003571D01*
X160939285Y-72003571D01*
X161010714Y-71967857D01*
X161689285Y-72253571D02*
X161617857Y-72289285D01*
X161475000Y-72289285D01*
X161403571Y-72253571D01*
X161367857Y-72217857D01*
X161332142Y-72146428D01*
X161332142Y-71932142D01*
X161367857Y-71860714D01*
X161403571Y-71825000D01*
X161475000Y-71789285D01*
X161617857Y-71789285D01*
X161689285Y-71825000D01*
X162010714Y-72289285D02*
X162010714Y-71539285D01*
X162332142Y-72289285D02*
X162332142Y-71896428D01*
X162296428Y-71825000D01*
X162225000Y-71789285D01*
X162117857Y-71789285D01*
X162046428Y-71825000D01*
X162010714Y-71860714D01*
X163010714Y-72289285D02*
X163010714Y-71896428D01*
X162975000Y-71825000D01*
X162903571Y-71789285D01*
X162760714Y-71789285D01*
X162689285Y-71825000D01*
X163010714Y-72253571D02*
X162939285Y-72289285D01*
X162760714Y-72289285D01*
X162689285Y-72253571D01*
X162653571Y-72182142D01*
X162653571Y-72110714D01*
X162689285Y-72039285D01*
X162760714Y-72003571D01*
X162939285Y-72003571D01*
X163010714Y-71967857D01*
X163367857Y-72289285D02*
X163367857Y-71789285D01*
X163367857Y-71932142D02*
X163403571Y-71860714D01*
X163439285Y-71825000D01*
X163510714Y-71789285D01*
X163582142Y-71789285D01*
X163760714Y-71789285D02*
X163939285Y-72289285D01*
X164117857Y-71789285D02*
X163939285Y-72289285D01*
X163867857Y-72467857D01*
X163832142Y-72503571D01*
X163760714Y-72539285D01*
X164975000Y-72289285D02*
X164975000Y-71539285D01*
X165225000Y-72075000D01*
X165475000Y-71539285D01*
X165475000Y-72289285D01*
X166153571Y-72289285D02*
X166153571Y-71896428D01*
X166117857Y-71825000D01*
X166046428Y-71789285D01*
X165903571Y-71789285D01*
X165832142Y-71825000D01*
X166153571Y-72253571D02*
X166082142Y-72289285D01*
X165903571Y-72289285D01*
X165832142Y-72253571D01*
X165796428Y-72182142D01*
X165796428Y-72110714D01*
X165832142Y-72039285D01*
X165903571Y-72003571D01*
X166082142Y-72003571D01*
X166153571Y-71967857D01*
X166510714Y-72289285D02*
X166510714Y-71789285D01*
X166510714Y-71932142D02*
X166546428Y-71860714D01*
X166582142Y-71825000D01*
X166653571Y-71789285D01*
X166725000Y-71789285D01*
X166867857Y-71789285D02*
X167153571Y-71789285D01*
X166975000Y-71539285D02*
X166975000Y-72182142D01*
X167010714Y-72253571D01*
X167082142Y-72289285D01*
X167153571Y-72289285D01*
X167403571Y-72289285D02*
X167403571Y-71789285D01*
X167403571Y-71539285D02*
X167367857Y-71575000D01*
X167403571Y-71610714D01*
X167439285Y-71575000D01*
X167403571Y-71539285D01*
X167403571Y-71610714D01*
X167760714Y-71789285D02*
X167760714Y-72289285D01*
X167760714Y-71860714D02*
X167796428Y-71825000D01*
X167867857Y-71789285D01*
X167975000Y-71789285D01*
X168046428Y-71825000D01*
X168082142Y-71896428D01*
X168082142Y-72289285D01*
X156528571Y-72860714D02*
X156564285Y-72825000D01*
X156635714Y-72789285D01*
X156814285Y-72789285D01*
X156885714Y-72825000D01*
X156921428Y-72860714D01*
X156957142Y-72932142D01*
X156957142Y-73003571D01*
X156921428Y-73110714D01*
X156492857Y-73539285D01*
X156957142Y-73539285D01*
X157814285Y-72753571D02*
X157171428Y-73717857D01*
X158100000Y-73539285D02*
X158242857Y-73539285D01*
X158314285Y-73503571D01*
X158350000Y-73467857D01*
X158421428Y-73360714D01*
X158457142Y-73217857D01*
X158457142Y-72932142D01*
X158421428Y-72860714D01*
X158385714Y-72825000D01*
X158314285Y-72789285D01*
X158171428Y-72789285D01*
X158100000Y-72825000D01*
X158064285Y-72860714D01*
X158028571Y-72932142D01*
X158028571Y-73110714D01*
X158064285Y-73182142D01*
X158100000Y-73217857D01*
X158171428Y-73253571D01*
X158314285Y-73253571D01*
X158385714Y-73217857D01*
X158421428Y-73182142D01*
X158457142Y-73110714D01*
X159314285Y-72753571D02*
X158671428Y-73717857D01*
X159528571Y-72860714D02*
X159564285Y-72825000D01*
X159635714Y-72789285D01*
X159814285Y-72789285D01*
X159885714Y-72825000D01*
X159921428Y-72860714D01*
X159957142Y-72932142D01*
X159957142Y-73003571D01*
X159921428Y-73110714D01*
X159492857Y-73539285D01*
X159957142Y-73539285D01*
X160671428Y-73539285D02*
X160242857Y-73539285D01*
X160457142Y-73539285D02*
X160457142Y-72789285D01*
X160385714Y-72896428D01*
X160314285Y-72967857D01*
X160242857Y-73003571D01*
D11*
X145285714Y-68678571D02*
X145619047Y-68678571D01*
X145761904Y-69202380D02*
X145285714Y-69202380D01*
X145285714Y-68202380D01*
X145761904Y-68202380D01*
X146333333Y-69202380D02*
X146238095Y-69154761D01*
X146190476Y-69059523D01*
X146190476Y-68202380D01*
X147095238Y-69154761D02*
X147000000Y-69202380D01*
X146809523Y-69202380D01*
X146714285Y-69154761D01*
X146666666Y-69059523D01*
X146666666Y-68678571D01*
X146714285Y-68583333D01*
X146809523Y-68535714D01*
X147000000Y-68535714D01*
X147095238Y-68583333D01*
X147142857Y-68678571D01*
X147142857Y-68773809D01*
X146666666Y-68869047D01*
X148000000Y-69154761D02*
X147904761Y-69202380D01*
X147714285Y-69202380D01*
X147619047Y-69154761D01*
X147571428Y-69107142D01*
X147523809Y-69011904D01*
X147523809Y-68726190D01*
X147571428Y-68630952D01*
X147619047Y-68583333D01*
X147714285Y-68535714D01*
X147904761Y-68535714D01*
X148000000Y-68583333D01*
X148285714Y-68535714D02*
X148666666Y-68535714D01*
X148428571Y-68202380D02*
X148428571Y-69059523D01*
X148476190Y-69154761D01*
X148571428Y-69202380D01*
X148666666Y-69202380D01*
X149000000Y-69202380D02*
X149000000Y-68535714D01*
X149000000Y-68726190D02*
X149047619Y-68630952D01*
X149095238Y-68583333D01*
X149190476Y-68535714D01*
X149285714Y-68535714D01*
X149619047Y-69202380D02*
X149619047Y-68535714D01*
X149619047Y-68202380D02*
X149571428Y-68250000D01*
X149619047Y-68297619D01*
X149666666Y-68250000D01*
X149619047Y-68202380D01*
X149619047Y-68297619D01*
X150523809Y-69154761D02*
X150428571Y-69202380D01*
X150238095Y-69202380D01*
X150142857Y-69154761D01*
X150095238Y-69107142D01*
X150047619Y-69011904D01*
X150047619Y-68726190D01*
X150095238Y-68630952D01*
X150142857Y-68583333D01*
X150238095Y-68535714D01*
X150428571Y-68535714D01*
X150523809Y-68583333D01*
X151380952Y-69202380D02*
X151380952Y-68678571D01*
X151333333Y-68583333D01*
X151238095Y-68535714D01*
X151047619Y-68535714D01*
X150952380Y-68583333D01*
X151380952Y-69154761D02*
X151285714Y-69202380D01*
X151047619Y-69202380D01*
X150952380Y-69154761D01*
X150904761Y-69059523D01*
X150904761Y-68964285D01*
X150952380Y-68869047D01*
X151047619Y-68821428D01*
X151285714Y-68821428D01*
X151380952Y-68773809D01*
X152000000Y-69202380D02*
X151904761Y-69154761D01*
X151857142Y-69059523D01*
X151857142Y-68202380D01*
X153571428Y-69202380D02*
X153571428Y-68678571D01*
X153523809Y-68583333D01*
X153428571Y-68535714D01*
X153238095Y-68535714D01*
X153142857Y-68583333D01*
X153571428Y-69154761D02*
X153476190Y-69202380D01*
X153238095Y-69202380D01*
X153142857Y-69154761D01*
X153095238Y-69059523D01*
X153095238Y-68964285D01*
X153142857Y-68869047D01*
X153238095Y-68821428D01*
X153476190Y-68821428D01*
X153571428Y-68773809D01*
X154047619Y-68535714D02*
X154047619Y-69202380D01*
X154047619Y-68630952D02*
X154095238Y-68583333D01*
X154190476Y-68535714D01*
X154333333Y-68535714D01*
X154428571Y-68583333D01*
X154476190Y-68678571D01*
X154476190Y-69202380D01*
X155380952Y-69202380D02*
X155380952Y-68202380D01*
X155380952Y-69154761D02*
X155285714Y-69202380D01*
X155095238Y-69202380D01*
X155000000Y-69154761D01*
X154952380Y-69107142D01*
X154904761Y-69011904D01*
X154904761Y-68726190D01*
X154952380Y-68630952D01*
X155000000Y-68583333D01*
X155095238Y-68535714D01*
X155285714Y-68535714D01*
X155380952Y-68583333D01*
X157190476Y-69107142D02*
X157142857Y-69154761D01*
X157000000Y-69202380D01*
X156904761Y-69202380D01*
X156761904Y-69154761D01*
X156666666Y-69059523D01*
X156619047Y-68964285D01*
X156571428Y-68773809D01*
X156571428Y-68630952D01*
X156619047Y-68440476D01*
X156666666Y-68345238D01*
X156761904Y-68250000D01*
X156904761Y-68202380D01*
X157000000Y-68202380D01*
X157142857Y-68250000D01*
X157190476Y-68297619D01*
X157761904Y-69202380D02*
X157666666Y-69154761D01*
X157619047Y-69107142D01*
X157571428Y-69011904D01*
X157571428Y-68726190D01*
X157619047Y-68630952D01*
X157666666Y-68583333D01*
X157761904Y-68535714D01*
X157904761Y-68535714D01*
X158000000Y-68583333D01*
X158047619Y-68630952D01*
X158095238Y-68726190D01*
X158095238Y-69011904D01*
X158047619Y-69107142D01*
X158000000Y-69154761D01*
X157904761Y-69202380D01*
X157761904Y-69202380D01*
X158523809Y-69202380D02*
X158523809Y-68535714D01*
X158523809Y-68630952D02*
X158571428Y-68583333D01*
X158666666Y-68535714D01*
X158809523Y-68535714D01*
X158904761Y-68583333D01*
X158952380Y-68678571D01*
X158952380Y-69202380D01*
X158952380Y-68678571D02*
X159000000Y-68583333D01*
X159095238Y-68535714D01*
X159238095Y-68535714D01*
X159333333Y-68583333D01*
X159380952Y-68678571D01*
X159380952Y-69202380D01*
X159857142Y-68535714D02*
X159857142Y-69535714D01*
X159857142Y-68583333D02*
X159952380Y-68535714D01*
X160142857Y-68535714D01*
X160238095Y-68583333D01*
X160285714Y-68630952D01*
X160333333Y-68726190D01*
X160333333Y-69011904D01*
X160285714Y-69107142D01*
X160238095Y-69154761D01*
X160142857Y-69202380D01*
X159952380Y-69202380D01*
X159857142Y-69154761D01*
X161190476Y-68535714D02*
X161190476Y-69202380D01*
X160761904Y-68535714D02*
X160761904Y-69059523D01*
X160809523Y-69154761D01*
X160904761Y-69202380D01*
X161047619Y-69202380D01*
X161142857Y-69154761D01*
X161190476Y-69107142D01*
X161523809Y-68535714D02*
X161904761Y-68535714D01*
X161666666Y-68202380D02*
X161666666Y-69059523D01*
X161714285Y-69154761D01*
X161809523Y-69202380D01*
X161904761Y-69202380D01*
X162619047Y-69154761D02*
X162523809Y-69202380D01*
X162333333Y-69202380D01*
X162238095Y-69154761D01*
X162190476Y-69059523D01*
X162190476Y-68678571D01*
X162238095Y-68583333D01*
X162333333Y-68535714D01*
X162523809Y-68535714D01*
X162619047Y-68583333D01*
X162666666Y-68678571D01*
X162666666Y-68773809D01*
X162190476Y-68869047D01*
X163095238Y-69202380D02*
X163095238Y-68535714D01*
X163095238Y-68726190D02*
X163142857Y-68630952D01*
X163190476Y-68583333D01*
X163285714Y-68535714D01*
X163380952Y-68535714D01*
X164476190Y-68678571D02*
X164809523Y-68678571D01*
X164952380Y-69202380D02*
X164476190Y-69202380D01*
X164476190Y-68202380D01*
X164952380Y-68202380D01*
X165380952Y-68535714D02*
X165380952Y-69202380D01*
X165380952Y-68630952D02*
X165428571Y-68583333D01*
X165523809Y-68535714D01*
X165666666Y-68535714D01*
X165761904Y-68583333D01*
X165809523Y-68678571D01*
X165809523Y-69202380D01*
X166714285Y-68535714D02*
X166714285Y-69345238D01*
X166666666Y-69440476D01*
X166619047Y-69488095D01*
X166523809Y-69535714D01*
X166380952Y-69535714D01*
X166285714Y-69488095D01*
X166714285Y-69154761D02*
X166619047Y-69202380D01*
X166428571Y-69202380D01*
X166333333Y-69154761D01*
X166285714Y-69107142D01*
X166238095Y-69011904D01*
X166238095Y-68726190D01*
X166285714Y-68630952D01*
X166333333Y-68583333D01*
X166428571Y-68535714D01*
X166619047Y-68535714D01*
X166714285Y-68583333D01*
X167190476Y-69202380D02*
X167190476Y-68535714D01*
X167190476Y-68202380D02*
X167142857Y-68250000D01*
X167190476Y-68297619D01*
X167238095Y-68250000D01*
X167190476Y-68202380D01*
X167190476Y-68297619D01*
X167666666Y-68535714D02*
X167666666Y-69202380D01*
X167666666Y-68630952D02*
X167714285Y-68583333D01*
X167809523Y-68535714D01*
X167952380Y-68535714D01*
X168047619Y-68583333D01*
X168095238Y-68678571D01*
X168095238Y-69202380D01*
X168952380Y-69154761D02*
X168857142Y-69202380D01*
X168666666Y-69202380D01*
X168571428Y-69154761D01*
X168523809Y-69059523D01*
X168523809Y-68678571D01*
X168571428Y-68583333D01*
X168666666Y-68535714D01*
X168857142Y-68535714D01*
X168952380Y-68583333D01*
X169000000Y-68678571D01*
X169000000Y-68773809D01*
X168523809Y-68869047D01*
X169809523Y-69154761D02*
X169714285Y-69202380D01*
X169523809Y-69202380D01*
X169428571Y-69154761D01*
X169380952Y-69059523D01*
X169380952Y-68678571D01*
X169428571Y-68583333D01*
X169523809Y-68535714D01*
X169714285Y-68535714D01*
X169809523Y-68583333D01*
X169857142Y-68678571D01*
X169857142Y-68773809D01*
X169380952Y-68869047D01*
X170285714Y-69202380D02*
X170285714Y-68535714D01*
X170285714Y-68726190D02*
X170333333Y-68630952D01*
X170380952Y-68583333D01*
X170476190Y-68535714D01*
X170571428Y-68535714D01*
X170904761Y-69202380D02*
X170904761Y-68535714D01*
X170904761Y-68202380D02*
X170857142Y-68250000D01*
X170904761Y-68297619D01*
X170952380Y-68250000D01*
X170904761Y-68202380D01*
X170904761Y-68297619D01*
X171380952Y-68535714D02*
X171380952Y-69202380D01*
X171380952Y-68630952D02*
X171428571Y-68583333D01*
X171523809Y-68535714D01*
X171666666Y-68535714D01*
X171761904Y-68583333D01*
X171809523Y-68678571D01*
X171809523Y-69202380D01*
X172714285Y-68535714D02*
X172714285Y-69345238D01*
X172666666Y-69440476D01*
X172619047Y-69488095D01*
X172523809Y-69535714D01*
X172380952Y-69535714D01*
X172285714Y-69488095D01*
X172714285Y-69154761D02*
X172619047Y-69202380D01*
X172428571Y-69202380D01*
X172333333Y-69154761D01*
X172285714Y-69107142D01*
X172238095Y-69011904D01*
X172238095Y-68726190D01*
X172285714Y-68630952D01*
X172333333Y-68583333D01*
X172428571Y-68535714D01*
X172619047Y-68535714D01*
X172714285Y-68583333D01*
D12*
%TO.C,R3*%
X149300000Y-44711252D02*
X149300000Y-44188748D01*
X147880000Y-44711252D02*
X147880000Y-44188748D01*
%TO.C,R2*%
X154230000Y-43196252D02*
X154230000Y-42673748D01*
X155650000Y-43196252D02*
X155650000Y-42673748D01*
%TO.C,C1*%
X148030000Y-38361252D02*
X148030000Y-37838748D01*
X146610000Y-38361252D02*
X146610000Y-37838748D01*
%TO.C,C2*%
X163270000Y-49658748D02*
X163270000Y-50181252D01*
X161850000Y-49658748D02*
X161850000Y-50181252D01*
%TO.C,C3*%
X181050000Y-49546252D02*
X181050000Y-49023748D01*
X179630000Y-49546252D02*
X179630000Y-49023748D01*
D13*
%TO.C,CR1*%
X171043600Y-46901100D02*
X166776400Y-46901100D01*
X166776400Y-52158900D02*
X171043600Y-52158900D01*
%TO.C,D1*%
X174066200Y-32232600D02*
G75*
G03*
X174066200Y-32232600I-76200J0D01*
G01*
X174739300Y-34820650D02*
X174739300Y-34241950D01*
X173240700Y-34241950D02*
X173240700Y-34820650D01*
%TO.C,D2*%
X178955700Y-34000650D02*
X178955700Y-34579350D01*
X180454300Y-34579350D02*
X180454300Y-34000650D01*
X179781200Y-31991300D02*
G75*
G03*
X179781200Y-31991300I-76200J0D01*
G01*
%TO.C,D3*%
X185496200Y-31991300D02*
G75*
G03*
X185496200Y-31991300I-76200J0D01*
G01*
X186169300Y-34579350D02*
X186169300Y-34000650D01*
X184670700Y-34000650D02*
X184670700Y-34579350D01*
D12*
%TO.C,J1 LSP*%
X129030000Y-18990000D02*
X129030000Y-21840000D01*
X131880000Y-18990000D02*
X129030000Y-18990000D01*
X133880000Y-30540000D02*
X132080000Y-30540000D01*
X133880000Y-29140000D02*
X133880000Y-30540000D01*
X134880000Y-29140000D02*
X133880000Y-29140000D01*
X134880000Y-19240000D02*
X134880000Y-29140000D01*
X132080000Y-19240000D02*
X134880000Y-19240000D01*
X130280000Y-30540000D02*
X132080000Y-30540000D01*
X130280000Y-29140000D02*
X130280000Y-30540000D01*
X129280000Y-29140000D02*
X130280000Y-29140000D01*
X129280000Y-19240000D02*
X129280000Y-29140000D01*
X132080000Y-19240000D02*
X129280000Y-19240000D01*
%TO.C,J2 Extra 24V*%
X174750000Y-18990000D02*
X174750000Y-21840000D01*
X177600000Y-18990000D02*
X174750000Y-18990000D01*
X179600000Y-30540000D02*
X177800000Y-30540000D01*
X179600000Y-29140000D02*
X179600000Y-30540000D01*
X180600000Y-29140000D02*
X179600000Y-29140000D01*
X180600000Y-19240000D02*
X180600000Y-29140000D01*
X177800000Y-19240000D02*
X180600000Y-19240000D01*
X176000000Y-30540000D02*
X177800000Y-30540000D01*
X176000000Y-29140000D02*
X176000000Y-30540000D01*
X175000000Y-29140000D02*
X176000000Y-29140000D01*
X175000000Y-19240000D02*
X175000000Y-29140000D01*
X177800000Y-19240000D02*
X175000000Y-19240000D01*
%TO.C,J3 CAN ISO*%
X154940000Y-19240000D02*
X152140000Y-19240000D01*
X152140000Y-19240000D02*
X152140000Y-29140000D01*
X152140000Y-29140000D02*
X153140000Y-29140000D01*
X153140000Y-29140000D02*
X153140000Y-30540000D01*
X153140000Y-30540000D02*
X154940000Y-30540000D01*
X154940000Y-19240000D02*
X157740000Y-19240000D01*
X157740000Y-19240000D02*
X157740000Y-29140000D01*
X157740000Y-29140000D02*
X156740000Y-29140000D01*
X156740000Y-29140000D02*
X156740000Y-30540000D01*
X156740000Y-30540000D02*
X154940000Y-30540000D01*
X154740000Y-18990000D02*
X151890000Y-18990000D01*
X151890000Y-18990000D02*
X151890000Y-21840000D01*
%TO.C,J4 Logic*%
X162750000Y-60130000D02*
X162750000Y-65030000D01*
X162750000Y-65030000D02*
X172650000Y-65030000D01*
X172650000Y-65030000D02*
X172650000Y-61930000D01*
X172650000Y-61930000D02*
X174050000Y-61930000D01*
X174050000Y-61930000D02*
X174050000Y-60130000D01*
X162750000Y-60130000D02*
X162750000Y-55230000D01*
X162750000Y-55230000D02*
X172650000Y-55230000D01*
X172650000Y-55230000D02*
X172650000Y-58330000D01*
X172650000Y-58330000D02*
X174050000Y-58330000D01*
X174050000Y-58330000D02*
X174050000Y-60130000D01*
X162500000Y-62430000D02*
X162500000Y-65280000D01*
X162500000Y-65280000D02*
X165350000Y-65280000D01*
%TO.C,J5 TSI*%
X129030000Y-34230000D02*
X129030000Y-37080000D01*
X131880000Y-34230000D02*
X129030000Y-34230000D01*
X135980000Y-45780000D02*
X134180000Y-45780000D01*
X135980000Y-44380000D02*
X135980000Y-45780000D01*
X139080000Y-44380000D02*
X135980000Y-44380000D01*
X139080000Y-34480000D02*
X139080000Y-44380000D01*
X134180000Y-34480000D02*
X139080000Y-34480000D01*
X132380000Y-45780000D02*
X134180000Y-45780000D01*
X132380000Y-44380000D02*
X132380000Y-45780000D01*
X129280000Y-44380000D02*
X132380000Y-44380000D01*
X129280000Y-34480000D02*
X129280000Y-44380000D01*
X134180000Y-34480000D02*
X129280000Y-34480000D01*
%TO.C,J6 Breakers*%
X142750000Y-65465000D02*
X142750000Y-62615000D01*
X139900000Y-65465000D02*
X142750000Y-65465000D01*
X133700000Y-53915000D02*
X135500000Y-53915000D01*
X133700000Y-55315000D02*
X133700000Y-53915000D01*
X128500000Y-55315000D02*
X133700000Y-55315000D01*
X128500000Y-65215000D02*
X128500000Y-55315000D01*
X135500000Y-65215000D02*
X128500000Y-65215000D01*
X137300000Y-53915000D02*
X135500000Y-53915000D01*
X137300000Y-55315000D02*
X137300000Y-53915000D01*
X142500000Y-55315000D02*
X137300000Y-55315000D01*
X142500000Y-65215000D02*
X142500000Y-55315000D01*
X135500000Y-65215000D02*
X142500000Y-65215000D01*
%TO.C,R1*%
X157447064Y-31660000D02*
X156242936Y-31660000D01*
X157447064Y-34380000D02*
X156242936Y-34380000D01*
%TO.C,R4*%
X165660000Y-42416252D02*
X165660000Y-41893748D01*
X167080000Y-42416252D02*
X167080000Y-41893748D01*
%TO.C,R5*%
X167080000Y-37336252D02*
X167080000Y-36813748D01*
X165660000Y-37336252D02*
X165660000Y-36813748D01*
%TO.C,R7*%
X173280000Y-39353748D02*
X173280000Y-39876252D01*
X174700000Y-39353748D02*
X174700000Y-39876252D01*
%TO.C,R8*%
X178995000Y-39353748D02*
X178995000Y-39876252D01*
X180415000Y-39353748D02*
X180415000Y-39876252D01*
%TO.C,R9*%
X186130000Y-39353748D02*
X186130000Y-39876252D01*
X184710000Y-39353748D02*
X184710000Y-39876252D01*
D13*
%TO.C,U1*%
X155536900Y-36909499D02*
X155790900Y-36909499D01*
X155536900Y-37290499D02*
X155536900Y-36909499D01*
X155790900Y-37290499D02*
X155536900Y-37290499D01*
X155790900Y-36909499D02*
X155790900Y-37290499D01*
X153949400Y-36550600D02*
X150850600Y-36550600D01*
X150850600Y-39649400D02*
X153949400Y-39649400D01*
X152095200Y-36550600D02*
G75*
G03*
X152704800Y-36550600I304800J0D01*
G01*
%TO.C,R3*%
D14*
X147392380Y-44616666D02*
X146916190Y-44950000D01*
X147392380Y-45188095D02*
X146392380Y-45188095D01*
X146392380Y-44807142D01*
X146440000Y-44711904D01*
X146487619Y-44664285D01*
X146582857Y-44616666D01*
X146725714Y-44616666D01*
X146820952Y-44664285D01*
X146868571Y-44711904D01*
X146916190Y-44807142D01*
X146916190Y-45188095D01*
X146392380Y-44283333D02*
X146392380Y-43664285D01*
X146773333Y-43997619D01*
X146773333Y-43854761D01*
X146820952Y-43759523D01*
X146868571Y-43711904D01*
X146963809Y-43664285D01*
X147201904Y-43664285D01*
X147297142Y-43711904D01*
X147344761Y-43759523D01*
X147392380Y-43854761D01*
X147392380Y-44140476D01*
X147344761Y-44235714D01*
X147297142Y-44283333D01*
%TO.C,R2*%
X153952380Y-44316666D02*
X153476190Y-44650000D01*
X153952380Y-44888095D02*
X152952380Y-44888095D01*
X152952380Y-44507142D01*
X153000000Y-44411904D01*
X153047619Y-44364285D01*
X153142857Y-44316666D01*
X153285714Y-44316666D01*
X153380952Y-44364285D01*
X153428571Y-44411904D01*
X153476190Y-44507142D01*
X153476190Y-44888095D01*
X153047619Y-43935714D02*
X153000000Y-43888095D01*
X152952380Y-43792857D01*
X152952380Y-43554761D01*
X153000000Y-43459523D01*
X153047619Y-43411904D01*
X153142857Y-43364285D01*
X153238095Y-43364285D01*
X153380952Y-43411904D01*
X153952380Y-43983333D01*
X153952380Y-43364285D01*
%TO.C,C1*%
X145137142Y-39536666D02*
X145184761Y-39584285D01*
X145232380Y-39727142D01*
X145232380Y-39822380D01*
X145184761Y-39965238D01*
X145089523Y-40060476D01*
X144994285Y-40108095D01*
X144803809Y-40155714D01*
X144660952Y-40155714D01*
X144470476Y-40108095D01*
X144375238Y-40060476D01*
X144280000Y-39965238D01*
X144232380Y-39822380D01*
X144232380Y-39727142D01*
X144280000Y-39584285D01*
X144327619Y-39536666D01*
X145232380Y-38584285D02*
X145232380Y-39155714D01*
X145232380Y-38870000D02*
X144232380Y-38870000D01*
X144375238Y-38965238D01*
X144470476Y-39060476D01*
X144518095Y-39155714D01*
%TO.C,C2*%
X164567142Y-50086666D02*
X164614761Y-50134285D01*
X164662380Y-50277142D01*
X164662380Y-50372380D01*
X164614761Y-50515238D01*
X164519523Y-50610476D01*
X164424285Y-50658095D01*
X164233809Y-50705714D01*
X164090952Y-50705714D01*
X163900476Y-50658095D01*
X163805238Y-50610476D01*
X163710000Y-50515238D01*
X163662380Y-50372380D01*
X163662380Y-50277142D01*
X163710000Y-50134285D01*
X163757619Y-50086666D01*
X163757619Y-49705714D02*
X163710000Y-49658095D01*
X163662380Y-49562857D01*
X163662380Y-49324761D01*
X163710000Y-49229523D01*
X163757619Y-49181904D01*
X163852857Y-49134285D01*
X163948095Y-49134285D01*
X164090952Y-49181904D01*
X164662380Y-49753333D01*
X164662380Y-49134285D01*
%TO.C,C3*%
X179047142Y-49451666D02*
X179094761Y-49499285D01*
X179142380Y-49642142D01*
X179142380Y-49737380D01*
X179094761Y-49880238D01*
X178999523Y-49975476D01*
X178904285Y-50023095D01*
X178713809Y-50070714D01*
X178570952Y-50070714D01*
X178380476Y-50023095D01*
X178285238Y-49975476D01*
X178190000Y-49880238D01*
X178142380Y-49737380D01*
X178142380Y-49642142D01*
X178190000Y-49499285D01*
X178237619Y-49451666D01*
X178142380Y-49118333D02*
X178142380Y-48499285D01*
X178523333Y-48832619D01*
X178523333Y-48689761D01*
X178570952Y-48594523D01*
X178618571Y-48546904D01*
X178713809Y-48499285D01*
X178951904Y-48499285D01*
X179047142Y-48546904D01*
X179094761Y-48594523D01*
X179142380Y-48689761D01*
X179142380Y-48975476D01*
X179094761Y-49070714D01*
X179047142Y-49118333D01*
%TO.C,CR1*%
X168243333Y-53062142D02*
X168195714Y-53109761D01*
X168052857Y-53157380D01*
X167957619Y-53157380D01*
X167814761Y-53109761D01*
X167719523Y-53014523D01*
X167671904Y-52919285D01*
X167624285Y-52728809D01*
X167624285Y-52585952D01*
X167671904Y-52395476D01*
X167719523Y-52300238D01*
X167814761Y-52205000D01*
X167957619Y-52157380D01*
X168052857Y-52157380D01*
X168195714Y-52205000D01*
X168243333Y-52252619D01*
X169243333Y-53157380D02*
X168910000Y-52681190D01*
X168671904Y-53157380D02*
X168671904Y-52157380D01*
X169052857Y-52157380D01*
X169148095Y-52205000D01*
X169195714Y-52252619D01*
X169243333Y-52347857D01*
X169243333Y-52490714D01*
X169195714Y-52585952D01*
X169148095Y-52633571D01*
X169052857Y-52681190D01*
X168671904Y-52681190D01*
X170195714Y-53157380D02*
X169624285Y-53157380D01*
X169910000Y-53157380D02*
X169910000Y-52157380D01*
X169814761Y-52300238D01*
X169719523Y-52395476D01*
X169624285Y-52443095D01*
X168910000Y-47077380D02*
X168910000Y-47315476D01*
X168671904Y-47220238D02*
X168910000Y-47315476D01*
X169148095Y-47220238D01*
X168767142Y-47505952D02*
X168910000Y-47315476D01*
X169052857Y-47505952D01*
%TO.C,D1*%
X176194881Y-35269395D02*
X175194881Y-35269395D01*
X175194881Y-35031300D01*
X175242501Y-34888442D01*
X175337739Y-34793204D01*
X175432977Y-34745585D01*
X175623453Y-34697966D01*
X175766310Y-34697966D01*
X175956786Y-34745585D01*
X176052024Y-34793204D01*
X176147262Y-34888442D01*
X176194881Y-35031300D01*
X176194881Y-35269395D01*
X176194881Y-33745585D02*
X176194881Y-34317014D01*
X176194881Y-34031300D02*
X175194881Y-34031300D01*
X175337739Y-34126538D01*
X175432977Y-34221776D01*
X175480596Y-34317014D01*
%TO.C,D2*%
X181909881Y-34956994D02*
X180909881Y-34956994D01*
X180909881Y-34718899D01*
X180957501Y-34576041D01*
X181052739Y-34480803D01*
X181147977Y-34433184D01*
X181338453Y-34385565D01*
X181481310Y-34385565D01*
X181671786Y-34433184D01*
X181767024Y-34480803D01*
X181862262Y-34576041D01*
X181909881Y-34718899D01*
X181909881Y-34956994D01*
X181005120Y-34004613D02*
X180957501Y-33956994D01*
X180909881Y-33861756D01*
X180909881Y-33623660D01*
X180957501Y-33528422D01*
X181005120Y-33480803D01*
X181100358Y-33433184D01*
X181195596Y-33433184D01*
X181338453Y-33480803D01*
X181909881Y-34052232D01*
X181909881Y-33433184D01*
%TO.C,D3*%
X187624881Y-35028095D02*
X186624881Y-35028095D01*
X186624881Y-34790000D01*
X186672501Y-34647142D01*
X186767739Y-34551904D01*
X186862977Y-34504285D01*
X187053453Y-34456666D01*
X187196310Y-34456666D01*
X187386786Y-34504285D01*
X187482024Y-34551904D01*
X187577262Y-34647142D01*
X187624881Y-34790000D01*
X187624881Y-35028095D01*
X186624881Y-34123333D02*
X186624881Y-33504285D01*
X187005834Y-33837619D01*
X187005834Y-33694761D01*
X187053453Y-33599523D01*
X187101072Y-33551904D01*
X187196310Y-33504285D01*
X187434405Y-33504285D01*
X187529643Y-33551904D01*
X187577262Y-33599523D01*
X187624881Y-33694761D01*
X187624881Y-33980476D01*
X187577262Y-34075714D01*
X187529643Y-34123333D01*
%TO.C,J1 LSP*%
X129984761Y-17232380D02*
X129984761Y-17946666D01*
X129937142Y-18089523D01*
X129841904Y-18184761D01*
X129699047Y-18232380D01*
X129603809Y-18232380D01*
X130984761Y-18232380D02*
X130413333Y-18232380D01*
X130699047Y-18232380D02*
X130699047Y-17232380D01*
X130603809Y-17375238D01*
X130508571Y-17470476D01*
X130413333Y-17518095D01*
X132651428Y-18232380D02*
X132175238Y-18232380D01*
X132175238Y-17232380D01*
X132937142Y-18184761D02*
X133080000Y-18232380D01*
X133318095Y-18232380D01*
X133413333Y-18184761D01*
X133460952Y-18137142D01*
X133508571Y-18041904D01*
X133508571Y-17946666D01*
X133460952Y-17851428D01*
X133413333Y-17803809D01*
X133318095Y-17756190D01*
X133127619Y-17708571D01*
X133032380Y-17660952D01*
X132984761Y-17613333D01*
X132937142Y-17518095D01*
X132937142Y-17422857D01*
X132984761Y-17327619D01*
X133032380Y-17280000D01*
X133127619Y-17232380D01*
X133365714Y-17232380D01*
X133508571Y-17280000D01*
X133937142Y-18232380D02*
X133937142Y-17232380D01*
X134318095Y-17232380D01*
X134413333Y-17280000D01*
X134460952Y-17327619D01*
X134508571Y-17422857D01*
X134508571Y-17565714D01*
X134460952Y-17660952D01*
X134413333Y-17708571D01*
X134318095Y-17756190D01*
X133937142Y-17756190D01*
%TO.C,J2 Extra 24V*%
X173419047Y-17232380D02*
X173419047Y-17946666D01*
X173371428Y-18089523D01*
X173276190Y-18184761D01*
X173133333Y-18232380D01*
X173038095Y-18232380D01*
X173847619Y-17327619D02*
X173895238Y-17280000D01*
X173990476Y-17232380D01*
X174228571Y-17232380D01*
X174323809Y-17280000D01*
X174371428Y-17327619D01*
X174419047Y-17422857D01*
X174419047Y-17518095D01*
X174371428Y-17660952D01*
X173800000Y-18232380D01*
X174419047Y-18232380D01*
X175609523Y-17708571D02*
X175942857Y-17708571D01*
X176085714Y-18232380D02*
X175609523Y-18232380D01*
X175609523Y-17232380D01*
X176085714Y-17232380D01*
X176419047Y-18232380D02*
X176942857Y-17565714D01*
X176419047Y-17565714D02*
X176942857Y-18232380D01*
X177180952Y-17565714D02*
X177561904Y-17565714D01*
X177323809Y-17232380D02*
X177323809Y-18089523D01*
X177371428Y-18184761D01*
X177466666Y-18232380D01*
X177561904Y-18232380D01*
X177895238Y-18232380D02*
X177895238Y-17565714D01*
X177895238Y-17756190D02*
X177942857Y-17660952D01*
X177990476Y-17613333D01*
X178085714Y-17565714D01*
X178180952Y-17565714D01*
X178942857Y-18232380D02*
X178942857Y-17708571D01*
X178895238Y-17613333D01*
X178800000Y-17565714D01*
X178609523Y-17565714D01*
X178514285Y-17613333D01*
X178942857Y-18184761D02*
X178847619Y-18232380D01*
X178609523Y-18232380D01*
X178514285Y-18184761D01*
X178466666Y-18089523D01*
X178466666Y-17994285D01*
X178514285Y-17899047D01*
X178609523Y-17851428D01*
X178847619Y-17851428D01*
X178942857Y-17803809D01*
X180133333Y-17327619D02*
X180180952Y-17280000D01*
X180276190Y-17232380D01*
X180514285Y-17232380D01*
X180609523Y-17280000D01*
X180657142Y-17327619D01*
X180704761Y-17422857D01*
X180704761Y-17518095D01*
X180657142Y-17660952D01*
X180085714Y-18232380D01*
X180704761Y-18232380D01*
X181561904Y-17565714D02*
X181561904Y-18232380D01*
X181323809Y-17184761D02*
X181085714Y-17899047D01*
X181704761Y-17899047D01*
X181942857Y-17232380D02*
X182276190Y-18232380D01*
X182609523Y-17232380D01*
%TO.C,J3 CAN ISO*%
X151154285Y-17232380D02*
X151154285Y-17946666D01*
X151106666Y-18089523D01*
X151011428Y-18184761D01*
X150868571Y-18232380D01*
X150773333Y-18232380D01*
X151535238Y-17232380D02*
X152154285Y-17232380D01*
X151820952Y-17613333D01*
X151963809Y-17613333D01*
X152059047Y-17660952D01*
X152106666Y-17708571D01*
X152154285Y-17803809D01*
X152154285Y-18041904D01*
X152106666Y-18137142D01*
X152059047Y-18184761D01*
X151963809Y-18232380D01*
X151678095Y-18232380D01*
X151582857Y-18184761D01*
X151535238Y-18137142D01*
X153916190Y-18137142D02*
X153868571Y-18184761D01*
X153725714Y-18232380D01*
X153630476Y-18232380D01*
X153487619Y-18184761D01*
X153392380Y-18089523D01*
X153344761Y-17994285D01*
X153297142Y-17803809D01*
X153297142Y-17660952D01*
X153344761Y-17470476D01*
X153392380Y-17375238D01*
X153487619Y-17280000D01*
X153630476Y-17232380D01*
X153725714Y-17232380D01*
X153868571Y-17280000D01*
X153916190Y-17327619D01*
X154297142Y-17946666D02*
X154773333Y-17946666D01*
X154201904Y-18232380D02*
X154535238Y-17232380D01*
X154868571Y-18232380D01*
X155201904Y-18232380D02*
X155201904Y-17232380D01*
X155773333Y-18232380D01*
X155773333Y-17232380D01*
X157011428Y-18232380D02*
X157011428Y-17232380D01*
X157440000Y-18184761D02*
X157582857Y-18232380D01*
X157820952Y-18232380D01*
X157916190Y-18184761D01*
X157963809Y-18137142D01*
X158011428Y-18041904D01*
X158011428Y-17946666D01*
X157963809Y-17851428D01*
X157916190Y-17803809D01*
X157820952Y-17756190D01*
X157630476Y-17708571D01*
X157535238Y-17660952D01*
X157487619Y-17613333D01*
X157440000Y-17518095D01*
X157440000Y-17422857D01*
X157487619Y-17327619D01*
X157535238Y-17280000D01*
X157630476Y-17232380D01*
X157868571Y-17232380D01*
X158011428Y-17280000D01*
X158630476Y-17232380D02*
X158820952Y-17232380D01*
X158916190Y-17280000D01*
X159011428Y-17375238D01*
X159059047Y-17565714D01*
X159059047Y-17899047D01*
X159011428Y-18089523D01*
X158916190Y-18184761D01*
X158820952Y-18232380D01*
X158630476Y-18232380D01*
X158535238Y-18184761D01*
X158440000Y-18089523D01*
X158392380Y-17899047D01*
X158392380Y-17565714D01*
X158440000Y-17375238D01*
X158535238Y-17280000D01*
X158630476Y-17232380D01*
%TO.C,J4 Logic*%
X165584523Y-65492380D02*
X165584523Y-66206666D01*
X165536904Y-66349523D01*
X165441666Y-66444761D01*
X165298809Y-66492380D01*
X165203571Y-66492380D01*
X166489285Y-65825714D02*
X166489285Y-66492380D01*
X166251190Y-65444761D02*
X166013095Y-66159047D01*
X166632142Y-66159047D01*
X168251190Y-66492380D02*
X167775000Y-66492380D01*
X167775000Y-65492380D01*
X168727380Y-66492380D02*
X168632142Y-66444761D01*
X168584523Y-66397142D01*
X168536904Y-66301904D01*
X168536904Y-66016190D01*
X168584523Y-65920952D01*
X168632142Y-65873333D01*
X168727380Y-65825714D01*
X168870238Y-65825714D01*
X168965476Y-65873333D01*
X169013095Y-65920952D01*
X169060714Y-66016190D01*
X169060714Y-66301904D01*
X169013095Y-66397142D01*
X168965476Y-66444761D01*
X168870238Y-66492380D01*
X168727380Y-66492380D01*
X169917857Y-65825714D02*
X169917857Y-66635238D01*
X169870238Y-66730476D01*
X169822619Y-66778095D01*
X169727380Y-66825714D01*
X169584523Y-66825714D01*
X169489285Y-66778095D01*
X169917857Y-66444761D02*
X169822619Y-66492380D01*
X169632142Y-66492380D01*
X169536904Y-66444761D01*
X169489285Y-66397142D01*
X169441666Y-66301904D01*
X169441666Y-66016190D01*
X169489285Y-65920952D01*
X169536904Y-65873333D01*
X169632142Y-65825714D01*
X169822619Y-65825714D01*
X169917857Y-65873333D01*
X170394047Y-66492380D02*
X170394047Y-65825714D01*
X170394047Y-65492380D02*
X170346428Y-65540000D01*
X170394047Y-65587619D01*
X170441666Y-65540000D01*
X170394047Y-65492380D01*
X170394047Y-65587619D01*
X171298809Y-66444761D02*
X171203571Y-66492380D01*
X171013095Y-66492380D01*
X170917857Y-66444761D01*
X170870238Y-66397142D01*
X170822619Y-66301904D01*
X170822619Y-66016190D01*
X170870238Y-65920952D01*
X170917857Y-65873333D01*
X171013095Y-65825714D01*
X171203571Y-65825714D01*
X171298809Y-65873333D01*
%TO.C,J5 TSI*%
X137890476Y-45172380D02*
X137890476Y-45886666D01*
X137842857Y-46029523D01*
X137747619Y-46124761D01*
X137604761Y-46172380D01*
X137509523Y-46172380D01*
X138842857Y-45172380D02*
X138366666Y-45172380D01*
X138319047Y-45648571D01*
X138366666Y-45600952D01*
X138461904Y-45553333D01*
X138700000Y-45553333D01*
X138795238Y-45600952D01*
X138842857Y-45648571D01*
X138890476Y-45743809D01*
X138890476Y-45981904D01*
X138842857Y-46077142D01*
X138795238Y-46124761D01*
X138700000Y-46172380D01*
X138461904Y-46172380D01*
X138366666Y-46124761D01*
X138319047Y-46077142D01*
X139938095Y-45172380D02*
X140509523Y-45172380D01*
X140223809Y-46172380D02*
X140223809Y-45172380D01*
X140795238Y-46124761D02*
X140938095Y-46172380D01*
X141176190Y-46172380D01*
X141271428Y-46124761D01*
X141319047Y-46077142D01*
X141366666Y-45981904D01*
X141366666Y-45886666D01*
X141319047Y-45791428D01*
X141271428Y-45743809D01*
X141176190Y-45696190D01*
X140985714Y-45648571D01*
X140890476Y-45600952D01*
X140842857Y-45553333D01*
X140795238Y-45458095D01*
X140795238Y-45362857D01*
X140842857Y-45267619D01*
X140890476Y-45220000D01*
X140985714Y-45172380D01*
X141223809Y-45172380D01*
X141366666Y-45220000D01*
X141795238Y-46172380D02*
X141795238Y-45172380D01*
%TO.C,J6 Breakers*%
X131547619Y-65492380D02*
X131547619Y-66206666D01*
X131500000Y-66349523D01*
X131404761Y-66444761D01*
X131261904Y-66492380D01*
X131166666Y-66492380D01*
X132452380Y-65492380D02*
X132261904Y-65492380D01*
X132166666Y-65540000D01*
X132119047Y-65587619D01*
X132023809Y-65730476D01*
X131976190Y-65920952D01*
X131976190Y-66301904D01*
X132023809Y-66397142D01*
X132071428Y-66444761D01*
X132166666Y-66492380D01*
X132357142Y-66492380D01*
X132452380Y-66444761D01*
X132500000Y-66397142D01*
X132547619Y-66301904D01*
X132547619Y-66063809D01*
X132500000Y-65968571D01*
X132452380Y-65920952D01*
X132357142Y-65873333D01*
X132166666Y-65873333D01*
X132071428Y-65920952D01*
X132023809Y-65968571D01*
X131976190Y-66063809D01*
X134071428Y-65968571D02*
X134214285Y-66016190D01*
X134261904Y-66063809D01*
X134309523Y-66159047D01*
X134309523Y-66301904D01*
X134261904Y-66397142D01*
X134214285Y-66444761D01*
X134119047Y-66492380D01*
X133738095Y-66492380D01*
X133738095Y-65492380D01*
X134071428Y-65492380D01*
X134166666Y-65540000D01*
X134214285Y-65587619D01*
X134261904Y-65682857D01*
X134261904Y-65778095D01*
X134214285Y-65873333D01*
X134166666Y-65920952D01*
X134071428Y-65968571D01*
X133738095Y-65968571D01*
X134738095Y-66492380D02*
X134738095Y-65825714D01*
X134738095Y-66016190D02*
X134785714Y-65920952D01*
X134833333Y-65873333D01*
X134928571Y-65825714D01*
X135023809Y-65825714D01*
X135738095Y-66444761D02*
X135642857Y-66492380D01*
X135452380Y-66492380D01*
X135357142Y-66444761D01*
X135309523Y-66349523D01*
X135309523Y-65968571D01*
X135357142Y-65873333D01*
X135452380Y-65825714D01*
X135642857Y-65825714D01*
X135738095Y-65873333D01*
X135785714Y-65968571D01*
X135785714Y-66063809D01*
X135309523Y-66159047D01*
X136642857Y-66492380D02*
X136642857Y-65968571D01*
X136595238Y-65873333D01*
X136500000Y-65825714D01*
X136309523Y-65825714D01*
X136214285Y-65873333D01*
X136642857Y-66444761D02*
X136547619Y-66492380D01*
X136309523Y-66492380D01*
X136214285Y-66444761D01*
X136166666Y-66349523D01*
X136166666Y-66254285D01*
X136214285Y-66159047D01*
X136309523Y-66111428D01*
X136547619Y-66111428D01*
X136642857Y-66063809D01*
X137119047Y-66492380D02*
X137119047Y-65492380D01*
X137214285Y-66111428D02*
X137500000Y-66492380D01*
X137500000Y-65825714D02*
X137119047Y-66206666D01*
X138309523Y-66444761D02*
X138214285Y-66492380D01*
X138023809Y-66492380D01*
X137928571Y-66444761D01*
X137880952Y-66349523D01*
X137880952Y-65968571D01*
X137928571Y-65873333D01*
X138023809Y-65825714D01*
X138214285Y-65825714D01*
X138309523Y-65873333D01*
X138357142Y-65968571D01*
X138357142Y-66063809D01*
X137880952Y-66159047D01*
X138785714Y-66492380D02*
X138785714Y-65825714D01*
X138785714Y-66016190D02*
X138833333Y-65920952D01*
X138880952Y-65873333D01*
X138976190Y-65825714D01*
X139071428Y-65825714D01*
X139357142Y-66444761D02*
X139452380Y-66492380D01*
X139642857Y-66492380D01*
X139738095Y-66444761D01*
X139785714Y-66349523D01*
X139785714Y-66301904D01*
X139738095Y-66206666D01*
X139642857Y-66159047D01*
X139500000Y-66159047D01*
X139404761Y-66111428D01*
X139357142Y-66016190D01*
X139357142Y-65968571D01*
X139404761Y-65873333D01*
X139500000Y-65825714D01*
X139642857Y-65825714D01*
X139738095Y-65873333D01*
%TO.C,R1*%
X160383333Y-31602380D02*
X160050000Y-31126190D01*
X159811904Y-31602380D02*
X159811904Y-30602380D01*
X160192857Y-30602380D01*
X160288095Y-30650000D01*
X160335714Y-30697619D01*
X160383333Y-30792857D01*
X160383333Y-30935714D01*
X160335714Y-31030952D01*
X160288095Y-31078571D01*
X160192857Y-31126190D01*
X159811904Y-31126190D01*
X161335714Y-31602380D02*
X160764285Y-31602380D01*
X161050000Y-31602380D02*
X161050000Y-30602380D01*
X160954761Y-30745238D01*
X160859523Y-30840476D01*
X160764285Y-30888095D01*
%TO.C,R4*%
X165172380Y-42321666D02*
X164696190Y-42655000D01*
X165172380Y-42893095D02*
X164172380Y-42893095D01*
X164172380Y-42512142D01*
X164220000Y-42416904D01*
X164267619Y-42369285D01*
X164362857Y-42321666D01*
X164505714Y-42321666D01*
X164600952Y-42369285D01*
X164648571Y-42416904D01*
X164696190Y-42512142D01*
X164696190Y-42893095D01*
X164505714Y-41464523D02*
X165172380Y-41464523D01*
X164124761Y-41702619D02*
X164839047Y-41940714D01*
X164839047Y-41321666D01*
%TO.C,R5*%
X168727380Y-36996666D02*
X168251190Y-37330000D01*
X168727380Y-37568095D02*
X167727380Y-37568095D01*
X167727380Y-37187142D01*
X167775000Y-37091904D01*
X167822619Y-37044285D01*
X167917857Y-36996666D01*
X168060714Y-36996666D01*
X168155952Y-37044285D01*
X168203571Y-37091904D01*
X168251190Y-37187142D01*
X168251190Y-37568095D01*
X167727380Y-36091904D02*
X167727380Y-36568095D01*
X168203571Y-36615714D01*
X168155952Y-36568095D01*
X168108333Y-36472857D01*
X168108333Y-36234761D01*
X168155952Y-36139523D01*
X168203571Y-36091904D01*
X168298809Y-36044285D01*
X168536904Y-36044285D01*
X168632142Y-36091904D01*
X168679761Y-36139523D01*
X168727380Y-36234761D01*
X168727380Y-36472857D01*
X168679761Y-36568095D01*
X168632142Y-36615714D01*
%TO.C,R7*%
X176092380Y-39781666D02*
X175616190Y-40115000D01*
X176092380Y-40353095D02*
X175092380Y-40353095D01*
X175092380Y-39972142D01*
X175140000Y-39876904D01*
X175187619Y-39829285D01*
X175282857Y-39781666D01*
X175425714Y-39781666D01*
X175520952Y-39829285D01*
X175568571Y-39876904D01*
X175616190Y-39972142D01*
X175616190Y-40353095D01*
X175092380Y-39448333D02*
X175092380Y-38781666D01*
X176092380Y-39210238D01*
%TO.C,R8*%
X181807380Y-39781666D02*
X181331190Y-40115000D01*
X181807380Y-40353095D02*
X180807380Y-40353095D01*
X180807380Y-39972142D01*
X180855000Y-39876904D01*
X180902619Y-39829285D01*
X180997857Y-39781666D01*
X181140714Y-39781666D01*
X181235952Y-39829285D01*
X181283571Y-39876904D01*
X181331190Y-39972142D01*
X181331190Y-40353095D01*
X181235952Y-39210238D02*
X181188333Y-39305476D01*
X181140714Y-39353095D01*
X181045476Y-39400714D01*
X180997857Y-39400714D01*
X180902619Y-39353095D01*
X180855000Y-39305476D01*
X180807380Y-39210238D01*
X180807380Y-39019761D01*
X180855000Y-38924523D01*
X180902619Y-38876904D01*
X180997857Y-38829285D01*
X181045476Y-38829285D01*
X181140714Y-38876904D01*
X181188333Y-38924523D01*
X181235952Y-39019761D01*
X181235952Y-39210238D01*
X181283571Y-39305476D01*
X181331190Y-39353095D01*
X181426428Y-39400714D01*
X181616904Y-39400714D01*
X181712142Y-39353095D01*
X181759761Y-39305476D01*
X181807380Y-39210238D01*
X181807380Y-39019761D01*
X181759761Y-38924523D01*
X181712142Y-38876904D01*
X181616904Y-38829285D01*
X181426428Y-38829285D01*
X181331190Y-38876904D01*
X181283571Y-38924523D01*
X181235952Y-39019761D01*
%TO.C,R9*%
X187522380Y-39781666D02*
X187046190Y-40115000D01*
X187522380Y-40353095D02*
X186522380Y-40353095D01*
X186522380Y-39972142D01*
X186570000Y-39876904D01*
X186617619Y-39829285D01*
X186712857Y-39781666D01*
X186855714Y-39781666D01*
X186950952Y-39829285D01*
X186998571Y-39876904D01*
X187046190Y-39972142D01*
X187046190Y-40353095D01*
X187522380Y-39305476D02*
X187522380Y-39115000D01*
X187474761Y-39019761D01*
X187427142Y-38972142D01*
X187284285Y-38876904D01*
X187093809Y-38829285D01*
X186712857Y-38829285D01*
X186617619Y-38876904D01*
X186570000Y-38924523D01*
X186522380Y-39019761D01*
X186522380Y-39210238D01*
X186570000Y-39305476D01*
X186617619Y-39353095D01*
X186712857Y-39400714D01*
X186950952Y-39400714D01*
X187046190Y-39353095D01*
X187093809Y-39305476D01*
X187141428Y-39210238D01*
X187141428Y-39019761D01*
X187093809Y-38924523D01*
X187046190Y-38876904D01*
X186950952Y-38829285D01*
%TO.C,U1*%
X151638095Y-40092380D02*
X151638095Y-40901904D01*
X151685714Y-40997142D01*
X151733333Y-41044761D01*
X151828571Y-41092380D01*
X152019047Y-41092380D01*
X152114285Y-41044761D01*
X152161904Y-40997142D01*
X152209523Y-40901904D01*
X152209523Y-40092380D01*
X153209523Y-41092380D02*
X152638095Y-41092380D01*
X152923809Y-41092380D02*
X152923809Y-40092380D01*
X152828571Y-40235238D01*
X152733333Y-40330476D01*
X152638095Y-40378095D01*
%TO.C,H1*%
X123063095Y-19177380D02*
X123063095Y-18177380D01*
X123063095Y-18653571D02*
X123634523Y-18653571D01*
X123634523Y-19177380D02*
X123634523Y-18177380D01*
X124634523Y-19177380D02*
X124063095Y-19177380D01*
X124348809Y-19177380D02*
X124348809Y-18177380D01*
X124253571Y-18320238D01*
X124158333Y-18415476D01*
X124063095Y-18463095D01*
%TO.C,H2*%
X123063095Y-66802380D02*
X123063095Y-65802380D01*
X123063095Y-66278571D02*
X123634523Y-66278571D01*
X123634523Y-66802380D02*
X123634523Y-65802380D01*
X124063095Y-65897619D02*
X124110714Y-65850000D01*
X124205952Y-65802380D01*
X124444047Y-65802380D01*
X124539285Y-65850000D01*
X124586904Y-65897619D01*
X124634523Y-65992857D01*
X124634523Y-66088095D01*
X124586904Y-66230952D01*
X124015476Y-66802380D01*
X124634523Y-66802380D01*
%TO.C,H3*%
X189188095Y-19302380D02*
X189188095Y-18302380D01*
X189188095Y-18778571D02*
X189759523Y-18778571D01*
X189759523Y-19302380D02*
X189759523Y-18302380D01*
X190140476Y-18302380D02*
X190759523Y-18302380D01*
X190426190Y-18683333D01*
X190569047Y-18683333D01*
X190664285Y-18730952D01*
X190711904Y-18778571D01*
X190759523Y-18873809D01*
X190759523Y-19111904D01*
X190711904Y-19207142D01*
X190664285Y-19254761D01*
X190569047Y-19302380D01*
X190283333Y-19302380D01*
X190188095Y-19254761D01*
X190140476Y-19207142D01*
%TO.C,H4*%
X189188095Y-66752380D02*
X189188095Y-65752380D01*
X189188095Y-66228571D02*
X189759523Y-66228571D01*
X189759523Y-66752380D02*
X189759523Y-65752380D01*
X190664285Y-66085714D02*
X190664285Y-66752380D01*
X190426190Y-65704761D02*
X190188095Y-66419047D01*
X190807142Y-66419047D01*
%TD*%
M02*
