%TF.GenerationSoftware,KiCad,Pcbnew,(5.1.6)-1*%
%TF.CreationDate,2021-04-27T14:58:59-04:00*%
%TF.ProjectId,GLV_BOBV6,474c565f-424f-4425-9636-2e6b69636164,rev?*%
%TF.SameCoordinates,Original*%
%TF.FileFunction,Soldermask,Top*%
%TF.FilePolarity,Negative*%
%FSLAX46Y46*%
G04 Gerber Fmt 4.6, Leading zero omitted, Abs format (unit mm)*
G04 Created by KiCad (PCBNEW (5.1.6)-1) date 2021-04-27 14:58:59*
%MOMM*%
%LPD*%
G01*
G04 APERTURE LIST*
%ADD10R,1.649400X0.658800*%
%ADD11R,1.344600X0.963600*%
%ADD12R,2.900000X2.900000*%
%ADD13C,2.900000*%
%ADD14R,1.674800X0.379400*%
%ADD15C,5.100000*%
%ADD16C,1.900000*%
%ADD17C,3.800000*%
G04 APERTURE END LIST*
%TO.C,R3*%
G36*
G01*
X149068262Y-46100000D02*
X148111738Y-46100000D01*
G75*
G02*
X147840000Y-45828262I0J271738D01*
G01*
X147840000Y-45121738D01*
G75*
G02*
X148111738Y-44850000I271738J0D01*
G01*
X149068262Y-44850000D01*
G75*
G02*
X149340000Y-45121738I0J-271738D01*
G01*
X149340000Y-45828262D01*
G75*
G02*
X149068262Y-46100000I-271738J0D01*
G01*
G37*
G36*
G01*
X149068262Y-44050000D02*
X148111738Y-44050000D01*
G75*
G02*
X147840000Y-43778262I0J271738D01*
G01*
X147840000Y-43071738D01*
G75*
G02*
X148111738Y-42800000I271738J0D01*
G01*
X149068262Y-42800000D01*
G75*
G02*
X149340000Y-43071738I0J-271738D01*
G01*
X149340000Y-43778262D01*
G75*
G02*
X149068262Y-44050000I-271738J0D01*
G01*
G37*
%TD*%
%TO.C,R2*%
G36*
G01*
X155418262Y-42535000D02*
X154461738Y-42535000D01*
G75*
G02*
X154190000Y-42263262I0J271738D01*
G01*
X154190000Y-41556738D01*
G75*
G02*
X154461738Y-41285000I271738J0D01*
G01*
X155418262Y-41285000D01*
G75*
G02*
X155690000Y-41556738I0J-271738D01*
G01*
X155690000Y-42263262D01*
G75*
G02*
X155418262Y-42535000I-271738J0D01*
G01*
G37*
G36*
G01*
X155418262Y-44585000D02*
X154461738Y-44585000D01*
G75*
G02*
X154190000Y-44313262I0J271738D01*
G01*
X154190000Y-43606738D01*
G75*
G02*
X154461738Y-43335000I271738J0D01*
G01*
X155418262Y-43335000D01*
G75*
G02*
X155690000Y-43606738I0J-271738D01*
G01*
X155690000Y-44313262D01*
G75*
G02*
X155418262Y-44585000I-271738J0D01*
G01*
G37*
%TD*%
%TO.C,C1*%
G36*
G01*
X147798262Y-39750000D02*
X146841738Y-39750000D01*
G75*
G02*
X146570000Y-39478262I0J271738D01*
G01*
X146570000Y-38771738D01*
G75*
G02*
X146841738Y-38500000I271738J0D01*
G01*
X147798262Y-38500000D01*
G75*
G02*
X148070000Y-38771738I0J-271738D01*
G01*
X148070000Y-39478262D01*
G75*
G02*
X147798262Y-39750000I-271738J0D01*
G01*
G37*
G36*
G01*
X147798262Y-37700000D02*
X146841738Y-37700000D01*
G75*
G02*
X146570000Y-37428262I0J271738D01*
G01*
X146570000Y-36721738D01*
G75*
G02*
X146841738Y-36450000I271738J0D01*
G01*
X147798262Y-36450000D01*
G75*
G02*
X148070000Y-36721738I0J-271738D01*
G01*
X148070000Y-37428262D01*
G75*
G02*
X147798262Y-37700000I-271738J0D01*
G01*
G37*
%TD*%
%TO.C,C2*%
G36*
G01*
X162081738Y-50320000D02*
X163038262Y-50320000D01*
G75*
G02*
X163310000Y-50591738I0J-271738D01*
G01*
X163310000Y-51298262D01*
G75*
G02*
X163038262Y-51570000I-271738J0D01*
G01*
X162081738Y-51570000D01*
G75*
G02*
X161810000Y-51298262I0J271738D01*
G01*
X161810000Y-50591738D01*
G75*
G02*
X162081738Y-50320000I271738J0D01*
G01*
G37*
G36*
G01*
X162081738Y-48270000D02*
X163038262Y-48270000D01*
G75*
G02*
X163310000Y-48541738I0J-271738D01*
G01*
X163310000Y-49248262D01*
G75*
G02*
X163038262Y-49520000I-271738J0D01*
G01*
X162081738Y-49520000D01*
G75*
G02*
X161810000Y-49248262I0J271738D01*
G01*
X161810000Y-48541738D01*
G75*
G02*
X162081738Y-48270000I271738J0D01*
G01*
G37*
%TD*%
%TO.C,C3*%
G36*
G01*
X180818262Y-50935000D02*
X179861738Y-50935000D01*
G75*
G02*
X179590000Y-50663262I0J271738D01*
G01*
X179590000Y-49956738D01*
G75*
G02*
X179861738Y-49685000I271738J0D01*
G01*
X180818262Y-49685000D01*
G75*
G02*
X181090000Y-49956738I0J-271738D01*
G01*
X181090000Y-50663262D01*
G75*
G02*
X180818262Y-50935000I-271738J0D01*
G01*
G37*
G36*
G01*
X180818262Y-48885000D02*
X179861738Y-48885000D01*
G75*
G02*
X179590000Y-48613262I0J271738D01*
G01*
X179590000Y-47906738D01*
G75*
G02*
X179861738Y-47635000I271738J0D01*
G01*
X180818262Y-47635000D01*
G75*
G02*
X181090000Y-47906738I0J-271738D01*
G01*
X181090000Y-48613262D01*
G75*
G02*
X180818262Y-48885000I-271738J0D01*
G01*
G37*
%TD*%
D10*
%TO.C,CR1*%
X166230300Y-47625000D03*
X166230300Y-48895000D03*
X166230300Y-50165000D03*
X166230300Y-51435000D03*
X171589700Y-51435000D03*
X171589700Y-50165000D03*
X171589700Y-48895000D03*
X171589700Y-47625000D03*
%TD*%
D11*
%TO.C,D2 5V*%
X179705000Y-35318700D03*
X179705000Y-33261300D03*
%TD*%
%TO.C,D3 24V*%
X185420000Y-33261300D03*
X185420000Y-35318700D03*
%TD*%
D12*
%TO.C,J2 Extra 24V*%
X177800000Y-21590000D03*
D13*
X177800000Y-27090000D03*
%TD*%
%TO.C,J3 CAN ISO*%
X154940000Y-27090000D03*
D12*
X154940000Y-21590000D03*
%TD*%
D13*
%TO.C,J4 Logic*%
X170600000Y-58030000D03*
X170600000Y-62230000D03*
X165100000Y-58030000D03*
D12*
X165100000Y-62230000D03*
%TD*%
%TO.C,J5 TSI*%
X132800000Y-39600000D03*
D13*
X132800000Y-43800000D03*
X127300000Y-39600000D03*
X127300000Y-43800000D03*
%TD*%
%TO.C,R1*%
G36*
G01*
X159095000Y-31912544D02*
X159095000Y-34127456D01*
G75*
G02*
X158827456Y-34395000I-267544J0D01*
G01*
X157837544Y-34395000D01*
G75*
G02*
X157570000Y-34127456I0J267544D01*
G01*
X157570000Y-31912544D01*
G75*
G02*
X157837544Y-31645000I267544J0D01*
G01*
X158827456Y-31645000D01*
G75*
G02*
X159095000Y-31912544I0J-267544D01*
G01*
G37*
G36*
G01*
X156120000Y-31912544D02*
X156120000Y-34127456D01*
G75*
G02*
X155852456Y-34395000I-267544J0D01*
G01*
X154862544Y-34395000D01*
G75*
G02*
X154595000Y-34127456I0J267544D01*
G01*
X154595000Y-31912544D01*
G75*
G02*
X154862544Y-31645000I267544J0D01*
G01*
X155852456Y-31645000D01*
G75*
G02*
X156120000Y-31912544I0J-267544D01*
G01*
G37*
%TD*%
%TO.C,R8*%
G36*
G01*
X179226738Y-37965000D02*
X180183262Y-37965000D01*
G75*
G02*
X180455000Y-38236738I0J-271738D01*
G01*
X180455000Y-38943262D01*
G75*
G02*
X180183262Y-39215000I-271738J0D01*
G01*
X179226738Y-39215000D01*
G75*
G02*
X178955000Y-38943262I0J271738D01*
G01*
X178955000Y-38236738D01*
G75*
G02*
X179226738Y-37965000I271738J0D01*
G01*
G37*
G36*
G01*
X179226738Y-40015000D02*
X180183262Y-40015000D01*
G75*
G02*
X180455000Y-40286738I0J-271738D01*
G01*
X180455000Y-40993262D01*
G75*
G02*
X180183262Y-41265000I-271738J0D01*
G01*
X179226738Y-41265000D01*
G75*
G02*
X178955000Y-40993262I0J271738D01*
G01*
X178955000Y-40286738D01*
G75*
G02*
X179226738Y-40015000I271738J0D01*
G01*
G37*
%TD*%
%TO.C,R9*%
G36*
G01*
X184941738Y-40015000D02*
X185898262Y-40015000D01*
G75*
G02*
X186170000Y-40286738I0J-271738D01*
G01*
X186170000Y-40993262D01*
G75*
G02*
X185898262Y-41265000I-271738J0D01*
G01*
X184941738Y-41265000D01*
G75*
G02*
X184670000Y-40993262I0J271738D01*
G01*
X184670000Y-40286738D01*
G75*
G02*
X184941738Y-40015000I271738J0D01*
G01*
G37*
G36*
G01*
X184941738Y-37965000D02*
X185898262Y-37965000D01*
G75*
G02*
X186170000Y-38236738I0J-271738D01*
G01*
X186170000Y-38943262D01*
G75*
G02*
X185898262Y-39215000I-271738J0D01*
G01*
X184941738Y-39215000D01*
G75*
G02*
X184670000Y-38943262I0J271738D01*
G01*
X184670000Y-38236738D01*
G75*
G02*
X184941738Y-37965000I271738J0D01*
G01*
G37*
%TD*%
D14*
%TO.C,U1*%
X150304500Y-37099999D03*
X150304500Y-37600001D03*
X150304500Y-38100000D03*
X150304500Y-38599999D03*
X150304500Y-39100001D03*
X154495500Y-39100001D03*
X154495500Y-38599999D03*
X154495500Y-38100000D03*
X154495500Y-37600001D03*
X154495500Y-37099999D03*
%TD*%
D15*
%TO.C,H1*%
X123825000Y-22225000D03*
%TD*%
%TO.C,H2*%
X123825000Y-69850000D03*
%TD*%
%TO.C,H3*%
X189950000Y-22350000D03*
%TD*%
%TO.C,H4*%
X189950000Y-69800000D03*
%TD*%
D16*
%TO.C,J1 LSP*%
X135560000Y-30060000D03*
D17*
X132080000Y-27290000D03*
G36*
G01*
X130180000Y-23233242D02*
X130180000Y-19946758D01*
G75*
G02*
X130436758Y-19690000I256758J0D01*
G01*
X133723242Y-19690000D01*
G75*
G02*
X133980000Y-19946758I0J-256758D01*
G01*
X133980000Y-23233242D01*
G75*
G02*
X133723242Y-23490000I-256758J0D01*
G01*
X130436758Y-23490000D01*
G75*
G02*
X130180000Y-23233242I0J256758D01*
G01*
G37*
%TD*%
D16*
%TO.C,J6 Breakers*%
X125820000Y-54395000D03*
D17*
X128300000Y-57165000D03*
X134000000Y-57165000D03*
X139700000Y-57165000D03*
X128300000Y-62865000D03*
X134000000Y-62865000D03*
G36*
G01*
X141600000Y-61221758D02*
X141600000Y-64508242D01*
G75*
G02*
X141343242Y-64765000I-256758J0D01*
G01*
X138056758Y-64765000D01*
G75*
G02*
X137800000Y-64508242I0J256758D01*
G01*
X137800000Y-61221758D01*
G75*
G02*
X138056758Y-60965000I256758J0D01*
G01*
X141343242Y-60965000D01*
G75*
G02*
X141600000Y-61221758I0J-256758D01*
G01*
G37*
%TD*%
M02*
