M48
; DRILL file {KiCad (5.1.6)-1} date 02/09/21 17:38:29
; FORMAT={-:-/ absolute / inch / decimal}
; #@! TF.CreationDate,2021-02-09T17:38:29-05:00
; #@! TF.GenerationSoftware,Kicad,Pcbnew,(5.1.6)-1
; #@! TF.FileFunction,Plated,1,2,PTH
FMAT,2
INCH
T1C0.0157
T2C0.0551
T3C0.0984
%
G90
G05
T1
X5.95Y-1.75
X5.95Y-2.3
X5.95Y-2.3
X6.0Y-1.7
X6.05Y-2.45
X6.185Y-1.6181
X6.3835Y-2.1665
X6.4Y-1.825
X6.4331Y-1.6201
X6.54Y-1.3
X6.85Y-1.8285
X7.3Y-1.825
T2
X5.2Y-1.45
X5.2Y-1.6665
X5.3654Y-1.45
X5.3654Y-1.6665
X7.0Y-0.85
X7.0Y-1.0665
X5.2Y-0.85
X5.2Y-1.0665
X6.5Y-2.2846
X6.5Y-2.45
X6.7165Y-2.2846
X6.7165Y-2.45
X6.1Y-0.85
X6.1Y-1.0665
X5.1693Y-2.2585
X5.1693Y-2.475
X5.3346Y-2.2585
X5.3346Y-2.475
X5.5Y-2.2585
X5.5Y-2.475
T3
X7.4783Y-0.8799
X4.875Y-2.75
X4.875Y-0.875
X7.4783Y-2.748
T0
M30
