M48
; DRILL file {KiCad (5.1.6)-1} date 02/04/21 22:42:54
; FORMAT={-:-/ absolute / inch / decimal}
; #@! TF.CreationDate,2021-02-04T22:42:54-05:00
; #@! TF.GenerationSoftware,Kicad,Pcbnew,(5.1.6)-1
; #@! TF.FileFunction,Plated,1,2,PTH
FMAT,2
INCH
T1C0.0157
T2C0.0551
T3C0.0984
%
G90
G05
T1
X5.5Y-2.05
X5.95Y-1.75
X5.95Y-2.3
X5.95Y-2.3
X6.0Y-1.7
X6.05Y-2.45
X6.4Y-1.825
X6.54Y-1.3
X6.85Y-1.8285
X7.3Y-1.825
T2
X6.1Y-0.85
X6.1Y-1.0665
X7.0Y-0.85
X7.0Y-1.0665
X6.5Y-2.2846
X6.5Y-2.45
X6.7165Y-2.2846
X6.7165Y-2.45
X5.1693Y-2.2585
X5.1693Y-2.475
X5.3346Y-2.2585
X5.3346Y-2.475
X5.5Y-2.2585
X5.5Y-2.475
X5.2Y-0.85
X5.2Y-1.0665
X5.2Y-1.45
X5.2Y-1.6665
X5.3654Y-1.45
X5.3654Y-1.6665
T3
X7.8Y-2.75
X4.875Y-2.75
X7.8Y-0.875
X4.875Y-0.875
T0
M30
