%TF.GenerationSoftware,KiCad,Pcbnew,(5.1.6)-1*%
%TF.CreationDate,2021-04-27T14:58:59-04:00*%
%TF.ProjectId,GLV_BOBV6,474c565f-424f-4425-9636-2e6b69636164,rev?*%
%TF.SameCoordinates,Original*%
%TF.FileFunction,Soldermask,Bot*%
%TF.FilePolarity,Negative*%
%FSLAX46Y46*%
G04 Gerber Fmt 4.6, Leading zero omitted, Abs format (unit mm)*
G04 Created by KiCad (PCBNEW (5.1.6)-1) date 2021-04-27 14:58:59*
%MOMM*%
%LPD*%
G01*
G04 APERTURE LIST*
%ADD10R,2.900000X2.900000*%
%ADD11C,2.900000*%
%ADD12C,5.100000*%
%ADD13C,1.900000*%
%ADD14C,3.800000*%
G04 APERTURE END LIST*
D10*
%TO.C,J2 Extra 24V*%
X177800000Y-21590000D03*
D11*
X177800000Y-27090000D03*
%TD*%
%TO.C,J3 CAN ISO*%
X154940000Y-27090000D03*
D10*
X154940000Y-21590000D03*
%TD*%
D11*
%TO.C,J4 Logic*%
X170600000Y-58030000D03*
X170600000Y-62230000D03*
X165100000Y-58030000D03*
D10*
X165100000Y-62230000D03*
%TD*%
%TO.C,J5 TSI*%
X132800000Y-39600000D03*
D11*
X132800000Y-43800000D03*
X127300000Y-39600000D03*
X127300000Y-43800000D03*
%TD*%
D12*
%TO.C,H1*%
X123825000Y-22225000D03*
%TD*%
%TO.C,H2*%
X123825000Y-69850000D03*
%TD*%
%TO.C,H3*%
X189950000Y-22350000D03*
%TD*%
%TO.C,H4*%
X189950000Y-69800000D03*
%TD*%
D13*
%TO.C,J1 LSP*%
X135560000Y-30060000D03*
D14*
X132080000Y-27290000D03*
G36*
G01*
X130180000Y-23233242D02*
X130180000Y-19946758D01*
G75*
G02*
X130436758Y-19690000I256758J0D01*
G01*
X133723242Y-19690000D01*
G75*
G02*
X133980000Y-19946758I0J-256758D01*
G01*
X133980000Y-23233242D01*
G75*
G02*
X133723242Y-23490000I-256758J0D01*
G01*
X130436758Y-23490000D01*
G75*
G02*
X130180000Y-23233242I0J256758D01*
G01*
G37*
%TD*%
D13*
%TO.C,J6 Breakers*%
X125820000Y-54395000D03*
D14*
X128300000Y-57165000D03*
X134000000Y-57165000D03*
X139700000Y-57165000D03*
X128300000Y-62865000D03*
X134000000Y-62865000D03*
G36*
G01*
X141600000Y-61221758D02*
X141600000Y-64508242D01*
G75*
G02*
X141343242Y-64765000I-256758J0D01*
G01*
X138056758Y-64765000D01*
G75*
G02*
X137800000Y-64508242I0J256758D01*
G01*
X137800000Y-61221758D01*
G75*
G02*
X138056758Y-60965000I256758J0D01*
G01*
X141343242Y-60965000D01*
G75*
G02*
X141600000Y-61221758I0J-256758D01*
G01*
G37*
%TD*%
M02*
