%TF.GenerationSoftware,KiCad,Pcbnew,(5.1.9)-1*%
%TF.CreationDate,2022-03-11T17:21:43-05:00*%
%TF.ProjectId,TSI_Rev.7,5453495f-5265-4762-9e37-2e6b69636164,rev?*%
%TF.SameCoordinates,Original*%
%TF.FileFunction,Soldermask,Bot*%
%TF.FilePolarity,Negative*%
%FSLAX46Y46*%
G04 Gerber Fmt 4.6, Leading zero omitted, Abs format (unit mm)*
G04 Created by KiCad (PCBNEW (5.1.9)-1) date 2022-03-11 17:21:43*
%MOMM*%
%LPD*%
G01*
G04 APERTURE LIST*
%ADD10C,2.400000*%
%ADD11C,3.226000*%
%ADD12R,2.400000X2.400000*%
%ADD13C,2.000000*%
%ADD14R,2.000000X2.000000*%
%ADD15O,1.700000X1.700000*%
%ADD16R,1.700000X1.700000*%
%ADD17C,2.800000*%
%ADD18R,2.800000X2.800000*%
%ADD19C,1.778000*%
%ADD20R,1.778000X1.778000*%
%ADD21R,2.200000X2.200000*%
%ADD22O,2.200000X2.200000*%
%ADD23C,5.500000*%
%ADD24C,1.808000*%
%ADD25C,7.000000*%
%ADD26C,1.905000*%
%ADD27C,1.600000*%
%ADD28R,1.600000X1.600000*%
%ADD29C,1.508000*%
%ADD30R,1.508000X1.508000*%
%ADD31C,1.800000*%
%ADD32C,1.440000*%
%ADD33C,3.700000*%
G04 APERTURE END LIST*
D10*
%TO.C,PS2*%
X189230000Y-69748400D03*
D11*
X138430000Y-69748400D03*
D10*
X189230000Y-77368400D03*
D12*
X189230000Y-84988400D03*
D11*
X138430000Y-84988400D03*
D10*
X138430000Y-77368400D03*
X138430000Y-81178400D03*
%TD*%
D13*
%TO.C,PS1*%
X126888000Y-157007000D03*
X126888000Y-177307000D03*
X116688000Y-177307000D03*
X106488000Y-177307000D03*
X119288000Y-157007000D03*
D14*
X114188000Y-157007000D03*
%TD*%
D15*
%TO.C,JP12*%
X157353000Y-107315000D03*
D16*
X157353000Y-104775000D03*
%TD*%
D17*
%TO.C,J20*%
X298235000Y-108440000D03*
X298235000Y-112640000D03*
X298235000Y-116840000D03*
X292735000Y-108440000D03*
X292735000Y-112640000D03*
D18*
X292735000Y-116840000D03*
%TD*%
D14*
%TO.C,U38*%
X278120000Y-132755000D03*
D13*
X278120000Y-137855000D03*
X257820000Y-125055000D03*
X257820000Y-135255000D03*
X257820000Y-145455000D03*
X278120000Y-145455000D03*
%TD*%
D18*
%TO.C,J11*%
X292735000Y-140335000D03*
D17*
X292735000Y-136135000D03*
X298235000Y-140335000D03*
X298235000Y-136135000D03*
%TD*%
D16*
%TO.C,JP3*%
X286156400Y-91744800D03*
D15*
X286156400Y-94284800D03*
%TD*%
D19*
%TO.C,U1*%
X285598000Y-153949000D03*
X270358000Y-153949000D03*
X270358000Y-179095000D03*
X270358000Y-181635000D03*
D20*
X285598000Y-181635000D03*
%TD*%
D10*
%TO.C,C14*%
X294640000Y-182880000D03*
X294640000Y-197880000D03*
%TD*%
D21*
%TO.C,D8*%
X127635000Y-193040000D03*
D22*
X120015000Y-193040000D03*
%TD*%
D21*
%TO.C,D12*%
X218440000Y-207010000D03*
D22*
X218440000Y-214630000D03*
%TD*%
%TO.C,D13*%
X121920000Y-212725000D03*
D21*
X121920000Y-205105000D03*
%TD*%
D23*
%TO.C,J1*%
X280010000Y-207430000D03*
X280010000Y-200660000D03*
X280010000Y-193890000D03*
%TD*%
D17*
%TO.C,J7*%
X105447000Y-149125000D03*
X105447000Y-144925000D03*
X105447000Y-140725000D03*
X105447000Y-136525000D03*
X110947000Y-149125000D03*
X110947000Y-144925000D03*
X110947000Y-140725000D03*
D18*
X110947000Y-136525000D03*
%TD*%
D17*
%TO.C,J9*%
X298235000Y-96765000D03*
X298235000Y-100965000D03*
X292735000Y-96765000D03*
D18*
X292735000Y-100965000D03*
%TD*%
%TO.C,J12*%
X110947000Y-116459000D03*
D17*
X110947000Y-120659000D03*
X110947000Y-124859000D03*
X110947000Y-129059000D03*
X105447000Y-116459000D03*
X105447000Y-120659000D03*
X105447000Y-124859000D03*
X105447000Y-129059000D03*
%TD*%
%TO.C,J13*%
X298235000Y-68825000D03*
X298235000Y-73025000D03*
X292735000Y-68825000D03*
D18*
X292735000Y-73025000D03*
%TD*%
%TO.C,J14*%
X292735000Y-128905000D03*
D17*
X292735000Y-124705000D03*
X298235000Y-128905000D03*
X298235000Y-124705000D03*
%TD*%
D18*
%TO.C,J16*%
X292735000Y-159385000D03*
D17*
X298235000Y-159385000D03*
%TD*%
D18*
%TO.C,J17*%
X110947000Y-100584000D03*
D17*
X110947000Y-104784000D03*
X110947000Y-108984000D03*
X105447000Y-100584000D03*
X105447000Y-104784000D03*
X105447000Y-108984000D03*
%TD*%
%TO.C,J18*%
X105447000Y-93608000D03*
X105447000Y-89408000D03*
X110947000Y-93608000D03*
D18*
X110947000Y-89408000D03*
%TD*%
%TO.C,J19*%
X110947000Y-78232000D03*
D17*
X110947000Y-82432000D03*
X105447000Y-78232000D03*
X105447000Y-82432000D03*
%TD*%
D18*
%TO.C,J5*%
X210185000Y-207645000D03*
D17*
X210185000Y-213145000D03*
%TD*%
D15*
%TO.C,JP4*%
X249555000Y-214630000D03*
D16*
X249555000Y-212090000D03*
%TD*%
%TO.C,JP5*%
X136525000Y-210820000D03*
D15*
X136525000Y-208280000D03*
%TD*%
D24*
%TO.C,K2*%
X134620000Y-130799998D03*
X140619999Y-128799996D03*
X140619999Y-117500001D03*
X128620001Y-117500001D03*
X128620001Y-128799996D03*
%TD*%
D25*
%TO.C,U14*%
X107915000Y-210207000D03*
%TD*%
%TO.C,U15*%
X107915000Y-60607000D03*
%TD*%
%TO.C,U17*%
X295615000Y-60607000D03*
%TD*%
%TO.C,U2*%
X295615000Y-210207000D03*
%TD*%
D26*
%TO.C,K3*%
X165735000Y-115176300D03*
X165735000Y-129146300D03*
X165735000Y-134239000D03*
X165735000Y-145669000D03*
X165735000Y-150749000D03*
X155575000Y-150749000D03*
X155575000Y-145669000D03*
X155575000Y-134239000D03*
X155575000Y-129146300D03*
X155575000Y-115176300D03*
%TD*%
%TO.C,K4*%
X186055000Y-151523700D03*
X186055000Y-137553700D03*
X186055000Y-132461000D03*
X186055000Y-121031000D03*
X186055000Y-115951000D03*
X175895000Y-115951000D03*
X175895000Y-121031000D03*
X175895000Y-132461000D03*
X175895000Y-137553700D03*
X175895000Y-151523700D03*
%TD*%
D17*
%TO.C,J8*%
X298235000Y-81135000D03*
X298235000Y-85335000D03*
X298235000Y-89535000D03*
X292735000Y-81135000D03*
X292735000Y-85335000D03*
D18*
X292735000Y-89535000D03*
%TD*%
D17*
%TO.C,J2*%
X156110000Y-211799000D03*
X151910000Y-211799000D03*
X147710000Y-211799000D03*
X143510000Y-211799000D03*
X156110000Y-206299000D03*
X151910000Y-206299000D03*
X147710000Y-206299000D03*
D18*
X143510000Y-206299000D03*
%TD*%
D17*
%TO.C,J4*%
X129134000Y-210757000D03*
D18*
X129134000Y-205257000D03*
%TD*%
%TO.C,J21*%
X292735000Y-151765000D03*
D17*
X292735000Y-147565000D03*
X298235000Y-151765000D03*
X298235000Y-147565000D03*
%TD*%
D27*
%TO.C,C13*%
X200406000Y-64064000D03*
D28*
X200406000Y-67564000D03*
%TD*%
D29*
%TO.C,K1*%
X121920000Y-188595000D03*
D30*
X124460000Y-188595000D03*
D31*
X106680000Y-188595000D03*
X111760000Y-188595000D03*
%TD*%
D16*
%TO.C,JP6*%
X265430000Y-212090000D03*
D15*
X267970000Y-212090000D03*
%TD*%
%TO.C,JP7*%
X267970000Y-204927200D03*
D16*
X265430000Y-204927200D03*
%TD*%
D15*
%TO.C,JP8*%
X267970000Y-197967600D03*
D16*
X265430000Y-197967600D03*
%TD*%
D15*
%TO.C,JP11*%
X153035000Y-107315000D03*
D16*
X153035000Y-104775000D03*
%TD*%
D32*
%TO.C,RV1*%
X203708000Y-198755000D03*
X203708000Y-201295000D03*
X203708000Y-203835000D03*
%TD*%
D15*
%TO.C,JP10*%
X149225000Y-107315000D03*
D16*
X149225000Y-104775000D03*
%TD*%
D15*
%TO.C,JP13*%
X161290000Y-107315000D03*
D16*
X161290000Y-104775000D03*
%TD*%
D15*
%TO.C,JP15*%
X169418000Y-107315000D03*
X169418000Y-104775000D03*
D16*
X169418000Y-102235000D03*
%TD*%
D17*
%TO.C,J3*%
X168284000Y-211748000D03*
X164084000Y-211748000D03*
X168284000Y-206248000D03*
D18*
X164084000Y-206248000D03*
%TD*%
D13*
%TO.C,SW2*%
X173759000Y-156083000D03*
X173759000Y-160583000D03*
X167259000Y-156083000D03*
X167259000Y-160583000D03*
%TD*%
%TO.C,SW3*%
X178308000Y-160583000D03*
X178308000Y-156083000D03*
X184808000Y-160583000D03*
X184808000Y-156083000D03*
%TD*%
%TO.C,SW4*%
X123571000Y-65079000D03*
X123571000Y-60579000D03*
X130071000Y-65079000D03*
X130071000Y-60579000D03*
%TD*%
D16*
%TO.C,JP14*%
X165354000Y-104775000D03*
D15*
X165354000Y-107315000D03*
%TD*%
D16*
%TO.C,JP2*%
X164465000Y-194818000D03*
D15*
X164465000Y-197358000D03*
X164465000Y-199898000D03*
%TD*%
D31*
%TO.C,J10*%
X103925000Y-73330000D03*
D33*
X106695000Y-69850000D03*
G36*
G01*
X110795000Y-68000000D02*
X113995000Y-68000000D01*
G75*
G02*
X114245000Y-68250000I0J-250000D01*
G01*
X114245000Y-71450000D01*
G75*
G02*
X113995000Y-71700000I-250000J0D01*
G01*
X110795000Y-71700000D01*
G75*
G02*
X110545000Y-71450000I0J250000D01*
G01*
X110545000Y-68250000D01*
G75*
G02*
X110795000Y-68000000I250000J0D01*
G01*
G37*
%TD*%
D17*
%TO.C,J25*%
X208702800Y-58877200D03*
X212902800Y-58877200D03*
X208702800Y-64377200D03*
D18*
X212902800Y-64377200D03*
%TD*%
D16*
%TO.C,J15*%
X286664400Y-64008000D03*
D15*
X286664400Y-66548000D03*
X284124400Y-64008000D03*
X284124400Y-66548000D03*
X281584400Y-64008000D03*
X281584400Y-66548000D03*
X279044400Y-64008000D03*
X279044400Y-66548000D03*
X276504400Y-64008000D03*
X276504400Y-66548000D03*
%TD*%
D16*
%TO.C,J22*%
X269240000Y-63703200D03*
D15*
X266700000Y-63703200D03*
X264160000Y-63703200D03*
X261620000Y-63703200D03*
%TD*%
%TO.C,J23*%
X259689600Y-115062000D03*
X259689600Y-112522000D03*
X259689600Y-109982000D03*
X259689600Y-107442000D03*
D16*
X259689600Y-104902000D03*
%TD*%
%TO.C,J24*%
X226110800Y-56743600D03*
D15*
X223570800Y-56743600D03*
X221030800Y-56743600D03*
%TD*%
D16*
%TO.C,J29*%
X141681200Y-189636400D03*
D15*
X139141200Y-189636400D03*
X136601200Y-189636400D03*
X134061200Y-189636400D03*
X131521200Y-189636400D03*
%TD*%
D16*
%TO.C,JP9*%
X201295000Y-90805000D03*
D15*
X203835000Y-90805000D03*
%TD*%
D16*
%TO.C,J27*%
X200964800Y-77139800D03*
D15*
X200964800Y-79679800D03*
%TD*%
D16*
%TO.C,J28*%
X208127600Y-116332000D03*
D15*
X210667600Y-116332000D03*
X213207600Y-116332000D03*
%TD*%
M02*
