M48
; DRILL file {KiCad (5.1.9)-1} date 03/11/22 17:22:21
; FORMAT={-:-/ absolute / inch / decimal}
; #@! TF.CreationDate,2022-03-11T17:22:21-05:00
; #@! TF.GenerationSoftware,Kicad,Pcbnew,(5.1.9)-1
FMAT,2
INCH
T1C0.0157
T2C0.0300
T3C0.0315
T4C0.0394
T5C0.0433
T6C0.0472
T7C0.0512
T8C0.0550
T9C0.0551
T10C0.0591
T11C0.0709
T12C0.0886
T13C0.1319
T14C0.1378
T15C0.0709
%
G90
G05
T1
X4.58Y-2.581
X4.635Y-2.615
X4.64Y-3.32
X4.6425Y-6.0058
X4.6845Y-4.9758
X4.693Y-3.573
X4.7128Y-4.6959
X4.8Y-3.58
X4.82Y-3.42
X4.856Y-5.234
X4.875Y-3.57
X4.88Y-3.76
X4.9517Y-2.8967
X4.9735Y-3.2021
X4.9876Y-3.6924
X4.99Y-3.92
X5.0629Y-5.6839
X5.1Y-3.419
X5.17Y-3.76
X5.171Y-5.495
X5.182Y-3.2
X5.235Y-7.6943
X5.278Y-2.846
X5.3066Y-6.4678
X5.3325Y-8.105
X5.3355Y-6.9108
X5.4Y-6.0144
X5.425Y-8.1075
X5.456Y-6.822
X5.4661Y-5.4417
X5.485Y-7.548
X5.519Y-7.65
X5.5271Y-6.9331
X5.5396Y-6.3491
X5.548Y-5.362
X5.565Y-4.32
X5.582Y-7.774
X5.612Y-3.582
X5.63Y-6.384
X5.6327Y-5.2754
X5.638Y-6.098
X5.653Y-7.719
X5.673Y-6.315
X5.676Y-5.974
X5.6775Y-4.0475
X5.699Y-6.105
X5.712Y-6.76
X5.72Y-7.25
X5.7324Y-7.4339
X5.745Y-6.28
X5.75Y-4.006
X5.762Y-7.585
X5.802Y-3.588
X5.822Y-3.968
X5.828Y-6.054
X5.874Y-3.586
X5.876Y-7.154
X5.877Y-5.557
X5.8898Y-7.0677
X5.9Y-7.314
X5.9031Y-6.1967
X5.9049Y-5.7829
X5.909Y-7.622
X5.9501Y-6.2295
X5.953Y-5.58
X5.961Y-5.677
X6.003Y-4.902
X6.0319Y-5.6779
X6.1Y-4.235
X6.1002Y-3.8002
X6.125Y-5.86
X6.1436Y-6.0725
X6.145Y-6.25
X6.187Y-3.429
X6.191Y-7.133
X6.1969Y-6.128
X6.205Y-5.98
X6.239Y-6.9486
X6.241Y-6.814
X6.302Y-6.972
X6.323Y-7.127
X6.325Y-5.93
X6.344Y-7.594
X6.3708Y-7.1595
X6.378Y-7.224
X6.422Y-7.176
X6.424Y-4.332
X6.425Y-6.195
X6.449Y-6.991
X6.4637Y-6.0737
X6.464Y-7.378
X6.47Y-7.126
X6.524Y-6.948
X6.5309Y-7.3274
X6.575Y-7.65
X6.6409Y-7.1681
X6.6481Y-7.2142
X6.655Y-7.815
X6.712Y-7.362
X6.75Y-7.865
X6.7732Y-7.4482
X6.7743Y-4.6513
X6.82Y-7.715
X6.845Y-7.355
X6.9583Y-7.2678
X6.9838Y-3.9957
X6.9845Y-7.5951
X6.998Y-7.102
X7.003Y-7.02
X7.075Y-7.65
X7.16Y-4.73
X7.16Y-5.945
X7.2207Y-7.756
X7.26Y-7.755
X7.4572Y-7.1113
X7.4624Y-8.4465
X7.4656Y-4.0424
X7.4837Y-4.5018
X7.4905Y-7.7263
X7.4935Y-3.7401
X7.555Y-7.845
X7.57Y-8.265
X7.595Y-8.115
X7.6442Y-5.8844
X7.6822Y-5.2351
X7.702Y-4.564
X7.706Y-3.574
X7.7173Y-8.4436
X7.76Y-8.18
X7.778Y-4.762
X7.7817Y-5.8837
X7.803Y-3.408
X7.825Y-2.9
X7.854Y-5.2242
X7.88Y-3.7515
X7.9043Y-5.4757
X7.927Y-4.3448
X7.9522Y-5.2728
X7.9639Y-5.8493
X7.983Y-3.299
X8.011Y-5.3299
X8.0112Y-5.3888
X8.044Y-2.43
X8.0703Y-5.274
X8.103Y-3.032
X8.1057Y-5.4735
X8.116Y-5.752
X8.118Y-3.157
X8.132Y-7.508
X8.135Y-4.211
X8.1469Y-7.9926
X8.172Y-7.199
X8.1834Y-3.5516
X8.202Y-5.379
X8.203Y-5.063
X8.212Y-5.728
X8.2126Y-3.5224
X8.2157Y-5.9328
X8.221Y-4.294
X8.2223Y-5.2994
X8.2265Y-4.8965
X8.32Y-5.26
X8.326Y-3.118
X8.326Y-3.446
X8.3603Y-3.5549
X8.3675Y-6.75
X8.376Y-4.924
X8.3841Y-6.4501
X8.388Y-3.252
X8.399Y-4.0103
X8.399Y-4.0517
X8.403Y-6.91
X8.4059Y-7.4257
X8.409Y-7.342
X8.418Y-3.548
X8.4425Y-7.9325
X8.446Y-4.916
X8.4526Y-6.1314
X8.472Y-2.866
X8.48Y-5.444
X8.4832Y-4.2567
X8.49Y-7.074
X8.5126Y-7.8731
X8.5229Y-5.3569
X8.528Y-3.148
X8.5302Y-3.9101
X8.546Y-2.678
X8.546Y-2.856
X8.5643Y-4.0866
X8.5669Y-7.538
X8.5762Y-5.6484
X8.5852Y-3.3899
X8.5935Y-4.0574
X8.596Y-3.804
X8.6Y-5.32
X8.61Y-2.9
X8.6118Y-5.4077
X8.634Y-2.326
X8.636Y-4.85
X8.638Y-6.91
X8.64Y-8.019
X8.654Y-2.97
X8.658Y-3.072
X8.66Y-5.3
X8.666Y-5.408
X8.666Y-5.516
X8.68Y-5.94
X8.6891Y-4.3739
X8.695Y-4.315
X8.7054Y-7.7841
X8.7139Y-4.4611
X8.7172Y-4.1629
X8.72Y-3.3
X8.724Y-2.868
X8.724Y-3.15
X8.725Y-8.195
X8.727Y-3.4675
X8.7357Y-3.8597
X8.7435Y-5.4918
X8.77Y-7.41
X8.7744Y-5.2467
X8.777Y-7.535
X8.78Y-5.86
X8.7963Y-7.328
X8.8Y-8.0
X8.8054Y-4.1274
X8.808Y-4.537
X8.8131Y-3.9268
X8.828Y-4.202
X8.84Y-5.78
X8.854Y-4.884
X8.86Y-6.0
X8.869Y-7.656
X8.876Y-2.816
X8.8765Y-8.105
X8.878Y-5.338
X8.882Y-3.378
X8.8862Y-7.1016
X8.8873Y-5.4019
X8.8874Y-5.5973
X8.888Y-3.296
X8.89Y-3.446
X8.8974Y-5.487
X8.8989Y-8.2102
X8.9Y-7.86
X8.9037Y-3.0871
X8.9058Y-5.9212
X8.912Y-6.054
X8.92Y-5.86
X8.92Y-6.366
X8.923Y-3.62
X8.926Y-2.834
X8.93Y-7.641
X8.932Y-4.46
X8.9326Y-7.3385
X8.9334Y-7.4135
X8.936Y-6.8391
X8.9365Y-2.884
X8.938Y-3.518
X8.939Y-4.772
X8.9395Y-7.6995
X8.94Y-4.599
X8.9431Y-4.1688
X8.961Y-5.052
X8.98Y-7.78
X8.99Y-7.42
X8.994Y-7.31
X9.0Y-3.465
X9.005Y-7.47
X9.023Y-7.916
X9.034Y-7.733
X9.04Y-3.92
X9.0416Y-7.4234
X9.042Y-2.902
X9.0432Y-4.6336
X9.0435Y-2.9835
X9.0475Y-7.3675
X9.05Y-3.685
X9.064Y-2.646
X9.0722Y-7.7955
X9.08Y-8.0
X9.08Y-8.116
X9.0979Y-3.7304
X9.1075Y-7.935
X9.122Y-7.645
X9.1368Y-7.2124
X9.142Y-3.467
X9.154Y-3.148
X9.16Y-7.7945
X9.1709Y-5.5069
X9.1728Y-2.909
X9.1762Y-7.6017
X9.1884Y-7.741
X9.19Y-3.708
X9.191Y-3.97
X9.2001Y-3.914
X9.2025Y-3.314
X9.208Y-6.112
X9.2131Y-5.55
X9.224Y-4.922
X9.225Y-3.372
X9.2285Y-2.9486
X9.2419Y-8.0026
X9.246Y-2.716
X9.246Y-3.271
X9.248Y-3.004
X9.2525Y-8.0775
X9.254Y-3.094
X9.255Y-7.903
X9.258Y-2.644
X9.2593Y-7.305
X9.268Y-2.5235
X9.28Y-5.78
X9.28Y-6.784
X9.2825Y-7.975
X9.284Y-2.868
X9.312Y-3.983
X9.312Y-4.06
X9.32Y-4.14
X9.336Y-2.415
X9.3379Y-7.4804
X9.338Y-2.886
X9.3481Y-7.26
X9.3555Y-4.0781
X9.3564Y-4.399
X9.3572Y-6.9217
X9.36Y-7.7415
X9.3723Y-4.525
X9.3723Y-3.0857
X9.398Y-3.328
X9.4118Y-2.6241
X9.412Y-2.446
X9.4137Y-4.525
X9.419Y-5.358
X9.422Y-2.74
X9.4375Y-7.51
X9.4385Y-2.932
X9.44Y-7.8925
X9.444Y-6.08
X9.473Y-8.006
X9.477Y-2.628
X9.4825Y-8.105
X9.485Y-3.5848
X9.506Y-2.842
X9.506Y-4.79
X9.514Y-6.218
X9.52Y-6.76
X9.524Y-7.969
X9.5391Y-3.7415
X9.5417Y-3.5013
X9.542Y-3.412
X9.548Y-4.15
X9.58Y-3.072
X9.5812Y-6.7788
X9.601Y-2.677
X9.602Y-6.084
X9.61Y-3.312
X9.628Y-4.102
X9.635Y-2.911
X9.635Y-7.886
X9.636Y-7.522
X9.645Y-3.455
X9.654Y-6.084
X9.6542Y-7.255
X9.656Y-3.584
X9.6595Y-3.9467
X9.6634Y-6.8899
X9.672Y-4.615
X9.677Y-8.144
X9.7Y-6.36
X9.701Y-4.125
X9.7025Y-2.6465
X9.74Y-2.42
X9.74Y-3.94
X9.7447Y-6.8787
X9.749Y-4.289
X9.756Y-2.5883
X9.758Y-2.634
X9.7837Y-7.3833
X9.79Y-3.108
X9.79Y-6.79
X9.791Y-6.7491
X9.797Y-3.412
X9.82Y-3.86
X9.826Y-4.09
X9.842Y-4.032
X9.8705Y-3.108
X9.8706Y-3.7387
X9.871Y-3.663
X9.874Y-4.18
X9.886Y-3.573
X9.888Y-4.784
X9.895Y-7.865
X9.9Y-5.78
X9.916Y-4.208
X9.9233Y-5.5633
X9.936Y-2.61
X9.949Y-3.539
X9.974Y-3.626
X9.975Y-3.412
X9.985Y-3.846
X10.005Y-3.581
X10.0095Y-3.6795
X10.0107Y-2.7728
X10.013Y-4.7943
X10.013Y-4.8357
X10.019Y-4.299
X10.0375Y-7.8375
X10.045Y-3.813
X10.0524Y-3.5609
X10.063Y-3.508
X10.072Y-4.698
X10.076Y-4.244
X10.077Y-3.0
X10.08Y-3.899
X10.081Y-3.639
X10.082Y-3.252
X10.091Y-3.302
X10.115Y-3.811
X10.117Y-4.171
X10.1225Y-3.7305
X10.1277Y-3.9088
X10.128Y-4.314
X10.134Y-4.038
X10.141Y-3.371
X10.1471Y-3.3311
X10.1551Y-3.2206
X10.181Y-3.947
X10.192Y-2.66
X10.195Y-3.222
X10.203Y-2.987
X10.2093Y-3.3283
X10.21Y-3.369
X10.213Y-3.629
X10.216Y-2.508
X10.242Y-3.066
X10.242Y-3.186
X10.258Y-3.96
X10.264Y-2.794
X10.272Y-2.896
X10.307Y-3.672
X10.32Y-2.792
X10.325Y-4.052
X10.33Y-3.962
X10.337Y-3.434
X10.35Y-3.699
X10.366Y-2.894
X10.3665Y-2.6151
X10.384Y-3.485
X10.386Y-3.339
X10.404Y-3.9698
X10.413Y-2.64
X10.422Y-3.7455
X10.424Y-3.146
X10.427Y-3.482
X10.452Y-2.588
X10.4525Y-2.89
X10.458Y-3.928
X10.482Y-3.224
X10.482Y-4.702
X10.4825Y-3.298
X10.503Y-3.648
X10.506Y-3.476
X10.5155Y-3.055
X10.516Y-2.894
X10.519Y-3.14
X10.519Y-3.698
X10.522Y-4.152
X10.536Y-3.816
X10.542Y-2.657
X10.563Y-3.033
X10.576Y-3.608
X10.58Y-4.016
X10.5833Y-4.192
X10.584Y-3.478
X10.6Y-3.722
X10.6247Y-4.192
X10.639Y-3.669
X10.646Y-3.296
X10.679Y-3.726
X10.684Y-3.264
X10.688Y-3.072
X10.69Y-2.912
X10.695Y-2.719
X10.699Y-3.548
X10.7Y-5.62
X10.7118Y-3.6558
X10.727Y-4.019
X10.749Y-3.737
X10.766Y-3.566
X10.7704Y-5.2639
X10.7842Y-3.0042
X10.788Y-2.65
X10.796Y-3.851
X10.81Y-4.3
X10.8131Y-4.5817
X10.82Y-3.252
X10.82Y-5.34
X10.822Y-3.592
X10.834Y-4.176
X10.8697Y-4.79
X10.898Y-2.884
X10.965Y-3.717
X10.971Y-3.117
X11.0Y-3.048
X11.0331Y-4.5287
X11.0377Y-5.3799
X11.039Y-3.887
X11.082Y-3.736
X11.084Y-3.316
X11.1007Y-2.9427
X11.111Y-3.089
X11.135Y-3.238
X11.162Y-4.046
X11.178Y-4.102
X11.2Y-3.364
X11.226Y-4.306
X11.235Y-5.0835
X11.25Y-3.466
X11.296Y-4.388
X11.35Y-4.695
X11.402Y-3.736
T2
X10.644Y-6.061
X10.644Y-7.051
X10.644Y-7.151
X11.244Y-6.061
X11.244Y-7.151
T3
X7.89Y-2.5222
X7.89Y-2.66
X8.02Y-7.825
X8.02Y-7.925
X8.02Y-8.025
T4
X4.8Y-7.425
X4.9Y-7.425
X5.178Y-7.466
X5.278Y-7.466
X5.375Y-8.2
X5.375Y-8.3
X5.378Y-7.466
X5.478Y-7.466
X5.578Y-7.466
X5.875Y-4.125
X5.875Y-4.225
X6.025Y-4.125
X6.025Y-4.225
X6.195Y-4.125
X6.195Y-4.225
X6.35Y-4.125
X6.35Y-4.225
X6.475Y-7.67
X6.475Y-7.77
X6.475Y-7.87
X6.51Y-4.125
X6.51Y-4.225
X6.67Y-4.025
X6.67Y-4.125
X6.67Y-4.225
X7.912Y-3.037
X7.912Y-3.137
X7.925Y-3.575
X8.025Y-3.575
X8.194Y-4.58
X8.294Y-4.58
X8.394Y-4.58
X8.702Y-2.234
X8.802Y-2.234
X8.902Y-2.234
X9.825Y-8.35
X9.825Y-8.45
X10.224Y-4.13
X10.224Y-4.23
X10.224Y-4.33
X10.224Y-4.43
X10.224Y-4.53
X10.3Y-2.508
X10.4Y-2.508
X10.45Y-7.794
X10.45Y-8.068
X10.45Y-8.35
X10.5Y-2.508
X10.55Y-7.794
X10.55Y-8.068
X10.55Y-8.35
X10.6Y-2.508
X10.886Y-2.52
X10.886Y-2.62
X10.986Y-2.52
X10.986Y-2.62
X11.086Y-2.52
X11.086Y-2.62
X11.186Y-2.52
X11.186Y-2.62
X11.266Y-3.612
X11.266Y-3.712
X11.286Y-2.52
X11.286Y-2.62
T5
X4.725Y-7.6
X4.8Y-8.075
X4.8Y-8.375
X4.865Y-2.385
X4.865Y-2.5622
X5.025Y-7.6
X5.1209Y-2.385
X5.1209Y-2.5622
X6.585Y-6.145
X6.585Y-6.3222
X6.8409Y-6.145
X6.8409Y-6.3222
X7.02Y-6.145
X7.02Y-6.3222
X7.2759Y-6.145
X7.2759Y-6.3222
X8.6Y-8.15
X8.6Y-8.45
T6
X4.2Y-7.425
X4.4Y-7.425
X11.6Y-7.2
X11.6Y-7.7906
T7
X4.1924Y-6.9806
X4.4956Y-6.1814
X4.594Y-6.9806
X4.6964Y-6.1814
X4.9956Y-6.1814
X4.9956Y-6.9806
X5.0638Y-4.626
X5.0638Y-5.0709
X5.3Y-5.1496
X5.5362Y-4.626
X5.5362Y-5.0709
X10.1504Y-4.9234
X10.1504Y-5.325
X10.1504Y-5.7266
X10.9496Y-5.2266
X10.9496Y-5.4274
X10.9496Y-5.7266
T8
X6.125Y-4.5345
X6.125Y-5.0845
X6.125Y-5.285
X6.125Y-5.735
X6.125Y-5.935
X6.525Y-4.5345
X6.525Y-5.0845
X6.525Y-5.285
X6.525Y-5.735
X6.525Y-5.935
X6.925Y-4.565
X6.925Y-4.765
X6.925Y-5.215
X6.925Y-5.4155
X6.925Y-5.9655
X7.325Y-4.565
X7.325Y-4.765
X7.325Y-5.215
X7.325Y-5.4155
X7.325Y-5.9655
T9
X4.1515Y-3.08
X4.1515Y-3.2454
X4.1515Y-3.52
X4.1515Y-3.6854
X4.1515Y-3.96
X4.1515Y-4.1254
X4.1515Y-4.2907
X4.1515Y-4.585
X4.1515Y-4.7504
X4.1515Y-4.9157
X4.1515Y-5.0811
X4.1515Y-5.375
X4.1515Y-5.5404
X4.1515Y-5.7057
X4.1515Y-5.8711
X4.368Y-3.08
X4.368Y-3.2454
X4.368Y-3.52
X4.368Y-3.6854
X4.368Y-3.96
X4.368Y-4.1254
X4.368Y-4.2907
X4.368Y-4.585
X4.368Y-4.7504
X4.368Y-4.9157
X4.368Y-5.0811
X4.368Y-5.375
X4.368Y-5.5404
X4.368Y-5.7057
X4.368Y-5.8711
X5.084Y-8.081
X5.084Y-8.2975
X5.65Y-8.122
X5.65Y-8.3385
X5.8154Y-8.122
X5.8154Y-8.3385
X5.9807Y-8.122
X5.9807Y-8.3385
X6.1461Y-8.122
X6.1461Y-8.3385
X6.46Y-8.12
X6.46Y-8.3365
X6.6254Y-8.12
X6.6254Y-8.3365
X8.2166Y-2.318
X8.2166Y-2.5345
X8.275Y-8.175
X8.275Y-8.3915
X8.382Y-2.318
X8.382Y-2.5345
X11.525Y-2.7096
X11.525Y-2.875
X11.525Y-3.1943
X11.525Y-3.3596
X11.525Y-3.525
X11.525Y-3.8096
X11.525Y-3.975
X11.525Y-4.2693
X11.525Y-4.4346
X11.525Y-4.6
X11.525Y-4.9096
X11.525Y-5.075
X11.525Y-5.3596
X11.525Y-5.525
X11.525Y-5.8096
X11.525Y-5.975
X11.525Y-6.275
X11.7415Y-2.7096
X11.7415Y-2.875
X11.7415Y-3.1943
X11.7415Y-3.3596
X11.7415Y-3.525
X11.7415Y-3.8096
X11.7415Y-3.975
X11.7415Y-4.2693
X11.7415Y-4.4346
X11.7415Y-4.6
X11.7415Y-4.9096
X11.7415Y-5.075
X11.7415Y-5.3596
X11.7415Y-5.525
X11.7415Y-5.8096
X11.7415Y-5.975
X11.7415Y-6.275
T10
X5.45Y-3.046
X5.45Y-3.196
X7.45Y-2.746
X7.45Y-3.046
X7.45Y-3.346
T11
X4.2006Y-2.75
X4.425Y-2.75
T12
X5.45Y-2.746
X5.45Y-3.346
T13
X11.024Y-7.6335
X11.024Y-7.9
X11.024Y-8.1665
T14
X4.2486Y-2.3861
X4.2486Y-8.2759
X11.6384Y-2.3861
X11.6384Y-8.2759
T15
X4.0915Y-2.887
T0
M30
