%TF.GenerationSoftware,KiCad,Pcbnew,(5.1.9)-1*%
%TF.CreationDate,2022-03-11T17:21:43-05:00*%
%TF.ProjectId,TSI_Rev.7,5453495f-5265-4762-9e37-2e6b69636164,rev?*%
%TF.SameCoordinates,Original*%
%TF.FileFunction,Soldermask,Top*%
%TF.FilePolarity,Negative*%
%FSLAX46Y46*%
G04 Gerber Fmt 4.6, Leading zero omitted, Abs format (unit mm)*
G04 Created by KiCad (PCBNEW (5.1.9)-1) date 2022-03-11 17:21:43*
%MOMM*%
%LPD*%
G01*
G04 APERTURE LIST*
%ADD10C,2.400000*%
%ADD11C,3.226000*%
%ADD12R,2.400000X2.400000*%
%ADD13C,2.000000*%
%ADD14R,2.000000X2.000000*%
%ADD15O,1.700000X1.700000*%
%ADD16R,1.700000X1.700000*%
%ADD17R,0.760000X5.000000*%
%ADD18R,8.800000X4.500000*%
%ADD19C,2.800000*%
%ADD20R,2.800000X2.800000*%
%ADD21R,0.762000X1.270000*%
%ADD22R,1.270000X0.762000*%
%ADD23R,0.410000X1.470000*%
%ADD24R,6.090000X5.630000*%
%ADD25R,2.830000X0.970000*%
%ADD26C,1.778000*%
%ADD27R,1.778000X1.778000*%
%ADD28C,3.000000*%
%ADD29R,0.900000X1.200000*%
%ADD30R,2.200000X2.200000*%
%ADD31O,2.200000X2.200000*%
%ADD32R,0.590000X1.210000*%
%ADD33C,5.500000*%
%ADD34C,1.808000*%
%ADD35R,1.000000X1.400000*%
%ADD36R,0.900000X0.800000*%
%ADD37R,1.422400X0.533400*%
%ADD38R,0.590000X1.800000*%
%ADD39R,0.533400X1.422400*%
%ADD40R,1.900000X0.600000*%
%ADD41C,7.000000*%
%ADD42R,0.800000X0.900000*%
%ADD43C,1.905000*%
%ADD44C,1.600000*%
%ADD45R,1.600000X1.600000*%
%ADD46C,1.508000*%
%ADD47R,1.508000X1.508000*%
%ADD48C,1.800000*%
%ADD49C,1.440000*%
%ADD50R,3.190000X1.760000*%
%ADD51R,0.940000X1.760000*%
%ADD52R,1.470000X0.410000*%
%ADD53C,3.700000*%
%ADD54R,1.210000X0.580000*%
%ADD55R,1.981200X0.533400*%
%ADD56R,0.600000X1.900000*%
%ADD57R,1.470000X0.300000*%
%ADD58R,0.300000X1.470000*%
G04 APERTURE END LIST*
D10*
%TO.C,PS2*%
X189230000Y-69748400D03*
D11*
X138430000Y-69748400D03*
D10*
X189230000Y-77368400D03*
D12*
X189230000Y-84988400D03*
D11*
X138430000Y-84988400D03*
D10*
X138430000Y-77368400D03*
X138430000Y-81178400D03*
%TD*%
%TO.C,U30*%
G36*
G01*
X130466000Y-70495500D02*
X130466000Y-70220500D01*
G75*
G02*
X130603500Y-70083000I137500J0D01*
G01*
X131928500Y-70083000D01*
G75*
G02*
X132066000Y-70220500I0J-137500D01*
G01*
X132066000Y-70495500D01*
G75*
G02*
X131928500Y-70633000I-137500J0D01*
G01*
X130603500Y-70633000D01*
G75*
G02*
X130466000Y-70495500I0J137500D01*
G01*
G37*
G36*
G01*
X130466000Y-71765500D02*
X130466000Y-71490500D01*
G75*
G02*
X130603500Y-71353000I137500J0D01*
G01*
X131928500Y-71353000D01*
G75*
G02*
X132066000Y-71490500I0J-137500D01*
G01*
X132066000Y-71765500D01*
G75*
G02*
X131928500Y-71903000I-137500J0D01*
G01*
X130603500Y-71903000D01*
G75*
G02*
X130466000Y-71765500I0J137500D01*
G01*
G37*
G36*
G01*
X123966000Y-71765500D02*
X123966000Y-71490500D01*
G75*
G02*
X124103500Y-71353000I137500J0D01*
G01*
X125428500Y-71353000D01*
G75*
G02*
X125566000Y-71490500I0J-137500D01*
G01*
X125566000Y-71765500D01*
G75*
G02*
X125428500Y-71903000I-137500J0D01*
G01*
X124103500Y-71903000D01*
G75*
G02*
X123966000Y-71765500I0J137500D01*
G01*
G37*
G36*
G01*
X123966000Y-70495500D02*
X123966000Y-70220500D01*
G75*
G02*
X124103500Y-70083000I137500J0D01*
G01*
X125428500Y-70083000D01*
G75*
G02*
X125566000Y-70220500I0J-137500D01*
G01*
X125566000Y-70495500D01*
G75*
G02*
X125428500Y-70633000I-137500J0D01*
G01*
X124103500Y-70633000D01*
G75*
G02*
X123966000Y-70495500I0J137500D01*
G01*
G37*
%TD*%
D13*
%TO.C,PS1*%
X126888000Y-157007000D03*
X126888000Y-177307000D03*
X116688000Y-177307000D03*
X106488000Y-177307000D03*
X119288000Y-157007000D03*
D14*
X114188000Y-157007000D03*
%TD*%
D15*
%TO.C,JP12*%
X157353000Y-107315000D03*
D16*
X157353000Y-104775000D03*
%TD*%
D17*
%TO.C,J6*%
X180975000Y-197586000D03*
D18*
X179070000Y-213636000D03*
D17*
X179705000Y-197586000D03*
X178435000Y-197586000D03*
X177165000Y-197586000D03*
X175895000Y-197586000D03*
X182245000Y-197586000D03*
%TD*%
D19*
%TO.C,J20*%
X298235000Y-108440000D03*
X298235000Y-112640000D03*
X298235000Y-116840000D03*
X292735000Y-108440000D03*
X292735000Y-112640000D03*
D20*
X292735000Y-116840000D03*
%TD*%
%TO.C,RV2*%
G36*
G01*
X224231200Y-68072000D02*
X224231200Y-67665600D01*
G75*
G02*
X224434400Y-67462400I203200J0D01*
G01*
X225298000Y-67462400D01*
G75*
G02*
X225501200Y-67665600I0J-203200D01*
G01*
X225501200Y-68072000D01*
G75*
G02*
X225298000Y-68275200I-203200J0D01*
G01*
X224434400Y-68275200D01*
G75*
G02*
X224231200Y-68072000I0J203200D01*
G01*
G37*
G36*
G01*
X224231200Y-70358000D02*
X224231200Y-69951600D01*
G75*
G02*
X224434400Y-69748400I203200J0D01*
G01*
X225298000Y-69748400D01*
G75*
G02*
X225501200Y-69951600I0J-203200D01*
G01*
X225501200Y-70358000D01*
G75*
G02*
X225298000Y-70561200I-203200J0D01*
G01*
X224434400Y-70561200D01*
G75*
G02*
X224231200Y-70358000I0J203200D01*
G01*
G37*
D21*
X219075000Y-69011800D03*
%TD*%
D22*
%TO.C,RV3*%
X156616600Y-183260600D03*
G36*
G01*
X155270400Y-188416800D02*
X155676800Y-188416800D01*
G75*
G02*
X155880000Y-188620000I0J-203200D01*
G01*
X155880000Y-189483600D01*
G75*
G02*
X155676800Y-189686800I-203200J0D01*
G01*
X155270400Y-189686800D01*
G75*
G02*
X155067200Y-189483600I0J203200D01*
G01*
X155067200Y-188620000D01*
G75*
G02*
X155270400Y-188416800I203200J0D01*
G01*
G37*
G36*
G01*
X157556400Y-188416800D02*
X157962800Y-188416800D01*
G75*
G02*
X158166000Y-188620000I0J-203200D01*
G01*
X158166000Y-189483600D01*
G75*
G02*
X157962800Y-189686800I-203200J0D01*
G01*
X157556400Y-189686800D01*
G75*
G02*
X157353200Y-189483600I0J203200D01*
G01*
X157353200Y-188620000D01*
G75*
G02*
X157556400Y-188416800I203200J0D01*
G01*
G37*
%TD*%
D14*
%TO.C,U38*%
X278120000Y-132755000D03*
D13*
X278120000Y-137855000D03*
X257820000Y-125055000D03*
X257820000Y-135255000D03*
X257820000Y-145455000D03*
X278120000Y-145455000D03*
%TD*%
D20*
%TO.C,J11*%
X292735000Y-140335000D03*
D19*
X292735000Y-136135000D03*
X298235000Y-140335000D03*
X298235000Y-136135000D03*
%TD*%
D23*
%TO.C,U25*%
X242200000Y-173660000D03*
X242850000Y-173660000D03*
X243500000Y-173660000D03*
X244150000Y-173660000D03*
X244800000Y-173660000D03*
X245450000Y-173660000D03*
X246100000Y-173660000D03*
X246750000Y-173660000D03*
X246750000Y-179400000D03*
X246100000Y-179400000D03*
X245450000Y-179400000D03*
X244800000Y-179400000D03*
X244150000Y-179400000D03*
X243500000Y-179400000D03*
X242850000Y-179400000D03*
X242200000Y-179400000D03*
%TD*%
D16*
%TO.C,JP3*%
X286156400Y-91744800D03*
D15*
X286156400Y-94284800D03*
%TD*%
D24*
%TO.C,U10*%
X193070000Y-180340000D03*
D25*
X199720000Y-178050000D03*
X199720000Y-182630000D03*
%TD*%
D26*
%TO.C,U1*%
X285598000Y-153949000D03*
X270358000Y-153949000D03*
X270358000Y-179095000D03*
X270358000Y-181635000D03*
D27*
X285598000Y-181635000D03*
%TD*%
D28*
%TO.C,TP11*%
X217322400Y-111810800D03*
%TD*%
%TO.C,TP10*%
X195681600Y-118414800D03*
%TD*%
D10*
%TO.C,C14*%
X294640000Y-182880000D03*
X294640000Y-197880000D03*
%TD*%
D29*
%TO.C,D3*%
X135635000Y-135255000D03*
X132335000Y-135255000D03*
%TD*%
%TO.C,D7*%
G36*
G01*
X120168000Y-199053001D02*
X120168000Y-198152999D01*
G75*
G02*
X120417999Y-197903000I249999J0D01*
G01*
X121068001Y-197903000D01*
G75*
G02*
X121318000Y-198152999I0J-249999D01*
G01*
X121318000Y-199053001D01*
G75*
G02*
X121068001Y-199303000I-249999J0D01*
G01*
X120417999Y-199303000D01*
G75*
G02*
X120168000Y-199053001I0J249999D01*
G01*
G37*
G36*
G01*
X122218000Y-199053001D02*
X122218000Y-198152999D01*
G75*
G02*
X122467999Y-197903000I249999J0D01*
G01*
X123118001Y-197903000D01*
G75*
G02*
X123368000Y-198152999I0J-249999D01*
G01*
X123368000Y-199053001D01*
G75*
G02*
X123118001Y-199303000I-249999J0D01*
G01*
X122467999Y-199303000D01*
G75*
G02*
X122218000Y-199053001I0J249999D01*
G01*
G37*
%TD*%
D30*
%TO.C,D8*%
X127635000Y-193040000D03*
D31*
X120015000Y-193040000D03*
%TD*%
%TO.C,D14*%
G36*
G01*
X199840001Y-156540000D02*
X198939999Y-156540000D01*
G75*
G02*
X198690000Y-156290001I0J249999D01*
G01*
X198690000Y-155639999D01*
G75*
G02*
X198939999Y-155390000I249999J0D01*
G01*
X199840001Y-155390000D01*
G75*
G02*
X200090000Y-155639999I0J-249999D01*
G01*
X200090000Y-156290001D01*
G75*
G02*
X199840001Y-156540000I-249999J0D01*
G01*
G37*
G36*
G01*
X199840001Y-154490000D02*
X198939999Y-154490000D01*
G75*
G02*
X198690000Y-154240001I0J249999D01*
G01*
X198690000Y-153589999D01*
G75*
G02*
X198939999Y-153340000I249999J0D01*
G01*
X199840001Y-153340000D01*
G75*
G02*
X200090000Y-153589999I0J-249999D01*
G01*
X200090000Y-154240001D01*
G75*
G02*
X199840001Y-154490000I-249999J0D01*
G01*
G37*
%TD*%
D30*
%TO.C,D12*%
X218440000Y-207010000D03*
D31*
X218440000Y-214630000D03*
%TD*%
%TO.C,D13*%
X121920000Y-212725000D03*
D30*
X121920000Y-205105000D03*
%TD*%
D32*
%TO.C,IC1*%
X162849600Y-184876200D03*
X161899600Y-184876200D03*
X160949600Y-184876200D03*
X160949600Y-187386200D03*
X162849600Y-187386200D03*
%TD*%
D33*
%TO.C,J1*%
X280010000Y-207430000D03*
X280010000Y-200660000D03*
X280010000Y-193890000D03*
%TD*%
D19*
%TO.C,J7*%
X105447000Y-149125000D03*
X105447000Y-144925000D03*
X105447000Y-140725000D03*
X105447000Y-136525000D03*
X110947000Y-149125000D03*
X110947000Y-144925000D03*
X110947000Y-140725000D03*
D20*
X110947000Y-136525000D03*
%TD*%
D19*
%TO.C,J9*%
X298235000Y-96765000D03*
X298235000Y-100965000D03*
X292735000Y-96765000D03*
D20*
X292735000Y-100965000D03*
%TD*%
%TO.C,J12*%
X110947000Y-116459000D03*
D19*
X110947000Y-120659000D03*
X110947000Y-124859000D03*
X110947000Y-129059000D03*
X105447000Y-116459000D03*
X105447000Y-120659000D03*
X105447000Y-124859000D03*
X105447000Y-129059000D03*
%TD*%
%TO.C,J13*%
X298235000Y-68825000D03*
X298235000Y-73025000D03*
X292735000Y-68825000D03*
D20*
X292735000Y-73025000D03*
%TD*%
%TO.C,J14*%
X292735000Y-128905000D03*
D19*
X292735000Y-124705000D03*
X298235000Y-128905000D03*
X298235000Y-124705000D03*
%TD*%
D20*
%TO.C,J16*%
X292735000Y-159385000D03*
D19*
X298235000Y-159385000D03*
%TD*%
D20*
%TO.C,J17*%
X110947000Y-100584000D03*
D19*
X110947000Y-104784000D03*
X110947000Y-108984000D03*
X105447000Y-100584000D03*
X105447000Y-104784000D03*
X105447000Y-108984000D03*
%TD*%
%TO.C,J18*%
X105447000Y-93608000D03*
X105447000Y-89408000D03*
X110947000Y-93608000D03*
D20*
X110947000Y-89408000D03*
%TD*%
%TO.C,J19*%
X110947000Y-78232000D03*
D19*
X110947000Y-82432000D03*
X105447000Y-78232000D03*
X105447000Y-82432000D03*
%TD*%
D20*
%TO.C,J5*%
X210185000Y-207645000D03*
D19*
X210185000Y-213145000D03*
%TD*%
D15*
%TO.C,JP4*%
X249555000Y-214630000D03*
D16*
X249555000Y-212090000D03*
%TD*%
%TO.C,JP5*%
X136525000Y-210820000D03*
D15*
X136525000Y-208280000D03*
%TD*%
D34*
%TO.C,K2*%
X134620000Y-130799998D03*
X140619999Y-128799996D03*
X140619999Y-117500001D03*
X128620001Y-117500001D03*
X128620001Y-128799996D03*
%TD*%
D35*
%TO.C,Q1*%
X212090000Y-184615000D03*
X211140000Y-182415000D03*
X213040000Y-182415000D03*
%TD*%
D36*
%TO.C,Q2*%
X230956000Y-142009000D03*
X232956000Y-141059000D03*
X232956000Y-142959000D03*
%TD*%
%TO.C,Q3*%
X244745000Y-212725000D03*
X246745000Y-211775000D03*
X246745000Y-213675000D03*
%TD*%
D28*
%TO.C,TP1*%
X211836000Y-111760000D03*
%TD*%
%TO.C,TP3*%
X199644000Y-111760000D03*
%TD*%
%TO.C,TP9*%
X203708000Y-111760000D03*
%TD*%
%TO.C,TP7*%
X222885000Y-118110000D03*
%TD*%
%TO.C,TP8*%
X147980400Y-189128400D03*
%TD*%
%TO.C,TP2*%
X207772000Y-111760000D03*
%TD*%
D37*
%TO.C,U3*%
X243797000Y-96367000D03*
X243797000Y-95097000D03*
X243797000Y-93827000D03*
X243797000Y-92557000D03*
X249385000Y-92557000D03*
X249385000Y-93827000D03*
X249385000Y-95097000D03*
X249385000Y-96367000D03*
%TD*%
D38*
%TO.C,U4*%
X231623000Y-172487000D03*
X230353000Y-172487000D03*
X229083000Y-172487000D03*
X227813000Y-172487000D03*
X227813000Y-161827000D03*
X229083000Y-161827000D03*
X230353000Y-161827000D03*
X231623000Y-161827000D03*
%TD*%
D39*
%TO.C,U5*%
X242545000Y-164363000D03*
X243815000Y-164363000D03*
X245085000Y-164363000D03*
X246355000Y-164363000D03*
X246355000Y-169951000D03*
X245085000Y-169951000D03*
X243815000Y-169951000D03*
X242545000Y-169951000D03*
%TD*%
D37*
%TO.C,U6*%
X223228000Y-94122200D03*
X223228000Y-95392200D03*
X223228000Y-96662200D03*
X223228000Y-97932200D03*
X228816000Y-97932200D03*
X228816000Y-96662200D03*
X228816000Y-95392200D03*
X228816000Y-94122200D03*
%TD*%
D40*
%TO.C,U8*%
X232444200Y-63271400D03*
X232444200Y-64541400D03*
X232444200Y-65811400D03*
X232444200Y-67081400D03*
X232444200Y-68351400D03*
X232444200Y-69621400D03*
X232444200Y-70891400D03*
X237354200Y-70891400D03*
X237354200Y-69621400D03*
X237354200Y-68351400D03*
X237354200Y-67081400D03*
X237354200Y-65811400D03*
X237354200Y-64541400D03*
X237354200Y-63271400D03*
%TD*%
%TO.C,U11*%
G36*
G01*
X274511800Y-103007500D02*
X274511800Y-102732500D01*
G75*
G02*
X274649300Y-102595000I137500J0D01*
G01*
X275974300Y-102595000D01*
G75*
G02*
X276111800Y-102732500I0J-137500D01*
G01*
X276111800Y-103007500D01*
G75*
G02*
X275974300Y-103145000I-137500J0D01*
G01*
X274649300Y-103145000D01*
G75*
G02*
X274511800Y-103007500I0J137500D01*
G01*
G37*
G36*
G01*
X274511800Y-104277500D02*
X274511800Y-104002500D01*
G75*
G02*
X274649300Y-103865000I137500J0D01*
G01*
X275974300Y-103865000D01*
G75*
G02*
X276111800Y-104002500I0J-137500D01*
G01*
X276111800Y-104277500D01*
G75*
G02*
X275974300Y-104415000I-137500J0D01*
G01*
X274649300Y-104415000D01*
G75*
G02*
X274511800Y-104277500I0J137500D01*
G01*
G37*
G36*
G01*
X281011800Y-104277500D02*
X281011800Y-104002500D01*
G75*
G02*
X281149300Y-103865000I137500J0D01*
G01*
X282474300Y-103865000D01*
G75*
G02*
X282611800Y-104002500I0J-137500D01*
G01*
X282611800Y-104277500D01*
G75*
G02*
X282474300Y-104415000I-137500J0D01*
G01*
X281149300Y-104415000D01*
G75*
G02*
X281011800Y-104277500I0J137500D01*
G01*
G37*
G36*
G01*
X281011800Y-103007500D02*
X281011800Y-102732500D01*
G75*
G02*
X281149300Y-102595000I137500J0D01*
G01*
X282474300Y-102595000D01*
G75*
G02*
X282611800Y-102732500I0J-137500D01*
G01*
X282611800Y-103007500D01*
G75*
G02*
X282474300Y-103145000I-137500J0D01*
G01*
X281149300Y-103145000D01*
G75*
G02*
X281011800Y-103007500I0J137500D01*
G01*
G37*
%TD*%
%TO.C,U13*%
G36*
G01*
X120626000Y-83377700D02*
X120626000Y-83652700D01*
G75*
G02*
X120488500Y-83790200I-137500J0D01*
G01*
X119163500Y-83790200D01*
G75*
G02*
X119026000Y-83652700I0J137500D01*
G01*
X119026000Y-83377700D01*
G75*
G02*
X119163500Y-83240200I137500J0D01*
G01*
X120488500Y-83240200D01*
G75*
G02*
X120626000Y-83377700I0J-137500D01*
G01*
G37*
G36*
G01*
X120626000Y-82107700D02*
X120626000Y-82382700D01*
G75*
G02*
X120488500Y-82520200I-137500J0D01*
G01*
X119163500Y-82520200D01*
G75*
G02*
X119026000Y-82382700I0J137500D01*
G01*
X119026000Y-82107700D01*
G75*
G02*
X119163500Y-81970200I137500J0D01*
G01*
X120488500Y-81970200D01*
G75*
G02*
X120626000Y-82107700I0J-137500D01*
G01*
G37*
G36*
G01*
X127126000Y-82107700D02*
X127126000Y-82382700D01*
G75*
G02*
X126988500Y-82520200I-137500J0D01*
G01*
X125663500Y-82520200D01*
G75*
G02*
X125526000Y-82382700I0J137500D01*
G01*
X125526000Y-82107700D01*
G75*
G02*
X125663500Y-81970200I137500J0D01*
G01*
X126988500Y-81970200D01*
G75*
G02*
X127126000Y-82107700I0J-137500D01*
G01*
G37*
G36*
G01*
X127126000Y-83377700D02*
X127126000Y-83652700D01*
G75*
G02*
X126988500Y-83790200I-137500J0D01*
G01*
X125663500Y-83790200D01*
G75*
G02*
X125526000Y-83652700I0J137500D01*
G01*
X125526000Y-83377700D01*
G75*
G02*
X125663500Y-83240200I137500J0D01*
G01*
X126988500Y-83240200D01*
G75*
G02*
X127126000Y-83377700I0J-137500D01*
G01*
G37*
%TD*%
D41*
%TO.C,U14*%
X107915000Y-210207000D03*
%TD*%
%TO.C,U15*%
X107915000Y-60607000D03*
%TD*%
%TO.C,U17*%
X295615000Y-60607000D03*
%TD*%
%TO.C,U24*%
G36*
G01*
X159612000Y-157075500D02*
X159612000Y-157350500D01*
G75*
G02*
X159474500Y-157488000I-137500J0D01*
G01*
X158149500Y-157488000D01*
G75*
G02*
X158012000Y-157350500I0J137500D01*
G01*
X158012000Y-157075500D01*
G75*
G02*
X158149500Y-156938000I137500J0D01*
G01*
X159474500Y-156938000D01*
G75*
G02*
X159612000Y-157075500I0J-137500D01*
G01*
G37*
G36*
G01*
X159612000Y-155805500D02*
X159612000Y-156080500D01*
G75*
G02*
X159474500Y-156218000I-137500J0D01*
G01*
X158149500Y-156218000D01*
G75*
G02*
X158012000Y-156080500I0J137500D01*
G01*
X158012000Y-155805500D01*
G75*
G02*
X158149500Y-155668000I137500J0D01*
G01*
X159474500Y-155668000D01*
G75*
G02*
X159612000Y-155805500I0J-137500D01*
G01*
G37*
G36*
G01*
X153112000Y-155805500D02*
X153112000Y-156080500D01*
G75*
G02*
X152974500Y-156218000I-137500J0D01*
G01*
X151649500Y-156218000D01*
G75*
G02*
X151512000Y-156080500I0J137500D01*
G01*
X151512000Y-155805500D01*
G75*
G02*
X151649500Y-155668000I137500J0D01*
G01*
X152974500Y-155668000D01*
G75*
G02*
X153112000Y-155805500I0J-137500D01*
G01*
G37*
G36*
G01*
X153112000Y-157075500D02*
X153112000Y-157350500D01*
G75*
G02*
X152974500Y-157488000I-137500J0D01*
G01*
X151649500Y-157488000D01*
G75*
G02*
X151512000Y-157350500I0J137500D01*
G01*
X151512000Y-157075500D01*
G75*
G02*
X151649500Y-156938000I137500J0D01*
G01*
X152974500Y-156938000D01*
G75*
G02*
X153112000Y-157075500I0J-137500D01*
G01*
G37*
%TD*%
%TO.C,U2*%
X295615000Y-210207000D03*
%TD*%
%TO.C,U34*%
G36*
G01*
X214975500Y-163107000D02*
X215250500Y-163107000D01*
G75*
G02*
X215388000Y-163244500I0J-137500D01*
G01*
X215388000Y-164569500D01*
G75*
G02*
X215250500Y-164707000I-137500J0D01*
G01*
X214975500Y-164707000D01*
G75*
G02*
X214838000Y-164569500I0J137500D01*
G01*
X214838000Y-163244500D01*
G75*
G02*
X214975500Y-163107000I137500J0D01*
G01*
G37*
G36*
G01*
X213705500Y-163107000D02*
X213980500Y-163107000D01*
G75*
G02*
X214118000Y-163244500I0J-137500D01*
G01*
X214118000Y-164569500D01*
G75*
G02*
X213980500Y-164707000I-137500J0D01*
G01*
X213705500Y-164707000D01*
G75*
G02*
X213568000Y-164569500I0J137500D01*
G01*
X213568000Y-163244500D01*
G75*
G02*
X213705500Y-163107000I137500J0D01*
G01*
G37*
G36*
G01*
X213705500Y-169607000D02*
X213980500Y-169607000D01*
G75*
G02*
X214118000Y-169744500I0J-137500D01*
G01*
X214118000Y-171069500D01*
G75*
G02*
X213980500Y-171207000I-137500J0D01*
G01*
X213705500Y-171207000D01*
G75*
G02*
X213568000Y-171069500I0J137500D01*
G01*
X213568000Y-169744500D01*
G75*
G02*
X213705500Y-169607000I137500J0D01*
G01*
G37*
G36*
G01*
X214975500Y-169607000D02*
X215250500Y-169607000D01*
G75*
G02*
X215388000Y-169744500I0J-137500D01*
G01*
X215388000Y-171069500D01*
G75*
G02*
X215250500Y-171207000I-137500J0D01*
G01*
X214975500Y-171207000D01*
G75*
G02*
X214838000Y-171069500I0J137500D01*
G01*
X214838000Y-169744500D01*
G75*
G02*
X214975500Y-169607000I137500J0D01*
G01*
G37*
%TD*%
%TO.C,U37*%
G36*
G01*
X137505500Y-163107000D02*
X137780500Y-163107000D01*
G75*
G02*
X137918000Y-163244500I0J-137500D01*
G01*
X137918000Y-164569500D01*
G75*
G02*
X137780500Y-164707000I-137500J0D01*
G01*
X137505500Y-164707000D01*
G75*
G02*
X137368000Y-164569500I0J137500D01*
G01*
X137368000Y-163244500D01*
G75*
G02*
X137505500Y-163107000I137500J0D01*
G01*
G37*
G36*
G01*
X136235500Y-163107000D02*
X136510500Y-163107000D01*
G75*
G02*
X136648000Y-163244500I0J-137500D01*
G01*
X136648000Y-164569500D01*
G75*
G02*
X136510500Y-164707000I-137500J0D01*
G01*
X136235500Y-164707000D01*
G75*
G02*
X136098000Y-164569500I0J137500D01*
G01*
X136098000Y-163244500D01*
G75*
G02*
X136235500Y-163107000I137500J0D01*
G01*
G37*
G36*
G01*
X136235500Y-169607000D02*
X136510500Y-169607000D01*
G75*
G02*
X136648000Y-169744500I0J-137500D01*
G01*
X136648000Y-171069500D01*
G75*
G02*
X136510500Y-171207000I-137500J0D01*
G01*
X136235500Y-171207000D01*
G75*
G02*
X136098000Y-171069500I0J137500D01*
G01*
X136098000Y-169744500D01*
G75*
G02*
X136235500Y-169607000I137500J0D01*
G01*
G37*
G36*
G01*
X137505500Y-169607000D02*
X137780500Y-169607000D01*
G75*
G02*
X137918000Y-169744500I0J-137500D01*
G01*
X137918000Y-171069500D01*
G75*
G02*
X137780500Y-171207000I-137500J0D01*
G01*
X137505500Y-171207000D01*
G75*
G02*
X137368000Y-171069500I0J137500D01*
G01*
X137368000Y-169744500D01*
G75*
G02*
X137505500Y-169607000I137500J0D01*
G01*
G37*
%TD*%
D37*
%TO.C,U36*%
X281559000Y-118110000D03*
X281559000Y-116840000D03*
X281559000Y-115570000D03*
X281559000Y-114300000D03*
X275971000Y-114300000D03*
X275971000Y-115570000D03*
X275971000Y-116840000D03*
X275971000Y-118110000D03*
%TD*%
%TO.C,U32*%
G36*
G01*
X120410000Y-142377500D02*
X120410000Y-142102500D01*
G75*
G02*
X120547500Y-141965000I137500J0D01*
G01*
X121872500Y-141965000D01*
G75*
G02*
X122010000Y-142102500I0J-137500D01*
G01*
X122010000Y-142377500D01*
G75*
G02*
X121872500Y-142515000I-137500J0D01*
G01*
X120547500Y-142515000D01*
G75*
G02*
X120410000Y-142377500I0J137500D01*
G01*
G37*
G36*
G01*
X120410000Y-143647500D02*
X120410000Y-143372500D01*
G75*
G02*
X120547500Y-143235000I137500J0D01*
G01*
X121872500Y-143235000D01*
G75*
G02*
X122010000Y-143372500I0J-137500D01*
G01*
X122010000Y-143647500D01*
G75*
G02*
X121872500Y-143785000I-137500J0D01*
G01*
X120547500Y-143785000D01*
G75*
G02*
X120410000Y-143647500I0J137500D01*
G01*
G37*
G36*
G01*
X126910000Y-143647500D02*
X126910000Y-143372500D01*
G75*
G02*
X127047500Y-143235000I137500J0D01*
G01*
X128372500Y-143235000D01*
G75*
G02*
X128510000Y-143372500I0J-137500D01*
G01*
X128510000Y-143647500D01*
G75*
G02*
X128372500Y-143785000I-137500J0D01*
G01*
X127047500Y-143785000D01*
G75*
G02*
X126910000Y-143647500I0J137500D01*
G01*
G37*
G36*
G01*
X126910000Y-142377500D02*
X126910000Y-142102500D01*
G75*
G02*
X127047500Y-141965000I137500J0D01*
G01*
X128372500Y-141965000D01*
G75*
G02*
X128510000Y-142102500I0J-137500D01*
G01*
X128510000Y-142377500D01*
G75*
G02*
X128372500Y-142515000I-137500J0D01*
G01*
X127047500Y-142515000D01*
G75*
G02*
X126910000Y-142377500I0J137500D01*
G01*
G37*
%TD*%
D42*
%TO.C,U12*%
X190180000Y-193945000D03*
X188280000Y-193945000D03*
X189230000Y-195945000D03*
%TD*%
%TO.C,U20*%
G36*
G01*
X199935000Y-130947500D02*
X199935000Y-130672500D01*
G75*
G02*
X200072500Y-130535000I137500J0D01*
G01*
X201397500Y-130535000D01*
G75*
G02*
X201535000Y-130672500I0J-137500D01*
G01*
X201535000Y-130947500D01*
G75*
G02*
X201397500Y-131085000I-137500J0D01*
G01*
X200072500Y-131085000D01*
G75*
G02*
X199935000Y-130947500I0J137500D01*
G01*
G37*
G36*
G01*
X199935000Y-132217500D02*
X199935000Y-131942500D01*
G75*
G02*
X200072500Y-131805000I137500J0D01*
G01*
X201397500Y-131805000D01*
G75*
G02*
X201535000Y-131942500I0J-137500D01*
G01*
X201535000Y-132217500D01*
G75*
G02*
X201397500Y-132355000I-137500J0D01*
G01*
X200072500Y-132355000D01*
G75*
G02*
X199935000Y-132217500I0J137500D01*
G01*
G37*
G36*
G01*
X193435000Y-132217500D02*
X193435000Y-131942500D01*
G75*
G02*
X193572500Y-131805000I137500J0D01*
G01*
X194897500Y-131805000D01*
G75*
G02*
X195035000Y-131942500I0J-137500D01*
G01*
X195035000Y-132217500D01*
G75*
G02*
X194897500Y-132355000I-137500J0D01*
G01*
X193572500Y-132355000D01*
G75*
G02*
X193435000Y-132217500I0J137500D01*
G01*
G37*
G36*
G01*
X193435000Y-130947500D02*
X193435000Y-130672500D01*
G75*
G02*
X193572500Y-130535000I137500J0D01*
G01*
X194897500Y-130535000D01*
G75*
G02*
X195035000Y-130672500I0J-137500D01*
G01*
X195035000Y-130947500D01*
G75*
G02*
X194897500Y-131085000I-137500J0D01*
G01*
X193572500Y-131085000D01*
G75*
G02*
X193435000Y-130947500I0J137500D01*
G01*
G37*
%TD*%
D28*
%TO.C,TP13*%
X222885000Y-111760000D03*
%TD*%
D43*
%TO.C,K3*%
X165735000Y-115176300D03*
X165735000Y-129146300D03*
X165735000Y-134239000D03*
X165735000Y-145669000D03*
X165735000Y-150749000D03*
X155575000Y-150749000D03*
X155575000Y-145669000D03*
X155575000Y-134239000D03*
X155575000Y-129146300D03*
X155575000Y-115176300D03*
%TD*%
%TO.C,K4*%
X186055000Y-151523700D03*
X186055000Y-137553700D03*
X186055000Y-132461000D03*
X186055000Y-121031000D03*
X186055000Y-115951000D03*
X175895000Y-115951000D03*
X175895000Y-121031000D03*
X175895000Y-132461000D03*
X175895000Y-137553700D03*
X175895000Y-151523700D03*
%TD*%
D19*
%TO.C,J8*%
X298235000Y-81135000D03*
X298235000Y-85335000D03*
X298235000Y-89535000D03*
X292735000Y-81135000D03*
X292735000Y-85335000D03*
D20*
X292735000Y-89535000D03*
%TD*%
D19*
%TO.C,J2*%
X156110000Y-211799000D03*
X151910000Y-211799000D03*
X147710000Y-211799000D03*
X143510000Y-211799000D03*
X156110000Y-206299000D03*
X151910000Y-206299000D03*
X147710000Y-206299000D03*
D20*
X143510000Y-206299000D03*
%TD*%
D19*
%TO.C,J4*%
X129134000Y-210757000D03*
D20*
X129134000Y-205257000D03*
%TD*%
%TO.C,J21*%
X292735000Y-151765000D03*
D19*
X292735000Y-147565000D03*
X298235000Y-151765000D03*
X298235000Y-147565000D03*
%TD*%
D28*
%TO.C,TP15*%
X201066400Y-118364000D03*
%TD*%
%TO.C,TP16*%
X195580000Y-111760000D03*
%TD*%
D44*
%TO.C,C13*%
X200406000Y-64064000D03*
D45*
X200406000Y-67564000D03*
%TD*%
%TO.C,D1*%
G36*
G01*
X203015001Y-154490000D02*
X202114999Y-154490000D01*
G75*
G02*
X201865000Y-154240001I0J249999D01*
G01*
X201865000Y-153589999D01*
G75*
G02*
X202114999Y-153340000I249999J0D01*
G01*
X203015001Y-153340000D01*
G75*
G02*
X203265000Y-153589999I0J-249999D01*
G01*
X203265000Y-154240001D01*
G75*
G02*
X203015001Y-154490000I-249999J0D01*
G01*
G37*
G36*
G01*
X203015001Y-156540000D02*
X202114999Y-156540000D01*
G75*
G02*
X201865000Y-156290001I0J249999D01*
G01*
X201865000Y-155639999D01*
G75*
G02*
X202114999Y-155390000I249999J0D01*
G01*
X203015001Y-155390000D01*
G75*
G02*
X203265000Y-155639999I0J-249999D01*
G01*
X203265000Y-156290001D01*
G75*
G02*
X203015001Y-156540000I-249999J0D01*
G01*
G37*
%TD*%
%TO.C,D4*%
G36*
G01*
X192874001Y-156501000D02*
X191973999Y-156501000D01*
G75*
G02*
X191724000Y-156251001I0J249999D01*
G01*
X191724000Y-155600999D01*
G75*
G02*
X191973999Y-155351000I249999J0D01*
G01*
X192874001Y-155351000D01*
G75*
G02*
X193124000Y-155600999I0J-249999D01*
G01*
X193124000Y-156251001D01*
G75*
G02*
X192874001Y-156501000I-249999J0D01*
G01*
G37*
G36*
G01*
X192874001Y-154451000D02*
X191973999Y-154451000D01*
G75*
G02*
X191724000Y-154201001I0J249999D01*
G01*
X191724000Y-153550999D01*
G75*
G02*
X191973999Y-153301000I249999J0D01*
G01*
X192874001Y-153301000D01*
G75*
G02*
X193124000Y-153550999I0J-249999D01*
G01*
X193124000Y-154201001D01*
G75*
G02*
X192874001Y-154451000I-249999J0D01*
G01*
G37*
%TD*%
D46*
%TO.C,K1*%
X121920000Y-188595000D03*
D47*
X124460000Y-188595000D03*
D48*
X106680000Y-188595000D03*
X111760000Y-188595000D03*
%TD*%
D28*
%TO.C,TP17*%
X217982800Y-118059200D03*
%TD*%
%TO.C,U27*%
G36*
G01*
X143012500Y-164555000D02*
X142737500Y-164555000D01*
G75*
G02*
X142600000Y-164417500I0J137500D01*
G01*
X142600000Y-163092500D01*
G75*
G02*
X142737500Y-162955000I137500J0D01*
G01*
X143012500Y-162955000D01*
G75*
G02*
X143150000Y-163092500I0J-137500D01*
G01*
X143150000Y-164417500D01*
G75*
G02*
X143012500Y-164555000I-137500J0D01*
G01*
G37*
G36*
G01*
X144282500Y-164555000D02*
X144007500Y-164555000D01*
G75*
G02*
X143870000Y-164417500I0J137500D01*
G01*
X143870000Y-163092500D01*
G75*
G02*
X144007500Y-162955000I137500J0D01*
G01*
X144282500Y-162955000D01*
G75*
G02*
X144420000Y-163092500I0J-137500D01*
G01*
X144420000Y-164417500D01*
G75*
G02*
X144282500Y-164555000I-137500J0D01*
G01*
G37*
G36*
G01*
X144282500Y-171055000D02*
X144007500Y-171055000D01*
G75*
G02*
X143870000Y-170917500I0J137500D01*
G01*
X143870000Y-169592500D01*
G75*
G02*
X144007500Y-169455000I137500J0D01*
G01*
X144282500Y-169455000D01*
G75*
G02*
X144420000Y-169592500I0J-137500D01*
G01*
X144420000Y-170917500D01*
G75*
G02*
X144282500Y-171055000I-137500J0D01*
G01*
G37*
G36*
G01*
X143012500Y-171055000D02*
X142737500Y-171055000D01*
G75*
G02*
X142600000Y-170917500I0J137500D01*
G01*
X142600000Y-169592500D01*
G75*
G02*
X142737500Y-169455000I137500J0D01*
G01*
X143012500Y-169455000D01*
G75*
G02*
X143150000Y-169592500I0J-137500D01*
G01*
X143150000Y-170917500D01*
G75*
G02*
X143012500Y-171055000I-137500J0D01*
G01*
G37*
%TD*%
%TO.C,D5*%
G36*
G01*
X210443001Y-154490000D02*
X209542999Y-154490000D01*
G75*
G02*
X209293000Y-154240001I0J249999D01*
G01*
X209293000Y-153589999D01*
G75*
G02*
X209542999Y-153340000I249999J0D01*
G01*
X210443001Y-153340000D01*
G75*
G02*
X210693000Y-153589999I0J-249999D01*
G01*
X210693000Y-154240001D01*
G75*
G02*
X210443001Y-154490000I-249999J0D01*
G01*
G37*
G36*
G01*
X210443001Y-156540000D02*
X209542999Y-156540000D01*
G75*
G02*
X209293000Y-156290001I0J249999D01*
G01*
X209293000Y-155639999D01*
G75*
G02*
X209542999Y-155390000I249999J0D01*
G01*
X210443001Y-155390000D01*
G75*
G02*
X210693000Y-155639999I0J-249999D01*
G01*
X210693000Y-156290001D01*
G75*
G02*
X210443001Y-156540000I-249999J0D01*
G01*
G37*
%TD*%
%TO.C,D9*%
G36*
G01*
X206825001Y-156540000D02*
X205924999Y-156540000D01*
G75*
G02*
X205675000Y-156290001I0J249999D01*
G01*
X205675000Y-155639999D01*
G75*
G02*
X205924999Y-155390000I249999J0D01*
G01*
X206825001Y-155390000D01*
G75*
G02*
X207075000Y-155639999I0J-249999D01*
G01*
X207075000Y-156290001D01*
G75*
G02*
X206825001Y-156540000I-249999J0D01*
G01*
G37*
G36*
G01*
X206825001Y-154490000D02*
X205924999Y-154490000D01*
G75*
G02*
X205675000Y-154240001I0J249999D01*
G01*
X205675000Y-153589999D01*
G75*
G02*
X205924999Y-153340000I249999J0D01*
G01*
X206825001Y-153340000D01*
G75*
G02*
X207075000Y-153589999I0J-249999D01*
G01*
X207075000Y-154240001D01*
G75*
G02*
X206825001Y-154490000I-249999J0D01*
G01*
G37*
%TD*%
%TO.C,D10*%
G36*
G01*
X213810001Y-154490000D02*
X212909999Y-154490000D01*
G75*
G02*
X212660000Y-154240001I0J249999D01*
G01*
X212660000Y-153589999D01*
G75*
G02*
X212909999Y-153340000I249999J0D01*
G01*
X213810001Y-153340000D01*
G75*
G02*
X214060000Y-153589999I0J-249999D01*
G01*
X214060000Y-154240001D01*
G75*
G02*
X213810001Y-154490000I-249999J0D01*
G01*
G37*
G36*
G01*
X213810001Y-156540000D02*
X212909999Y-156540000D01*
G75*
G02*
X212660000Y-156290001I0J249999D01*
G01*
X212660000Y-155639999D01*
G75*
G02*
X212909999Y-155390000I249999J0D01*
G01*
X213810001Y-155390000D01*
G75*
G02*
X214060000Y-155639999I0J-249999D01*
G01*
X214060000Y-156290001D01*
G75*
G02*
X213810001Y-156540000I-249999J0D01*
G01*
G37*
%TD*%
%TO.C,D11*%
G36*
G01*
X196411001Y-154490000D02*
X195510999Y-154490000D01*
G75*
G02*
X195261000Y-154240001I0J249999D01*
G01*
X195261000Y-153589999D01*
G75*
G02*
X195510999Y-153340000I249999J0D01*
G01*
X196411001Y-153340000D01*
G75*
G02*
X196661000Y-153589999I0J-249999D01*
G01*
X196661000Y-154240001D01*
G75*
G02*
X196411001Y-154490000I-249999J0D01*
G01*
G37*
G36*
G01*
X196411001Y-156540000D02*
X195510999Y-156540000D01*
G75*
G02*
X195261000Y-156290001I0J249999D01*
G01*
X195261000Y-155639999D01*
G75*
G02*
X195510999Y-155390000I249999J0D01*
G01*
X196411001Y-155390000D01*
G75*
G02*
X196661000Y-155639999I0J-249999D01*
G01*
X196661000Y-156290001D01*
G75*
G02*
X196411001Y-156540000I-249999J0D01*
G01*
G37*
%TD*%
%TO.C,U28*%
G36*
G01*
X121731500Y-125012000D02*
X122006500Y-125012000D01*
G75*
G02*
X122144000Y-125149500I0J-137500D01*
G01*
X122144000Y-126474500D01*
G75*
G02*
X122006500Y-126612000I-137500J0D01*
G01*
X121731500Y-126612000D01*
G75*
G02*
X121594000Y-126474500I0J137500D01*
G01*
X121594000Y-125149500D01*
G75*
G02*
X121731500Y-125012000I137500J0D01*
G01*
G37*
G36*
G01*
X120461500Y-125012000D02*
X120736500Y-125012000D01*
G75*
G02*
X120874000Y-125149500I0J-137500D01*
G01*
X120874000Y-126474500D01*
G75*
G02*
X120736500Y-126612000I-137500J0D01*
G01*
X120461500Y-126612000D01*
G75*
G02*
X120324000Y-126474500I0J137500D01*
G01*
X120324000Y-125149500D01*
G75*
G02*
X120461500Y-125012000I137500J0D01*
G01*
G37*
G36*
G01*
X120461500Y-118512000D02*
X120736500Y-118512000D01*
G75*
G02*
X120874000Y-118649500I0J-137500D01*
G01*
X120874000Y-119974500D01*
G75*
G02*
X120736500Y-120112000I-137500J0D01*
G01*
X120461500Y-120112000D01*
G75*
G02*
X120324000Y-119974500I0J137500D01*
G01*
X120324000Y-118649500D01*
G75*
G02*
X120461500Y-118512000I137500J0D01*
G01*
G37*
G36*
G01*
X121731500Y-118512000D02*
X122006500Y-118512000D01*
G75*
G02*
X122144000Y-118649500I0J-137500D01*
G01*
X122144000Y-119974500D01*
G75*
G02*
X122006500Y-120112000I-137500J0D01*
G01*
X121731500Y-120112000D01*
G75*
G02*
X121594000Y-119974500I0J137500D01*
G01*
X121594000Y-118649500D01*
G75*
G02*
X121731500Y-118512000I137500J0D01*
G01*
G37*
%TD*%
D16*
%TO.C,JP6*%
X265430000Y-212090000D03*
D15*
X267970000Y-212090000D03*
%TD*%
%TO.C,JP7*%
X267970000Y-204927200D03*
D16*
X265430000Y-204927200D03*
%TD*%
D15*
%TO.C,JP8*%
X267970000Y-197967600D03*
D16*
X265430000Y-197967600D03*
%TD*%
D15*
%TO.C,JP11*%
X153035000Y-107315000D03*
D16*
X153035000Y-104775000D03*
%TD*%
D32*
%TO.C,IC2*%
X216220000Y-201280000D03*
X217170000Y-201280000D03*
X218120000Y-201280000D03*
X218120000Y-198770000D03*
X216220000Y-198770000D03*
%TD*%
D49*
%TO.C,RV1*%
X203708000Y-198755000D03*
X203708000Y-201295000D03*
X203708000Y-203835000D03*
%TD*%
%TO.C,U19*%
G36*
G01*
X172140000Y-180120000D02*
X171940000Y-180120000D01*
G75*
G02*
X171840000Y-180020000I0J100000D01*
G01*
X171840000Y-178745000D01*
G75*
G02*
X171940000Y-178645000I100000J0D01*
G01*
X172140000Y-178645000D01*
G75*
G02*
X172240000Y-178745000I0J-100000D01*
G01*
X172240000Y-180020000D01*
G75*
G02*
X172140000Y-180120000I-100000J0D01*
G01*
G37*
G36*
G01*
X172790000Y-180120000D02*
X172590000Y-180120000D01*
G75*
G02*
X172490000Y-180020000I0J100000D01*
G01*
X172490000Y-178745000D01*
G75*
G02*
X172590000Y-178645000I100000J0D01*
G01*
X172790000Y-178645000D01*
G75*
G02*
X172890000Y-178745000I0J-100000D01*
G01*
X172890000Y-180020000D01*
G75*
G02*
X172790000Y-180120000I-100000J0D01*
G01*
G37*
G36*
G01*
X173440000Y-180120000D02*
X173240000Y-180120000D01*
G75*
G02*
X173140000Y-180020000I0J100000D01*
G01*
X173140000Y-178745000D01*
G75*
G02*
X173240000Y-178645000I100000J0D01*
G01*
X173440000Y-178645000D01*
G75*
G02*
X173540000Y-178745000I0J-100000D01*
G01*
X173540000Y-180020000D01*
G75*
G02*
X173440000Y-180120000I-100000J0D01*
G01*
G37*
G36*
G01*
X174090000Y-180120000D02*
X173890000Y-180120000D01*
G75*
G02*
X173790000Y-180020000I0J100000D01*
G01*
X173790000Y-178745000D01*
G75*
G02*
X173890000Y-178645000I100000J0D01*
G01*
X174090000Y-178645000D01*
G75*
G02*
X174190000Y-178745000I0J-100000D01*
G01*
X174190000Y-180020000D01*
G75*
G02*
X174090000Y-180120000I-100000J0D01*
G01*
G37*
G36*
G01*
X174740000Y-180120000D02*
X174540000Y-180120000D01*
G75*
G02*
X174440000Y-180020000I0J100000D01*
G01*
X174440000Y-178745000D01*
G75*
G02*
X174540000Y-178645000I100000J0D01*
G01*
X174740000Y-178645000D01*
G75*
G02*
X174840000Y-178745000I0J-100000D01*
G01*
X174840000Y-180020000D01*
G75*
G02*
X174740000Y-180120000I-100000J0D01*
G01*
G37*
G36*
G01*
X175390000Y-180120000D02*
X175190000Y-180120000D01*
G75*
G02*
X175090000Y-180020000I0J100000D01*
G01*
X175090000Y-178745000D01*
G75*
G02*
X175190000Y-178645000I100000J0D01*
G01*
X175390000Y-178645000D01*
G75*
G02*
X175490000Y-178745000I0J-100000D01*
G01*
X175490000Y-180020000D01*
G75*
G02*
X175390000Y-180120000I-100000J0D01*
G01*
G37*
G36*
G01*
X176040000Y-180120000D02*
X175840000Y-180120000D01*
G75*
G02*
X175740000Y-180020000I0J100000D01*
G01*
X175740000Y-178745000D01*
G75*
G02*
X175840000Y-178645000I100000J0D01*
G01*
X176040000Y-178645000D01*
G75*
G02*
X176140000Y-178745000I0J-100000D01*
G01*
X176140000Y-180020000D01*
G75*
G02*
X176040000Y-180120000I-100000J0D01*
G01*
G37*
G36*
G01*
X176040000Y-185845000D02*
X175840000Y-185845000D01*
G75*
G02*
X175740000Y-185745000I0J100000D01*
G01*
X175740000Y-184470000D01*
G75*
G02*
X175840000Y-184370000I100000J0D01*
G01*
X176040000Y-184370000D01*
G75*
G02*
X176140000Y-184470000I0J-100000D01*
G01*
X176140000Y-185745000D01*
G75*
G02*
X176040000Y-185845000I-100000J0D01*
G01*
G37*
G36*
G01*
X175390000Y-185845000D02*
X175190000Y-185845000D01*
G75*
G02*
X175090000Y-185745000I0J100000D01*
G01*
X175090000Y-184470000D01*
G75*
G02*
X175190000Y-184370000I100000J0D01*
G01*
X175390000Y-184370000D01*
G75*
G02*
X175490000Y-184470000I0J-100000D01*
G01*
X175490000Y-185745000D01*
G75*
G02*
X175390000Y-185845000I-100000J0D01*
G01*
G37*
G36*
G01*
X174740000Y-185845000D02*
X174540000Y-185845000D01*
G75*
G02*
X174440000Y-185745000I0J100000D01*
G01*
X174440000Y-184470000D01*
G75*
G02*
X174540000Y-184370000I100000J0D01*
G01*
X174740000Y-184370000D01*
G75*
G02*
X174840000Y-184470000I0J-100000D01*
G01*
X174840000Y-185745000D01*
G75*
G02*
X174740000Y-185845000I-100000J0D01*
G01*
G37*
G36*
G01*
X174090000Y-185845000D02*
X173890000Y-185845000D01*
G75*
G02*
X173790000Y-185745000I0J100000D01*
G01*
X173790000Y-184470000D01*
G75*
G02*
X173890000Y-184370000I100000J0D01*
G01*
X174090000Y-184370000D01*
G75*
G02*
X174190000Y-184470000I0J-100000D01*
G01*
X174190000Y-185745000D01*
G75*
G02*
X174090000Y-185845000I-100000J0D01*
G01*
G37*
G36*
G01*
X173440000Y-185845000D02*
X173240000Y-185845000D01*
G75*
G02*
X173140000Y-185745000I0J100000D01*
G01*
X173140000Y-184470000D01*
G75*
G02*
X173240000Y-184370000I100000J0D01*
G01*
X173440000Y-184370000D01*
G75*
G02*
X173540000Y-184470000I0J-100000D01*
G01*
X173540000Y-185745000D01*
G75*
G02*
X173440000Y-185845000I-100000J0D01*
G01*
G37*
G36*
G01*
X172790000Y-185845000D02*
X172590000Y-185845000D01*
G75*
G02*
X172490000Y-185745000I0J100000D01*
G01*
X172490000Y-184470000D01*
G75*
G02*
X172590000Y-184370000I100000J0D01*
G01*
X172790000Y-184370000D01*
G75*
G02*
X172890000Y-184470000I0J-100000D01*
G01*
X172890000Y-185745000D01*
G75*
G02*
X172790000Y-185845000I-100000J0D01*
G01*
G37*
G36*
G01*
X172140000Y-185845000D02*
X171940000Y-185845000D01*
G75*
G02*
X171840000Y-185745000I0J100000D01*
G01*
X171840000Y-184470000D01*
G75*
G02*
X171940000Y-184370000I100000J0D01*
G01*
X172140000Y-184370000D01*
G75*
G02*
X172240000Y-184470000I0J-100000D01*
G01*
X172240000Y-185745000D01*
G75*
G02*
X172140000Y-185845000I-100000J0D01*
G01*
G37*
%TD*%
%TO.C,U42*%
G36*
G01*
X163140000Y-178655000D02*
X163340000Y-178655000D01*
G75*
G02*
X163440000Y-178755000I0J-100000D01*
G01*
X163440000Y-180030000D01*
G75*
G02*
X163340000Y-180130000I-100000J0D01*
G01*
X163140000Y-180130000D01*
G75*
G02*
X163040000Y-180030000I0J100000D01*
G01*
X163040000Y-178755000D01*
G75*
G02*
X163140000Y-178655000I100000J0D01*
G01*
G37*
G36*
G01*
X162490000Y-178655000D02*
X162690000Y-178655000D01*
G75*
G02*
X162790000Y-178755000I0J-100000D01*
G01*
X162790000Y-180030000D01*
G75*
G02*
X162690000Y-180130000I-100000J0D01*
G01*
X162490000Y-180130000D01*
G75*
G02*
X162390000Y-180030000I0J100000D01*
G01*
X162390000Y-178755000D01*
G75*
G02*
X162490000Y-178655000I100000J0D01*
G01*
G37*
G36*
G01*
X161840000Y-178655000D02*
X162040000Y-178655000D01*
G75*
G02*
X162140000Y-178755000I0J-100000D01*
G01*
X162140000Y-180030000D01*
G75*
G02*
X162040000Y-180130000I-100000J0D01*
G01*
X161840000Y-180130000D01*
G75*
G02*
X161740000Y-180030000I0J100000D01*
G01*
X161740000Y-178755000D01*
G75*
G02*
X161840000Y-178655000I100000J0D01*
G01*
G37*
G36*
G01*
X161190000Y-178655000D02*
X161390000Y-178655000D01*
G75*
G02*
X161490000Y-178755000I0J-100000D01*
G01*
X161490000Y-180030000D01*
G75*
G02*
X161390000Y-180130000I-100000J0D01*
G01*
X161190000Y-180130000D01*
G75*
G02*
X161090000Y-180030000I0J100000D01*
G01*
X161090000Y-178755000D01*
G75*
G02*
X161190000Y-178655000I100000J0D01*
G01*
G37*
G36*
G01*
X160540000Y-178655000D02*
X160740000Y-178655000D01*
G75*
G02*
X160840000Y-178755000I0J-100000D01*
G01*
X160840000Y-180030000D01*
G75*
G02*
X160740000Y-180130000I-100000J0D01*
G01*
X160540000Y-180130000D01*
G75*
G02*
X160440000Y-180030000I0J100000D01*
G01*
X160440000Y-178755000D01*
G75*
G02*
X160540000Y-178655000I100000J0D01*
G01*
G37*
G36*
G01*
X159890000Y-178655000D02*
X160090000Y-178655000D01*
G75*
G02*
X160190000Y-178755000I0J-100000D01*
G01*
X160190000Y-180030000D01*
G75*
G02*
X160090000Y-180130000I-100000J0D01*
G01*
X159890000Y-180130000D01*
G75*
G02*
X159790000Y-180030000I0J100000D01*
G01*
X159790000Y-178755000D01*
G75*
G02*
X159890000Y-178655000I100000J0D01*
G01*
G37*
G36*
G01*
X159240000Y-178655000D02*
X159440000Y-178655000D01*
G75*
G02*
X159540000Y-178755000I0J-100000D01*
G01*
X159540000Y-180030000D01*
G75*
G02*
X159440000Y-180130000I-100000J0D01*
G01*
X159240000Y-180130000D01*
G75*
G02*
X159140000Y-180030000I0J100000D01*
G01*
X159140000Y-178755000D01*
G75*
G02*
X159240000Y-178655000I100000J0D01*
G01*
G37*
G36*
G01*
X159240000Y-172930000D02*
X159440000Y-172930000D01*
G75*
G02*
X159540000Y-173030000I0J-100000D01*
G01*
X159540000Y-174305000D01*
G75*
G02*
X159440000Y-174405000I-100000J0D01*
G01*
X159240000Y-174405000D01*
G75*
G02*
X159140000Y-174305000I0J100000D01*
G01*
X159140000Y-173030000D01*
G75*
G02*
X159240000Y-172930000I100000J0D01*
G01*
G37*
G36*
G01*
X159890000Y-172930000D02*
X160090000Y-172930000D01*
G75*
G02*
X160190000Y-173030000I0J-100000D01*
G01*
X160190000Y-174305000D01*
G75*
G02*
X160090000Y-174405000I-100000J0D01*
G01*
X159890000Y-174405000D01*
G75*
G02*
X159790000Y-174305000I0J100000D01*
G01*
X159790000Y-173030000D01*
G75*
G02*
X159890000Y-172930000I100000J0D01*
G01*
G37*
G36*
G01*
X160540000Y-172930000D02*
X160740000Y-172930000D01*
G75*
G02*
X160840000Y-173030000I0J-100000D01*
G01*
X160840000Y-174305000D01*
G75*
G02*
X160740000Y-174405000I-100000J0D01*
G01*
X160540000Y-174405000D01*
G75*
G02*
X160440000Y-174305000I0J100000D01*
G01*
X160440000Y-173030000D01*
G75*
G02*
X160540000Y-172930000I100000J0D01*
G01*
G37*
G36*
G01*
X161190000Y-172930000D02*
X161390000Y-172930000D01*
G75*
G02*
X161490000Y-173030000I0J-100000D01*
G01*
X161490000Y-174305000D01*
G75*
G02*
X161390000Y-174405000I-100000J0D01*
G01*
X161190000Y-174405000D01*
G75*
G02*
X161090000Y-174305000I0J100000D01*
G01*
X161090000Y-173030000D01*
G75*
G02*
X161190000Y-172930000I100000J0D01*
G01*
G37*
G36*
G01*
X161840000Y-172930000D02*
X162040000Y-172930000D01*
G75*
G02*
X162140000Y-173030000I0J-100000D01*
G01*
X162140000Y-174305000D01*
G75*
G02*
X162040000Y-174405000I-100000J0D01*
G01*
X161840000Y-174405000D01*
G75*
G02*
X161740000Y-174305000I0J100000D01*
G01*
X161740000Y-173030000D01*
G75*
G02*
X161840000Y-172930000I100000J0D01*
G01*
G37*
G36*
G01*
X162490000Y-172930000D02*
X162690000Y-172930000D01*
G75*
G02*
X162790000Y-173030000I0J-100000D01*
G01*
X162790000Y-174305000D01*
G75*
G02*
X162690000Y-174405000I-100000J0D01*
G01*
X162490000Y-174405000D01*
G75*
G02*
X162390000Y-174305000I0J100000D01*
G01*
X162390000Y-173030000D01*
G75*
G02*
X162490000Y-172930000I100000J0D01*
G01*
G37*
G36*
G01*
X163140000Y-172930000D02*
X163340000Y-172930000D01*
G75*
G02*
X163440000Y-173030000I0J-100000D01*
G01*
X163440000Y-174305000D01*
G75*
G02*
X163340000Y-174405000I-100000J0D01*
G01*
X163140000Y-174405000D01*
G75*
G02*
X163040000Y-174305000I0J100000D01*
G01*
X163040000Y-173030000D01*
G75*
G02*
X163140000Y-172930000I100000J0D01*
G01*
G37*
%TD*%
D15*
%TO.C,JP10*%
X149225000Y-107315000D03*
D16*
X149225000Y-104775000D03*
%TD*%
D15*
%TO.C,JP13*%
X161290000Y-107315000D03*
D16*
X161290000Y-104775000D03*
%TD*%
D15*
%TO.C,JP15*%
X169418000Y-107315000D03*
X169418000Y-104775000D03*
D16*
X169418000Y-102235000D03*
%TD*%
D28*
%TO.C,TP14*%
X147878800Y-183946800D03*
%TD*%
D50*
%TO.C,U9*%
X135255000Y-203150000D03*
D51*
X132955000Y-196900000D03*
X135255000Y-196900000D03*
X137555000Y-196900000D03*
%TD*%
%TO.C,D6*%
G36*
G01*
X118945001Y-210355000D02*
X118044999Y-210355000D01*
G75*
G02*
X117795000Y-210105001I0J249999D01*
G01*
X117795000Y-209454999D01*
G75*
G02*
X118044999Y-209205000I249999J0D01*
G01*
X118945001Y-209205000D01*
G75*
G02*
X119195000Y-209454999I0J-249999D01*
G01*
X119195000Y-210105001D01*
G75*
G02*
X118945001Y-210355000I-249999J0D01*
G01*
G37*
G36*
G01*
X118945001Y-212405000D02*
X118044999Y-212405000D01*
G75*
G02*
X117795000Y-212155001I0J249999D01*
G01*
X117795000Y-211504999D01*
G75*
G02*
X118044999Y-211255000I249999J0D01*
G01*
X118945001Y-211255000D01*
G75*
G02*
X119195000Y-211504999I0J-249999D01*
G01*
X119195000Y-212155001D01*
G75*
G02*
X118945001Y-212405000I-249999J0D01*
G01*
G37*
%TD*%
%TO.C,D15*%
G36*
G01*
X191331001Y-212910000D02*
X190430999Y-212910000D01*
G75*
G02*
X190181000Y-212660001I0J249999D01*
G01*
X190181000Y-212009999D01*
G75*
G02*
X190430999Y-211760000I249999J0D01*
G01*
X191331001Y-211760000D01*
G75*
G02*
X191581000Y-212009999I0J-249999D01*
G01*
X191581000Y-212660001D01*
G75*
G02*
X191331001Y-212910000I-249999J0D01*
G01*
G37*
G36*
G01*
X191331001Y-214960000D02*
X190430999Y-214960000D01*
G75*
G02*
X190181000Y-214710001I0J249999D01*
G01*
X190181000Y-214059999D01*
G75*
G02*
X190430999Y-213810000I249999J0D01*
G01*
X191331001Y-213810000D01*
G75*
G02*
X191581000Y-214059999I0J-249999D01*
G01*
X191581000Y-214710001D01*
G75*
G02*
X191331001Y-214960000I-249999J0D01*
G01*
G37*
%TD*%
%TO.C,D16*%
G36*
G01*
X195141001Y-214960000D02*
X194240999Y-214960000D01*
G75*
G02*
X193991000Y-214710001I0J249999D01*
G01*
X193991000Y-214059999D01*
G75*
G02*
X194240999Y-213810000I249999J0D01*
G01*
X195141001Y-213810000D01*
G75*
G02*
X195391000Y-214059999I0J-249999D01*
G01*
X195391000Y-214710001D01*
G75*
G02*
X195141001Y-214960000I-249999J0D01*
G01*
G37*
G36*
G01*
X195141001Y-212910000D02*
X194240999Y-212910000D01*
G75*
G02*
X193991000Y-212660001I0J249999D01*
G01*
X193991000Y-212009999D01*
G75*
G02*
X194240999Y-211760000I249999J0D01*
G01*
X195141001Y-211760000D01*
G75*
G02*
X195391000Y-212009999I0J-249999D01*
G01*
X195391000Y-212660001D01*
G75*
G02*
X195141001Y-212910000I-249999J0D01*
G01*
G37*
%TD*%
%TO.C,D17*%
G36*
G01*
X198951001Y-212910000D02*
X198050999Y-212910000D01*
G75*
G02*
X197801000Y-212660001I0J249999D01*
G01*
X197801000Y-212009999D01*
G75*
G02*
X198050999Y-211760000I249999J0D01*
G01*
X198951001Y-211760000D01*
G75*
G02*
X199201000Y-212009999I0J-249999D01*
G01*
X199201000Y-212660001D01*
G75*
G02*
X198951001Y-212910000I-249999J0D01*
G01*
G37*
G36*
G01*
X198951001Y-214960000D02*
X198050999Y-214960000D01*
G75*
G02*
X197801000Y-214710001I0J249999D01*
G01*
X197801000Y-214059999D01*
G75*
G02*
X198050999Y-213810000I249999J0D01*
G01*
X198951001Y-213810000D01*
G75*
G02*
X199201000Y-214059999I0J-249999D01*
G01*
X199201000Y-214710001D01*
G75*
G02*
X198951001Y-214960000I-249999J0D01*
G01*
G37*
%TD*%
D19*
%TO.C,J3*%
X168284000Y-211748000D03*
X164084000Y-211748000D03*
X168284000Y-206248000D03*
D20*
X164084000Y-206248000D03*
%TD*%
D13*
%TO.C,SW2*%
X173759000Y-156083000D03*
X173759000Y-160583000D03*
X167259000Y-156083000D03*
X167259000Y-160583000D03*
%TD*%
%TO.C,SW3*%
X178308000Y-160583000D03*
X178308000Y-156083000D03*
X184808000Y-160583000D03*
X184808000Y-156083000D03*
%TD*%
%TO.C,SW4*%
X123571000Y-65079000D03*
X123571000Y-60579000D03*
X130071000Y-65079000D03*
X130071000Y-60579000D03*
%TD*%
D52*
%TO.C,U43*%
X242366800Y-80854000D03*
X242366800Y-81504000D03*
X242366800Y-82154000D03*
X242366800Y-82804000D03*
X242366800Y-83454000D03*
X242366800Y-84104000D03*
X242366800Y-84754000D03*
X242366800Y-85404000D03*
X236626800Y-85404000D03*
X236626800Y-84754000D03*
X236626800Y-84104000D03*
X236626800Y-83454000D03*
X236626800Y-82804000D03*
X236626800Y-82154000D03*
X236626800Y-81504000D03*
X236626800Y-80854000D03*
%TD*%
D16*
%TO.C,JP14*%
X165354000Y-104775000D03*
D15*
X165354000Y-107315000D03*
%TD*%
D16*
%TO.C,JP2*%
X164465000Y-194818000D03*
D15*
X164465000Y-197358000D03*
X164465000Y-199898000D03*
%TD*%
D48*
%TO.C,J10*%
X103925000Y-73330000D03*
D53*
X106695000Y-69850000D03*
G36*
G01*
X110795000Y-68000000D02*
X113995000Y-68000000D01*
G75*
G02*
X114245000Y-68250000I0J-250000D01*
G01*
X114245000Y-71450000D01*
G75*
G02*
X113995000Y-71700000I-250000J0D01*
G01*
X110795000Y-71700000D01*
G75*
G02*
X110545000Y-71450000I0J250000D01*
G01*
X110545000Y-68250000D01*
G75*
G02*
X110795000Y-68000000I250000J0D01*
G01*
G37*
%TD*%
%TO.C,C1*%
G36*
G01*
X187986000Y-199738000D02*
X187986000Y-198788000D01*
G75*
G02*
X188236000Y-198538000I250000J0D01*
G01*
X188911000Y-198538000D01*
G75*
G02*
X189161000Y-198788000I0J-250000D01*
G01*
X189161000Y-199738000D01*
G75*
G02*
X188911000Y-199988000I-250000J0D01*
G01*
X188236000Y-199988000D01*
G75*
G02*
X187986000Y-199738000I0J250000D01*
G01*
G37*
G36*
G01*
X190061000Y-199738000D02*
X190061000Y-198788000D01*
G75*
G02*
X190311000Y-198538000I250000J0D01*
G01*
X190986000Y-198538000D01*
G75*
G02*
X191236000Y-198788000I0J-250000D01*
G01*
X191236000Y-199738000D01*
G75*
G02*
X190986000Y-199988000I-250000J0D01*
G01*
X190311000Y-199988000D01*
G75*
G02*
X190061000Y-199738000I0J250000D01*
G01*
G37*
%TD*%
%TO.C,C2*%
G36*
G01*
X114072000Y-153510000D02*
X114072000Y-152560000D01*
G75*
G02*
X114322000Y-152310000I250000J0D01*
G01*
X114997000Y-152310000D01*
G75*
G02*
X115247000Y-152560000I0J-250000D01*
G01*
X115247000Y-153510000D01*
G75*
G02*
X114997000Y-153760000I-250000J0D01*
G01*
X114322000Y-153760000D01*
G75*
G02*
X114072000Y-153510000I0J250000D01*
G01*
G37*
G36*
G01*
X116147000Y-153510000D02*
X116147000Y-152560000D01*
G75*
G02*
X116397000Y-152310000I250000J0D01*
G01*
X117072000Y-152310000D01*
G75*
G02*
X117322000Y-152560000I0J-250000D01*
G01*
X117322000Y-153510000D01*
G75*
G02*
X117072000Y-153760000I-250000J0D01*
G01*
X116397000Y-153760000D01*
G75*
G02*
X116147000Y-153510000I0J250000D01*
G01*
G37*
%TD*%
%TO.C,C3*%
G36*
G01*
X245390000Y-98900000D02*
X245390000Y-97950000D01*
G75*
G02*
X245640000Y-97700000I250000J0D01*
G01*
X246315000Y-97700000D01*
G75*
G02*
X246565000Y-97950000I0J-250000D01*
G01*
X246565000Y-98900000D01*
G75*
G02*
X246315000Y-99150000I-250000J0D01*
G01*
X245640000Y-99150000D01*
G75*
G02*
X245390000Y-98900000I0J250000D01*
G01*
G37*
G36*
G01*
X247465000Y-98900000D02*
X247465000Y-97950000D01*
G75*
G02*
X247715000Y-97700000I250000J0D01*
G01*
X248390000Y-97700000D01*
G75*
G02*
X248640000Y-97950000I0J-250000D01*
G01*
X248640000Y-98900000D01*
G75*
G02*
X248390000Y-99150000I-250000J0D01*
G01*
X247715000Y-99150000D01*
G75*
G02*
X247465000Y-98900000I0J250000D01*
G01*
G37*
%TD*%
%TO.C,C5*%
G36*
G01*
X157005000Y-174905000D02*
X157955000Y-174905000D01*
G75*
G02*
X158205000Y-175155000I0J-250000D01*
G01*
X158205000Y-175830000D01*
G75*
G02*
X157955000Y-176080000I-250000J0D01*
G01*
X157005000Y-176080000D01*
G75*
G02*
X156755000Y-175830000I0J250000D01*
G01*
X156755000Y-175155000D01*
G75*
G02*
X157005000Y-174905000I250000J0D01*
G01*
G37*
G36*
G01*
X157005000Y-176980000D02*
X157955000Y-176980000D01*
G75*
G02*
X158205000Y-177230000I0J-250000D01*
G01*
X158205000Y-177905000D01*
G75*
G02*
X157955000Y-178155000I-250000J0D01*
G01*
X157005000Y-178155000D01*
G75*
G02*
X156755000Y-177905000I0J250000D01*
G01*
X156755000Y-177230000D01*
G75*
G02*
X157005000Y-176980000I250000J0D01*
G01*
G37*
%TD*%
%TO.C,C7*%
G36*
G01*
X252933800Y-113809800D02*
X252933800Y-112859800D01*
G75*
G02*
X253183800Y-112609800I250000J0D01*
G01*
X253858800Y-112609800D01*
G75*
G02*
X254108800Y-112859800I0J-250000D01*
G01*
X254108800Y-113809800D01*
G75*
G02*
X253858800Y-114059800I-250000J0D01*
G01*
X253183800Y-114059800D01*
G75*
G02*
X252933800Y-113809800I0J250000D01*
G01*
G37*
G36*
G01*
X255008800Y-113809800D02*
X255008800Y-112859800D01*
G75*
G02*
X255258800Y-112609800I250000J0D01*
G01*
X255933800Y-112609800D01*
G75*
G02*
X256183800Y-112859800I0J-250000D01*
G01*
X256183800Y-113809800D01*
G75*
G02*
X255933800Y-114059800I-250000J0D01*
G01*
X255258800Y-114059800D01*
G75*
G02*
X255008800Y-113809800I0J250000D01*
G01*
G37*
%TD*%
%TO.C,C8*%
G36*
G01*
X219349000Y-97177100D02*
X220299000Y-97177100D01*
G75*
G02*
X220549000Y-97427100I0J-250000D01*
G01*
X220549000Y-98102100D01*
G75*
G02*
X220299000Y-98352100I-250000J0D01*
G01*
X219349000Y-98352100D01*
G75*
G02*
X219099000Y-98102100I0J250000D01*
G01*
X219099000Y-97427100D01*
G75*
G02*
X219349000Y-97177100I250000J0D01*
G01*
G37*
G36*
G01*
X219349000Y-95102100D02*
X220299000Y-95102100D01*
G75*
G02*
X220549000Y-95352100I0J-250000D01*
G01*
X220549000Y-96027100D01*
G75*
G02*
X220299000Y-96277100I-250000J0D01*
G01*
X219349000Y-96277100D01*
G75*
G02*
X219099000Y-96027100I0J250000D01*
G01*
X219099000Y-95352100D01*
G75*
G02*
X219349000Y-95102100I250000J0D01*
G01*
G37*
%TD*%
%TO.C,C10*%
G36*
G01*
X228499000Y-107663000D02*
X228499000Y-106713000D01*
G75*
G02*
X228749000Y-106463000I250000J0D01*
G01*
X229424000Y-106463000D01*
G75*
G02*
X229674000Y-106713000I0J-250000D01*
G01*
X229674000Y-107663000D01*
G75*
G02*
X229424000Y-107913000I-250000J0D01*
G01*
X228749000Y-107913000D01*
G75*
G02*
X228499000Y-107663000I0J250000D01*
G01*
G37*
G36*
G01*
X230574000Y-107663000D02*
X230574000Y-106713000D01*
G75*
G02*
X230824000Y-106463000I250000J0D01*
G01*
X231499000Y-106463000D01*
G75*
G02*
X231749000Y-106713000I0J-250000D01*
G01*
X231749000Y-107663000D01*
G75*
G02*
X231499000Y-107913000I-250000J0D01*
G01*
X230824000Y-107913000D01*
G75*
G02*
X230574000Y-107663000I0J250000D01*
G01*
G37*
%TD*%
%TO.C,C11*%
G36*
G01*
X225588500Y-99245400D02*
X225588500Y-100195400D01*
G75*
G02*
X225338500Y-100445400I-250000J0D01*
G01*
X224663500Y-100445400D01*
G75*
G02*
X224413500Y-100195400I0J250000D01*
G01*
X224413500Y-99245400D01*
G75*
G02*
X224663500Y-98995400I250000J0D01*
G01*
X225338500Y-98995400D01*
G75*
G02*
X225588500Y-99245400I0J-250000D01*
G01*
G37*
G36*
G01*
X227663500Y-99245400D02*
X227663500Y-100195400D01*
G75*
G02*
X227413500Y-100445400I-250000J0D01*
G01*
X226738500Y-100445400D01*
G75*
G02*
X226488500Y-100195400I0J250000D01*
G01*
X226488500Y-99245400D01*
G75*
G02*
X226738500Y-98995400I250000J0D01*
G01*
X227413500Y-98995400D01*
G75*
G02*
X227663500Y-99245400I0J-250000D01*
G01*
G37*
%TD*%
%TO.C,C12*%
G36*
G01*
X199110000Y-184945000D02*
X199110000Y-185895000D01*
G75*
G02*
X198860000Y-186145000I-250000J0D01*
G01*
X198185000Y-186145000D01*
G75*
G02*
X197935000Y-185895000I0J250000D01*
G01*
X197935000Y-184945000D01*
G75*
G02*
X198185000Y-184695000I250000J0D01*
G01*
X198860000Y-184695000D01*
G75*
G02*
X199110000Y-184945000I0J-250000D01*
G01*
G37*
G36*
G01*
X197035000Y-184945000D02*
X197035000Y-185895000D01*
G75*
G02*
X196785000Y-186145000I-250000J0D01*
G01*
X196110000Y-186145000D01*
G75*
G02*
X195860000Y-185895000I0J250000D01*
G01*
X195860000Y-184945000D01*
G75*
G02*
X196110000Y-184695000I250000J0D01*
G01*
X196785000Y-184695000D01*
G75*
G02*
X197035000Y-184945000I0J-250000D01*
G01*
G37*
%TD*%
%TO.C,C15*%
G36*
G01*
X231201000Y-99061800D02*
X232151000Y-99061800D01*
G75*
G02*
X232401000Y-99311800I0J-250000D01*
G01*
X232401000Y-99986800D01*
G75*
G02*
X232151000Y-100236800I-250000J0D01*
G01*
X231201000Y-100236800D01*
G75*
G02*
X230951000Y-99986800I0J250000D01*
G01*
X230951000Y-99311800D01*
G75*
G02*
X231201000Y-99061800I250000J0D01*
G01*
G37*
G36*
G01*
X231201000Y-96986800D02*
X232151000Y-96986800D01*
G75*
G02*
X232401000Y-97236800I0J-250000D01*
G01*
X232401000Y-97911800D01*
G75*
G02*
X232151000Y-98161800I-250000J0D01*
G01*
X231201000Y-98161800D01*
G75*
G02*
X230951000Y-97911800I0J250000D01*
G01*
X230951000Y-97236800D01*
G75*
G02*
X231201000Y-96986800I250000J0D01*
G01*
G37*
%TD*%
%TO.C,C16*%
G36*
G01*
X211955400Y-84356700D02*
X211005400Y-84356700D01*
G75*
G02*
X210755400Y-84106700I0J250000D01*
G01*
X210755400Y-83431700D01*
G75*
G02*
X211005400Y-83181700I250000J0D01*
G01*
X211955400Y-83181700D01*
G75*
G02*
X212205400Y-83431700I0J-250000D01*
G01*
X212205400Y-84106700D01*
G75*
G02*
X211955400Y-84356700I-250000J0D01*
G01*
G37*
G36*
G01*
X211955400Y-82281700D02*
X211005400Y-82281700D01*
G75*
G02*
X210755400Y-82031700I0J250000D01*
G01*
X210755400Y-81356700D01*
G75*
G02*
X211005400Y-81106700I250000J0D01*
G01*
X211955400Y-81106700D01*
G75*
G02*
X212205400Y-81356700I0J-250000D01*
G01*
X212205400Y-82031700D01*
G75*
G02*
X211955400Y-82281700I-250000J0D01*
G01*
G37*
%TD*%
%TO.C,C17*%
G36*
G01*
X279215000Y-150970000D02*
X279215000Y-150020000D01*
G75*
G02*
X279465000Y-149770000I250000J0D01*
G01*
X280140000Y-149770000D01*
G75*
G02*
X280390000Y-150020000I0J-250000D01*
G01*
X280390000Y-150970000D01*
G75*
G02*
X280140000Y-151220000I-250000J0D01*
G01*
X279465000Y-151220000D01*
G75*
G02*
X279215000Y-150970000I0J250000D01*
G01*
G37*
G36*
G01*
X277140000Y-150970000D02*
X277140000Y-150020000D01*
G75*
G02*
X277390000Y-149770000I250000J0D01*
G01*
X278065000Y-149770000D01*
G75*
G02*
X278315000Y-150020000I0J-250000D01*
G01*
X278315000Y-150970000D01*
G75*
G02*
X278065000Y-151220000I-250000J0D01*
G01*
X277390000Y-151220000D01*
G75*
G02*
X277140000Y-150970000I0J250000D01*
G01*
G37*
%TD*%
%TO.C,C18*%
G36*
G01*
X132148600Y-85588400D02*
X131198600Y-85588400D01*
G75*
G02*
X130948600Y-85338400I0J250000D01*
G01*
X130948600Y-84663400D01*
G75*
G02*
X131198600Y-84413400I250000J0D01*
G01*
X132148600Y-84413400D01*
G75*
G02*
X132398600Y-84663400I0J-250000D01*
G01*
X132398600Y-85338400D01*
G75*
G02*
X132148600Y-85588400I-250000J0D01*
G01*
G37*
G36*
G01*
X132148600Y-83513400D02*
X131198600Y-83513400D01*
G75*
G02*
X130948600Y-83263400I0J250000D01*
G01*
X130948600Y-82588400D01*
G75*
G02*
X131198600Y-82338400I250000J0D01*
G01*
X132148600Y-82338400D01*
G75*
G02*
X132398600Y-82588400I0J-250000D01*
G01*
X132398600Y-83263400D01*
G75*
G02*
X132148600Y-83513400I-250000J0D01*
G01*
G37*
%TD*%
%TO.C,C19*%
G36*
G01*
X286213000Y-128842000D02*
X287163000Y-128842000D01*
G75*
G02*
X287413000Y-129092000I0J-250000D01*
G01*
X287413000Y-129767000D01*
G75*
G02*
X287163000Y-130017000I-250000J0D01*
G01*
X286213000Y-130017000D01*
G75*
G02*
X285963000Y-129767000I0J250000D01*
G01*
X285963000Y-129092000D01*
G75*
G02*
X286213000Y-128842000I250000J0D01*
G01*
G37*
G36*
G01*
X286213000Y-126767000D02*
X287163000Y-126767000D01*
G75*
G02*
X287413000Y-127017000I0J-250000D01*
G01*
X287413000Y-127692000D01*
G75*
G02*
X287163000Y-127942000I-250000J0D01*
G01*
X286213000Y-127942000D01*
G75*
G02*
X285963000Y-127692000I0J250000D01*
G01*
X285963000Y-127017000D01*
G75*
G02*
X286213000Y-126767000I250000J0D01*
G01*
G37*
%TD*%
%TO.C,C20*%
G36*
G01*
X235135000Y-197010000D02*
X235135000Y-197960000D01*
G75*
G02*
X234885000Y-198210000I-250000J0D01*
G01*
X234210000Y-198210000D01*
G75*
G02*
X233960000Y-197960000I0J250000D01*
G01*
X233960000Y-197010000D01*
G75*
G02*
X234210000Y-196760000I250000J0D01*
G01*
X234885000Y-196760000D01*
G75*
G02*
X235135000Y-197010000I0J-250000D01*
G01*
G37*
G36*
G01*
X237210000Y-197010000D02*
X237210000Y-197960000D01*
G75*
G02*
X236960000Y-198210000I-250000J0D01*
G01*
X236285000Y-198210000D01*
G75*
G02*
X236035000Y-197960000I0J250000D01*
G01*
X236035000Y-197010000D01*
G75*
G02*
X236285000Y-196760000I250000J0D01*
G01*
X236960000Y-196760000D01*
G75*
G02*
X237210000Y-197010000I0J-250000D01*
G01*
G37*
%TD*%
%TO.C,C21*%
G36*
G01*
X221260000Y-194785000D02*
X221260000Y-193835000D01*
G75*
G02*
X221510000Y-193585000I250000J0D01*
G01*
X222185000Y-193585000D01*
G75*
G02*
X222435000Y-193835000I0J-250000D01*
G01*
X222435000Y-194785000D01*
G75*
G02*
X222185000Y-195035000I-250000J0D01*
G01*
X221510000Y-195035000D01*
G75*
G02*
X221260000Y-194785000I0J250000D01*
G01*
G37*
G36*
G01*
X223335000Y-194785000D02*
X223335000Y-193835000D01*
G75*
G02*
X223585000Y-193585000I250000J0D01*
G01*
X224260000Y-193585000D01*
G75*
G02*
X224510000Y-193835000I0J-250000D01*
G01*
X224510000Y-194785000D01*
G75*
G02*
X224260000Y-195035000I-250000J0D01*
G01*
X223585000Y-195035000D01*
G75*
G02*
X223335000Y-194785000I0J250000D01*
G01*
G37*
%TD*%
%TO.C,C22*%
G36*
G01*
X236303800Y-74444100D02*
X237253800Y-74444100D01*
G75*
G02*
X237503800Y-74694100I0J-250000D01*
G01*
X237503800Y-75369100D01*
G75*
G02*
X237253800Y-75619100I-250000J0D01*
G01*
X236303800Y-75619100D01*
G75*
G02*
X236053800Y-75369100I0J250000D01*
G01*
X236053800Y-74694100D01*
G75*
G02*
X236303800Y-74444100I250000J0D01*
G01*
G37*
G36*
G01*
X236303800Y-76519100D02*
X237253800Y-76519100D01*
G75*
G02*
X237503800Y-76769100I0J-250000D01*
G01*
X237503800Y-77444100D01*
G75*
G02*
X237253800Y-77694100I-250000J0D01*
G01*
X236303800Y-77694100D01*
G75*
G02*
X236053800Y-77444100I0J250000D01*
G01*
X236053800Y-76769100D01*
G75*
G02*
X236303800Y-76519100I250000J0D01*
G01*
G37*
%TD*%
%TO.C,C26*%
G36*
G01*
X225220000Y-132875000D02*
X225220000Y-133825000D01*
G75*
G02*
X224970000Y-134075000I-250000J0D01*
G01*
X224295000Y-134075000D01*
G75*
G02*
X224045000Y-133825000I0J250000D01*
G01*
X224045000Y-132875000D01*
G75*
G02*
X224295000Y-132625000I250000J0D01*
G01*
X224970000Y-132625000D01*
G75*
G02*
X225220000Y-132875000I0J-250000D01*
G01*
G37*
G36*
G01*
X227295000Y-132875000D02*
X227295000Y-133825000D01*
G75*
G02*
X227045000Y-134075000I-250000J0D01*
G01*
X226370000Y-134075000D01*
G75*
G02*
X226120000Y-133825000I0J250000D01*
G01*
X226120000Y-132875000D01*
G75*
G02*
X226370000Y-132625000I250000J0D01*
G01*
X227045000Y-132625000D01*
G75*
G02*
X227295000Y-132875000I0J-250000D01*
G01*
G37*
%TD*%
%TO.C,C27*%
G36*
G01*
X114716000Y-86454000D02*
X114716000Y-85504000D01*
G75*
G02*
X114966000Y-85254000I250000J0D01*
G01*
X115641000Y-85254000D01*
G75*
G02*
X115891000Y-85504000I0J-250000D01*
G01*
X115891000Y-86454000D01*
G75*
G02*
X115641000Y-86704000I-250000J0D01*
G01*
X114966000Y-86704000D01*
G75*
G02*
X114716000Y-86454000I0J250000D01*
G01*
G37*
G36*
G01*
X116791000Y-86454000D02*
X116791000Y-85504000D01*
G75*
G02*
X117041000Y-85254000I250000J0D01*
G01*
X117716000Y-85254000D01*
G75*
G02*
X117966000Y-85504000I0J-250000D01*
G01*
X117966000Y-86454000D01*
G75*
G02*
X117716000Y-86704000I-250000J0D01*
G01*
X117041000Y-86704000D01*
G75*
G02*
X116791000Y-86454000I0J250000D01*
G01*
G37*
%TD*%
%TO.C,C28*%
G36*
G01*
X279755000Y-120175000D02*
X279755000Y-121125000D01*
G75*
G02*
X279505000Y-121375000I-250000J0D01*
G01*
X278830000Y-121375000D01*
G75*
G02*
X278580000Y-121125000I0J250000D01*
G01*
X278580000Y-120175000D01*
G75*
G02*
X278830000Y-119925000I250000J0D01*
G01*
X279505000Y-119925000D01*
G75*
G02*
X279755000Y-120175000I0J-250000D01*
G01*
G37*
G36*
G01*
X277680000Y-120175000D02*
X277680000Y-121125000D01*
G75*
G02*
X277430000Y-121375000I-250000J0D01*
G01*
X276755000Y-121375000D01*
G75*
G02*
X276505000Y-121125000I0J250000D01*
G01*
X276505000Y-120175000D01*
G75*
G02*
X276755000Y-119925000I250000J0D01*
G01*
X277430000Y-119925000D01*
G75*
G02*
X277680000Y-120175000I0J-250000D01*
G01*
G37*
%TD*%
%TO.C,C29*%
G36*
G01*
X284320000Y-117830000D02*
X283370000Y-117830000D01*
G75*
G02*
X283120000Y-117580000I0J250000D01*
G01*
X283120000Y-116905000D01*
G75*
G02*
X283370000Y-116655000I250000J0D01*
G01*
X284320000Y-116655000D01*
G75*
G02*
X284570000Y-116905000I0J-250000D01*
G01*
X284570000Y-117580000D01*
G75*
G02*
X284320000Y-117830000I-250000J0D01*
G01*
G37*
G36*
G01*
X284320000Y-115755000D02*
X283370000Y-115755000D01*
G75*
G02*
X283120000Y-115505000I0J250000D01*
G01*
X283120000Y-114830000D01*
G75*
G02*
X283370000Y-114580000I250000J0D01*
G01*
X284320000Y-114580000D01*
G75*
G02*
X284570000Y-114830000I0J-250000D01*
G01*
X284570000Y-115505000D01*
G75*
G02*
X284320000Y-115755000I-250000J0D01*
G01*
G37*
%TD*%
%TO.C,C30*%
G36*
G01*
X225315800Y-155789300D02*
X224365800Y-155789300D01*
G75*
G02*
X224115800Y-155539300I0J250000D01*
G01*
X224115800Y-154864300D01*
G75*
G02*
X224365800Y-154614300I250000J0D01*
G01*
X225315800Y-154614300D01*
G75*
G02*
X225565800Y-154864300I0J-250000D01*
G01*
X225565800Y-155539300D01*
G75*
G02*
X225315800Y-155789300I-250000J0D01*
G01*
G37*
G36*
G01*
X225315800Y-157864300D02*
X224365800Y-157864300D01*
G75*
G02*
X224115800Y-157614300I0J250000D01*
G01*
X224115800Y-156939300D01*
G75*
G02*
X224365800Y-156689300I250000J0D01*
G01*
X225315800Y-156689300D01*
G75*
G02*
X225565800Y-156939300I0J-250000D01*
G01*
X225565800Y-157614300D01*
G75*
G02*
X225315800Y-157864300I-250000J0D01*
G01*
G37*
%TD*%
%TO.C,C31*%
G36*
G01*
X272575000Y-116020000D02*
X273525000Y-116020000D01*
G75*
G02*
X273775000Y-116270000I0J-250000D01*
G01*
X273775000Y-116945000D01*
G75*
G02*
X273525000Y-117195000I-250000J0D01*
G01*
X272575000Y-117195000D01*
G75*
G02*
X272325000Y-116945000I0J250000D01*
G01*
X272325000Y-116270000D01*
G75*
G02*
X272575000Y-116020000I250000J0D01*
G01*
G37*
G36*
G01*
X272575000Y-113945000D02*
X273525000Y-113945000D01*
G75*
G02*
X273775000Y-114195000I0J-250000D01*
G01*
X273775000Y-114870000D01*
G75*
G02*
X273525000Y-115120000I-250000J0D01*
G01*
X272575000Y-115120000D01*
G75*
G02*
X272325000Y-114870000I0J250000D01*
G01*
X272325000Y-114195000D01*
G75*
G02*
X272575000Y-113945000I250000J0D01*
G01*
G37*
%TD*%
%TO.C,C32*%
G36*
G01*
X234409000Y-160310500D02*
X233459000Y-160310500D01*
G75*
G02*
X233209000Y-160060500I0J250000D01*
G01*
X233209000Y-159385500D01*
G75*
G02*
X233459000Y-159135500I250000J0D01*
G01*
X234409000Y-159135500D01*
G75*
G02*
X234659000Y-159385500I0J-250000D01*
G01*
X234659000Y-160060500D01*
G75*
G02*
X234409000Y-160310500I-250000J0D01*
G01*
G37*
G36*
G01*
X234409000Y-162385500D02*
X233459000Y-162385500D01*
G75*
G02*
X233209000Y-162135500I0J250000D01*
G01*
X233209000Y-161460500D01*
G75*
G02*
X233459000Y-161210500I250000J0D01*
G01*
X234409000Y-161210500D01*
G75*
G02*
X234659000Y-161460500I0J-250000D01*
G01*
X234659000Y-162135500D01*
G75*
G02*
X234409000Y-162385500I-250000J0D01*
G01*
G37*
%TD*%
%TO.C,C33*%
G36*
G01*
X252890000Y-140785000D02*
X253840000Y-140785000D01*
G75*
G02*
X254090000Y-141035000I0J-250000D01*
G01*
X254090000Y-141710000D01*
G75*
G02*
X253840000Y-141960000I-250000J0D01*
G01*
X252890000Y-141960000D01*
G75*
G02*
X252640000Y-141710000I0J250000D01*
G01*
X252640000Y-141035000D01*
G75*
G02*
X252890000Y-140785000I250000J0D01*
G01*
G37*
G36*
G01*
X252890000Y-138710000D02*
X253840000Y-138710000D01*
G75*
G02*
X254090000Y-138960000I0J-250000D01*
G01*
X254090000Y-139635000D01*
G75*
G02*
X253840000Y-139885000I-250000J0D01*
G01*
X252890000Y-139885000D01*
G75*
G02*
X252640000Y-139635000I0J250000D01*
G01*
X252640000Y-138960000D01*
G75*
G02*
X252890000Y-138710000I250000J0D01*
G01*
G37*
%TD*%
%TO.C,C34*%
G36*
G01*
X281465000Y-133630000D02*
X282415000Y-133630000D01*
G75*
G02*
X282665000Y-133880000I0J-250000D01*
G01*
X282665000Y-134555000D01*
G75*
G02*
X282415000Y-134805000I-250000J0D01*
G01*
X281465000Y-134805000D01*
G75*
G02*
X281215000Y-134555000I0J250000D01*
G01*
X281215000Y-133880000D01*
G75*
G02*
X281465000Y-133630000I250000J0D01*
G01*
G37*
G36*
G01*
X281465000Y-135705000D02*
X282415000Y-135705000D01*
G75*
G02*
X282665000Y-135955000I0J-250000D01*
G01*
X282665000Y-136630000D01*
G75*
G02*
X282415000Y-136880000I-250000J0D01*
G01*
X281465000Y-136880000D01*
G75*
G02*
X281215000Y-136630000I0J250000D01*
G01*
X281215000Y-135955000D01*
G75*
G02*
X281465000Y-135705000I250000J0D01*
G01*
G37*
%TD*%
%TO.C,C35*%
G36*
G01*
X230860000Y-174785000D02*
X230860000Y-175735000D01*
G75*
G02*
X230610000Y-175985000I-250000J0D01*
G01*
X229935000Y-175985000D01*
G75*
G02*
X229685000Y-175735000I0J250000D01*
G01*
X229685000Y-174785000D01*
G75*
G02*
X229935000Y-174535000I250000J0D01*
G01*
X230610000Y-174535000D01*
G75*
G02*
X230860000Y-174785000I0J-250000D01*
G01*
G37*
G36*
G01*
X228785000Y-174785000D02*
X228785000Y-175735000D01*
G75*
G02*
X228535000Y-175985000I-250000J0D01*
G01*
X227860000Y-175985000D01*
G75*
G02*
X227610000Y-175735000I0J250000D01*
G01*
X227610000Y-174785000D01*
G75*
G02*
X227860000Y-174535000I250000J0D01*
G01*
X228535000Y-174535000D01*
G75*
G02*
X228785000Y-174785000I0J-250000D01*
G01*
G37*
%TD*%
%TO.C,C36*%
G36*
G01*
X284005000Y-133630000D02*
X284955000Y-133630000D01*
G75*
G02*
X285205000Y-133880000I0J-250000D01*
G01*
X285205000Y-134555000D01*
G75*
G02*
X284955000Y-134805000I-250000J0D01*
G01*
X284005000Y-134805000D01*
G75*
G02*
X283755000Y-134555000I0J250000D01*
G01*
X283755000Y-133880000D01*
G75*
G02*
X284005000Y-133630000I250000J0D01*
G01*
G37*
G36*
G01*
X284005000Y-135705000D02*
X284955000Y-135705000D01*
G75*
G02*
X285205000Y-135955000I0J-250000D01*
G01*
X285205000Y-136630000D01*
G75*
G02*
X284955000Y-136880000I-250000J0D01*
G01*
X284005000Y-136880000D01*
G75*
G02*
X283755000Y-136630000I0J250000D01*
G01*
X283755000Y-135955000D01*
G75*
G02*
X284005000Y-135705000I250000J0D01*
G01*
G37*
%TD*%
%TO.C,C37*%
G36*
G01*
X170655000Y-181795000D02*
X169705000Y-181795000D01*
G75*
G02*
X169455000Y-181545000I0J250000D01*
G01*
X169455000Y-180870000D01*
G75*
G02*
X169705000Y-180620000I250000J0D01*
G01*
X170655000Y-180620000D01*
G75*
G02*
X170905000Y-180870000I0J-250000D01*
G01*
X170905000Y-181545000D01*
G75*
G02*
X170655000Y-181795000I-250000J0D01*
G01*
G37*
G36*
G01*
X170655000Y-183870000D02*
X169705000Y-183870000D01*
G75*
G02*
X169455000Y-183620000I0J250000D01*
G01*
X169455000Y-182945000D01*
G75*
G02*
X169705000Y-182695000I250000J0D01*
G01*
X170655000Y-182695000D01*
G75*
G02*
X170905000Y-182945000I0J-250000D01*
G01*
X170905000Y-183620000D01*
G75*
G02*
X170655000Y-183870000I-250000J0D01*
G01*
G37*
%TD*%
%TO.C,C38*%
G36*
G01*
X249715000Y-187140000D02*
X250665000Y-187140000D01*
G75*
G02*
X250915000Y-187390000I0J-250000D01*
G01*
X250915000Y-188065000D01*
G75*
G02*
X250665000Y-188315000I-250000J0D01*
G01*
X249715000Y-188315000D01*
G75*
G02*
X249465000Y-188065000I0J250000D01*
G01*
X249465000Y-187390000D01*
G75*
G02*
X249715000Y-187140000I250000J0D01*
G01*
G37*
G36*
G01*
X249715000Y-185065000D02*
X250665000Y-185065000D01*
G75*
G02*
X250915000Y-185315000I0J-250000D01*
G01*
X250915000Y-185990000D01*
G75*
G02*
X250665000Y-186240000I-250000J0D01*
G01*
X249715000Y-186240000D01*
G75*
G02*
X249465000Y-185990000I0J250000D01*
G01*
X249465000Y-185315000D01*
G75*
G02*
X249715000Y-185065000I250000J0D01*
G01*
G37*
%TD*%
%TO.C,C39*%
G36*
G01*
X259951200Y-68619700D02*
X260901200Y-68619700D01*
G75*
G02*
X261151200Y-68869700I0J-250000D01*
G01*
X261151200Y-69544700D01*
G75*
G02*
X260901200Y-69794700I-250000J0D01*
G01*
X259951200Y-69794700D01*
G75*
G02*
X259701200Y-69544700I0J250000D01*
G01*
X259701200Y-68869700D01*
G75*
G02*
X259951200Y-68619700I250000J0D01*
G01*
G37*
G36*
G01*
X259951200Y-66544700D02*
X260901200Y-66544700D01*
G75*
G02*
X261151200Y-66794700I0J-250000D01*
G01*
X261151200Y-67469700D01*
G75*
G02*
X260901200Y-67719700I-250000J0D01*
G01*
X259951200Y-67719700D01*
G75*
G02*
X259701200Y-67469700I0J250000D01*
G01*
X259701200Y-66794700D01*
G75*
G02*
X259951200Y-66544700I250000J0D01*
G01*
G37*
%TD*%
%TO.C,C40*%
G36*
G01*
X250665000Y-192760000D02*
X249715000Y-192760000D01*
G75*
G02*
X249465000Y-192510000I0J250000D01*
G01*
X249465000Y-191835000D01*
G75*
G02*
X249715000Y-191585000I250000J0D01*
G01*
X250665000Y-191585000D01*
G75*
G02*
X250915000Y-191835000I0J-250000D01*
G01*
X250915000Y-192510000D01*
G75*
G02*
X250665000Y-192760000I-250000J0D01*
G01*
G37*
G36*
G01*
X250665000Y-190685000D02*
X249715000Y-190685000D01*
G75*
G02*
X249465000Y-190435000I0J250000D01*
G01*
X249465000Y-189760000D01*
G75*
G02*
X249715000Y-189510000I250000J0D01*
G01*
X250665000Y-189510000D01*
G75*
G02*
X250915000Y-189760000I0J-250000D01*
G01*
X250915000Y-190435000D01*
G75*
G02*
X250665000Y-190685000I-250000J0D01*
G01*
G37*
%TD*%
%TO.C,C41*%
G36*
G01*
X229177000Y-181829000D02*
X228227000Y-181829000D01*
G75*
G02*
X227977000Y-181579000I0J250000D01*
G01*
X227977000Y-180904000D01*
G75*
G02*
X228227000Y-180654000I250000J0D01*
G01*
X229177000Y-180654000D01*
G75*
G02*
X229427000Y-180904000I0J-250000D01*
G01*
X229427000Y-181579000D01*
G75*
G02*
X229177000Y-181829000I-250000J0D01*
G01*
G37*
G36*
G01*
X229177000Y-183904000D02*
X228227000Y-183904000D01*
G75*
G02*
X227977000Y-183654000I0J250000D01*
G01*
X227977000Y-182979000D01*
G75*
G02*
X228227000Y-182729000I250000J0D01*
G01*
X229177000Y-182729000D01*
G75*
G02*
X229427000Y-182979000I0J-250000D01*
G01*
X229427000Y-183654000D01*
G75*
G02*
X229177000Y-183904000I-250000J0D01*
G01*
G37*
%TD*%
%TO.C,C43*%
G36*
G01*
X266548200Y-90289400D02*
X266548200Y-89339400D01*
G75*
G02*
X266798200Y-89089400I250000J0D01*
G01*
X267473200Y-89089400D01*
G75*
G02*
X267723200Y-89339400I0J-250000D01*
G01*
X267723200Y-90289400D01*
G75*
G02*
X267473200Y-90539400I-250000J0D01*
G01*
X266798200Y-90539400D01*
G75*
G02*
X266548200Y-90289400I0J250000D01*
G01*
G37*
G36*
G01*
X268623200Y-90289400D02*
X268623200Y-89339400D01*
G75*
G02*
X268873200Y-89089400I250000J0D01*
G01*
X269548200Y-89089400D01*
G75*
G02*
X269798200Y-89339400I0J-250000D01*
G01*
X269798200Y-90289400D01*
G75*
G02*
X269548200Y-90539400I-250000J0D01*
G01*
X268873200Y-90539400D01*
G75*
G02*
X268623200Y-90289400I0J250000D01*
G01*
G37*
%TD*%
%TO.C,C44*%
G36*
G01*
X258310800Y-79824600D02*
X258310800Y-78874600D01*
G75*
G02*
X258560800Y-78624600I250000J0D01*
G01*
X259235800Y-78624600D01*
G75*
G02*
X259485800Y-78874600I0J-250000D01*
G01*
X259485800Y-79824600D01*
G75*
G02*
X259235800Y-80074600I-250000J0D01*
G01*
X258560800Y-80074600D01*
G75*
G02*
X258310800Y-79824600I0J250000D01*
G01*
G37*
G36*
G01*
X256235800Y-79824600D02*
X256235800Y-78874600D01*
G75*
G02*
X256485800Y-78624600I250000J0D01*
G01*
X257160800Y-78624600D01*
G75*
G02*
X257410800Y-78874600I0J-250000D01*
G01*
X257410800Y-79824600D01*
G75*
G02*
X257160800Y-80074600I-250000J0D01*
G01*
X256485800Y-80074600D01*
G75*
G02*
X256235800Y-79824600I0J250000D01*
G01*
G37*
%TD*%
%TO.C,C45*%
G36*
G01*
X264748700Y-71493400D02*
X264748700Y-70543400D01*
G75*
G02*
X264998700Y-70293400I250000J0D01*
G01*
X265673700Y-70293400D01*
G75*
G02*
X265923700Y-70543400I0J-250000D01*
G01*
X265923700Y-71493400D01*
G75*
G02*
X265673700Y-71743400I-250000J0D01*
G01*
X264998700Y-71743400D01*
G75*
G02*
X264748700Y-71493400I0J250000D01*
G01*
G37*
G36*
G01*
X266823700Y-71493400D02*
X266823700Y-70543400D01*
G75*
G02*
X267073700Y-70293400I250000J0D01*
G01*
X267748700Y-70293400D01*
G75*
G02*
X267998700Y-70543400I0J-250000D01*
G01*
X267998700Y-71493400D01*
G75*
G02*
X267748700Y-71743400I-250000J0D01*
G01*
X267073700Y-71743400D01*
G75*
G02*
X266823700Y-71493400I0J250000D01*
G01*
G37*
%TD*%
%TO.C,C46*%
G36*
G01*
X277752300Y-80551000D02*
X277752300Y-81501000D01*
G75*
G02*
X277502300Y-81751000I-250000J0D01*
G01*
X276827300Y-81751000D01*
G75*
G02*
X276577300Y-81501000I0J250000D01*
G01*
X276577300Y-80551000D01*
G75*
G02*
X276827300Y-80301000I250000J0D01*
G01*
X277502300Y-80301000D01*
G75*
G02*
X277752300Y-80551000I0J-250000D01*
G01*
G37*
G36*
G01*
X279827300Y-80551000D02*
X279827300Y-81501000D01*
G75*
G02*
X279577300Y-81751000I-250000J0D01*
G01*
X278902300Y-81751000D01*
G75*
G02*
X278652300Y-81501000I0J250000D01*
G01*
X278652300Y-80551000D01*
G75*
G02*
X278902300Y-80301000I250000J0D01*
G01*
X279577300Y-80301000D01*
G75*
G02*
X279827300Y-80551000I0J-250000D01*
G01*
G37*
%TD*%
%TO.C,C47*%
G36*
G01*
X269781000Y-69981500D02*
X270731000Y-69981500D01*
G75*
G02*
X270981000Y-70231500I0J-250000D01*
G01*
X270981000Y-70906500D01*
G75*
G02*
X270731000Y-71156500I-250000J0D01*
G01*
X269781000Y-71156500D01*
G75*
G02*
X269531000Y-70906500I0J250000D01*
G01*
X269531000Y-70231500D01*
G75*
G02*
X269781000Y-69981500I250000J0D01*
G01*
G37*
G36*
G01*
X269781000Y-72056500D02*
X270731000Y-72056500D01*
G75*
G02*
X270981000Y-72306500I0J-250000D01*
G01*
X270981000Y-72981500D01*
G75*
G02*
X270731000Y-73231500I-250000J0D01*
G01*
X269781000Y-73231500D01*
G75*
G02*
X269531000Y-72981500I0J250000D01*
G01*
X269531000Y-72306500D01*
G75*
G02*
X269781000Y-72056500I250000J0D01*
G01*
G37*
%TD*%
%TO.C,C48*%
G36*
G01*
X274893100Y-73347600D02*
X274893100Y-72397600D01*
G75*
G02*
X275143100Y-72147600I250000J0D01*
G01*
X275818100Y-72147600D01*
G75*
G02*
X276068100Y-72397600I0J-250000D01*
G01*
X276068100Y-73347600D01*
G75*
G02*
X275818100Y-73597600I-250000J0D01*
G01*
X275143100Y-73597600D01*
G75*
G02*
X274893100Y-73347600I0J250000D01*
G01*
G37*
G36*
G01*
X272818100Y-73347600D02*
X272818100Y-72397600D01*
G75*
G02*
X273068100Y-72147600I250000J0D01*
G01*
X273743100Y-72147600D01*
G75*
G02*
X273993100Y-72397600I0J-250000D01*
G01*
X273993100Y-73347600D01*
G75*
G02*
X273743100Y-73597600I-250000J0D01*
G01*
X273068100Y-73597600D01*
G75*
G02*
X272818100Y-73347600I0J250000D01*
G01*
G37*
%TD*%
%TO.C,C49*%
G36*
G01*
X286280100Y-81551800D02*
X286280100Y-80601800D01*
G75*
G02*
X286530100Y-80351800I250000J0D01*
G01*
X287205100Y-80351800D01*
G75*
G02*
X287455100Y-80601800I0J-250000D01*
G01*
X287455100Y-81551800D01*
G75*
G02*
X287205100Y-81801800I-250000J0D01*
G01*
X286530100Y-81801800D01*
G75*
G02*
X286280100Y-81551800I0J250000D01*
G01*
G37*
G36*
G01*
X284205100Y-81551800D02*
X284205100Y-80601800D01*
G75*
G02*
X284455100Y-80351800I250000J0D01*
G01*
X285130100Y-80351800D01*
G75*
G02*
X285380100Y-80601800I0J-250000D01*
G01*
X285380100Y-81551800D01*
G75*
G02*
X285130100Y-81801800I-250000J0D01*
G01*
X284455100Y-81801800D01*
G75*
G02*
X284205100Y-81551800I0J250000D01*
G01*
G37*
%TD*%
%TO.C,C50*%
G36*
G01*
X238956000Y-172839400D02*
X238956000Y-171889400D01*
G75*
G02*
X239206000Y-171639400I250000J0D01*
G01*
X239881000Y-171639400D01*
G75*
G02*
X240131000Y-171889400I0J-250000D01*
G01*
X240131000Y-172839400D01*
G75*
G02*
X239881000Y-173089400I-250000J0D01*
G01*
X239206000Y-173089400D01*
G75*
G02*
X238956000Y-172839400I0J250000D01*
G01*
G37*
G36*
G01*
X236881000Y-172839400D02*
X236881000Y-171889400D01*
G75*
G02*
X237131000Y-171639400I250000J0D01*
G01*
X237806000Y-171639400D01*
G75*
G02*
X238056000Y-171889400I0J-250000D01*
G01*
X238056000Y-172839400D01*
G75*
G02*
X237806000Y-173089400I-250000J0D01*
G01*
X237131000Y-173089400D01*
G75*
G02*
X236881000Y-172839400I0J250000D01*
G01*
G37*
%TD*%
%TO.C,C51*%
G36*
G01*
X239348700Y-162120600D02*
X239348700Y-161170600D01*
G75*
G02*
X239598700Y-160920600I250000J0D01*
G01*
X240273700Y-160920600D01*
G75*
G02*
X240523700Y-161170600I0J-250000D01*
G01*
X240523700Y-162120600D01*
G75*
G02*
X240273700Y-162370600I-250000J0D01*
G01*
X239598700Y-162370600D01*
G75*
G02*
X239348700Y-162120600I0J250000D01*
G01*
G37*
G36*
G01*
X241423700Y-162120600D02*
X241423700Y-161170600D01*
G75*
G02*
X241673700Y-160920600I250000J0D01*
G01*
X242348700Y-160920600D01*
G75*
G02*
X242598700Y-161170600I0J-250000D01*
G01*
X242598700Y-162120600D01*
G75*
G02*
X242348700Y-162370600I-250000J0D01*
G01*
X241673700Y-162370600D01*
G75*
G02*
X241423700Y-162120600I0J250000D01*
G01*
G37*
%TD*%
%TO.C,C52*%
G36*
G01*
X243891400Y-79926200D02*
X243891400Y-78976200D01*
G75*
G02*
X244141400Y-78726200I250000J0D01*
G01*
X244816400Y-78726200D01*
G75*
G02*
X245066400Y-78976200I0J-250000D01*
G01*
X245066400Y-79926200D01*
G75*
G02*
X244816400Y-80176200I-250000J0D01*
G01*
X244141400Y-80176200D01*
G75*
G02*
X243891400Y-79926200I0J250000D01*
G01*
G37*
G36*
G01*
X245966400Y-79926200D02*
X245966400Y-78976200D01*
G75*
G02*
X246216400Y-78726200I250000J0D01*
G01*
X246891400Y-78726200D01*
G75*
G02*
X247141400Y-78976200I0J-250000D01*
G01*
X247141400Y-79926200D01*
G75*
G02*
X246891400Y-80176200I-250000J0D01*
G01*
X246216400Y-80176200D01*
G75*
G02*
X245966400Y-79926200I0J250000D01*
G01*
G37*
%TD*%
%TO.C,C53*%
G36*
G01*
X251848600Y-78732800D02*
X252798600Y-78732800D01*
G75*
G02*
X253048600Y-78982800I0J-250000D01*
G01*
X253048600Y-79657800D01*
G75*
G02*
X252798600Y-79907800I-250000J0D01*
G01*
X251848600Y-79907800D01*
G75*
G02*
X251598600Y-79657800I0J250000D01*
G01*
X251598600Y-78982800D01*
G75*
G02*
X251848600Y-78732800I250000J0D01*
G01*
G37*
G36*
G01*
X251848600Y-76657800D02*
X252798600Y-76657800D01*
G75*
G02*
X253048600Y-76907800I0J-250000D01*
G01*
X253048600Y-77582800D01*
G75*
G02*
X252798600Y-77832800I-250000J0D01*
G01*
X251848600Y-77832800D01*
G75*
G02*
X251598600Y-77582800I0J250000D01*
G01*
X251598600Y-76907800D01*
G75*
G02*
X251848600Y-76657800I250000J0D01*
G01*
G37*
%TD*%
%TO.C,D2*%
G36*
G01*
X230755000Y-110885000D02*
X230755000Y-110685000D01*
G75*
G02*
X230855000Y-110585000I100000J0D01*
G01*
X232280000Y-110585000D01*
G75*
G02*
X232380000Y-110685000I0J-100000D01*
G01*
X232380000Y-110885000D01*
G75*
G02*
X232280000Y-110985000I-100000J0D01*
G01*
X230855000Y-110985000D01*
G75*
G02*
X230755000Y-110885000I0J100000D01*
G01*
G37*
G36*
G01*
X230755000Y-111535000D02*
X230755000Y-111335000D01*
G75*
G02*
X230855000Y-111235000I100000J0D01*
G01*
X232280000Y-111235000D01*
G75*
G02*
X232380000Y-111335000I0J-100000D01*
G01*
X232380000Y-111535000D01*
G75*
G02*
X232280000Y-111635000I-100000J0D01*
G01*
X230855000Y-111635000D01*
G75*
G02*
X230755000Y-111535000I0J100000D01*
G01*
G37*
G36*
G01*
X230755000Y-112185000D02*
X230755000Y-111985000D01*
G75*
G02*
X230855000Y-111885000I100000J0D01*
G01*
X232280000Y-111885000D01*
G75*
G02*
X232380000Y-111985000I0J-100000D01*
G01*
X232380000Y-112185000D01*
G75*
G02*
X232280000Y-112285000I-100000J0D01*
G01*
X230855000Y-112285000D01*
G75*
G02*
X230755000Y-112185000I0J100000D01*
G01*
G37*
G36*
G01*
X230755000Y-112835000D02*
X230755000Y-112635000D01*
G75*
G02*
X230855000Y-112535000I100000J0D01*
G01*
X232280000Y-112535000D01*
G75*
G02*
X232380000Y-112635000I0J-100000D01*
G01*
X232380000Y-112835000D01*
G75*
G02*
X232280000Y-112935000I-100000J0D01*
G01*
X230855000Y-112935000D01*
G75*
G02*
X230755000Y-112835000I0J100000D01*
G01*
G37*
G36*
G01*
X234980000Y-112835000D02*
X234980000Y-112635000D01*
G75*
G02*
X235080000Y-112535000I100000J0D01*
G01*
X236505000Y-112535000D01*
G75*
G02*
X236605000Y-112635000I0J-100000D01*
G01*
X236605000Y-112835000D01*
G75*
G02*
X236505000Y-112935000I-100000J0D01*
G01*
X235080000Y-112935000D01*
G75*
G02*
X234980000Y-112835000I0J100000D01*
G01*
G37*
G36*
G01*
X234980000Y-112185000D02*
X234980000Y-111985000D01*
G75*
G02*
X235080000Y-111885000I100000J0D01*
G01*
X236505000Y-111885000D01*
G75*
G02*
X236605000Y-111985000I0J-100000D01*
G01*
X236605000Y-112185000D01*
G75*
G02*
X236505000Y-112285000I-100000J0D01*
G01*
X235080000Y-112285000D01*
G75*
G02*
X234980000Y-112185000I0J100000D01*
G01*
G37*
G36*
G01*
X234980000Y-111535000D02*
X234980000Y-111335000D01*
G75*
G02*
X235080000Y-111235000I100000J0D01*
G01*
X236505000Y-111235000D01*
G75*
G02*
X236605000Y-111335000I0J-100000D01*
G01*
X236605000Y-111535000D01*
G75*
G02*
X236505000Y-111635000I-100000J0D01*
G01*
X235080000Y-111635000D01*
G75*
G02*
X234980000Y-111535000I0J100000D01*
G01*
G37*
G36*
G01*
X234980000Y-110885000D02*
X234980000Y-110685000D01*
G75*
G02*
X235080000Y-110585000I100000J0D01*
G01*
X236505000Y-110585000D01*
G75*
G02*
X236605000Y-110685000I0J-100000D01*
G01*
X236605000Y-110885000D01*
G75*
G02*
X236505000Y-110985000I-100000J0D01*
G01*
X235080000Y-110985000D01*
G75*
G02*
X234980000Y-110885000I0J100000D01*
G01*
G37*
%TD*%
D19*
%TO.C,J25*%
X208702800Y-58877200D03*
X212902800Y-58877200D03*
X208702800Y-64377200D03*
D20*
X212902800Y-64377200D03*
%TD*%
%TO.C,L1*%
G36*
G01*
X256810600Y-72941601D02*
X256810600Y-72041599D01*
G75*
G02*
X257060599Y-71791600I249999J0D01*
G01*
X257710601Y-71791600D01*
G75*
G02*
X257960600Y-72041599I0J-249999D01*
G01*
X257960600Y-72941601D01*
G75*
G02*
X257710601Y-73191600I-249999J0D01*
G01*
X257060599Y-73191600D01*
G75*
G02*
X256810600Y-72941601I0J249999D01*
G01*
G37*
G36*
G01*
X258860600Y-72941601D02*
X258860600Y-72041599D01*
G75*
G02*
X259110599Y-71791600I249999J0D01*
G01*
X259760601Y-71791600D01*
G75*
G02*
X260010600Y-72041599I0J-249999D01*
G01*
X260010600Y-72941601D01*
G75*
G02*
X259760601Y-73191600I-249999J0D01*
G01*
X259110599Y-73191600D01*
G75*
G02*
X258860600Y-72941601I0J249999D01*
G01*
G37*
%TD*%
%TO.C,R1*%
G36*
G01*
X225256800Y-102608801D02*
X225256800Y-101708799D01*
G75*
G02*
X225506799Y-101458800I249999J0D01*
G01*
X226206801Y-101458800D01*
G75*
G02*
X226456800Y-101708799I0J-249999D01*
G01*
X226456800Y-102608801D01*
G75*
G02*
X226206801Y-102858800I-249999J0D01*
G01*
X225506799Y-102858800D01*
G75*
G02*
X225256800Y-102608801I0J249999D01*
G01*
G37*
G36*
G01*
X223256800Y-102608801D02*
X223256800Y-101708799D01*
G75*
G02*
X223506799Y-101458800I249999J0D01*
G01*
X224206801Y-101458800D01*
G75*
G02*
X224456800Y-101708799I0J-249999D01*
G01*
X224456800Y-102608801D01*
G75*
G02*
X224206801Y-102858800I-249999J0D01*
G01*
X223506799Y-102858800D01*
G75*
G02*
X223256800Y-102608801I0J249999D01*
G01*
G37*
%TD*%
%TO.C,R3*%
G36*
G01*
X202180999Y-149521000D02*
X203081001Y-149521000D01*
G75*
G02*
X203331000Y-149770999I0J-249999D01*
G01*
X203331000Y-150471001D01*
G75*
G02*
X203081001Y-150721000I-249999J0D01*
G01*
X202180999Y-150721000D01*
G75*
G02*
X201931000Y-150471001I0J249999D01*
G01*
X201931000Y-149770999D01*
G75*
G02*
X202180999Y-149521000I249999J0D01*
G01*
G37*
G36*
G01*
X202180999Y-151521000D02*
X203081001Y-151521000D01*
G75*
G02*
X203331000Y-151770999I0J-249999D01*
G01*
X203331000Y-152471001D01*
G75*
G02*
X203081001Y-152721000I-249999J0D01*
G01*
X202180999Y-152721000D01*
G75*
G02*
X201931000Y-152471001I0J249999D01*
G01*
X201931000Y-151770999D01*
G75*
G02*
X202180999Y-151521000I249999J0D01*
G01*
G37*
%TD*%
%TO.C,R4*%
G36*
G01*
X144389800Y-194937801D02*
X144389800Y-194037799D01*
G75*
G02*
X144639799Y-193787800I249999J0D01*
G01*
X145339801Y-193787800D01*
G75*
G02*
X145589800Y-194037799I0J-249999D01*
G01*
X145589800Y-194937801D01*
G75*
G02*
X145339801Y-195187800I-249999J0D01*
G01*
X144639799Y-195187800D01*
G75*
G02*
X144389800Y-194937801I0J249999D01*
G01*
G37*
G36*
G01*
X146389800Y-194937801D02*
X146389800Y-194037799D01*
G75*
G02*
X146639799Y-193787800I249999J0D01*
G01*
X147339801Y-193787800D01*
G75*
G02*
X147589800Y-194037799I0J-249999D01*
G01*
X147589800Y-194937801D01*
G75*
G02*
X147339801Y-195187800I-249999J0D01*
G01*
X146639799Y-195187800D01*
G75*
G02*
X146389800Y-194937801I0J249999D01*
G01*
G37*
%TD*%
%TO.C,R5*%
G36*
G01*
X260661999Y-96435000D02*
X261562001Y-96435000D01*
G75*
G02*
X261812000Y-96684999I0J-249999D01*
G01*
X261812000Y-97385001D01*
G75*
G02*
X261562001Y-97635000I-249999J0D01*
G01*
X260661999Y-97635000D01*
G75*
G02*
X260412000Y-97385001I0J249999D01*
G01*
X260412000Y-96684999D01*
G75*
G02*
X260661999Y-96435000I249999J0D01*
G01*
G37*
G36*
G01*
X260661999Y-98435000D02*
X261562001Y-98435000D01*
G75*
G02*
X261812000Y-98684999I0J-249999D01*
G01*
X261812000Y-99385001D01*
G75*
G02*
X261562001Y-99635000I-249999J0D01*
G01*
X260661999Y-99635000D01*
G75*
G02*
X260412000Y-99385001I0J249999D01*
G01*
X260412000Y-98684999D01*
G75*
G02*
X260661999Y-98435000I249999J0D01*
G01*
G37*
%TD*%
%TO.C,R6*%
G36*
G01*
X255085001Y-209880000D02*
X254184999Y-209880000D01*
G75*
G02*
X253935000Y-209630001I0J249999D01*
G01*
X253935000Y-208929999D01*
G75*
G02*
X254184999Y-208680000I249999J0D01*
G01*
X255085001Y-208680000D01*
G75*
G02*
X255335000Y-208929999I0J-249999D01*
G01*
X255335000Y-209630001D01*
G75*
G02*
X255085001Y-209880000I-249999J0D01*
G01*
G37*
G36*
G01*
X255085001Y-207880000D02*
X254184999Y-207880000D01*
G75*
G02*
X253935000Y-207630001I0J249999D01*
G01*
X253935000Y-206929999D01*
G75*
G02*
X254184999Y-206680000I249999J0D01*
G01*
X255085001Y-206680000D01*
G75*
G02*
X255335000Y-206929999I0J-249999D01*
G01*
X255335000Y-207630001D01*
G75*
G02*
X255085001Y-207880000I-249999J0D01*
G01*
G37*
%TD*%
%TO.C,R7*%
G36*
G01*
X259154000Y-207346999D02*
X259154000Y-208247001D01*
G75*
G02*
X258904001Y-208497000I-249999J0D01*
G01*
X258203999Y-208497000D01*
G75*
G02*
X257954000Y-208247001I0J249999D01*
G01*
X257954000Y-207346999D01*
G75*
G02*
X258203999Y-207097000I249999J0D01*
G01*
X258904001Y-207097000D01*
G75*
G02*
X259154000Y-207346999I0J-249999D01*
G01*
G37*
G36*
G01*
X261154000Y-207346999D02*
X261154000Y-208247001D01*
G75*
G02*
X260904001Y-208497000I-249999J0D01*
G01*
X260203999Y-208497000D01*
G75*
G02*
X259954000Y-208247001I0J249999D01*
G01*
X259954000Y-207346999D01*
G75*
G02*
X260203999Y-207097000I249999J0D01*
G01*
X260904001Y-207097000D01*
G75*
G02*
X261154000Y-207346999I0J-249999D01*
G01*
G37*
%TD*%
%TO.C,R8*%
G36*
G01*
X254149800Y-114916799D02*
X254149800Y-115816801D01*
G75*
G02*
X253899801Y-116066800I-249999J0D01*
G01*
X253199799Y-116066800D01*
G75*
G02*
X252949800Y-115816801I0J249999D01*
G01*
X252949800Y-114916799D01*
G75*
G02*
X253199799Y-114666800I249999J0D01*
G01*
X253899801Y-114666800D01*
G75*
G02*
X254149800Y-114916799I0J-249999D01*
G01*
G37*
G36*
G01*
X256149800Y-114916799D02*
X256149800Y-115816801D01*
G75*
G02*
X255899801Y-116066800I-249999J0D01*
G01*
X255199799Y-116066800D01*
G75*
G02*
X254949800Y-115816801I0J249999D01*
G01*
X254949800Y-114916799D01*
G75*
G02*
X255199799Y-114666800I249999J0D01*
G01*
X255899801Y-114666800D01*
G75*
G02*
X256149800Y-114916799I0J-249999D01*
G01*
G37*
%TD*%
%TO.C,R9*%
G36*
G01*
X265227000Y-207346999D02*
X265227000Y-208247001D01*
G75*
G02*
X264977001Y-208497000I-249999J0D01*
G01*
X264276999Y-208497000D01*
G75*
G02*
X264027000Y-208247001I0J249999D01*
G01*
X264027000Y-207346999D01*
G75*
G02*
X264276999Y-207097000I249999J0D01*
G01*
X264977001Y-207097000D01*
G75*
G02*
X265227000Y-207346999I0J-249999D01*
G01*
G37*
G36*
G01*
X263227000Y-207346999D02*
X263227000Y-208247001D01*
G75*
G02*
X262977001Y-208497000I-249999J0D01*
G01*
X262276999Y-208497000D01*
G75*
G02*
X262027000Y-208247001I0J249999D01*
G01*
X262027000Y-207346999D01*
G75*
G02*
X262276999Y-207097000I249999J0D01*
G01*
X262977001Y-207097000D01*
G75*
G02*
X263227000Y-207346999I0J-249999D01*
G01*
G37*
%TD*%
%TO.C,R10*%
G36*
G01*
X267545000Y-207346999D02*
X267545000Y-208247001D01*
G75*
G02*
X267295001Y-208497000I-249999J0D01*
G01*
X266594999Y-208497000D01*
G75*
G02*
X266345000Y-208247001I0J249999D01*
G01*
X266345000Y-207346999D01*
G75*
G02*
X266594999Y-207097000I249999J0D01*
G01*
X267295001Y-207097000D01*
G75*
G02*
X267545000Y-207346999I0J-249999D01*
G01*
G37*
G36*
G01*
X269545000Y-207346999D02*
X269545000Y-208247001D01*
G75*
G02*
X269295001Y-208497000I-249999J0D01*
G01*
X268594999Y-208497000D01*
G75*
G02*
X268345000Y-208247001I0J249999D01*
G01*
X268345000Y-207346999D01*
G75*
G02*
X268594999Y-207097000I249999J0D01*
G01*
X269295001Y-207097000D01*
G75*
G02*
X269545000Y-207346999I0J-249999D01*
G01*
G37*
%TD*%
%TO.C,R11*%
G36*
G01*
X283845000Y-150945001D02*
X283845000Y-150044999D01*
G75*
G02*
X284094999Y-149795000I249999J0D01*
G01*
X284795001Y-149795000D01*
G75*
G02*
X285045000Y-150044999I0J-249999D01*
G01*
X285045000Y-150945001D01*
G75*
G02*
X284795001Y-151195000I-249999J0D01*
G01*
X284094999Y-151195000D01*
G75*
G02*
X283845000Y-150945001I0J249999D01*
G01*
G37*
G36*
G01*
X285845000Y-150945001D02*
X285845000Y-150044999D01*
G75*
G02*
X286094999Y-149795000I249999J0D01*
G01*
X286795001Y-149795000D01*
G75*
G02*
X287045000Y-150044999I0J-249999D01*
G01*
X287045000Y-150945001D01*
G75*
G02*
X286795001Y-151195000I-249999J0D01*
G01*
X286094999Y-151195000D01*
G75*
G02*
X285845000Y-150945001I0J249999D01*
G01*
G37*
%TD*%
%TO.C,R12*%
G36*
G01*
X125940399Y-87201200D02*
X126840401Y-87201200D01*
G75*
G02*
X127090400Y-87451199I0J-249999D01*
G01*
X127090400Y-88151201D01*
G75*
G02*
X126840401Y-88401200I-249999J0D01*
G01*
X125940399Y-88401200D01*
G75*
G02*
X125690400Y-88151201I0J249999D01*
G01*
X125690400Y-87451199D01*
G75*
G02*
X125940399Y-87201200I249999J0D01*
G01*
G37*
G36*
G01*
X125940399Y-85201200D02*
X126840401Y-85201200D01*
G75*
G02*
X127090400Y-85451199I0J-249999D01*
G01*
X127090400Y-86151201D01*
G75*
G02*
X126840401Y-86401200I-249999J0D01*
G01*
X125940399Y-86401200D01*
G75*
G02*
X125690400Y-86151201I0J249999D01*
G01*
X125690400Y-85451199D01*
G75*
G02*
X125940399Y-85201200I249999J0D01*
G01*
G37*
%TD*%
%TO.C,R13*%
G36*
G01*
X273863000Y-207346999D02*
X273863000Y-208247001D01*
G75*
G02*
X273613001Y-208497000I-249999J0D01*
G01*
X272912999Y-208497000D01*
G75*
G02*
X272663000Y-208247001I0J249999D01*
G01*
X272663000Y-207346999D01*
G75*
G02*
X272912999Y-207097000I249999J0D01*
G01*
X273613001Y-207097000D01*
G75*
G02*
X273863000Y-207346999I0J-249999D01*
G01*
G37*
G36*
G01*
X271863000Y-207346999D02*
X271863000Y-208247001D01*
G75*
G02*
X271613001Y-208497000I-249999J0D01*
G01*
X270912999Y-208497000D01*
G75*
G02*
X270663000Y-208247001I0J249999D01*
G01*
X270663000Y-207346999D01*
G75*
G02*
X270912999Y-207097000I249999J0D01*
G01*
X271613001Y-207097000D01*
G75*
G02*
X271863000Y-207346999I0J-249999D01*
G01*
G37*
%TD*%
%TO.C,R14*%
G36*
G01*
X116782001Y-135109000D02*
X115881999Y-135109000D01*
G75*
G02*
X115632000Y-134859001I0J249999D01*
G01*
X115632000Y-134158999D01*
G75*
G02*
X115881999Y-133909000I249999J0D01*
G01*
X116782001Y-133909000D01*
G75*
G02*
X117032000Y-134158999I0J-249999D01*
G01*
X117032000Y-134859001D01*
G75*
G02*
X116782001Y-135109000I-249999J0D01*
G01*
G37*
G36*
G01*
X116782001Y-137109000D02*
X115881999Y-137109000D01*
G75*
G02*
X115632000Y-136859001I0J249999D01*
G01*
X115632000Y-136158999D01*
G75*
G02*
X115881999Y-135909000I249999J0D01*
G01*
X116782001Y-135909000D01*
G75*
G02*
X117032000Y-136158999I0J-249999D01*
G01*
X117032000Y-136859001D01*
G75*
G02*
X116782001Y-137109000I-249999J0D01*
G01*
G37*
%TD*%
%TO.C,R15*%
G36*
G01*
X272890401Y-104298800D02*
X271990399Y-104298800D01*
G75*
G02*
X271740400Y-104048801I0J249999D01*
G01*
X271740400Y-103348799D01*
G75*
G02*
X271990399Y-103098800I249999J0D01*
G01*
X272890401Y-103098800D01*
G75*
G02*
X273140400Y-103348799I0J-249999D01*
G01*
X273140400Y-104048801D01*
G75*
G02*
X272890401Y-104298800I-249999J0D01*
G01*
G37*
G36*
G01*
X272890401Y-106298800D02*
X271990399Y-106298800D01*
G75*
G02*
X271740400Y-106048801I0J249999D01*
G01*
X271740400Y-105348799D01*
G75*
G02*
X271990399Y-105098800I249999J0D01*
G01*
X272890401Y-105098800D01*
G75*
G02*
X273140400Y-105348799I0J-249999D01*
G01*
X273140400Y-106048801D01*
G75*
G02*
X272890401Y-106298800I-249999J0D01*
G01*
G37*
%TD*%
%TO.C,R16*%
G36*
G01*
X255720001Y-196545000D02*
X254819999Y-196545000D01*
G75*
G02*
X254570000Y-196295001I0J249999D01*
G01*
X254570000Y-195594999D01*
G75*
G02*
X254819999Y-195345000I249999J0D01*
G01*
X255720001Y-195345000D01*
G75*
G02*
X255970000Y-195594999I0J-249999D01*
G01*
X255970000Y-196295001D01*
G75*
G02*
X255720001Y-196545000I-249999J0D01*
G01*
G37*
G36*
G01*
X255720001Y-194545000D02*
X254819999Y-194545000D01*
G75*
G02*
X254570000Y-194295001I0J249999D01*
G01*
X254570000Y-193594999D01*
G75*
G02*
X254819999Y-193345000I249999J0D01*
G01*
X255720001Y-193345000D01*
G75*
G02*
X255970000Y-193594999I0J-249999D01*
G01*
X255970000Y-194295001D01*
G75*
G02*
X255720001Y-194545000I-249999J0D01*
G01*
G37*
%TD*%
%TO.C,R17*%
G36*
G01*
X228070000Y-105377001D02*
X228070000Y-104476999D01*
G75*
G02*
X228319999Y-104227000I249999J0D01*
G01*
X229020001Y-104227000D01*
G75*
G02*
X229270000Y-104476999I0J-249999D01*
G01*
X229270000Y-105377001D01*
G75*
G02*
X229020001Y-105627000I-249999J0D01*
G01*
X228319999Y-105627000D01*
G75*
G02*
X228070000Y-105377001I0J249999D01*
G01*
G37*
G36*
G01*
X230070000Y-105377001D02*
X230070000Y-104476999D01*
G75*
G02*
X230319999Y-104227000I249999J0D01*
G01*
X231020001Y-104227000D01*
G75*
G02*
X231270000Y-104476999I0J-249999D01*
G01*
X231270000Y-105377001D01*
G75*
G02*
X231020001Y-105627000I-249999J0D01*
G01*
X230319999Y-105627000D01*
G75*
G02*
X230070000Y-105377001I0J249999D01*
G01*
G37*
%TD*%
%TO.C,R18*%
G36*
G01*
X234715000Y-107130001D02*
X234715000Y-106229999D01*
G75*
G02*
X234964999Y-105980000I249999J0D01*
G01*
X235665001Y-105980000D01*
G75*
G02*
X235915000Y-106229999I0J-249999D01*
G01*
X235915000Y-107130001D01*
G75*
G02*
X235665001Y-107380000I-249999J0D01*
G01*
X234964999Y-107380000D01*
G75*
G02*
X234715000Y-107130001I0J249999D01*
G01*
G37*
G36*
G01*
X232715000Y-107130001D02*
X232715000Y-106229999D01*
G75*
G02*
X232964999Y-105980000I249999J0D01*
G01*
X233665001Y-105980000D01*
G75*
G02*
X233915000Y-106229999I0J-249999D01*
G01*
X233915000Y-107130001D01*
G75*
G02*
X233665001Y-107380000I-249999J0D01*
G01*
X232964999Y-107380000D01*
G75*
G02*
X232715000Y-107130001I0J249999D01*
G01*
G37*
%TD*%
%TO.C,R19*%
G36*
G01*
X263201999Y-96453000D02*
X264102001Y-96453000D01*
G75*
G02*
X264352000Y-96702999I0J-249999D01*
G01*
X264352000Y-97403001D01*
G75*
G02*
X264102001Y-97653000I-249999J0D01*
G01*
X263201999Y-97653000D01*
G75*
G02*
X262952000Y-97403001I0J249999D01*
G01*
X262952000Y-96702999D01*
G75*
G02*
X263201999Y-96453000I249999J0D01*
G01*
G37*
G36*
G01*
X263201999Y-98453000D02*
X264102001Y-98453000D01*
G75*
G02*
X264352000Y-98702999I0J-249999D01*
G01*
X264352000Y-99403001D01*
G75*
G02*
X264102001Y-99653000I-249999J0D01*
G01*
X263201999Y-99653000D01*
G75*
G02*
X262952000Y-99403001I0J249999D01*
G01*
X262952000Y-98702999D01*
G75*
G02*
X263201999Y-98453000I249999J0D01*
G01*
G37*
%TD*%
%TO.C,R20*%
G36*
G01*
X252949800Y-111752801D02*
X252949800Y-110852799D01*
G75*
G02*
X253199799Y-110602800I249999J0D01*
G01*
X253899801Y-110602800D01*
G75*
G02*
X254149800Y-110852799I0J-249999D01*
G01*
X254149800Y-111752801D01*
G75*
G02*
X253899801Y-112002800I-249999J0D01*
G01*
X253199799Y-112002800D01*
G75*
G02*
X252949800Y-111752801I0J249999D01*
G01*
G37*
G36*
G01*
X254949800Y-111752801D02*
X254949800Y-110852799D01*
G75*
G02*
X255199799Y-110602800I249999J0D01*
G01*
X255899801Y-110602800D01*
G75*
G02*
X256149800Y-110852799I0J-249999D01*
G01*
X256149800Y-111752801D01*
G75*
G02*
X255899801Y-112002800I-249999J0D01*
G01*
X255199799Y-112002800D01*
G75*
G02*
X254949800Y-111752801I0J249999D01*
G01*
G37*
%TD*%
%TO.C,R21*%
G36*
G01*
X219161000Y-93098199D02*
X219161000Y-93998201D01*
G75*
G02*
X218911001Y-94248200I-249999J0D01*
G01*
X218210999Y-94248200D01*
G75*
G02*
X217961000Y-93998201I0J249999D01*
G01*
X217961000Y-93098199D01*
G75*
G02*
X218210999Y-92848200I249999J0D01*
G01*
X218911001Y-92848200D01*
G75*
G02*
X219161000Y-93098199I0J-249999D01*
G01*
G37*
G36*
G01*
X221161000Y-93098199D02*
X221161000Y-93998201D01*
G75*
G02*
X220911001Y-94248200I-249999J0D01*
G01*
X220210999Y-94248200D01*
G75*
G02*
X219961000Y-93998201I0J249999D01*
G01*
X219961000Y-93098199D01*
G75*
G02*
X220210999Y-92848200I249999J0D01*
G01*
X220911001Y-92848200D01*
G75*
G02*
X221161000Y-93098199I0J-249999D01*
G01*
G37*
%TD*%
%TO.C,R22*%
G36*
G01*
X231597000Y-91646999D02*
X231597000Y-92547001D01*
G75*
G02*
X231347001Y-92797000I-249999J0D01*
G01*
X230646999Y-92797000D01*
G75*
G02*
X230397000Y-92547001I0J249999D01*
G01*
X230397000Y-91646999D01*
G75*
G02*
X230646999Y-91397000I249999J0D01*
G01*
X231347001Y-91397000D01*
G75*
G02*
X231597000Y-91646999I0J-249999D01*
G01*
G37*
G36*
G01*
X229597000Y-91646999D02*
X229597000Y-92547001D01*
G75*
G02*
X229347001Y-92797000I-249999J0D01*
G01*
X228646999Y-92797000D01*
G75*
G02*
X228397000Y-92547001I0J249999D01*
G01*
X228397000Y-91646999D01*
G75*
G02*
X228646999Y-91397000I249999J0D01*
G01*
X229347001Y-91397000D01*
G75*
G02*
X229597000Y-91646999I0J-249999D01*
G01*
G37*
%TD*%
%TO.C,R23*%
G36*
G01*
X235795000Y-92717199D02*
X235795000Y-93617201D01*
G75*
G02*
X235545001Y-93867200I-249999J0D01*
G01*
X234844999Y-93867200D01*
G75*
G02*
X234595000Y-93617201I0J249999D01*
G01*
X234595000Y-92717199D01*
G75*
G02*
X234844999Y-92467200I249999J0D01*
G01*
X235545001Y-92467200D01*
G75*
G02*
X235795000Y-92717199I0J-249999D01*
G01*
G37*
G36*
G01*
X237795000Y-92717199D02*
X237795000Y-93617201D01*
G75*
G02*
X237545001Y-93867200I-249999J0D01*
G01*
X236844999Y-93867200D01*
G75*
G02*
X236595000Y-93617201I0J249999D01*
G01*
X236595000Y-92717199D01*
G75*
G02*
X236844999Y-92467200I249999J0D01*
G01*
X237545001Y-92467200D01*
G75*
G02*
X237795000Y-92717199I0J-249999D01*
G01*
G37*
%TD*%
%TO.C,R24*%
G36*
G01*
X235447001Y-98272000D02*
X234546999Y-98272000D01*
G75*
G02*
X234297000Y-98022001I0J249999D01*
G01*
X234297000Y-97321999D01*
G75*
G02*
X234546999Y-97072000I249999J0D01*
G01*
X235447001Y-97072000D01*
G75*
G02*
X235697000Y-97321999I0J-249999D01*
G01*
X235697000Y-98022001D01*
G75*
G02*
X235447001Y-98272000I-249999J0D01*
G01*
G37*
G36*
G01*
X235447001Y-100272000D02*
X234546999Y-100272000D01*
G75*
G02*
X234297000Y-100022001I0J249999D01*
G01*
X234297000Y-99321999D01*
G75*
G02*
X234546999Y-99072000I249999J0D01*
G01*
X235447001Y-99072000D01*
G75*
G02*
X235697000Y-99321999I0J-249999D01*
G01*
X235697000Y-100022001D01*
G75*
G02*
X235447001Y-100272000I-249999J0D01*
G01*
G37*
%TD*%
%TO.C,R25*%
G36*
G01*
X195640000Y-135070001D02*
X195640000Y-134169999D01*
G75*
G02*
X195889999Y-133920000I249999J0D01*
G01*
X196590001Y-133920000D01*
G75*
G02*
X196840000Y-134169999I0J-249999D01*
G01*
X196840000Y-135070001D01*
G75*
G02*
X196590001Y-135320000I-249999J0D01*
G01*
X195889999Y-135320000D01*
G75*
G02*
X195640000Y-135070001I0J249999D01*
G01*
G37*
G36*
G01*
X197640000Y-135070001D02*
X197640000Y-134169999D01*
G75*
G02*
X197889999Y-133920000I249999J0D01*
G01*
X198590001Y-133920000D01*
G75*
G02*
X198840000Y-134169999I0J-249999D01*
G01*
X198840000Y-135070001D01*
G75*
G02*
X198590001Y-135320000I-249999J0D01*
G01*
X197889999Y-135320000D01*
G75*
G02*
X197640000Y-135070001I0J249999D01*
G01*
G37*
%TD*%
%TO.C,R26*%
G36*
G01*
X241247001Y-94072000D02*
X240346999Y-94072000D01*
G75*
G02*
X240097000Y-93822001I0J249999D01*
G01*
X240097000Y-93121999D01*
G75*
G02*
X240346999Y-92872000I249999J0D01*
G01*
X241247001Y-92872000D01*
G75*
G02*
X241497000Y-93121999I0J-249999D01*
G01*
X241497000Y-93822001D01*
G75*
G02*
X241247001Y-94072000I-249999J0D01*
G01*
G37*
G36*
G01*
X241247001Y-96072000D02*
X240346999Y-96072000D01*
G75*
G02*
X240097000Y-95822001I0J249999D01*
G01*
X240097000Y-95121999D01*
G75*
G02*
X240346999Y-94872000I249999J0D01*
G01*
X241247001Y-94872000D01*
G75*
G02*
X241497000Y-95121999I0J-249999D01*
G01*
X241497000Y-95822001D01*
G75*
G02*
X241247001Y-96072000I-249999J0D01*
G01*
G37*
%TD*%
%TO.C,R27*%
G36*
G01*
X225372000Y-91646999D02*
X225372000Y-92547001D01*
G75*
G02*
X225122001Y-92797000I-249999J0D01*
G01*
X224421999Y-92797000D01*
G75*
G02*
X224172000Y-92547001I0J249999D01*
G01*
X224172000Y-91646999D01*
G75*
G02*
X224421999Y-91397000I249999J0D01*
G01*
X225122001Y-91397000D01*
G75*
G02*
X225372000Y-91646999I0J-249999D01*
G01*
G37*
G36*
G01*
X223372000Y-91646999D02*
X223372000Y-92547001D01*
G75*
G02*
X223122001Y-92797000I-249999J0D01*
G01*
X222421999Y-92797000D01*
G75*
G02*
X222172000Y-92547001I0J249999D01*
G01*
X222172000Y-91646999D01*
G75*
G02*
X222421999Y-91397000I249999J0D01*
G01*
X223122001Y-91397000D01*
G75*
G02*
X223372000Y-91646999I0J-249999D01*
G01*
G37*
%TD*%
%TO.C,R28*%
G36*
G01*
X228846801Y-71281600D02*
X227946799Y-71281600D01*
G75*
G02*
X227696800Y-71031601I0J249999D01*
G01*
X227696800Y-70331599D01*
G75*
G02*
X227946799Y-70081600I249999J0D01*
G01*
X228846801Y-70081600D01*
G75*
G02*
X229096800Y-70331599I0J-249999D01*
G01*
X229096800Y-71031601D01*
G75*
G02*
X228846801Y-71281600I-249999J0D01*
G01*
G37*
G36*
G01*
X228846801Y-69281600D02*
X227946799Y-69281600D01*
G75*
G02*
X227696800Y-69031601I0J249999D01*
G01*
X227696800Y-68331599D01*
G75*
G02*
X227946799Y-68081600I249999J0D01*
G01*
X228846801Y-68081600D01*
G75*
G02*
X229096800Y-68331599I0J-249999D01*
G01*
X229096800Y-69031601D01*
G75*
G02*
X228846801Y-69281600I-249999J0D01*
G01*
G37*
%TD*%
%TO.C,R29*%
G36*
G01*
X214637199Y-68488000D02*
X215537201Y-68488000D01*
G75*
G02*
X215787200Y-68737999I0J-249999D01*
G01*
X215787200Y-69438001D01*
G75*
G02*
X215537201Y-69688000I-249999J0D01*
G01*
X214637199Y-69688000D01*
G75*
G02*
X214387200Y-69438001I0J249999D01*
G01*
X214387200Y-68737999D01*
G75*
G02*
X214637199Y-68488000I249999J0D01*
G01*
G37*
G36*
G01*
X214637199Y-70488000D02*
X215537201Y-70488000D01*
G75*
G02*
X215787200Y-70737999I0J-249999D01*
G01*
X215787200Y-71438001D01*
G75*
G02*
X215537201Y-71688000I-249999J0D01*
G01*
X214637199Y-71688000D01*
G75*
G02*
X214387200Y-71438001I0J249999D01*
G01*
X214387200Y-70737999D01*
G75*
G02*
X214637199Y-70488000I249999J0D01*
G01*
G37*
%TD*%
%TO.C,R32*%
G36*
G01*
X223948801Y-88043000D02*
X223048799Y-88043000D01*
G75*
G02*
X222798800Y-87793001I0J249999D01*
G01*
X222798800Y-87092999D01*
G75*
G02*
X223048799Y-86843000I249999J0D01*
G01*
X223948801Y-86843000D01*
G75*
G02*
X224198800Y-87092999I0J-249999D01*
G01*
X224198800Y-87793001D01*
G75*
G02*
X223948801Y-88043000I-249999J0D01*
G01*
G37*
G36*
G01*
X223948801Y-86043000D02*
X223048799Y-86043000D01*
G75*
G02*
X222798800Y-85793001I0J249999D01*
G01*
X222798800Y-85092999D01*
G75*
G02*
X223048799Y-84843000I249999J0D01*
G01*
X223948801Y-84843000D01*
G75*
G02*
X224198800Y-85092999I0J-249999D01*
G01*
X224198800Y-85793001D01*
G75*
G02*
X223948801Y-86043000I-249999J0D01*
G01*
G37*
%TD*%
%TO.C,R33*%
G36*
G01*
X117233999Y-120512000D02*
X118134001Y-120512000D01*
G75*
G02*
X118384000Y-120761999I0J-249999D01*
G01*
X118384000Y-121462001D01*
G75*
G02*
X118134001Y-121712000I-249999J0D01*
G01*
X117233999Y-121712000D01*
G75*
G02*
X116984000Y-121462001I0J249999D01*
G01*
X116984000Y-120761999D01*
G75*
G02*
X117233999Y-120512000I249999J0D01*
G01*
G37*
G36*
G01*
X117233999Y-118512000D02*
X118134001Y-118512000D01*
G75*
G02*
X118384000Y-118761999I0J-249999D01*
G01*
X118384000Y-119462001D01*
G75*
G02*
X118134001Y-119712000I-249999J0D01*
G01*
X117233999Y-119712000D01*
G75*
G02*
X116984000Y-119462001I0J249999D01*
G01*
X116984000Y-118761999D01*
G75*
G02*
X117233999Y-118512000I249999J0D01*
G01*
G37*
%TD*%
%TO.C,R34*%
G36*
G01*
X223848801Y-82693000D02*
X222948799Y-82693000D01*
G75*
G02*
X222698800Y-82443001I0J249999D01*
G01*
X222698800Y-81742999D01*
G75*
G02*
X222948799Y-81493000I249999J0D01*
G01*
X223848801Y-81493000D01*
G75*
G02*
X224098800Y-81742999I0J-249999D01*
G01*
X224098800Y-82443001D01*
G75*
G02*
X223848801Y-82693000I-249999J0D01*
G01*
G37*
G36*
G01*
X223848801Y-80693000D02*
X222948799Y-80693000D01*
G75*
G02*
X222698800Y-80443001I0J249999D01*
G01*
X222698800Y-79742999D01*
G75*
G02*
X222948799Y-79493000I249999J0D01*
G01*
X223848801Y-79493000D01*
G75*
G02*
X224098800Y-79742999I0J-249999D01*
G01*
X224098800Y-80443001D01*
G75*
G02*
X223848801Y-80693000I-249999J0D01*
G01*
G37*
%TD*%
%TO.C,R35*%
G36*
G01*
X225355999Y-81557200D02*
X226256001Y-81557200D01*
G75*
G02*
X226506000Y-81807199I0J-249999D01*
G01*
X226506000Y-82507201D01*
G75*
G02*
X226256001Y-82757200I-249999J0D01*
G01*
X225355999Y-82757200D01*
G75*
G02*
X225106000Y-82507201I0J249999D01*
G01*
X225106000Y-81807199D01*
G75*
G02*
X225355999Y-81557200I249999J0D01*
G01*
G37*
G36*
G01*
X225355999Y-79557200D02*
X226256001Y-79557200D01*
G75*
G02*
X226506000Y-79807199I0J-249999D01*
G01*
X226506000Y-80507201D01*
G75*
G02*
X226256001Y-80757200I-249999J0D01*
G01*
X225355999Y-80757200D01*
G75*
G02*
X225106000Y-80507201I0J249999D01*
G01*
X225106000Y-79807199D01*
G75*
G02*
X225355999Y-79557200I249999J0D01*
G01*
G37*
%TD*%
%TO.C,R36*%
G36*
G01*
X240595999Y-69726000D02*
X241496001Y-69726000D01*
G75*
G02*
X241746000Y-69975999I0J-249999D01*
G01*
X241746000Y-70676001D01*
G75*
G02*
X241496001Y-70926000I-249999J0D01*
G01*
X240595999Y-70926000D01*
G75*
G02*
X240346000Y-70676001I0J249999D01*
G01*
X240346000Y-69975999D01*
G75*
G02*
X240595999Y-69726000I249999J0D01*
G01*
G37*
G36*
G01*
X240595999Y-67726000D02*
X241496001Y-67726000D01*
G75*
G02*
X241746000Y-67975999I0J-249999D01*
G01*
X241746000Y-68676001D01*
G75*
G02*
X241496001Y-68926000I-249999J0D01*
G01*
X240595999Y-68926000D01*
G75*
G02*
X240346000Y-68676001I0J249999D01*
G01*
X240346000Y-67975999D01*
G75*
G02*
X240595999Y-67726000I249999J0D01*
G01*
G37*
%TD*%
%TO.C,R37*%
G36*
G01*
X223716001Y-77308000D02*
X222815999Y-77308000D01*
G75*
G02*
X222566000Y-77058001I0J249999D01*
G01*
X222566000Y-76357999D01*
G75*
G02*
X222815999Y-76108000I249999J0D01*
G01*
X223716001Y-76108000D01*
G75*
G02*
X223966000Y-76357999I0J-249999D01*
G01*
X223966000Y-77058001D01*
G75*
G02*
X223716001Y-77308000I-249999J0D01*
G01*
G37*
G36*
G01*
X223716001Y-75308000D02*
X222815999Y-75308000D01*
G75*
G02*
X222566000Y-75058001I0J249999D01*
G01*
X222566000Y-74357999D01*
G75*
G02*
X222815999Y-74108000I249999J0D01*
G01*
X223716001Y-74108000D01*
G75*
G02*
X223966000Y-74357999I0J-249999D01*
G01*
X223966000Y-75058001D01*
G75*
G02*
X223716001Y-75308000I-249999J0D01*
G01*
G37*
%TD*%
%TO.C,R38*%
G36*
G01*
X192855001Y-150730000D02*
X191954999Y-150730000D01*
G75*
G02*
X191705000Y-150480001I0J249999D01*
G01*
X191705000Y-149779999D01*
G75*
G02*
X191954999Y-149530000I249999J0D01*
G01*
X192855001Y-149530000D01*
G75*
G02*
X193105000Y-149779999I0J-249999D01*
G01*
X193105000Y-150480001D01*
G75*
G02*
X192855001Y-150730000I-249999J0D01*
G01*
G37*
G36*
G01*
X192855001Y-152730000D02*
X191954999Y-152730000D01*
G75*
G02*
X191705000Y-152480001I0J249999D01*
G01*
X191705000Y-151779999D01*
G75*
G02*
X191954999Y-151530000I249999J0D01*
G01*
X192855001Y-151530000D01*
G75*
G02*
X193105000Y-151779999I0J-249999D01*
G01*
X193105000Y-152480001D01*
G75*
G02*
X192855001Y-152730000I-249999J0D01*
G01*
G37*
%TD*%
%TO.C,R39*%
G36*
G01*
X238622000Y-107347001D02*
X238622000Y-106446999D01*
G75*
G02*
X238871999Y-106197000I249999J0D01*
G01*
X239572001Y-106197000D01*
G75*
G02*
X239822000Y-106446999I0J-249999D01*
G01*
X239822000Y-107347001D01*
G75*
G02*
X239572001Y-107597000I-249999J0D01*
G01*
X238871999Y-107597000D01*
G75*
G02*
X238622000Y-107347001I0J249999D01*
G01*
G37*
G36*
G01*
X240622000Y-107347001D02*
X240622000Y-106446999D01*
G75*
G02*
X240871999Y-106197000I249999J0D01*
G01*
X241572001Y-106197000D01*
G75*
G02*
X241822000Y-106446999I0J-249999D01*
G01*
X241822000Y-107347001D01*
G75*
G02*
X241572001Y-107597000I-249999J0D01*
G01*
X240871999Y-107597000D01*
G75*
G02*
X240622000Y-107347001I0J249999D01*
G01*
G37*
%TD*%
%TO.C,R40*%
G36*
G01*
X240497000Y-104647001D02*
X240497000Y-103746999D01*
G75*
G02*
X240746999Y-103497000I249999J0D01*
G01*
X241447001Y-103497000D01*
G75*
G02*
X241697000Y-103746999I0J-249999D01*
G01*
X241697000Y-104647001D01*
G75*
G02*
X241447001Y-104897000I-249999J0D01*
G01*
X240746999Y-104897000D01*
G75*
G02*
X240497000Y-104647001I0J249999D01*
G01*
G37*
G36*
G01*
X238497000Y-104647001D02*
X238497000Y-103746999D01*
G75*
G02*
X238746999Y-103497000I249999J0D01*
G01*
X239447001Y-103497000D01*
G75*
G02*
X239697000Y-103746999I0J-249999D01*
G01*
X239697000Y-104647001D01*
G75*
G02*
X239447001Y-104897000I-249999J0D01*
G01*
X238746999Y-104897000D01*
G75*
G02*
X238497000Y-104647001I0J249999D01*
G01*
G37*
%TD*%
%TO.C,R42*%
G36*
G01*
X233089500Y-137306999D02*
X233089500Y-138207001D01*
G75*
G02*
X232839501Y-138457000I-249999J0D01*
G01*
X232139499Y-138457000D01*
G75*
G02*
X231889500Y-138207001I0J249999D01*
G01*
X231889500Y-137306999D01*
G75*
G02*
X232139499Y-137057000I249999J0D01*
G01*
X232839501Y-137057000D01*
G75*
G02*
X233089500Y-137306999I0J-249999D01*
G01*
G37*
G36*
G01*
X235089500Y-137306999D02*
X235089500Y-138207001D01*
G75*
G02*
X234839501Y-138457000I-249999J0D01*
G01*
X234139499Y-138457000D01*
G75*
G02*
X233889500Y-138207001I0J249999D01*
G01*
X233889500Y-137306999D01*
G75*
G02*
X234139499Y-137057000I249999J0D01*
G01*
X234839501Y-137057000D01*
G75*
G02*
X235089500Y-137306999I0J-249999D01*
G01*
G37*
%TD*%
%TO.C,R43*%
G36*
G01*
X244972000Y-107347001D02*
X244972000Y-106446999D01*
G75*
G02*
X245221999Y-106197000I249999J0D01*
G01*
X245922001Y-106197000D01*
G75*
G02*
X246172000Y-106446999I0J-249999D01*
G01*
X246172000Y-107347001D01*
G75*
G02*
X245922001Y-107597000I-249999J0D01*
G01*
X245221999Y-107597000D01*
G75*
G02*
X244972000Y-107347001I0J249999D01*
G01*
G37*
G36*
G01*
X242972000Y-107347001D02*
X242972000Y-106446999D01*
G75*
G02*
X243221999Y-106197000I249999J0D01*
G01*
X243922001Y-106197000D01*
G75*
G02*
X244172000Y-106446999I0J-249999D01*
G01*
X244172000Y-107347001D01*
G75*
G02*
X243922001Y-107597000I-249999J0D01*
G01*
X243221999Y-107597000D01*
G75*
G02*
X242972000Y-107347001I0J249999D01*
G01*
G37*
%TD*%
%TO.C,R44*%
G36*
G01*
X210635001Y-134855000D02*
X209734999Y-134855000D01*
G75*
G02*
X209485000Y-134605001I0J249999D01*
G01*
X209485000Y-133904999D01*
G75*
G02*
X209734999Y-133655000I249999J0D01*
G01*
X210635001Y-133655000D01*
G75*
G02*
X210885000Y-133904999I0J-249999D01*
G01*
X210885000Y-134605001D01*
G75*
G02*
X210635001Y-134855000I-249999J0D01*
G01*
G37*
G36*
G01*
X210635001Y-136855000D02*
X209734999Y-136855000D01*
G75*
G02*
X209485000Y-136605001I0J249999D01*
G01*
X209485000Y-135904999D01*
G75*
G02*
X209734999Y-135655000I249999J0D01*
G01*
X210635001Y-135655000D01*
G75*
G02*
X210885000Y-135904999I0J-249999D01*
G01*
X210885000Y-136605001D01*
G75*
G02*
X210635001Y-136855000I-249999J0D01*
G01*
G37*
%TD*%
%TO.C,R45*%
G36*
G01*
X159597000Y-159925999D02*
X159597000Y-160826001D01*
G75*
G02*
X159347001Y-161076000I-249999J0D01*
G01*
X158646999Y-161076000D01*
G75*
G02*
X158397000Y-160826001I0J249999D01*
G01*
X158397000Y-159925999D01*
G75*
G02*
X158646999Y-159676000I249999J0D01*
G01*
X159347001Y-159676000D01*
G75*
G02*
X159597000Y-159925999I0J-249999D01*
G01*
G37*
G36*
G01*
X157597000Y-159925999D02*
X157597000Y-160826001D01*
G75*
G02*
X157347001Y-161076000I-249999J0D01*
G01*
X156646999Y-161076000D01*
G75*
G02*
X156397000Y-160826001I0J249999D01*
G01*
X156397000Y-159925999D01*
G75*
G02*
X156646999Y-159676000I249999J0D01*
G01*
X157347001Y-159676000D01*
G75*
G02*
X157597000Y-159925999I0J-249999D01*
G01*
G37*
%TD*%
%TO.C,R46*%
G36*
G01*
X169323599Y-188071200D02*
X170223601Y-188071200D01*
G75*
G02*
X170473600Y-188321199I0J-249999D01*
G01*
X170473600Y-189021201D01*
G75*
G02*
X170223601Y-189271200I-249999J0D01*
G01*
X169323599Y-189271200D01*
G75*
G02*
X169073600Y-189021201I0J249999D01*
G01*
X169073600Y-188321199D01*
G75*
G02*
X169323599Y-188071200I249999J0D01*
G01*
G37*
G36*
G01*
X169323599Y-190071200D02*
X170223601Y-190071200D01*
G75*
G02*
X170473600Y-190321199I0J-249999D01*
G01*
X170473600Y-191021201D01*
G75*
G02*
X170223601Y-191271200I-249999J0D01*
G01*
X169323599Y-191271200D01*
G75*
G02*
X169073600Y-191021201I0J249999D01*
G01*
X169073600Y-190321199D01*
G75*
G02*
X169323599Y-190071200I249999J0D01*
G01*
G37*
%TD*%
%TO.C,R47*%
G36*
G01*
X135018000Y-160940001D02*
X135018000Y-160039999D01*
G75*
G02*
X135267999Y-159790000I249999J0D01*
G01*
X135968001Y-159790000D01*
G75*
G02*
X136218000Y-160039999I0J-249999D01*
G01*
X136218000Y-160940001D01*
G75*
G02*
X135968001Y-161190000I-249999J0D01*
G01*
X135267999Y-161190000D01*
G75*
G02*
X135018000Y-160940001I0J249999D01*
G01*
G37*
G36*
G01*
X137018000Y-160940001D02*
X137018000Y-160039999D01*
G75*
G02*
X137267999Y-159790000I249999J0D01*
G01*
X137968001Y-159790000D01*
G75*
G02*
X138218000Y-160039999I0J-249999D01*
G01*
X138218000Y-160940001D01*
G75*
G02*
X137968001Y-161190000I-249999J0D01*
G01*
X137267999Y-161190000D01*
G75*
G02*
X137018000Y-160940001I0J249999D01*
G01*
G37*
%TD*%
%TO.C,R49*%
G36*
G01*
X121850999Y-71393000D02*
X122751001Y-71393000D01*
G75*
G02*
X123001000Y-71642999I0J-249999D01*
G01*
X123001000Y-72343001D01*
G75*
G02*
X122751001Y-72593000I-249999J0D01*
G01*
X121850999Y-72593000D01*
G75*
G02*
X121601000Y-72343001I0J249999D01*
G01*
X121601000Y-71642999D01*
G75*
G02*
X121850999Y-71393000I249999J0D01*
G01*
G37*
G36*
G01*
X121850999Y-69393000D02*
X122751001Y-69393000D01*
G75*
G02*
X123001000Y-69642999I0J-249999D01*
G01*
X123001000Y-70343001D01*
G75*
G02*
X122751001Y-70593000I-249999J0D01*
G01*
X121850999Y-70593000D01*
G75*
G02*
X121601000Y-70343001I0J249999D01*
G01*
X121601000Y-69642999D01*
G75*
G02*
X121850999Y-69393000I249999J0D01*
G01*
G37*
%TD*%
%TO.C,R50*%
G36*
G01*
X249520400Y-174541601D02*
X249520400Y-173641599D01*
G75*
G02*
X249770399Y-173391600I249999J0D01*
G01*
X250470401Y-173391600D01*
G75*
G02*
X250720400Y-173641599I0J-249999D01*
G01*
X250720400Y-174541601D01*
G75*
G02*
X250470401Y-174791600I-249999J0D01*
G01*
X249770399Y-174791600D01*
G75*
G02*
X249520400Y-174541601I0J249999D01*
G01*
G37*
G36*
G01*
X251520400Y-174541601D02*
X251520400Y-173641599D01*
G75*
G02*
X251770399Y-173391600I249999J0D01*
G01*
X252470401Y-173391600D01*
G75*
G02*
X252720400Y-173641599I0J-249999D01*
G01*
X252720400Y-174541601D01*
G75*
G02*
X252470401Y-174791600I-249999J0D01*
G01*
X251770399Y-174791600D01*
G75*
G02*
X251520400Y-174541601I0J249999D01*
G01*
G37*
%TD*%
%TO.C,R51*%
G36*
G01*
X251513000Y-172560001D02*
X251513000Y-171659999D01*
G75*
G02*
X251762999Y-171410000I249999J0D01*
G01*
X252463001Y-171410000D01*
G75*
G02*
X252713000Y-171659999I0J-249999D01*
G01*
X252713000Y-172560001D01*
G75*
G02*
X252463001Y-172810000I-249999J0D01*
G01*
X251762999Y-172810000D01*
G75*
G02*
X251513000Y-172560001I0J249999D01*
G01*
G37*
G36*
G01*
X249513000Y-172560001D02*
X249513000Y-171659999D01*
G75*
G02*
X249762999Y-171410000I249999J0D01*
G01*
X250463001Y-171410000D01*
G75*
G02*
X250713000Y-171659999I0J-249999D01*
G01*
X250713000Y-172560001D01*
G75*
G02*
X250463001Y-172810000I-249999J0D01*
G01*
X249762999Y-172810000D01*
G75*
G02*
X249513000Y-172560001I0J249999D01*
G01*
G37*
%TD*%
%TO.C,R52*%
G36*
G01*
X126765000Y-140150001D02*
X126765000Y-139249999D01*
G75*
G02*
X127014999Y-139000000I249999J0D01*
G01*
X127715001Y-139000000D01*
G75*
G02*
X127965000Y-139249999I0J-249999D01*
G01*
X127965000Y-140150001D01*
G75*
G02*
X127715001Y-140400000I-249999J0D01*
G01*
X127014999Y-140400000D01*
G75*
G02*
X126765000Y-140150001I0J249999D01*
G01*
G37*
G36*
G01*
X124765000Y-140150001D02*
X124765000Y-139249999D01*
G75*
G02*
X125014999Y-139000000I249999J0D01*
G01*
X125715001Y-139000000D01*
G75*
G02*
X125965000Y-139249999I0J-249999D01*
G01*
X125965000Y-140150001D01*
G75*
G02*
X125715001Y-140400000I-249999J0D01*
G01*
X125014999Y-140400000D01*
G75*
G02*
X124765000Y-140150001I0J249999D01*
G01*
G37*
%TD*%
%TO.C,R53*%
G36*
G01*
X255085001Y-201530000D02*
X254184999Y-201530000D01*
G75*
G02*
X253935000Y-201280001I0J249999D01*
G01*
X253935000Y-200579999D01*
G75*
G02*
X254184999Y-200330000I249999J0D01*
G01*
X255085001Y-200330000D01*
G75*
G02*
X255335000Y-200579999I0J-249999D01*
G01*
X255335000Y-201280001D01*
G75*
G02*
X255085001Y-201530000I-249999J0D01*
G01*
G37*
G36*
G01*
X255085001Y-203530000D02*
X254184999Y-203530000D01*
G75*
G02*
X253935000Y-203280001I0J249999D01*
G01*
X253935000Y-202579999D01*
G75*
G02*
X254184999Y-202330000I249999J0D01*
G01*
X255085001Y-202330000D01*
G75*
G02*
X255335000Y-202579999I0J-249999D01*
G01*
X255335000Y-203280001D01*
G75*
G02*
X255085001Y-203530000I-249999J0D01*
G01*
G37*
%TD*%
%TO.C,R54*%
G36*
G01*
X117233999Y-123262000D02*
X118134001Y-123262000D01*
G75*
G02*
X118384000Y-123511999I0J-249999D01*
G01*
X118384000Y-124212001D01*
G75*
G02*
X118134001Y-124462000I-249999J0D01*
G01*
X117233999Y-124462000D01*
G75*
G02*
X116984000Y-124212001I0J249999D01*
G01*
X116984000Y-123511999D01*
G75*
G02*
X117233999Y-123262000I249999J0D01*
G01*
G37*
G36*
G01*
X117233999Y-125262000D02*
X118134001Y-125262000D01*
G75*
G02*
X118384000Y-125511999I0J-249999D01*
G01*
X118384000Y-126212001D01*
G75*
G02*
X118134001Y-126462000I-249999J0D01*
G01*
X117233999Y-126462000D01*
G75*
G02*
X116984000Y-126212001I0J249999D01*
G01*
X116984000Y-125511999D01*
G75*
G02*
X117233999Y-125262000I249999J0D01*
G01*
G37*
%TD*%
%TO.C,R55*%
G36*
G01*
X148164999Y-154931000D02*
X149065001Y-154931000D01*
G75*
G02*
X149315000Y-155180999I0J-249999D01*
G01*
X149315000Y-155881001D01*
G75*
G02*
X149065001Y-156131000I-249999J0D01*
G01*
X148164999Y-156131000D01*
G75*
G02*
X147915000Y-155881001I0J249999D01*
G01*
X147915000Y-155180999D01*
G75*
G02*
X148164999Y-154931000I249999J0D01*
G01*
G37*
G36*
G01*
X148164999Y-156931000D02*
X149065001Y-156931000D01*
G75*
G02*
X149315000Y-157180999I0J-249999D01*
G01*
X149315000Y-157881001D01*
G75*
G02*
X149065001Y-158131000I-249999J0D01*
G01*
X148164999Y-158131000D01*
G75*
G02*
X147915000Y-157881001I0J249999D01*
G01*
X147915000Y-157180999D01*
G75*
G02*
X148164999Y-156931000I249999J0D01*
G01*
G37*
%TD*%
%TO.C,R56*%
G36*
G01*
X249739999Y-182645000D02*
X250640001Y-182645000D01*
G75*
G02*
X250890000Y-182894999I0J-249999D01*
G01*
X250890000Y-183595001D01*
G75*
G02*
X250640001Y-183845000I-249999J0D01*
G01*
X249739999Y-183845000D01*
G75*
G02*
X249490000Y-183595001I0J249999D01*
G01*
X249490000Y-182894999D01*
G75*
G02*
X249739999Y-182645000I249999J0D01*
G01*
G37*
G36*
G01*
X249739999Y-180645000D02*
X250640001Y-180645000D01*
G75*
G02*
X250890000Y-180894999I0J-249999D01*
G01*
X250890000Y-181595001D01*
G75*
G02*
X250640001Y-181845000I-249999J0D01*
G01*
X249739999Y-181845000D01*
G75*
G02*
X249490000Y-181595001I0J249999D01*
G01*
X249490000Y-180894999D01*
G75*
G02*
X249739999Y-180645000I249999J0D01*
G01*
G37*
%TD*%
%TO.C,R58*%
G36*
G01*
X228846801Y-155826000D02*
X227946799Y-155826000D01*
G75*
G02*
X227696800Y-155576001I0J249999D01*
G01*
X227696800Y-154875999D01*
G75*
G02*
X227946799Y-154626000I249999J0D01*
G01*
X228846801Y-154626000D01*
G75*
G02*
X229096800Y-154875999I0J-249999D01*
G01*
X229096800Y-155576001D01*
G75*
G02*
X228846801Y-155826000I-249999J0D01*
G01*
G37*
G36*
G01*
X228846801Y-157826000D02*
X227946799Y-157826000D01*
G75*
G02*
X227696800Y-157576001I0J249999D01*
G01*
X227696800Y-156875999D01*
G75*
G02*
X227946799Y-156626000I249999J0D01*
G01*
X228846801Y-156626000D01*
G75*
G02*
X229096800Y-156875999I0J-249999D01*
G01*
X229096800Y-157576001D01*
G75*
G02*
X228846801Y-157826000I-249999J0D01*
G01*
G37*
%TD*%
%TO.C,R59*%
G36*
G01*
X232301201Y-157876800D02*
X231401199Y-157876800D01*
G75*
G02*
X231151200Y-157626801I0J249999D01*
G01*
X231151200Y-156926799D01*
G75*
G02*
X231401199Y-156676800I249999J0D01*
G01*
X232301201Y-156676800D01*
G75*
G02*
X232551200Y-156926799I0J-249999D01*
G01*
X232551200Y-157626801D01*
G75*
G02*
X232301201Y-157876800I-249999J0D01*
G01*
G37*
G36*
G01*
X232301201Y-155876800D02*
X231401199Y-155876800D01*
G75*
G02*
X231151200Y-155626801I0J249999D01*
G01*
X231151200Y-154926799D01*
G75*
G02*
X231401199Y-154676800I249999J0D01*
G01*
X232301201Y-154676800D01*
G75*
G02*
X232551200Y-154926799I0J-249999D01*
G01*
X232551200Y-155626801D01*
G75*
G02*
X232301201Y-155876800I-249999J0D01*
G01*
G37*
%TD*%
%TO.C,R61*%
G36*
G01*
X196840000Y-127184999D02*
X196840000Y-128085001D01*
G75*
G02*
X196590001Y-128335000I-249999J0D01*
G01*
X195889999Y-128335000D01*
G75*
G02*
X195640000Y-128085001I0J249999D01*
G01*
X195640000Y-127184999D01*
G75*
G02*
X195889999Y-126935000I249999J0D01*
G01*
X196590001Y-126935000D01*
G75*
G02*
X196840000Y-127184999I0J-249999D01*
G01*
G37*
G36*
G01*
X198840000Y-127184999D02*
X198840000Y-128085001D01*
G75*
G02*
X198590001Y-128335000I-249999J0D01*
G01*
X197889999Y-128335000D01*
G75*
G02*
X197640000Y-128085001I0J249999D01*
G01*
X197640000Y-127184999D01*
G75*
G02*
X197889999Y-126935000I249999J0D01*
G01*
X198590001Y-126935000D01*
G75*
G02*
X198840000Y-127184999I0J-249999D01*
G01*
G37*
%TD*%
%TO.C,R62*%
G36*
G01*
X231184001Y-177806000D02*
X230283999Y-177806000D01*
G75*
G02*
X230034000Y-177556001I0J249999D01*
G01*
X230034000Y-176855999D01*
G75*
G02*
X230283999Y-176606000I249999J0D01*
G01*
X231184001Y-176606000D01*
G75*
G02*
X231434000Y-176855999I0J-249999D01*
G01*
X231434000Y-177556001D01*
G75*
G02*
X231184001Y-177806000I-249999J0D01*
G01*
G37*
G36*
G01*
X231184001Y-179806000D02*
X230283999Y-179806000D01*
G75*
G02*
X230034000Y-179556001I0J249999D01*
G01*
X230034000Y-178855999D01*
G75*
G02*
X230283999Y-178606000I249999J0D01*
G01*
X231184001Y-178606000D01*
G75*
G02*
X231434000Y-178855999I0J-249999D01*
G01*
X231434000Y-179556001D01*
G75*
G02*
X231184001Y-179806000I-249999J0D01*
G01*
G37*
%TD*%
%TO.C,R63*%
G36*
G01*
X229152001Y-179806000D02*
X228251999Y-179806000D01*
G75*
G02*
X228002000Y-179556001I0J249999D01*
G01*
X228002000Y-178855999D01*
G75*
G02*
X228251999Y-178606000I249999J0D01*
G01*
X229152001Y-178606000D01*
G75*
G02*
X229402000Y-178855999I0J-249999D01*
G01*
X229402000Y-179556001D01*
G75*
G02*
X229152001Y-179806000I-249999J0D01*
G01*
G37*
G36*
G01*
X229152001Y-177806000D02*
X228251999Y-177806000D01*
G75*
G02*
X228002000Y-177556001I0J249999D01*
G01*
X228002000Y-176855999D01*
G75*
G02*
X228251999Y-176606000I249999J0D01*
G01*
X229152001Y-176606000D01*
G75*
G02*
X229402000Y-176855999I0J-249999D01*
G01*
X229402000Y-177556001D01*
G75*
G02*
X229152001Y-177806000I-249999J0D01*
G01*
G37*
%TD*%
%TO.C,R64*%
G36*
G01*
X231184001Y-183861000D02*
X230283999Y-183861000D01*
G75*
G02*
X230034000Y-183611001I0J249999D01*
G01*
X230034000Y-182910999D01*
G75*
G02*
X230283999Y-182661000I249999J0D01*
G01*
X231184001Y-182661000D01*
G75*
G02*
X231434000Y-182910999I0J-249999D01*
G01*
X231434000Y-183611001D01*
G75*
G02*
X231184001Y-183861000I-249999J0D01*
G01*
G37*
G36*
G01*
X231184001Y-181861000D02*
X230283999Y-181861000D01*
G75*
G02*
X230034000Y-181611001I0J249999D01*
G01*
X230034000Y-180910999D01*
G75*
G02*
X230283999Y-180661000I249999J0D01*
G01*
X231184001Y-180661000D01*
G75*
G02*
X231434000Y-180910999I0J-249999D01*
G01*
X231434000Y-181611001D01*
G75*
G02*
X231184001Y-181861000I-249999J0D01*
G01*
G37*
%TD*%
%TO.C,R65*%
G36*
G01*
X286286000Y-125418001D02*
X286286000Y-124517999D01*
G75*
G02*
X286535999Y-124268000I249999J0D01*
G01*
X287236001Y-124268000D01*
G75*
G02*
X287486000Y-124517999I0J-249999D01*
G01*
X287486000Y-125418001D01*
G75*
G02*
X287236001Y-125668000I-249999J0D01*
G01*
X286535999Y-125668000D01*
G75*
G02*
X286286000Y-125418001I0J249999D01*
G01*
G37*
G36*
G01*
X284286000Y-125418001D02*
X284286000Y-124517999D01*
G75*
G02*
X284535999Y-124268000I249999J0D01*
G01*
X285236001Y-124268000D01*
G75*
G02*
X285486000Y-124517999I0J-249999D01*
G01*
X285486000Y-125418001D01*
G75*
G02*
X285236001Y-125668000I-249999J0D01*
G01*
X284535999Y-125668000D01*
G75*
G02*
X284286000Y-125418001I0J249999D01*
G01*
G37*
%TD*%
%TO.C,R66*%
G36*
G01*
X253180001Y-190735000D02*
X252279999Y-190735000D01*
G75*
G02*
X252030000Y-190485001I0J249999D01*
G01*
X252030000Y-189784999D01*
G75*
G02*
X252279999Y-189535000I249999J0D01*
G01*
X253180001Y-189535000D01*
G75*
G02*
X253430000Y-189784999I0J-249999D01*
G01*
X253430000Y-190485001D01*
G75*
G02*
X253180001Y-190735000I-249999J0D01*
G01*
G37*
G36*
G01*
X253180001Y-192735000D02*
X252279999Y-192735000D01*
G75*
G02*
X252030000Y-192485001I0J249999D01*
G01*
X252030000Y-191784999D01*
G75*
G02*
X252279999Y-191535000I249999J0D01*
G01*
X253180001Y-191535000D01*
G75*
G02*
X253430000Y-191784999I0J-249999D01*
G01*
X253430000Y-192485001D01*
G75*
G02*
X253180001Y-192735000I-249999J0D01*
G01*
G37*
%TD*%
%TO.C,R67*%
G36*
G01*
X118900001Y-205660000D02*
X117999999Y-205660000D01*
G75*
G02*
X117750000Y-205410001I0J249999D01*
G01*
X117750000Y-204709999D01*
G75*
G02*
X117999999Y-204460000I249999J0D01*
G01*
X118900001Y-204460000D01*
G75*
G02*
X119150000Y-204709999I0J-249999D01*
G01*
X119150000Y-205410001D01*
G75*
G02*
X118900001Y-205660000I-249999J0D01*
G01*
G37*
G36*
G01*
X118900001Y-207660000D02*
X117999999Y-207660000D01*
G75*
G02*
X117750000Y-207410001I0J249999D01*
G01*
X117750000Y-206709999D01*
G75*
G02*
X117999999Y-206460000I249999J0D01*
G01*
X118900001Y-206460000D01*
G75*
G02*
X119150000Y-206709999I0J-249999D01*
G01*
X119150000Y-207410001D01*
G75*
G02*
X118900001Y-207660000I-249999J0D01*
G01*
G37*
%TD*%
%TO.C,R68*%
G36*
G01*
X286569999Y-105470000D02*
X287470001Y-105470000D01*
G75*
G02*
X287720000Y-105719999I0J-249999D01*
G01*
X287720000Y-106420001D01*
G75*
G02*
X287470001Y-106670000I-249999J0D01*
G01*
X286569999Y-106670000D01*
G75*
G02*
X286320000Y-106420001I0J249999D01*
G01*
X286320000Y-105719999D01*
G75*
G02*
X286569999Y-105470000I249999J0D01*
G01*
G37*
G36*
G01*
X286569999Y-107470000D02*
X287470001Y-107470000D01*
G75*
G02*
X287720000Y-107719999I0J-249999D01*
G01*
X287720000Y-108420001D01*
G75*
G02*
X287470001Y-108670000I-249999J0D01*
G01*
X286569999Y-108670000D01*
G75*
G02*
X286320000Y-108420001I0J249999D01*
G01*
X286320000Y-107719999D01*
G75*
G02*
X286569999Y-107470000I249999J0D01*
G01*
G37*
%TD*%
%TO.C,R69*%
G36*
G01*
X125248000Y-199053001D02*
X125248000Y-198152999D01*
G75*
G02*
X125497999Y-197903000I249999J0D01*
G01*
X126198001Y-197903000D01*
G75*
G02*
X126448000Y-198152999I0J-249999D01*
G01*
X126448000Y-199053001D01*
G75*
G02*
X126198001Y-199303000I-249999J0D01*
G01*
X125497999Y-199303000D01*
G75*
G02*
X125248000Y-199053001I0J249999D01*
G01*
G37*
G36*
G01*
X127248000Y-199053001D02*
X127248000Y-198152999D01*
G75*
G02*
X127497999Y-197903000I249999J0D01*
G01*
X128198001Y-197903000D01*
G75*
G02*
X128448000Y-198152999I0J-249999D01*
G01*
X128448000Y-199053001D01*
G75*
G02*
X128198001Y-199303000I-249999J0D01*
G01*
X127497999Y-199303000D01*
G75*
G02*
X127248000Y-199053001I0J249999D01*
G01*
G37*
%TD*%
%TO.C,R70*%
G36*
G01*
X222580000Y-199574999D02*
X222580000Y-200475001D01*
G75*
G02*
X222330001Y-200725000I-249999J0D01*
G01*
X221629999Y-200725000D01*
G75*
G02*
X221380000Y-200475001I0J249999D01*
G01*
X221380000Y-199574999D01*
G75*
G02*
X221629999Y-199325000I249999J0D01*
G01*
X222330001Y-199325000D01*
G75*
G02*
X222580000Y-199574999I0J-249999D01*
G01*
G37*
G36*
G01*
X220580000Y-199574999D02*
X220580000Y-200475001D01*
G75*
G02*
X220330001Y-200725000I-249999J0D01*
G01*
X219629999Y-200725000D01*
G75*
G02*
X219380000Y-200475001I0J249999D01*
G01*
X219380000Y-199574999D01*
G75*
G02*
X219629999Y-199325000I249999J0D01*
G01*
X220330001Y-199325000D01*
G75*
G02*
X220580000Y-199574999I0J-249999D01*
G01*
G37*
%TD*%
%TO.C,R72*%
G36*
G01*
X207560000Y-203015001D02*
X207560000Y-202114999D01*
G75*
G02*
X207809999Y-201865000I249999J0D01*
G01*
X208510001Y-201865000D01*
G75*
G02*
X208760000Y-202114999I0J-249999D01*
G01*
X208760000Y-203015001D01*
G75*
G02*
X208510001Y-203265000I-249999J0D01*
G01*
X207809999Y-203265000D01*
G75*
G02*
X207560000Y-203015001I0J249999D01*
G01*
G37*
G36*
G01*
X209560000Y-203015001D02*
X209560000Y-202114999D01*
G75*
G02*
X209809999Y-201865000I249999J0D01*
G01*
X210510001Y-201865000D01*
G75*
G02*
X210760000Y-202114999I0J-249999D01*
G01*
X210760000Y-203015001D01*
G75*
G02*
X210510001Y-203265000I-249999J0D01*
G01*
X209809999Y-203265000D01*
G75*
G02*
X209560000Y-203015001I0J249999D01*
G01*
G37*
%TD*%
%TO.C,R73*%
G36*
G01*
X136975001Y-175107000D02*
X136074999Y-175107000D01*
G75*
G02*
X135825000Y-174857001I0J249999D01*
G01*
X135825000Y-174156999D01*
G75*
G02*
X136074999Y-173907000I249999J0D01*
G01*
X136975001Y-173907000D01*
G75*
G02*
X137225000Y-174156999I0J-249999D01*
G01*
X137225000Y-174857001D01*
G75*
G02*
X136975001Y-175107000I-249999J0D01*
G01*
G37*
G36*
G01*
X136975001Y-173107000D02*
X136074999Y-173107000D01*
G75*
G02*
X135825000Y-172857001I0J249999D01*
G01*
X135825000Y-172156999D01*
G75*
G02*
X136074999Y-171907000I249999J0D01*
G01*
X136975001Y-171907000D01*
G75*
G02*
X137225000Y-172156999I0J-249999D01*
G01*
X137225000Y-172857001D01*
G75*
G02*
X136975001Y-173107000I-249999J0D01*
G01*
G37*
%TD*%
%TO.C,R74*%
G36*
G01*
X121590000Y-80460001D02*
X121590000Y-79559999D01*
G75*
G02*
X121839999Y-79310000I249999J0D01*
G01*
X122540001Y-79310000D01*
G75*
G02*
X122790000Y-79559999I0J-249999D01*
G01*
X122790000Y-80460001D01*
G75*
G02*
X122540001Y-80710000I-249999J0D01*
G01*
X121839999Y-80710000D01*
G75*
G02*
X121590000Y-80460001I0J249999D01*
G01*
G37*
G36*
G01*
X123590000Y-80460001D02*
X123590000Y-79559999D01*
G75*
G02*
X123839999Y-79310000I249999J0D01*
G01*
X124540001Y-79310000D01*
G75*
G02*
X124790000Y-79559999I0J-249999D01*
G01*
X124790000Y-80460001D01*
G75*
G02*
X124540001Y-80710000I-249999J0D01*
G01*
X123839999Y-80710000D01*
G75*
G02*
X123590000Y-80460001I0J249999D01*
G01*
G37*
%TD*%
%TO.C,R76*%
G36*
G01*
X261925000Y-193249999D02*
X261925000Y-194150001D01*
G75*
G02*
X261675001Y-194400000I-249999J0D01*
G01*
X260974999Y-194400000D01*
G75*
G02*
X260725000Y-194150001I0J249999D01*
G01*
X260725000Y-193249999D01*
G75*
G02*
X260974999Y-193000000I249999J0D01*
G01*
X261675001Y-193000000D01*
G75*
G02*
X261925000Y-193249999I0J-249999D01*
G01*
G37*
G36*
G01*
X259925000Y-193249999D02*
X259925000Y-194150001D01*
G75*
G02*
X259675001Y-194400000I-249999J0D01*
G01*
X258974999Y-194400000D01*
G75*
G02*
X258725000Y-194150001I0J249999D01*
G01*
X258725000Y-193249999D01*
G75*
G02*
X258974999Y-193000000I249999J0D01*
G01*
X259675001Y-193000000D01*
G75*
G02*
X259925000Y-193249999I0J-249999D01*
G01*
G37*
%TD*%
%TO.C,R77*%
G36*
G01*
X263989000Y-193249999D02*
X263989000Y-194150001D01*
G75*
G02*
X263739001Y-194400000I-249999J0D01*
G01*
X263038999Y-194400000D01*
G75*
G02*
X262789000Y-194150001I0J249999D01*
G01*
X262789000Y-193249999D01*
G75*
G02*
X263038999Y-193000000I249999J0D01*
G01*
X263739001Y-193000000D01*
G75*
G02*
X263989000Y-193249999I0J-249999D01*
G01*
G37*
G36*
G01*
X265989000Y-193249999D02*
X265989000Y-194150001D01*
G75*
G02*
X265739001Y-194400000I-249999J0D01*
G01*
X265038999Y-194400000D01*
G75*
G02*
X264789000Y-194150001I0J249999D01*
G01*
X264789000Y-193249999D01*
G75*
G02*
X265038999Y-193000000I249999J0D01*
G01*
X265739001Y-193000000D01*
G75*
G02*
X265989000Y-193249999I0J-249999D01*
G01*
G37*
%TD*%
%TO.C,R78*%
G36*
G01*
X261680000Y-200361999D02*
X261680000Y-201262001D01*
G75*
G02*
X261430001Y-201512000I-249999J0D01*
G01*
X260729999Y-201512000D01*
G75*
G02*
X260480000Y-201262001I0J249999D01*
G01*
X260480000Y-200361999D01*
G75*
G02*
X260729999Y-200112000I249999J0D01*
G01*
X261430001Y-200112000D01*
G75*
G02*
X261680000Y-200361999I0J-249999D01*
G01*
G37*
G36*
G01*
X259680000Y-200361999D02*
X259680000Y-201262001D01*
G75*
G02*
X259430001Y-201512000I-249999J0D01*
G01*
X258729999Y-201512000D01*
G75*
G02*
X258480000Y-201262001I0J249999D01*
G01*
X258480000Y-200361999D01*
G75*
G02*
X258729999Y-200112000I249999J0D01*
G01*
X259430001Y-200112000D01*
G75*
G02*
X259680000Y-200361999I0J-249999D01*
G01*
G37*
%TD*%
%TO.C,R80*%
G36*
G01*
X287486000Y-120961999D02*
X287486000Y-121862001D01*
G75*
G02*
X287236001Y-122112000I-249999J0D01*
G01*
X286535999Y-122112000D01*
G75*
G02*
X286286000Y-121862001I0J249999D01*
G01*
X286286000Y-120961999D01*
G75*
G02*
X286535999Y-120712000I249999J0D01*
G01*
X287236001Y-120712000D01*
G75*
G02*
X287486000Y-120961999I0J-249999D01*
G01*
G37*
G36*
G01*
X285486000Y-120961999D02*
X285486000Y-121862001D01*
G75*
G02*
X285236001Y-122112000I-249999J0D01*
G01*
X284535999Y-122112000D01*
G75*
G02*
X284286000Y-121862001I0J249999D01*
G01*
X284286000Y-120961999D01*
G75*
G02*
X284535999Y-120712000I249999J0D01*
G01*
X285236001Y-120712000D01*
G75*
G02*
X285486000Y-120961999I0J-249999D01*
G01*
G37*
%TD*%
%TO.C,R81*%
G36*
G01*
X206825001Y-150730000D02*
X205924999Y-150730000D01*
G75*
G02*
X205675000Y-150480001I0J249999D01*
G01*
X205675000Y-149779999D01*
G75*
G02*
X205924999Y-149530000I249999J0D01*
G01*
X206825001Y-149530000D01*
G75*
G02*
X207075000Y-149779999I0J-249999D01*
G01*
X207075000Y-150480001D01*
G75*
G02*
X206825001Y-150730000I-249999J0D01*
G01*
G37*
G36*
G01*
X206825001Y-152730000D02*
X205924999Y-152730000D01*
G75*
G02*
X205675000Y-152480001I0J249999D01*
G01*
X205675000Y-151779999D01*
G75*
G02*
X205924999Y-151530000I249999J0D01*
G01*
X206825001Y-151530000D01*
G75*
G02*
X207075000Y-151779999I0J-249999D01*
G01*
X207075000Y-152480001D01*
G75*
G02*
X206825001Y-152730000I-249999J0D01*
G01*
G37*
%TD*%
%TO.C,R82*%
G36*
G01*
X210623001Y-152730000D02*
X209722999Y-152730000D01*
G75*
G02*
X209473000Y-152480001I0J249999D01*
G01*
X209473000Y-151779999D01*
G75*
G02*
X209722999Y-151530000I249999J0D01*
G01*
X210623001Y-151530000D01*
G75*
G02*
X210873000Y-151779999I0J-249999D01*
G01*
X210873000Y-152480001D01*
G75*
G02*
X210623001Y-152730000I-249999J0D01*
G01*
G37*
G36*
G01*
X210623001Y-150730000D02*
X209722999Y-150730000D01*
G75*
G02*
X209473000Y-150480001I0J249999D01*
G01*
X209473000Y-149779999D01*
G75*
G02*
X209722999Y-149530000I249999J0D01*
G01*
X210623001Y-149530000D01*
G75*
G02*
X210873000Y-149779999I0J-249999D01*
G01*
X210873000Y-150480001D01*
G75*
G02*
X210623001Y-150730000I-249999J0D01*
G01*
G37*
%TD*%
%TO.C,R83*%
G36*
G01*
X213810001Y-152730000D02*
X212909999Y-152730000D01*
G75*
G02*
X212660000Y-152480001I0J249999D01*
G01*
X212660000Y-151779999D01*
G75*
G02*
X212909999Y-151530000I249999J0D01*
G01*
X213810001Y-151530000D01*
G75*
G02*
X214060000Y-151779999I0J-249999D01*
G01*
X214060000Y-152480001D01*
G75*
G02*
X213810001Y-152730000I-249999J0D01*
G01*
G37*
G36*
G01*
X213810001Y-150730000D02*
X212909999Y-150730000D01*
G75*
G02*
X212660000Y-150480001I0J249999D01*
G01*
X212660000Y-149779999D01*
G75*
G02*
X212909999Y-149530000I249999J0D01*
G01*
X213810001Y-149530000D01*
G75*
G02*
X214060000Y-149779999I0J-249999D01*
G01*
X214060000Y-150480001D01*
G75*
G02*
X213810001Y-150730000I-249999J0D01*
G01*
G37*
%TD*%
%TO.C,R84*%
G36*
G01*
X263735000Y-200361999D02*
X263735000Y-201262001D01*
G75*
G02*
X263485001Y-201512000I-249999J0D01*
G01*
X262784999Y-201512000D01*
G75*
G02*
X262535000Y-201262001I0J249999D01*
G01*
X262535000Y-200361999D01*
G75*
G02*
X262784999Y-200112000I249999J0D01*
G01*
X263485001Y-200112000D01*
G75*
G02*
X263735000Y-200361999I0J-249999D01*
G01*
G37*
G36*
G01*
X265735000Y-200361999D02*
X265735000Y-201262001D01*
G75*
G02*
X265485001Y-201512000I-249999J0D01*
G01*
X264784999Y-201512000D01*
G75*
G02*
X264535000Y-201262001I0J249999D01*
G01*
X264535000Y-200361999D01*
G75*
G02*
X264784999Y-200112000I249999J0D01*
G01*
X265485001Y-200112000D01*
G75*
G02*
X265735000Y-200361999I0J-249999D01*
G01*
G37*
%TD*%
%TO.C,R85*%
G36*
G01*
X269790000Y-200361999D02*
X269790000Y-201262001D01*
G75*
G02*
X269540001Y-201512000I-249999J0D01*
G01*
X268839999Y-201512000D01*
G75*
G02*
X268590000Y-201262001I0J249999D01*
G01*
X268590000Y-200361999D01*
G75*
G02*
X268839999Y-200112000I249999J0D01*
G01*
X269540001Y-200112000D01*
G75*
G02*
X269790000Y-200361999I0J-249999D01*
G01*
G37*
G36*
G01*
X267790000Y-200361999D02*
X267790000Y-201262001D01*
G75*
G02*
X267540001Y-201512000I-249999J0D01*
G01*
X266839999Y-201512000D01*
G75*
G02*
X266590000Y-201262001I0J249999D01*
G01*
X266590000Y-200361999D01*
G75*
G02*
X266839999Y-200112000I249999J0D01*
G01*
X267540001Y-200112000D01*
G75*
G02*
X267790000Y-200361999I0J-249999D01*
G01*
G37*
%TD*%
%TO.C,R86*%
G36*
G01*
X271863000Y-200361999D02*
X271863000Y-201262001D01*
G75*
G02*
X271613001Y-201512000I-249999J0D01*
G01*
X270912999Y-201512000D01*
G75*
G02*
X270663000Y-201262001I0J249999D01*
G01*
X270663000Y-200361999D01*
G75*
G02*
X270912999Y-200112000I249999J0D01*
G01*
X271613001Y-200112000D01*
G75*
G02*
X271863000Y-200361999I0J-249999D01*
G01*
G37*
G36*
G01*
X273863000Y-200361999D02*
X273863000Y-201262001D01*
G75*
G02*
X273613001Y-201512000I-249999J0D01*
G01*
X272912999Y-201512000D01*
G75*
G02*
X272663000Y-201262001I0J249999D01*
G01*
X272663000Y-200361999D01*
G75*
G02*
X272912999Y-200112000I249999J0D01*
G01*
X273613001Y-200112000D01*
G75*
G02*
X273863000Y-200361999I0J-249999D01*
G01*
G37*
%TD*%
%TO.C,R87*%
G36*
G01*
X270053000Y-193249999D02*
X270053000Y-194150001D01*
G75*
G02*
X269803001Y-194400000I-249999J0D01*
G01*
X269102999Y-194400000D01*
G75*
G02*
X268853000Y-194150001I0J249999D01*
G01*
X268853000Y-193249999D01*
G75*
G02*
X269102999Y-193000000I249999J0D01*
G01*
X269803001Y-193000000D01*
G75*
G02*
X270053000Y-193249999I0J-249999D01*
G01*
G37*
G36*
G01*
X268053000Y-193249999D02*
X268053000Y-194150001D01*
G75*
G02*
X267803001Y-194400000I-249999J0D01*
G01*
X267102999Y-194400000D01*
G75*
G02*
X266853000Y-194150001I0J249999D01*
G01*
X266853000Y-193249999D01*
G75*
G02*
X267102999Y-193000000I249999J0D01*
G01*
X267803001Y-193000000D01*
G75*
G02*
X268053000Y-193249999I0J-249999D01*
G01*
G37*
%TD*%
%TO.C,R88*%
G36*
G01*
X272108000Y-193249999D02*
X272108000Y-194150001D01*
G75*
G02*
X271858001Y-194400000I-249999J0D01*
G01*
X271157999Y-194400000D01*
G75*
G02*
X270908000Y-194150001I0J249999D01*
G01*
X270908000Y-193249999D01*
G75*
G02*
X271157999Y-193000000I249999J0D01*
G01*
X271858001Y-193000000D01*
G75*
G02*
X272108000Y-193249999I0J-249999D01*
G01*
G37*
G36*
G01*
X274108000Y-193249999D02*
X274108000Y-194150001D01*
G75*
G02*
X273858001Y-194400000I-249999J0D01*
G01*
X273157999Y-194400000D01*
G75*
G02*
X272908000Y-194150001I0J249999D01*
G01*
X272908000Y-193249999D01*
G75*
G02*
X273157999Y-193000000I249999J0D01*
G01*
X273858001Y-193000000D01*
G75*
G02*
X274108000Y-193249999I0J-249999D01*
G01*
G37*
%TD*%
%TO.C,R89*%
G36*
G01*
X218940801Y-194732200D02*
X218040799Y-194732200D01*
G75*
G02*
X217790800Y-194482201I0J249999D01*
G01*
X217790800Y-193782199D01*
G75*
G02*
X218040799Y-193532200I249999J0D01*
G01*
X218940801Y-193532200D01*
G75*
G02*
X219190800Y-193782199I0J-249999D01*
G01*
X219190800Y-194482201D01*
G75*
G02*
X218940801Y-194732200I-249999J0D01*
G01*
G37*
G36*
G01*
X218940801Y-196732200D02*
X218040799Y-196732200D01*
G75*
G02*
X217790800Y-196482201I0J249999D01*
G01*
X217790800Y-195782199D01*
G75*
G02*
X218040799Y-195532200I249999J0D01*
G01*
X218940801Y-195532200D01*
G75*
G02*
X219190800Y-195782199I0J-249999D01*
G01*
X219190800Y-196482201D01*
G75*
G02*
X218940801Y-196732200I-249999J0D01*
G01*
G37*
%TD*%
%TO.C,R90*%
G36*
G01*
X216840000Y-182060001D02*
X216840000Y-181159999D01*
G75*
G02*
X217089999Y-180910000I249999J0D01*
G01*
X217790001Y-180910000D01*
G75*
G02*
X218040000Y-181159999I0J-249999D01*
G01*
X218040000Y-182060001D01*
G75*
G02*
X217790001Y-182310000I-249999J0D01*
G01*
X217089999Y-182310000D01*
G75*
G02*
X216840000Y-182060001I0J249999D01*
G01*
G37*
G36*
G01*
X218840000Y-182060001D02*
X218840000Y-181159999D01*
G75*
G02*
X219089999Y-180910000I249999J0D01*
G01*
X219790001Y-180910000D01*
G75*
G02*
X220040000Y-181159999I0J-249999D01*
G01*
X220040000Y-182060001D01*
G75*
G02*
X219790001Y-182310000I-249999J0D01*
G01*
X219089999Y-182310000D01*
G75*
G02*
X218840000Y-182060001I0J249999D01*
G01*
G37*
%TD*%
%TO.C,R91*%
G36*
G01*
X211905001Y-191465000D02*
X211004999Y-191465000D01*
G75*
G02*
X210755000Y-191215001I0J249999D01*
G01*
X210755000Y-190514999D01*
G75*
G02*
X211004999Y-190265000I249999J0D01*
G01*
X211905001Y-190265000D01*
G75*
G02*
X212155000Y-190514999I0J-249999D01*
G01*
X212155000Y-191215001D01*
G75*
G02*
X211905001Y-191465000I-249999J0D01*
G01*
G37*
G36*
G01*
X211905001Y-189465000D02*
X211004999Y-189465000D01*
G75*
G02*
X210755000Y-189215001I0J249999D01*
G01*
X210755000Y-188514999D01*
G75*
G02*
X211004999Y-188265000I249999J0D01*
G01*
X211905001Y-188265000D01*
G75*
G02*
X212155000Y-188514999I0J-249999D01*
G01*
X212155000Y-189215001D01*
G75*
G02*
X211905001Y-189465000I-249999J0D01*
G01*
G37*
%TD*%
%TO.C,R92*%
G36*
G01*
X123977200Y-139249999D02*
X123977200Y-140150001D01*
G75*
G02*
X123727201Y-140400000I-249999J0D01*
G01*
X123027199Y-140400000D01*
G75*
G02*
X122777200Y-140150001I0J249999D01*
G01*
X122777200Y-139249999D01*
G75*
G02*
X123027199Y-139000000I249999J0D01*
G01*
X123727201Y-139000000D01*
G75*
G02*
X123977200Y-139249999I0J-249999D01*
G01*
G37*
G36*
G01*
X121977200Y-139249999D02*
X121977200Y-140150001D01*
G75*
G02*
X121727201Y-140400000I-249999J0D01*
G01*
X121027199Y-140400000D01*
G75*
G02*
X120777200Y-140150001I0J249999D01*
G01*
X120777200Y-139249999D01*
G75*
G02*
X121027199Y-139000000I249999J0D01*
G01*
X121727201Y-139000000D01*
G75*
G02*
X121977200Y-139249999I0J-249999D01*
G01*
G37*
%TD*%
%TO.C,R93*%
G36*
G01*
X216579000Y-187623001D02*
X216579000Y-186722999D01*
G75*
G02*
X216828999Y-186473000I249999J0D01*
G01*
X217529001Y-186473000D01*
G75*
G02*
X217779000Y-186722999I0J-249999D01*
G01*
X217779000Y-187623001D01*
G75*
G02*
X217529001Y-187873000I-249999J0D01*
G01*
X216828999Y-187873000D01*
G75*
G02*
X216579000Y-187623001I0J249999D01*
G01*
G37*
G36*
G01*
X214579000Y-187623001D02*
X214579000Y-186722999D01*
G75*
G02*
X214828999Y-186473000I249999J0D01*
G01*
X215529001Y-186473000D01*
G75*
G02*
X215779000Y-186722999I0J-249999D01*
G01*
X215779000Y-187623001D01*
G75*
G02*
X215529001Y-187873000I-249999J0D01*
G01*
X214828999Y-187873000D01*
G75*
G02*
X214579000Y-187623001I0J249999D01*
G01*
G37*
%TD*%
%TO.C,R94*%
G36*
G01*
X216545000Y-185235001D02*
X216545000Y-184334999D01*
G75*
G02*
X216794999Y-184085000I249999J0D01*
G01*
X217495001Y-184085000D01*
G75*
G02*
X217745000Y-184334999I0J-249999D01*
G01*
X217745000Y-185235001D01*
G75*
G02*
X217495001Y-185485000I-249999J0D01*
G01*
X216794999Y-185485000D01*
G75*
G02*
X216545000Y-185235001I0J249999D01*
G01*
G37*
G36*
G01*
X214545000Y-185235001D02*
X214545000Y-184334999D01*
G75*
G02*
X214794999Y-184085000I249999J0D01*
G01*
X215495001Y-184085000D01*
G75*
G02*
X215745000Y-184334999I0J-249999D01*
G01*
X215745000Y-185235001D01*
G75*
G02*
X215495001Y-185485000I-249999J0D01*
G01*
X214794999Y-185485000D01*
G75*
G02*
X214545000Y-185235001I0J249999D01*
G01*
G37*
%TD*%
%TO.C,R95*%
G36*
G01*
X213665000Y-191585001D02*
X213665000Y-190684999D01*
G75*
G02*
X213914999Y-190435000I249999J0D01*
G01*
X214615001Y-190435000D01*
G75*
G02*
X214865000Y-190684999I0J-249999D01*
G01*
X214865000Y-191585001D01*
G75*
G02*
X214615001Y-191835000I-249999J0D01*
G01*
X213914999Y-191835000D01*
G75*
G02*
X213665000Y-191585001I0J249999D01*
G01*
G37*
G36*
G01*
X215665000Y-191585001D02*
X215665000Y-190684999D01*
G75*
G02*
X215914999Y-190435000I249999J0D01*
G01*
X216615001Y-190435000D01*
G75*
G02*
X216865000Y-190684999I0J-249999D01*
G01*
X216865000Y-191585001D01*
G75*
G02*
X216615001Y-191835000I-249999J0D01*
G01*
X215914999Y-191835000D01*
G75*
G02*
X215665000Y-191585001I0J249999D01*
G01*
G37*
%TD*%
%TO.C,R96*%
G36*
G01*
X215767000Y-193973001D02*
X215767000Y-193072999D01*
G75*
G02*
X216016999Y-192823000I249999J0D01*
G01*
X216717001Y-192823000D01*
G75*
G02*
X216967000Y-193072999I0J-249999D01*
G01*
X216967000Y-193973001D01*
G75*
G02*
X216717001Y-194223000I-249999J0D01*
G01*
X216016999Y-194223000D01*
G75*
G02*
X215767000Y-193973001I0J249999D01*
G01*
G37*
G36*
G01*
X213767000Y-193973001D02*
X213767000Y-193072999D01*
G75*
G02*
X214016999Y-192823000I249999J0D01*
G01*
X214717001Y-192823000D01*
G75*
G02*
X214967000Y-193072999I0J-249999D01*
G01*
X214967000Y-193973001D01*
G75*
G02*
X214717001Y-194223000I-249999J0D01*
G01*
X214016999Y-194223000D01*
G75*
G02*
X213767000Y-193973001I0J249999D01*
G01*
G37*
%TD*%
%TO.C,R97*%
G36*
G01*
X286569999Y-103609600D02*
X287470001Y-103609600D01*
G75*
G02*
X287720000Y-103859599I0J-249999D01*
G01*
X287720000Y-104559601D01*
G75*
G02*
X287470001Y-104809600I-249999J0D01*
G01*
X286569999Y-104809600D01*
G75*
G02*
X286320000Y-104559601I0J249999D01*
G01*
X286320000Y-103859599D01*
G75*
G02*
X286569999Y-103609600I249999J0D01*
G01*
G37*
G36*
G01*
X286569999Y-101609600D02*
X287470001Y-101609600D01*
G75*
G02*
X287720000Y-101859599I0J-249999D01*
G01*
X287720000Y-102559601D01*
G75*
G02*
X287470001Y-102809600I-249999J0D01*
G01*
X286569999Y-102809600D01*
G75*
G02*
X286320000Y-102559601I0J249999D01*
G01*
X286320000Y-101859599D01*
G75*
G02*
X286569999Y-101609600I249999J0D01*
G01*
G37*
%TD*%
%TO.C,R98*%
G36*
G01*
X129616000Y-73082999D02*
X129616000Y-73983001D01*
G75*
G02*
X129366001Y-74233000I-249999J0D01*
G01*
X128665999Y-74233000D01*
G75*
G02*
X128416000Y-73983001I0J249999D01*
G01*
X128416000Y-73082999D01*
G75*
G02*
X128665999Y-72833000I249999J0D01*
G01*
X129366001Y-72833000D01*
G75*
G02*
X129616000Y-73082999I0J-249999D01*
G01*
G37*
G36*
G01*
X127616000Y-73082999D02*
X127616000Y-73983001D01*
G75*
G02*
X127366001Y-74233000I-249999J0D01*
G01*
X126665999Y-74233000D01*
G75*
G02*
X126416000Y-73983001I0J249999D01*
G01*
X126416000Y-73082999D01*
G75*
G02*
X126665999Y-72833000I249999J0D01*
G01*
X127366001Y-72833000D01*
G75*
G02*
X127616000Y-73082999I0J-249999D01*
G01*
G37*
%TD*%
%TO.C,R99*%
G36*
G01*
X278161800Y-106229999D02*
X278161800Y-107130001D01*
G75*
G02*
X277911801Y-107380000I-249999J0D01*
G01*
X277211799Y-107380000D01*
G75*
G02*
X276961800Y-107130001I0J249999D01*
G01*
X276961800Y-106229999D01*
G75*
G02*
X277211799Y-105980000I249999J0D01*
G01*
X277911801Y-105980000D01*
G75*
G02*
X278161800Y-106229999I0J-249999D01*
G01*
G37*
G36*
G01*
X280161800Y-106229999D02*
X280161800Y-107130001D01*
G75*
G02*
X279911801Y-107380000I-249999J0D01*
G01*
X279211799Y-107380000D01*
G75*
G02*
X278961800Y-107130001I0J249999D01*
G01*
X278961800Y-106229999D01*
G75*
G02*
X279211799Y-105980000I249999J0D01*
G01*
X279911801Y-105980000D01*
G75*
G02*
X280161800Y-106229999I0J-249999D01*
G01*
G37*
%TD*%
%TO.C,R100*%
G36*
G01*
X140570000Y-159569999D02*
X140570000Y-160470001D01*
G75*
G02*
X140320001Y-160720000I-249999J0D01*
G01*
X139619999Y-160720000D01*
G75*
G02*
X139370000Y-160470001I0J249999D01*
G01*
X139370000Y-159569999D01*
G75*
G02*
X139619999Y-159320000I249999J0D01*
G01*
X140320001Y-159320000D01*
G75*
G02*
X140570000Y-159569999I0J-249999D01*
G01*
G37*
G36*
G01*
X142570000Y-159569999D02*
X142570000Y-160470001D01*
G75*
G02*
X142320001Y-160720000I-249999J0D01*
G01*
X141619999Y-160720000D01*
G75*
G02*
X141370000Y-160470001I0J249999D01*
G01*
X141370000Y-159569999D01*
G75*
G02*
X141619999Y-159320000I249999J0D01*
G01*
X142320001Y-159320000D01*
G75*
G02*
X142570000Y-159569999I0J-249999D01*
G01*
G37*
%TD*%
%TO.C,R101*%
G36*
G01*
X163705600Y-190010201D02*
X163705600Y-189110199D01*
G75*
G02*
X163955599Y-188860200I249999J0D01*
G01*
X164655601Y-188860200D01*
G75*
G02*
X164905600Y-189110199I0J-249999D01*
G01*
X164905600Y-190010201D01*
G75*
G02*
X164655601Y-190260200I-249999J0D01*
G01*
X163955599Y-190260200D01*
G75*
G02*
X163705600Y-190010201I0J249999D01*
G01*
G37*
G36*
G01*
X161705600Y-190010201D02*
X161705600Y-189110199D01*
G75*
G02*
X161955599Y-188860200I249999J0D01*
G01*
X162655601Y-188860200D01*
G75*
G02*
X162905600Y-189110199I0J-249999D01*
G01*
X162905600Y-190010201D01*
G75*
G02*
X162655601Y-190260200I-249999J0D01*
G01*
X161955599Y-190260200D01*
G75*
G02*
X161705600Y-190010201I0J249999D01*
G01*
G37*
%TD*%
%TO.C,R102*%
G36*
G01*
X143570000Y-175075001D02*
X143570000Y-174174999D01*
G75*
G02*
X143819999Y-173925000I249999J0D01*
G01*
X144520001Y-173925000D01*
G75*
G02*
X144770000Y-174174999I0J-249999D01*
G01*
X144770000Y-175075001D01*
G75*
G02*
X144520001Y-175325000I-249999J0D01*
G01*
X143819999Y-175325000D01*
G75*
G02*
X143570000Y-175075001I0J249999D01*
G01*
G37*
G36*
G01*
X145570000Y-175075001D02*
X145570000Y-174174999D01*
G75*
G02*
X145819999Y-173925000I249999J0D01*
G01*
X146520001Y-173925000D01*
G75*
G02*
X146770000Y-174174999I0J-249999D01*
G01*
X146770000Y-175075001D01*
G75*
G02*
X146520001Y-175325000I-249999J0D01*
G01*
X145819999Y-175325000D01*
G75*
G02*
X145570000Y-175075001I0J249999D01*
G01*
G37*
%TD*%
%TO.C,R103*%
G36*
G01*
X196370001Y-152721000D02*
X195469999Y-152721000D01*
G75*
G02*
X195220000Y-152471001I0J249999D01*
G01*
X195220000Y-151770999D01*
G75*
G02*
X195469999Y-151521000I249999J0D01*
G01*
X196370001Y-151521000D01*
G75*
G02*
X196620000Y-151770999I0J-249999D01*
G01*
X196620000Y-152471001D01*
G75*
G02*
X196370001Y-152721000I-249999J0D01*
G01*
G37*
G36*
G01*
X196370001Y-150721000D02*
X195469999Y-150721000D01*
G75*
G02*
X195220000Y-150471001I0J249999D01*
G01*
X195220000Y-149770999D01*
G75*
G02*
X195469999Y-149521000I249999J0D01*
G01*
X196370001Y-149521000D01*
G75*
G02*
X196620000Y-149770999I0J-249999D01*
G01*
X196620000Y-150471001D01*
G75*
G02*
X196370001Y-150721000I-249999J0D01*
G01*
G37*
%TD*%
%TO.C,R104*%
G36*
G01*
X230320001Y-192005000D02*
X229419999Y-192005000D01*
G75*
G02*
X229170000Y-191755001I0J249999D01*
G01*
X229170000Y-191054999D01*
G75*
G02*
X229419999Y-190805000I249999J0D01*
G01*
X230320001Y-190805000D01*
G75*
G02*
X230570000Y-191054999I0J-249999D01*
G01*
X230570000Y-191755001D01*
G75*
G02*
X230320001Y-192005000I-249999J0D01*
G01*
G37*
G36*
G01*
X230320001Y-194005000D02*
X229419999Y-194005000D01*
G75*
G02*
X229170000Y-193755001I0J249999D01*
G01*
X229170000Y-193054999D01*
G75*
G02*
X229419999Y-192805000I249999J0D01*
G01*
X230320001Y-192805000D01*
G75*
G02*
X230570000Y-193054999I0J-249999D01*
G01*
X230570000Y-193755001D01*
G75*
G02*
X230320001Y-194005000I-249999J0D01*
G01*
G37*
%TD*%
%TO.C,R105*%
G36*
G01*
X198939999Y-151530000D02*
X199840001Y-151530000D01*
G75*
G02*
X200090000Y-151779999I0J-249999D01*
G01*
X200090000Y-152480001D01*
G75*
G02*
X199840001Y-152730000I-249999J0D01*
G01*
X198939999Y-152730000D01*
G75*
G02*
X198690000Y-152480001I0J249999D01*
G01*
X198690000Y-151779999D01*
G75*
G02*
X198939999Y-151530000I249999J0D01*
G01*
G37*
G36*
G01*
X198939999Y-149530000D02*
X199840001Y-149530000D01*
G75*
G02*
X200090000Y-149779999I0J-249999D01*
G01*
X200090000Y-150480001D01*
G75*
G02*
X199840001Y-150730000I-249999J0D01*
G01*
X198939999Y-150730000D01*
G75*
G02*
X198690000Y-150480001I0J249999D01*
G01*
X198690000Y-149779999D01*
G75*
G02*
X198939999Y-149530000I249999J0D01*
G01*
G37*
%TD*%
%TO.C,R106*%
G36*
G01*
X215449999Y-173905000D02*
X216350001Y-173905000D01*
G75*
G02*
X216600000Y-174154999I0J-249999D01*
G01*
X216600000Y-174855001D01*
G75*
G02*
X216350001Y-175105000I-249999J0D01*
G01*
X215449999Y-175105000D01*
G75*
G02*
X215200000Y-174855001I0J249999D01*
G01*
X215200000Y-174154999D01*
G75*
G02*
X215449999Y-173905000I249999J0D01*
G01*
G37*
G36*
G01*
X215449999Y-175905000D02*
X216350001Y-175905000D01*
G75*
G02*
X216600000Y-176154999I0J-249999D01*
G01*
X216600000Y-176855001D01*
G75*
G02*
X216350001Y-177105000I-249999J0D01*
G01*
X215449999Y-177105000D01*
G75*
G02*
X215200000Y-176855001I0J249999D01*
G01*
X215200000Y-176154999D01*
G75*
G02*
X215449999Y-175905000I249999J0D01*
G01*
G37*
%TD*%
%TO.C,R107*%
G36*
G01*
X212490000Y-180155001D02*
X212490000Y-179254999D01*
G75*
G02*
X212739999Y-179005000I249999J0D01*
G01*
X213440001Y-179005000D01*
G75*
G02*
X213690000Y-179254999I0J-249999D01*
G01*
X213690000Y-180155001D01*
G75*
G02*
X213440001Y-180405000I-249999J0D01*
G01*
X212739999Y-180405000D01*
G75*
G02*
X212490000Y-180155001I0J249999D01*
G01*
G37*
G36*
G01*
X210490000Y-180155001D02*
X210490000Y-179254999D01*
G75*
G02*
X210739999Y-179005000I249999J0D01*
G01*
X211440001Y-179005000D01*
G75*
G02*
X211690000Y-179254999I0J-249999D01*
G01*
X211690000Y-180155001D01*
G75*
G02*
X211440001Y-180405000I-249999J0D01*
G01*
X210739999Y-180405000D01*
G75*
G02*
X210490000Y-180155001I0J249999D01*
G01*
G37*
%TD*%
%TO.C,R108*%
G36*
G01*
X220328800Y-160941599D02*
X220328800Y-161841601D01*
G75*
G02*
X220078801Y-162091600I-249999J0D01*
G01*
X219378799Y-162091600D01*
G75*
G02*
X219128800Y-161841601I0J249999D01*
G01*
X219128800Y-160941599D01*
G75*
G02*
X219378799Y-160691600I249999J0D01*
G01*
X220078801Y-160691600D01*
G75*
G02*
X220328800Y-160941599I0J-249999D01*
G01*
G37*
G36*
G01*
X218328800Y-160941599D02*
X218328800Y-161841601D01*
G75*
G02*
X218078801Y-162091600I-249999J0D01*
G01*
X217378799Y-162091600D01*
G75*
G02*
X217128800Y-161841601I0J249999D01*
G01*
X217128800Y-160941599D01*
G75*
G02*
X217378799Y-160691600I249999J0D01*
G01*
X218078801Y-160691600D01*
G75*
G02*
X218328800Y-160941599I0J-249999D01*
G01*
G37*
%TD*%
%TO.C,R111*%
G36*
G01*
X257334599Y-86420400D02*
X258234601Y-86420400D01*
G75*
G02*
X258484600Y-86670399I0J-249999D01*
G01*
X258484600Y-87370401D01*
G75*
G02*
X258234601Y-87620400I-249999J0D01*
G01*
X257334599Y-87620400D01*
G75*
G02*
X257084600Y-87370401I0J249999D01*
G01*
X257084600Y-86670399D01*
G75*
G02*
X257334599Y-86420400I249999J0D01*
G01*
G37*
G36*
G01*
X257334599Y-88420400D02*
X258234601Y-88420400D01*
G75*
G02*
X258484600Y-88670399I0J-249999D01*
G01*
X258484600Y-89370401D01*
G75*
G02*
X258234601Y-89620400I-249999J0D01*
G01*
X257334599Y-89620400D01*
G75*
G02*
X257084600Y-89370401I0J249999D01*
G01*
X257084600Y-88670399D01*
G75*
G02*
X257334599Y-88420400I249999J0D01*
G01*
G37*
%TD*%
%TO.C,R112*%
G36*
G01*
X259315799Y-88420400D02*
X260215801Y-88420400D01*
G75*
G02*
X260465800Y-88670399I0J-249999D01*
G01*
X260465800Y-89370401D01*
G75*
G02*
X260215801Y-89620400I-249999J0D01*
G01*
X259315799Y-89620400D01*
G75*
G02*
X259065800Y-89370401I0J249999D01*
G01*
X259065800Y-88670399D01*
G75*
G02*
X259315799Y-88420400I249999J0D01*
G01*
G37*
G36*
G01*
X259315799Y-86420400D02*
X260215801Y-86420400D01*
G75*
G02*
X260465800Y-86670399I0J-249999D01*
G01*
X260465800Y-87370401D01*
G75*
G02*
X260215801Y-87620400I-249999J0D01*
G01*
X259315799Y-87620400D01*
G75*
G02*
X259065800Y-87370401I0J249999D01*
G01*
X259065800Y-86670399D01*
G75*
G02*
X259315799Y-86420400I249999J0D01*
G01*
G37*
%TD*%
%TO.C,R115*%
G36*
G01*
X190430999Y-209950000D02*
X191331001Y-209950000D01*
G75*
G02*
X191581000Y-210199999I0J-249999D01*
G01*
X191581000Y-210900001D01*
G75*
G02*
X191331001Y-211150000I-249999J0D01*
G01*
X190430999Y-211150000D01*
G75*
G02*
X190181000Y-210900001I0J249999D01*
G01*
X190181000Y-210199999D01*
G75*
G02*
X190430999Y-209950000I249999J0D01*
G01*
G37*
G36*
G01*
X190430999Y-207950000D02*
X191331001Y-207950000D01*
G75*
G02*
X191581000Y-208199999I0J-249999D01*
G01*
X191581000Y-208900001D01*
G75*
G02*
X191331001Y-209150000I-249999J0D01*
G01*
X190430999Y-209150000D01*
G75*
G02*
X190181000Y-208900001I0J249999D01*
G01*
X190181000Y-208199999D01*
G75*
G02*
X190430999Y-207950000I249999J0D01*
G01*
G37*
%TD*%
%TO.C,R116*%
G36*
G01*
X194266399Y-207984800D02*
X195166401Y-207984800D01*
G75*
G02*
X195416400Y-208234799I0J-249999D01*
G01*
X195416400Y-208934801D01*
G75*
G02*
X195166401Y-209184800I-249999J0D01*
G01*
X194266399Y-209184800D01*
G75*
G02*
X194016400Y-208934801I0J249999D01*
G01*
X194016400Y-208234799D01*
G75*
G02*
X194266399Y-207984800I249999J0D01*
G01*
G37*
G36*
G01*
X194266399Y-209984800D02*
X195166401Y-209984800D01*
G75*
G02*
X195416400Y-210234799I0J-249999D01*
G01*
X195416400Y-210934801D01*
G75*
G02*
X195166401Y-211184800I-249999J0D01*
G01*
X194266399Y-211184800D01*
G75*
G02*
X194016400Y-210934801I0J249999D01*
G01*
X194016400Y-210234799D01*
G75*
G02*
X194266399Y-209984800I249999J0D01*
G01*
G37*
%TD*%
%TO.C,R117*%
G36*
G01*
X198050999Y-209950000D02*
X198951001Y-209950000D01*
G75*
G02*
X199201000Y-210199999I0J-249999D01*
G01*
X199201000Y-210900001D01*
G75*
G02*
X198951001Y-211150000I-249999J0D01*
G01*
X198050999Y-211150000D01*
G75*
G02*
X197801000Y-210900001I0J249999D01*
G01*
X197801000Y-210199999D01*
G75*
G02*
X198050999Y-209950000I249999J0D01*
G01*
G37*
G36*
G01*
X198050999Y-207950000D02*
X198951001Y-207950000D01*
G75*
G02*
X199201000Y-208199999I0J-249999D01*
G01*
X199201000Y-208900001D01*
G75*
G02*
X198951001Y-209150000I-249999J0D01*
G01*
X198050999Y-209150000D01*
G75*
G02*
X197801000Y-208900001I0J249999D01*
G01*
X197801000Y-208199999D01*
G75*
G02*
X198050999Y-207950000I249999J0D01*
G01*
G37*
%TD*%
%TO.C,R118*%
G36*
G01*
X169487001Y-196935000D02*
X168586999Y-196935000D01*
G75*
G02*
X168337000Y-196685001I0J249999D01*
G01*
X168337000Y-195984999D01*
G75*
G02*
X168586999Y-195735000I249999J0D01*
G01*
X169487001Y-195735000D01*
G75*
G02*
X169737000Y-195984999I0J-249999D01*
G01*
X169737000Y-196685001D01*
G75*
G02*
X169487001Y-196935000I-249999J0D01*
G01*
G37*
G36*
G01*
X169487001Y-194935000D02*
X168586999Y-194935000D01*
G75*
G02*
X168337000Y-194685001I0J249999D01*
G01*
X168337000Y-193984999D01*
G75*
G02*
X168586999Y-193735000I249999J0D01*
G01*
X169487001Y-193735000D01*
G75*
G02*
X169737000Y-193984999I0J-249999D01*
G01*
X169737000Y-194685001D01*
G75*
G02*
X169487001Y-194935000I-249999J0D01*
G01*
G37*
%TD*%
%TO.C,R119*%
G36*
G01*
X171900001Y-194935000D02*
X170999999Y-194935000D01*
G75*
G02*
X170750000Y-194685001I0J249999D01*
G01*
X170750000Y-193984999D01*
G75*
G02*
X170999999Y-193735000I249999J0D01*
G01*
X171900001Y-193735000D01*
G75*
G02*
X172150000Y-193984999I0J-249999D01*
G01*
X172150000Y-194685001D01*
G75*
G02*
X171900001Y-194935000I-249999J0D01*
G01*
G37*
G36*
G01*
X171900001Y-196935000D02*
X170999999Y-196935000D01*
G75*
G02*
X170750000Y-196685001I0J249999D01*
G01*
X170750000Y-195984999D01*
G75*
G02*
X170999999Y-195735000I249999J0D01*
G01*
X171900001Y-195735000D01*
G75*
G02*
X172150000Y-195984999I0J-249999D01*
G01*
X172150000Y-196685001D01*
G75*
G02*
X171900001Y-196935000I-249999J0D01*
G01*
G37*
%TD*%
%TO.C,R120*%
G36*
G01*
X284114800Y-73717999D02*
X284114800Y-74618001D01*
G75*
G02*
X283864801Y-74868000I-249999J0D01*
G01*
X283164799Y-74868000D01*
G75*
G02*
X282914800Y-74618001I0J249999D01*
G01*
X282914800Y-73717999D01*
G75*
G02*
X283164799Y-73468000I249999J0D01*
G01*
X283864801Y-73468000D01*
G75*
G02*
X284114800Y-73717999I0J-249999D01*
G01*
G37*
G36*
G01*
X286114800Y-73717999D02*
X286114800Y-74618001D01*
G75*
G02*
X285864801Y-74868000I-249999J0D01*
G01*
X285164799Y-74868000D01*
G75*
G02*
X284914800Y-74618001I0J249999D01*
G01*
X284914800Y-73717999D01*
G75*
G02*
X285164799Y-73468000I249999J0D01*
G01*
X285864801Y-73468000D01*
G75*
G02*
X286114800Y-73717999I0J-249999D01*
G01*
G37*
%TD*%
%TO.C,R121*%
G36*
G01*
X283828800Y-76054799D02*
X283828800Y-76954801D01*
G75*
G02*
X283578801Y-77204800I-249999J0D01*
G01*
X282878799Y-77204800D01*
G75*
G02*
X282628800Y-76954801I0J249999D01*
G01*
X282628800Y-76054799D01*
G75*
G02*
X282878799Y-75804800I249999J0D01*
G01*
X283578801Y-75804800D01*
G75*
G02*
X283828800Y-76054799I0J-249999D01*
G01*
G37*
G36*
G01*
X281828800Y-76054799D02*
X281828800Y-76954801D01*
G75*
G02*
X281578801Y-77204800I-249999J0D01*
G01*
X280878799Y-77204800D01*
G75*
G02*
X280628800Y-76954801I0J249999D01*
G01*
X280628800Y-76054799D01*
G75*
G02*
X280878799Y-75804800I249999J0D01*
G01*
X281578801Y-75804800D01*
G75*
G02*
X281828800Y-76054799I0J-249999D01*
G01*
G37*
%TD*%
%TO.C,R122*%
G36*
G01*
X209864400Y-75938801D02*
X209864400Y-75038799D01*
G75*
G02*
X210114399Y-74788800I249999J0D01*
G01*
X210814401Y-74788800D01*
G75*
G02*
X211064400Y-75038799I0J-249999D01*
G01*
X211064400Y-75938801D01*
G75*
G02*
X210814401Y-76188800I-249999J0D01*
G01*
X210114399Y-76188800D01*
G75*
G02*
X209864400Y-75938801I0J249999D01*
G01*
G37*
G36*
G01*
X207864400Y-75938801D02*
X207864400Y-75038799D01*
G75*
G02*
X208114399Y-74788800I249999J0D01*
G01*
X208814401Y-74788800D01*
G75*
G02*
X209064400Y-75038799I0J-249999D01*
G01*
X209064400Y-75938801D01*
G75*
G02*
X208814401Y-76188800I-249999J0D01*
G01*
X208114399Y-76188800D01*
G75*
G02*
X207864400Y-75938801I0J249999D01*
G01*
G37*
%TD*%
%TO.C,R123*%
G36*
G01*
X245356801Y-113376000D02*
X244456799Y-113376000D01*
G75*
G02*
X244206800Y-113126001I0J249999D01*
G01*
X244206800Y-112425999D01*
G75*
G02*
X244456799Y-112176000I249999J0D01*
G01*
X245356801Y-112176000D01*
G75*
G02*
X245606800Y-112425999I0J-249999D01*
G01*
X245606800Y-113126001D01*
G75*
G02*
X245356801Y-113376000I-249999J0D01*
G01*
G37*
G36*
G01*
X245356801Y-115376000D02*
X244456799Y-115376000D01*
G75*
G02*
X244206800Y-115126001I0J249999D01*
G01*
X244206800Y-114425999D01*
G75*
G02*
X244456799Y-114176000I249999J0D01*
G01*
X245356801Y-114176000D01*
G75*
G02*
X245606800Y-114425999I0J-249999D01*
G01*
X245606800Y-115126001D01*
G75*
G02*
X245356801Y-115376000I-249999J0D01*
G01*
G37*
%TD*%
%TO.C,R124*%
G36*
G01*
X281957800Y-91922101D02*
X281057798Y-91922101D01*
G75*
G02*
X280807799Y-91672102I0J249999D01*
G01*
X280807799Y-90972100D01*
G75*
G02*
X281057798Y-90722101I249999J0D01*
G01*
X281957800Y-90722101D01*
G75*
G02*
X282207799Y-90972100I0J-249999D01*
G01*
X282207799Y-91672102D01*
G75*
G02*
X281957800Y-91922101I-249999J0D01*
G01*
G37*
G36*
G01*
X281957800Y-93922101D02*
X281057798Y-93922101D01*
G75*
G02*
X280807799Y-93672102I0J249999D01*
G01*
X280807799Y-92972100D01*
G75*
G02*
X281057798Y-92722101I249999J0D01*
G01*
X281957800Y-92722101D01*
G75*
G02*
X282207799Y-92972100I0J-249999D01*
G01*
X282207799Y-93672102D01*
G75*
G02*
X281957800Y-93922101I-249999J0D01*
G01*
G37*
%TD*%
%TO.C,R125*%
G36*
G01*
X281957800Y-89172101D02*
X281057798Y-89172101D01*
G75*
G02*
X280807799Y-88922102I0J249999D01*
G01*
X280807799Y-88222100D01*
G75*
G02*
X281057798Y-87972101I249999J0D01*
G01*
X281957800Y-87972101D01*
G75*
G02*
X282207799Y-88222100I0J-249999D01*
G01*
X282207799Y-88922102D01*
G75*
G02*
X281957800Y-89172101I-249999J0D01*
G01*
G37*
G36*
G01*
X281957800Y-87172101D02*
X281057798Y-87172101D01*
G75*
G02*
X280807799Y-86922102I0J249999D01*
G01*
X280807799Y-86222100D01*
G75*
G02*
X281057798Y-85972101I249999J0D01*
G01*
X281957800Y-85972101D01*
G75*
G02*
X282207799Y-86222100I0J-249999D01*
G01*
X282207799Y-86922102D01*
G75*
G02*
X281957800Y-87172101I-249999J0D01*
G01*
G37*
%TD*%
%TO.C,R126*%
G36*
G01*
X276155999Y-86147600D02*
X277056001Y-86147600D01*
G75*
G02*
X277306000Y-86397599I0J-249999D01*
G01*
X277306000Y-87097601D01*
G75*
G02*
X277056001Y-87347600I-249999J0D01*
G01*
X276155999Y-87347600D01*
G75*
G02*
X275906000Y-87097601I0J249999D01*
G01*
X275906000Y-86397599D01*
G75*
G02*
X276155999Y-86147600I249999J0D01*
G01*
G37*
G36*
G01*
X276155999Y-88147600D02*
X277056001Y-88147600D01*
G75*
G02*
X277306000Y-88397599I0J-249999D01*
G01*
X277306000Y-89097601D01*
G75*
G02*
X277056001Y-89347600I-249999J0D01*
G01*
X276155999Y-89347600D01*
G75*
G02*
X275906000Y-89097601I0J249999D01*
G01*
X275906000Y-88397599D01*
G75*
G02*
X276155999Y-88147600I249999J0D01*
G01*
G37*
%TD*%
%TO.C,R127*%
G36*
G01*
X276155999Y-92465600D02*
X277056001Y-92465600D01*
G75*
G02*
X277306000Y-92715599I0J-249999D01*
G01*
X277306000Y-93415601D01*
G75*
G02*
X277056001Y-93665600I-249999J0D01*
G01*
X276155999Y-93665600D01*
G75*
G02*
X275906000Y-93415601I0J249999D01*
G01*
X275906000Y-92715599D01*
G75*
G02*
X276155999Y-92465600I249999J0D01*
G01*
G37*
G36*
G01*
X276155999Y-90465600D02*
X277056001Y-90465600D01*
G75*
G02*
X277306000Y-90715599I0J-249999D01*
G01*
X277306000Y-91415601D01*
G75*
G02*
X277056001Y-91665600I-249999J0D01*
G01*
X276155999Y-91665600D01*
G75*
G02*
X275906000Y-91415601I0J249999D01*
G01*
X275906000Y-90715599D01*
G75*
G02*
X276155999Y-90465600I249999J0D01*
G01*
G37*
%TD*%
D54*
%TO.C,SW1*%
X212740000Y-134305000D03*
X212740000Y-135255000D03*
X212740000Y-136205000D03*
X215250000Y-134305000D03*
X215250000Y-135255000D03*
X215250000Y-136205000D03*
%TD*%
D40*
%TO.C,U7*%
X214729800Y-80006800D03*
X214729800Y-81276800D03*
X214729800Y-82546800D03*
X214729800Y-83816800D03*
X214729800Y-85086800D03*
X214729800Y-86356800D03*
X214729800Y-87626800D03*
X219639800Y-87626800D03*
X219639800Y-86356800D03*
X219639800Y-85086800D03*
X219639800Y-83816800D03*
X219639800Y-82546800D03*
X219639800Y-81276800D03*
X219639800Y-80006800D03*
%TD*%
D55*
%TO.C,U16*%
X232740200Y-74828400D03*
X232740200Y-76098400D03*
X232740200Y-77368400D03*
X232740200Y-78638400D03*
X227812600Y-78638400D03*
X227812600Y-77368400D03*
X227812600Y-76098400D03*
X227812600Y-74828400D03*
%TD*%
D40*
%TO.C,U18*%
X223643000Y-143091000D03*
X223643000Y-141821000D03*
X223643000Y-140551000D03*
X223643000Y-139281000D03*
X223643000Y-138011000D03*
X223643000Y-136741000D03*
X223643000Y-135471000D03*
X228553000Y-135471000D03*
X228553000Y-136741000D03*
X228553000Y-138011000D03*
X228553000Y-139281000D03*
X228553000Y-140551000D03*
X228553000Y-141821000D03*
X228553000Y-143091000D03*
%TD*%
%TO.C,U21*%
X225340000Y-184785000D03*
X225340000Y-186055000D03*
X225340000Y-187325000D03*
X225340000Y-188595000D03*
X225340000Y-189865000D03*
X225340000Y-191135000D03*
X225340000Y-192405000D03*
X220430000Y-192405000D03*
X220430000Y-191135000D03*
X220430000Y-189865000D03*
X220430000Y-188595000D03*
X220430000Y-187325000D03*
X220430000Y-186055000D03*
X220430000Y-184785000D03*
%TD*%
%TO.C,U26*%
X238040000Y-207010000D03*
X238040000Y-205740000D03*
X238040000Y-204470000D03*
X238040000Y-203200000D03*
X238040000Y-201930000D03*
X238040000Y-200660000D03*
X238040000Y-199390000D03*
X233130000Y-199390000D03*
X233130000Y-200660000D03*
X233130000Y-201930000D03*
X233130000Y-203200000D03*
X233130000Y-204470000D03*
X233130000Y-205740000D03*
X233130000Y-207010000D03*
%TD*%
D56*
%TO.C,U35*%
X133350000Y-151215000D03*
X134620000Y-151215000D03*
X135890000Y-151215000D03*
X137160000Y-151215000D03*
X138430000Y-151215000D03*
X139700000Y-151215000D03*
X140970000Y-151215000D03*
X140970000Y-156125000D03*
X139700000Y-156125000D03*
X138430000Y-156125000D03*
X137160000Y-156125000D03*
X135890000Y-156125000D03*
X134620000Y-156125000D03*
X133350000Y-156125000D03*
%TD*%
D40*
%TO.C,U40*%
X242020000Y-184150000D03*
X242020000Y-185420000D03*
X242020000Y-186690000D03*
X242020000Y-187960000D03*
X242020000Y-189230000D03*
X242020000Y-190500000D03*
X242020000Y-191770000D03*
X246930000Y-191770000D03*
X246930000Y-190500000D03*
X246930000Y-189230000D03*
X246930000Y-187960000D03*
X246930000Y-186690000D03*
X246930000Y-185420000D03*
X246930000Y-184150000D03*
%TD*%
D57*
%TO.C,U44*%
X273194800Y-84908800D03*
X273194800Y-84408800D03*
X273194800Y-83908800D03*
X273194800Y-83408800D03*
X273194800Y-82908800D03*
X273194800Y-82408800D03*
X273194800Y-81908800D03*
X273194800Y-81408800D03*
X273194800Y-80908800D03*
X273194800Y-80408800D03*
X273194800Y-79908800D03*
X273194800Y-79408800D03*
X273194800Y-78908800D03*
X273194800Y-78408800D03*
X273194800Y-77908800D03*
X273194800Y-77408800D03*
D58*
X271274800Y-75488800D03*
X270774800Y-75488800D03*
X270274800Y-75488800D03*
X269774800Y-75488800D03*
X269274800Y-75488800D03*
X268774800Y-75488800D03*
X268274800Y-75488800D03*
X267774800Y-75488800D03*
X267274800Y-75488800D03*
X266774800Y-75488800D03*
X266274800Y-75488800D03*
X265774800Y-75488800D03*
X265274800Y-75488800D03*
X264774800Y-75488800D03*
X264274800Y-75488800D03*
X263774800Y-75488800D03*
D57*
X261854800Y-77408800D03*
X261854800Y-77908800D03*
X261854800Y-78408800D03*
X261854800Y-78908800D03*
X261854800Y-79408800D03*
X261854800Y-79908800D03*
X261854800Y-80408800D03*
X261854800Y-80908800D03*
X261854800Y-81408800D03*
X261854800Y-81908800D03*
X261854800Y-82408800D03*
X261854800Y-82908800D03*
X261854800Y-83408800D03*
X261854800Y-83908800D03*
X261854800Y-84408800D03*
X261854800Y-84908800D03*
D58*
X263774800Y-86828800D03*
X264274800Y-86828800D03*
X264774800Y-86828800D03*
X265274800Y-86828800D03*
X265774800Y-86828800D03*
X266274800Y-86828800D03*
X266774800Y-86828800D03*
X267274800Y-86828800D03*
X267774800Y-86828800D03*
X268274800Y-86828800D03*
X268774800Y-86828800D03*
X269274800Y-86828800D03*
X269774800Y-86828800D03*
X270274800Y-86828800D03*
X270774800Y-86828800D03*
X271274800Y-86828800D03*
%TD*%
D55*
%TO.C,U45*%
X248945400Y-122758200D03*
X248945400Y-121488200D03*
X248945400Y-120218200D03*
X248945400Y-118948200D03*
X244017800Y-118948200D03*
X244017800Y-120218200D03*
X244017800Y-121488200D03*
X244017800Y-122758200D03*
%TD*%
D37*
%TO.C,U46*%
X253949200Y-81381600D03*
X253949200Y-82651600D03*
X253949200Y-83921600D03*
X253949200Y-85191600D03*
X248361200Y-85191600D03*
X248361200Y-83921600D03*
X248361200Y-82651600D03*
X248361200Y-81381600D03*
%TD*%
%TO.C,U47*%
G36*
G01*
X258048800Y-68769000D02*
X258048800Y-69019000D01*
G75*
G02*
X257923800Y-69144000I-125000J0D01*
G01*
X256273800Y-69144000D01*
G75*
G02*
X256148800Y-69019000I0J125000D01*
G01*
X256148800Y-68769000D01*
G75*
G02*
X256273800Y-68644000I125000J0D01*
G01*
X257923800Y-68644000D01*
G75*
G02*
X258048800Y-68769000I0J-125000D01*
G01*
G37*
G36*
G01*
X258048800Y-68119000D02*
X258048800Y-68369000D01*
G75*
G02*
X257923800Y-68494000I-125000J0D01*
G01*
X256273800Y-68494000D01*
G75*
G02*
X256148800Y-68369000I0J125000D01*
G01*
X256148800Y-68119000D01*
G75*
G02*
X256273800Y-67994000I125000J0D01*
G01*
X257923800Y-67994000D01*
G75*
G02*
X258048800Y-68119000I0J-125000D01*
G01*
G37*
G36*
G01*
X258048800Y-67469000D02*
X258048800Y-67719000D01*
G75*
G02*
X257923800Y-67844000I-125000J0D01*
G01*
X256273800Y-67844000D01*
G75*
G02*
X256148800Y-67719000I0J125000D01*
G01*
X256148800Y-67469000D01*
G75*
G02*
X256273800Y-67344000I125000J0D01*
G01*
X257923800Y-67344000D01*
G75*
G02*
X258048800Y-67469000I0J-125000D01*
G01*
G37*
G36*
G01*
X258048800Y-66819000D02*
X258048800Y-67069000D01*
G75*
G02*
X257923800Y-67194000I-125000J0D01*
G01*
X256273800Y-67194000D01*
G75*
G02*
X256148800Y-67069000I0J125000D01*
G01*
X256148800Y-66819000D01*
G75*
G02*
X256273800Y-66694000I125000J0D01*
G01*
X257923800Y-66694000D01*
G75*
G02*
X258048800Y-66819000I0J-125000D01*
G01*
G37*
G36*
G01*
X258048800Y-66169000D02*
X258048800Y-66419000D01*
G75*
G02*
X257923800Y-66544000I-125000J0D01*
G01*
X256273800Y-66544000D01*
G75*
G02*
X256148800Y-66419000I0J125000D01*
G01*
X256148800Y-66169000D01*
G75*
G02*
X256273800Y-66044000I125000J0D01*
G01*
X257923800Y-66044000D01*
G75*
G02*
X258048800Y-66169000I0J-125000D01*
G01*
G37*
G36*
G01*
X258048800Y-65519000D02*
X258048800Y-65769000D01*
G75*
G02*
X257923800Y-65894000I-125000J0D01*
G01*
X256273800Y-65894000D01*
G75*
G02*
X256148800Y-65769000I0J125000D01*
G01*
X256148800Y-65519000D01*
G75*
G02*
X256273800Y-65394000I125000J0D01*
G01*
X257923800Y-65394000D01*
G75*
G02*
X258048800Y-65519000I0J-125000D01*
G01*
G37*
G36*
G01*
X258048800Y-64869000D02*
X258048800Y-65119000D01*
G75*
G02*
X257923800Y-65244000I-125000J0D01*
G01*
X256273800Y-65244000D01*
G75*
G02*
X256148800Y-65119000I0J125000D01*
G01*
X256148800Y-64869000D01*
G75*
G02*
X256273800Y-64744000I125000J0D01*
G01*
X257923800Y-64744000D01*
G75*
G02*
X258048800Y-64869000I0J-125000D01*
G01*
G37*
G36*
G01*
X258048800Y-64219000D02*
X258048800Y-64469000D01*
G75*
G02*
X257923800Y-64594000I-125000J0D01*
G01*
X256273800Y-64594000D01*
G75*
G02*
X256148800Y-64469000I0J125000D01*
G01*
X256148800Y-64219000D01*
G75*
G02*
X256273800Y-64094000I125000J0D01*
G01*
X257923800Y-64094000D01*
G75*
G02*
X258048800Y-64219000I0J-125000D01*
G01*
G37*
G36*
G01*
X258048800Y-63569000D02*
X258048800Y-63819000D01*
G75*
G02*
X257923800Y-63944000I-125000J0D01*
G01*
X256273800Y-63944000D01*
G75*
G02*
X256148800Y-63819000I0J125000D01*
G01*
X256148800Y-63569000D01*
G75*
G02*
X256273800Y-63444000I125000J0D01*
G01*
X257923800Y-63444000D01*
G75*
G02*
X258048800Y-63569000I0J-125000D01*
G01*
G37*
G36*
G01*
X258048800Y-62919000D02*
X258048800Y-63169000D01*
G75*
G02*
X257923800Y-63294000I-125000J0D01*
G01*
X256273800Y-63294000D01*
G75*
G02*
X256148800Y-63169000I0J125000D01*
G01*
X256148800Y-62919000D01*
G75*
G02*
X256273800Y-62794000I125000J0D01*
G01*
X257923800Y-62794000D01*
G75*
G02*
X258048800Y-62919000I0J-125000D01*
G01*
G37*
G36*
G01*
X251048800Y-62919000D02*
X251048800Y-63169000D01*
G75*
G02*
X250923800Y-63294000I-125000J0D01*
G01*
X249273800Y-63294000D01*
G75*
G02*
X249148800Y-63169000I0J125000D01*
G01*
X249148800Y-62919000D01*
G75*
G02*
X249273800Y-62794000I125000J0D01*
G01*
X250923800Y-62794000D01*
G75*
G02*
X251048800Y-62919000I0J-125000D01*
G01*
G37*
G36*
G01*
X251048800Y-63569000D02*
X251048800Y-63819000D01*
G75*
G02*
X250923800Y-63944000I-125000J0D01*
G01*
X249273800Y-63944000D01*
G75*
G02*
X249148800Y-63819000I0J125000D01*
G01*
X249148800Y-63569000D01*
G75*
G02*
X249273800Y-63444000I125000J0D01*
G01*
X250923800Y-63444000D01*
G75*
G02*
X251048800Y-63569000I0J-125000D01*
G01*
G37*
G36*
G01*
X251048800Y-64219000D02*
X251048800Y-64469000D01*
G75*
G02*
X250923800Y-64594000I-125000J0D01*
G01*
X249273800Y-64594000D01*
G75*
G02*
X249148800Y-64469000I0J125000D01*
G01*
X249148800Y-64219000D01*
G75*
G02*
X249273800Y-64094000I125000J0D01*
G01*
X250923800Y-64094000D01*
G75*
G02*
X251048800Y-64219000I0J-125000D01*
G01*
G37*
G36*
G01*
X251048800Y-64869000D02*
X251048800Y-65119000D01*
G75*
G02*
X250923800Y-65244000I-125000J0D01*
G01*
X249273800Y-65244000D01*
G75*
G02*
X249148800Y-65119000I0J125000D01*
G01*
X249148800Y-64869000D01*
G75*
G02*
X249273800Y-64744000I125000J0D01*
G01*
X250923800Y-64744000D01*
G75*
G02*
X251048800Y-64869000I0J-125000D01*
G01*
G37*
G36*
G01*
X251048800Y-65519000D02*
X251048800Y-65769000D01*
G75*
G02*
X250923800Y-65894000I-125000J0D01*
G01*
X249273800Y-65894000D01*
G75*
G02*
X249148800Y-65769000I0J125000D01*
G01*
X249148800Y-65519000D01*
G75*
G02*
X249273800Y-65394000I125000J0D01*
G01*
X250923800Y-65394000D01*
G75*
G02*
X251048800Y-65519000I0J-125000D01*
G01*
G37*
G36*
G01*
X251048800Y-66169000D02*
X251048800Y-66419000D01*
G75*
G02*
X250923800Y-66544000I-125000J0D01*
G01*
X249273800Y-66544000D01*
G75*
G02*
X249148800Y-66419000I0J125000D01*
G01*
X249148800Y-66169000D01*
G75*
G02*
X249273800Y-66044000I125000J0D01*
G01*
X250923800Y-66044000D01*
G75*
G02*
X251048800Y-66169000I0J-125000D01*
G01*
G37*
G36*
G01*
X251048800Y-66819000D02*
X251048800Y-67069000D01*
G75*
G02*
X250923800Y-67194000I-125000J0D01*
G01*
X249273800Y-67194000D01*
G75*
G02*
X249148800Y-67069000I0J125000D01*
G01*
X249148800Y-66819000D01*
G75*
G02*
X249273800Y-66694000I125000J0D01*
G01*
X250923800Y-66694000D01*
G75*
G02*
X251048800Y-66819000I0J-125000D01*
G01*
G37*
G36*
G01*
X251048800Y-67469000D02*
X251048800Y-67719000D01*
G75*
G02*
X250923800Y-67844000I-125000J0D01*
G01*
X249273800Y-67844000D01*
G75*
G02*
X249148800Y-67719000I0J125000D01*
G01*
X249148800Y-67469000D01*
G75*
G02*
X249273800Y-67344000I125000J0D01*
G01*
X250923800Y-67344000D01*
G75*
G02*
X251048800Y-67469000I0J-125000D01*
G01*
G37*
G36*
G01*
X251048800Y-68119000D02*
X251048800Y-68369000D01*
G75*
G02*
X250923800Y-68494000I-125000J0D01*
G01*
X249273800Y-68494000D01*
G75*
G02*
X249148800Y-68369000I0J125000D01*
G01*
X249148800Y-68119000D01*
G75*
G02*
X249273800Y-67994000I125000J0D01*
G01*
X250923800Y-67994000D01*
G75*
G02*
X251048800Y-68119000I0J-125000D01*
G01*
G37*
G36*
G01*
X251048800Y-68769000D02*
X251048800Y-69019000D01*
G75*
G02*
X250923800Y-69144000I-125000J0D01*
G01*
X249273800Y-69144000D01*
G75*
G02*
X249148800Y-69019000I0J125000D01*
G01*
X249148800Y-68769000D01*
G75*
G02*
X249273800Y-68644000I125000J0D01*
G01*
X250923800Y-68644000D01*
G75*
G02*
X251048800Y-68769000I0J-125000D01*
G01*
G37*
%TD*%
%TO.C,R113*%
G36*
G01*
X246793599Y-76819200D02*
X247693601Y-76819200D01*
G75*
G02*
X247943600Y-77069199I0J-249999D01*
G01*
X247943600Y-77769201D01*
G75*
G02*
X247693601Y-78019200I-249999J0D01*
G01*
X246793599Y-78019200D01*
G75*
G02*
X246543600Y-77769201I0J249999D01*
G01*
X246543600Y-77069199D01*
G75*
G02*
X246793599Y-76819200I249999J0D01*
G01*
G37*
G36*
G01*
X246793599Y-74819200D02*
X247693601Y-74819200D01*
G75*
G02*
X247943600Y-75069199I0J-249999D01*
G01*
X247943600Y-75769201D01*
G75*
G02*
X247693601Y-76019200I-249999J0D01*
G01*
X246793599Y-76019200D01*
G75*
G02*
X246543600Y-75769201I0J249999D01*
G01*
X246543600Y-75069199D01*
G75*
G02*
X246793599Y-74819200I249999J0D01*
G01*
G37*
%TD*%
%TO.C,R114*%
G36*
G01*
X245661601Y-78019200D02*
X244761599Y-78019200D01*
G75*
G02*
X244511600Y-77769201I0J249999D01*
G01*
X244511600Y-77069199D01*
G75*
G02*
X244761599Y-76819200I249999J0D01*
G01*
X245661601Y-76819200D01*
G75*
G02*
X245911600Y-77069199I0J-249999D01*
G01*
X245911600Y-77769201D01*
G75*
G02*
X245661601Y-78019200I-249999J0D01*
G01*
G37*
G36*
G01*
X245661601Y-76019200D02*
X244761599Y-76019200D01*
G75*
G02*
X244511600Y-75769201I0J249999D01*
G01*
X244511600Y-75069199D01*
G75*
G02*
X244761599Y-74819200I249999J0D01*
G01*
X245661601Y-74819200D01*
G75*
G02*
X245911600Y-75069199I0J-249999D01*
G01*
X245911600Y-75769201D01*
G75*
G02*
X245661601Y-76019200I-249999J0D01*
G01*
G37*
%TD*%
%TO.C,C6*%
G36*
G01*
X263227800Y-89734900D02*
X264177800Y-89734900D01*
G75*
G02*
X264427800Y-89984900I0J-250000D01*
G01*
X264427800Y-90659900D01*
G75*
G02*
X264177800Y-90909900I-250000J0D01*
G01*
X263227800Y-90909900D01*
G75*
G02*
X262977800Y-90659900I0J250000D01*
G01*
X262977800Y-89984900D01*
G75*
G02*
X263227800Y-89734900I250000J0D01*
G01*
G37*
G36*
G01*
X263227800Y-91809900D02*
X264177800Y-91809900D01*
G75*
G02*
X264427800Y-92059900I0J-250000D01*
G01*
X264427800Y-92734900D01*
G75*
G02*
X264177800Y-92984900I-250000J0D01*
G01*
X263227800Y-92984900D01*
G75*
G02*
X262977800Y-92734900I0J250000D01*
G01*
X262977800Y-92059900D01*
G75*
G02*
X263227800Y-91809900I250000J0D01*
G01*
G37*
%TD*%
%TO.C,C25*%
G36*
G01*
X235588300Y-139529800D02*
X235588300Y-140479800D01*
G75*
G02*
X235338300Y-140729800I-250000J0D01*
G01*
X234663300Y-140729800D01*
G75*
G02*
X234413300Y-140479800I0J250000D01*
G01*
X234413300Y-139529800D01*
G75*
G02*
X234663300Y-139279800I250000J0D01*
G01*
X235338300Y-139279800D01*
G75*
G02*
X235588300Y-139529800I0J-250000D01*
G01*
G37*
G36*
G01*
X237663300Y-139529800D02*
X237663300Y-140479800D01*
G75*
G02*
X237413300Y-140729800I-250000J0D01*
G01*
X236738300Y-140729800D01*
G75*
G02*
X236488300Y-140479800I0J250000D01*
G01*
X236488300Y-139529800D01*
G75*
G02*
X236738300Y-139279800I250000J0D01*
G01*
X237413300Y-139279800D01*
G75*
G02*
X237663300Y-139529800I0J-250000D01*
G01*
G37*
%TD*%
D16*
%TO.C,J15*%
X286664400Y-64008000D03*
D15*
X286664400Y-66548000D03*
X284124400Y-64008000D03*
X284124400Y-66548000D03*
X281584400Y-64008000D03*
X281584400Y-66548000D03*
X279044400Y-64008000D03*
X279044400Y-66548000D03*
X276504400Y-64008000D03*
X276504400Y-66548000D03*
%TD*%
D16*
%TO.C,J22*%
X269240000Y-63703200D03*
D15*
X266700000Y-63703200D03*
X264160000Y-63703200D03*
X261620000Y-63703200D03*
%TD*%
%TO.C,J23*%
X259689600Y-115062000D03*
X259689600Y-112522000D03*
X259689600Y-109982000D03*
X259689600Y-107442000D03*
D16*
X259689600Y-104902000D03*
%TD*%
%TO.C,J24*%
X226110800Y-56743600D03*
D15*
X223570800Y-56743600D03*
X221030800Y-56743600D03*
%TD*%
D16*
%TO.C,J29*%
X141681200Y-189636400D03*
D15*
X139141200Y-189636400D03*
X136601200Y-189636400D03*
X134061200Y-189636400D03*
X131521200Y-189636400D03*
%TD*%
D16*
%TO.C,JP9*%
X201295000Y-90805000D03*
D15*
X203835000Y-90805000D03*
%TD*%
D16*
%TO.C,J27*%
X200964800Y-77139800D03*
D15*
X200964800Y-79679800D03*
%TD*%
D16*
%TO.C,J28*%
X208127600Y-116332000D03*
D15*
X210667600Y-116332000D03*
X213207600Y-116332000D03*
%TD*%
M02*
