%TF.GenerationSoftware,KiCad,Pcbnew,(5.1.6)-1*%
%TF.CreationDate,2021-01-11T16:43:41-05:00*%
%TF.ProjectId,GLV_BOBV6,474c565f-424f-4425-9636-2e6b69636164,rev?*%
%TF.SameCoordinates,Original*%
%TF.FileFunction,Copper,L1,Top*%
%TF.FilePolarity,Positive*%
%FSLAX46Y46*%
G04 Gerber Fmt 4.6, Leading zero omitted, Abs format (unit mm)*
G04 Created by KiCad (PCBNEW (5.1.6)-1) date 2021-01-11 16:43:41*
%MOMM*%
%LPD*%
G01*
G04 APERTURE LIST*
%TA.AperFunction,SMDPad,CuDef*%
%ADD10R,1.549400X0.558800*%
%TD*%
%TA.AperFunction,SMDPad,CuDef*%
%ADD11R,1.244600X0.863600*%
%TD*%
%TA.AperFunction,ComponentPad*%
%ADD12R,2.800000X2.800000*%
%TD*%
%TA.AperFunction,ComponentPad*%
%ADD13C,2.800000*%
%TD*%
%TA.AperFunction,SMDPad,CuDef*%
%ADD14R,1.574800X0.279400*%
%TD*%
%TA.AperFunction,ComponentPad*%
%ADD15C,5.000000*%
%TD*%
%TA.AperFunction,ViaPad*%
%ADD16C,0.800000*%
%TD*%
%TA.AperFunction,Conductor*%
%ADD17C,0.250000*%
%TD*%
%TA.AperFunction,Conductor*%
%ADD18C,1.800000*%
%TD*%
%TA.AperFunction,Conductor*%
%ADD19C,2.300000*%
%TD*%
G04 APERTURE END LIST*
%TO.P,R3,1*%
%TO.N,/3.3V_NOT_ISO*%
%TA.AperFunction,SMDPad,CuDef*%
G36*
G01*
X149040001Y-46050000D02*
X148139999Y-46050000D01*
G75*
G02*
X147890000Y-45800001I0J249999D01*
G01*
X147890000Y-45149999D01*
G75*
G02*
X148139999Y-44900000I249999J0D01*
G01*
X149040001Y-44900000D01*
G75*
G02*
X149290000Y-45149999I0J-249999D01*
G01*
X149290000Y-45800001D01*
G75*
G02*
X149040001Y-46050000I-249999J0D01*
G01*
G37*
%TD.AperFunction*%
%TO.P,R3,2*%
%TO.N,/SDA_NOT_ISO*%
%TA.AperFunction,SMDPad,CuDef*%
G36*
G01*
X149040001Y-44000000D02*
X148139999Y-44000000D01*
G75*
G02*
X147890000Y-43750001I0J249999D01*
G01*
X147890000Y-43099999D01*
G75*
G02*
X148139999Y-42850000I249999J0D01*
G01*
X149040001Y-42850000D01*
G75*
G02*
X149290000Y-43099999I0J-249999D01*
G01*
X149290000Y-43750001D01*
G75*
G02*
X149040001Y-44000000I-249999J0D01*
G01*
G37*
%TD.AperFunction*%
%TD*%
%TO.P,R2,2*%
%TO.N,/SCL_NOT_ISO*%
%TA.AperFunction,SMDPad,CuDef*%
G36*
G01*
X155390001Y-42485000D02*
X154489999Y-42485000D01*
G75*
G02*
X154240000Y-42235001I0J249999D01*
G01*
X154240000Y-41584999D01*
G75*
G02*
X154489999Y-41335000I249999J0D01*
G01*
X155390001Y-41335000D01*
G75*
G02*
X155640000Y-41584999I0J-249999D01*
G01*
X155640000Y-42235001D01*
G75*
G02*
X155390001Y-42485000I-249999J0D01*
G01*
G37*
%TD.AperFunction*%
%TO.P,R2,1*%
%TO.N,/3.3V_NOT_ISO*%
%TA.AperFunction,SMDPad,CuDef*%
G36*
G01*
X155390001Y-44535000D02*
X154489999Y-44535000D01*
G75*
G02*
X154240000Y-44285001I0J249999D01*
G01*
X154240000Y-43634999D01*
G75*
G02*
X154489999Y-43385000I249999J0D01*
G01*
X155390001Y-43385000D01*
G75*
G02*
X155640000Y-43634999I0J-249999D01*
G01*
X155640000Y-44285001D01*
G75*
G02*
X155390001Y-44535000I-249999J0D01*
G01*
G37*
%TD.AperFunction*%
%TD*%
%TO.P,C1,1*%
%TO.N,/3.3V_NOT_ISO*%
%TA.AperFunction,SMDPad,CuDef*%
G36*
G01*
X147770001Y-39700000D02*
X146869999Y-39700000D01*
G75*
G02*
X146620000Y-39450001I0J249999D01*
G01*
X146620000Y-38799999D01*
G75*
G02*
X146869999Y-38550000I249999J0D01*
G01*
X147770001Y-38550000D01*
G75*
G02*
X148020000Y-38799999I0J-249999D01*
G01*
X148020000Y-39450001D01*
G75*
G02*
X147770001Y-39700000I-249999J0D01*
G01*
G37*
%TD.AperFunction*%
%TO.P,C1,2*%
%TO.N,/GLV_RTN*%
%TA.AperFunction,SMDPad,CuDef*%
G36*
G01*
X147770001Y-37650000D02*
X146869999Y-37650000D01*
G75*
G02*
X146620000Y-37400001I0J249999D01*
G01*
X146620000Y-36749999D01*
G75*
G02*
X146869999Y-36500000I249999J0D01*
G01*
X147770001Y-36500000D01*
G75*
G02*
X148020000Y-36749999I0J-249999D01*
G01*
X148020000Y-37400001D01*
G75*
G02*
X147770001Y-37650000I-249999J0D01*
G01*
G37*
%TD.AperFunction*%
%TD*%
%TO.P,C2,2*%
%TO.N,/24V*%
%TA.AperFunction,SMDPad,CuDef*%
G36*
G01*
X162109999Y-50370000D02*
X163010001Y-50370000D01*
G75*
G02*
X163260000Y-50619999I0J-249999D01*
G01*
X163260000Y-51270001D01*
G75*
G02*
X163010001Y-51520000I-249999J0D01*
G01*
X162109999Y-51520000D01*
G75*
G02*
X161860000Y-51270001I0J249999D01*
G01*
X161860000Y-50619999D01*
G75*
G02*
X162109999Y-50370000I249999J0D01*
G01*
G37*
%TD.AperFunction*%
%TO.P,C2,1*%
%TO.N,/GLV_RTN*%
%TA.AperFunction,SMDPad,CuDef*%
G36*
G01*
X162109999Y-48320000D02*
X163010001Y-48320000D01*
G75*
G02*
X163260000Y-48569999I0J-249999D01*
G01*
X163260000Y-49220001D01*
G75*
G02*
X163010001Y-49470000I-249999J0D01*
G01*
X162109999Y-49470000D01*
G75*
G02*
X161860000Y-49220001I0J249999D01*
G01*
X161860000Y-48569999D01*
G75*
G02*
X162109999Y-48320000I249999J0D01*
G01*
G37*
%TD.AperFunction*%
%TD*%
%TO.P,C3,1*%
%TO.N,/GLV_RTN*%
%TA.AperFunction,SMDPad,CuDef*%
G36*
G01*
X180790001Y-50885000D02*
X179889999Y-50885000D01*
G75*
G02*
X179640000Y-50635001I0J249999D01*
G01*
X179640000Y-49984999D01*
G75*
G02*
X179889999Y-49735000I249999J0D01*
G01*
X180790001Y-49735000D01*
G75*
G02*
X181040000Y-49984999I0J-249999D01*
G01*
X181040000Y-50635001D01*
G75*
G02*
X180790001Y-50885000I-249999J0D01*
G01*
G37*
%TD.AperFunction*%
%TO.P,C3,2*%
%TO.N,/5V_NOT_ISO*%
%TA.AperFunction,SMDPad,CuDef*%
G36*
G01*
X180790001Y-48835000D02*
X179889999Y-48835000D01*
G75*
G02*
X179640000Y-48585001I0J249999D01*
G01*
X179640000Y-47934999D01*
G75*
G02*
X179889999Y-47685000I249999J0D01*
G01*
X180790001Y-47685000D01*
G75*
G02*
X181040000Y-47934999I0J-249999D01*
G01*
X181040000Y-48585001D01*
G75*
G02*
X180790001Y-48835000I-249999J0D01*
G01*
G37*
%TD.AperFunction*%
%TD*%
D10*
%TO.P,CR1,1*%
%TO.N,/5V_NOT_ISO*%
X166230300Y-47625000D03*
%TO.P,CR1,2*%
%TO.N,/GLV_RTN*%
X166230300Y-48895000D03*
%TO.P,CR1,3*%
X166230300Y-50165000D03*
%TO.P,CR1,4*%
%TO.N,Net-(CR1-Pad4)*%
X166230300Y-51435000D03*
%TO.P,CR1,5*%
%TO.N,Net-(CR1-Pad5)*%
X171589700Y-51435000D03*
%TO.P,CR1,6*%
%TO.N,/GLV_RTN*%
X171589700Y-50165000D03*
%TO.P,CR1,7*%
X171589700Y-48895000D03*
%TO.P,CR1,8*%
%TO.N,/24V*%
X171589700Y-47625000D03*
%TD*%
D11*
%TO.P,D1,1*%
%TO.N,/GLV_RTN*%
X173990000Y-33502600D03*
%TO.P,D1,2*%
%TO.N,Net-(D1-Pad2)*%
X173990000Y-35560000D03*
%TD*%
%TO.P,D2,2*%
%TO.N,Net-(D2-Pad2)*%
X179705000Y-35318700D03*
%TO.P,D2,1*%
%TO.N,/GLV_RTN*%
X179705000Y-33261300D03*
%TD*%
%TO.P,D3,1*%
%TO.N,/GLV_RTN*%
X185420000Y-33261300D03*
%TO.P,D3,2*%
%TO.N,Net-(D3-Pad2)*%
X185420000Y-35318700D03*
%TD*%
D12*
%TO.P,J1,1*%
%TO.N,/GLV_RTN*%
X132080000Y-21590000D03*
D13*
%TO.P,J1,2*%
%TO.N,/BATT+*%
X132080000Y-27090000D03*
%TD*%
D12*
%TO.P,J2,1*%
%TO.N,/GLV_RTN*%
X179070000Y-21590000D03*
D13*
%TO.P,J2,2*%
%TO.N,/24V*%
X179070000Y-27090000D03*
%TD*%
%TO.P,J3,2*%
%TO.N,/24V*%
X148590000Y-27090000D03*
D12*
%TO.P,J3,1*%
%TO.N,/GLV_RTN*%
X148590000Y-21590000D03*
%TD*%
D13*
%TO.P,J4,4*%
%TO.N,/24V*%
X170600000Y-58030000D03*
%TO.P,J4,3*%
%TO.N,/GLV_RTN*%
X170600000Y-62230000D03*
%TO.P,J4,2*%
%TO.N,/SDA_NOT_ISO*%
X165100000Y-58030000D03*
D12*
%TO.P,J4,1*%
%TO.N,/SCL_NOT_ISO*%
X165100000Y-62230000D03*
%TD*%
%TO.P,J5,1*%
%TO.N,/24V*%
X132080000Y-36830000D03*
D13*
%TO.P,J5,2*%
%TO.N,/GLV_RTN*%
X136280000Y-36830000D03*
%TO.P,J5,3*%
%TO.N,/BREAKER_OUT_SL*%
X132080000Y-42330000D03*
%TO.P,J5,4*%
%TO.N,/BREAKER_OUT_COOL*%
X136280000Y-42330000D03*
%TD*%
D12*
%TO.P,J6,1*%
%TO.N,/BATT+*%
X139700000Y-62865000D03*
D13*
%TO.P,J6,2*%
X135500000Y-62865000D03*
%TO.P,J6,3*%
X131300000Y-62865000D03*
%TO.P,J6,4*%
%TO.N,/24V*%
X139700000Y-57365000D03*
%TO.P,J6,5*%
%TO.N,/BREAKER_OUT_COOL*%
X135500000Y-57365000D03*
%TO.P,J6,6*%
%TO.N,/BREAKER_OUT_SL*%
X131300000Y-57365000D03*
%TD*%
%TO.P,R1,1*%
%TO.N,/24V*%
%TA.AperFunction,SMDPad,CuDef*%
G36*
G01*
X143705000Y-58760000D02*
X145855000Y-58760000D01*
G75*
G02*
X146105000Y-59010000I0J-250000D01*
G01*
X146105000Y-59935000D01*
G75*
G02*
X145855000Y-60185000I-250000J0D01*
G01*
X143705000Y-60185000D01*
G75*
G02*
X143455000Y-59935000I0J250000D01*
G01*
X143455000Y-59010000D01*
G75*
G02*
X143705000Y-58760000I250000J0D01*
G01*
G37*
%TD.AperFunction*%
%TO.P,R1,2*%
%TO.N,/BATT+*%
%TA.AperFunction,SMDPad,CuDef*%
G36*
G01*
X143705000Y-61735000D02*
X145855000Y-61735000D01*
G75*
G02*
X146105000Y-61985000I0J-250000D01*
G01*
X146105000Y-62910000D01*
G75*
G02*
X145855000Y-63160000I-250000J0D01*
G01*
X143705000Y-63160000D01*
G75*
G02*
X143455000Y-62910000I0J250000D01*
G01*
X143455000Y-61985000D01*
G75*
G02*
X143705000Y-61735000I250000J0D01*
G01*
G37*
%TD.AperFunction*%
%TD*%
%TO.P,R4,2*%
%TO.N,/3.3V_NOT_ISO*%
%TA.AperFunction,SMDPad,CuDef*%
G36*
G01*
X166820001Y-41705000D02*
X165919999Y-41705000D01*
G75*
G02*
X165670000Y-41455001I0J249999D01*
G01*
X165670000Y-40804999D01*
G75*
G02*
X165919999Y-40555000I249999J0D01*
G01*
X166820001Y-40555000D01*
G75*
G02*
X167070000Y-40804999I0J-249999D01*
G01*
X167070000Y-41455001D01*
G75*
G02*
X166820001Y-41705000I-249999J0D01*
G01*
G37*
%TD.AperFunction*%
%TO.P,R4,1*%
%TO.N,/5V_NOT_ISO*%
%TA.AperFunction,SMDPad,CuDef*%
G36*
G01*
X166820001Y-43755000D02*
X165919999Y-43755000D01*
G75*
G02*
X165670000Y-43505001I0J249999D01*
G01*
X165670000Y-42854999D01*
G75*
G02*
X165919999Y-42605000I249999J0D01*
G01*
X166820001Y-42605000D01*
G75*
G02*
X167070000Y-42854999I0J-249999D01*
G01*
X167070000Y-43505001D01*
G75*
G02*
X166820001Y-43755000I-249999J0D01*
G01*
G37*
%TD.AperFunction*%
%TD*%
%TO.P,R5,1*%
%TO.N,/3.3V_NOT_ISO*%
%TA.AperFunction,SMDPad,CuDef*%
G36*
G01*
X166820001Y-38675000D02*
X165919999Y-38675000D01*
G75*
G02*
X165670000Y-38425001I0J249999D01*
G01*
X165670000Y-37774999D01*
G75*
G02*
X165919999Y-37525000I249999J0D01*
G01*
X166820001Y-37525000D01*
G75*
G02*
X167070000Y-37774999I0J-249999D01*
G01*
X167070000Y-38425001D01*
G75*
G02*
X166820001Y-38675000I-249999J0D01*
G01*
G37*
%TD.AperFunction*%
%TO.P,R5,2*%
%TO.N,/GLV_RTN*%
%TA.AperFunction,SMDPad,CuDef*%
G36*
G01*
X166820001Y-36625000D02*
X165919999Y-36625000D01*
G75*
G02*
X165670000Y-36375001I0J249999D01*
G01*
X165670000Y-35724999D01*
G75*
G02*
X165919999Y-35475000I249999J0D01*
G01*
X166820001Y-35475000D01*
G75*
G02*
X167070000Y-35724999I0J-249999D01*
G01*
X167070000Y-36375001D01*
G75*
G02*
X166820001Y-36625000I-249999J0D01*
G01*
G37*
%TD.AperFunction*%
%TD*%
%TO.P,R7,1*%
%TO.N,Net-(D1-Pad2)*%
%TA.AperFunction,SMDPad,CuDef*%
G36*
G01*
X173539999Y-38015000D02*
X174440001Y-38015000D01*
G75*
G02*
X174690000Y-38264999I0J-249999D01*
G01*
X174690000Y-38915001D01*
G75*
G02*
X174440001Y-39165000I-249999J0D01*
G01*
X173539999Y-39165000D01*
G75*
G02*
X173290000Y-38915001I0J249999D01*
G01*
X173290000Y-38264999D01*
G75*
G02*
X173539999Y-38015000I249999J0D01*
G01*
G37*
%TD.AperFunction*%
%TO.P,R7,2*%
%TO.N,/3.3V_NOT_ISO*%
%TA.AperFunction,SMDPad,CuDef*%
G36*
G01*
X173539999Y-40065000D02*
X174440001Y-40065000D01*
G75*
G02*
X174690000Y-40314999I0J-249999D01*
G01*
X174690000Y-40965001D01*
G75*
G02*
X174440001Y-41215000I-249999J0D01*
G01*
X173539999Y-41215000D01*
G75*
G02*
X173290000Y-40965001I0J249999D01*
G01*
X173290000Y-40314999D01*
G75*
G02*
X173539999Y-40065000I249999J0D01*
G01*
G37*
%TD.AperFunction*%
%TD*%
%TO.P,R8,1*%
%TO.N,Net-(D2-Pad2)*%
%TA.AperFunction,SMDPad,CuDef*%
G36*
G01*
X179254999Y-38015000D02*
X180155001Y-38015000D01*
G75*
G02*
X180405000Y-38264999I0J-249999D01*
G01*
X180405000Y-38915001D01*
G75*
G02*
X180155001Y-39165000I-249999J0D01*
G01*
X179254999Y-39165000D01*
G75*
G02*
X179005000Y-38915001I0J249999D01*
G01*
X179005000Y-38264999D01*
G75*
G02*
X179254999Y-38015000I249999J0D01*
G01*
G37*
%TD.AperFunction*%
%TO.P,R8,2*%
%TO.N,/5V_NOT_ISO*%
%TA.AperFunction,SMDPad,CuDef*%
G36*
G01*
X179254999Y-40065000D02*
X180155001Y-40065000D01*
G75*
G02*
X180405000Y-40314999I0J-249999D01*
G01*
X180405000Y-40965001D01*
G75*
G02*
X180155001Y-41215000I-249999J0D01*
G01*
X179254999Y-41215000D01*
G75*
G02*
X179005000Y-40965001I0J249999D01*
G01*
X179005000Y-40314999D01*
G75*
G02*
X179254999Y-40065000I249999J0D01*
G01*
G37*
%TD.AperFunction*%
%TD*%
%TO.P,R9,2*%
%TO.N,/24V*%
%TA.AperFunction,SMDPad,CuDef*%
G36*
G01*
X184969999Y-40065000D02*
X185870001Y-40065000D01*
G75*
G02*
X186120000Y-40314999I0J-249999D01*
G01*
X186120000Y-40965001D01*
G75*
G02*
X185870001Y-41215000I-249999J0D01*
G01*
X184969999Y-41215000D01*
G75*
G02*
X184720000Y-40965001I0J249999D01*
G01*
X184720000Y-40314999D01*
G75*
G02*
X184969999Y-40065000I249999J0D01*
G01*
G37*
%TD.AperFunction*%
%TO.P,R9,1*%
%TO.N,Net-(D3-Pad2)*%
%TA.AperFunction,SMDPad,CuDef*%
G36*
G01*
X184969999Y-38015000D02*
X185870001Y-38015000D01*
G75*
G02*
X186120000Y-38264999I0J-249999D01*
G01*
X186120000Y-38915001D01*
G75*
G02*
X185870001Y-39165000I-249999J0D01*
G01*
X184969999Y-39165000D01*
G75*
G02*
X184720000Y-38915001I0J249999D01*
G01*
X184720000Y-38264999D01*
G75*
G02*
X184969999Y-38015000I249999J0D01*
G01*
G37*
%TD.AperFunction*%
%TD*%
D14*
%TO.P,U1,1*%
%TO.N,/GLV_RTN*%
X150304500Y-37099999D03*
%TO.P,U1,2*%
X150304500Y-37600001D03*
%TO.P,U1,3*%
%TO.N,Net-(U1-Pad3)*%
X150304500Y-38100000D03*
%TO.P,U1,4*%
%TO.N,/SDA_NOT_ISO*%
X150304500Y-38599999D03*
%TO.P,U1,5*%
%TO.N,/SCL_NOT_ISO*%
X150304500Y-39100001D03*
%TO.P,U1,6*%
%TO.N,/3.3V_NOT_ISO*%
X154495500Y-39100001D03*
%TO.P,U1,7*%
%TO.N,/GLV_RTN*%
X154495500Y-38599999D03*
%TO.P,U1,8*%
%TO.N,/24V*%
X154495500Y-38100000D03*
%TO.P,U1,9*%
X154495500Y-37600001D03*
%TO.P,U1,10*%
%TO.N,/BATT+*%
X154495500Y-37099999D03*
%TD*%
D15*
%TO.P,H1,1*%
%TO.N,N/C*%
X123825000Y-22225000D03*
%TD*%
%TO.P,H2,1*%
%TO.N,N/C*%
X123825000Y-69850000D03*
%TD*%
%TO.P,H3,1*%
%TO.N,N/C*%
X200660000Y-22225000D03*
%TD*%
%TO.P,H4,1*%
%TO.N,N/C*%
X200660000Y-69850000D03*
%TD*%
D16*
%TO.N,/GLV_RTN*%
X177800000Y-60325000D03*
X177800000Y-50165000D03*
X162560000Y-46355000D03*
X162560000Y-38100000D03*
%TO.N,/24V*%
X127000000Y-52070000D03*
X139700000Y-52070000D03*
X185420000Y-46355000D03*
X173990000Y-46445000D03*
%TO.N,/BATT+*%
X154940000Y-35560000D03*
X154940000Y-33020000D03*
%TO.N,/SDA_NOT_ISO*%
X151130000Y-44450000D03*
X151130000Y-58420000D03*
X151130000Y-58420000D03*
%TO.N,/SCL_NOT_ISO*%
X152400000Y-43180000D03*
X153670000Y-62230000D03*
%TD*%
D17*
%TO.N,/3.3V_NOT_ISO*%
X147320000Y-39125000D02*
X147320000Y-39370000D01*
X147320000Y-39370000D02*
X146050000Y-39370000D01*
X146050000Y-39370000D02*
X146050000Y-45720000D01*
X148345000Y-45720000D02*
X148590000Y-45475000D01*
X146050000Y-45720000D02*
X148345000Y-45720000D01*
X148590000Y-45475000D02*
X154695000Y-45475000D01*
X154495500Y-39100001D02*
X157210001Y-39100001D01*
X157210001Y-39100001D02*
X157970000Y-39860000D01*
X154695000Y-44205000D02*
X154940000Y-43960000D01*
X154695000Y-45475000D02*
X154695000Y-44205000D01*
X157970000Y-42690000D02*
X157970000Y-43670000D01*
X157680000Y-43960000D02*
X154940000Y-43960000D01*
X157970000Y-43670000D02*
X157680000Y-43960000D01*
X166370000Y-41130000D02*
X166370000Y-38100000D01*
X166370000Y-41130000D02*
X158260000Y-41130000D01*
X157970000Y-39860000D02*
X157970000Y-41420000D01*
X158260000Y-41130000D02*
X157970000Y-41420000D01*
X157970000Y-41420000D02*
X157970000Y-42690000D01*
X173500000Y-41130000D02*
X173990000Y-40640000D01*
X166370000Y-41130000D02*
X173500000Y-41130000D01*
D18*
%TO.N,/GLV_RTN*%
X166370000Y-21590000D02*
X179070000Y-21590000D01*
D17*
X150304500Y-37099999D02*
X150304500Y-37600001D01*
X150304500Y-37600001D02*
X151341900Y-37600001D01*
X166230300Y-50165000D02*
X171589700Y-50165000D01*
X171589700Y-50165000D02*
X171589700Y-48895000D01*
X166230300Y-50165000D02*
X166230300Y-48895000D01*
D18*
X177800000Y-62230000D02*
X170600000Y-62230000D01*
D17*
X174625000Y-50165000D02*
X171589700Y-50165000D01*
X152458102Y-37600001D02*
X151341900Y-37600001D01*
X153458100Y-38599999D02*
X152458102Y-37600001D01*
X154495500Y-38599999D02*
X153458100Y-38599999D01*
X180098700Y-33502600D02*
X180340000Y-33261300D01*
X173990000Y-33502600D02*
X180098700Y-33502600D01*
X180340000Y-33261300D02*
X185420000Y-33261300D01*
X154495500Y-38599999D02*
X160790001Y-38599999D01*
D18*
X136525000Y-36585000D02*
X136280000Y-36830000D01*
D17*
X136525000Y-37075000D02*
X136280000Y-36830000D01*
X147320000Y-37075000D02*
X136525000Y-37075000D01*
X177800000Y-62230000D02*
X177800000Y-60325000D01*
X180195000Y-50165000D02*
X180340000Y-50310000D01*
X177800000Y-50165000D02*
X180195000Y-50165000D01*
X177800000Y-50165000D02*
X174625000Y-50165000D01*
X162560000Y-48895000D02*
X166230300Y-48895000D01*
X166370000Y-36050000D02*
X166370000Y-33655000D01*
X161290000Y-38100000D02*
X160790001Y-38599999D01*
X161290000Y-33655000D02*
X161290000Y-38100000D01*
X173990000Y-33502600D02*
X173837600Y-33655000D01*
X173837600Y-33655000D02*
X161290000Y-33655000D01*
X147344999Y-37099999D02*
X147320000Y-37075000D01*
X150304500Y-37099999D02*
X147344999Y-37099999D01*
D18*
X166370000Y-21590000D02*
X148590000Y-21590000D01*
X148590000Y-21590000D02*
X132080000Y-21590000D01*
D17*
X162560000Y-48895000D02*
X162560000Y-46355000D01*
X162560000Y-38100000D02*
X161290000Y-38100000D01*
D18*
X194310000Y-62230000D02*
X177800000Y-62230000D01*
X194970000Y-21590000D02*
X191770000Y-21590000D01*
X191770000Y-21590000D02*
X179070000Y-21590000D01*
X194945000Y-21615000D02*
X194970000Y-21590000D01*
X194310000Y-62230000D02*
X194945000Y-61595000D01*
X194945000Y-61595000D02*
X194945000Y-21615000D01*
%TO.N,/24V*%
X166370000Y-27090000D02*
X179070000Y-27090000D01*
D17*
X154495500Y-37600001D02*
X154495500Y-38100000D01*
X155532900Y-38100000D02*
X154495500Y-38100000D01*
X157480000Y-36152900D02*
X155532900Y-38100000D01*
D18*
X132080000Y-36830000D02*
X127000000Y-36830000D01*
X127000000Y-36830000D02*
X127000000Y-52070000D01*
X170600000Y-58030000D02*
X170600000Y-55030000D01*
X149222500Y-55030000D02*
X144780000Y-59472500D01*
D17*
X172085000Y-47625000D02*
X171589700Y-47625000D01*
X173990000Y-47625000D02*
X171589700Y-47625000D01*
D18*
X139700000Y-52070000D02*
X139700000Y-57365000D01*
X141807500Y-59472500D02*
X139700000Y-57365000D01*
X144780000Y-59472500D02*
X141807500Y-59472500D01*
D17*
X185420000Y-40640000D02*
X185420000Y-46355000D01*
X173990000Y-46445000D02*
X173990000Y-47625000D01*
X162560000Y-50945000D02*
X162560000Y-54610000D01*
D18*
X170600000Y-55030000D02*
X162140000Y-55030000D01*
D17*
X162560000Y-54610000D02*
X162140000Y-55030000D01*
D18*
X162140000Y-55030000D02*
X149222500Y-55030000D01*
X179285000Y-27305000D02*
X179070000Y-27090000D01*
X190500000Y-27305000D02*
X179285000Y-27305000D01*
X190500000Y-57150000D02*
X190500000Y-27305000D01*
X170600000Y-58030000D02*
X189620000Y-58030000D01*
X189620000Y-58030000D02*
X190500000Y-57150000D01*
D17*
X157480000Y-27305000D02*
X157265000Y-27090000D01*
X157480000Y-36152900D02*
X157480000Y-27305000D01*
D18*
X166370000Y-27090000D02*
X157265000Y-27090000D01*
X157265000Y-27090000D02*
X148590000Y-27090000D01*
D17*
%TO.N,/5V_NOT_ISO*%
X180340000Y-48750000D02*
X180340000Y-45720000D01*
X180340000Y-45720000D02*
X166370000Y-45720000D01*
X166370000Y-45720000D02*
X166230300Y-45580300D01*
X166230300Y-47625000D02*
X166230300Y-45580300D01*
X179705000Y-40640000D02*
X179705000Y-45720000D01*
X166230300Y-43319700D02*
X166370000Y-43180000D01*
X166230300Y-45580300D02*
X166230300Y-43319700D01*
%TO.N,Net-(D1-Pad2)*%
X173990000Y-38590000D02*
X173990000Y-35560000D01*
%TO.N,Net-(D2-Pad2)*%
X179705000Y-38590000D02*
X179705000Y-35318700D01*
%TO.N,Net-(D3-Pad2)*%
X185420000Y-38590000D02*
X185420000Y-35318700D01*
D19*
%TO.N,/BATT+*%
X131300000Y-62865000D02*
X135500000Y-62865000D01*
X135500000Y-62865000D02*
X139700000Y-62865000D01*
X144362500Y-62865000D02*
X144780000Y-62447500D01*
X139700000Y-62865000D02*
X144362500Y-62865000D01*
D17*
X154495500Y-37099999D02*
X154495500Y-36004500D01*
X154495500Y-36004500D02*
X154940000Y-35560000D01*
X154940000Y-33020000D02*
X135890000Y-33020000D01*
X135890000Y-30900000D02*
X132080000Y-27090000D01*
X135890000Y-33020000D02*
X135890000Y-30900000D01*
D19*
X126785000Y-32385000D02*
X132080000Y-27090000D01*
X122555000Y-32385000D02*
X126785000Y-32385000D01*
X131300000Y-62865000D02*
X122555000Y-62865000D01*
X122555000Y-62865000D02*
X122555000Y-32385000D01*
D17*
%TO.N,/SDA_NOT_ISO*%
X149267100Y-38599999D02*
X148590000Y-39277099D01*
X150304500Y-38599999D02*
X149267100Y-38599999D01*
X148590000Y-39277099D02*
X148590000Y-43180000D01*
X148590000Y-43425000D02*
X150105000Y-43425000D01*
X150105000Y-43425000D02*
X151130000Y-44450000D01*
X164710000Y-58420000D02*
X165100000Y-58030000D01*
X151130000Y-58420000D02*
X164710000Y-58420000D01*
%TO.N,/SCL_NOT_ISO*%
X153670000Y-62230000D02*
X165100000Y-62230000D01*
X150304500Y-39100001D02*
X150304500Y-41719500D01*
X150304500Y-41719500D02*
X150495000Y-41910000D01*
X152400000Y-41910000D02*
X152400000Y-43180000D01*
X152400000Y-41910000D02*
X154940000Y-41910000D01*
X150495000Y-41910000D02*
X152400000Y-41910000D01*
%TO.N,/BREAKER_OUT_SL*%
X132080000Y-56585000D02*
X131300000Y-57365000D01*
D18*
X132080000Y-42330000D02*
X132080000Y-56585000D01*
D17*
%TO.N,/BREAKER_OUT_COOL*%
X136280000Y-56585000D02*
X135500000Y-57365000D01*
D18*
X136280000Y-42330000D02*
X136280000Y-56585000D01*
%TD*%
M02*
