%TF.GenerationSoftware,KiCad,Pcbnew,(5.1.6)-1*%
%TF.CreationDate,2021-01-11T16:43:41-05:00*%
%TF.ProjectId,GLV_BOBV6,474c565f-424f-4425-9636-2e6b69636164,rev?*%
%TF.SameCoordinates,Original*%
%TF.FileFunction,Legend,Top*%
%TF.FilePolarity,Positive*%
%FSLAX46Y46*%
G04 Gerber Fmt 4.6, Leading zero omitted, Abs format (unit mm)*
G04 Created by KiCad (PCBNEW (5.1.6)-1) date 2021-01-11 16:43:41*
%MOMM*%
%LPD*%
G01*
G04 APERTURE LIST*
%ADD10C,0.150000*%
%ADD11C,0.125000*%
%ADD12C,0.250000*%
%ADD13C,0.120000*%
%ADD14C,0.152400*%
G04 APERTURE END LIST*
D10*
X205287619Y-41354761D02*
X205763809Y-41021428D01*
X205287619Y-40783333D02*
X206287619Y-40783333D01*
X206287619Y-41164285D01*
X206240000Y-41259523D01*
X206192380Y-41307142D01*
X206097142Y-41354761D01*
X205954285Y-41354761D01*
X205859047Y-41307142D01*
X205811428Y-41259523D01*
X205763809Y-41164285D01*
X205763809Y-40783333D01*
X205287619Y-41783333D02*
X205954285Y-41783333D01*
X206287619Y-41783333D02*
X206240000Y-41735714D01*
X206192380Y-41783333D01*
X206240000Y-41830952D01*
X206287619Y-41783333D01*
X206192380Y-41783333D01*
X205954285Y-42688095D02*
X205144761Y-42688095D01*
X205049523Y-42640476D01*
X205001904Y-42592857D01*
X204954285Y-42497619D01*
X204954285Y-42354761D01*
X205001904Y-42259523D01*
X205335238Y-42688095D02*
X205287619Y-42592857D01*
X205287619Y-42402380D01*
X205335238Y-42307142D01*
X205382857Y-42259523D01*
X205478095Y-42211904D01*
X205763809Y-42211904D01*
X205859047Y-42259523D01*
X205906666Y-42307142D01*
X205954285Y-42402380D01*
X205954285Y-42592857D01*
X205906666Y-42688095D01*
X205287619Y-43164285D02*
X206287619Y-43164285D01*
X205287619Y-43592857D02*
X205811428Y-43592857D01*
X205906666Y-43545238D01*
X205954285Y-43450000D01*
X205954285Y-43307142D01*
X205906666Y-43211904D01*
X205859047Y-43164285D01*
X205954285Y-43926190D02*
X205954285Y-44307142D01*
X206287619Y-44069047D02*
X205430476Y-44069047D01*
X205335238Y-44116666D01*
X205287619Y-44211904D01*
X205287619Y-44307142D01*
X205335238Y-45354761D02*
X205287619Y-45497619D01*
X205287619Y-45735714D01*
X205335238Y-45830952D01*
X205382857Y-45878571D01*
X205478095Y-45926190D01*
X205573333Y-45926190D01*
X205668571Y-45878571D01*
X205716190Y-45830952D01*
X205763809Y-45735714D01*
X205811428Y-45545238D01*
X205859047Y-45450000D01*
X205906666Y-45402380D01*
X206001904Y-45354761D01*
X206097142Y-45354761D01*
X206192380Y-45402380D01*
X206240000Y-45450000D01*
X206287619Y-45545238D01*
X206287619Y-45783333D01*
X206240000Y-45926190D01*
X205287619Y-46354761D02*
X205954285Y-46354761D01*
X206287619Y-46354761D02*
X206240000Y-46307142D01*
X206192380Y-46354761D01*
X206240000Y-46402380D01*
X206287619Y-46354761D01*
X206192380Y-46354761D01*
X205287619Y-47259523D02*
X206287619Y-47259523D01*
X205335238Y-47259523D02*
X205287619Y-47164285D01*
X205287619Y-46973809D01*
X205335238Y-46878571D01*
X205382857Y-46830952D01*
X205478095Y-46783333D01*
X205763809Y-46783333D01*
X205859047Y-46830952D01*
X205906666Y-46878571D01*
X205954285Y-46973809D01*
X205954285Y-47164285D01*
X205906666Y-47259523D01*
X205335238Y-48116666D02*
X205287619Y-48021428D01*
X205287619Y-47830952D01*
X205335238Y-47735714D01*
X205430476Y-47688095D01*
X205811428Y-47688095D01*
X205906666Y-47735714D01*
X205954285Y-47830952D01*
X205954285Y-48021428D01*
X205906666Y-48116666D01*
X205811428Y-48164285D01*
X205716190Y-48164285D01*
X205620952Y-47688095D01*
X119832380Y-47116666D02*
X119832380Y-47592857D01*
X118832380Y-47592857D01*
X119784761Y-46402380D02*
X119832380Y-46497619D01*
X119832380Y-46688095D01*
X119784761Y-46783333D01*
X119689523Y-46830952D01*
X119308571Y-46830952D01*
X119213333Y-46783333D01*
X119165714Y-46688095D01*
X119165714Y-46497619D01*
X119213333Y-46402380D01*
X119308571Y-46354761D01*
X119403809Y-46354761D01*
X119499047Y-46830952D01*
X119165714Y-46069047D02*
X119165714Y-45688095D01*
X119832380Y-45926190D02*
X118975238Y-45926190D01*
X118880000Y-45878571D01*
X118832380Y-45783333D01*
X118832380Y-45688095D01*
X119165714Y-45497619D02*
X119165714Y-45116666D01*
X118832380Y-45354761D02*
X119689523Y-45354761D01*
X119784761Y-45307142D01*
X119832380Y-45211904D01*
X119832380Y-45116666D01*
X119784761Y-44069047D02*
X119832380Y-43926190D01*
X119832380Y-43688095D01*
X119784761Y-43592857D01*
X119737142Y-43545238D01*
X119641904Y-43497619D01*
X119546666Y-43497619D01*
X119451428Y-43545238D01*
X119403809Y-43592857D01*
X119356190Y-43688095D01*
X119308571Y-43878571D01*
X119260952Y-43973809D01*
X119213333Y-44021428D01*
X119118095Y-44069047D01*
X119022857Y-44069047D01*
X118927619Y-44021428D01*
X118880000Y-43973809D01*
X118832380Y-43878571D01*
X118832380Y-43640476D01*
X118880000Y-43497619D01*
X119832380Y-43069047D02*
X119165714Y-43069047D01*
X118832380Y-43069047D02*
X118880000Y-43116666D01*
X118927619Y-43069047D01*
X118880000Y-43021428D01*
X118832380Y-43069047D01*
X118927619Y-43069047D01*
X119832380Y-42164285D02*
X118832380Y-42164285D01*
X119784761Y-42164285D02*
X119832380Y-42259523D01*
X119832380Y-42450000D01*
X119784761Y-42545238D01*
X119737142Y-42592857D01*
X119641904Y-42640476D01*
X119356190Y-42640476D01*
X119260952Y-42592857D01*
X119213333Y-42545238D01*
X119165714Y-42450000D01*
X119165714Y-42259523D01*
X119213333Y-42164285D01*
X119784761Y-41307142D02*
X119832380Y-41402380D01*
X119832380Y-41592857D01*
X119784761Y-41688095D01*
X119689523Y-41735714D01*
X119308571Y-41735714D01*
X119213333Y-41688095D01*
X119165714Y-41592857D01*
X119165714Y-41402380D01*
X119213333Y-41307142D01*
X119308571Y-41259523D01*
X119403809Y-41259523D01*
X119499047Y-41735714D01*
D11*
X175613571Y-69495000D02*
X175542142Y-69459285D01*
X175435000Y-69459285D01*
X175327857Y-69495000D01*
X175256428Y-69566428D01*
X175220714Y-69637857D01*
X175185000Y-69780714D01*
X175185000Y-69887857D01*
X175220714Y-70030714D01*
X175256428Y-70102142D01*
X175327857Y-70173571D01*
X175435000Y-70209285D01*
X175506428Y-70209285D01*
X175613571Y-70173571D01*
X175649285Y-70137857D01*
X175649285Y-69887857D01*
X175506428Y-69887857D01*
X176327857Y-70209285D02*
X175970714Y-70209285D01*
X175970714Y-69459285D01*
X176470714Y-69459285D02*
X176720714Y-70209285D01*
X176970714Y-69459285D01*
X178042142Y-69816428D02*
X178149285Y-69852142D01*
X178185000Y-69887857D01*
X178220714Y-69959285D01*
X178220714Y-70066428D01*
X178185000Y-70137857D01*
X178149285Y-70173571D01*
X178077857Y-70209285D01*
X177792142Y-70209285D01*
X177792142Y-69459285D01*
X178042142Y-69459285D01*
X178113571Y-69495000D01*
X178149285Y-69530714D01*
X178185000Y-69602142D01*
X178185000Y-69673571D01*
X178149285Y-69745000D01*
X178113571Y-69780714D01*
X178042142Y-69816428D01*
X177792142Y-69816428D01*
X178685000Y-69459285D02*
X178827857Y-69459285D01*
X178899285Y-69495000D01*
X178970714Y-69566428D01*
X179006428Y-69709285D01*
X179006428Y-69959285D01*
X178970714Y-70102142D01*
X178899285Y-70173571D01*
X178827857Y-70209285D01*
X178685000Y-70209285D01*
X178613571Y-70173571D01*
X178542142Y-70102142D01*
X178506428Y-69959285D01*
X178506428Y-69709285D01*
X178542142Y-69566428D01*
X178613571Y-69495000D01*
X178685000Y-69459285D01*
X179577857Y-69816428D02*
X179685000Y-69852142D01*
X179720714Y-69887857D01*
X179756428Y-69959285D01*
X179756428Y-70066428D01*
X179720714Y-70137857D01*
X179685000Y-70173571D01*
X179613571Y-70209285D01*
X179327857Y-70209285D01*
X179327857Y-69459285D01*
X179577857Y-69459285D01*
X179649285Y-69495000D01*
X179685000Y-69530714D01*
X179720714Y-69602142D01*
X179720714Y-69673571D01*
X179685000Y-69745000D01*
X179649285Y-69780714D01*
X179577857Y-69816428D01*
X179327857Y-69816428D01*
X180542142Y-69459285D02*
X180792142Y-70209285D01*
X181042142Y-69459285D01*
X181613571Y-69459285D02*
X181470714Y-69459285D01*
X181399285Y-69495000D01*
X181363571Y-69530714D01*
X181292142Y-69637857D01*
X181256428Y-69780714D01*
X181256428Y-70066428D01*
X181292142Y-70137857D01*
X181327857Y-70173571D01*
X181399285Y-70209285D01*
X181542142Y-70209285D01*
X181613571Y-70173571D01*
X181649285Y-70137857D01*
X181685000Y-70066428D01*
X181685000Y-69887857D01*
X181649285Y-69816428D01*
X181613571Y-69780714D01*
X181542142Y-69745000D01*
X181399285Y-69745000D01*
X181327857Y-69780714D01*
X181292142Y-69816428D01*
X181256428Y-69887857D01*
X168845714Y-70709285D02*
X169274285Y-70709285D01*
X169060000Y-71459285D02*
X169060000Y-70709285D01*
X169524285Y-71459285D02*
X169524285Y-70959285D01*
X169524285Y-71102142D02*
X169560000Y-71030714D01*
X169595714Y-70995000D01*
X169667142Y-70959285D01*
X169738571Y-70959285D01*
X170095714Y-71459285D02*
X170024285Y-71423571D01*
X169988571Y-71387857D01*
X169952857Y-71316428D01*
X169952857Y-71102142D01*
X169988571Y-71030714D01*
X170024285Y-70995000D01*
X170095714Y-70959285D01*
X170202857Y-70959285D01*
X170274285Y-70995000D01*
X170310000Y-71030714D01*
X170345714Y-71102142D01*
X170345714Y-71316428D01*
X170310000Y-71387857D01*
X170274285Y-71423571D01*
X170202857Y-71459285D01*
X170095714Y-71459285D01*
X170595714Y-70959285D02*
X170774285Y-71459285D01*
X170952857Y-70959285D02*
X170774285Y-71459285D01*
X170702857Y-71637857D01*
X170667142Y-71673571D01*
X170595714Y-71709285D01*
X172238571Y-71387857D02*
X172202857Y-71423571D01*
X172095714Y-71459285D01*
X172024285Y-71459285D01*
X171917142Y-71423571D01*
X171845714Y-71352142D01*
X171810000Y-71280714D01*
X171774285Y-71137857D01*
X171774285Y-71030714D01*
X171810000Y-70887857D01*
X171845714Y-70816428D01*
X171917142Y-70745000D01*
X172024285Y-70709285D01*
X172095714Y-70709285D01*
X172202857Y-70745000D01*
X172238571Y-70780714D01*
X172667142Y-71459285D02*
X172595714Y-71423571D01*
X172560000Y-71387857D01*
X172524285Y-71316428D01*
X172524285Y-71102142D01*
X172560000Y-71030714D01*
X172595714Y-70995000D01*
X172667142Y-70959285D01*
X172774285Y-70959285D01*
X172845714Y-70995000D01*
X172881428Y-71030714D01*
X172917142Y-71102142D01*
X172917142Y-71316428D01*
X172881428Y-71387857D01*
X172845714Y-71423571D01*
X172774285Y-71459285D01*
X172667142Y-71459285D01*
X173345714Y-71459285D02*
X173274285Y-71423571D01*
X173238571Y-71352142D01*
X173238571Y-70709285D01*
X173917142Y-71423571D02*
X173845714Y-71459285D01*
X173702857Y-71459285D01*
X173631428Y-71423571D01*
X173595714Y-71352142D01*
X173595714Y-71066428D01*
X173631428Y-70995000D01*
X173702857Y-70959285D01*
X173845714Y-70959285D01*
X173917142Y-70995000D01*
X173952857Y-71066428D01*
X173952857Y-71137857D01*
X173595714Y-71209285D01*
X174274285Y-71459285D02*
X174274285Y-70959285D01*
X174274285Y-71030714D02*
X174310000Y-70995000D01*
X174381428Y-70959285D01*
X174488571Y-70959285D01*
X174560000Y-70995000D01*
X174595714Y-71066428D01*
X174595714Y-71459285D01*
X174595714Y-71066428D02*
X174631428Y-70995000D01*
X174702857Y-70959285D01*
X174810000Y-70959285D01*
X174881428Y-70995000D01*
X174917142Y-71066428D01*
X174917142Y-71459285D01*
X175595714Y-71459285D02*
X175595714Y-71066428D01*
X175560000Y-70995000D01*
X175488571Y-70959285D01*
X175345714Y-70959285D01*
X175274285Y-70995000D01*
X175595714Y-71423571D02*
X175524285Y-71459285D01*
X175345714Y-71459285D01*
X175274285Y-71423571D01*
X175238571Y-71352142D01*
X175238571Y-71280714D01*
X175274285Y-71209285D01*
X175345714Y-71173571D01*
X175524285Y-71173571D01*
X175595714Y-71137857D01*
X175952857Y-70959285D02*
X175952857Y-71459285D01*
X175952857Y-71030714D02*
X175988571Y-70995000D01*
X176060000Y-70959285D01*
X176167142Y-70959285D01*
X176238571Y-70995000D01*
X176274285Y-71066428D01*
X176274285Y-71459285D01*
X177524285Y-71459285D02*
X177524285Y-71066428D01*
X177488571Y-70995000D01*
X177417142Y-70959285D01*
X177274285Y-70959285D01*
X177202857Y-70995000D01*
X177524285Y-71423571D02*
X177452857Y-71459285D01*
X177274285Y-71459285D01*
X177202857Y-71423571D01*
X177167142Y-71352142D01*
X177167142Y-71280714D01*
X177202857Y-71209285D01*
X177274285Y-71173571D01*
X177452857Y-71173571D01*
X177524285Y-71137857D01*
X177881428Y-70959285D02*
X177881428Y-71459285D01*
X177881428Y-71030714D02*
X177917142Y-70995000D01*
X177988571Y-70959285D01*
X178095714Y-70959285D01*
X178167142Y-70995000D01*
X178202857Y-71066428D01*
X178202857Y-71459285D01*
X178881428Y-71459285D02*
X178881428Y-70709285D01*
X178881428Y-71423571D02*
X178810000Y-71459285D01*
X178667142Y-71459285D01*
X178595714Y-71423571D01*
X178560000Y-71387857D01*
X178524285Y-71316428D01*
X178524285Y-71102142D01*
X178560000Y-71030714D01*
X178595714Y-70995000D01*
X178667142Y-70959285D01*
X178810000Y-70959285D01*
X178881428Y-70995000D01*
X179738571Y-70709285D02*
X180238571Y-70709285D01*
X179738571Y-71459285D01*
X180238571Y-71459285D01*
X180845714Y-71459285D02*
X180845714Y-71066428D01*
X180810000Y-70995000D01*
X180738571Y-70959285D01*
X180595714Y-70959285D01*
X180524285Y-70995000D01*
X180845714Y-71423571D02*
X180774285Y-71459285D01*
X180595714Y-71459285D01*
X180524285Y-71423571D01*
X180488571Y-71352142D01*
X180488571Y-71280714D01*
X180524285Y-71209285D01*
X180595714Y-71173571D01*
X180774285Y-71173571D01*
X180845714Y-71137857D01*
X181524285Y-71423571D02*
X181452857Y-71459285D01*
X181310000Y-71459285D01*
X181238571Y-71423571D01*
X181202857Y-71387857D01*
X181167142Y-71316428D01*
X181167142Y-71102142D01*
X181202857Y-71030714D01*
X181238571Y-70995000D01*
X181310000Y-70959285D01*
X181452857Y-70959285D01*
X181524285Y-70995000D01*
X181845714Y-71459285D02*
X181845714Y-70709285D01*
X182167142Y-71459285D02*
X182167142Y-71066428D01*
X182131428Y-70995000D01*
X182060000Y-70959285D01*
X181952857Y-70959285D01*
X181881428Y-70995000D01*
X181845714Y-71030714D01*
X182845714Y-71459285D02*
X182845714Y-71066428D01*
X182810000Y-70995000D01*
X182738571Y-70959285D01*
X182595714Y-70959285D01*
X182524285Y-70995000D01*
X182845714Y-71423571D02*
X182774285Y-71459285D01*
X182595714Y-71459285D01*
X182524285Y-71423571D01*
X182488571Y-71352142D01*
X182488571Y-71280714D01*
X182524285Y-71209285D01*
X182595714Y-71173571D01*
X182774285Y-71173571D01*
X182845714Y-71137857D01*
X183202857Y-71459285D02*
X183202857Y-70959285D01*
X183202857Y-71102142D02*
X183238571Y-71030714D01*
X183274285Y-70995000D01*
X183345714Y-70959285D01*
X183417142Y-70959285D01*
X183595714Y-70959285D02*
X183774285Y-71459285D01*
X183952857Y-70959285D02*
X183774285Y-71459285D01*
X183702857Y-71637857D01*
X183667142Y-71673571D01*
X183595714Y-71709285D01*
X184810000Y-71459285D02*
X184810000Y-70709285D01*
X185060000Y-71245000D01*
X185310000Y-70709285D01*
X185310000Y-71459285D01*
X185988571Y-71459285D02*
X185988571Y-71066428D01*
X185952857Y-70995000D01*
X185881428Y-70959285D01*
X185738571Y-70959285D01*
X185667142Y-70995000D01*
X185988571Y-71423571D02*
X185917142Y-71459285D01*
X185738571Y-71459285D01*
X185667142Y-71423571D01*
X185631428Y-71352142D01*
X185631428Y-71280714D01*
X185667142Y-71209285D01*
X185738571Y-71173571D01*
X185917142Y-71173571D01*
X185988571Y-71137857D01*
X186345714Y-71459285D02*
X186345714Y-70959285D01*
X186345714Y-71102142D02*
X186381428Y-71030714D01*
X186417142Y-70995000D01*
X186488571Y-70959285D01*
X186560000Y-70959285D01*
X186702857Y-70959285D02*
X186988571Y-70959285D01*
X186810000Y-70709285D02*
X186810000Y-71352142D01*
X186845714Y-71423571D01*
X186917142Y-71459285D01*
X186988571Y-71459285D01*
X187238571Y-71459285D02*
X187238571Y-70959285D01*
X187238571Y-70709285D02*
X187202857Y-70745000D01*
X187238571Y-70780714D01*
X187274285Y-70745000D01*
X187238571Y-70709285D01*
X187238571Y-70780714D01*
X187595714Y-70959285D02*
X187595714Y-71459285D01*
X187595714Y-71030714D02*
X187631428Y-70995000D01*
X187702857Y-70959285D01*
X187810000Y-70959285D01*
X187881428Y-70995000D01*
X187917142Y-71066428D01*
X187917142Y-71459285D01*
X176077857Y-72709285D02*
X175649285Y-72709285D01*
X175863571Y-72709285D02*
X175863571Y-71959285D01*
X175792142Y-72066428D01*
X175720714Y-72137857D01*
X175649285Y-72173571D01*
X176792142Y-72709285D02*
X176363571Y-72709285D01*
X176577857Y-72709285D02*
X176577857Y-71959285D01*
X176506428Y-72066428D01*
X176435000Y-72137857D01*
X176363571Y-72173571D01*
X177649285Y-71923571D02*
X177006428Y-72887857D01*
X177863571Y-72030714D02*
X177899285Y-71995000D01*
X177970714Y-71959285D01*
X178149285Y-71959285D01*
X178220714Y-71995000D01*
X178256428Y-72030714D01*
X178292142Y-72102142D01*
X178292142Y-72173571D01*
X178256428Y-72280714D01*
X177827857Y-72709285D01*
X178292142Y-72709285D01*
X178577857Y-72030714D02*
X178613571Y-71995000D01*
X178685000Y-71959285D01*
X178863571Y-71959285D01*
X178935000Y-71995000D01*
X178970714Y-72030714D01*
X179006428Y-72102142D01*
X179006428Y-72173571D01*
X178970714Y-72280714D01*
X178542142Y-72709285D01*
X179006428Y-72709285D01*
X179863571Y-71923571D02*
X179220714Y-72887857D01*
X180077857Y-72030714D02*
X180113571Y-71995000D01*
X180185000Y-71959285D01*
X180363571Y-71959285D01*
X180435000Y-71995000D01*
X180470714Y-72030714D01*
X180506428Y-72102142D01*
X180506428Y-72173571D01*
X180470714Y-72280714D01*
X180042142Y-72709285D01*
X180506428Y-72709285D01*
X180970714Y-71959285D02*
X181042142Y-71959285D01*
X181113571Y-71995000D01*
X181149285Y-72030714D01*
X181185000Y-72102142D01*
X181220714Y-72245000D01*
X181220714Y-72423571D01*
X181185000Y-72566428D01*
X181149285Y-72637857D01*
X181113571Y-72673571D01*
X181042142Y-72709285D01*
X180970714Y-72709285D01*
X180899285Y-72673571D01*
X180863571Y-72637857D01*
X180827857Y-72566428D01*
X180792142Y-72423571D01*
X180792142Y-72245000D01*
X180827857Y-72102142D01*
X180863571Y-72030714D01*
X180899285Y-71995000D01*
X180970714Y-71959285D01*
D12*
X164720714Y-67238571D02*
X165054047Y-67238571D01*
X165196904Y-67762380D02*
X164720714Y-67762380D01*
X164720714Y-66762380D01*
X165196904Y-66762380D01*
X165768333Y-67762380D02*
X165673095Y-67714761D01*
X165625476Y-67619523D01*
X165625476Y-66762380D01*
X166530238Y-67714761D02*
X166435000Y-67762380D01*
X166244523Y-67762380D01*
X166149285Y-67714761D01*
X166101666Y-67619523D01*
X166101666Y-67238571D01*
X166149285Y-67143333D01*
X166244523Y-67095714D01*
X166435000Y-67095714D01*
X166530238Y-67143333D01*
X166577857Y-67238571D01*
X166577857Y-67333809D01*
X166101666Y-67429047D01*
X167435000Y-67714761D02*
X167339761Y-67762380D01*
X167149285Y-67762380D01*
X167054047Y-67714761D01*
X167006428Y-67667142D01*
X166958809Y-67571904D01*
X166958809Y-67286190D01*
X167006428Y-67190952D01*
X167054047Y-67143333D01*
X167149285Y-67095714D01*
X167339761Y-67095714D01*
X167435000Y-67143333D01*
X167720714Y-67095714D02*
X168101666Y-67095714D01*
X167863571Y-66762380D02*
X167863571Y-67619523D01*
X167911190Y-67714761D01*
X168006428Y-67762380D01*
X168101666Y-67762380D01*
X168435000Y-67762380D02*
X168435000Y-67095714D01*
X168435000Y-67286190D02*
X168482619Y-67190952D01*
X168530238Y-67143333D01*
X168625476Y-67095714D01*
X168720714Y-67095714D01*
X169054047Y-67762380D02*
X169054047Y-67095714D01*
X169054047Y-66762380D02*
X169006428Y-66810000D01*
X169054047Y-66857619D01*
X169101666Y-66810000D01*
X169054047Y-66762380D01*
X169054047Y-66857619D01*
X169958809Y-67714761D02*
X169863571Y-67762380D01*
X169673095Y-67762380D01*
X169577857Y-67714761D01*
X169530238Y-67667142D01*
X169482619Y-67571904D01*
X169482619Y-67286190D01*
X169530238Y-67190952D01*
X169577857Y-67143333D01*
X169673095Y-67095714D01*
X169863571Y-67095714D01*
X169958809Y-67143333D01*
X170815952Y-67762380D02*
X170815952Y-67238571D01*
X170768333Y-67143333D01*
X170673095Y-67095714D01*
X170482619Y-67095714D01*
X170387380Y-67143333D01*
X170815952Y-67714761D02*
X170720714Y-67762380D01*
X170482619Y-67762380D01*
X170387380Y-67714761D01*
X170339761Y-67619523D01*
X170339761Y-67524285D01*
X170387380Y-67429047D01*
X170482619Y-67381428D01*
X170720714Y-67381428D01*
X170815952Y-67333809D01*
X171435000Y-67762380D02*
X171339761Y-67714761D01*
X171292142Y-67619523D01*
X171292142Y-66762380D01*
X173006428Y-67762380D02*
X173006428Y-67238571D01*
X172958809Y-67143333D01*
X172863571Y-67095714D01*
X172673095Y-67095714D01*
X172577857Y-67143333D01*
X173006428Y-67714761D02*
X172911190Y-67762380D01*
X172673095Y-67762380D01*
X172577857Y-67714761D01*
X172530238Y-67619523D01*
X172530238Y-67524285D01*
X172577857Y-67429047D01*
X172673095Y-67381428D01*
X172911190Y-67381428D01*
X173006428Y-67333809D01*
X173482619Y-67095714D02*
X173482619Y-67762380D01*
X173482619Y-67190952D02*
X173530238Y-67143333D01*
X173625476Y-67095714D01*
X173768333Y-67095714D01*
X173863571Y-67143333D01*
X173911190Y-67238571D01*
X173911190Y-67762380D01*
X174815952Y-67762380D02*
X174815952Y-66762380D01*
X174815952Y-67714761D02*
X174720714Y-67762380D01*
X174530238Y-67762380D01*
X174435000Y-67714761D01*
X174387380Y-67667142D01*
X174339761Y-67571904D01*
X174339761Y-67286190D01*
X174387380Y-67190952D01*
X174435000Y-67143333D01*
X174530238Y-67095714D01*
X174720714Y-67095714D01*
X174815952Y-67143333D01*
X176625476Y-67667142D02*
X176577857Y-67714761D01*
X176435000Y-67762380D01*
X176339761Y-67762380D01*
X176196904Y-67714761D01*
X176101666Y-67619523D01*
X176054047Y-67524285D01*
X176006428Y-67333809D01*
X176006428Y-67190952D01*
X176054047Y-67000476D01*
X176101666Y-66905238D01*
X176196904Y-66810000D01*
X176339761Y-66762380D01*
X176435000Y-66762380D01*
X176577857Y-66810000D01*
X176625476Y-66857619D01*
X177196904Y-67762380D02*
X177101666Y-67714761D01*
X177054047Y-67667142D01*
X177006428Y-67571904D01*
X177006428Y-67286190D01*
X177054047Y-67190952D01*
X177101666Y-67143333D01*
X177196904Y-67095714D01*
X177339761Y-67095714D01*
X177435000Y-67143333D01*
X177482619Y-67190952D01*
X177530238Y-67286190D01*
X177530238Y-67571904D01*
X177482619Y-67667142D01*
X177435000Y-67714761D01*
X177339761Y-67762380D01*
X177196904Y-67762380D01*
X177958809Y-67762380D02*
X177958809Y-67095714D01*
X177958809Y-67190952D02*
X178006428Y-67143333D01*
X178101666Y-67095714D01*
X178244523Y-67095714D01*
X178339761Y-67143333D01*
X178387380Y-67238571D01*
X178387380Y-67762380D01*
X178387380Y-67238571D02*
X178435000Y-67143333D01*
X178530238Y-67095714D01*
X178673095Y-67095714D01*
X178768333Y-67143333D01*
X178815952Y-67238571D01*
X178815952Y-67762380D01*
X179292142Y-67095714D02*
X179292142Y-68095714D01*
X179292142Y-67143333D02*
X179387380Y-67095714D01*
X179577857Y-67095714D01*
X179673095Y-67143333D01*
X179720714Y-67190952D01*
X179768333Y-67286190D01*
X179768333Y-67571904D01*
X179720714Y-67667142D01*
X179673095Y-67714761D01*
X179577857Y-67762380D01*
X179387380Y-67762380D01*
X179292142Y-67714761D01*
X180625476Y-67095714D02*
X180625476Y-67762380D01*
X180196904Y-67095714D02*
X180196904Y-67619523D01*
X180244523Y-67714761D01*
X180339761Y-67762380D01*
X180482619Y-67762380D01*
X180577857Y-67714761D01*
X180625476Y-67667142D01*
X180958809Y-67095714D02*
X181339761Y-67095714D01*
X181101666Y-66762380D02*
X181101666Y-67619523D01*
X181149285Y-67714761D01*
X181244523Y-67762380D01*
X181339761Y-67762380D01*
X182054047Y-67714761D02*
X181958809Y-67762380D01*
X181768333Y-67762380D01*
X181673095Y-67714761D01*
X181625476Y-67619523D01*
X181625476Y-67238571D01*
X181673095Y-67143333D01*
X181768333Y-67095714D01*
X181958809Y-67095714D01*
X182054047Y-67143333D01*
X182101666Y-67238571D01*
X182101666Y-67333809D01*
X181625476Y-67429047D01*
X182530238Y-67762380D02*
X182530238Y-67095714D01*
X182530238Y-67286190D02*
X182577857Y-67190952D01*
X182625476Y-67143333D01*
X182720714Y-67095714D01*
X182815952Y-67095714D01*
X183911190Y-67238571D02*
X184244523Y-67238571D01*
X184387380Y-67762380D02*
X183911190Y-67762380D01*
X183911190Y-66762380D01*
X184387380Y-66762380D01*
X184815952Y-67095714D02*
X184815952Y-67762380D01*
X184815952Y-67190952D02*
X184863571Y-67143333D01*
X184958809Y-67095714D01*
X185101666Y-67095714D01*
X185196904Y-67143333D01*
X185244523Y-67238571D01*
X185244523Y-67762380D01*
X186149285Y-67095714D02*
X186149285Y-67905238D01*
X186101666Y-68000476D01*
X186054047Y-68048095D01*
X185958809Y-68095714D01*
X185815952Y-68095714D01*
X185720714Y-68048095D01*
X186149285Y-67714761D02*
X186054047Y-67762380D01*
X185863571Y-67762380D01*
X185768333Y-67714761D01*
X185720714Y-67667142D01*
X185673095Y-67571904D01*
X185673095Y-67286190D01*
X185720714Y-67190952D01*
X185768333Y-67143333D01*
X185863571Y-67095714D01*
X186054047Y-67095714D01*
X186149285Y-67143333D01*
X186625476Y-67762380D02*
X186625476Y-67095714D01*
X186625476Y-66762380D02*
X186577857Y-66810000D01*
X186625476Y-66857619D01*
X186673095Y-66810000D01*
X186625476Y-66762380D01*
X186625476Y-66857619D01*
X187101666Y-67095714D02*
X187101666Y-67762380D01*
X187101666Y-67190952D02*
X187149285Y-67143333D01*
X187244523Y-67095714D01*
X187387380Y-67095714D01*
X187482619Y-67143333D01*
X187530238Y-67238571D01*
X187530238Y-67762380D01*
X188387380Y-67714761D02*
X188292142Y-67762380D01*
X188101666Y-67762380D01*
X188006428Y-67714761D01*
X187958809Y-67619523D01*
X187958809Y-67238571D01*
X188006428Y-67143333D01*
X188101666Y-67095714D01*
X188292142Y-67095714D01*
X188387380Y-67143333D01*
X188435000Y-67238571D01*
X188435000Y-67333809D01*
X187958809Y-67429047D01*
X189244523Y-67714761D02*
X189149285Y-67762380D01*
X188958809Y-67762380D01*
X188863571Y-67714761D01*
X188815952Y-67619523D01*
X188815952Y-67238571D01*
X188863571Y-67143333D01*
X188958809Y-67095714D01*
X189149285Y-67095714D01*
X189244523Y-67143333D01*
X189292142Y-67238571D01*
X189292142Y-67333809D01*
X188815952Y-67429047D01*
X189720714Y-67762380D02*
X189720714Y-67095714D01*
X189720714Y-67286190D02*
X189768333Y-67190952D01*
X189815952Y-67143333D01*
X189911190Y-67095714D01*
X190006428Y-67095714D01*
X190339761Y-67762380D02*
X190339761Y-67095714D01*
X190339761Y-66762380D02*
X190292142Y-66810000D01*
X190339761Y-66857619D01*
X190387380Y-66810000D01*
X190339761Y-66762380D01*
X190339761Y-66857619D01*
X190815952Y-67095714D02*
X190815952Y-67762380D01*
X190815952Y-67190952D02*
X190863571Y-67143333D01*
X190958809Y-67095714D01*
X191101666Y-67095714D01*
X191196904Y-67143333D01*
X191244523Y-67238571D01*
X191244523Y-67762380D01*
X192149285Y-67095714D02*
X192149285Y-67905238D01*
X192101666Y-68000476D01*
X192054047Y-68048095D01*
X191958809Y-68095714D01*
X191815952Y-68095714D01*
X191720714Y-68048095D01*
X192149285Y-67714761D02*
X192054047Y-67762380D01*
X191863571Y-67762380D01*
X191768333Y-67714761D01*
X191720714Y-67667142D01*
X191673095Y-67571904D01*
X191673095Y-67286190D01*
X191720714Y-67190952D01*
X191768333Y-67143333D01*
X191863571Y-67095714D01*
X192054047Y-67095714D01*
X192149285Y-67143333D01*
D13*
%TO.C,R3*%
X149300000Y-44711252D02*
X149300000Y-44188748D01*
X147880000Y-44711252D02*
X147880000Y-44188748D01*
%TO.C,R2*%
X154230000Y-43196252D02*
X154230000Y-42673748D01*
X155650000Y-43196252D02*
X155650000Y-42673748D01*
%TO.C,C1*%
X148030000Y-38361252D02*
X148030000Y-37838748D01*
X146610000Y-38361252D02*
X146610000Y-37838748D01*
%TO.C,C2*%
X163270000Y-49658748D02*
X163270000Y-50181252D01*
X161850000Y-49658748D02*
X161850000Y-50181252D01*
%TO.C,C3*%
X181050000Y-49546252D02*
X181050000Y-49023748D01*
X179630000Y-49546252D02*
X179630000Y-49023748D01*
D14*
%TO.C,CR1*%
X171043600Y-46901100D02*
X166776400Y-46901100D01*
X166776400Y-52158900D02*
X171043600Y-52158900D01*
%TO.C,D1*%
X174066200Y-32232600D02*
G75*
G03*
X174066200Y-32232600I-76200J0D01*
G01*
X174739300Y-34820650D02*
X174739300Y-34241950D01*
X173240700Y-34241950D02*
X173240700Y-34820650D01*
%TO.C,D2*%
X178955700Y-34000650D02*
X178955700Y-34579350D01*
X180454300Y-34579350D02*
X180454300Y-34000650D01*
X179781200Y-31991300D02*
G75*
G03*
X179781200Y-31991300I-76200J0D01*
G01*
%TO.C,D3*%
X185496200Y-31991300D02*
G75*
G03*
X185496200Y-31991300I-76200J0D01*
G01*
X186169300Y-34579350D02*
X186169300Y-34000650D01*
X184670700Y-34000650D02*
X184670700Y-34579350D01*
D13*
%TO.C,J1*%
X129030000Y-18990000D02*
X129030000Y-21840000D01*
X131880000Y-18990000D02*
X129030000Y-18990000D01*
X133880000Y-30540000D02*
X132080000Y-30540000D01*
X133880000Y-29140000D02*
X133880000Y-30540000D01*
X134880000Y-29140000D02*
X133880000Y-29140000D01*
X134880000Y-19240000D02*
X134880000Y-29140000D01*
X132080000Y-19240000D02*
X134880000Y-19240000D01*
X130280000Y-30540000D02*
X132080000Y-30540000D01*
X130280000Y-29140000D02*
X130280000Y-30540000D01*
X129280000Y-29140000D02*
X130280000Y-29140000D01*
X129280000Y-19240000D02*
X129280000Y-29140000D01*
X132080000Y-19240000D02*
X129280000Y-19240000D01*
%TO.C,J2*%
X176020000Y-18990000D02*
X176020000Y-21840000D01*
X178870000Y-18990000D02*
X176020000Y-18990000D01*
X180870000Y-30540000D02*
X179070000Y-30540000D01*
X180870000Y-29140000D02*
X180870000Y-30540000D01*
X181870000Y-29140000D02*
X180870000Y-29140000D01*
X181870000Y-19240000D02*
X181870000Y-29140000D01*
X179070000Y-19240000D02*
X181870000Y-19240000D01*
X177270000Y-30540000D02*
X179070000Y-30540000D01*
X177270000Y-29140000D02*
X177270000Y-30540000D01*
X176270000Y-29140000D02*
X177270000Y-29140000D01*
X176270000Y-19240000D02*
X176270000Y-29140000D01*
X179070000Y-19240000D02*
X176270000Y-19240000D01*
%TO.C,J3*%
X148590000Y-19240000D02*
X145790000Y-19240000D01*
X145790000Y-19240000D02*
X145790000Y-29140000D01*
X145790000Y-29140000D02*
X146790000Y-29140000D01*
X146790000Y-29140000D02*
X146790000Y-30540000D01*
X146790000Y-30540000D02*
X148590000Y-30540000D01*
X148590000Y-19240000D02*
X151390000Y-19240000D01*
X151390000Y-19240000D02*
X151390000Y-29140000D01*
X151390000Y-29140000D02*
X150390000Y-29140000D01*
X150390000Y-29140000D02*
X150390000Y-30540000D01*
X150390000Y-30540000D02*
X148590000Y-30540000D01*
X148390000Y-18990000D02*
X145540000Y-18990000D01*
X145540000Y-18990000D02*
X145540000Y-21840000D01*
%TO.C,J4*%
X162750000Y-60130000D02*
X162750000Y-65030000D01*
X162750000Y-65030000D02*
X172650000Y-65030000D01*
X172650000Y-65030000D02*
X172650000Y-61930000D01*
X172650000Y-61930000D02*
X174050000Y-61930000D01*
X174050000Y-61930000D02*
X174050000Y-60130000D01*
X162750000Y-60130000D02*
X162750000Y-55230000D01*
X162750000Y-55230000D02*
X172650000Y-55230000D01*
X172650000Y-55230000D02*
X172650000Y-58330000D01*
X172650000Y-58330000D02*
X174050000Y-58330000D01*
X174050000Y-58330000D02*
X174050000Y-60130000D01*
X162500000Y-62430000D02*
X162500000Y-65280000D01*
X162500000Y-65280000D02*
X165350000Y-65280000D01*
%TO.C,J5*%
X129030000Y-34230000D02*
X129030000Y-37080000D01*
X131880000Y-34230000D02*
X129030000Y-34230000D01*
X135980000Y-45780000D02*
X134180000Y-45780000D01*
X135980000Y-44380000D02*
X135980000Y-45780000D01*
X139080000Y-44380000D02*
X135980000Y-44380000D01*
X139080000Y-34480000D02*
X139080000Y-44380000D01*
X134180000Y-34480000D02*
X139080000Y-34480000D01*
X132380000Y-45780000D02*
X134180000Y-45780000D01*
X132380000Y-44380000D02*
X132380000Y-45780000D01*
X129280000Y-44380000D02*
X132380000Y-44380000D01*
X129280000Y-34480000D02*
X129280000Y-44380000D01*
X134180000Y-34480000D02*
X129280000Y-34480000D01*
%TO.C,J6*%
X142750000Y-65465000D02*
X142750000Y-62615000D01*
X139900000Y-65465000D02*
X142750000Y-65465000D01*
X133700000Y-53915000D02*
X135500000Y-53915000D01*
X133700000Y-55315000D02*
X133700000Y-53915000D01*
X128500000Y-55315000D02*
X133700000Y-55315000D01*
X128500000Y-65215000D02*
X128500000Y-55315000D01*
X135500000Y-65215000D02*
X128500000Y-65215000D01*
X137300000Y-53915000D02*
X135500000Y-53915000D01*
X137300000Y-55315000D02*
X137300000Y-53915000D01*
X142500000Y-55315000D02*
X137300000Y-55315000D01*
X142500000Y-65215000D02*
X142500000Y-55315000D01*
X135500000Y-65215000D02*
X142500000Y-65215000D01*
%TO.C,R1*%
X143420000Y-60357936D02*
X143420000Y-61562064D01*
X146140000Y-60357936D02*
X146140000Y-61562064D01*
%TO.C,R4*%
X165660000Y-42416252D02*
X165660000Y-41893748D01*
X167080000Y-42416252D02*
X167080000Y-41893748D01*
%TO.C,R5*%
X167080000Y-37336252D02*
X167080000Y-36813748D01*
X165660000Y-37336252D02*
X165660000Y-36813748D01*
%TO.C,R7*%
X173280000Y-39353748D02*
X173280000Y-39876252D01*
X174700000Y-39353748D02*
X174700000Y-39876252D01*
%TO.C,R8*%
X178995000Y-39353748D02*
X178995000Y-39876252D01*
X180415000Y-39353748D02*
X180415000Y-39876252D01*
%TO.C,R9*%
X186130000Y-39353748D02*
X186130000Y-39876252D01*
X184710000Y-39353748D02*
X184710000Y-39876252D01*
D14*
%TO.C,U1*%
X155536900Y-36909499D02*
X155790900Y-36909499D01*
X155536900Y-37290499D02*
X155536900Y-36909499D01*
X155790900Y-37290499D02*
X155536900Y-37290499D01*
X155790900Y-36909499D02*
X155790900Y-37290499D01*
X153949400Y-36550600D02*
X150850600Y-36550600D01*
X150850600Y-39649400D02*
X153949400Y-39649400D01*
X152095200Y-36550600D02*
G75*
G03*
X152704800Y-36550600I304800J0D01*
G01*
%TO.C,R3*%
D10*
X147392380Y-44616666D02*
X146916190Y-44950000D01*
X147392380Y-45188095D02*
X146392380Y-45188095D01*
X146392380Y-44807142D01*
X146440000Y-44711904D01*
X146487619Y-44664285D01*
X146582857Y-44616666D01*
X146725714Y-44616666D01*
X146820952Y-44664285D01*
X146868571Y-44711904D01*
X146916190Y-44807142D01*
X146916190Y-45188095D01*
X146392380Y-44283333D02*
X146392380Y-43664285D01*
X146773333Y-43997619D01*
X146773333Y-43854761D01*
X146820952Y-43759523D01*
X146868571Y-43711904D01*
X146963809Y-43664285D01*
X147201904Y-43664285D01*
X147297142Y-43711904D01*
X147344761Y-43759523D01*
X147392380Y-43854761D01*
X147392380Y-44140476D01*
X147344761Y-44235714D01*
X147297142Y-44283333D01*
%TO.C,R2*%
X157297380Y-42711666D02*
X156821190Y-43045000D01*
X157297380Y-43283095D02*
X156297380Y-43283095D01*
X156297380Y-42902142D01*
X156345000Y-42806904D01*
X156392619Y-42759285D01*
X156487857Y-42711666D01*
X156630714Y-42711666D01*
X156725952Y-42759285D01*
X156773571Y-42806904D01*
X156821190Y-42902142D01*
X156821190Y-43283095D01*
X156392619Y-42330714D02*
X156345000Y-42283095D01*
X156297380Y-42187857D01*
X156297380Y-41949761D01*
X156345000Y-41854523D01*
X156392619Y-41806904D01*
X156487857Y-41759285D01*
X156583095Y-41759285D01*
X156725952Y-41806904D01*
X157297380Y-42378333D01*
X157297380Y-41759285D01*
%TO.C,C1*%
X146027142Y-38266666D02*
X146074761Y-38314285D01*
X146122380Y-38457142D01*
X146122380Y-38552380D01*
X146074761Y-38695238D01*
X145979523Y-38790476D01*
X145884285Y-38838095D01*
X145693809Y-38885714D01*
X145550952Y-38885714D01*
X145360476Y-38838095D01*
X145265238Y-38790476D01*
X145170000Y-38695238D01*
X145122380Y-38552380D01*
X145122380Y-38457142D01*
X145170000Y-38314285D01*
X145217619Y-38266666D01*
X146122380Y-37314285D02*
X146122380Y-37885714D01*
X146122380Y-37600000D02*
X145122380Y-37600000D01*
X145265238Y-37695238D01*
X145360476Y-37790476D01*
X145408095Y-37885714D01*
%TO.C,C2*%
X164567142Y-50086666D02*
X164614761Y-50134285D01*
X164662380Y-50277142D01*
X164662380Y-50372380D01*
X164614761Y-50515238D01*
X164519523Y-50610476D01*
X164424285Y-50658095D01*
X164233809Y-50705714D01*
X164090952Y-50705714D01*
X163900476Y-50658095D01*
X163805238Y-50610476D01*
X163710000Y-50515238D01*
X163662380Y-50372380D01*
X163662380Y-50277142D01*
X163710000Y-50134285D01*
X163757619Y-50086666D01*
X163757619Y-49705714D02*
X163710000Y-49658095D01*
X163662380Y-49562857D01*
X163662380Y-49324761D01*
X163710000Y-49229523D01*
X163757619Y-49181904D01*
X163852857Y-49134285D01*
X163948095Y-49134285D01*
X164090952Y-49181904D01*
X164662380Y-49753333D01*
X164662380Y-49134285D01*
%TO.C,C3*%
X179047142Y-49451666D02*
X179094761Y-49499285D01*
X179142380Y-49642142D01*
X179142380Y-49737380D01*
X179094761Y-49880238D01*
X178999523Y-49975476D01*
X178904285Y-50023095D01*
X178713809Y-50070714D01*
X178570952Y-50070714D01*
X178380476Y-50023095D01*
X178285238Y-49975476D01*
X178190000Y-49880238D01*
X178142380Y-49737380D01*
X178142380Y-49642142D01*
X178190000Y-49499285D01*
X178237619Y-49451666D01*
X178142380Y-49118333D02*
X178142380Y-48499285D01*
X178523333Y-48832619D01*
X178523333Y-48689761D01*
X178570952Y-48594523D01*
X178618571Y-48546904D01*
X178713809Y-48499285D01*
X178951904Y-48499285D01*
X179047142Y-48546904D01*
X179094761Y-48594523D01*
X179142380Y-48689761D01*
X179142380Y-48975476D01*
X179094761Y-49070714D01*
X179047142Y-49118333D01*
%TO.C,CR1*%
X168243333Y-53062142D02*
X168195714Y-53109761D01*
X168052857Y-53157380D01*
X167957619Y-53157380D01*
X167814761Y-53109761D01*
X167719523Y-53014523D01*
X167671904Y-52919285D01*
X167624285Y-52728809D01*
X167624285Y-52585952D01*
X167671904Y-52395476D01*
X167719523Y-52300238D01*
X167814761Y-52205000D01*
X167957619Y-52157380D01*
X168052857Y-52157380D01*
X168195714Y-52205000D01*
X168243333Y-52252619D01*
X169243333Y-53157380D02*
X168910000Y-52681190D01*
X168671904Y-53157380D02*
X168671904Y-52157380D01*
X169052857Y-52157380D01*
X169148095Y-52205000D01*
X169195714Y-52252619D01*
X169243333Y-52347857D01*
X169243333Y-52490714D01*
X169195714Y-52585952D01*
X169148095Y-52633571D01*
X169052857Y-52681190D01*
X168671904Y-52681190D01*
X170195714Y-53157380D02*
X169624285Y-53157380D01*
X169910000Y-53157380D02*
X169910000Y-52157380D01*
X169814761Y-52300238D01*
X169719523Y-52395476D01*
X169624285Y-52443095D01*
X168910000Y-47077380D02*
X168910000Y-47315476D01*
X168671904Y-47220238D02*
X168910000Y-47315476D01*
X169148095Y-47220238D01*
X168767142Y-47505952D02*
X168910000Y-47315476D01*
X169052857Y-47505952D01*
%TO.C,D1*%
X176194881Y-35269395D02*
X175194881Y-35269395D01*
X175194881Y-35031300D01*
X175242501Y-34888442D01*
X175337739Y-34793204D01*
X175432977Y-34745585D01*
X175623453Y-34697966D01*
X175766310Y-34697966D01*
X175956786Y-34745585D01*
X176052024Y-34793204D01*
X176147262Y-34888442D01*
X176194881Y-35031300D01*
X176194881Y-35269395D01*
X176194881Y-33745585D02*
X176194881Y-34317014D01*
X176194881Y-34031300D02*
X175194881Y-34031300D01*
X175337739Y-34126538D01*
X175432977Y-34221776D01*
X175480596Y-34317014D01*
%TO.C,D2*%
X181909881Y-34956994D02*
X180909881Y-34956994D01*
X180909881Y-34718899D01*
X180957501Y-34576041D01*
X181052739Y-34480803D01*
X181147977Y-34433184D01*
X181338453Y-34385565D01*
X181481310Y-34385565D01*
X181671786Y-34433184D01*
X181767024Y-34480803D01*
X181862262Y-34576041D01*
X181909881Y-34718899D01*
X181909881Y-34956994D01*
X181005120Y-34004613D02*
X180957501Y-33956994D01*
X180909881Y-33861756D01*
X180909881Y-33623660D01*
X180957501Y-33528422D01*
X181005120Y-33480803D01*
X181100358Y-33433184D01*
X181195596Y-33433184D01*
X181338453Y-33480803D01*
X181909881Y-34052232D01*
X181909881Y-33433184D01*
%TO.C,D3*%
X187624881Y-35028095D02*
X186624881Y-35028095D01*
X186624881Y-34790000D01*
X186672501Y-34647142D01*
X186767739Y-34551904D01*
X186862977Y-34504285D01*
X187053453Y-34456666D01*
X187196310Y-34456666D01*
X187386786Y-34504285D01*
X187482024Y-34551904D01*
X187577262Y-34647142D01*
X187624881Y-34790000D01*
X187624881Y-35028095D01*
X186624881Y-34123333D02*
X186624881Y-33504285D01*
X187005834Y-33837619D01*
X187005834Y-33694761D01*
X187053453Y-33599523D01*
X187101072Y-33551904D01*
X187196310Y-33504285D01*
X187434405Y-33504285D01*
X187529643Y-33551904D01*
X187577262Y-33599523D01*
X187624881Y-33694761D01*
X187624881Y-33980476D01*
X187577262Y-34075714D01*
X187529643Y-34123333D01*
%TO.C,J1*%
X131746666Y-31042380D02*
X131746666Y-31756666D01*
X131699047Y-31899523D01*
X131603809Y-31994761D01*
X131460952Y-32042380D01*
X131365714Y-32042380D01*
X132746666Y-32042380D02*
X132175238Y-32042380D01*
X132460952Y-32042380D02*
X132460952Y-31042380D01*
X132365714Y-31185238D01*
X132270476Y-31280476D01*
X132175238Y-31328095D01*
%TO.C,J2*%
X178736666Y-31042380D02*
X178736666Y-31756666D01*
X178689047Y-31899523D01*
X178593809Y-31994761D01*
X178450952Y-32042380D01*
X178355714Y-32042380D01*
X179165238Y-31137619D02*
X179212857Y-31090000D01*
X179308095Y-31042380D01*
X179546190Y-31042380D01*
X179641428Y-31090000D01*
X179689047Y-31137619D01*
X179736666Y-31232857D01*
X179736666Y-31328095D01*
X179689047Y-31470952D01*
X179117619Y-32042380D01*
X179736666Y-32042380D01*
%TO.C,J3*%
X148256666Y-31042380D02*
X148256666Y-31756666D01*
X148209047Y-31899523D01*
X148113809Y-31994761D01*
X147970952Y-32042380D01*
X147875714Y-32042380D01*
X148637619Y-31042380D02*
X149256666Y-31042380D01*
X148923333Y-31423333D01*
X149066190Y-31423333D01*
X149161428Y-31470952D01*
X149209047Y-31518571D01*
X149256666Y-31613809D01*
X149256666Y-31851904D01*
X149209047Y-31947142D01*
X149161428Y-31994761D01*
X149066190Y-32042380D01*
X148780476Y-32042380D01*
X148685238Y-31994761D01*
X148637619Y-31947142D01*
%TO.C,J4*%
X174552380Y-60463333D02*
X175266666Y-60463333D01*
X175409523Y-60510952D01*
X175504761Y-60606190D01*
X175552380Y-60749047D01*
X175552380Y-60844285D01*
X174885714Y-59558571D02*
X175552380Y-59558571D01*
X174504761Y-59796666D02*
X175219047Y-60034761D01*
X175219047Y-59415714D01*
%TO.C,J5*%
X133846666Y-46282380D02*
X133846666Y-46996666D01*
X133799047Y-47139523D01*
X133703809Y-47234761D01*
X133560952Y-47282380D01*
X133465714Y-47282380D01*
X134799047Y-46282380D02*
X134322857Y-46282380D01*
X134275238Y-46758571D01*
X134322857Y-46710952D01*
X134418095Y-46663333D01*
X134656190Y-46663333D01*
X134751428Y-46710952D01*
X134799047Y-46758571D01*
X134846666Y-46853809D01*
X134846666Y-47091904D01*
X134799047Y-47187142D01*
X134751428Y-47234761D01*
X134656190Y-47282380D01*
X134418095Y-47282380D01*
X134322857Y-47234761D01*
X134275238Y-47187142D01*
%TO.C,J6*%
X135166666Y-52317380D02*
X135166666Y-53031666D01*
X135119047Y-53174523D01*
X135023809Y-53269761D01*
X134880952Y-53317380D01*
X134785714Y-53317380D01*
X136071428Y-52317380D02*
X135880952Y-52317380D01*
X135785714Y-52365000D01*
X135738095Y-52412619D01*
X135642857Y-52555476D01*
X135595238Y-52745952D01*
X135595238Y-53126904D01*
X135642857Y-53222142D01*
X135690476Y-53269761D01*
X135785714Y-53317380D01*
X135976190Y-53317380D01*
X136071428Y-53269761D01*
X136119047Y-53222142D01*
X136166666Y-53126904D01*
X136166666Y-52888809D01*
X136119047Y-52793571D01*
X136071428Y-52745952D01*
X135976190Y-52698333D01*
X135785714Y-52698333D01*
X135690476Y-52745952D01*
X135642857Y-52793571D01*
X135595238Y-52888809D01*
%TO.C,R1*%
X147512380Y-61126666D02*
X147036190Y-61460000D01*
X147512380Y-61698095D02*
X146512380Y-61698095D01*
X146512380Y-61317142D01*
X146560000Y-61221904D01*
X146607619Y-61174285D01*
X146702857Y-61126666D01*
X146845714Y-61126666D01*
X146940952Y-61174285D01*
X146988571Y-61221904D01*
X147036190Y-61317142D01*
X147036190Y-61698095D01*
X147512380Y-60174285D02*
X147512380Y-60745714D01*
X147512380Y-60460000D02*
X146512380Y-60460000D01*
X146655238Y-60555238D01*
X146750476Y-60650476D01*
X146798095Y-60745714D01*
%TO.C,R4*%
X165172380Y-42321666D02*
X164696190Y-42655000D01*
X165172380Y-42893095D02*
X164172380Y-42893095D01*
X164172380Y-42512142D01*
X164220000Y-42416904D01*
X164267619Y-42369285D01*
X164362857Y-42321666D01*
X164505714Y-42321666D01*
X164600952Y-42369285D01*
X164648571Y-42416904D01*
X164696190Y-42512142D01*
X164696190Y-42893095D01*
X164505714Y-41464523D02*
X165172380Y-41464523D01*
X164124761Y-41702619D02*
X164839047Y-41940714D01*
X164839047Y-41321666D01*
%TO.C,R5*%
X168727380Y-36996666D02*
X168251190Y-37330000D01*
X168727380Y-37568095D02*
X167727380Y-37568095D01*
X167727380Y-37187142D01*
X167775000Y-37091904D01*
X167822619Y-37044285D01*
X167917857Y-36996666D01*
X168060714Y-36996666D01*
X168155952Y-37044285D01*
X168203571Y-37091904D01*
X168251190Y-37187142D01*
X168251190Y-37568095D01*
X167727380Y-36091904D02*
X167727380Y-36568095D01*
X168203571Y-36615714D01*
X168155952Y-36568095D01*
X168108333Y-36472857D01*
X168108333Y-36234761D01*
X168155952Y-36139523D01*
X168203571Y-36091904D01*
X168298809Y-36044285D01*
X168536904Y-36044285D01*
X168632142Y-36091904D01*
X168679761Y-36139523D01*
X168727380Y-36234761D01*
X168727380Y-36472857D01*
X168679761Y-36568095D01*
X168632142Y-36615714D01*
%TO.C,R7*%
X176092380Y-39781666D02*
X175616190Y-40115000D01*
X176092380Y-40353095D02*
X175092380Y-40353095D01*
X175092380Y-39972142D01*
X175140000Y-39876904D01*
X175187619Y-39829285D01*
X175282857Y-39781666D01*
X175425714Y-39781666D01*
X175520952Y-39829285D01*
X175568571Y-39876904D01*
X175616190Y-39972142D01*
X175616190Y-40353095D01*
X175092380Y-39448333D02*
X175092380Y-38781666D01*
X176092380Y-39210238D01*
%TO.C,R8*%
X181807380Y-39781666D02*
X181331190Y-40115000D01*
X181807380Y-40353095D02*
X180807380Y-40353095D01*
X180807380Y-39972142D01*
X180855000Y-39876904D01*
X180902619Y-39829285D01*
X180997857Y-39781666D01*
X181140714Y-39781666D01*
X181235952Y-39829285D01*
X181283571Y-39876904D01*
X181331190Y-39972142D01*
X181331190Y-40353095D01*
X181235952Y-39210238D02*
X181188333Y-39305476D01*
X181140714Y-39353095D01*
X181045476Y-39400714D01*
X180997857Y-39400714D01*
X180902619Y-39353095D01*
X180855000Y-39305476D01*
X180807380Y-39210238D01*
X180807380Y-39019761D01*
X180855000Y-38924523D01*
X180902619Y-38876904D01*
X180997857Y-38829285D01*
X181045476Y-38829285D01*
X181140714Y-38876904D01*
X181188333Y-38924523D01*
X181235952Y-39019761D01*
X181235952Y-39210238D01*
X181283571Y-39305476D01*
X181331190Y-39353095D01*
X181426428Y-39400714D01*
X181616904Y-39400714D01*
X181712142Y-39353095D01*
X181759761Y-39305476D01*
X181807380Y-39210238D01*
X181807380Y-39019761D01*
X181759761Y-38924523D01*
X181712142Y-38876904D01*
X181616904Y-38829285D01*
X181426428Y-38829285D01*
X181331190Y-38876904D01*
X181283571Y-38924523D01*
X181235952Y-39019761D01*
%TO.C,R9*%
X187522380Y-39781666D02*
X187046190Y-40115000D01*
X187522380Y-40353095D02*
X186522380Y-40353095D01*
X186522380Y-39972142D01*
X186570000Y-39876904D01*
X186617619Y-39829285D01*
X186712857Y-39781666D01*
X186855714Y-39781666D01*
X186950952Y-39829285D01*
X186998571Y-39876904D01*
X187046190Y-39972142D01*
X187046190Y-40353095D01*
X187522380Y-39305476D02*
X187522380Y-39115000D01*
X187474761Y-39019761D01*
X187427142Y-38972142D01*
X187284285Y-38876904D01*
X187093809Y-38829285D01*
X186712857Y-38829285D01*
X186617619Y-38876904D01*
X186570000Y-38924523D01*
X186522380Y-39019761D01*
X186522380Y-39210238D01*
X186570000Y-39305476D01*
X186617619Y-39353095D01*
X186712857Y-39400714D01*
X186950952Y-39400714D01*
X187046190Y-39353095D01*
X187093809Y-39305476D01*
X187141428Y-39210238D01*
X187141428Y-39019761D01*
X187093809Y-38924523D01*
X187046190Y-38876904D01*
X186950952Y-38829285D01*
%TO.C,U1*%
X151638095Y-35012380D02*
X151638095Y-35821904D01*
X151685714Y-35917142D01*
X151733333Y-35964761D01*
X151828571Y-36012380D01*
X152019047Y-36012380D01*
X152114285Y-35964761D01*
X152161904Y-35917142D01*
X152209523Y-35821904D01*
X152209523Y-35012380D01*
X153209523Y-36012380D02*
X152638095Y-36012380D01*
X152923809Y-36012380D02*
X152923809Y-35012380D01*
X152828571Y-35155238D01*
X152733333Y-35250476D01*
X152638095Y-35298095D01*
X150050500Y-35129980D02*
X150050500Y-35368076D01*
X149812404Y-35272838D02*
X150050500Y-35368076D01*
X150288595Y-35272838D01*
X149907642Y-35558552D02*
X150050500Y-35368076D01*
X150193357Y-35558552D01*
X150050500Y-35129980D02*
X150050500Y-35368076D01*
X149812404Y-35272838D02*
X150050500Y-35368076D01*
X150288595Y-35272838D01*
X149907642Y-35558552D02*
X150050500Y-35368076D01*
X150193357Y-35558552D01*
%TO.C,H1*%
X123063095Y-19177380D02*
X123063095Y-18177380D01*
X123063095Y-18653571D02*
X123634523Y-18653571D01*
X123634523Y-19177380D02*
X123634523Y-18177380D01*
X124634523Y-19177380D02*
X124063095Y-19177380D01*
X124348809Y-19177380D02*
X124348809Y-18177380D01*
X124253571Y-18320238D01*
X124158333Y-18415476D01*
X124063095Y-18463095D01*
%TO.C,H2*%
X123063095Y-66802380D02*
X123063095Y-65802380D01*
X123063095Y-66278571D02*
X123634523Y-66278571D01*
X123634523Y-66802380D02*
X123634523Y-65802380D01*
X124063095Y-65897619D02*
X124110714Y-65850000D01*
X124205952Y-65802380D01*
X124444047Y-65802380D01*
X124539285Y-65850000D01*
X124586904Y-65897619D01*
X124634523Y-65992857D01*
X124634523Y-66088095D01*
X124586904Y-66230952D01*
X124015476Y-66802380D01*
X124634523Y-66802380D01*
%TO.C,H3*%
X199898095Y-19177380D02*
X199898095Y-18177380D01*
X199898095Y-18653571D02*
X200469523Y-18653571D01*
X200469523Y-19177380D02*
X200469523Y-18177380D01*
X200850476Y-18177380D02*
X201469523Y-18177380D01*
X201136190Y-18558333D01*
X201279047Y-18558333D01*
X201374285Y-18605952D01*
X201421904Y-18653571D01*
X201469523Y-18748809D01*
X201469523Y-18986904D01*
X201421904Y-19082142D01*
X201374285Y-19129761D01*
X201279047Y-19177380D01*
X200993333Y-19177380D01*
X200898095Y-19129761D01*
X200850476Y-19082142D01*
%TO.C,H4*%
X199898095Y-66802380D02*
X199898095Y-65802380D01*
X199898095Y-66278571D02*
X200469523Y-66278571D01*
X200469523Y-66802380D02*
X200469523Y-65802380D01*
X201374285Y-66135714D02*
X201374285Y-66802380D01*
X201136190Y-65754761D02*
X200898095Y-66469047D01*
X201517142Y-66469047D01*
%TD*%
M02*
