M48
; DRILL file {KiCad (5.1.6)-1} date 02/09/21 19:00:41
; FORMAT={-:-/ absolute / inch / decimal}
; #@! TF.CreationDate,2021-02-09T19:00:41-05:00
; #@! TF.GenerationSoftware,Kicad,Pcbnew,(5.1.6)-1
; #@! TF.FileFunction,Plated,1,2,PTH
FMAT,2
INCH
T1C0.0157
T2C0.0197
T3C0.0300
T4C0.0315
T5C0.0394
T6C0.0433
T7C0.0472
T8C0.0512
T9C0.0550
T10C0.0551
T11C0.0630
T12C0.0870
T13C0.1319
T14C0.1378
%
G90
G05
T1
X4.1355Y-4.0146
X4.2425Y-3.948
X4.244Y-7.141
X4.2493Y-2.6184
X4.4355Y-2.4259
X4.4355Y-3.5204
X4.4759Y-3.3944
X4.4765Y-2.3085
X4.4765Y-3.948
X4.5407Y-4.533
X4.5695Y-2.881
X4.5695Y-4.275
X4.5695Y-4.8355
X4.5695Y-5.2665
X4.624Y-7.541
X4.6408Y-2.3791
X4.6408Y-2.5683
X4.657Y-3.1725
X4.657Y-4.9305
X4.6577Y-5.4256
X4.658Y-5.118
X4.704Y-7.621
X4.7245Y-2.793
X4.7275Y-2.725
X4.7615Y-2.581
X4.7936Y-4.0146
X4.7936Y-4.595
X4.8389Y-4.2054
X4.8389Y-4.6455
X4.8399Y-2.2341
X4.8725Y-4.982
X4.904Y-7.481
X4.922Y-2.27
X4.938Y-4.982
X4.9473Y-3.8776
X4.9483Y-3.3383
X4.9639Y-2.335
X4.9835Y-4.275
X5.0249Y-3.0996
X5.0249Y-3.78
X5.0256Y-2.3791
X5.0256Y-2.9389
X5.1275Y-5.845
X5.144Y-8.501
X5.19Y-2.73
X5.21Y-3.18
X5.3295Y-3.467
X5.3329Y-2.5916
X5.34Y-6.78
X5.37Y-6.39
X5.3883Y-2.4259
X5.3883Y-2.6542
X5.4877Y-5.2015
X5.4877Y-5.8156
X5.504Y-6.801
X5.511Y-6.179
X5.5321Y-3.1541
X5.5321Y-3.467
X5.5379Y-5.981
X5.5703Y-2.4721
X5.5772Y-4.4396
X5.5772Y-4.7044
X5.604Y-7.141
X5.6443Y-2.4683
X5.6443Y-2.5556
X5.649Y-3.8175
X5.656Y-2.6463
X5.662Y-2.766
X5.669Y-6.3885
X5.6819Y-6.0381
X5.704Y-7.681
X5.73Y-3.07
X5.7348Y-3.467
X5.7859Y-2.9022
X5.8355Y-4.5337
X5.9158Y-6.1828
X5.9158Y-6.3206
X5.9552Y-2.6253
X6.0Y-4.325
X6.0Y-4.772
X6.0155Y-7.141
X6.064Y-6.3885
X6.075Y-5.975
X6.084Y-6.781
X6.084Y-7.141
X6.1324Y-2.5223
X6.152Y-6.144
X6.162Y-6.02
X6.171Y-6.924
X6.2642Y-2.8373
X6.267Y-7.2205
X6.267Y-7.4865
X6.2682Y-3.0066
X6.2908Y-5.8156
X6.297Y-6.1112
X6.297Y-6.3149
X6.3066Y-4.0833
X6.3066Y-4.6001
X6.3206Y-2.6759
X6.3206Y-3.227
X6.3243Y-4.7044
X6.3243Y-5.5942
X6.35Y-5.8
X6.3755Y-2.4259
X6.3892Y-2.6293
X6.3892Y-3.467
X6.3892Y-3.7513
X6.412Y-5.908
X6.421Y-6.315
X6.4424Y-4.6455
X6.444Y-3.907
X6.444Y-4.2385
X6.4601Y-2.8944
X6.4601Y-3.3137
X6.5086Y-5.5942
X6.5556Y-2.4259
X6.5676Y-3.6245
X6.5682Y-4.428
X6.689Y-4.805
X6.7995Y-5.699
X6.8764Y-2.5816
X6.8764Y-2.727
X6.884Y-7.141
X7.005Y-4.244
X7.005Y-4.6465
X7.0201Y-2.7487
X7.0201Y-3.0026
X7.0735Y-6.201
X7.104Y-7.941
X7.1119Y-2.5339
X7.1119Y-2.9534
X7.1119Y-3.1985
X7.1575Y-7.7095
X7.1664Y-3.2591
X7.17Y-7.48
X7.2066Y-2.5849
X7.2386Y-2.8353
X7.2386Y-3.1541
X7.3203Y-4.0833
X7.3735Y-2.9633
X7.3735Y-3.1611
X7.38Y-2.74
X7.4473Y-3.3176
X7.4815Y-6.133
X7.5Y-7.2
X7.5261Y-2.8845
X7.5261Y-3.0026
X7.544Y-7.481
X7.544Y-8.201
X7.555Y-5.862
X7.569Y-3.5695
X7.5821Y-4.869
X7.584Y-7.4125
X7.5895Y-5.4574
X7.5895Y-5.699
X7.624Y-8.281
X7.64Y-7.3554
X7.6983Y-2.919
X7.6983Y-3.3383
X7.71Y-7.9
X7.7411Y-2.8702
X7.7411Y-3.3732
X7.7695Y-4.793
X7.7785Y-3.6134
X7.7843Y-2.769
X7.7895Y-2.269
X7.79Y-2.408
X7.8215Y-2.969
X7.8215Y-3.3034
X7.8794Y-3.6965
X7.924Y-6.921
X7.9757Y-2.619
X7.9798Y-4.0036
X8.0Y-7.25
X8.0017Y-5.9467
X8.004Y-7.481
X8.0122Y-4.869
X8.0122Y-5.3668
X8.03Y-7.55
X8.064Y-2.368
X8.064Y-2.468
X8.084Y-7.5654
X8.1007Y-2.719
X8.1165Y-5.082
X8.1165Y-5.5235
X8.1517Y-7.2087
X8.1589Y-2.8176
X8.1589Y-3.1985
X8.164Y-7.061
X8.1822Y-7.2783
X8.1822Y-7.3628
X8.1851Y-7.7861
X8.1851Y-7.9526
X8.196Y-3.168
X8.204Y-5.228
X8.204Y-8.041
X8.224Y-7.441
X8.2554Y-2.2664
X8.2873Y-3.4755
X8.304Y-7.441
X8.304Y-7.641
X8.314Y-5.712
X8.314Y-6.321
X8.3371Y-2.4692
X8.3371Y-3.4091
X8.3734Y-2.9691
X8.3734Y-3.2591
X8.419Y-6.3885
X8.42Y-2.84
X8.42Y-6.76
X8.424Y-7.681
X8.425Y-5.1473
X8.425Y-6.1719
X8.4432Y-3.119
X8.47Y-7.434
X8.4745Y-7.891
X8.4883Y-7.5898
X8.5Y-7.16
X8.5075Y-5.309
X8.5075Y-6.201
X8.5268Y-4.434
X8.5268Y-4.6863
X8.584Y-7.741
X8.6001Y-7.4411
X8.6001Y-7.601
X8.6018Y-3.0873
X8.61Y-7.95
X8.6108Y-7.6699
X8.6705Y-7.0975
X8.684Y-7.561
X8.69Y-4.7915
X8.7829Y-2.4879
X8.7829Y-2.5814
X8.7829Y-2.92
X8.784Y-7.681
X8.7928Y-4.9703
X8.795Y-5.309
X8.8174Y-4.2044
X8.842Y-3.1631
X8.8455Y-8.019
X8.875Y-5.2
X8.884Y-7.661
X8.9Y-4.4715
X8.904Y-7.281
X8.924Y-6.801
X8.95Y-5.8
X8.95Y-5.975
X8.969Y-6.301
X8.98Y-7.58
X8.9865Y-4.1655
X9.0105Y-2.7761
X9.09Y-7.19
X9.1107Y-3.7015
X9.1136Y-4.231
X9.164Y-7.481
X9.18Y-5.682
X9.1885Y-2.4555
X9.1885Y-4.434
X9.204Y-7.361
X9.2338Y-6.3778
X9.2353Y-6.2172
X9.255Y-3.4755
X9.255Y-4.1891
X9.2564Y-2.5548
X9.2564Y-3.227
X9.275Y-5.525
X9.275Y-5.85
X9.3088Y-2.3562
X9.3088Y-2.618
X9.3088Y-2.8361
X9.3125Y-4.87
X9.3125Y-5.096
X9.3136Y-7.921
X9.3313Y-5.4563
X9.3313Y-5.6809
X9.3325Y-3.768
X9.3325Y-4.67
X9.344Y-7.421
X9.384Y-7.541
X9.3842Y-7.6008
X9.3892Y-2.7293
X9.3892Y-2.8963
X9.3892Y-3.104
X9.3892Y-3.4446
X9.3892Y-5.4918
X9.3962Y-5.6061
X9.3962Y-6.1943
X9.402Y-2.5381
X9.403Y-2.6355
X9.404Y-7.421
X9.4475Y-7.5429
X9.452Y-6.0335
X9.4532Y-2.981
X9.4532Y-5.5597
X9.4583Y-2.404
X9.4611Y-7.3781
X9.464Y-7.5072
X9.4815Y-6.063
X9.484Y-7.061
X9.4916Y-5.2369
X9.504Y-7.301
X9.5201Y-3.081
X9.5201Y-5.1473
X9.524Y-7.521
X9.524Y-7.661
X9.5288Y-2.5944
X9.5288Y-2.775
X9.54Y-5.9915
X9.544Y-6.741
X9.5442Y-6.166
X9.5442Y-6.2888
X9.5448Y-5.4918
X9.58Y-5.5385
X9.58Y-5.6435
X9.5823Y-6.8793
X9.5959Y-2.6355
X9.599Y-6.3275
X9.624Y-6.921
X9.6465Y-6.356
X9.6611Y-7.3781
X9.6662Y-2.5026
X9.6747Y-2.5991
X9.6747Y-2.7625
X9.6853Y-7.2725
X9.699Y-6.341
X9.73Y-7.05
X9.74Y-5.78
X9.804Y-7.561
X9.9109Y-3.6089
X9.9109Y-5.0066
X9.954Y-5.372
X10.008Y-5.806
X10.0221Y-5.6601
X10.0224Y-2.6761
X10.084Y-7.441
X10.092Y-4.4918
X10.0928Y-5.4337
X10.104Y-8.341
X10.1085Y-3.632
X10.1085Y-3.768
X10.1638Y-5.2369
X10.1638Y-5.2369
X10.1668Y-2.3703
X10.1985Y-5.7585
X10.204Y-7.841
X10.228Y-2.295
X10.228Y-2.7715
X10.2308Y-2.9013
X10.2308Y-4.8934
X10.2325Y-6.017
X10.244Y-7.661
X10.27Y-5.77
X10.2755Y-5.092
X10.2755Y-5.247
X10.2995Y-2.264
X10.2995Y-2.582
X10.304Y-7.6355
X10.304Y-7.6895
X10.3253Y-3.0243
X10.3253Y-4.4918
X10.3861Y-4.591
X10.3861Y-4.7612
X10.39Y-5.75
X10.3937Y-5.4337
X10.4079Y-7.481
X10.4389Y-3.3034
X10.496Y-7.6895
X10.5059Y-3.3732
X10.5059Y-3.8663
X10.52Y-7.84
X10.5526Y-3.3383
X10.5526Y-3.6798
X10.5812Y-4.67
X10.6031Y-2.7711
X10.6031Y-3.481
X10.6475Y-4.3928
X10.654Y-5.8274
X10.692Y-5.2129
X10.7105Y-3.5674
X10.78Y-4.606
X10.7973Y-5.8122
X10.878Y-5.64
X10.8785Y-3.179
X10.8873Y-5.0066
X10.888Y-2.681
X10.9545Y-3.632
X10.96Y-3.56
X11.101Y-3.793
X11.1353Y-4.7064
X11.1979Y-4.3504
X11.2682Y-5.8471
X11.2877Y-4.0248
X11.3587Y-4.3491
X11.4025Y-3.9256
X11.406Y-6.126
X11.4197Y-5.7344
X11.6325Y-3.753
X11.6325Y-4.1704
X11.6337Y-4.4134
X11.6415Y-2.781
X11.7462Y-2.8897
T2
X4.0135Y-6.273
X10.004Y-8.421
X10.784Y-8.421
X10.784Y-7.921
X9.984Y-8.141
X10.744Y-8.141
X10.024Y-7.921
T3
X10.644Y-6.061
X10.644Y-7.051
X10.644Y-7.151
X11.244Y-6.061
X11.244Y-7.151
T4
X8.764Y-8.441
X8.864Y-8.441
X8.964Y-8.441
T5
X7.444Y-8.361
X7.444Y-8.461
X9.8915Y-6.0735
X9.9915Y-6.0735
X10.0915Y-6.0735
X4.1275Y-2.751
X4.1275Y-2.851
X9.1935Y-4.67
X9.1935Y-4.77
X9.1935Y-4.87
X9.1935Y-4.97
X4.8389Y-3.081
X4.8399Y-2.581
X4.8399Y-2.681
X4.8399Y-2.781
X4.8399Y-2.881
X4.8399Y-2.981
X5.038Y-4.008
X5.038Y-4.108
X11.233Y-3.4075
X11.233Y-3.5075
X6.194Y-8.181
X6.194Y-8.281
X6.194Y-8.381
X11.0501Y-2.581
X11.0501Y-2.681
X11.0501Y-2.881
X11.0501Y-2.981
X11.0501Y-3.081
X11.0511Y-2.781
X5.344Y-3.906
X5.344Y-4.006
X5.344Y-4.106
X5.344Y-4.206
X4.144Y-7.231
X4.144Y-7.531
X7.944Y-8.361
X7.944Y-8.461
T6
X6.2485Y-3.3245
X6.2485Y-3.6245
X6.1068Y-4.1209
X6.1068Y-4.4209
X6.634Y-7.991
X6.934Y-7.991
X8.174Y-8.151
X8.474Y-8.151
X5.894Y-6.831
X5.894Y-7.131
T7
X10.6534Y-7.481
X11.244Y-7.481
X4.544Y-7.531
X4.844Y-7.531
T8
X4.1924Y-6.9806
X4.4956Y-6.1814
X4.594Y-6.9806
X4.6964Y-6.1814
X4.9956Y-6.1814
X4.9956Y-6.9806
X9.7627Y-4.091
X9.7627Y-4.3902
X9.7627Y-4.591
X10.5619Y-4.091
X10.5619Y-4.4926
X10.5619Y-4.8942
X10.692Y-5.1316
X10.692Y-5.604
X11.1369Y-5.1316
X11.1369Y-5.604
X11.2156Y-5.3678
T9
X6.578Y-3.4755
X6.578Y-3.8755
X7.128Y-3.4755
X7.128Y-3.8755
X7.3285Y-3.4755
X7.3285Y-3.8755
X7.7785Y-3.4755
X7.7785Y-3.8755
X7.9785Y-3.4755
X7.9785Y-3.8755
X6.569Y-4.2385
X6.569Y-4.6385
X7.119Y-4.2385
X7.119Y-4.6385
X7.3195Y-4.2385
X7.3195Y-4.6385
X7.7695Y-4.2385
X7.7695Y-4.6385
X7.9695Y-4.2385
X7.9695Y-4.6385
T10
X4.1355Y-4.9339
X4.1355Y-5.0993
X4.1355Y-5.2646
X4.1355Y-5.43
X4.352Y-4.9339
X4.352Y-5.0993
X4.352Y-5.2646
X4.352Y-5.43
X11.5297Y-3.355
X11.5297Y-3.5204
X11.7462Y-3.355
X11.7462Y-3.5204
X11.5297Y-4.555
X11.5297Y-4.7204
X11.5297Y-4.8857
X11.7462Y-4.555
X11.7462Y-4.7204
X11.7462Y-4.8857
X5.6701Y-4.0045
X5.6701Y-4.221
X5.8355Y-4.0045
X5.8355Y-4.221
X5.084Y-8.081
X5.084Y-8.2975
X5.2494Y-8.081
X5.2494Y-8.2975
X5.4147Y-8.081
X5.4147Y-8.2975
X5.5801Y-8.081
X5.5801Y-8.2975
X7.8345Y-5.025
X7.8345Y-5.2415
X7.0715Y-5.8616
X7.0715Y-6.027
X7.288Y-5.8616
X7.288Y-6.027
X4.1355Y-3.4493
X4.1355Y-3.6146
X4.1355Y-3.78
X4.352Y-3.4493
X4.352Y-3.6146
X4.352Y-3.78
X6.6675Y-8.341
X6.884Y-8.341
X11.7255Y-5.9675
X11.7255Y-6.184
X8.174Y-8.401
X8.3905Y-8.401
X11.5297Y-5.455
X11.5297Y-5.6204
X11.7462Y-5.455
X11.7462Y-5.6204
X11.5297Y-4.005
X11.5297Y-4.1704
X11.7462Y-4.005
X11.7462Y-4.1704
X4.1355Y-4.1089
X4.1355Y-4.2743
X4.1355Y-4.4396
X4.1355Y-4.605
X4.352Y-4.1089
X4.352Y-4.2743
X4.352Y-4.4396
X4.352Y-4.605
X8.6Y-5.708
X8.6Y-5.9245
X8.7654Y-5.708
X8.7654Y-5.9245
X4.1355Y-5.7506
X4.1355Y-5.916
X4.352Y-5.7506
X4.352Y-5.916
X8.3135Y-3.9879
X8.3135Y-4.2044
X8.4788Y-3.9879
X8.4788Y-4.2044
T11
X5.373Y-4.9067
X5.373Y-5.2067
X5.373Y-5.5067
X7.373Y-5.0575
X7.373Y-5.2075
X7.373Y-5.3575
T12
X7.373Y-4.9075
X7.373Y-5.5075
T13
X11.024Y-7.8745
X11.024Y-8.141
X11.024Y-8.4075
T14
X11.6384Y-8.2759
X4.2486Y-2.3861
X11.6384Y-2.3861
X4.2486Y-8.2759
T0
M30
