%TF.GenerationSoftware,KiCad,Pcbnew,(5.1.6)-1*%
%TF.CreationDate,2021-02-09T19:00:34-05:00*%
%TF.ProjectId,TSI_Rev.5,5453495f-5265-4762-9e35-2e6b69636164,rev?*%
%TF.SameCoordinates,Original*%
%TF.FileFunction,Soldermask,Top*%
%TF.FilePolarity,Negative*%
%FSLAX46Y46*%
G04 Gerber Fmt 4.6, Leading zero omitted, Abs format (unit mm)*
G04 Created by KiCad (PCBNEW (5.1.6)-1) date 2021-02-09 19:00:34*
%MOMM*%
%LPD*%
G01*
G04 APERTURE LIST*
%ADD10C,2.000000*%
%ADD11R,2.000000X2.000000*%
%ADD12R,0.762000X1.270000*%
%ADD13R,1.270000X0.762000*%
%ADD14R,0.850000X0.850000*%
%ADD15O,1.700000X1.700000*%
%ADD16R,1.700000X1.700000*%
%ADD17R,2.800000X2.800000*%
%ADD18C,2.800000*%
%ADD19R,0.600000X1.900000*%
%ADD20R,0.410000X1.470000*%
%ADD21C,1.905000*%
%ADD22R,6.090000X5.630000*%
%ADD23R,2.830000X0.970000*%
%ADD24R,1.900000X0.600000*%
%ADD25C,1.778000*%
%ADD26R,1.778000X1.778000*%
%ADD27C,3.000000*%
%ADD28C,2.400000*%
%ADD29R,0.900000X1.200000*%
%ADD30R,2.200000X2.200000*%
%ADD31O,2.200000X2.200000*%
%ADD32R,0.590000X1.210000*%
%ADD33C,5.500000*%
%ADD34R,0.760000X5.000000*%
%ADD35R,8.800000X4.500000*%
%ADD36R,1.800000X1.800000*%
%ADD37C,1.800000*%
%ADD38C,2.200000*%
%ADD39C,1.808000*%
%ADD40C,3.226000*%
%ADD41R,2.400000X2.400000*%
%ADD42R,1.000000X1.400000*%
%ADD43R,0.900000X0.800000*%
%ADD44R,1.400000X1.000000*%
%ADD45R,1.240000X0.590000*%
%ADD46C,1.440000*%
%ADD47R,1.210000X0.580000*%
%ADD48R,1.422400X0.533400*%
%ADD49R,0.590000X1.800000*%
%ADD50R,0.533400X1.422400*%
%ADD51R,3.190000X1.760000*%
%ADD52R,0.920000X1.760000*%
%ADD53C,7.000000*%
%ADD54R,1.470000X0.280000*%
%ADD55R,1.190000X0.400000*%
%ADD56R,1.200000X0.900000*%
G04 APERTURE END LIST*
D10*
%TO.C,PS1*%
X126887600Y-157007400D03*
X126887600Y-177307400D03*
X116687600Y-177307400D03*
X106487600Y-177307400D03*
X119287600Y-157007400D03*
D11*
X114187600Y-157007400D03*
%TD*%
D12*
%TO.C,RV4*%
X253796800Y-63754000D03*
G36*
G01*
X248640600Y-62407800D02*
X248640600Y-62814200D01*
G75*
G02*
X248437400Y-63017400I-203200J0D01*
G01*
X247573800Y-63017400D01*
G75*
G02*
X247370600Y-62814200I0J203200D01*
G01*
X247370600Y-62407800D01*
G75*
G02*
X247573800Y-62204600I203200J0D01*
G01*
X248437400Y-62204600D01*
G75*
G02*
X248640600Y-62407800I0J-203200D01*
G01*
G37*
G36*
G01*
X248640600Y-64693800D02*
X248640600Y-65100200D01*
G75*
G02*
X248437400Y-65303400I-203200J0D01*
G01*
X247573800Y-65303400D01*
G75*
G02*
X247370600Y-65100200I0J203200D01*
G01*
X247370600Y-64693800D01*
G75*
G02*
X247573800Y-64490600I203200J0D01*
G01*
X248437400Y-64490600D01*
G75*
G02*
X248640600Y-64693800I0J-203200D01*
G01*
G37*
%TD*%
D13*
%TO.C,RV5*%
X169976800Y-186232800D03*
G36*
G01*
X168630600Y-191389000D02*
X169037000Y-191389000D01*
G75*
G02*
X169240200Y-191592200I0J-203200D01*
G01*
X169240200Y-192455800D01*
G75*
G02*
X169037000Y-192659000I-203200J0D01*
G01*
X168630600Y-192659000D01*
G75*
G02*
X168427400Y-192455800I0J203200D01*
G01*
X168427400Y-191592200D01*
G75*
G02*
X168630600Y-191389000I203200J0D01*
G01*
G37*
G36*
G01*
X170916600Y-191389000D02*
X171323000Y-191389000D01*
G75*
G02*
X171526200Y-191592200I0J-203200D01*
G01*
X171526200Y-192455800D01*
G75*
G02*
X171323000Y-192659000I-203200J0D01*
G01*
X170916600Y-192659000D01*
G75*
G02*
X170713400Y-192455800I0J203200D01*
G01*
X170713400Y-191592200D01*
G75*
G02*
X170916600Y-191389000I203200J0D01*
G01*
G37*
%TD*%
%TO.C,C13*%
G36*
G01*
X123358400Y-139820400D02*
X125358400Y-139820400D01*
G75*
G02*
X125608400Y-140070400I0J-250000D01*
G01*
X125608400Y-143570400D01*
G75*
G02*
X125358400Y-143820400I-250000J0D01*
G01*
X123358400Y-143820400D01*
G75*
G02*
X123108400Y-143570400I0J250000D01*
G01*
X123108400Y-140070400D01*
G75*
G02*
X123358400Y-139820400I250000J0D01*
G01*
G37*
G36*
G01*
X123358400Y-131820400D02*
X125358400Y-131820400D01*
G75*
G02*
X125608400Y-132070400I0J-250000D01*
G01*
X125608400Y-135570400D01*
G75*
G02*
X125358400Y-135820400I-250000J0D01*
G01*
X123358400Y-135820400D01*
G75*
G02*
X123108400Y-135570400I0J250000D01*
G01*
X123108400Y-132070400D01*
G75*
G02*
X123358400Y-131820400I250000J0D01*
G01*
G37*
%TD*%
%TO.C,C57*%
G36*
G01*
X207880799Y-128507800D02*
X208780801Y-128507800D01*
G75*
G02*
X209030800Y-128757799I0J-249999D01*
G01*
X209030800Y-129407801D01*
G75*
G02*
X208780801Y-129657800I-249999J0D01*
G01*
X207880799Y-129657800D01*
G75*
G02*
X207630800Y-129407801I0J249999D01*
G01*
X207630800Y-128757799D01*
G75*
G02*
X207880799Y-128507800I249999J0D01*
G01*
G37*
G36*
G01*
X207880799Y-130557800D02*
X208780801Y-130557800D01*
G75*
G02*
X209030800Y-130807799I0J-249999D01*
G01*
X209030800Y-131457801D01*
G75*
G02*
X208780801Y-131707800I-249999J0D01*
G01*
X207880799Y-131707800D01*
G75*
G02*
X207630800Y-131457801I0J249999D01*
G01*
X207630800Y-130807799D01*
G75*
G02*
X207880799Y-130557800I249999J0D01*
G01*
G37*
%TD*%
D14*
%TO.C,J29*%
X101942900Y-159334200D03*
%TD*%
D15*
%TO.C,J23 I2C*%
X104838500Y-72415400D03*
D16*
X104838500Y-69875400D03*
%TD*%
D15*
%TO.C,J21*%
X233514900Y-126238000D03*
X233514900Y-123698000D03*
X233514900Y-121158000D03*
D16*
X233514900Y-118618000D03*
%TD*%
D15*
%TO.C,J19*%
X135737600Y-106832400D03*
X135737600Y-104292400D03*
X135737600Y-101752400D03*
D16*
X135737600Y-99212400D03*
%TD*%
D10*
%TO.C,U41*%
X247972420Y-103912040D03*
X268272420Y-103912040D03*
X268272420Y-114112040D03*
X268272420Y-124312040D03*
X247972420Y-111512040D03*
D11*
X247972420Y-116612040D03*
%TD*%
D15*
%TO.C,J13.2 Logic*%
X280672540Y-78257400D03*
X280672540Y-75717400D03*
X280672540Y-73177400D03*
X280697940Y-70637400D03*
X280672540Y-68097400D03*
D16*
X280672540Y-65557400D03*
%TD*%
D17*
%TO.C,J9 GLV*%
X105041700Y-150266400D03*
D18*
X105041700Y-146066400D03*
X110541700Y-150266400D03*
X110541700Y-146066400D03*
%TD*%
D19*
%TO.C,U19*%
X212699600Y-190610400D03*
X211429600Y-190610400D03*
X210159600Y-190610400D03*
X208889600Y-190610400D03*
X207619600Y-190610400D03*
X206349600Y-190610400D03*
X205079600Y-190610400D03*
X205079600Y-195520400D03*
X206349600Y-195520400D03*
X207619600Y-195520400D03*
X208889600Y-195520400D03*
X210159600Y-195520400D03*
X211429600Y-195520400D03*
X212699600Y-195520400D03*
%TD*%
%TO.C,U40*%
X217271600Y-185530400D03*
X218541600Y-185530400D03*
X219811600Y-185530400D03*
X221081600Y-185530400D03*
X222351600Y-185530400D03*
X223621600Y-185530400D03*
X224891600Y-185530400D03*
X224891600Y-190440400D03*
X223621600Y-190440400D03*
X222351600Y-190440400D03*
X221081600Y-190440400D03*
X219811600Y-190440400D03*
X218541600Y-190440400D03*
X217271600Y-190440400D03*
%TD*%
D20*
%TO.C,U25*%
X242682600Y-177495400D03*
X243332600Y-177495400D03*
X243982600Y-177495400D03*
X244632600Y-177495400D03*
X245282600Y-177495400D03*
X245932600Y-177495400D03*
X246582600Y-177495400D03*
X247232600Y-177495400D03*
X247232600Y-183235400D03*
X246582600Y-183235400D03*
X245932600Y-183235400D03*
X245282600Y-183235400D03*
X244632600Y-183235400D03*
X243982600Y-183235400D03*
X243332600Y-183235400D03*
X242682600Y-183235400D03*
%TD*%
D21*
%TO.C,K3*%
X166852600Y-107657900D03*
X180822600Y-107657900D03*
X185915300Y-107657900D03*
X197345300Y-107657900D03*
X202425300Y-107657900D03*
X202425300Y-117817900D03*
X197345300Y-117817900D03*
X185915300Y-117817900D03*
X180822600Y-117817900D03*
X166852600Y-117817900D03*
%TD*%
%TO.C,R66*%
G36*
G01*
X223679600Y-182455399D02*
X223679600Y-183355401D01*
G75*
G02*
X223429601Y-183605400I-249999J0D01*
G01*
X222779599Y-183605400D01*
G75*
G02*
X222529600Y-183355401I0J249999D01*
G01*
X222529600Y-182455399D01*
G75*
G02*
X222779599Y-182205400I249999J0D01*
G01*
X223429601Y-182205400D01*
G75*
G02*
X223679600Y-182455399I0J-249999D01*
G01*
G37*
G36*
G01*
X225729600Y-182455399D02*
X225729600Y-183355401D01*
G75*
G02*
X225479601Y-183605400I-249999J0D01*
G01*
X224829599Y-183605400D01*
G75*
G02*
X224579600Y-183355401I0J249999D01*
G01*
X224579600Y-182455399D01*
G75*
G02*
X224829599Y-182205400I249999J0D01*
G01*
X225479601Y-182205400D01*
G75*
G02*
X225729600Y-182455399I0J-249999D01*
G01*
G37*
%TD*%
D15*
%TO.C,JP3*%
X285318200Y-89090500D03*
D16*
X285318200Y-86550500D03*
%TD*%
D22*
%TO.C,U10*%
X191139600Y-177317400D03*
D23*
X197789600Y-175027400D03*
X197789600Y-179607400D03*
%TD*%
%TO.C,C9*%
G36*
G01*
X251374600Y-208617399D02*
X251374600Y-209517401D01*
G75*
G02*
X251124601Y-209767400I-249999J0D01*
G01*
X250474599Y-209767400D01*
G75*
G02*
X250224600Y-209517401I0J249999D01*
G01*
X250224600Y-208617399D01*
G75*
G02*
X250474599Y-208367400I249999J0D01*
G01*
X251124601Y-208367400D01*
G75*
G02*
X251374600Y-208617399I0J-249999D01*
G01*
G37*
G36*
G01*
X249324600Y-208617399D02*
X249324600Y-209517401D01*
G75*
G02*
X249074601Y-209767400I-249999J0D01*
G01*
X248424599Y-209767400D01*
G75*
G02*
X248174600Y-209517401I0J249999D01*
G01*
X248174600Y-208617399D01*
G75*
G02*
X248424599Y-208367400I249999J0D01*
G01*
X249074601Y-208367400D01*
G75*
G02*
X249324600Y-208617399I0J-249999D01*
G01*
G37*
%TD*%
%TO.C,R16*%
G36*
G01*
X248174600Y-206977401D02*
X248174600Y-206077399D01*
G75*
G02*
X248424599Y-205827400I249999J0D01*
G01*
X249074601Y-205827400D01*
G75*
G02*
X249324600Y-206077399I0J-249999D01*
G01*
X249324600Y-206977401D01*
G75*
G02*
X249074601Y-207227400I-249999J0D01*
G01*
X248424599Y-207227400D01*
G75*
G02*
X248174600Y-206977401I0J249999D01*
G01*
G37*
G36*
G01*
X250224600Y-206977401D02*
X250224600Y-206077399D01*
G75*
G02*
X250474599Y-205827400I249999J0D01*
G01*
X251124601Y-205827400D01*
G75*
G02*
X251374600Y-206077399I0J-249999D01*
G01*
X251374600Y-206977401D01*
G75*
G02*
X251124601Y-207227400I-249999J0D01*
G01*
X250474599Y-207227400D01*
G75*
G02*
X250224600Y-206977401I0J249999D01*
G01*
G37*
%TD*%
D24*
%TO.C,U21*%
X235728600Y-191795400D03*
X235728600Y-190525400D03*
X235728600Y-189255400D03*
X235728600Y-187985400D03*
X235728600Y-186715400D03*
X235728600Y-185445400D03*
X235728600Y-184175400D03*
X230818600Y-184175400D03*
X230818600Y-185445400D03*
X230818600Y-186715400D03*
X230818600Y-187985400D03*
X230818600Y-189255400D03*
X230818600Y-190525400D03*
X230818600Y-191795400D03*
%TD*%
D15*
%TO.C,J13.1 Logic*%
X122908060Y-78257400D03*
X122933460Y-75717400D03*
X122933460Y-73177400D03*
X122933460Y-70637400D03*
X122933460Y-68097400D03*
D16*
X122933460Y-65557400D03*
%TD*%
D25*
%TO.C,U1*%
X285597600Y-153949400D03*
X270357600Y-153949400D03*
X270357600Y-179095400D03*
X270357600Y-181635400D03*
D26*
X285597600Y-181635400D03*
%TD*%
D27*
%TO.C,TP11*%
X295760140Y-130804920D03*
%TD*%
%TO.C,TP10*%
X274447000Y-106273600D03*
%TD*%
%TO.C,C2*%
G36*
G01*
X118551000Y-151427601D02*
X118551000Y-150527599D01*
G75*
G02*
X118800999Y-150277600I249999J0D01*
G01*
X119451001Y-150277600D01*
G75*
G02*
X119701000Y-150527599I0J-249999D01*
G01*
X119701000Y-151427601D01*
G75*
G02*
X119451001Y-151677600I-249999J0D01*
G01*
X118800999Y-151677600D01*
G75*
G02*
X118551000Y-151427601I0J249999D01*
G01*
G37*
G36*
G01*
X116501000Y-151427601D02*
X116501000Y-150527599D01*
G75*
G02*
X116750999Y-150277600I249999J0D01*
G01*
X117401001Y-150277600D01*
G75*
G02*
X117651000Y-150527599I0J-249999D01*
G01*
X117651000Y-151427601D01*
G75*
G02*
X117401001Y-151677600I-249999J0D01*
G01*
X116750999Y-151677600D01*
G75*
G02*
X116501000Y-151427601I0J249999D01*
G01*
G37*
%TD*%
%TO.C,C3*%
G36*
G01*
X156611699Y-67392000D02*
X157511701Y-67392000D01*
G75*
G02*
X157761700Y-67641999I0J-249999D01*
G01*
X157761700Y-68292001D01*
G75*
G02*
X157511701Y-68542000I-249999J0D01*
G01*
X156611699Y-68542000D01*
G75*
G02*
X156361700Y-68292001I0J249999D01*
G01*
X156361700Y-67641999D01*
G75*
G02*
X156611699Y-67392000I249999J0D01*
G01*
G37*
G36*
G01*
X156611699Y-69442000D02*
X157511701Y-69442000D01*
G75*
G02*
X157761700Y-69691999I0J-249999D01*
G01*
X157761700Y-70342001D01*
G75*
G02*
X157511701Y-70592000I-249999J0D01*
G01*
X156611699Y-70592000D01*
G75*
G02*
X156361700Y-70342001I0J249999D01*
G01*
X156361700Y-69691999D01*
G75*
G02*
X156611699Y-69442000I249999J0D01*
G01*
G37*
%TD*%
%TO.C,C4*%
G36*
G01*
X251111599Y-213309400D02*
X252011601Y-213309400D01*
G75*
G02*
X252261600Y-213559399I0J-249999D01*
G01*
X252261600Y-214209401D01*
G75*
G02*
X252011601Y-214459400I-249999J0D01*
G01*
X251111599Y-214459400D01*
G75*
G02*
X250861600Y-214209401I0J249999D01*
G01*
X250861600Y-213559399D01*
G75*
G02*
X251111599Y-213309400I249999J0D01*
G01*
G37*
G36*
G01*
X251111599Y-215359400D02*
X252011601Y-215359400D01*
G75*
G02*
X252261600Y-215609399I0J-249999D01*
G01*
X252261600Y-216259401D01*
G75*
G02*
X252011601Y-216509400I-249999J0D01*
G01*
X251111599Y-216509400D01*
G75*
G02*
X250861600Y-216259401I0J249999D01*
G01*
X250861600Y-215609399D01*
G75*
G02*
X251111599Y-215359400I249999J0D01*
G01*
G37*
%TD*%
%TO.C,C6*%
G36*
G01*
X280294501Y-106426960D02*
X279394499Y-106426960D01*
G75*
G02*
X279144500Y-106176961I0J249999D01*
G01*
X279144500Y-105526959D01*
G75*
G02*
X279394499Y-105276960I249999J0D01*
G01*
X280294501Y-105276960D01*
G75*
G02*
X280544500Y-105526959I0J-249999D01*
G01*
X280544500Y-106176961D01*
G75*
G02*
X280294501Y-106426960I-249999J0D01*
G01*
G37*
G36*
G01*
X280294501Y-104376960D02*
X279394499Y-104376960D01*
G75*
G02*
X279144500Y-104126961I0J249999D01*
G01*
X279144500Y-103476959D01*
G75*
G02*
X279394499Y-103226960I249999J0D01*
G01*
X280294501Y-103226960D01*
G75*
G02*
X280544500Y-103476959I0J-249999D01*
G01*
X280544500Y-104126961D01*
G75*
G02*
X280294501Y-104376960I-249999J0D01*
G01*
G37*
%TD*%
%TO.C,C7*%
G36*
G01*
X168975801Y-65242000D02*
X168075799Y-65242000D01*
G75*
G02*
X167825800Y-64992001I0J249999D01*
G01*
X167825800Y-64341999D01*
G75*
G02*
X168075799Y-64092000I249999J0D01*
G01*
X168975801Y-64092000D01*
G75*
G02*
X169225800Y-64341999I0J-249999D01*
G01*
X169225800Y-64992001D01*
G75*
G02*
X168975801Y-65242000I-249999J0D01*
G01*
G37*
G36*
G01*
X168975801Y-67292000D02*
X168075799Y-67292000D01*
G75*
G02*
X167825800Y-67042001I0J249999D01*
G01*
X167825800Y-66391999D01*
G75*
G02*
X168075799Y-66142000I249999J0D01*
G01*
X168975801Y-66142000D01*
G75*
G02*
X169225800Y-66391999I0J-249999D01*
G01*
X169225800Y-67042001D01*
G75*
G02*
X168975801Y-67292000I-249999J0D01*
G01*
G37*
%TD*%
%TO.C,C8*%
G36*
G01*
X129839299Y-66697120D02*
X130739301Y-66697120D01*
G75*
G02*
X130989300Y-66947119I0J-249999D01*
G01*
X130989300Y-67597121D01*
G75*
G02*
X130739301Y-67847120I-249999J0D01*
G01*
X129839299Y-67847120D01*
G75*
G02*
X129589300Y-67597121I0J249999D01*
G01*
X129589300Y-66947119D01*
G75*
G02*
X129839299Y-66697120I249999J0D01*
G01*
G37*
G36*
G01*
X129839299Y-64647120D02*
X130739301Y-64647120D01*
G75*
G02*
X130989300Y-64897119I0J-249999D01*
G01*
X130989300Y-65547121D01*
G75*
G02*
X130739301Y-65797120I-249999J0D01*
G01*
X129839299Y-65797120D01*
G75*
G02*
X129589300Y-65547121I0J249999D01*
G01*
X129589300Y-64897119D01*
G75*
G02*
X129839299Y-64647120I249999J0D01*
G01*
G37*
%TD*%
%TO.C,C10*%
G36*
G01*
X129938359Y-78154840D02*
X130838361Y-78154840D01*
G75*
G02*
X131088360Y-78404839I0J-249999D01*
G01*
X131088360Y-79054841D01*
G75*
G02*
X130838361Y-79304840I-249999J0D01*
G01*
X129938359Y-79304840D01*
G75*
G02*
X129688360Y-79054841I0J249999D01*
G01*
X129688360Y-78404839D01*
G75*
G02*
X129938359Y-78154840I249999J0D01*
G01*
G37*
G36*
G01*
X129938359Y-80204840D02*
X130838361Y-80204840D01*
G75*
G02*
X131088360Y-80454839I0J-249999D01*
G01*
X131088360Y-81104841D01*
G75*
G02*
X130838361Y-81354840I-249999J0D01*
G01*
X129938359Y-81354840D01*
G75*
G02*
X129688360Y-81104841I0J249999D01*
G01*
X129688360Y-80454839D01*
G75*
G02*
X129938359Y-80204840I249999J0D01*
G01*
G37*
%TD*%
%TO.C,C11*%
G36*
G01*
X148011699Y-68642000D02*
X148911701Y-68642000D01*
G75*
G02*
X149161700Y-68891999I0J-249999D01*
G01*
X149161700Y-69542001D01*
G75*
G02*
X148911701Y-69792000I-249999J0D01*
G01*
X148011699Y-69792000D01*
G75*
G02*
X147761700Y-69542001I0J249999D01*
G01*
X147761700Y-68891999D01*
G75*
G02*
X148011699Y-68642000I249999J0D01*
G01*
G37*
G36*
G01*
X148011699Y-66592000D02*
X148911701Y-66592000D01*
G75*
G02*
X149161700Y-66841999I0J-249999D01*
G01*
X149161700Y-67492001D01*
G75*
G02*
X148911701Y-67742000I-249999J0D01*
G01*
X148011699Y-67742000D01*
G75*
G02*
X147761700Y-67492001I0J249999D01*
G01*
X147761700Y-66841999D01*
G75*
G02*
X148011699Y-66592000I249999J0D01*
G01*
G37*
%TD*%
%TO.C,C12*%
G36*
G01*
X199161600Y-183355401D02*
X199161600Y-182455399D01*
G75*
G02*
X199411599Y-182205400I249999J0D01*
G01*
X200061601Y-182205400D01*
G75*
G02*
X200311600Y-182455399I0J-249999D01*
G01*
X200311600Y-183355401D01*
G75*
G02*
X200061601Y-183605400I-249999J0D01*
G01*
X199411599Y-183605400D01*
G75*
G02*
X199161600Y-183355401I0J249999D01*
G01*
G37*
G36*
G01*
X201211600Y-183355401D02*
X201211600Y-182455399D01*
G75*
G02*
X201461599Y-182205400I249999J0D01*
G01*
X202111601Y-182205400D01*
G75*
G02*
X202361600Y-182455399I0J-249999D01*
G01*
X202361600Y-183355401D01*
G75*
G02*
X202111601Y-183605400I-249999J0D01*
G01*
X201461599Y-183605400D01*
G75*
G02*
X201211600Y-183355401I0J249999D01*
G01*
G37*
%TD*%
D28*
%TO.C,C14*%
X285597600Y-190017400D03*
X270597600Y-190017400D03*
%TD*%
%TO.C,C15*%
G36*
G01*
X141690939Y-66531800D02*
X142590941Y-66531800D01*
G75*
G02*
X142840940Y-66781799I0J-249999D01*
G01*
X142840940Y-67431801D01*
G75*
G02*
X142590941Y-67681800I-249999J0D01*
G01*
X141690939Y-67681800D01*
G75*
G02*
X141440940Y-67431801I0J249999D01*
G01*
X141440940Y-66781799D01*
G75*
G02*
X141690939Y-66531800I249999J0D01*
G01*
G37*
G36*
G01*
X141690939Y-68581800D02*
X142590941Y-68581800D01*
G75*
G02*
X142840940Y-68831799I0J-249999D01*
G01*
X142840940Y-69481801D01*
G75*
G02*
X142590941Y-69731800I-249999J0D01*
G01*
X141690939Y-69731800D01*
G75*
G02*
X141440940Y-69481801I0J249999D01*
G01*
X141440940Y-68831799D01*
G75*
G02*
X141690939Y-68581800I249999J0D01*
G01*
G37*
%TD*%
%TO.C,C16*%
G36*
G01*
X166386700Y-71616999D02*
X166386700Y-72517001D01*
G75*
G02*
X166136701Y-72767000I-249999J0D01*
G01*
X165486699Y-72767000D01*
G75*
G02*
X165236700Y-72517001I0J249999D01*
G01*
X165236700Y-71616999D01*
G75*
G02*
X165486699Y-71367000I249999J0D01*
G01*
X166136701Y-71367000D01*
G75*
G02*
X166386700Y-71616999I0J-249999D01*
G01*
G37*
G36*
G01*
X168436700Y-71616999D02*
X168436700Y-72517001D01*
G75*
G02*
X168186701Y-72767000I-249999J0D01*
G01*
X167536699Y-72767000D01*
G75*
G02*
X167286700Y-72517001I0J249999D01*
G01*
X167286700Y-71616999D01*
G75*
G02*
X167536699Y-71367000I249999J0D01*
G01*
X168186701Y-71367000D01*
G75*
G02*
X168436700Y-71616999I0J-249999D01*
G01*
G37*
%TD*%
%TO.C,C17*%
G36*
G01*
X289262399Y-150791000D02*
X290162401Y-150791000D01*
G75*
G02*
X290412400Y-151040999I0J-249999D01*
G01*
X290412400Y-151691001D01*
G75*
G02*
X290162401Y-151941000I-249999J0D01*
G01*
X289262399Y-151941000D01*
G75*
G02*
X289012400Y-151691001I0J249999D01*
G01*
X289012400Y-151040999D01*
G75*
G02*
X289262399Y-150791000I249999J0D01*
G01*
G37*
G36*
G01*
X289262399Y-152841000D02*
X290162401Y-152841000D01*
G75*
G02*
X290412400Y-153090999I0J-249999D01*
G01*
X290412400Y-153741001D01*
G75*
G02*
X290162401Y-153991000I-249999J0D01*
G01*
X289262399Y-153991000D01*
G75*
G02*
X289012400Y-153741001I0J249999D01*
G01*
X289012400Y-153090999D01*
G75*
G02*
X289262399Y-152841000I249999J0D01*
G01*
G37*
%TD*%
%TO.C,C18*%
G36*
G01*
X192653499Y-129328000D02*
X193553501Y-129328000D01*
G75*
G02*
X193803500Y-129577999I0J-249999D01*
G01*
X193803500Y-130228001D01*
G75*
G02*
X193553501Y-130478000I-249999J0D01*
G01*
X192653499Y-130478000D01*
G75*
G02*
X192403500Y-130228001I0J249999D01*
G01*
X192403500Y-129577999D01*
G75*
G02*
X192653499Y-129328000I249999J0D01*
G01*
G37*
G36*
G01*
X192653499Y-131378000D02*
X193553501Y-131378000D01*
G75*
G02*
X193803500Y-131627999I0J-249999D01*
G01*
X193803500Y-132278001D01*
G75*
G02*
X193553501Y-132528000I-249999J0D01*
G01*
X192653499Y-132528000D01*
G75*
G02*
X192403500Y-132278001I0J249999D01*
G01*
X192403500Y-131627999D01*
G75*
G02*
X192653499Y-131378000I249999J0D01*
G01*
G37*
%TD*%
%TO.C,C19*%
G36*
G01*
X276161700Y-96667001D02*
X276161700Y-95766999D01*
G75*
G02*
X276411699Y-95517000I249999J0D01*
G01*
X277061701Y-95517000D01*
G75*
G02*
X277311700Y-95766999I0J-249999D01*
G01*
X277311700Y-96667001D01*
G75*
G02*
X277061701Y-96917000I-249999J0D01*
G01*
X276411699Y-96917000D01*
G75*
G02*
X276161700Y-96667001I0J249999D01*
G01*
G37*
G36*
G01*
X274111700Y-96667001D02*
X274111700Y-95766999D01*
G75*
G02*
X274361699Y-95517000I249999J0D01*
G01*
X275011701Y-95517000D01*
G75*
G02*
X275261700Y-95766999I0J-249999D01*
G01*
X275261700Y-96667001D01*
G75*
G02*
X275011701Y-96917000I-249999J0D01*
G01*
X274361699Y-96917000D01*
G75*
G02*
X274111700Y-96667001I0J249999D01*
G01*
G37*
%TD*%
%TO.C,C20*%
G36*
G01*
X268281999Y-197563000D02*
X269182001Y-197563000D01*
G75*
G02*
X269432000Y-197812999I0J-249999D01*
G01*
X269432000Y-198463001D01*
G75*
G02*
X269182001Y-198713000I-249999J0D01*
G01*
X268281999Y-198713000D01*
G75*
G02*
X268032000Y-198463001I0J249999D01*
G01*
X268032000Y-197812999D01*
G75*
G02*
X268281999Y-197563000I249999J0D01*
G01*
G37*
G36*
G01*
X268281999Y-195513000D02*
X269182001Y-195513000D01*
G75*
G02*
X269432000Y-195762999I0J-249999D01*
G01*
X269432000Y-196413001D01*
G75*
G02*
X269182001Y-196663000I-249999J0D01*
G01*
X268281999Y-196663000D01*
G75*
G02*
X268032000Y-196413001I0J249999D01*
G01*
X268032000Y-195762999D01*
G75*
G02*
X268281999Y-195513000I249999J0D01*
G01*
G37*
%TD*%
%TO.C,C21*%
G36*
G01*
X229665000Y-193605999D02*
X229665000Y-194506001D01*
G75*
G02*
X229415001Y-194756000I-249999J0D01*
G01*
X228764999Y-194756000D01*
G75*
G02*
X228515000Y-194506001I0J249999D01*
G01*
X228515000Y-193605999D01*
G75*
G02*
X228764999Y-193356000I249999J0D01*
G01*
X229415001Y-193356000D01*
G75*
G02*
X229665000Y-193605999I0J-249999D01*
G01*
G37*
G36*
G01*
X231715000Y-193605999D02*
X231715000Y-194506001D01*
G75*
G02*
X231465001Y-194756000I-249999J0D01*
G01*
X230814999Y-194756000D01*
G75*
G02*
X230565000Y-194506001I0J249999D01*
G01*
X230565000Y-193605999D01*
G75*
G02*
X230814999Y-193356000I249999J0D01*
G01*
X231465001Y-193356000D01*
G75*
G02*
X231715000Y-193605999I0J-249999D01*
G01*
G37*
%TD*%
%TO.C,C22*%
G36*
G01*
X242961700Y-73116999D02*
X242961700Y-74017001D01*
G75*
G02*
X242711701Y-74267000I-249999J0D01*
G01*
X242061699Y-74267000D01*
G75*
G02*
X241811700Y-74017001I0J249999D01*
G01*
X241811700Y-73116999D01*
G75*
G02*
X242061699Y-72867000I249999J0D01*
G01*
X242711701Y-72867000D01*
G75*
G02*
X242961700Y-73116999I0J-249999D01*
G01*
G37*
G36*
G01*
X240911700Y-73116999D02*
X240911700Y-74017001D01*
G75*
G02*
X240661701Y-74267000I-249999J0D01*
G01*
X240011699Y-74267000D01*
G75*
G02*
X239761700Y-74017001I0J249999D01*
G01*
X239761700Y-73116999D01*
G75*
G02*
X240011699Y-72867000I249999J0D01*
G01*
X240661701Y-72867000D01*
G75*
G02*
X240911700Y-73116999I0J-249999D01*
G01*
G37*
%TD*%
%TO.C,C23*%
G36*
G01*
X214386700Y-70091999D02*
X214386700Y-70992001D01*
G75*
G02*
X214136701Y-71242000I-249999J0D01*
G01*
X213486699Y-71242000D01*
G75*
G02*
X213236700Y-70992001I0J249999D01*
G01*
X213236700Y-70091999D01*
G75*
G02*
X213486699Y-69842000I249999J0D01*
G01*
X214136701Y-69842000D01*
G75*
G02*
X214386700Y-70091999I0J-249999D01*
G01*
G37*
G36*
G01*
X216436700Y-70091999D02*
X216436700Y-70992001D01*
G75*
G02*
X216186701Y-71242000I-249999J0D01*
G01*
X215536699Y-71242000D01*
G75*
G02*
X215286700Y-70992001I0J249999D01*
G01*
X215286700Y-70091999D01*
G75*
G02*
X215536699Y-69842000I249999J0D01*
G01*
X216186701Y-69842000D01*
G75*
G02*
X216436700Y-70091999I0J-249999D01*
G01*
G37*
%TD*%
%TO.C,C24*%
G36*
G01*
X224211699Y-76242000D02*
X225111701Y-76242000D01*
G75*
G02*
X225361700Y-76491999I0J-249999D01*
G01*
X225361700Y-77142001D01*
G75*
G02*
X225111701Y-77392000I-249999J0D01*
G01*
X224211699Y-77392000D01*
G75*
G02*
X223961700Y-77142001I0J249999D01*
G01*
X223961700Y-76491999D01*
G75*
G02*
X224211699Y-76242000I249999J0D01*
G01*
G37*
G36*
G01*
X224211699Y-78292000D02*
X225111701Y-78292000D01*
G75*
G02*
X225361700Y-78541999I0J-249999D01*
G01*
X225361700Y-79192001D01*
G75*
G02*
X225111701Y-79442000I-249999J0D01*
G01*
X224211699Y-79442000D01*
G75*
G02*
X223961700Y-79192001I0J249999D01*
G01*
X223961700Y-78541999D01*
G75*
G02*
X224211699Y-78292000I249999J0D01*
G01*
G37*
%TD*%
%TO.C,C25*%
G36*
G01*
X265536700Y-148517001D02*
X265536700Y-147616999D01*
G75*
G02*
X265786699Y-147367000I249999J0D01*
G01*
X266436701Y-147367000D01*
G75*
G02*
X266686700Y-147616999I0J-249999D01*
G01*
X266686700Y-148517001D01*
G75*
G02*
X266436701Y-148767000I-249999J0D01*
G01*
X265786699Y-148767000D01*
G75*
G02*
X265536700Y-148517001I0J249999D01*
G01*
G37*
G36*
G01*
X267586700Y-148517001D02*
X267586700Y-147616999D01*
G75*
G02*
X267836699Y-147367000I249999J0D01*
G01*
X268486701Y-147367000D01*
G75*
G02*
X268736700Y-147616999I0J-249999D01*
G01*
X268736700Y-148517001D01*
G75*
G02*
X268486701Y-148767000I-249999J0D01*
G01*
X267836699Y-148767000D01*
G75*
G02*
X267586700Y-148517001I0J249999D01*
G01*
G37*
%TD*%
%TO.C,C26*%
G36*
G01*
X177561701Y-66142000D02*
X176661699Y-66142000D01*
G75*
G02*
X176411700Y-65892001I0J249999D01*
G01*
X176411700Y-65241999D01*
G75*
G02*
X176661699Y-64992000I249999J0D01*
G01*
X177561701Y-64992000D01*
G75*
G02*
X177811700Y-65241999I0J-249999D01*
G01*
X177811700Y-65892001D01*
G75*
G02*
X177561701Y-66142000I-249999J0D01*
G01*
G37*
G36*
G01*
X177561701Y-64092000D02*
X176661699Y-64092000D01*
G75*
G02*
X176411700Y-63842001I0J249999D01*
G01*
X176411700Y-63191999D01*
G75*
G02*
X176661699Y-62942000I249999J0D01*
G01*
X177561701Y-62942000D01*
G75*
G02*
X177811700Y-63191999I0J-249999D01*
G01*
X177811700Y-63842001D01*
G75*
G02*
X177561701Y-64092000I-249999J0D01*
G01*
G37*
%TD*%
%TO.C,C27*%
G36*
G01*
X234461699Y-107763400D02*
X235361701Y-107763400D01*
G75*
G02*
X235611700Y-108013399I0J-249999D01*
G01*
X235611700Y-108663401D01*
G75*
G02*
X235361701Y-108913400I-249999J0D01*
G01*
X234461699Y-108913400D01*
G75*
G02*
X234211700Y-108663401I0J249999D01*
G01*
X234211700Y-108013399D01*
G75*
G02*
X234461699Y-107763400I249999J0D01*
G01*
G37*
G36*
G01*
X234461699Y-109813400D02*
X235361701Y-109813400D01*
G75*
G02*
X235611700Y-110063399I0J-249999D01*
G01*
X235611700Y-110713401D01*
G75*
G02*
X235361701Y-110963400I-249999J0D01*
G01*
X234461699Y-110963400D01*
G75*
G02*
X234211700Y-110713401I0J249999D01*
G01*
X234211700Y-110063399D01*
G75*
G02*
X234461699Y-109813400I249999J0D01*
G01*
G37*
%TD*%
%TO.C,C30*%
G36*
G01*
X251098899Y-158436400D02*
X251998901Y-158436400D01*
G75*
G02*
X252248900Y-158686399I0J-249999D01*
G01*
X252248900Y-159336401D01*
G75*
G02*
X251998901Y-159586400I-249999J0D01*
G01*
X251098899Y-159586400D01*
G75*
G02*
X250848900Y-159336401I0J249999D01*
G01*
X250848900Y-158686399D01*
G75*
G02*
X251098899Y-158436400I249999J0D01*
G01*
G37*
G36*
G01*
X251098899Y-160486400D02*
X251998901Y-160486400D01*
G75*
G02*
X252248900Y-160736399I0J-249999D01*
G01*
X252248900Y-161386401D01*
G75*
G02*
X251998901Y-161636400I-249999J0D01*
G01*
X251098899Y-161636400D01*
G75*
G02*
X250848900Y-161386401I0J249999D01*
G01*
X250848900Y-160736399D01*
G75*
G02*
X251098899Y-160486400I249999J0D01*
G01*
G37*
%TD*%
%TO.C,C32*%
G36*
G01*
X261972100Y-138467001D02*
X261972100Y-137566999D01*
G75*
G02*
X262222099Y-137317000I249999J0D01*
G01*
X262872101Y-137317000D01*
G75*
G02*
X263122100Y-137566999I0J-249999D01*
G01*
X263122100Y-138467001D01*
G75*
G02*
X262872101Y-138717000I-249999J0D01*
G01*
X262222099Y-138717000D01*
G75*
G02*
X261972100Y-138467001I0J249999D01*
G01*
G37*
G36*
G01*
X259922100Y-138467001D02*
X259922100Y-137566999D01*
G75*
G02*
X260172099Y-137317000I249999J0D01*
G01*
X260822101Y-137317000D01*
G75*
G02*
X261072100Y-137566999I0J-249999D01*
G01*
X261072100Y-138467001D01*
G75*
G02*
X260822101Y-138717000I-249999J0D01*
G01*
X260172099Y-138717000D01*
G75*
G02*
X259922100Y-138467001I0J249999D01*
G01*
G37*
%TD*%
%TO.C,C35*%
G36*
G01*
X238426300Y-174313001D02*
X238426300Y-173412999D01*
G75*
G02*
X238676299Y-173163000I249999J0D01*
G01*
X239326301Y-173163000D01*
G75*
G02*
X239576300Y-173412999I0J-249999D01*
G01*
X239576300Y-174313001D01*
G75*
G02*
X239326301Y-174563000I-249999J0D01*
G01*
X238676299Y-174563000D01*
G75*
G02*
X238426300Y-174313001I0J249999D01*
G01*
G37*
G36*
G01*
X236376300Y-174313001D02*
X236376300Y-173412999D01*
G75*
G02*
X236626299Y-173163000I249999J0D01*
G01*
X237276301Y-173163000D01*
G75*
G02*
X237526300Y-173412999I0J-249999D01*
G01*
X237526300Y-174313001D01*
G75*
G02*
X237276301Y-174563000I-249999J0D01*
G01*
X236626299Y-174563000D01*
G75*
G02*
X236376300Y-174313001I0J249999D01*
G01*
G37*
%TD*%
%TO.C,C43*%
G36*
G01*
X186541500Y-183330001D02*
X186541500Y-182429999D01*
G75*
G02*
X186791499Y-182180000I249999J0D01*
G01*
X187441501Y-182180000D01*
G75*
G02*
X187691500Y-182429999I0J-249999D01*
G01*
X187691500Y-183330001D01*
G75*
G02*
X187441501Y-183580000I-249999J0D01*
G01*
X186791499Y-183580000D01*
G75*
G02*
X186541500Y-183330001I0J249999D01*
G01*
G37*
G36*
G01*
X188591500Y-183330001D02*
X188591500Y-182429999D01*
G75*
G02*
X188841499Y-182180000I249999J0D01*
G01*
X189491501Y-182180000D01*
G75*
G02*
X189741500Y-182429999I0J-249999D01*
G01*
X189741500Y-183330001D01*
G75*
G02*
X189491501Y-183580000I-249999J0D01*
G01*
X188841499Y-183580000D01*
G75*
G02*
X188591500Y-183330001I0J249999D01*
G01*
G37*
%TD*%
%TO.C,C46*%
G36*
G01*
X229151601Y-181974400D02*
X228251599Y-181974400D01*
G75*
G02*
X228001600Y-181724401I0J249999D01*
G01*
X228001600Y-181074399D01*
G75*
G02*
X228251599Y-180824400I249999J0D01*
G01*
X229151601Y-180824400D01*
G75*
G02*
X229401600Y-181074399I0J-249999D01*
G01*
X229401600Y-181724401D01*
G75*
G02*
X229151601Y-181974400I-249999J0D01*
G01*
G37*
G36*
G01*
X229151601Y-179924400D02*
X228251599Y-179924400D01*
G75*
G02*
X228001600Y-179674401I0J249999D01*
G01*
X228001600Y-179024399D01*
G75*
G02*
X228251599Y-178774400I249999J0D01*
G01*
X229151601Y-178774400D01*
G75*
G02*
X229401600Y-179024399I0J-249999D01*
G01*
X229401600Y-179674401D01*
G75*
G02*
X229151601Y-179924400I-249999J0D01*
G01*
G37*
%TD*%
%TO.C,C47*%
G36*
G01*
X223679600Y-180423399D02*
X223679600Y-181323401D01*
G75*
G02*
X223429601Y-181573400I-249999J0D01*
G01*
X222779599Y-181573400D01*
G75*
G02*
X222529600Y-181323401I0J249999D01*
G01*
X222529600Y-180423399D01*
G75*
G02*
X222779599Y-180173400I249999J0D01*
G01*
X223429601Y-180173400D01*
G75*
G02*
X223679600Y-180423399I0J-249999D01*
G01*
G37*
G36*
G01*
X225729600Y-180423399D02*
X225729600Y-181323401D01*
G75*
G02*
X225479601Y-181573400I-249999J0D01*
G01*
X224829599Y-181573400D01*
G75*
G02*
X224579600Y-181323401I0J249999D01*
G01*
X224579600Y-180423399D01*
G75*
G02*
X224829599Y-180173400I249999J0D01*
G01*
X225479601Y-180173400D01*
G75*
G02*
X225729600Y-180423399I0J-249999D01*
G01*
G37*
%TD*%
%TO.C,C48*%
G36*
G01*
X249471601Y-202031400D02*
X248571599Y-202031400D01*
G75*
G02*
X248321600Y-201781401I0J249999D01*
G01*
X248321600Y-201131399D01*
G75*
G02*
X248571599Y-200881400I249999J0D01*
G01*
X249471601Y-200881400D01*
G75*
G02*
X249721600Y-201131399I0J-249999D01*
G01*
X249721600Y-201781401D01*
G75*
G02*
X249471601Y-202031400I-249999J0D01*
G01*
G37*
G36*
G01*
X249471601Y-199981400D02*
X248571599Y-199981400D01*
G75*
G02*
X248321600Y-199731401I0J249999D01*
G01*
X248321600Y-199081399D01*
G75*
G02*
X248571599Y-198831400I249999J0D01*
G01*
X249471601Y-198831400D01*
G75*
G02*
X249721600Y-199081399I0J-249999D01*
G01*
X249721600Y-199731401D01*
G75*
G02*
X249471601Y-199981400I-249999J0D01*
G01*
G37*
%TD*%
%TO.C,C54*%
G36*
G01*
X201719601Y-194148400D02*
X200819599Y-194148400D01*
G75*
G02*
X200569600Y-193898401I0J249999D01*
G01*
X200569600Y-193248399D01*
G75*
G02*
X200819599Y-192998400I249999J0D01*
G01*
X201719601Y-192998400D01*
G75*
G02*
X201969600Y-193248399I0J-249999D01*
G01*
X201969600Y-193898401D01*
G75*
G02*
X201719601Y-194148400I-249999J0D01*
G01*
G37*
G36*
G01*
X201719601Y-192098400D02*
X200819599Y-192098400D01*
G75*
G02*
X200569600Y-191848401I0J249999D01*
G01*
X200569600Y-191198399D01*
G75*
G02*
X200819599Y-190948400I249999J0D01*
G01*
X201719601Y-190948400D01*
G75*
G02*
X201969600Y-191198399I0J-249999D01*
G01*
X201969600Y-191848401D01*
G75*
G02*
X201719601Y-192098400I-249999J0D01*
G01*
G37*
%TD*%
%TO.C,C55*%
G36*
G01*
X217960900Y-201505399D02*
X217960900Y-202405401D01*
G75*
G02*
X217710901Y-202655400I-249999J0D01*
G01*
X217060899Y-202655400D01*
G75*
G02*
X216810900Y-202405401I0J249999D01*
G01*
X216810900Y-201505399D01*
G75*
G02*
X217060899Y-201255400I249999J0D01*
G01*
X217710901Y-201255400D01*
G75*
G02*
X217960900Y-201505399I0J-249999D01*
G01*
G37*
G36*
G01*
X215910900Y-201505399D02*
X215910900Y-202405401D01*
G75*
G02*
X215660901Y-202655400I-249999J0D01*
G01*
X215010899Y-202655400D01*
G75*
G02*
X214760900Y-202405401I0J249999D01*
G01*
X214760900Y-201505399D01*
G75*
G02*
X215010899Y-201255400I249999J0D01*
G01*
X215660901Y-201255400D01*
G75*
G02*
X215910900Y-201505399I0J-249999D01*
G01*
G37*
%TD*%
%TO.C,C56*%
G36*
G01*
X266686700Y-145491999D02*
X266686700Y-146392001D01*
G75*
G02*
X266436701Y-146642000I-249999J0D01*
G01*
X265786699Y-146642000D01*
G75*
G02*
X265536700Y-146392001I0J249999D01*
G01*
X265536700Y-145491999D01*
G75*
G02*
X265786699Y-145242000I249999J0D01*
G01*
X266436701Y-145242000D01*
G75*
G02*
X266686700Y-145491999I0J-249999D01*
G01*
G37*
G36*
G01*
X268736700Y-145491999D02*
X268736700Y-146392001D01*
G75*
G02*
X268486701Y-146642000I-249999J0D01*
G01*
X267836699Y-146642000D01*
G75*
G02*
X267586700Y-146392001I0J249999D01*
G01*
X267586700Y-145491999D01*
G75*
G02*
X267836699Y-145242000I249999J0D01*
G01*
X268486701Y-145242000D01*
G75*
G02*
X268736700Y-145491999I0J-249999D01*
G01*
G37*
%TD*%
%TO.C,C58*%
G36*
G01*
X277301539Y-110970480D02*
X278201541Y-110970480D01*
G75*
G02*
X278451540Y-111220479I0J-249999D01*
G01*
X278451540Y-111870481D01*
G75*
G02*
X278201541Y-112120480I-249999J0D01*
G01*
X277301539Y-112120480D01*
G75*
G02*
X277051540Y-111870481I0J249999D01*
G01*
X277051540Y-111220479D01*
G75*
G02*
X277301539Y-110970480I249999J0D01*
G01*
G37*
G36*
G01*
X277301539Y-108920480D02*
X278201541Y-108920480D01*
G75*
G02*
X278451540Y-109170479I0J-249999D01*
G01*
X278451540Y-109820481D01*
G75*
G02*
X278201541Y-110070480I-249999J0D01*
G01*
X277301539Y-110070480D01*
G75*
G02*
X277051540Y-109820481I0J249999D01*
G01*
X277051540Y-109170479D01*
G75*
G02*
X277301539Y-108920480I249999J0D01*
G01*
G37*
%TD*%
%TO.C,C59*%
G36*
G01*
X273654099Y-110936080D02*
X274554101Y-110936080D01*
G75*
G02*
X274804100Y-111186079I0J-249999D01*
G01*
X274804100Y-111836081D01*
G75*
G02*
X274554101Y-112086080I-249999J0D01*
G01*
X273654099Y-112086080D01*
G75*
G02*
X273404100Y-111836081I0J249999D01*
G01*
X273404100Y-111186079D01*
G75*
G02*
X273654099Y-110936080I249999J0D01*
G01*
G37*
G36*
G01*
X273654099Y-108886080D02*
X274554101Y-108886080D01*
G75*
G02*
X274804100Y-109136079I0J-249999D01*
G01*
X274804100Y-109786081D01*
G75*
G02*
X274554101Y-110036080I-249999J0D01*
G01*
X273654099Y-110036080D01*
G75*
G02*
X273404100Y-109786081I0J249999D01*
G01*
X273404100Y-109136079D01*
G75*
G02*
X273654099Y-108886080I249999J0D01*
G01*
G37*
%TD*%
%TO.C,C60*%
G36*
G01*
X286140200Y-123182801D02*
X286140200Y-122282799D01*
G75*
G02*
X286390199Y-122032800I249999J0D01*
G01*
X287040201Y-122032800D01*
G75*
G02*
X287290200Y-122282799I0J-249999D01*
G01*
X287290200Y-123182801D01*
G75*
G02*
X287040201Y-123432800I-249999J0D01*
G01*
X286390199Y-123432800D01*
G75*
G02*
X286140200Y-123182801I0J249999D01*
G01*
G37*
G36*
G01*
X284090200Y-123182801D02*
X284090200Y-122282799D01*
G75*
G02*
X284340199Y-122032800I249999J0D01*
G01*
X284990201Y-122032800D01*
G75*
G02*
X285240200Y-122282799I0J-249999D01*
G01*
X285240200Y-123182801D01*
G75*
G02*
X284990201Y-123432800I-249999J0D01*
G01*
X284340199Y-123432800D01*
G75*
G02*
X284090200Y-123182801I0J249999D01*
G01*
G37*
%TD*%
%TO.C,C61*%
G36*
G01*
X278206000Y-116643999D02*
X278206000Y-117544001D01*
G75*
G02*
X277956001Y-117794000I-249999J0D01*
G01*
X277305999Y-117794000D01*
G75*
G02*
X277056000Y-117544001I0J249999D01*
G01*
X277056000Y-116643999D01*
G75*
G02*
X277305999Y-116394000I249999J0D01*
G01*
X277956001Y-116394000D01*
G75*
G02*
X278206000Y-116643999I0J-249999D01*
G01*
G37*
G36*
G01*
X276156000Y-116643999D02*
X276156000Y-117544001D01*
G75*
G02*
X275906001Y-117794000I-249999J0D01*
G01*
X275255999Y-117794000D01*
G75*
G02*
X275006000Y-117544001I0J249999D01*
G01*
X275006000Y-116643999D01*
G75*
G02*
X275255999Y-116394000I249999J0D01*
G01*
X275906001Y-116394000D01*
G75*
G02*
X276156000Y-116643999I0J-249999D01*
G01*
G37*
%TD*%
%TO.C,D1*%
G36*
G01*
X278677460Y-100211041D02*
X278677460Y-99311039D01*
G75*
G02*
X278927459Y-99061040I249999J0D01*
G01*
X279577461Y-99061040D01*
G75*
G02*
X279827460Y-99311039I0J-249999D01*
G01*
X279827460Y-100211041D01*
G75*
G02*
X279577461Y-100461040I-249999J0D01*
G01*
X278927459Y-100461040D01*
G75*
G02*
X278677460Y-100211041I0J249999D01*
G01*
G37*
G36*
G01*
X280727460Y-100211041D02*
X280727460Y-99311039D01*
G75*
G02*
X280977459Y-99061040I249999J0D01*
G01*
X281627461Y-99061040D01*
G75*
G02*
X281877460Y-99311039I0J-249999D01*
G01*
X281877460Y-100211041D01*
G75*
G02*
X281627461Y-100461040I-249999J0D01*
G01*
X280977459Y-100461040D01*
G75*
G02*
X280727460Y-100211041I0J249999D01*
G01*
G37*
%TD*%
%TO.C,D2*%
G36*
G01*
X135413560Y-76864240D02*
X135413560Y-76664240D01*
G75*
G02*
X135513560Y-76564240I100000J0D01*
G01*
X136938560Y-76564240D01*
G75*
G02*
X137038560Y-76664240I0J-100000D01*
G01*
X137038560Y-76864240D01*
G75*
G02*
X136938560Y-76964240I-100000J0D01*
G01*
X135513560Y-76964240D01*
G75*
G02*
X135413560Y-76864240I0J100000D01*
G01*
G37*
G36*
G01*
X135413560Y-77514240D02*
X135413560Y-77314240D01*
G75*
G02*
X135513560Y-77214240I100000J0D01*
G01*
X136938560Y-77214240D01*
G75*
G02*
X137038560Y-77314240I0J-100000D01*
G01*
X137038560Y-77514240D01*
G75*
G02*
X136938560Y-77614240I-100000J0D01*
G01*
X135513560Y-77614240D01*
G75*
G02*
X135413560Y-77514240I0J100000D01*
G01*
G37*
G36*
G01*
X135413560Y-78164240D02*
X135413560Y-77964240D01*
G75*
G02*
X135513560Y-77864240I100000J0D01*
G01*
X136938560Y-77864240D01*
G75*
G02*
X137038560Y-77964240I0J-100000D01*
G01*
X137038560Y-78164240D01*
G75*
G02*
X136938560Y-78264240I-100000J0D01*
G01*
X135513560Y-78264240D01*
G75*
G02*
X135413560Y-78164240I0J100000D01*
G01*
G37*
G36*
G01*
X135413560Y-78814240D02*
X135413560Y-78614240D01*
G75*
G02*
X135513560Y-78514240I100000J0D01*
G01*
X136938560Y-78514240D01*
G75*
G02*
X137038560Y-78614240I0J-100000D01*
G01*
X137038560Y-78814240D01*
G75*
G02*
X136938560Y-78914240I-100000J0D01*
G01*
X135513560Y-78914240D01*
G75*
G02*
X135413560Y-78814240I0J100000D01*
G01*
G37*
G36*
G01*
X139638560Y-78814240D02*
X139638560Y-78614240D01*
G75*
G02*
X139738560Y-78514240I100000J0D01*
G01*
X141163560Y-78514240D01*
G75*
G02*
X141263560Y-78614240I0J-100000D01*
G01*
X141263560Y-78814240D01*
G75*
G02*
X141163560Y-78914240I-100000J0D01*
G01*
X139738560Y-78914240D01*
G75*
G02*
X139638560Y-78814240I0J100000D01*
G01*
G37*
G36*
G01*
X139638560Y-78164240D02*
X139638560Y-77964240D01*
G75*
G02*
X139738560Y-77864240I100000J0D01*
G01*
X141163560Y-77864240D01*
G75*
G02*
X141263560Y-77964240I0J-100000D01*
G01*
X141263560Y-78164240D01*
G75*
G02*
X141163560Y-78264240I-100000J0D01*
G01*
X139738560Y-78264240D01*
G75*
G02*
X139638560Y-78164240I0J100000D01*
G01*
G37*
G36*
G01*
X139638560Y-77514240D02*
X139638560Y-77314240D01*
G75*
G02*
X139738560Y-77214240I100000J0D01*
G01*
X141163560Y-77214240D01*
G75*
G02*
X141263560Y-77314240I0J-100000D01*
G01*
X141263560Y-77514240D01*
G75*
G02*
X141163560Y-77614240I-100000J0D01*
G01*
X139738560Y-77614240D01*
G75*
G02*
X139638560Y-77514240I0J100000D01*
G01*
G37*
G36*
G01*
X139638560Y-76864240D02*
X139638560Y-76664240D01*
G75*
G02*
X139738560Y-76564240I100000J0D01*
G01*
X141163560Y-76564240D01*
G75*
G02*
X141263560Y-76664240I0J-100000D01*
G01*
X141263560Y-76864240D01*
G75*
G02*
X141163560Y-76964240I-100000J0D01*
G01*
X139738560Y-76964240D01*
G75*
G02*
X139638560Y-76864240I0J100000D01*
G01*
G37*
%TD*%
D29*
%TO.C,D3*%
X282791900Y-146100800D03*
X286091900Y-146100800D03*
%TD*%
%TO.C,D4*%
G36*
G01*
X261072100Y-140100899D02*
X261072100Y-141000901D01*
G75*
G02*
X260822101Y-141250900I-249999J0D01*
G01*
X260172099Y-141250900D01*
G75*
G02*
X259922100Y-141000901I0J249999D01*
G01*
X259922100Y-140100899D01*
G75*
G02*
X260172099Y-139850900I249999J0D01*
G01*
X260822101Y-139850900D01*
G75*
G02*
X261072100Y-140100899I0J-249999D01*
G01*
G37*
G36*
G01*
X263122100Y-140100899D02*
X263122100Y-141000901D01*
G75*
G02*
X262872101Y-141250900I-249999J0D01*
G01*
X262222099Y-141250900D01*
G75*
G02*
X261972100Y-141000901I0J249999D01*
G01*
X261972100Y-140100899D01*
G75*
G02*
X262222099Y-139850900I249999J0D01*
G01*
X262872101Y-139850900D01*
G75*
G02*
X263122100Y-140100899I0J-249999D01*
G01*
G37*
%TD*%
D30*
%TO.C,D5*%
X158711900Y-92062300D03*
D31*
X158711900Y-84442300D03*
%TD*%
%TO.C,D6*%
G36*
G01*
X180891601Y-210404400D02*
X179991599Y-210404400D01*
G75*
G02*
X179741600Y-210154401I0J249999D01*
G01*
X179741600Y-209504399D01*
G75*
G02*
X179991599Y-209254400I249999J0D01*
G01*
X180891601Y-209254400D01*
G75*
G02*
X181141600Y-209504399I0J-249999D01*
G01*
X181141600Y-210154401D01*
G75*
G02*
X180891601Y-210404400I-249999J0D01*
G01*
G37*
G36*
G01*
X180891601Y-208354400D02*
X179991599Y-208354400D01*
G75*
G02*
X179741600Y-208104401I0J249999D01*
G01*
X179741600Y-207454399D01*
G75*
G02*
X179991599Y-207204400I249999J0D01*
G01*
X180891601Y-207204400D01*
G75*
G02*
X181141600Y-207454399I0J-249999D01*
G01*
X181141600Y-208104401D01*
G75*
G02*
X180891601Y-208354400I-249999J0D01*
G01*
G37*
%TD*%
%TO.C,D7*%
G36*
G01*
X146347601Y-181457400D02*
X145447599Y-181457400D01*
G75*
G02*
X145197600Y-181207401I0J249999D01*
G01*
X145197600Y-180557399D01*
G75*
G02*
X145447599Y-180307400I249999J0D01*
G01*
X146347601Y-180307400D01*
G75*
G02*
X146597600Y-180557399I0J-249999D01*
G01*
X146597600Y-181207401D01*
G75*
G02*
X146347601Y-181457400I-249999J0D01*
G01*
G37*
G36*
G01*
X146347601Y-179407400D02*
X145447599Y-179407400D01*
G75*
G02*
X145197600Y-179157401I0J249999D01*
G01*
X145197600Y-178507399D01*
G75*
G02*
X145447599Y-178257400I249999J0D01*
G01*
X146347601Y-178257400D01*
G75*
G02*
X146597600Y-178507399I0J-249999D01*
G01*
X146597600Y-179157401D01*
G75*
G02*
X146347601Y-179407400I-249999J0D01*
G01*
G37*
%TD*%
D30*
%TO.C,D8*%
X149707600Y-173507400D03*
D31*
X149707600Y-181127400D03*
%TD*%
%TO.C,D9*%
X155111700Y-104672000D03*
D30*
X155111700Y-112292000D03*
%TD*%
D29*
%TO.C,D11*%
X202807300Y-153644600D03*
X206107300Y-153644600D03*
%TD*%
%TO.C,D14*%
G36*
G01*
X142844100Y-151276899D02*
X142844100Y-152176901D01*
G75*
G02*
X142594101Y-152426900I-249999J0D01*
G01*
X141944099Y-152426900D01*
G75*
G02*
X141694100Y-152176901I0J249999D01*
G01*
X141694100Y-151276899D01*
G75*
G02*
X141944099Y-151026900I249999J0D01*
G01*
X142594101Y-151026900D01*
G75*
G02*
X142844100Y-151276899I0J-249999D01*
G01*
G37*
G36*
G01*
X144894100Y-151276899D02*
X144894100Y-152176901D01*
G75*
G02*
X144644101Y-152426900I-249999J0D01*
G01*
X143994099Y-152426900D01*
G75*
G02*
X143744100Y-152176901I0J249999D01*
G01*
X143744100Y-151276899D01*
G75*
G02*
X143994099Y-151026900I249999J0D01*
G01*
X144644101Y-151026900D01*
G75*
G02*
X144894100Y-151276899I0J-249999D01*
G01*
G37*
%TD*%
D30*
%TO.C,D16*%
X207619600Y-207035400D03*
D31*
X215239600Y-207035400D03*
%TD*%
%TO.C,D17*%
X168503600Y-202971400D03*
D30*
X176123600Y-202971400D03*
%TD*%
D27*
%TO.C,TP12*%
X262953500Y-157342840D03*
%TD*%
D32*
%TO.C,IC1*%
X229839600Y-206004400D03*
X227939600Y-206004400D03*
X227939600Y-203494400D03*
X228889600Y-203494400D03*
X229839600Y-203494400D03*
%TD*%
%TO.C,IC4*%
X180883600Y-187238400D03*
X179933600Y-187238400D03*
X178983600Y-187238400D03*
X178983600Y-189748400D03*
X180883600Y-189748400D03*
%TD*%
D33*
%TO.C,J1 HV*%
X280009600Y-213551400D03*
X280009600Y-206781400D03*
X280009600Y-200011400D03*
%TD*%
D34*
%TO.C,J2 Current*%
X241782600Y-197865400D03*
D35*
X239877600Y-213915400D03*
D34*
X240512600Y-197865400D03*
X239242600Y-197865400D03*
X237972600Y-197865400D03*
X236702600Y-197865400D03*
X243052600Y-197865400D03*
%TD*%
D18*
%TO.C,J3 PC*%
X169353600Y-211861400D03*
D17*
X174853600Y-211861400D03*
%TD*%
D18*
%TO.C,J4 MC*%
X141733600Y-210757400D03*
X137533600Y-210757400D03*
X133333600Y-210757400D03*
X129133600Y-210757400D03*
X141733600Y-205257400D03*
X137533600Y-205257400D03*
X133333600Y-205257400D03*
D17*
X129133600Y-205257400D03*
%TD*%
D18*
%TO.C,J5 IMD*%
X110541700Y-125322000D03*
X110541700Y-129522000D03*
X110541700Y-133722000D03*
X110541700Y-137922000D03*
X105041700Y-125322000D03*
X105041700Y-129522000D03*
X105041700Y-133722000D03*
D17*
X105041700Y-137922000D03*
%TD*%
D18*
%TO.C,J6*%
X292854750Y-89417000D03*
X292854750Y-85217000D03*
X298354750Y-89417000D03*
D17*
X298354750Y-85217000D03*
%TD*%
D18*
%TO.C,J7*%
X292854750Y-105927000D03*
X292854750Y-101727000D03*
X298354750Y-105927000D03*
D17*
X298354750Y-101727000D03*
%TD*%
D18*
%TO.C,J8 COOL PWR*%
X198996300Y-133134100D03*
D17*
X198996300Y-127634100D03*
%TD*%
%TO.C,J10 DASH*%
X105041700Y-116967000D03*
D18*
X105041700Y-112767000D03*
X105041700Y-108567000D03*
X105041700Y-104367000D03*
X110541700Y-116967000D03*
X110541700Y-112767000D03*
X110541700Y-108567000D03*
X110541700Y-104367000D03*
%TD*%
%TO.C,J11 BP PWR*%
X215361700Y-106792000D03*
X211161700Y-106792000D03*
X215361700Y-101292000D03*
D17*
X211161700Y-101292000D03*
%TD*%
%TO.C,J12 MRST SLOOP*%
X218440000Y-144983200D03*
D18*
X222640000Y-144983200D03*
X218440000Y-150483200D03*
X222640000Y-150483200D03*
%TD*%
D14*
%TO.C,J13*%
X254101600Y-213893400D03*
%TD*%
D17*
%TO.C,J14 TSAL*%
X297827700Y-151574500D03*
D18*
X297827700Y-157074500D03*
%TD*%
D17*
%TO.C,J15 Throt. Plaus.*%
X105041700Y-96012000D03*
D18*
X105041700Y-91812000D03*
X105041700Y-87612000D03*
X110541700Y-96012000D03*
X110541700Y-91812000D03*
X110541700Y-87612000D03*
%TD*%
%TO.C,J16*%
X292854750Y-142757000D03*
X292854750Y-138557000D03*
X298354750Y-142757000D03*
D17*
X298354750Y-138557000D03*
%TD*%
%TO.C,J17 Light RTDS*%
X179616100Y-153085800D03*
D18*
X179616100Y-148885800D03*
X185116100Y-153085800D03*
X185116100Y-148885800D03*
%TD*%
%TO.C,J18*%
X292854750Y-124097000D03*
X292854750Y-119897000D03*
X292854750Y-115697000D03*
X298354750Y-124097000D03*
X298354750Y-119897000D03*
D17*
X298354750Y-115697000D03*
%TD*%
%TO.C,J20 Discharge *%
X207619600Y-213385400D03*
D18*
X213119600Y-213385400D03*
%TD*%
D17*
%TO.C,J22 LSP*%
X148221700Y-107213400D03*
D18*
X144021700Y-107213400D03*
X148221700Y-101713400D03*
X144021700Y-101713400D03*
%TD*%
D14*
%TO.C,J27*%
X253593600Y-206781400D03*
%TD*%
%TO.C,J28*%
X273913600Y-213893400D03*
%TD*%
%TO.C,J24*%
X273913600Y-201193400D03*
%TD*%
%TO.C,J25*%
X272897600Y-206781400D03*
%TD*%
%TO.C,J26*%
X254609600Y-201193400D03*
%TD*%
D16*
%TO.C,JP1*%
X251244100Y-154266900D03*
D15*
X253784100Y-154266900D03*
X256324100Y-154266900D03*
%TD*%
%TO.C,JP2*%
X157327600Y-207797400D03*
X157327600Y-210337400D03*
D16*
X157327600Y-212877400D03*
%TD*%
D15*
%TO.C,JP4*%
X201777600Y-212369400D03*
D16*
X201777600Y-214909400D03*
%TD*%
%TO.C,JP5*%
X189077600Y-214909400D03*
D15*
X189077600Y-212369400D03*
%TD*%
D36*
%TO.C,K1*%
X105257600Y-191287400D03*
D37*
X105257600Y-183667400D03*
D38*
X115417600Y-191287400D03*
X123037600Y-191287400D03*
%TD*%
D39*
%TO.C,K2*%
X282876795Y-142341600D03*
X271576800Y-142341600D03*
X271576800Y-130341602D03*
X282876795Y-130341602D03*
X284876797Y-136341601D03*
%TD*%
D21*
%TO.C,K4*%
X167081200Y-98437700D03*
X181051200Y-98437700D03*
X186143900Y-98437700D03*
X197573900Y-98437700D03*
X202653900Y-98437700D03*
X202653900Y-88277700D03*
X197573900Y-88277700D03*
X186143900Y-88277700D03*
X181051200Y-88277700D03*
X167081200Y-88277700D03*
%TD*%
D28*
%TO.C,PS2*%
X187274200Y-136080500D03*
X187274200Y-128460500D03*
X187274200Y-132270500D03*
D40*
X187274200Y-124650500D03*
D41*
X136474200Y-124630500D03*
D28*
X136474200Y-132250500D03*
D40*
X187274200Y-139890500D03*
D28*
X136474200Y-139870500D03*
%TD*%
D42*
%TO.C,Q1*%
X209463600Y-179517400D03*
X208513600Y-177317400D03*
X210413600Y-177317400D03*
%TD*%
D43*
%TO.C,Q2*%
X260896100Y-149943900D03*
X260896100Y-148043900D03*
X258896100Y-148993900D03*
%TD*%
D44*
%TO.C,Q3*%
X198630900Y-154086600D03*
X198630900Y-152186600D03*
X196430900Y-153136600D03*
%TD*%
D43*
%TO.C,Q5*%
X212969600Y-182905400D03*
X214969600Y-181955400D03*
X214969600Y-183855400D03*
%TD*%
D45*
%TO.C,Q11*%
X278597800Y-146619000D03*
X280708100Y-145669000D03*
X280708100Y-147569000D03*
%TD*%
%TO.C,R1*%
G36*
G01*
X130838361Y-77272840D02*
X129938359Y-77272840D01*
G75*
G02*
X129688360Y-77022841I0J249999D01*
G01*
X129688360Y-76372839D01*
G75*
G02*
X129938359Y-76122840I249999J0D01*
G01*
X130838361Y-76122840D01*
G75*
G02*
X131088360Y-76372839I0J-249999D01*
G01*
X131088360Y-77022841D01*
G75*
G02*
X130838361Y-77272840I-249999J0D01*
G01*
G37*
G36*
G01*
X130739750Y-75222840D02*
X129838850Y-75222840D01*
G75*
G02*
X129589300Y-74973290I0J249550D01*
G01*
X129589300Y-74322390D01*
G75*
G02*
X129838850Y-74072840I249550J0D01*
G01*
X130739750Y-74072840D01*
G75*
G02*
X130989300Y-74322390I0J-249550D01*
G01*
X130989300Y-74973290D01*
G75*
G02*
X130739750Y-75222840I-249550J0D01*
G01*
G37*
%TD*%
%TO.C,R2*%
G36*
G01*
X218091599Y-215350400D02*
X218991601Y-215350400D01*
G75*
G02*
X219241600Y-215600399I0J-249999D01*
G01*
X219241600Y-216250401D01*
G75*
G02*
X218991601Y-216500400I-249999J0D01*
G01*
X218091599Y-216500400D01*
G75*
G02*
X217841600Y-216250401I0J249999D01*
G01*
X217841600Y-215600399D01*
G75*
G02*
X218091599Y-215350400I249999J0D01*
G01*
G37*
G36*
G01*
X218091599Y-213300400D02*
X218991601Y-213300400D01*
G75*
G02*
X219241600Y-213550399I0J-249999D01*
G01*
X219241600Y-214200401D01*
G75*
G02*
X218991601Y-214450400I-249999J0D01*
G01*
X218091599Y-214450400D01*
G75*
G02*
X217841600Y-214200401I0J249999D01*
G01*
X217841600Y-213550399D01*
G75*
G02*
X218091599Y-213300400I249999J0D01*
G01*
G37*
%TD*%
%TO.C,R3*%
G36*
G01*
X286347860Y-99311039D02*
X286347860Y-100211041D01*
G75*
G02*
X286097861Y-100461040I-249999J0D01*
G01*
X285447859Y-100461040D01*
G75*
G02*
X285197860Y-100211041I0J249999D01*
G01*
X285197860Y-99311039D01*
G75*
G02*
X285447859Y-99061040I249999J0D01*
G01*
X286097861Y-99061040D01*
G75*
G02*
X286347860Y-99311039I0J-249999D01*
G01*
G37*
G36*
G01*
X284297860Y-99311039D02*
X284297860Y-100211041D01*
G75*
G02*
X284047861Y-100461040I-249999J0D01*
G01*
X283397859Y-100461040D01*
G75*
G02*
X283147860Y-100211041I0J249999D01*
G01*
X283147860Y-99311039D01*
G75*
G02*
X283397859Y-99061040I249999J0D01*
G01*
X284047861Y-99061040D01*
G75*
G02*
X284297860Y-99311039I0J-249999D01*
G01*
G37*
%TD*%
%TO.C,R4*%
G36*
G01*
X204716800Y-202430801D02*
X204716800Y-201530799D01*
G75*
G02*
X204966799Y-201280800I249999J0D01*
G01*
X205616801Y-201280800D01*
G75*
G02*
X205866800Y-201530799I0J-249999D01*
G01*
X205866800Y-202430801D01*
G75*
G02*
X205616801Y-202680800I-249999J0D01*
G01*
X204966799Y-202680800D01*
G75*
G02*
X204716800Y-202430801I0J249999D01*
G01*
G37*
G36*
G01*
X202666800Y-202430801D02*
X202666800Y-201530799D01*
G75*
G02*
X202916799Y-201280800I249999J0D01*
G01*
X203566801Y-201280800D01*
G75*
G02*
X203816800Y-201530799I0J-249999D01*
G01*
X203816800Y-202430801D01*
G75*
G02*
X203566801Y-202680800I-249999J0D01*
G01*
X202916799Y-202680800D01*
G75*
G02*
X202666800Y-202430801I0J249999D01*
G01*
G37*
%TD*%
%TO.C,R5*%
G36*
G01*
X164988001Y-61244600D02*
X164087999Y-61244600D01*
G75*
G02*
X163838000Y-60994601I0J249999D01*
G01*
X163838000Y-60344599D01*
G75*
G02*
X164087999Y-60094600I249999J0D01*
G01*
X164988001Y-60094600D01*
G75*
G02*
X165238000Y-60344599I0J-249999D01*
G01*
X165238000Y-60994601D01*
G75*
G02*
X164988001Y-61244600I-249999J0D01*
G01*
G37*
G36*
G01*
X164988001Y-63294600D02*
X164087999Y-63294600D01*
G75*
G02*
X163838000Y-63044601I0J249999D01*
G01*
X163838000Y-62394599D01*
G75*
G02*
X164087999Y-62144600I249999J0D01*
G01*
X164988001Y-62144600D01*
G75*
G02*
X165238000Y-62394599I0J-249999D01*
G01*
X165238000Y-63044601D01*
G75*
G02*
X164988001Y-63294600I-249999J0D01*
G01*
G37*
%TD*%
%TO.C,R6*%
G36*
G01*
X249471601Y-216509400D02*
X248571599Y-216509400D01*
G75*
G02*
X248321600Y-216259401I0J249999D01*
G01*
X248321600Y-215609399D01*
G75*
G02*
X248571599Y-215359400I249999J0D01*
G01*
X249471601Y-215359400D01*
G75*
G02*
X249721600Y-215609399I0J-249999D01*
G01*
X249721600Y-216259401D01*
G75*
G02*
X249471601Y-216509400I-249999J0D01*
G01*
G37*
G36*
G01*
X249471601Y-214459400D02*
X248571599Y-214459400D01*
G75*
G02*
X248321600Y-214209401I0J249999D01*
G01*
X248321600Y-213559399D01*
G75*
G02*
X248571599Y-213309400I249999J0D01*
G01*
X249471601Y-213309400D01*
G75*
G02*
X249721600Y-213559399I0J-249999D01*
G01*
X249721600Y-214209401D01*
G75*
G02*
X249471601Y-214459400I-249999J0D01*
G01*
G37*
%TD*%
%TO.C,R7*%
G36*
G01*
X259248600Y-213697399D02*
X259248600Y-214597401D01*
G75*
G02*
X258998601Y-214847400I-249999J0D01*
G01*
X258348599Y-214847400D01*
G75*
G02*
X258098600Y-214597401I0J249999D01*
G01*
X258098600Y-213697399D01*
G75*
G02*
X258348599Y-213447400I249999J0D01*
G01*
X258998601Y-213447400D01*
G75*
G02*
X259248600Y-213697399I0J-249999D01*
G01*
G37*
G36*
G01*
X257198600Y-213697399D02*
X257198600Y-214597401D01*
G75*
G02*
X256948601Y-214847400I-249999J0D01*
G01*
X256298599Y-214847400D01*
G75*
G02*
X256048600Y-214597401I0J249999D01*
G01*
X256048600Y-213697399D01*
G75*
G02*
X256298599Y-213447400I249999J0D01*
G01*
X256948601Y-213447400D01*
G75*
G02*
X257198600Y-213697399I0J-249999D01*
G01*
G37*
%TD*%
%TO.C,R8*%
G36*
G01*
X172586700Y-65067001D02*
X172586700Y-64166999D01*
G75*
G02*
X172836699Y-63917000I249999J0D01*
G01*
X173486701Y-63917000D01*
G75*
G02*
X173736700Y-64166999I0J-249999D01*
G01*
X173736700Y-65067001D01*
G75*
G02*
X173486701Y-65317000I-249999J0D01*
G01*
X172836699Y-65317000D01*
G75*
G02*
X172586700Y-65067001I0J249999D01*
G01*
G37*
G36*
G01*
X170536700Y-65067001D02*
X170536700Y-64166999D01*
G75*
G02*
X170786699Y-63917000I249999J0D01*
G01*
X171436701Y-63917000D01*
G75*
G02*
X171686700Y-64166999I0J-249999D01*
G01*
X171686700Y-65067001D01*
G75*
G02*
X171436701Y-65317000I-249999J0D01*
G01*
X170786699Y-65317000D01*
G75*
G02*
X170536700Y-65067001I0J249999D01*
G01*
G37*
%TD*%
%TO.C,R9*%
G36*
G01*
X261271600Y-213697399D02*
X261271600Y-214597401D01*
G75*
G02*
X261021601Y-214847400I-249999J0D01*
G01*
X260371599Y-214847400D01*
G75*
G02*
X260121600Y-214597401I0J249999D01*
G01*
X260121600Y-213697399D01*
G75*
G02*
X260371599Y-213447400I249999J0D01*
G01*
X261021601Y-213447400D01*
G75*
G02*
X261271600Y-213697399I0J-249999D01*
G01*
G37*
G36*
G01*
X263321600Y-213697399D02*
X263321600Y-214597401D01*
G75*
G02*
X263071601Y-214847400I-249999J0D01*
G01*
X262421599Y-214847400D01*
G75*
G02*
X262171600Y-214597401I0J249999D01*
G01*
X262171600Y-213697399D01*
G75*
G02*
X262421599Y-213447400I249999J0D01*
G01*
X263071601Y-213447400D01*
G75*
G02*
X263321600Y-213697399I0J-249999D01*
G01*
G37*
%TD*%
%TO.C,R10*%
G36*
G01*
X267639600Y-213697399D02*
X267639600Y-214597401D01*
G75*
G02*
X267389601Y-214847400I-249999J0D01*
G01*
X266739599Y-214847400D01*
G75*
G02*
X266489600Y-214597401I0J249999D01*
G01*
X266489600Y-213697399D01*
G75*
G02*
X266739599Y-213447400I249999J0D01*
G01*
X267389601Y-213447400D01*
G75*
G02*
X267639600Y-213697399I0J-249999D01*
G01*
G37*
G36*
G01*
X265589600Y-213697399D02*
X265589600Y-214597401D01*
G75*
G02*
X265339601Y-214847400I-249999J0D01*
G01*
X264689599Y-214847400D01*
G75*
G02*
X264439600Y-214597401I0J249999D01*
G01*
X264439600Y-213697399D01*
G75*
G02*
X264689599Y-213447400I249999J0D01*
G01*
X265339601Y-213447400D01*
G75*
G02*
X265589600Y-213697399I0J-249999D01*
G01*
G37*
%TD*%
%TO.C,R11*%
G36*
G01*
X217155500Y-121292199D02*
X217155500Y-122192201D01*
G75*
G02*
X216905501Y-122442200I-249999J0D01*
G01*
X216255499Y-122442200D01*
G75*
G02*
X216005500Y-122192201I0J249999D01*
G01*
X216005500Y-121292199D01*
G75*
G02*
X216255499Y-121042200I249999J0D01*
G01*
X216905501Y-121042200D01*
G75*
G02*
X217155500Y-121292199I0J-249999D01*
G01*
G37*
G36*
G01*
X219205500Y-121292199D02*
X219205500Y-122192201D01*
G75*
G02*
X218955501Y-122442200I-249999J0D01*
G01*
X218305499Y-122442200D01*
G75*
G02*
X218055500Y-122192201I0J249999D01*
G01*
X218055500Y-121292199D01*
G75*
G02*
X218305499Y-121042200I249999J0D01*
G01*
X218955501Y-121042200D01*
G75*
G02*
X219205500Y-121292199I0J-249999D01*
G01*
G37*
%TD*%
%TO.C,R12*%
G36*
G01*
X198141900Y-143985401D02*
X198141900Y-143085399D01*
G75*
G02*
X198391899Y-142835400I249999J0D01*
G01*
X199041901Y-142835400D01*
G75*
G02*
X199291900Y-143085399I0J-249999D01*
G01*
X199291900Y-143985401D01*
G75*
G02*
X199041901Y-144235400I-249999J0D01*
G01*
X198391899Y-144235400D01*
G75*
G02*
X198141900Y-143985401I0J249999D01*
G01*
G37*
G36*
G01*
X196091900Y-143985401D02*
X196091900Y-143085399D01*
G75*
G02*
X196341899Y-142835400I249999J0D01*
G01*
X196991901Y-142835400D01*
G75*
G02*
X197241900Y-143085399I0J-249999D01*
G01*
X197241900Y-143985401D01*
G75*
G02*
X196991901Y-144235400I-249999J0D01*
G01*
X196341899Y-144235400D01*
G75*
G02*
X196091900Y-143985401I0J249999D01*
G01*
G37*
%TD*%
%TO.C,R13*%
G36*
G01*
X269907600Y-213697399D02*
X269907600Y-214597401D01*
G75*
G02*
X269657601Y-214847400I-249999J0D01*
G01*
X269007599Y-214847400D01*
G75*
G02*
X268757600Y-214597401I0J249999D01*
G01*
X268757600Y-213697399D01*
G75*
G02*
X269007599Y-213447400I249999J0D01*
G01*
X269657601Y-213447400D01*
G75*
G02*
X269907600Y-213697399I0J-249999D01*
G01*
G37*
G36*
G01*
X271957600Y-213697399D02*
X271957600Y-214597401D01*
G75*
G02*
X271707601Y-214847400I-249999J0D01*
G01*
X271057599Y-214847400D01*
G75*
G02*
X270807600Y-214597401I0J249999D01*
G01*
X270807600Y-213697399D01*
G75*
G02*
X271057599Y-213447400I249999J0D01*
G01*
X271707601Y-213447400D01*
G75*
G02*
X271957600Y-213697399I0J-249999D01*
G01*
G37*
%TD*%
%TO.C,R14*%
G36*
G01*
X121918200Y-129547199D02*
X121918200Y-130447201D01*
G75*
G02*
X121668201Y-130697200I-249999J0D01*
G01*
X121018199Y-130697200D01*
G75*
G02*
X120768200Y-130447201I0J249999D01*
G01*
X120768200Y-129547199D01*
G75*
G02*
X121018199Y-129297200I249999J0D01*
G01*
X121668201Y-129297200D01*
G75*
G02*
X121918200Y-129547199I0J-249999D01*
G01*
G37*
G36*
G01*
X123968200Y-129547199D02*
X123968200Y-130447201D01*
G75*
G02*
X123718201Y-130697200I-249999J0D01*
G01*
X123068199Y-130697200D01*
G75*
G02*
X122818200Y-130447201I0J249999D01*
G01*
X122818200Y-129547199D01*
G75*
G02*
X123068199Y-129297200I249999J0D01*
G01*
X123718201Y-129297200D01*
G75*
G02*
X123968200Y-129547199I0J-249999D01*
G01*
G37*
%TD*%
%TO.C,R15*%
G36*
G01*
X279785659Y-93095120D02*
X280685661Y-93095120D01*
G75*
G02*
X280935660Y-93345119I0J-249999D01*
G01*
X280935660Y-93995121D01*
G75*
G02*
X280685661Y-94245120I-249999J0D01*
G01*
X279785659Y-94245120D01*
G75*
G02*
X279535660Y-93995121I0J249999D01*
G01*
X279535660Y-93345119D01*
G75*
G02*
X279785659Y-93095120I249999J0D01*
G01*
G37*
G36*
G01*
X279785659Y-95145120D02*
X280685661Y-95145120D01*
G75*
G02*
X280935660Y-95395119I0J-249999D01*
G01*
X280935660Y-96045121D01*
G75*
G02*
X280685661Y-96295120I-249999J0D01*
G01*
X279785659Y-96295120D01*
G75*
G02*
X279535660Y-96045121I0J249999D01*
G01*
X279535660Y-95395119D01*
G75*
G02*
X279785659Y-95145120I249999J0D01*
G01*
G37*
%TD*%
%TO.C,R17*%
G36*
G01*
X138535500Y-74897401D02*
X138535500Y-73997399D01*
G75*
G02*
X138785499Y-73747400I249999J0D01*
G01*
X139435501Y-73747400D01*
G75*
G02*
X139685500Y-73997399I0J-249999D01*
G01*
X139685500Y-74897401D01*
G75*
G02*
X139435501Y-75147400I-249999J0D01*
G01*
X138785499Y-75147400D01*
G75*
G02*
X138535500Y-74897401I0J249999D01*
G01*
G37*
G36*
G01*
X140585500Y-74897401D02*
X140585500Y-73997399D01*
G75*
G02*
X140835499Y-73747400I249999J0D01*
G01*
X141485501Y-73747400D01*
G75*
G02*
X141735500Y-73997399I0J-249999D01*
G01*
X141735500Y-74897401D01*
G75*
G02*
X141485501Y-75147400I-249999J0D01*
G01*
X140835499Y-75147400D01*
G75*
G02*
X140585500Y-74897401I0J249999D01*
G01*
G37*
%TD*%
%TO.C,R18*%
G36*
G01*
X143291139Y-77535080D02*
X144191141Y-77535080D01*
G75*
G02*
X144441140Y-77785079I0J-249999D01*
G01*
X144441140Y-78435081D01*
G75*
G02*
X144191141Y-78685080I-249999J0D01*
G01*
X143291139Y-78685080D01*
G75*
G02*
X143041140Y-78435081I0J249999D01*
G01*
X143041140Y-77785079D01*
G75*
G02*
X143291139Y-77535080I249999J0D01*
G01*
G37*
G36*
G01*
X143291139Y-75485080D02*
X144191141Y-75485080D01*
G75*
G02*
X144441140Y-75735079I0J-249999D01*
G01*
X144441140Y-76385081D01*
G75*
G02*
X144191141Y-76635080I-249999J0D01*
G01*
X143291139Y-76635080D01*
G75*
G02*
X143041140Y-76385081I0J249999D01*
G01*
X143041140Y-75735079D01*
G75*
G02*
X143291139Y-75485080I249999J0D01*
G01*
G37*
%TD*%
%TO.C,R19*%
G36*
G01*
X169011701Y-63292000D02*
X168111699Y-63292000D01*
G75*
G02*
X167861700Y-63042001I0J249999D01*
G01*
X167861700Y-62391999D01*
G75*
G02*
X168111699Y-62142000I249999J0D01*
G01*
X169011701Y-62142000D01*
G75*
G02*
X169261700Y-62391999I0J-249999D01*
G01*
X169261700Y-63042001D01*
G75*
G02*
X169011701Y-63292000I-249999J0D01*
G01*
G37*
G36*
G01*
X169011701Y-61242000D02*
X168111699Y-61242000D01*
G75*
G02*
X167861700Y-60992001I0J249999D01*
G01*
X167861700Y-60341999D01*
G75*
G02*
X168111699Y-60092000I249999J0D01*
G01*
X169011701Y-60092000D01*
G75*
G02*
X169261700Y-60341999I0J-249999D01*
G01*
X169261700Y-60992001D01*
G75*
G02*
X169011701Y-61242000I-249999J0D01*
G01*
G37*
%TD*%
%TO.C,R20*%
G36*
G01*
X164988001Y-65308600D02*
X164087999Y-65308600D01*
G75*
G02*
X163838000Y-65058601I0J249999D01*
G01*
X163838000Y-64408599D01*
G75*
G02*
X164087999Y-64158600I249999J0D01*
G01*
X164988001Y-64158600D01*
G75*
G02*
X165238000Y-64408599I0J-249999D01*
G01*
X165238000Y-65058601D01*
G75*
G02*
X164988001Y-65308600I-249999J0D01*
G01*
G37*
G36*
G01*
X164988001Y-67358600D02*
X164087999Y-67358600D01*
G75*
G02*
X163838000Y-67108601I0J249999D01*
G01*
X163838000Y-66458599D01*
G75*
G02*
X164087999Y-66208600I249999J0D01*
G01*
X164988001Y-66208600D01*
G75*
G02*
X165238000Y-66458599I0J-249999D01*
G01*
X165238000Y-67108601D01*
G75*
G02*
X164988001Y-67358600I-249999J0D01*
G01*
G37*
%TD*%
%TO.C,R21*%
G36*
G01*
X131626300Y-62618199D02*
X131626300Y-63518201D01*
G75*
G02*
X131376301Y-63768200I-249999J0D01*
G01*
X130726299Y-63768200D01*
G75*
G02*
X130476300Y-63518201I0J249999D01*
G01*
X130476300Y-62618199D01*
G75*
G02*
X130726299Y-62368200I249999J0D01*
G01*
X131376301Y-62368200D01*
G75*
G02*
X131626300Y-62618199I0J-249999D01*
G01*
G37*
G36*
G01*
X129576300Y-62618199D02*
X129576300Y-63518201D01*
G75*
G02*
X129326301Y-63768200I-249999J0D01*
G01*
X128676299Y-63768200D01*
G75*
G02*
X128426300Y-63518201I0J249999D01*
G01*
X128426300Y-62618199D01*
G75*
G02*
X128676299Y-62368200I249999J0D01*
G01*
X129326301Y-62368200D01*
G75*
G02*
X129576300Y-62618199I0J-249999D01*
G01*
G37*
%TD*%
%TO.C,R22*%
G36*
G01*
X142061700Y-61166999D02*
X142061700Y-62067001D01*
G75*
G02*
X141811701Y-62317000I-249999J0D01*
G01*
X141161699Y-62317000D01*
G75*
G02*
X140911700Y-62067001I0J249999D01*
G01*
X140911700Y-61166999D01*
G75*
G02*
X141161699Y-60917000I249999J0D01*
G01*
X141811701Y-60917000D01*
G75*
G02*
X142061700Y-61166999I0J-249999D01*
G01*
G37*
G36*
G01*
X140011700Y-61166999D02*
X140011700Y-62067001D01*
G75*
G02*
X139761701Y-62317000I-249999J0D01*
G01*
X139111699Y-62317000D01*
G75*
G02*
X138861700Y-62067001I0J249999D01*
G01*
X138861700Y-61166999D01*
G75*
G02*
X139111699Y-60917000I249999J0D01*
G01*
X139761701Y-60917000D01*
G75*
G02*
X140011700Y-61166999I0J-249999D01*
G01*
G37*
%TD*%
%TO.C,R23*%
G36*
G01*
X148259600Y-62237199D02*
X148259600Y-63137201D01*
G75*
G02*
X148009601Y-63387200I-249999J0D01*
G01*
X147359599Y-63387200D01*
G75*
G02*
X147109600Y-63137201I0J249999D01*
G01*
X147109600Y-62237199D01*
G75*
G02*
X147359599Y-61987200I249999J0D01*
G01*
X148009601Y-61987200D01*
G75*
G02*
X148259600Y-62237199I0J-249999D01*
G01*
G37*
G36*
G01*
X146209600Y-62237199D02*
X146209600Y-63137201D01*
G75*
G02*
X145959601Y-63387200I-249999J0D01*
G01*
X145309599Y-63387200D01*
G75*
G02*
X145059600Y-63137201I0J249999D01*
G01*
X145059600Y-62237199D01*
G75*
G02*
X145309599Y-61987200I249999J0D01*
G01*
X145959601Y-61987200D01*
G75*
G02*
X146209600Y-62237199I0J-249999D01*
G01*
G37*
%TD*%
%TO.C,R24*%
G36*
G01*
X145911701Y-69792000D02*
X145011699Y-69792000D01*
G75*
G02*
X144761700Y-69542001I0J249999D01*
G01*
X144761700Y-68891999D01*
G75*
G02*
X145011699Y-68642000I249999J0D01*
G01*
X145911701Y-68642000D01*
G75*
G02*
X146161700Y-68891999I0J-249999D01*
G01*
X146161700Y-69542001D01*
G75*
G02*
X145911701Y-69792000I-249999J0D01*
G01*
G37*
G36*
G01*
X145911701Y-67742000D02*
X145011699Y-67742000D01*
G75*
G02*
X144761700Y-67492001I0J249999D01*
G01*
X144761700Y-66841999D01*
G75*
G02*
X145011699Y-66592000I249999J0D01*
G01*
X145911701Y-66592000D01*
G75*
G02*
X146161700Y-66841999I0J-249999D01*
G01*
X146161700Y-67492001D01*
G75*
G02*
X145911701Y-67742000I-249999J0D01*
G01*
G37*
%TD*%
%TO.C,R26*%
G36*
G01*
X151711701Y-63542000D02*
X150811699Y-63542000D01*
G75*
G02*
X150561700Y-63292001I0J249999D01*
G01*
X150561700Y-62641999D01*
G75*
G02*
X150811699Y-62392000I249999J0D01*
G01*
X151711701Y-62392000D01*
G75*
G02*
X151961700Y-62641999I0J-249999D01*
G01*
X151961700Y-63292001D01*
G75*
G02*
X151711701Y-63542000I-249999J0D01*
G01*
G37*
G36*
G01*
X151711701Y-65592000D02*
X150811699Y-65592000D01*
G75*
G02*
X150561700Y-65342001I0J249999D01*
G01*
X150561700Y-64691999D01*
G75*
G02*
X150811699Y-64442000I249999J0D01*
G01*
X151711701Y-64442000D01*
G75*
G02*
X151961700Y-64691999I0J-249999D01*
G01*
X151961700Y-65342001D01*
G75*
G02*
X151711701Y-65592000I-249999J0D01*
G01*
G37*
%TD*%
%TO.C,R27*%
G36*
G01*
X135836700Y-61166999D02*
X135836700Y-62067001D01*
G75*
G02*
X135586701Y-62317000I-249999J0D01*
G01*
X134936699Y-62317000D01*
G75*
G02*
X134686700Y-62067001I0J249999D01*
G01*
X134686700Y-61166999D01*
G75*
G02*
X134936699Y-60917000I249999J0D01*
G01*
X135586701Y-60917000D01*
G75*
G02*
X135836700Y-61166999I0J-249999D01*
G01*
G37*
G36*
G01*
X133786700Y-61166999D02*
X133786700Y-62067001D01*
G75*
G02*
X133536701Y-62317000I-249999J0D01*
G01*
X132886699Y-62317000D01*
G75*
G02*
X132636700Y-62067001I0J249999D01*
G01*
X132636700Y-61166999D01*
G75*
G02*
X132886699Y-60917000I249999J0D01*
G01*
X133536701Y-60917000D01*
G75*
G02*
X133786700Y-61166999I0J-249999D01*
G01*
G37*
%TD*%
%TO.C,R28*%
G36*
G01*
X246186701Y-74142000D02*
X245286699Y-74142000D01*
G75*
G02*
X245036700Y-73892001I0J249999D01*
G01*
X245036700Y-73241999D01*
G75*
G02*
X245286699Y-72992000I249999J0D01*
G01*
X246186701Y-72992000D01*
G75*
G02*
X246436700Y-73241999I0J-249999D01*
G01*
X246436700Y-73892001D01*
G75*
G02*
X246186701Y-74142000I-249999J0D01*
G01*
G37*
G36*
G01*
X246186701Y-72092000D02*
X245286699Y-72092000D01*
G75*
G02*
X245036700Y-71842001I0J249999D01*
G01*
X245036700Y-71191999D01*
G75*
G02*
X245286699Y-70942000I249999J0D01*
G01*
X246186701Y-70942000D01*
G75*
G02*
X246436700Y-71191999I0J-249999D01*
G01*
X246436700Y-71842001D01*
G75*
G02*
X246186701Y-72092000I-249999J0D01*
G01*
G37*
%TD*%
%TO.C,R29*%
G36*
G01*
X171586700Y-60266999D02*
X171586700Y-61167001D01*
G75*
G02*
X171336701Y-61417000I-249999J0D01*
G01*
X170686699Y-61417000D01*
G75*
G02*
X170436700Y-61167001I0J249999D01*
G01*
X170436700Y-60266999D01*
G75*
G02*
X170686699Y-60017000I249999J0D01*
G01*
X171336701Y-60017000D01*
G75*
G02*
X171586700Y-60266999I0J-249999D01*
G01*
G37*
G36*
G01*
X173636700Y-60266999D02*
X173636700Y-61167001D01*
G75*
G02*
X173386701Y-61417000I-249999J0D01*
G01*
X172736699Y-61417000D01*
G75*
G02*
X172486700Y-61167001I0J249999D01*
G01*
X172486700Y-60266999D01*
G75*
G02*
X172736699Y-60017000I249999J0D01*
G01*
X173386701Y-60017000D01*
G75*
G02*
X173636700Y-60266999I0J-249999D01*
G01*
G37*
%TD*%
%TO.C,R30*%
G36*
G01*
X173886700Y-72467001D02*
X173886700Y-71566999D01*
G75*
G02*
X174136699Y-71317000I249999J0D01*
G01*
X174786701Y-71317000D01*
G75*
G02*
X175036700Y-71566999I0J-249999D01*
G01*
X175036700Y-72467001D01*
G75*
G02*
X174786701Y-72717000I-249999J0D01*
G01*
X174136699Y-72717000D01*
G75*
G02*
X173886700Y-72467001I0J249999D01*
G01*
G37*
G36*
G01*
X175936700Y-72467001D02*
X175936700Y-71566999D01*
G75*
G02*
X176186699Y-71317000I249999J0D01*
G01*
X176836701Y-71317000D01*
G75*
G02*
X177086700Y-71566999I0J-249999D01*
G01*
X177086700Y-72467001D01*
G75*
G02*
X176836701Y-72717000I-249999J0D01*
G01*
X176186699Y-72717000D01*
G75*
G02*
X175936700Y-72467001I0J249999D01*
G01*
G37*
%TD*%
%TO.C,R31*%
G36*
G01*
X177086700Y-73966999D02*
X177086700Y-74867001D01*
G75*
G02*
X176836701Y-75117000I-249999J0D01*
G01*
X176186699Y-75117000D01*
G75*
G02*
X175936700Y-74867001I0J249999D01*
G01*
X175936700Y-73966999D01*
G75*
G02*
X176186699Y-73717000I249999J0D01*
G01*
X176836701Y-73717000D01*
G75*
G02*
X177086700Y-73966999I0J-249999D01*
G01*
G37*
G36*
G01*
X175036700Y-73966999D02*
X175036700Y-74867001D01*
G75*
G02*
X174786701Y-75117000I-249999J0D01*
G01*
X174136699Y-75117000D01*
G75*
G02*
X173886700Y-74867001I0J249999D01*
G01*
X173886700Y-73966999D01*
G75*
G02*
X174136699Y-73717000I249999J0D01*
G01*
X174786701Y-73717000D01*
G75*
G02*
X175036700Y-73966999I0J-249999D01*
G01*
G37*
%TD*%
%TO.C,R32*%
G36*
G01*
X189861701Y-73692000D02*
X188961699Y-73692000D01*
G75*
G02*
X188711700Y-73442001I0J249999D01*
G01*
X188711700Y-72791999D01*
G75*
G02*
X188961699Y-72542000I249999J0D01*
G01*
X189861701Y-72542000D01*
G75*
G02*
X190111700Y-72791999I0J-249999D01*
G01*
X190111700Y-73442001D01*
G75*
G02*
X189861701Y-73692000I-249999J0D01*
G01*
G37*
G36*
G01*
X189861701Y-71642000D02*
X188961699Y-71642000D01*
G75*
G02*
X188711700Y-71392001I0J249999D01*
G01*
X188711700Y-70741999D01*
G75*
G02*
X188961699Y-70492000I249999J0D01*
G01*
X189861701Y-70492000D01*
G75*
G02*
X190111700Y-70741999I0J-249999D01*
G01*
X190111700Y-71392001D01*
G75*
G02*
X189861701Y-71642000I-249999J0D01*
G01*
G37*
%TD*%
%TO.C,R33*%
G36*
G01*
X155435100Y-159976399D02*
X155435100Y-160876401D01*
G75*
G02*
X155185101Y-161126400I-249999J0D01*
G01*
X154535099Y-161126400D01*
G75*
G02*
X154285100Y-160876401I0J249999D01*
G01*
X154285100Y-159976399D01*
G75*
G02*
X154535099Y-159726400I249999J0D01*
G01*
X155185101Y-159726400D01*
G75*
G02*
X155435100Y-159976399I0J-249999D01*
G01*
G37*
G36*
G01*
X153385100Y-159976399D02*
X153385100Y-160876401D01*
G75*
G02*
X153135101Y-161126400I-249999J0D01*
G01*
X152485099Y-161126400D01*
G75*
G02*
X152235100Y-160876401I0J249999D01*
G01*
X152235100Y-159976399D01*
G75*
G02*
X152485099Y-159726400I249999J0D01*
G01*
X153135101Y-159726400D01*
G75*
G02*
X153385100Y-159976399I0J-249999D01*
G01*
G37*
%TD*%
%TO.C,R34*%
G36*
G01*
X189761701Y-66292000D02*
X188861699Y-66292000D01*
G75*
G02*
X188611700Y-66042001I0J249999D01*
G01*
X188611700Y-65391999D01*
G75*
G02*
X188861699Y-65142000I249999J0D01*
G01*
X189761701Y-65142000D01*
G75*
G02*
X190011700Y-65391999I0J-249999D01*
G01*
X190011700Y-66042001D01*
G75*
G02*
X189761701Y-66292000I-249999J0D01*
G01*
G37*
G36*
G01*
X189761701Y-68342000D02*
X188861699Y-68342000D01*
G75*
G02*
X188611700Y-68092001I0J249999D01*
G01*
X188611700Y-67441999D01*
G75*
G02*
X188861699Y-67192000I249999J0D01*
G01*
X189761701Y-67192000D01*
G75*
G02*
X190011700Y-67441999I0J-249999D01*
G01*
X190011700Y-68092001D01*
G75*
G02*
X189761701Y-68342000I-249999J0D01*
G01*
G37*
%TD*%
%TO.C,R35*%
G36*
G01*
X195703500Y-66312201D02*
X195703500Y-65412199D01*
G75*
G02*
X195953499Y-65162200I249999J0D01*
G01*
X196603501Y-65162200D01*
G75*
G02*
X196853500Y-65412199I0J-249999D01*
G01*
X196853500Y-66312201D01*
G75*
G02*
X196603501Y-66562200I-249999J0D01*
G01*
X195953499Y-66562200D01*
G75*
G02*
X195703500Y-66312201I0J249999D01*
G01*
G37*
G36*
G01*
X193653500Y-66312201D02*
X193653500Y-65412199D01*
G75*
G02*
X193903499Y-65162200I249999J0D01*
G01*
X194553501Y-65162200D01*
G75*
G02*
X194803500Y-65412199I0J-249999D01*
G01*
X194803500Y-66312201D01*
G75*
G02*
X194553501Y-66562200I-249999J0D01*
G01*
X193903499Y-66562200D01*
G75*
G02*
X193653500Y-66312201I0J249999D01*
G01*
G37*
%TD*%
%TO.C,R36*%
G36*
G01*
X221511701Y-79442000D02*
X220611699Y-79442000D01*
G75*
G02*
X220361700Y-79192001I0J249999D01*
G01*
X220361700Y-78541999D01*
G75*
G02*
X220611699Y-78292000I249999J0D01*
G01*
X221511701Y-78292000D01*
G75*
G02*
X221761700Y-78541999I0J-249999D01*
G01*
X221761700Y-79192001D01*
G75*
G02*
X221511701Y-79442000I-249999J0D01*
G01*
G37*
G36*
G01*
X221511701Y-77392000D02*
X220611699Y-77392000D01*
G75*
G02*
X220361700Y-77142001I0J249999D01*
G01*
X220361700Y-76491999D01*
G75*
G02*
X220611699Y-76242000I249999J0D01*
G01*
X221511701Y-76242000D01*
G75*
G02*
X221761700Y-76491999I0J-249999D01*
G01*
X221761700Y-77142001D01*
G75*
G02*
X221511701Y-77392000I-249999J0D01*
G01*
G37*
%TD*%
%TO.C,R37*%
G36*
G01*
X217061701Y-78992000D02*
X216161699Y-78992000D01*
G75*
G02*
X215911700Y-78742001I0J249999D01*
G01*
X215911700Y-78091999D01*
G75*
G02*
X216161699Y-77842000I249999J0D01*
G01*
X217061701Y-77842000D01*
G75*
G02*
X217311700Y-78091999I0J-249999D01*
G01*
X217311700Y-78742001D01*
G75*
G02*
X217061701Y-78992000I-249999J0D01*
G01*
G37*
G36*
G01*
X217061701Y-81042000D02*
X216161699Y-81042000D01*
G75*
G02*
X215911700Y-80792001I0J249999D01*
G01*
X215911700Y-80141999D01*
G75*
G02*
X216161699Y-79892000I249999J0D01*
G01*
X217061701Y-79892000D01*
G75*
G02*
X217311700Y-80141999I0J-249999D01*
G01*
X217311700Y-80792001D01*
G75*
G02*
X217061701Y-81042000I-249999J0D01*
G01*
G37*
%TD*%
%TO.C,R38*%
G36*
G01*
X257026100Y-140100899D02*
X257026100Y-141000901D01*
G75*
G02*
X256776101Y-141250900I-249999J0D01*
G01*
X256126099Y-141250900D01*
G75*
G02*
X255876100Y-141000901I0J249999D01*
G01*
X255876100Y-140100899D01*
G75*
G02*
X256126099Y-139850900I249999J0D01*
G01*
X256776101Y-139850900D01*
G75*
G02*
X257026100Y-140100899I0J-249999D01*
G01*
G37*
G36*
G01*
X259076100Y-140100899D02*
X259076100Y-141000901D01*
G75*
G02*
X258826101Y-141250900I-249999J0D01*
G01*
X258176099Y-141250900D01*
G75*
G02*
X257926100Y-141000901I0J249999D01*
G01*
X257926100Y-140100899D01*
G75*
G02*
X258176099Y-139850900I249999J0D01*
G01*
X258826101Y-139850900D01*
G75*
G02*
X259076100Y-140100899I0J-249999D01*
G01*
G37*
%TD*%
%TO.C,R39*%
G36*
G01*
X151136700Y-76867001D02*
X151136700Y-75966999D01*
G75*
G02*
X151386699Y-75717000I249999J0D01*
G01*
X152036701Y-75717000D01*
G75*
G02*
X152286700Y-75966999I0J-249999D01*
G01*
X152286700Y-76867001D01*
G75*
G02*
X152036701Y-77117000I-249999J0D01*
G01*
X151386699Y-77117000D01*
G75*
G02*
X151136700Y-76867001I0J249999D01*
G01*
G37*
G36*
G01*
X149086700Y-76867450D02*
X149086700Y-75966550D01*
G75*
G02*
X149336250Y-75717000I249550J0D01*
G01*
X149987150Y-75717000D01*
G75*
G02*
X150236700Y-75966550I0J-249550D01*
G01*
X150236700Y-76867450D01*
G75*
G02*
X149987150Y-77117000I-249550J0D01*
G01*
X149336250Y-77117000D01*
G75*
G02*
X149086700Y-76867450I0J249550D01*
G01*
G37*
%TD*%
%TO.C,R40*%
G36*
G01*
X148961700Y-74167001D02*
X148961700Y-73266999D01*
G75*
G02*
X149211699Y-73017000I249999J0D01*
G01*
X149861701Y-73017000D01*
G75*
G02*
X150111700Y-73266999I0J-249999D01*
G01*
X150111700Y-74167001D01*
G75*
G02*
X149861701Y-74417000I-249999J0D01*
G01*
X149211699Y-74417000D01*
G75*
G02*
X148961700Y-74167001I0J249999D01*
G01*
G37*
G36*
G01*
X151011700Y-74167001D02*
X151011700Y-73266999D01*
G75*
G02*
X151261699Y-73017000I249999J0D01*
G01*
X151911701Y-73017000D01*
G75*
G02*
X152161700Y-73266999I0J-249999D01*
G01*
X152161700Y-74167001D01*
G75*
G02*
X151911701Y-74417000I-249999J0D01*
G01*
X151261699Y-74417000D01*
G75*
G02*
X151011700Y-74167001I0J249999D01*
G01*
G37*
%TD*%
%TO.C,R41*%
G36*
G01*
X218561700Y-67941999D02*
X218561700Y-68842001D01*
G75*
G02*
X218311701Y-69092000I-249999J0D01*
G01*
X217661699Y-69092000D01*
G75*
G02*
X217411700Y-68842001I0J249999D01*
G01*
X217411700Y-67941999D01*
G75*
G02*
X217661699Y-67692000I249999J0D01*
G01*
X218311701Y-67692000D01*
G75*
G02*
X218561700Y-67941999I0J-249999D01*
G01*
G37*
G36*
G01*
X216511700Y-67941999D02*
X216511700Y-68842001D01*
G75*
G02*
X216261701Y-69092000I-249999J0D01*
G01*
X215611699Y-69092000D01*
G75*
G02*
X215361700Y-68842001I0J249999D01*
G01*
X215361700Y-67941999D01*
G75*
G02*
X215611699Y-67692000I249999J0D01*
G01*
X216261701Y-67692000D01*
G75*
G02*
X216511700Y-67941999I0J-249999D01*
G01*
G37*
%TD*%
%TO.C,R42*%
G36*
G01*
X259439100Y-144291899D02*
X259439100Y-145191901D01*
G75*
G02*
X259189101Y-145441900I-249999J0D01*
G01*
X258539099Y-145441900D01*
G75*
G02*
X258289100Y-145191901I0J249999D01*
G01*
X258289100Y-144291899D01*
G75*
G02*
X258539099Y-144041900I249999J0D01*
G01*
X259189101Y-144041900D01*
G75*
G02*
X259439100Y-144291899I0J-249999D01*
G01*
G37*
G36*
G01*
X261489100Y-144291899D02*
X261489100Y-145191901D01*
G75*
G02*
X261239101Y-145441900I-249999J0D01*
G01*
X260589099Y-145441900D01*
G75*
G02*
X260339100Y-145191901I0J249999D01*
G01*
X260339100Y-144291899D01*
G75*
G02*
X260589099Y-144041900I249999J0D01*
G01*
X261239101Y-144041900D01*
G75*
G02*
X261489100Y-144291899I0J-249999D01*
G01*
G37*
%TD*%
%TO.C,R43*%
G36*
G01*
X153436700Y-76867001D02*
X153436700Y-75966999D01*
G75*
G02*
X153686699Y-75717000I249999J0D01*
G01*
X154336701Y-75717000D01*
G75*
G02*
X154586700Y-75966999I0J-249999D01*
G01*
X154586700Y-76867001D01*
G75*
G02*
X154336701Y-77117000I-249999J0D01*
G01*
X153686699Y-77117000D01*
G75*
G02*
X153436700Y-76867001I0J249999D01*
G01*
G37*
G36*
G01*
X155486700Y-76867001D02*
X155486700Y-75966999D01*
G75*
G02*
X155736699Y-75717000I249999J0D01*
G01*
X156386701Y-75717000D01*
G75*
G02*
X156636700Y-75966999I0J-249999D01*
G01*
X156636700Y-76867001D01*
G75*
G02*
X156386701Y-77117000I-249999J0D01*
G01*
X155736699Y-77117000D01*
G75*
G02*
X155486700Y-76867001I0J249999D01*
G01*
G37*
%TD*%
%TO.C,R44*%
G36*
G01*
X244913999Y-147913400D02*
X245814001Y-147913400D01*
G75*
G02*
X246064000Y-148163399I0J-249999D01*
G01*
X246064000Y-148813401D01*
G75*
G02*
X245814001Y-149063400I-249999J0D01*
G01*
X244913999Y-149063400D01*
G75*
G02*
X244664000Y-148813401I0J249999D01*
G01*
X244664000Y-148163399D01*
G75*
G02*
X244913999Y-147913400I249999J0D01*
G01*
G37*
G36*
G01*
X244913999Y-145863400D02*
X245814001Y-145863400D01*
G75*
G02*
X246064000Y-146113399I0J-249999D01*
G01*
X246064000Y-146763401D01*
G75*
G02*
X245814001Y-147013400I-249999J0D01*
G01*
X244913999Y-147013400D01*
G75*
G02*
X244664000Y-146763401I0J249999D01*
G01*
X244664000Y-146113399D01*
G75*
G02*
X244913999Y-145863400I249999J0D01*
G01*
G37*
%TD*%
%TO.C,R45*%
G36*
G01*
X147108000Y-150589401D02*
X147108000Y-149689399D01*
G75*
G02*
X147357999Y-149439400I249999J0D01*
G01*
X148008001Y-149439400D01*
G75*
G02*
X148258000Y-149689399I0J-249999D01*
G01*
X148258000Y-150589401D01*
G75*
G02*
X148008001Y-150839400I-249999J0D01*
G01*
X147357999Y-150839400D01*
G75*
G02*
X147108000Y-150589401I0J249999D01*
G01*
G37*
G36*
G01*
X149158000Y-150589401D02*
X149158000Y-149689399D01*
G75*
G02*
X149407999Y-149439400I249999J0D01*
G01*
X150058001Y-149439400D01*
G75*
G02*
X150308000Y-149689399I0J-249999D01*
G01*
X150308000Y-150589401D01*
G75*
G02*
X150058001Y-150839400I-249999J0D01*
G01*
X149407999Y-150839400D01*
G75*
G02*
X149158000Y-150589401I0J249999D01*
G01*
G37*
%TD*%
%TO.C,R46*%
G36*
G01*
X177959599Y-182321400D02*
X178859601Y-182321400D01*
G75*
G02*
X179109600Y-182571399I0J-249999D01*
G01*
X179109600Y-183221401D01*
G75*
G02*
X178859601Y-183471400I-249999J0D01*
G01*
X177959599Y-183471400D01*
G75*
G02*
X177709600Y-183221401I0J249999D01*
G01*
X177709600Y-182571399D01*
G75*
G02*
X177959599Y-182321400I249999J0D01*
G01*
G37*
G36*
G01*
X177959599Y-184371400D02*
X178859601Y-184371400D01*
G75*
G02*
X179109600Y-184621399I0J-249999D01*
G01*
X179109600Y-185271401D01*
G75*
G02*
X178859601Y-185521400I-249999J0D01*
G01*
X177959599Y-185521400D01*
G75*
G02*
X177709600Y-185271401I0J249999D01*
G01*
X177709600Y-184621399D01*
G75*
G02*
X177959599Y-184371400I249999J0D01*
G01*
G37*
%TD*%
%TO.C,R47*%
G36*
G01*
X135017600Y-160939901D02*
X135017600Y-160039899D01*
G75*
G02*
X135267599Y-159789900I249999J0D01*
G01*
X135917601Y-159789900D01*
G75*
G02*
X136167600Y-160039899I0J-249999D01*
G01*
X136167600Y-160939901D01*
G75*
G02*
X135917601Y-161189900I-249999J0D01*
G01*
X135267599Y-161189900D01*
G75*
G02*
X135017600Y-160939901I0J249999D01*
G01*
G37*
G36*
G01*
X137067600Y-160939901D02*
X137067600Y-160039899D01*
G75*
G02*
X137317599Y-159789900I249999J0D01*
G01*
X137967601Y-159789900D01*
G75*
G02*
X138217600Y-160039899I0J-249999D01*
G01*
X138217600Y-160939901D01*
G75*
G02*
X137967601Y-161189900I-249999J0D01*
G01*
X137317599Y-161189900D01*
G75*
G02*
X137067600Y-160939901I0J249999D01*
G01*
G37*
%TD*%
%TO.C,R48*%
G36*
G01*
X224536700Y-103791999D02*
X224536700Y-104692001D01*
G75*
G02*
X224286701Y-104942000I-249999J0D01*
G01*
X223636699Y-104942000D01*
G75*
G02*
X223386700Y-104692001I0J249999D01*
G01*
X223386700Y-103791999D01*
G75*
G02*
X223636699Y-103542000I249999J0D01*
G01*
X224286701Y-103542000D01*
G75*
G02*
X224536700Y-103791999I0J-249999D01*
G01*
G37*
G36*
G01*
X226586700Y-103791999D02*
X226586700Y-104692001D01*
G75*
G02*
X226336701Y-104942000I-249999J0D01*
G01*
X225686699Y-104942000D01*
G75*
G02*
X225436700Y-104692001I0J249999D01*
G01*
X225436700Y-103791999D01*
G75*
G02*
X225686699Y-103542000I249999J0D01*
G01*
X226336701Y-103542000D01*
G75*
G02*
X226586700Y-103791999I0J-249999D01*
G01*
G37*
%TD*%
%TO.C,R49*%
G36*
G01*
X221087101Y-107296800D02*
X220187099Y-107296800D01*
G75*
G02*
X219937100Y-107046801I0J249999D01*
G01*
X219937100Y-106396799D01*
G75*
G02*
X220187099Y-106146800I249999J0D01*
G01*
X221087101Y-106146800D01*
G75*
G02*
X221337100Y-106396799I0J-249999D01*
G01*
X221337100Y-107046801D01*
G75*
G02*
X221087101Y-107296800I-249999J0D01*
G01*
G37*
G36*
G01*
X221087101Y-109346800D02*
X220187099Y-109346800D01*
G75*
G02*
X219937100Y-109096801I0J249999D01*
G01*
X219937100Y-108446799D01*
G75*
G02*
X220187099Y-108196800I249999J0D01*
G01*
X221087101Y-108196800D01*
G75*
G02*
X221337100Y-108446799I0J-249999D01*
G01*
X221337100Y-109096801D01*
G75*
G02*
X221087101Y-109346800I-249999J0D01*
G01*
G37*
%TD*%
%TO.C,R50*%
G36*
G01*
X246931600Y-174719401D02*
X246931600Y-173819399D01*
G75*
G02*
X247181599Y-173569400I249999J0D01*
G01*
X247831601Y-173569400D01*
G75*
G02*
X248081600Y-173819399I0J-249999D01*
G01*
X248081600Y-174719401D01*
G75*
G02*
X247831601Y-174969400I-249999J0D01*
G01*
X247181599Y-174969400D01*
G75*
G02*
X246931600Y-174719401I0J249999D01*
G01*
G37*
G36*
G01*
X244881600Y-174719401D02*
X244881600Y-173819399D01*
G75*
G02*
X245131599Y-173569400I249999J0D01*
G01*
X245781601Y-173569400D01*
G75*
G02*
X246031600Y-173819399I0J-249999D01*
G01*
X246031600Y-174719401D01*
G75*
G02*
X245781601Y-174969400I-249999J0D01*
G01*
X245131599Y-174969400D01*
G75*
G02*
X244881600Y-174719401I0J249999D01*
G01*
G37*
%TD*%
%TO.C,R51*%
G36*
G01*
X241459599Y-172678400D02*
X242359601Y-172678400D01*
G75*
G02*
X242609600Y-172928399I0J-249999D01*
G01*
X242609600Y-173578401D01*
G75*
G02*
X242359601Y-173828400I-249999J0D01*
G01*
X241459599Y-173828400D01*
G75*
G02*
X241209600Y-173578401I0J249999D01*
G01*
X241209600Y-172928399D01*
G75*
G02*
X241459599Y-172678400I249999J0D01*
G01*
G37*
G36*
G01*
X241459599Y-174728400D02*
X242359601Y-174728400D01*
G75*
G02*
X242609600Y-174978399I0J-249999D01*
G01*
X242609600Y-175628401D01*
G75*
G02*
X242359601Y-175878400I-249999J0D01*
G01*
X241459599Y-175878400D01*
G75*
G02*
X241209600Y-175628401I0J249999D01*
G01*
X241209600Y-174978399D01*
G75*
G02*
X241459599Y-174728400I249999J0D01*
G01*
G37*
%TD*%
%TO.C,R52*%
G36*
G01*
X271489700Y-150183001D02*
X271489700Y-149282999D01*
G75*
G02*
X271739699Y-149033000I249999J0D01*
G01*
X272389701Y-149033000D01*
G75*
G02*
X272639700Y-149282999I0J-249999D01*
G01*
X272639700Y-150183001D01*
G75*
G02*
X272389701Y-150433000I-249999J0D01*
G01*
X271739699Y-150433000D01*
G75*
G02*
X271489700Y-150183001I0J249999D01*
G01*
G37*
G36*
G01*
X269439700Y-150183001D02*
X269439700Y-149282999D01*
G75*
G02*
X269689699Y-149033000I249999J0D01*
G01*
X270339701Y-149033000D01*
G75*
G02*
X270589700Y-149282999I0J-249999D01*
G01*
X270589700Y-150183001D01*
G75*
G02*
X270339701Y-150433000I-249999J0D01*
G01*
X269689699Y-150433000D01*
G75*
G02*
X269439700Y-150183001I0J249999D01*
G01*
G37*
%TD*%
%TO.C,R53*%
G36*
G01*
X251111599Y-200881400D02*
X252011601Y-200881400D01*
G75*
G02*
X252261600Y-201131399I0J-249999D01*
G01*
X252261600Y-201781401D01*
G75*
G02*
X252011601Y-202031400I-249999J0D01*
G01*
X251111599Y-202031400D01*
G75*
G02*
X250861600Y-201781401I0J249999D01*
G01*
X250861600Y-201131399D01*
G75*
G02*
X251111599Y-200881400I249999J0D01*
G01*
G37*
G36*
G01*
X251111599Y-198831400D02*
X252011601Y-198831400D01*
G75*
G02*
X252261600Y-199081399I0J-249999D01*
G01*
X252261600Y-199731401D01*
G75*
G02*
X252011601Y-199981400I-249999J0D01*
G01*
X251111599Y-199981400D01*
G75*
G02*
X250861600Y-199731401I0J249999D01*
G01*
X250861600Y-199081399D01*
G75*
G02*
X251111599Y-198831400I249999J0D01*
G01*
G37*
%TD*%
%TO.C,R54*%
G36*
G01*
X153067599Y-173177400D02*
X153967601Y-173177400D01*
G75*
G02*
X154217600Y-173427399I0J-249999D01*
G01*
X154217600Y-174077401D01*
G75*
G02*
X153967601Y-174327400I-249999J0D01*
G01*
X153067599Y-174327400D01*
G75*
G02*
X152817600Y-174077401I0J249999D01*
G01*
X152817600Y-173427399D01*
G75*
G02*
X153067599Y-173177400I249999J0D01*
G01*
G37*
G36*
G01*
X153067599Y-175227400D02*
X153967601Y-175227400D01*
G75*
G02*
X154217600Y-175477399I0J-249999D01*
G01*
X154217600Y-176127401D01*
G75*
G02*
X153967601Y-176377400I-249999J0D01*
G01*
X153067599Y-176377400D01*
G75*
G02*
X152817600Y-176127401I0J249999D01*
G01*
X152817600Y-175477399D01*
G75*
G02*
X153067599Y-175227400I249999J0D01*
G01*
G37*
%TD*%
%TO.C,R55*%
G36*
G01*
X158539601Y-153533800D02*
X157639599Y-153533800D01*
G75*
G02*
X157389600Y-153283801I0J249999D01*
G01*
X157389600Y-152633799D01*
G75*
G02*
X157639599Y-152383800I249999J0D01*
G01*
X158539601Y-152383800D01*
G75*
G02*
X158789600Y-152633799I0J-249999D01*
G01*
X158789600Y-153283801D01*
G75*
G02*
X158539601Y-153533800I-249999J0D01*
G01*
G37*
G36*
G01*
X158539601Y-155583800D02*
X157639599Y-155583800D01*
G75*
G02*
X157389600Y-155333801I0J249999D01*
G01*
X157389600Y-154683799D01*
G75*
G02*
X157639599Y-154433800I249999J0D01*
G01*
X158539601Y-154433800D01*
G75*
G02*
X158789600Y-154683799I0J-249999D01*
G01*
X158789600Y-155333801D01*
G75*
G02*
X158539601Y-155583800I-249999J0D01*
G01*
G37*
%TD*%
%TO.C,R56*%
G36*
G01*
X201835600Y-195155399D02*
X201835600Y-196055401D01*
G75*
G02*
X201585601Y-196305400I-249999J0D01*
G01*
X200935599Y-196305400D01*
G75*
G02*
X200685600Y-196055401I0J249999D01*
G01*
X200685600Y-195155399D01*
G75*
G02*
X200935599Y-194905400I249999J0D01*
G01*
X201585601Y-194905400D01*
G75*
G02*
X201835600Y-195155399I0J-249999D01*
G01*
G37*
G36*
G01*
X203885600Y-195155399D02*
X203885600Y-196055401D01*
G75*
G02*
X203635601Y-196305400I-249999J0D01*
G01*
X202985599Y-196305400D01*
G75*
G02*
X202735600Y-196055401I0J249999D01*
G01*
X202735600Y-195155399D01*
G75*
G02*
X202985599Y-194905400I249999J0D01*
G01*
X203635601Y-194905400D01*
G75*
G02*
X203885600Y-195155399I0J-249999D01*
G01*
G37*
%TD*%
%TO.C,R57*%
G36*
G01*
X128085001Y-129344000D02*
X127184999Y-129344000D01*
G75*
G02*
X126935000Y-129094001I0J249999D01*
G01*
X126935000Y-128443999D01*
G75*
G02*
X127184999Y-128194000I249999J0D01*
G01*
X128085001Y-128194000D01*
G75*
G02*
X128335000Y-128443999I0J-249999D01*
G01*
X128335000Y-129094001D01*
G75*
G02*
X128085001Y-129344000I-249999J0D01*
G01*
G37*
G36*
G01*
X128085001Y-131394000D02*
X127184999Y-131394000D01*
G75*
G02*
X126935000Y-131144001I0J249999D01*
G01*
X126935000Y-130493999D01*
G75*
G02*
X127184999Y-130244000I249999J0D01*
G01*
X128085001Y-130244000D01*
G75*
G02*
X128335000Y-130493999I0J-249999D01*
G01*
X128335000Y-131144001D01*
G75*
G02*
X128085001Y-131394000I-249999J0D01*
G01*
G37*
%TD*%
%TO.C,R58*%
G36*
G01*
X238088700Y-159429050D02*
X238088700Y-158528150D01*
G75*
G02*
X238338250Y-158278600I249550J0D01*
G01*
X238989150Y-158278600D01*
G75*
G02*
X239238700Y-158528150I0J-249550D01*
G01*
X239238700Y-159429050D01*
G75*
G02*
X238989150Y-159678600I-249550J0D01*
G01*
X238338250Y-159678600D01*
G75*
G02*
X238088700Y-159429050I0J249550D01*
G01*
G37*
G36*
G01*
X236038700Y-159428601D02*
X236038700Y-158528599D01*
G75*
G02*
X236288699Y-158278600I249999J0D01*
G01*
X236938701Y-158278600D01*
G75*
G02*
X237188700Y-158528599I0J-249999D01*
G01*
X237188700Y-159428601D01*
G75*
G02*
X236938701Y-159678600I-249999J0D01*
G01*
X236288699Y-159678600D01*
G75*
G02*
X236038700Y-159428601I0J249999D01*
G01*
G37*
%TD*%
%TO.C,R59*%
G36*
G01*
X254756499Y-158436400D02*
X255656501Y-158436400D01*
G75*
G02*
X255906500Y-158686399I0J-249999D01*
G01*
X255906500Y-159336401D01*
G75*
G02*
X255656501Y-159586400I-249999J0D01*
G01*
X254756499Y-159586400D01*
G75*
G02*
X254506500Y-159336401I0J249999D01*
G01*
X254506500Y-158686399D01*
G75*
G02*
X254756499Y-158436400I249999J0D01*
G01*
G37*
G36*
G01*
X254756499Y-160486400D02*
X255656501Y-160486400D01*
G75*
G02*
X255906500Y-160736399I0J-249999D01*
G01*
X255906500Y-161386401D01*
G75*
G02*
X255656501Y-161636400I-249999J0D01*
G01*
X254756499Y-161636400D01*
G75*
G02*
X254506500Y-161386401I0J249999D01*
G01*
X254506500Y-160736399D01*
G75*
G02*
X254756499Y-160486400I249999J0D01*
G01*
G37*
%TD*%
%TO.C,R60*%
G36*
G01*
X171536700Y-72517001D02*
X171536700Y-71616999D01*
G75*
G02*
X171786699Y-71367000I249999J0D01*
G01*
X172436701Y-71367000D01*
G75*
G02*
X172686700Y-71616999I0J-249999D01*
G01*
X172686700Y-72517001D01*
G75*
G02*
X172436701Y-72767000I-249999J0D01*
G01*
X171786699Y-72767000D01*
G75*
G02*
X171536700Y-72517001I0J249999D01*
G01*
G37*
G36*
G01*
X169486700Y-72517001D02*
X169486700Y-71616999D01*
G75*
G02*
X169736699Y-71367000I249999J0D01*
G01*
X170386701Y-71367000D01*
G75*
G02*
X170636700Y-71616999I0J-249999D01*
G01*
X170636700Y-72517001D01*
G75*
G02*
X170386701Y-72767000I-249999J0D01*
G01*
X169736699Y-72767000D01*
G75*
G02*
X169486700Y-72517001I0J249999D01*
G01*
G37*
%TD*%
%TO.C,R62*%
G36*
G01*
X231183601Y-177901400D02*
X230283599Y-177901400D01*
G75*
G02*
X230033600Y-177651401I0J249999D01*
G01*
X230033600Y-177001399D01*
G75*
G02*
X230283599Y-176751400I249999J0D01*
G01*
X231183601Y-176751400D01*
G75*
G02*
X231433600Y-177001399I0J-249999D01*
G01*
X231433600Y-177651401D01*
G75*
G02*
X231183601Y-177901400I-249999J0D01*
G01*
G37*
G36*
G01*
X231183601Y-175851400D02*
X230283599Y-175851400D01*
G75*
G02*
X230033600Y-175601401I0J249999D01*
G01*
X230033600Y-174951399D01*
G75*
G02*
X230283599Y-174701400I249999J0D01*
G01*
X231183601Y-174701400D01*
G75*
G02*
X231433600Y-174951399I0J-249999D01*
G01*
X231433600Y-175601401D01*
G75*
G02*
X231183601Y-175851400I-249999J0D01*
G01*
G37*
%TD*%
%TO.C,R63*%
G36*
G01*
X229151601Y-177901400D02*
X228251599Y-177901400D01*
G75*
G02*
X228001600Y-177651401I0J249999D01*
G01*
X228001600Y-177001399D01*
G75*
G02*
X228251599Y-176751400I249999J0D01*
G01*
X229151601Y-176751400D01*
G75*
G02*
X229401600Y-177001399I0J-249999D01*
G01*
X229401600Y-177651401D01*
G75*
G02*
X229151601Y-177901400I-249999J0D01*
G01*
G37*
G36*
G01*
X229151601Y-175851400D02*
X228251599Y-175851400D01*
G75*
G02*
X228001600Y-175601401I0J249999D01*
G01*
X228001600Y-174951399D01*
G75*
G02*
X228251599Y-174701400I249999J0D01*
G01*
X229151601Y-174701400D01*
G75*
G02*
X229401600Y-174951399I0J-249999D01*
G01*
X229401600Y-175601401D01*
G75*
G02*
X229151601Y-175851400I-249999J0D01*
G01*
G37*
%TD*%
%TO.C,R64*%
G36*
G01*
X231183601Y-179906400D02*
X230283599Y-179906400D01*
G75*
G02*
X230033600Y-179656401I0J249999D01*
G01*
X230033600Y-179006399D01*
G75*
G02*
X230283599Y-178756400I249999J0D01*
G01*
X231183601Y-178756400D01*
G75*
G02*
X231433600Y-179006399I0J-249999D01*
G01*
X231433600Y-179656401D01*
G75*
G02*
X231183601Y-179906400I-249999J0D01*
G01*
G37*
G36*
G01*
X231183601Y-181956400D02*
X230283599Y-181956400D01*
G75*
G02*
X230033600Y-181706401I0J249999D01*
G01*
X230033600Y-181056399D01*
G75*
G02*
X230283599Y-180806400I249999J0D01*
G01*
X231183601Y-180806400D01*
G75*
G02*
X231433600Y-181056399I0J-249999D01*
G01*
X231433600Y-181706401D01*
G75*
G02*
X231183601Y-181956400I-249999J0D01*
G01*
G37*
%TD*%
%TO.C,R67*%
G36*
G01*
X180891601Y-203791400D02*
X179991599Y-203791400D01*
G75*
G02*
X179741600Y-203541401I0J249999D01*
G01*
X179741600Y-202891399D01*
G75*
G02*
X179991599Y-202641400I249999J0D01*
G01*
X180891601Y-202641400D01*
G75*
G02*
X181141600Y-202891399I0J-249999D01*
G01*
X181141600Y-203541401D01*
G75*
G02*
X180891601Y-203791400I-249999J0D01*
G01*
G37*
G36*
G01*
X180891601Y-205841400D02*
X179991599Y-205841400D01*
G75*
G02*
X179741600Y-205591401I0J249999D01*
G01*
X179741600Y-204941399D01*
G75*
G02*
X179991599Y-204691400I249999J0D01*
G01*
X180891601Y-204691400D01*
G75*
G02*
X181141600Y-204941399I0J-249999D01*
G01*
X181141600Y-205591401D01*
G75*
G02*
X180891601Y-205841400I-249999J0D01*
G01*
G37*
%TD*%
%TO.C,R68*%
G36*
G01*
X283764141Y-106476600D02*
X282864139Y-106476600D01*
G75*
G02*
X282614140Y-106226601I0J249999D01*
G01*
X282614140Y-105576599D01*
G75*
G02*
X282864139Y-105326600I249999J0D01*
G01*
X283764141Y-105326600D01*
G75*
G02*
X284014140Y-105576599I0J-249999D01*
G01*
X284014140Y-106226601D01*
G75*
G02*
X283764141Y-106476600I-249999J0D01*
G01*
G37*
G36*
G01*
X283764141Y-104426600D02*
X282864139Y-104426600D01*
G75*
G02*
X282614140Y-104176601I0J249999D01*
G01*
X282614140Y-103526599D01*
G75*
G02*
X282864139Y-103276600I249999J0D01*
G01*
X283764141Y-103276600D01*
G75*
G02*
X284014140Y-103526599I0J-249999D01*
G01*
X284014140Y-104176601D01*
G75*
G02*
X283764141Y-104426600I-249999J0D01*
G01*
G37*
%TD*%
%TO.C,R69*%
G36*
G01*
X146347601Y-176377400D02*
X145447599Y-176377400D01*
G75*
G02*
X145197600Y-176127401I0J249999D01*
G01*
X145197600Y-175477399D01*
G75*
G02*
X145447599Y-175227400I249999J0D01*
G01*
X146347601Y-175227400D01*
G75*
G02*
X146597600Y-175477399I0J-249999D01*
G01*
X146597600Y-176127401D01*
G75*
G02*
X146347601Y-176377400I-249999J0D01*
G01*
G37*
G36*
G01*
X146347601Y-174327400D02*
X145447599Y-174327400D01*
G75*
G02*
X145197600Y-174077401I0J249999D01*
G01*
X145197600Y-173427399D01*
G75*
G02*
X145447599Y-173177400I249999J0D01*
G01*
X146347601Y-173177400D01*
G75*
G02*
X146597600Y-173427399I0J-249999D01*
G01*
X146597600Y-174077401D01*
G75*
G02*
X146347601Y-174327400I-249999J0D01*
G01*
G37*
%TD*%
%TO.C,R70*%
G36*
G01*
X145193599Y-159406900D02*
X146093601Y-159406900D01*
G75*
G02*
X146343600Y-159656899I0J-249999D01*
G01*
X146343600Y-160306901D01*
G75*
G02*
X146093601Y-160556900I-249999J0D01*
G01*
X145193599Y-160556900D01*
G75*
G02*
X144943600Y-160306901I0J249999D01*
G01*
X144943600Y-159656899D01*
G75*
G02*
X145193599Y-159406900I249999J0D01*
G01*
G37*
G36*
G01*
X145193599Y-157356900D02*
X146093601Y-157356900D01*
G75*
G02*
X146343600Y-157606899I0J-249999D01*
G01*
X146343600Y-158256901D01*
G75*
G02*
X146093601Y-158506900I-249999J0D01*
G01*
X145193599Y-158506900D01*
G75*
G02*
X144943600Y-158256901I0J249999D01*
G01*
X144943600Y-157606899D01*
G75*
G02*
X145193599Y-157356900I249999J0D01*
G01*
G37*
%TD*%
%TO.C,R71*%
G36*
G01*
X118737801Y-78228100D02*
X117837799Y-78228100D01*
G75*
G02*
X117587800Y-77978101I0J249999D01*
G01*
X117587800Y-77328099D01*
G75*
G02*
X117837799Y-77078100I249999J0D01*
G01*
X118737801Y-77078100D01*
G75*
G02*
X118987800Y-77328099I0J-249999D01*
G01*
X118987800Y-77978101D01*
G75*
G02*
X118737801Y-78228100I-249999J0D01*
G01*
G37*
G36*
G01*
X118737801Y-76178100D02*
X117837799Y-76178100D01*
G75*
G02*
X117587800Y-75928101I0J249999D01*
G01*
X117587800Y-75278099D01*
G75*
G02*
X117837799Y-75028100I249999J0D01*
G01*
X118737801Y-75028100D01*
G75*
G02*
X118987800Y-75278099I0J-249999D01*
G01*
X118987800Y-75928101D01*
G75*
G02*
X118737801Y-76178100I-249999J0D01*
G01*
G37*
%TD*%
%TO.C,R72*%
G36*
G01*
X274826200Y-149333799D02*
X274826200Y-150233801D01*
G75*
G02*
X274576201Y-150483800I-249999J0D01*
G01*
X273926199Y-150483800D01*
G75*
G02*
X273676200Y-150233801I0J249999D01*
G01*
X273676200Y-149333799D01*
G75*
G02*
X273926199Y-149083800I249999J0D01*
G01*
X274576201Y-149083800D01*
G75*
G02*
X274826200Y-149333799I0J-249999D01*
G01*
G37*
G36*
G01*
X276876200Y-149333799D02*
X276876200Y-150233801D01*
G75*
G02*
X276626201Y-150483800I-249999J0D01*
G01*
X275976199Y-150483800D01*
G75*
G02*
X275726200Y-150233801I0J249999D01*
G01*
X275726200Y-149333799D01*
G75*
G02*
X275976199Y-149083800I249999J0D01*
G01*
X276626201Y-149083800D01*
G75*
G02*
X276876200Y-149333799I0J-249999D01*
G01*
G37*
%TD*%
%TO.C,R73*%
G36*
G01*
X133647601Y-173057400D02*
X132747599Y-173057400D01*
G75*
G02*
X132497600Y-172807401I0J249999D01*
G01*
X132497600Y-172157399D01*
G75*
G02*
X132747599Y-171907400I249999J0D01*
G01*
X133647601Y-171907400D01*
G75*
G02*
X133897600Y-172157399I0J-249999D01*
G01*
X133897600Y-172807401D01*
G75*
G02*
X133647601Y-173057400I-249999J0D01*
G01*
G37*
G36*
G01*
X133647601Y-175107400D02*
X132747599Y-175107400D01*
G75*
G02*
X132497600Y-174857401I0J249999D01*
G01*
X132497600Y-174207399D01*
G75*
G02*
X132747599Y-173957400I249999J0D01*
G01*
X133647601Y-173957400D01*
G75*
G02*
X133897600Y-174207399I0J-249999D01*
G01*
X133897600Y-174857401D01*
G75*
G02*
X133647601Y-175107400I-249999J0D01*
G01*
G37*
%TD*%
%TO.C,R74*%
G36*
G01*
X204575500Y-151504250D02*
X204575500Y-150603350D01*
G75*
G02*
X204825050Y-150353800I249550J0D01*
G01*
X205475950Y-150353800D01*
G75*
G02*
X205725500Y-150603350I0J-249550D01*
G01*
X205725500Y-151504250D01*
G75*
G02*
X205475950Y-151753800I-249550J0D01*
G01*
X204825050Y-151753800D01*
G75*
G02*
X204575500Y-151504250I0J249550D01*
G01*
G37*
G36*
G01*
X206625500Y-151503801D02*
X206625500Y-150603799D01*
G75*
G02*
X206875499Y-150353800I249999J0D01*
G01*
X207525501Y-150353800D01*
G75*
G02*
X207775500Y-150603799I0J-249999D01*
G01*
X207775500Y-151503801D01*
G75*
G02*
X207525501Y-151753800I-249999J0D01*
G01*
X206875499Y-151753800D01*
G75*
G02*
X206625500Y-151503801I0J249999D01*
G01*
G37*
%TD*%
%TO.C,R75*%
G36*
G01*
X139217600Y-175227401D02*
X139217600Y-174327399D01*
G75*
G02*
X139467599Y-174077400I249999J0D01*
G01*
X140117601Y-174077400D01*
G75*
G02*
X140367600Y-174327399I0J-249999D01*
G01*
X140367600Y-175227401D01*
G75*
G02*
X140117601Y-175477400I-249999J0D01*
G01*
X139467599Y-175477400D01*
G75*
G02*
X139217600Y-175227401I0J249999D01*
G01*
G37*
G36*
G01*
X141267600Y-175227401D02*
X141267600Y-174327399D01*
G75*
G02*
X141517599Y-174077400I249999J0D01*
G01*
X142167601Y-174077400D01*
G75*
G02*
X142417600Y-174327399I0J-249999D01*
G01*
X142417600Y-175227401D01*
G75*
G02*
X142167601Y-175477400I-249999J0D01*
G01*
X141517599Y-175477400D01*
G75*
G02*
X141267600Y-175227401I0J249999D01*
G01*
G37*
%TD*%
%TO.C,R76*%
G36*
G01*
X258749600Y-206585399D02*
X258749600Y-207485401D01*
G75*
G02*
X258499601Y-207735400I-249999J0D01*
G01*
X257849599Y-207735400D01*
G75*
G02*
X257599600Y-207485401I0J249999D01*
G01*
X257599600Y-206585399D01*
G75*
G02*
X257849599Y-206335400I249999J0D01*
G01*
X258499601Y-206335400D01*
G75*
G02*
X258749600Y-206585399I0J-249999D01*
G01*
G37*
G36*
G01*
X256699600Y-206585399D02*
X256699600Y-207485401D01*
G75*
G02*
X256449601Y-207735400I-249999J0D01*
G01*
X255799599Y-207735400D01*
G75*
G02*
X255549600Y-207485401I0J249999D01*
G01*
X255549600Y-206585399D01*
G75*
G02*
X255799599Y-206335400I249999J0D01*
G01*
X256449601Y-206335400D01*
G75*
G02*
X256699600Y-206585399I0J-249999D01*
G01*
G37*
%TD*%
%TO.C,R77*%
G36*
G01*
X260763600Y-206585399D02*
X260763600Y-207485401D01*
G75*
G02*
X260513601Y-207735400I-249999J0D01*
G01*
X259863599Y-207735400D01*
G75*
G02*
X259613600Y-207485401I0J249999D01*
G01*
X259613600Y-206585399D01*
G75*
G02*
X259863599Y-206335400I249999J0D01*
G01*
X260513601Y-206335400D01*
G75*
G02*
X260763600Y-206585399I0J-249999D01*
G01*
G37*
G36*
G01*
X262813600Y-206585399D02*
X262813600Y-207485401D01*
G75*
G02*
X262563601Y-207735400I-249999J0D01*
G01*
X261913599Y-207735400D01*
G75*
G02*
X261663600Y-207485401I0J249999D01*
G01*
X261663600Y-206585399D01*
G75*
G02*
X261913599Y-206335400I249999J0D01*
G01*
X262563601Y-206335400D01*
G75*
G02*
X262813600Y-206585399I0J-249999D01*
G01*
G37*
%TD*%
%TO.C,R78*%
G36*
G01*
X257724600Y-200997399D02*
X257724600Y-201897401D01*
G75*
G02*
X257474601Y-202147400I-249999J0D01*
G01*
X256824599Y-202147400D01*
G75*
G02*
X256574600Y-201897401I0J249999D01*
G01*
X256574600Y-200997399D01*
G75*
G02*
X256824599Y-200747400I249999J0D01*
G01*
X257474601Y-200747400D01*
G75*
G02*
X257724600Y-200997399I0J-249999D01*
G01*
G37*
G36*
G01*
X259774600Y-200997399D02*
X259774600Y-201897401D01*
G75*
G02*
X259524601Y-202147400I-249999J0D01*
G01*
X258874599Y-202147400D01*
G75*
G02*
X258624600Y-201897401I0J249999D01*
G01*
X258624600Y-200997399D01*
G75*
G02*
X258874599Y-200747400I249999J0D01*
G01*
X259524601Y-200747400D01*
G75*
G02*
X259774600Y-200997399I0J-249999D01*
G01*
G37*
%TD*%
%TO.C,R79*%
G36*
G01*
X276751201Y-148250600D02*
X275851199Y-148250600D01*
G75*
G02*
X275601200Y-148000601I0J249999D01*
G01*
X275601200Y-147350599D01*
G75*
G02*
X275851199Y-147100600I249999J0D01*
G01*
X276751201Y-147100600D01*
G75*
G02*
X277001200Y-147350599I0J-249999D01*
G01*
X277001200Y-148000601D01*
G75*
G02*
X276751201Y-148250600I-249999J0D01*
G01*
G37*
G36*
G01*
X276751201Y-146200600D02*
X275851199Y-146200600D01*
G75*
G02*
X275601200Y-145950601I0J249999D01*
G01*
X275601200Y-145300599D01*
G75*
G02*
X275851199Y-145050600I249999J0D01*
G01*
X276751201Y-145050600D01*
G75*
G02*
X277001200Y-145300599I0J-249999D01*
G01*
X277001200Y-145950601D01*
G75*
G02*
X276751201Y-146200600I-249999J0D01*
G01*
G37*
%TD*%
%TO.C,R84*%
G36*
G01*
X263829600Y-200997399D02*
X263829600Y-201897401D01*
G75*
G02*
X263579601Y-202147400I-249999J0D01*
G01*
X262929599Y-202147400D01*
G75*
G02*
X262679600Y-201897401I0J249999D01*
G01*
X262679600Y-200997399D01*
G75*
G02*
X262929599Y-200747400I249999J0D01*
G01*
X263579601Y-200747400D01*
G75*
G02*
X263829600Y-200997399I0J-249999D01*
G01*
G37*
G36*
G01*
X261779600Y-200997399D02*
X261779600Y-201897401D01*
G75*
G02*
X261529601Y-202147400I-249999J0D01*
G01*
X260879599Y-202147400D01*
G75*
G02*
X260629600Y-201897401I0J249999D01*
G01*
X260629600Y-200997399D01*
G75*
G02*
X260879599Y-200747400I249999J0D01*
G01*
X261529601Y-200747400D01*
G75*
G02*
X261779600Y-200997399I0J-249999D01*
G01*
G37*
%TD*%
%TO.C,R85*%
G36*
G01*
X267884600Y-200997399D02*
X267884600Y-201897401D01*
G75*
G02*
X267634601Y-202147400I-249999J0D01*
G01*
X266984599Y-202147400D01*
G75*
G02*
X266734600Y-201897401I0J249999D01*
G01*
X266734600Y-200997399D01*
G75*
G02*
X266984599Y-200747400I249999J0D01*
G01*
X267634601Y-200747400D01*
G75*
G02*
X267884600Y-200997399I0J-249999D01*
G01*
G37*
G36*
G01*
X265834600Y-200997399D02*
X265834600Y-201897401D01*
G75*
G02*
X265584601Y-202147400I-249999J0D01*
G01*
X264934599Y-202147400D01*
G75*
G02*
X264684600Y-201897401I0J249999D01*
G01*
X264684600Y-200997399D01*
G75*
G02*
X264934599Y-200747400I249999J0D01*
G01*
X265584601Y-200747400D01*
G75*
G02*
X265834600Y-200997399I0J-249999D01*
G01*
G37*
%TD*%
%TO.C,R86*%
G36*
G01*
X269907600Y-200997399D02*
X269907600Y-201897401D01*
G75*
G02*
X269657601Y-202147400I-249999J0D01*
G01*
X269007599Y-202147400D01*
G75*
G02*
X268757600Y-201897401I0J249999D01*
G01*
X268757600Y-200997399D01*
G75*
G02*
X269007599Y-200747400I249999J0D01*
G01*
X269657601Y-200747400D01*
G75*
G02*
X269907600Y-200997399I0J-249999D01*
G01*
G37*
G36*
G01*
X271957600Y-200997399D02*
X271957600Y-201897401D01*
G75*
G02*
X271707601Y-202147400I-249999J0D01*
G01*
X271057599Y-202147400D01*
G75*
G02*
X270807600Y-201897401I0J249999D01*
G01*
X270807600Y-200997399D01*
G75*
G02*
X271057599Y-200747400I249999J0D01*
G01*
X271707601Y-200747400D01*
G75*
G02*
X271957600Y-200997399I0J-249999D01*
G01*
G37*
%TD*%
%TO.C,R87*%
G36*
G01*
X266877600Y-206585399D02*
X266877600Y-207485401D01*
G75*
G02*
X266627601Y-207735400I-249999J0D01*
G01*
X265977599Y-207735400D01*
G75*
G02*
X265727600Y-207485401I0J249999D01*
G01*
X265727600Y-206585399D01*
G75*
G02*
X265977599Y-206335400I249999J0D01*
G01*
X266627601Y-206335400D01*
G75*
G02*
X266877600Y-206585399I0J-249999D01*
G01*
G37*
G36*
G01*
X264827600Y-206585399D02*
X264827600Y-207485401D01*
G75*
G02*
X264577601Y-207735400I-249999J0D01*
G01*
X263927599Y-207735400D01*
G75*
G02*
X263677600Y-207485401I0J249999D01*
G01*
X263677600Y-206585399D01*
G75*
G02*
X263927599Y-206335400I249999J0D01*
G01*
X264577601Y-206335400D01*
G75*
G02*
X264827600Y-206585399I0J-249999D01*
G01*
G37*
%TD*%
%TO.C,R88*%
G36*
G01*
X268882600Y-206585399D02*
X268882600Y-207485401D01*
G75*
G02*
X268632601Y-207735400I-249999J0D01*
G01*
X267982599Y-207735400D01*
G75*
G02*
X267732600Y-207485401I0J249999D01*
G01*
X267732600Y-206585399D01*
G75*
G02*
X267982599Y-206335400I249999J0D01*
G01*
X268632601Y-206335400D01*
G75*
G02*
X268882600Y-206585399I0J-249999D01*
G01*
G37*
G36*
G01*
X270932600Y-206585399D02*
X270932600Y-207485401D01*
G75*
G02*
X270682601Y-207735400I-249999J0D01*
G01*
X270032599Y-207735400D01*
G75*
G02*
X269782600Y-207485401I0J249999D01*
G01*
X269782600Y-206585399D01*
G75*
G02*
X270032599Y-206335400I249999J0D01*
G01*
X270682601Y-206335400D01*
G75*
G02*
X270932600Y-206585399I0J-249999D01*
G01*
G37*
%TD*%
%TO.C,R89*%
G36*
G01*
X247947601Y-188569400D02*
X247047599Y-188569400D01*
G75*
G02*
X246797600Y-188319401I0J249999D01*
G01*
X246797600Y-187669399D01*
G75*
G02*
X247047599Y-187419400I249999J0D01*
G01*
X247947601Y-187419400D01*
G75*
G02*
X248197600Y-187669399I0J-249999D01*
G01*
X248197600Y-188319401D01*
G75*
G02*
X247947601Y-188569400I-249999J0D01*
G01*
G37*
G36*
G01*
X247947601Y-186519400D02*
X247047599Y-186519400D01*
G75*
G02*
X246797600Y-186269401I0J249999D01*
G01*
X246797600Y-185619399D01*
G75*
G02*
X247047599Y-185369400I249999J0D01*
G01*
X247947601Y-185369400D01*
G75*
G02*
X248197600Y-185619399I0J-249999D01*
G01*
X248197600Y-186269401D01*
G75*
G02*
X247947601Y-186519400I-249999J0D01*
G01*
G37*
%TD*%
%TO.C,R90*%
G36*
G01*
X251637600Y-180931399D02*
X251637600Y-181831401D01*
G75*
G02*
X251387601Y-182081400I-249999J0D01*
G01*
X250737599Y-182081400D01*
G75*
G02*
X250487600Y-181831401I0J249999D01*
G01*
X250487600Y-180931399D01*
G75*
G02*
X250737599Y-180681400I249999J0D01*
G01*
X251387601Y-180681400D01*
G75*
G02*
X251637600Y-180931399I0J-249999D01*
G01*
G37*
G36*
G01*
X249587600Y-180931399D02*
X249587600Y-181831401D01*
G75*
G02*
X249337601Y-182081400I-249999J0D01*
G01*
X248687599Y-182081400D01*
G75*
G02*
X248437600Y-181831401I0J249999D01*
G01*
X248437600Y-180931399D01*
G75*
G02*
X248687599Y-180681400I249999J0D01*
G01*
X249337601Y-180681400D01*
G75*
G02*
X249587600Y-180931399I0J-249999D01*
G01*
G37*
%TD*%
%TO.C,R91*%
G36*
G01*
X249471601Y-196162400D02*
X248571599Y-196162400D01*
G75*
G02*
X248321600Y-195912401I0J249999D01*
G01*
X248321600Y-195262399D01*
G75*
G02*
X248571599Y-195012400I249999J0D01*
G01*
X249471601Y-195012400D01*
G75*
G02*
X249721600Y-195262399I0J-249999D01*
G01*
X249721600Y-195912401D01*
G75*
G02*
X249471601Y-196162400I-249999J0D01*
G01*
G37*
G36*
G01*
X249471601Y-198212400D02*
X248571599Y-198212400D01*
G75*
G02*
X248321600Y-197962401I0J249999D01*
G01*
X248321600Y-197312399D01*
G75*
G02*
X248571599Y-197062400I249999J0D01*
G01*
X249471601Y-197062400D01*
G75*
G02*
X249721600Y-197312399I0J-249999D01*
G01*
X249721600Y-197962401D01*
G75*
G02*
X249471601Y-198212400I-249999J0D01*
G01*
G37*
%TD*%
%TO.C,R92*%
G36*
G01*
X276911221Y-83298880D02*
X276011219Y-83298880D01*
G75*
G02*
X275761220Y-83048881I0J249999D01*
G01*
X275761220Y-82398879D01*
G75*
G02*
X276011219Y-82148880I249999J0D01*
G01*
X276911221Y-82148880D01*
G75*
G02*
X277161220Y-82398879I0J-249999D01*
G01*
X277161220Y-83048881D01*
G75*
G02*
X276911221Y-83298880I-249999J0D01*
G01*
G37*
G36*
G01*
X276911221Y-85348880D02*
X276011219Y-85348880D01*
G75*
G02*
X275761220Y-85098881I0J249999D01*
G01*
X275761220Y-84448879D01*
G75*
G02*
X276011219Y-84198880I249999J0D01*
G01*
X276911221Y-84198880D01*
G75*
G02*
X277161220Y-84448879I0J-249999D01*
G01*
X277161220Y-85098881D01*
G75*
G02*
X276911221Y-85348880I-249999J0D01*
G01*
G37*
%TD*%
%TO.C,R93*%
G36*
G01*
X264845600Y-184571950D02*
X264845600Y-185472850D01*
G75*
G02*
X264596050Y-185722400I-249550J0D01*
G01*
X263945150Y-185722400D01*
G75*
G02*
X263695600Y-185472850I0J249550D01*
G01*
X263695600Y-184571950D01*
G75*
G02*
X263945150Y-184322400I249550J0D01*
G01*
X264596050Y-184322400D01*
G75*
G02*
X264845600Y-184571950I0J-249550D01*
G01*
G37*
G36*
G01*
X262795600Y-184487399D02*
X262795600Y-185387401D01*
G75*
G02*
X262545601Y-185637400I-249999J0D01*
G01*
X261895599Y-185637400D01*
G75*
G02*
X261645600Y-185387401I0J249999D01*
G01*
X261645600Y-184487399D01*
G75*
G02*
X261895599Y-184237400I249999J0D01*
G01*
X262545601Y-184237400D01*
G75*
G02*
X262795600Y-184487399I0J-249999D01*
G01*
G37*
%TD*%
%TO.C,R94*%
G36*
G01*
X262795600Y-180931399D02*
X262795600Y-181831401D01*
G75*
G02*
X262545601Y-182081400I-249999J0D01*
G01*
X261895599Y-182081400D01*
G75*
G02*
X261645600Y-181831401I0J249999D01*
G01*
X261645600Y-180931399D01*
G75*
G02*
X261895599Y-180681400I249999J0D01*
G01*
X262545601Y-180681400D01*
G75*
G02*
X262795600Y-180931399I0J-249999D01*
G01*
G37*
G36*
G01*
X264845600Y-180931399D02*
X264845600Y-181831401D01*
G75*
G02*
X264595601Y-182081400I-249999J0D01*
G01*
X263945599Y-182081400D01*
G75*
G02*
X263695600Y-181831401I0J249999D01*
G01*
X263695600Y-180931399D01*
G75*
G02*
X263945599Y-180681400I249999J0D01*
G01*
X264595601Y-180681400D01*
G75*
G02*
X264845600Y-180931399I0J-249999D01*
G01*
G37*
%TD*%
%TO.C,R95*%
G36*
G01*
X254150600Y-191599399D02*
X254150600Y-192499401D01*
G75*
G02*
X253900601Y-192749400I-249999J0D01*
G01*
X253250599Y-192749400D01*
G75*
G02*
X253000600Y-192499401I0J249999D01*
G01*
X253000600Y-191599399D01*
G75*
G02*
X253250599Y-191349400I249999J0D01*
G01*
X253900601Y-191349400D01*
G75*
G02*
X254150600Y-191599399I0J-249999D01*
G01*
G37*
G36*
G01*
X256200600Y-191599399D02*
X256200600Y-192499401D01*
G75*
G02*
X255950601Y-192749400I-249999J0D01*
G01*
X255300599Y-192749400D01*
G75*
G02*
X255050600Y-192499401I0J249999D01*
G01*
X255050600Y-191599399D01*
G75*
G02*
X255300599Y-191349400I249999J0D01*
G01*
X255950601Y-191349400D01*
G75*
G02*
X256200600Y-191599399I0J-249999D01*
G01*
G37*
%TD*%
%TO.C,R96*%
G36*
G01*
X247947601Y-192633400D02*
X247047599Y-192633400D01*
G75*
G02*
X246797600Y-192383401I0J249999D01*
G01*
X246797600Y-191733399D01*
G75*
G02*
X247047599Y-191483400I249999J0D01*
G01*
X247947601Y-191483400D01*
G75*
G02*
X248197600Y-191733399I0J-249999D01*
G01*
X248197600Y-192383401D01*
G75*
G02*
X247947601Y-192633400I-249999J0D01*
G01*
G37*
G36*
G01*
X247947601Y-190583400D02*
X247047599Y-190583400D01*
G75*
G02*
X246797600Y-190333401I0J249999D01*
G01*
X246797600Y-189683399D01*
G75*
G02*
X247047599Y-189433400I249999J0D01*
G01*
X247947601Y-189433400D01*
G75*
G02*
X248197600Y-189683399I0J-249999D01*
G01*
X248197600Y-190333401D01*
G75*
G02*
X247947601Y-190583400I-249999J0D01*
G01*
G37*
%TD*%
%TO.C,R97*%
G36*
G01*
X287157581Y-104443000D02*
X286257579Y-104443000D01*
G75*
G02*
X286007580Y-104193001I0J249999D01*
G01*
X286007580Y-103542999D01*
G75*
G02*
X286257579Y-103293000I249999J0D01*
G01*
X287157581Y-103293000D01*
G75*
G02*
X287407580Y-103542999I0J-249999D01*
G01*
X287407580Y-104193001D01*
G75*
G02*
X287157581Y-104443000I-249999J0D01*
G01*
G37*
G36*
G01*
X287157581Y-106493000D02*
X286257579Y-106493000D01*
G75*
G02*
X286007580Y-106243001I0J249999D01*
G01*
X286007580Y-105592999D01*
G75*
G02*
X286257579Y-105343000I249999J0D01*
G01*
X287157581Y-105343000D01*
G75*
G02*
X287407580Y-105592999I0J-249999D01*
G01*
X287407580Y-106243001D01*
G75*
G02*
X287157581Y-106493000I-249999J0D01*
G01*
G37*
%TD*%
%TO.C,R101*%
G36*
G01*
X180374600Y-193007401D02*
X180374600Y-192107399D01*
G75*
G02*
X180624599Y-191857400I249999J0D01*
G01*
X181274601Y-191857400D01*
G75*
G02*
X181524600Y-192107399I0J-249999D01*
G01*
X181524600Y-193007401D01*
G75*
G02*
X181274601Y-193257400I-249999J0D01*
G01*
X180624599Y-193257400D01*
G75*
G02*
X180374600Y-193007401I0J249999D01*
G01*
G37*
G36*
G01*
X178324600Y-193007401D02*
X178324600Y-192107399D01*
G75*
G02*
X178574599Y-191857400I249999J0D01*
G01*
X179224601Y-191857400D01*
G75*
G02*
X179474600Y-192107399I0J-249999D01*
G01*
X179474600Y-193007401D01*
G75*
G02*
X179224601Y-193257400I-249999J0D01*
G01*
X178574599Y-193257400D01*
G75*
G02*
X178324600Y-193007401I0J249999D01*
G01*
G37*
%TD*%
%TO.C,R103*%
G36*
G01*
X229659600Y-201643401D02*
X229659600Y-200743399D01*
G75*
G02*
X229909599Y-200493400I249999J0D01*
G01*
X230559601Y-200493400D01*
G75*
G02*
X230809600Y-200743399I0J-249999D01*
G01*
X230809600Y-201643401D01*
G75*
G02*
X230559601Y-201893400I-249999J0D01*
G01*
X229909599Y-201893400D01*
G75*
G02*
X229659600Y-201643401I0J249999D01*
G01*
G37*
G36*
G01*
X227609600Y-201643401D02*
X227609600Y-200743399D01*
G75*
G02*
X227859599Y-200493400I249999J0D01*
G01*
X228509601Y-200493400D01*
G75*
G02*
X228759600Y-200743399I0J-249999D01*
G01*
X228759600Y-201643401D01*
G75*
G02*
X228509601Y-201893400I-249999J0D01*
G01*
X227859599Y-201893400D01*
G75*
G02*
X227609600Y-201643401I0J249999D01*
G01*
G37*
%TD*%
%TO.C,R108*%
G36*
G01*
X214588400Y-161003401D02*
X214588400Y-160103399D01*
G75*
G02*
X214838399Y-159853400I249999J0D01*
G01*
X215488401Y-159853400D01*
G75*
G02*
X215738400Y-160103399I0J-249999D01*
G01*
X215738400Y-161003401D01*
G75*
G02*
X215488401Y-161253400I-249999J0D01*
G01*
X214838399Y-161253400D01*
G75*
G02*
X214588400Y-161003401I0J249999D01*
G01*
G37*
G36*
G01*
X212538400Y-161003401D02*
X212538400Y-160103399D01*
G75*
G02*
X212788399Y-159853400I249999J0D01*
G01*
X213438401Y-159853400D01*
G75*
G02*
X213688400Y-160103399I0J-249999D01*
G01*
X213688400Y-161003401D01*
G75*
G02*
X213438401Y-161253400I-249999J0D01*
G01*
X212788399Y-161253400D01*
G75*
G02*
X212538400Y-161003401I0J249999D01*
G01*
G37*
%TD*%
%TO.C,R109*%
G36*
G01*
X216781801Y-179933400D02*
X215881799Y-179933400D01*
G75*
G02*
X215631800Y-179683401I0J249999D01*
G01*
X215631800Y-179033399D01*
G75*
G02*
X215881799Y-178783400I249999J0D01*
G01*
X216781801Y-178783400D01*
G75*
G02*
X217031800Y-179033399I0J-249999D01*
G01*
X217031800Y-179683401D01*
G75*
G02*
X216781801Y-179933400I-249999J0D01*
G01*
G37*
G36*
G01*
X216781801Y-177883400D02*
X215881799Y-177883400D01*
G75*
G02*
X215631800Y-177633401I0J249999D01*
G01*
X215631800Y-176983399D01*
G75*
G02*
X215881799Y-176733400I249999J0D01*
G01*
X216781801Y-176733400D01*
G75*
G02*
X217031800Y-176983399I0J-249999D01*
G01*
X217031800Y-177633401D01*
G75*
G02*
X216781801Y-177883400I-249999J0D01*
G01*
G37*
%TD*%
%TO.C,R110*%
G36*
G01*
X207775500Y-147174799D02*
X207775500Y-148074801D01*
G75*
G02*
X207525501Y-148324800I-249999J0D01*
G01*
X206875499Y-148324800D01*
G75*
G02*
X206625500Y-148074801I0J249999D01*
G01*
X206625500Y-147174799D01*
G75*
G02*
X206875499Y-146924800I249999J0D01*
G01*
X207525501Y-146924800D01*
G75*
G02*
X207775500Y-147174799I0J-249999D01*
G01*
G37*
G36*
G01*
X205725500Y-147174799D02*
X205725500Y-148074801D01*
G75*
G02*
X205475501Y-148324800I-249999J0D01*
G01*
X204825499Y-148324800D01*
G75*
G02*
X204575500Y-148074801I0J249999D01*
G01*
X204575500Y-147174799D01*
G75*
G02*
X204825499Y-146924800I249999J0D01*
G01*
X205475501Y-146924800D01*
G75*
G02*
X205725500Y-147174799I0J-249999D01*
G01*
G37*
%TD*%
%TO.C,R111*%
G36*
G01*
X214535599Y-172424400D02*
X215435601Y-172424400D01*
G75*
G02*
X215685600Y-172674399I0J-249999D01*
G01*
X215685600Y-173324401D01*
G75*
G02*
X215435601Y-173574400I-249999J0D01*
G01*
X214535599Y-173574400D01*
G75*
G02*
X214285600Y-173324401I0J249999D01*
G01*
X214285600Y-172674399D01*
G75*
G02*
X214535599Y-172424400I249999J0D01*
G01*
G37*
G36*
G01*
X214535599Y-174474400D02*
X215435601Y-174474400D01*
G75*
G02*
X215685600Y-174724399I0J-249999D01*
G01*
X215685600Y-175374401D01*
G75*
G02*
X215435601Y-175624400I-249999J0D01*
G01*
X214535599Y-175624400D01*
G75*
G02*
X214285600Y-175374401I0J249999D01*
G01*
X214285600Y-174724399D01*
G75*
G02*
X214535599Y-174474400I249999J0D01*
G01*
G37*
%TD*%
%TO.C,R112*%
G36*
G01*
X139480600Y-155605901D02*
X139480600Y-154705899D01*
G75*
G02*
X139730599Y-154455900I249999J0D01*
G01*
X140380601Y-154455900D01*
G75*
G02*
X140630600Y-154705899I0J-249999D01*
G01*
X140630600Y-155605901D01*
G75*
G02*
X140380601Y-155855900I-249999J0D01*
G01*
X139730599Y-155855900D01*
G75*
G02*
X139480600Y-155605901I0J249999D01*
G01*
G37*
G36*
G01*
X141530600Y-155605901D02*
X141530600Y-154705899D01*
G75*
G02*
X141780599Y-154455900I249999J0D01*
G01*
X142430601Y-154455900D01*
G75*
G02*
X142680600Y-154705899I0J-249999D01*
G01*
X142680600Y-155605901D01*
G75*
G02*
X142430601Y-155855900I-249999J0D01*
G01*
X141780599Y-155855900D01*
G75*
G02*
X141530600Y-155605901I0J249999D01*
G01*
G37*
%TD*%
D46*
%TO.C,RV3*%
X227685600Y-214401400D03*
X225145600Y-214401400D03*
X222605600Y-214401400D03*
%TD*%
D47*
%TO.C,SW1*%
X246067100Y-142394900D03*
X246067100Y-143344900D03*
X246067100Y-144294900D03*
X248577100Y-142394900D03*
X248577100Y-143344900D03*
X248577100Y-144294900D03*
%TD*%
D27*
%TO.C,TP1*%
X150809700Y-90957400D03*
%TD*%
%TO.C,TP3*%
X135369300Y-90957400D03*
%TD*%
%TO.C,TP9*%
X140516100Y-90957400D03*
%TD*%
%TO.C,TP4*%
X224929700Y-206616300D03*
%TD*%
%TO.C,TP5*%
X224904300Y-198335900D03*
%TD*%
%TO.C,TP6*%
X221856300Y-174231300D03*
%TD*%
%TO.C,TP7*%
X128409700Y-150291800D03*
%TD*%
%TO.C,TP8*%
X116687600Y-210769200D03*
%TD*%
%TO.C,TP2*%
X145662900Y-90957400D03*
%TD*%
%TO.C,TP14*%
X123291600Y-150291800D03*
%TD*%
D48*
%TO.C,U3*%
X159849700Y-65887000D03*
X159849700Y-64617000D03*
X159849700Y-63347000D03*
X159849700Y-62077000D03*
X154261700Y-62077000D03*
X154261700Y-63347000D03*
X154261700Y-64617000D03*
X154261700Y-65887000D03*
%TD*%
D49*
%TO.C,U4*%
X231622600Y-172487400D03*
X230352600Y-172487400D03*
X229082600Y-172487400D03*
X227812600Y-172487400D03*
X227812600Y-161827400D03*
X229082600Y-161827400D03*
X230352600Y-161827400D03*
X231622600Y-161827400D03*
%TD*%
D50*
%TO.C,U5*%
X242544600Y-164363400D03*
X243814600Y-164363400D03*
X245084600Y-164363400D03*
X246354600Y-164363400D03*
X246354600Y-169951400D03*
X245084600Y-169951400D03*
X243814600Y-169951400D03*
X242544600Y-169951400D03*
%TD*%
D48*
%TO.C,U6*%
X139280900Y-63642240D03*
X139280900Y-64912240D03*
X139280900Y-66182240D03*
X139280900Y-67452240D03*
X133692900Y-67452240D03*
X133692900Y-66182240D03*
X133692900Y-64912240D03*
X133692900Y-63642240D03*
%TD*%
D24*
%TO.C,U7*%
X185553200Y-65655800D03*
X185553200Y-66925800D03*
X185553200Y-68195800D03*
X185553200Y-69465800D03*
X185553200Y-70735800D03*
X185553200Y-72005800D03*
X185553200Y-73275800D03*
X180643200Y-73275800D03*
X180643200Y-72005800D03*
X180643200Y-70735800D03*
X180643200Y-69465800D03*
X180643200Y-68195800D03*
X180643200Y-66925800D03*
X180643200Y-65655800D03*
%TD*%
%TO.C,U8*%
X225806700Y-73052000D03*
X225806700Y-71782000D03*
X225806700Y-70512000D03*
X225806700Y-69242000D03*
X225806700Y-67972000D03*
X225806700Y-66702000D03*
X225806700Y-65432000D03*
X230716700Y-65432000D03*
X230716700Y-66702000D03*
X230716700Y-67972000D03*
X230716700Y-69242000D03*
X230716700Y-70512000D03*
X230716700Y-71782000D03*
X230716700Y-73052000D03*
%TD*%
D51*
%TO.C,U9*%
X198221600Y-208382400D03*
D52*
X195921600Y-202132400D03*
X198221600Y-202132400D03*
X200521600Y-202132400D03*
%TD*%
%TO.C,U11*%
G36*
G01*
X289057180Y-94163220D02*
X289057180Y-93888220D01*
G75*
G02*
X289194680Y-93750720I137500J0D01*
G01*
X290519680Y-93750720D01*
G75*
G02*
X290657180Y-93888220I0J-137500D01*
G01*
X290657180Y-94163220D01*
G75*
G02*
X290519680Y-94300720I-137500J0D01*
G01*
X289194680Y-94300720D01*
G75*
G02*
X289057180Y-94163220I0J137500D01*
G01*
G37*
G36*
G01*
X289057180Y-95433220D02*
X289057180Y-95158220D01*
G75*
G02*
X289194680Y-95020720I137500J0D01*
G01*
X290519680Y-95020720D01*
G75*
G02*
X290657180Y-95158220I0J-137500D01*
G01*
X290657180Y-95433220D01*
G75*
G02*
X290519680Y-95570720I-137500J0D01*
G01*
X289194680Y-95570720D01*
G75*
G02*
X289057180Y-95433220I0J137500D01*
G01*
G37*
G36*
G01*
X282557180Y-95433220D02*
X282557180Y-95158220D01*
G75*
G02*
X282694680Y-95020720I137500J0D01*
G01*
X284019680Y-95020720D01*
G75*
G02*
X284157180Y-95158220I0J-137500D01*
G01*
X284157180Y-95433220D01*
G75*
G02*
X284019680Y-95570720I-137500J0D01*
G01*
X282694680Y-95570720D01*
G75*
G02*
X282557180Y-95433220I0J137500D01*
G01*
G37*
G36*
G01*
X282557180Y-94163220D02*
X282557180Y-93888220D01*
G75*
G02*
X282694680Y-93750720I137500J0D01*
G01*
X284019680Y-93750720D01*
G75*
G02*
X284157180Y-93888220I0J-137500D01*
G01*
X284157180Y-94163220D01*
G75*
G02*
X284019680Y-94300720I-137500J0D01*
G01*
X282694680Y-94300720D01*
G75*
G02*
X282557180Y-94163220I0J137500D01*
G01*
G37*
%TD*%
%TO.C,U13*%
G36*
G01*
X200049300Y-147762300D02*
X200049300Y-147487300D01*
G75*
G02*
X200186800Y-147349800I137500J0D01*
G01*
X201511800Y-147349800D01*
G75*
G02*
X201649300Y-147487300I0J-137500D01*
G01*
X201649300Y-147762300D01*
G75*
G02*
X201511800Y-147899800I-137500J0D01*
G01*
X200186800Y-147899800D01*
G75*
G02*
X200049300Y-147762300I0J137500D01*
G01*
G37*
G36*
G01*
X200049300Y-149032300D02*
X200049300Y-148757300D01*
G75*
G02*
X200186800Y-148619800I137500J0D01*
G01*
X201511800Y-148619800D01*
G75*
G02*
X201649300Y-148757300I0J-137500D01*
G01*
X201649300Y-149032300D01*
G75*
G02*
X201511800Y-149169800I-137500J0D01*
G01*
X200186800Y-149169800D01*
G75*
G02*
X200049300Y-149032300I0J137500D01*
G01*
G37*
G36*
G01*
X193549300Y-149032300D02*
X193549300Y-148757300D01*
G75*
G02*
X193686800Y-148619800I137500J0D01*
G01*
X195011800Y-148619800D01*
G75*
G02*
X195149300Y-148757300I0J-137500D01*
G01*
X195149300Y-149032300D01*
G75*
G02*
X195011800Y-149169800I-137500J0D01*
G01*
X193686800Y-149169800D01*
G75*
G02*
X193549300Y-149032300I0J137500D01*
G01*
G37*
G36*
G01*
X193549300Y-147762300D02*
X193549300Y-147487300D01*
G75*
G02*
X193686800Y-147349800I137500J0D01*
G01*
X195011800Y-147349800D01*
G75*
G02*
X195149300Y-147487300I0J-137500D01*
G01*
X195149300Y-147762300D01*
G75*
G02*
X195011800Y-147899800I-137500J0D01*
G01*
X193686800Y-147899800D01*
G75*
G02*
X193549300Y-147762300I0J137500D01*
G01*
G37*
%TD*%
D53*
%TO.C,U14*%
X107914700Y-210207000D03*
%TD*%
%TO.C,U15*%
X107914700Y-60607000D03*
%TD*%
D48*
%TO.C,U16*%
X242030700Y-64872000D03*
X242030700Y-63602000D03*
X242030700Y-62332000D03*
X242030700Y-61062000D03*
X236442700Y-61062000D03*
X236442700Y-62332000D03*
X236442700Y-63602000D03*
X236442700Y-64872000D03*
%TD*%
D53*
%TO.C,U17*%
X295614700Y-60607000D03*
%TD*%
D24*
%TO.C,U18*%
X256493100Y-150075900D03*
X256493100Y-148805900D03*
X256493100Y-147535900D03*
X256493100Y-146265900D03*
X256493100Y-144995900D03*
X256493100Y-143725900D03*
X256493100Y-142455900D03*
X251583100Y-142455900D03*
X251583100Y-143725900D03*
X251583100Y-144995900D03*
X251583100Y-146265900D03*
X251583100Y-147535900D03*
X251583100Y-148805900D03*
X251583100Y-150075900D03*
%TD*%
%TO.C,U22*%
X200656700Y-79222000D03*
X200656700Y-77952000D03*
X200656700Y-76682000D03*
X200656700Y-75412000D03*
X200656700Y-74142000D03*
X200656700Y-72872000D03*
X200656700Y-71602000D03*
X200656700Y-70332000D03*
X200656700Y-69062000D03*
X200656700Y-67792000D03*
X200656700Y-66522000D03*
X200656700Y-65252000D03*
X200656700Y-63982000D03*
X200656700Y-62712000D03*
X209866700Y-62712000D03*
X209866700Y-63982000D03*
X209866700Y-65252000D03*
X209866700Y-66522000D03*
X209866700Y-67792000D03*
X209866700Y-69062000D03*
X209866700Y-70332000D03*
X209866700Y-71602000D03*
X209866700Y-72872000D03*
X209866700Y-74142000D03*
X209866700Y-75412000D03*
X209866700Y-76682000D03*
X209866700Y-77952000D03*
X209866700Y-79222000D03*
%TD*%
D54*
%TO.C,U23*%
X243506100Y-155266900D03*
X243506100Y-154766900D03*
X243506100Y-154266900D03*
X243506100Y-153766900D03*
X243506100Y-153266900D03*
X247806100Y-153266900D03*
X247806100Y-153766900D03*
X247806100Y-154266900D03*
X247806100Y-154766900D03*
X247806100Y-155266900D03*
%TD*%
%TO.C,U24*%
G36*
G01*
X153592700Y-153439200D02*
X153592700Y-153164200D01*
G75*
G02*
X153730200Y-153026700I137500J0D01*
G01*
X155055200Y-153026700D01*
G75*
G02*
X155192700Y-153164200I0J-137500D01*
G01*
X155192700Y-153439200D01*
G75*
G02*
X155055200Y-153576700I-137500J0D01*
G01*
X153730200Y-153576700D01*
G75*
G02*
X153592700Y-153439200I0J137500D01*
G01*
G37*
G36*
G01*
X153592700Y-154709200D02*
X153592700Y-154434200D01*
G75*
G02*
X153730200Y-154296700I137500J0D01*
G01*
X155055200Y-154296700D01*
G75*
G02*
X155192700Y-154434200I0J-137500D01*
G01*
X155192700Y-154709200D01*
G75*
G02*
X155055200Y-154846700I-137500J0D01*
G01*
X153730200Y-154846700D01*
G75*
G02*
X153592700Y-154709200I0J137500D01*
G01*
G37*
G36*
G01*
X147092700Y-154709200D02*
X147092700Y-154434200D01*
G75*
G02*
X147230200Y-154296700I137500J0D01*
G01*
X148555200Y-154296700D01*
G75*
G02*
X148692700Y-154434200I0J-137500D01*
G01*
X148692700Y-154709200D01*
G75*
G02*
X148555200Y-154846700I-137500J0D01*
G01*
X147230200Y-154846700D01*
G75*
G02*
X147092700Y-154709200I0J137500D01*
G01*
G37*
G36*
G01*
X147092700Y-153439200D02*
X147092700Y-153164200D01*
G75*
G02*
X147230200Y-153026700I137500J0D01*
G01*
X148555200Y-153026700D01*
G75*
G02*
X148692700Y-153164200I0J-137500D01*
G01*
X148692700Y-153439200D01*
G75*
G02*
X148555200Y-153576700I-137500J0D01*
G01*
X147230200Y-153576700D01*
G75*
G02*
X147092700Y-153439200I0J137500D01*
G01*
G37*
%TD*%
D19*
%TO.C,U26*%
X257911600Y-197044400D03*
X259181600Y-197044400D03*
X260451600Y-197044400D03*
X261721600Y-197044400D03*
X262991600Y-197044400D03*
X264261600Y-197044400D03*
X265531600Y-197044400D03*
X265531600Y-192134400D03*
X264261600Y-192134400D03*
X262991600Y-192134400D03*
X261721600Y-192134400D03*
X260451600Y-192134400D03*
X259181600Y-192134400D03*
X257911600Y-192134400D03*
%TD*%
D53*
%TO.C,U2*%
X295614700Y-210207000D03*
%TD*%
D55*
%TO.C,U29*%
X215605600Y-195747400D03*
X215605600Y-194447400D03*
X217525600Y-194447400D03*
X217525600Y-195097400D03*
X217525600Y-195747400D03*
%TD*%
%TO.C,U30*%
G36*
G01*
X230836700Y-109269500D02*
X230836700Y-108994500D01*
G75*
G02*
X230974200Y-108857000I137500J0D01*
G01*
X232299200Y-108857000D01*
G75*
G02*
X232436700Y-108994500I0J-137500D01*
G01*
X232436700Y-109269500D01*
G75*
G02*
X232299200Y-109407000I-137500J0D01*
G01*
X230974200Y-109407000D01*
G75*
G02*
X230836700Y-109269500I0J137500D01*
G01*
G37*
G36*
G01*
X230836700Y-110539500D02*
X230836700Y-110264500D01*
G75*
G02*
X230974200Y-110127000I137500J0D01*
G01*
X232299200Y-110127000D01*
G75*
G02*
X232436700Y-110264500I0J-137500D01*
G01*
X232436700Y-110539500D01*
G75*
G02*
X232299200Y-110677000I-137500J0D01*
G01*
X230974200Y-110677000D01*
G75*
G02*
X230836700Y-110539500I0J137500D01*
G01*
G37*
G36*
G01*
X224336700Y-110539500D02*
X224336700Y-110264500D01*
G75*
G02*
X224474200Y-110127000I137500J0D01*
G01*
X225799200Y-110127000D01*
G75*
G02*
X225936700Y-110264500I0J-137500D01*
G01*
X225936700Y-110539500D01*
G75*
G02*
X225799200Y-110677000I-137500J0D01*
G01*
X224474200Y-110677000D01*
G75*
G02*
X224336700Y-110539500I0J137500D01*
G01*
G37*
G36*
G01*
X224336700Y-109269500D02*
X224336700Y-108994500D01*
G75*
G02*
X224474200Y-108857000I137500J0D01*
G01*
X225799200Y-108857000D01*
G75*
G02*
X225936700Y-108994500I0J-137500D01*
G01*
X225936700Y-109269500D01*
G75*
G02*
X225799200Y-109407000I-137500J0D01*
G01*
X224474200Y-109407000D01*
G75*
G02*
X224336700Y-109269500I0J137500D01*
G01*
G37*
%TD*%
%TO.C,U31*%
G36*
G01*
X145125100Y-163107400D02*
X145400100Y-163107400D01*
G75*
G02*
X145537600Y-163244900I0J-137500D01*
G01*
X145537600Y-164569900D01*
G75*
G02*
X145400100Y-164707400I-137500J0D01*
G01*
X145125100Y-164707400D01*
G75*
G02*
X144987600Y-164569900I0J137500D01*
G01*
X144987600Y-163244900D01*
G75*
G02*
X145125100Y-163107400I137500J0D01*
G01*
G37*
G36*
G01*
X143855100Y-163107400D02*
X144130100Y-163107400D01*
G75*
G02*
X144267600Y-163244900I0J-137500D01*
G01*
X144267600Y-164569900D01*
G75*
G02*
X144130100Y-164707400I-137500J0D01*
G01*
X143855100Y-164707400D01*
G75*
G02*
X143717600Y-164569900I0J137500D01*
G01*
X143717600Y-163244900D01*
G75*
G02*
X143855100Y-163107400I137500J0D01*
G01*
G37*
G36*
G01*
X143855100Y-169607400D02*
X144130100Y-169607400D01*
G75*
G02*
X144267600Y-169744900I0J-137500D01*
G01*
X144267600Y-171069900D01*
G75*
G02*
X144130100Y-171207400I-137500J0D01*
G01*
X143855100Y-171207400D01*
G75*
G02*
X143717600Y-171069900I0J137500D01*
G01*
X143717600Y-169744900D01*
G75*
G02*
X143855100Y-169607400I137500J0D01*
G01*
G37*
G36*
G01*
X145125100Y-169607400D02*
X145400100Y-169607400D01*
G75*
G02*
X145537600Y-169744900I0J-137500D01*
G01*
X145537600Y-171069900D01*
G75*
G02*
X145400100Y-171207400I-137500J0D01*
G01*
X145125100Y-171207400D01*
G75*
G02*
X144987600Y-171069900I0J137500D01*
G01*
X144987600Y-169744900D01*
G75*
G02*
X145125100Y-169607400I137500J0D01*
G01*
G37*
%TD*%
%TO.C,U32*%
G36*
G01*
X153020100Y-171207400D02*
X152745100Y-171207400D01*
G75*
G02*
X152607600Y-171069900I0J137500D01*
G01*
X152607600Y-169744900D01*
G75*
G02*
X152745100Y-169607400I137500J0D01*
G01*
X153020100Y-169607400D01*
G75*
G02*
X153157600Y-169744900I0J-137500D01*
G01*
X153157600Y-171069900D01*
G75*
G02*
X153020100Y-171207400I-137500J0D01*
G01*
G37*
G36*
G01*
X154290100Y-171207400D02*
X154015100Y-171207400D01*
G75*
G02*
X153877600Y-171069900I0J137500D01*
G01*
X153877600Y-169744900D01*
G75*
G02*
X154015100Y-169607400I137500J0D01*
G01*
X154290100Y-169607400D01*
G75*
G02*
X154427600Y-169744900I0J-137500D01*
G01*
X154427600Y-171069900D01*
G75*
G02*
X154290100Y-171207400I-137500J0D01*
G01*
G37*
G36*
G01*
X154290100Y-164707400D02*
X154015100Y-164707400D01*
G75*
G02*
X153877600Y-164569900I0J137500D01*
G01*
X153877600Y-163244900D01*
G75*
G02*
X154015100Y-163107400I137500J0D01*
G01*
X154290100Y-163107400D01*
G75*
G02*
X154427600Y-163244900I0J-137500D01*
G01*
X154427600Y-164569900D01*
G75*
G02*
X154290100Y-164707400I-137500J0D01*
G01*
G37*
G36*
G01*
X153020100Y-164707400D02*
X152745100Y-164707400D01*
G75*
G02*
X152607600Y-164569900I0J137500D01*
G01*
X152607600Y-163244900D01*
G75*
G02*
X152745100Y-163107400I137500J0D01*
G01*
X153020100Y-163107400D01*
G75*
G02*
X153157600Y-163244900I0J-137500D01*
G01*
X153157600Y-164569900D01*
G75*
G02*
X153020100Y-164707400I-137500J0D01*
G01*
G37*
%TD*%
%TO.C,U34*%
G36*
G01*
X214975100Y-163107400D02*
X215250100Y-163107400D01*
G75*
G02*
X215387600Y-163244900I0J-137500D01*
G01*
X215387600Y-164569900D01*
G75*
G02*
X215250100Y-164707400I-137500J0D01*
G01*
X214975100Y-164707400D01*
G75*
G02*
X214837600Y-164569900I0J137500D01*
G01*
X214837600Y-163244900D01*
G75*
G02*
X214975100Y-163107400I137500J0D01*
G01*
G37*
G36*
G01*
X213705100Y-163107400D02*
X213980100Y-163107400D01*
G75*
G02*
X214117600Y-163244900I0J-137500D01*
G01*
X214117600Y-164569900D01*
G75*
G02*
X213980100Y-164707400I-137500J0D01*
G01*
X213705100Y-164707400D01*
G75*
G02*
X213567600Y-164569900I0J137500D01*
G01*
X213567600Y-163244900D01*
G75*
G02*
X213705100Y-163107400I137500J0D01*
G01*
G37*
G36*
G01*
X213705100Y-169607400D02*
X213980100Y-169607400D01*
G75*
G02*
X214117600Y-169744900I0J-137500D01*
G01*
X214117600Y-171069900D01*
G75*
G02*
X213980100Y-171207400I-137500J0D01*
G01*
X213705100Y-171207400D01*
G75*
G02*
X213567600Y-171069900I0J137500D01*
G01*
X213567600Y-169744900D01*
G75*
G02*
X213705100Y-169607400I137500J0D01*
G01*
G37*
G36*
G01*
X214975100Y-169607400D02*
X215250100Y-169607400D01*
G75*
G02*
X215387600Y-169744900I0J-137500D01*
G01*
X215387600Y-171069900D01*
G75*
G02*
X215250100Y-171207400I-137500J0D01*
G01*
X214975100Y-171207400D01*
G75*
G02*
X214837600Y-171069900I0J137500D01*
G01*
X214837600Y-169744900D01*
G75*
G02*
X214975100Y-169607400I137500J0D01*
G01*
G37*
%TD*%
D24*
%TO.C,U35*%
X132161100Y-157632400D03*
X132161100Y-156362400D03*
X132161100Y-155092400D03*
X132161100Y-153822400D03*
X132161100Y-152552400D03*
X132161100Y-151282400D03*
X132161100Y-150012400D03*
X137071100Y-150012400D03*
X137071100Y-151282400D03*
X137071100Y-152552400D03*
X137071100Y-153822400D03*
X137071100Y-155092400D03*
X137071100Y-156362400D03*
X137071100Y-157632400D03*
%TD*%
%TO.C,U37*%
G36*
G01*
X137505100Y-163107400D02*
X137780100Y-163107400D01*
G75*
G02*
X137917600Y-163244900I0J-137500D01*
G01*
X137917600Y-164569900D01*
G75*
G02*
X137780100Y-164707400I-137500J0D01*
G01*
X137505100Y-164707400D01*
G75*
G02*
X137367600Y-164569900I0J137500D01*
G01*
X137367600Y-163244900D01*
G75*
G02*
X137505100Y-163107400I137500J0D01*
G01*
G37*
G36*
G01*
X136235100Y-163107400D02*
X136510100Y-163107400D01*
G75*
G02*
X136647600Y-163244900I0J-137500D01*
G01*
X136647600Y-164569900D01*
G75*
G02*
X136510100Y-164707400I-137500J0D01*
G01*
X136235100Y-164707400D01*
G75*
G02*
X136097600Y-164569900I0J137500D01*
G01*
X136097600Y-163244900D01*
G75*
G02*
X136235100Y-163107400I137500J0D01*
G01*
G37*
G36*
G01*
X136235100Y-169607400D02*
X136510100Y-169607400D01*
G75*
G02*
X136647600Y-169744900I0J-137500D01*
G01*
X136647600Y-171069900D01*
G75*
G02*
X136510100Y-171207400I-137500J0D01*
G01*
X136235100Y-171207400D01*
G75*
G02*
X136097600Y-171069900I0J137500D01*
G01*
X136097600Y-169744900D01*
G75*
G02*
X136235100Y-169607400I137500J0D01*
G01*
G37*
G36*
G01*
X137505100Y-169607400D02*
X137780100Y-169607400D01*
G75*
G02*
X137917600Y-169744900I0J-137500D01*
G01*
X137917600Y-171069900D01*
G75*
G02*
X137780100Y-171207400I-137500J0D01*
G01*
X137505100Y-171207400D01*
G75*
G02*
X137367600Y-171069900I0J137500D01*
G01*
X137367600Y-169744900D01*
G75*
G02*
X137505100Y-169607400I137500J0D01*
G01*
G37*
%TD*%
D50*
%TO.C,U42*%
X283156660Y-112125760D03*
X284426660Y-112125760D03*
X285696660Y-112125760D03*
X286966660Y-112125760D03*
X286966660Y-117713760D03*
X285696660Y-117713760D03*
X284426660Y-117713760D03*
X283156660Y-117713760D03*
%TD*%
%TO.C,U48*%
G36*
G01*
X120332600Y-125372200D02*
X120332600Y-125097200D01*
G75*
G02*
X120470100Y-124959700I137500J0D01*
G01*
X121795100Y-124959700D01*
G75*
G02*
X121932600Y-125097200I0J-137500D01*
G01*
X121932600Y-125372200D01*
G75*
G02*
X121795100Y-125509700I-137500J0D01*
G01*
X120470100Y-125509700D01*
G75*
G02*
X120332600Y-125372200I0J137500D01*
G01*
G37*
G36*
G01*
X120332600Y-126642200D02*
X120332600Y-126367200D01*
G75*
G02*
X120470100Y-126229700I137500J0D01*
G01*
X121795100Y-126229700D01*
G75*
G02*
X121932600Y-126367200I0J-137500D01*
G01*
X121932600Y-126642200D01*
G75*
G02*
X121795100Y-126779700I-137500J0D01*
G01*
X120470100Y-126779700D01*
G75*
G02*
X120332600Y-126642200I0J137500D01*
G01*
G37*
G36*
G01*
X126832600Y-126642200D02*
X126832600Y-126367200D01*
G75*
G02*
X126970100Y-126229700I137500J0D01*
G01*
X128295100Y-126229700D01*
G75*
G02*
X128432600Y-126367200I0J-137500D01*
G01*
X128432600Y-126642200D01*
G75*
G02*
X128295100Y-126779700I-137500J0D01*
G01*
X126970100Y-126779700D01*
G75*
G02*
X126832600Y-126642200I0J137500D01*
G01*
G37*
G36*
G01*
X126832600Y-125372200D02*
X126832600Y-125097200D01*
G75*
G02*
X126970100Y-124959700I137500J0D01*
G01*
X128295100Y-124959700D01*
G75*
G02*
X128432600Y-125097200I0J-137500D01*
G01*
X128432600Y-125372200D01*
G75*
G02*
X128295100Y-125509700I-137500J0D01*
G01*
X126970100Y-125509700D01*
G75*
G02*
X126832600Y-125372200I0J137500D01*
G01*
G37*
%TD*%
%TO.C,U49*%
G36*
G01*
X277640020Y-87284900D02*
X277640020Y-87009900D01*
G75*
G02*
X277777520Y-86872400I137500J0D01*
G01*
X279102520Y-86872400D01*
G75*
G02*
X279240020Y-87009900I0J-137500D01*
G01*
X279240020Y-87284900D01*
G75*
G02*
X279102520Y-87422400I-137500J0D01*
G01*
X277777520Y-87422400D01*
G75*
G02*
X277640020Y-87284900I0J137500D01*
G01*
G37*
G36*
G01*
X277640020Y-88554900D02*
X277640020Y-88279900D01*
G75*
G02*
X277777520Y-88142400I137500J0D01*
G01*
X279102520Y-88142400D01*
G75*
G02*
X279240020Y-88279900I0J-137500D01*
G01*
X279240020Y-88554900D01*
G75*
G02*
X279102520Y-88692400I-137500J0D01*
G01*
X277777520Y-88692400D01*
G75*
G02*
X277640020Y-88554900I0J137500D01*
G01*
G37*
G36*
G01*
X271140020Y-88554900D02*
X271140020Y-88279900D01*
G75*
G02*
X271277520Y-88142400I137500J0D01*
G01*
X272602520Y-88142400D01*
G75*
G02*
X272740020Y-88279900I0J-137500D01*
G01*
X272740020Y-88554900D01*
G75*
G02*
X272602520Y-88692400I-137500J0D01*
G01*
X271277520Y-88692400D01*
G75*
G02*
X271140020Y-88554900I0J137500D01*
G01*
G37*
G36*
G01*
X271140020Y-87284900D02*
X271140020Y-87009900D01*
G75*
G02*
X271277520Y-86872400I137500J0D01*
G01*
X272602520Y-86872400D01*
G75*
G02*
X272740020Y-87009900I0J-137500D01*
G01*
X272740020Y-87284900D01*
G75*
G02*
X272602520Y-87422400I-137500J0D01*
G01*
X271277520Y-87422400D01*
G75*
G02*
X271140020Y-87284900I0J137500D01*
G01*
G37*
%TD*%
D56*
%TO.C,D12*%
X213969600Y-179983400D03*
X213969600Y-176683400D03*
%TD*%
%TO.C,C1*%
G36*
G01*
X208648500Y-185285801D02*
X208648500Y-184385799D01*
G75*
G02*
X208898499Y-184135800I249999J0D01*
G01*
X209548501Y-184135800D01*
G75*
G02*
X209798500Y-184385799I0J-249999D01*
G01*
X209798500Y-185285801D01*
G75*
G02*
X209548501Y-185535800I-249999J0D01*
G01*
X208898499Y-185535800D01*
G75*
G02*
X208648500Y-185285801I0J249999D01*
G01*
G37*
G36*
G01*
X210698500Y-185285801D02*
X210698500Y-184385799D01*
G75*
G02*
X210948499Y-184135800I249999J0D01*
G01*
X211598501Y-184135800D01*
G75*
G02*
X211848500Y-184385799I0J-249999D01*
G01*
X211848500Y-185285801D01*
G75*
G02*
X211598501Y-185535800I-249999J0D01*
G01*
X210948499Y-185535800D01*
G75*
G02*
X210698500Y-185285801I0J249999D01*
G01*
G37*
%TD*%
D43*
%TO.C,U12*%
X206333600Y-186395400D03*
X206333600Y-184495400D03*
X204333600Y-185445400D03*
%TD*%
%TO.C,R25*%
G36*
G01*
X230565000Y-154755001D02*
X230565000Y-153854999D01*
G75*
G02*
X230814999Y-153605000I249999J0D01*
G01*
X231465001Y-153605000D01*
G75*
G02*
X231715000Y-153854999I0J-249999D01*
G01*
X231715000Y-154755001D01*
G75*
G02*
X231465001Y-155005000I-249999J0D01*
G01*
X230814999Y-155005000D01*
G75*
G02*
X230565000Y-154755001I0J249999D01*
G01*
G37*
G36*
G01*
X232615000Y-154755001D02*
X232615000Y-153854999D01*
G75*
G02*
X232864999Y-153605000I249999J0D01*
G01*
X233515001Y-153605000D01*
G75*
G02*
X233765000Y-153854999I0J-249999D01*
G01*
X233765000Y-154755001D01*
G75*
G02*
X233515001Y-155005000I-249999J0D01*
G01*
X232864999Y-155005000D01*
G75*
G02*
X232615000Y-154755001I0J249999D01*
G01*
G37*
%TD*%
%TO.C,R61*%
G36*
G01*
X231715000Y-146869999D02*
X231715000Y-147770001D01*
G75*
G02*
X231465001Y-148020000I-249999J0D01*
G01*
X230814999Y-148020000D01*
G75*
G02*
X230565000Y-147770001I0J249999D01*
G01*
X230565000Y-146869999D01*
G75*
G02*
X230814999Y-146620000I249999J0D01*
G01*
X231465001Y-146620000D01*
G75*
G02*
X231715000Y-146869999I0J-249999D01*
G01*
G37*
G36*
G01*
X233765000Y-146869999D02*
X233765000Y-147770001D01*
G75*
G02*
X233515001Y-148020000I-249999J0D01*
G01*
X232864999Y-148020000D01*
G75*
G02*
X232615000Y-147770001I0J249999D01*
G01*
X232615000Y-146869999D01*
G75*
G02*
X232864999Y-146620000I249999J0D01*
G01*
X233515001Y-146620000D01*
G75*
G02*
X233765000Y-146869999I0J-249999D01*
G01*
G37*
%TD*%
%TO.C,U20*%
G36*
G01*
X228360000Y-150632500D02*
X228360000Y-150357500D01*
G75*
G02*
X228497500Y-150220000I137500J0D01*
G01*
X229822500Y-150220000D01*
G75*
G02*
X229960000Y-150357500I0J-137500D01*
G01*
X229960000Y-150632500D01*
G75*
G02*
X229822500Y-150770000I-137500J0D01*
G01*
X228497500Y-150770000D01*
G75*
G02*
X228360000Y-150632500I0J137500D01*
G01*
G37*
G36*
G01*
X228360000Y-151902500D02*
X228360000Y-151627500D01*
G75*
G02*
X228497500Y-151490000I137500J0D01*
G01*
X229822500Y-151490000D01*
G75*
G02*
X229960000Y-151627500I0J-137500D01*
G01*
X229960000Y-151902500D01*
G75*
G02*
X229822500Y-152040000I-137500J0D01*
G01*
X228497500Y-152040000D01*
G75*
G02*
X228360000Y-151902500I0J137500D01*
G01*
G37*
G36*
G01*
X234860000Y-151902500D02*
X234860000Y-151627500D01*
G75*
G02*
X234997500Y-151490000I137500J0D01*
G01*
X236322500Y-151490000D01*
G75*
G02*
X236460000Y-151627500I0J-137500D01*
G01*
X236460000Y-151902500D01*
G75*
G02*
X236322500Y-152040000I-137500J0D01*
G01*
X234997500Y-152040000D01*
G75*
G02*
X234860000Y-151902500I0J137500D01*
G01*
G37*
G36*
G01*
X234860000Y-150632500D02*
X234860000Y-150357500D01*
G75*
G02*
X234997500Y-150220000I137500J0D01*
G01*
X236322500Y-150220000D01*
G75*
G02*
X236460000Y-150357500I0J-137500D01*
G01*
X236460000Y-150632500D01*
G75*
G02*
X236322500Y-150770000I-137500J0D01*
G01*
X234997500Y-150770000D01*
G75*
G02*
X234860000Y-150632500I0J137500D01*
G01*
G37*
%TD*%
D16*
%TO.C,J30*%
X127965200Y-101803200D03*
D15*
X127965200Y-104343200D03*
%TD*%
M02*
