%TF.GenerationSoftware,KiCad,Pcbnew,(5.1.6)-1*%
%TF.CreationDate,2021-02-04T22:55:20-05:00*%
%TF.ProjectId,TSI_Rev.5,5453495f-5265-4762-9e35-2e6b69636164,rev?*%
%TF.SameCoordinates,Original*%
%TF.FileFunction,Soldermask,Bot*%
%TF.FilePolarity,Negative*%
%FSLAX46Y46*%
G04 Gerber Fmt 4.6, Leading zero omitted, Abs format (unit mm)*
G04 Created by KiCad (PCBNEW (5.1.6)-1) date 2021-02-04 22:55:20*
%MOMM*%
%LPD*%
G01*
G04 APERTURE LIST*
%ADD10C,2.000000*%
%ADD11R,2.000000X2.000000*%
%ADD12R,0.850000X0.850000*%
%ADD13O,1.700000X1.700000*%
%ADD14R,1.700000X1.700000*%
%ADD15R,2.800000X2.800000*%
%ADD16C,2.800000*%
%ADD17C,1.905000*%
%ADD18C,1.778000*%
%ADD19R,1.778000X1.778000*%
%ADD20C,2.400000*%
%ADD21R,2.200000X2.200000*%
%ADD22O,2.200000X2.200000*%
%ADD23C,5.500000*%
%ADD24R,1.800000X1.800000*%
%ADD25C,1.800000*%
%ADD26C,2.200000*%
%ADD27C,1.808000*%
%ADD28C,3.226000*%
%ADD29R,2.400000X2.400000*%
%ADD30C,1.440000*%
%ADD31C,7.000000*%
G04 APERTURE END LIST*
D10*
%TO.C,PS1*%
X126887600Y-157007400D03*
X126887600Y-177307400D03*
X116687600Y-177307400D03*
X106487600Y-177307400D03*
X119287600Y-157007400D03*
D11*
X114187600Y-157007400D03*
%TD*%
D12*
%TO.C,J29*%
X101942900Y-159334200D03*
%TD*%
D13*
%TO.C,J23*%
X104838500Y-72415400D03*
D14*
X104838500Y-69875400D03*
%TD*%
D13*
%TO.C,J21*%
X233514900Y-126238000D03*
X233514900Y-123698000D03*
X233514900Y-121158000D03*
D14*
X233514900Y-118618000D03*
%TD*%
D13*
%TO.C,J19*%
X135737600Y-106832400D03*
X135737600Y-104292400D03*
X135737600Y-101752400D03*
D14*
X135737600Y-99212400D03*
%TD*%
D11*
%TO.C,U41*%
X247972420Y-116612040D03*
D10*
X247972420Y-111512040D03*
X268272420Y-124312040D03*
X268272420Y-114112040D03*
X268272420Y-103912040D03*
X247972420Y-103912040D03*
%TD*%
D13*
%TO.C,J13.2*%
X280672540Y-78257400D03*
X280672540Y-75717400D03*
X280672540Y-73177400D03*
X280697940Y-70637400D03*
X280672540Y-68097400D03*
D14*
X280672540Y-65557400D03*
%TD*%
D15*
%TO.C,J9*%
X105041700Y-150266400D03*
D16*
X105041700Y-146066400D03*
X110541700Y-150266400D03*
X110541700Y-146066400D03*
%TD*%
D17*
%TO.C,K3*%
X166852600Y-107657900D03*
X180822600Y-107657900D03*
X185915300Y-107657900D03*
X197345300Y-107657900D03*
X202425300Y-107657900D03*
X202425300Y-117817900D03*
X197345300Y-117817900D03*
X185915300Y-117817900D03*
X180822600Y-117817900D03*
X166852600Y-117817900D03*
%TD*%
D13*
%TO.C,JP3*%
X285318200Y-89090500D03*
D14*
X285318200Y-86550500D03*
%TD*%
D13*
%TO.C,J13.1*%
X122908060Y-78257400D03*
X122933460Y-75717400D03*
X122933460Y-73177400D03*
X122933460Y-70637400D03*
X122933460Y-68097400D03*
D14*
X122933460Y-65557400D03*
%TD*%
D18*
%TO.C,U1*%
X285597600Y-153949400D03*
X270357600Y-153949400D03*
X270357600Y-179095400D03*
X270357600Y-181635400D03*
D19*
X285597600Y-181635400D03*
%TD*%
D20*
%TO.C,C14*%
X285597600Y-190017400D03*
X270597600Y-190017400D03*
%TD*%
D21*
%TO.C,D5*%
X158711900Y-92062300D03*
D22*
X158711900Y-84442300D03*
%TD*%
D21*
%TO.C,D8*%
X149707600Y-173507400D03*
D22*
X149707600Y-181127400D03*
%TD*%
%TO.C,D9*%
X155111700Y-104672000D03*
D21*
X155111700Y-112292000D03*
%TD*%
%TO.C,D16*%
X207619600Y-207035400D03*
D22*
X215239600Y-207035400D03*
%TD*%
%TO.C,D17*%
X168503600Y-202971400D03*
D21*
X176123600Y-202971400D03*
%TD*%
D23*
%TO.C,J1*%
X280009600Y-213551400D03*
X280009600Y-206781400D03*
X280009600Y-200011400D03*
%TD*%
D16*
%TO.C,J3*%
X169353600Y-211861400D03*
D15*
X174853600Y-211861400D03*
%TD*%
D16*
%TO.C,J4*%
X141733600Y-210757400D03*
X137533600Y-210757400D03*
X133333600Y-210757400D03*
X129133600Y-210757400D03*
X141733600Y-205257400D03*
X137533600Y-205257400D03*
X133333600Y-205257400D03*
D15*
X129133600Y-205257400D03*
%TD*%
D16*
%TO.C,J5*%
X110541700Y-125322000D03*
X110541700Y-129522000D03*
X110541700Y-133722000D03*
X110541700Y-137922000D03*
X105041700Y-125322000D03*
X105041700Y-129522000D03*
X105041700Y-133722000D03*
D15*
X105041700Y-137922000D03*
%TD*%
D16*
%TO.C,J6*%
X292854750Y-89417000D03*
X292854750Y-85217000D03*
X298354750Y-89417000D03*
D15*
X298354750Y-85217000D03*
%TD*%
D16*
%TO.C,J7*%
X292854750Y-105927000D03*
X292854750Y-101727000D03*
X298354750Y-105927000D03*
D15*
X298354750Y-101727000D03*
%TD*%
D16*
%TO.C,J8*%
X198996300Y-133134100D03*
D15*
X198996300Y-127634100D03*
%TD*%
%TO.C,J10*%
X105041700Y-116967000D03*
D16*
X105041700Y-112767000D03*
X105041700Y-108567000D03*
X105041700Y-104367000D03*
X110541700Y-116967000D03*
X110541700Y-112767000D03*
X110541700Y-108567000D03*
X110541700Y-104367000D03*
%TD*%
%TO.C,J11*%
X215361700Y-106792000D03*
X211161700Y-106792000D03*
X215361700Y-101292000D03*
D15*
X211161700Y-101292000D03*
%TD*%
%TO.C,J12*%
X218440000Y-144983200D03*
D16*
X222640000Y-144983200D03*
X218440000Y-150483200D03*
X222640000Y-150483200D03*
%TD*%
D12*
%TO.C,J13*%
X254101600Y-213893400D03*
%TD*%
D15*
%TO.C,J14*%
X297827700Y-151574500D03*
D16*
X297827700Y-157074500D03*
%TD*%
D15*
%TO.C,J15*%
X105041700Y-96012000D03*
D16*
X105041700Y-91812000D03*
X105041700Y-87612000D03*
X110541700Y-96012000D03*
X110541700Y-91812000D03*
X110541700Y-87612000D03*
%TD*%
%TO.C,J16*%
X292854750Y-142757000D03*
X292854750Y-138557000D03*
X298354750Y-142757000D03*
D15*
X298354750Y-138557000D03*
%TD*%
%TO.C,J17*%
X179616100Y-153085800D03*
D16*
X179616100Y-148885800D03*
X185116100Y-153085800D03*
X185116100Y-148885800D03*
%TD*%
%TO.C,J18*%
X292854750Y-124097000D03*
X292854750Y-119897000D03*
X292854750Y-115697000D03*
X298354750Y-124097000D03*
X298354750Y-119897000D03*
D15*
X298354750Y-115697000D03*
%TD*%
%TO.C,J20*%
X207619600Y-213385400D03*
D16*
X213119600Y-213385400D03*
%TD*%
D15*
%TO.C,J22*%
X148221700Y-107213400D03*
D16*
X144021700Y-107213400D03*
X148221700Y-101713400D03*
X144021700Y-101713400D03*
%TD*%
D12*
%TO.C,J27*%
X253593600Y-206781400D03*
%TD*%
%TO.C,J28*%
X273913600Y-213893400D03*
%TD*%
%TO.C,J24*%
X273913600Y-201193400D03*
%TD*%
%TO.C,J25*%
X272897600Y-206781400D03*
%TD*%
%TO.C,J26*%
X254609600Y-201193400D03*
%TD*%
D14*
%TO.C,JP1*%
X251244100Y-154266900D03*
D13*
X253784100Y-154266900D03*
X256324100Y-154266900D03*
%TD*%
%TO.C,JP2*%
X157327600Y-207797400D03*
X157327600Y-210337400D03*
D14*
X157327600Y-212877400D03*
%TD*%
D13*
%TO.C,JP4*%
X201777600Y-212369400D03*
D14*
X201777600Y-214909400D03*
%TD*%
%TO.C,JP5*%
X189077600Y-214909400D03*
D13*
X189077600Y-212369400D03*
%TD*%
D24*
%TO.C,K1*%
X105257600Y-191287400D03*
D25*
X105257600Y-183667400D03*
D26*
X115417600Y-191287400D03*
X123037600Y-191287400D03*
%TD*%
D27*
%TO.C,K2*%
X282876795Y-142341600D03*
X271576800Y-142341600D03*
X271576800Y-130341602D03*
X282876795Y-130341602D03*
X284876797Y-136341601D03*
%TD*%
D17*
%TO.C,K4*%
X167081200Y-98437700D03*
X181051200Y-98437700D03*
X186143900Y-98437700D03*
X197573900Y-98437700D03*
X202653900Y-98437700D03*
X202653900Y-88277700D03*
X197573900Y-88277700D03*
X186143900Y-88277700D03*
X181051200Y-88277700D03*
X167081200Y-88277700D03*
%TD*%
D20*
%TO.C,PS2*%
X187274200Y-136080500D03*
X187274200Y-128460500D03*
X187274200Y-132270500D03*
D28*
X187274200Y-124650500D03*
D29*
X136474200Y-124630500D03*
D20*
X136474200Y-132250500D03*
D28*
X187274200Y-139890500D03*
D20*
X136474200Y-139870500D03*
%TD*%
D30*
%TO.C,RV3*%
X227685600Y-214401400D03*
X225145600Y-214401400D03*
X222605600Y-214401400D03*
%TD*%
D31*
%TO.C,U14*%
X107914700Y-210207000D03*
%TD*%
%TO.C,U15*%
X107914700Y-60607000D03*
%TD*%
%TO.C,U17*%
X295614700Y-60607000D03*
%TD*%
%TO.C,U2*%
X295614700Y-210207000D03*
%TD*%
D14*
%TO.C,J30*%
X127965200Y-101803200D03*
D13*
X127965200Y-104343200D03*
%TD*%
M02*
