%TF.GenerationSoftware,KiCad,Pcbnew,(5.1.6)-1*%
%TF.CreationDate,2021-02-04T22:55:20-05:00*%
%TF.ProjectId,TSI_Rev.5,5453495f-5265-4762-9e35-2e6b69636164,rev?*%
%TF.SameCoordinates,Original*%
%TF.FileFunction,Legend,Bot*%
%TF.FilePolarity,Positive*%
%FSLAX46Y46*%
G04 Gerber Fmt 4.6, Leading zero omitted, Abs format (unit mm)*
G04 Created by KiCad (PCBNEW (5.1.6)-1) date 2021-02-04 22:55:20*
%MOMM*%
%LPD*%
G01*
G04 APERTURE LIST*
%ADD10C,0.150000*%
G04 APERTURE END LIST*
D10*
X118939128Y-216101680D02*
X118272461Y-216101680D01*
X118939128Y-217101680D01*
X118272461Y-217101680D01*
X117462938Y-217101680D02*
X117462938Y-216577871D01*
X117510557Y-216482633D01*
X117605795Y-216435014D01*
X117796271Y-216435014D01*
X117891509Y-216482633D01*
X117462938Y-217054061D02*
X117558176Y-217101680D01*
X117796271Y-217101680D01*
X117891509Y-217054061D01*
X117939128Y-216958823D01*
X117939128Y-216863585D01*
X117891509Y-216768347D01*
X117796271Y-216720728D01*
X117558176Y-216720728D01*
X117462938Y-216673109D01*
X116558176Y-217054061D02*
X116653414Y-217101680D01*
X116843890Y-217101680D01*
X116939128Y-217054061D01*
X116986747Y-217006442D01*
X117034366Y-216911204D01*
X117034366Y-216625490D01*
X116986747Y-216530252D01*
X116939128Y-216482633D01*
X116843890Y-216435014D01*
X116653414Y-216435014D01*
X116558176Y-216482633D01*
X116129604Y-217101680D02*
X116129604Y-216101680D01*
X116034366Y-216720728D02*
X115748652Y-217101680D01*
X115748652Y-216435014D02*
X116129604Y-216815966D01*
X115415319Y-216435014D02*
X115177223Y-217101680D01*
X114939128Y-216435014D02*
X115177223Y-217101680D01*
X115272461Y-217339776D01*
X115320080Y-217387395D01*
X115415319Y-217435014D01*
X113462938Y-216577871D02*
X113320080Y-216625490D01*
X113272461Y-216673109D01*
X113224842Y-216768347D01*
X113224842Y-216911204D01*
X113272461Y-217006442D01*
X113320080Y-217054061D01*
X113415319Y-217101680D01*
X113796271Y-217101680D01*
X113796271Y-216101680D01*
X113462938Y-216101680D01*
X113367700Y-216149300D01*
X113320080Y-216196919D01*
X113272461Y-216292157D01*
X113272461Y-216387395D01*
X113320080Y-216482633D01*
X113367700Y-216530252D01*
X113462938Y-216577871D01*
X113796271Y-216577871D01*
X112415319Y-217054061D02*
X112510557Y-217101680D01*
X112701033Y-217101680D01*
X112796271Y-217054061D01*
X112843890Y-216958823D01*
X112843890Y-216577871D01*
X112796271Y-216482633D01*
X112701033Y-216435014D01*
X112510557Y-216435014D01*
X112415319Y-216482633D01*
X112367700Y-216577871D01*
X112367700Y-216673109D01*
X112843890Y-216768347D01*
X111510557Y-217101680D02*
X111510557Y-216577871D01*
X111558176Y-216482633D01*
X111653414Y-216435014D01*
X111843890Y-216435014D01*
X111939128Y-216482633D01*
X111510557Y-217054061D02*
X111605795Y-217101680D01*
X111843890Y-217101680D01*
X111939128Y-217054061D01*
X111986747Y-216958823D01*
X111986747Y-216863585D01*
X111939128Y-216768347D01*
X111843890Y-216720728D01*
X111605795Y-216720728D01*
X111510557Y-216673109D01*
X111034366Y-217101680D02*
X111034366Y-216435014D01*
X111034366Y-216625490D02*
X110986747Y-216530252D01*
X110939128Y-216482633D01*
X110843890Y-216435014D01*
X110748652Y-216435014D01*
X109653414Y-217101680D02*
X109653414Y-216101680D01*
X109415319Y-216101680D01*
X109272461Y-216149300D01*
X109177223Y-216244538D01*
X109129604Y-216339776D01*
X109081985Y-216530252D01*
X109081985Y-216673109D01*
X109129604Y-216863585D01*
X109177223Y-216958823D01*
X109272461Y-217054061D01*
X109415319Y-217101680D01*
X109653414Y-217101680D01*
X108510557Y-217101680D02*
X108605795Y-217054061D01*
X108653414Y-217006442D01*
X108701033Y-216911204D01*
X108701033Y-216625490D01*
X108653414Y-216530252D01*
X108605795Y-216482633D01*
X108510557Y-216435014D01*
X108367700Y-216435014D01*
X108272461Y-216482633D01*
X108224842Y-216530252D01*
X108177223Y-216625490D01*
X108177223Y-216911204D01*
X108224842Y-217006442D01*
X108272461Y-217054061D01*
X108367700Y-217101680D01*
X108510557Y-217101680D01*
X107367700Y-217054061D02*
X107462938Y-217101680D01*
X107653414Y-217101680D01*
X107748652Y-217054061D01*
X107796271Y-216958823D01*
X107796271Y-216577871D01*
X107748652Y-216482633D01*
X107653414Y-216435014D01*
X107462938Y-216435014D01*
X107367700Y-216482633D01*
X107320080Y-216577871D01*
X107320080Y-216673109D01*
X107796271Y-216768347D01*
X106939128Y-217054061D02*
X106843890Y-217101680D01*
X106653414Y-217101680D01*
X106558176Y-217054061D01*
X106510557Y-216958823D01*
X106510557Y-216911204D01*
X106558176Y-216815966D01*
X106653414Y-216768347D01*
X106796271Y-216768347D01*
X106891509Y-216720728D01*
X106939128Y-216625490D01*
X106939128Y-216577871D01*
X106891509Y-216482633D01*
X106796271Y-216435014D01*
X106653414Y-216435014D01*
X106558176Y-216482633D01*
X106081985Y-216435014D02*
X106081985Y-217101680D01*
X106081985Y-216530252D02*
X106034366Y-216482633D01*
X105939128Y-216435014D01*
X105796271Y-216435014D01*
X105701033Y-216482633D01*
X105653414Y-216577871D01*
X105653414Y-217101680D01*
X105129604Y-216101680D02*
X105224842Y-216292157D01*
X104843890Y-216435014D02*
X104462938Y-216435014D01*
X104701033Y-216101680D02*
X104701033Y-216958823D01*
X104653414Y-217054061D01*
X104558176Y-217101680D01*
X104462938Y-217101680D01*
X102891509Y-217101680D02*
X103367700Y-217101680D01*
X103367700Y-216101680D01*
X102558176Y-217101680D02*
X102558176Y-216435014D01*
X102558176Y-216101680D02*
X102605795Y-216149300D01*
X102558176Y-216196919D01*
X102510557Y-216149300D01*
X102558176Y-216101680D01*
X102558176Y-216196919D01*
X102081985Y-217101680D02*
X102081985Y-216101680D01*
X101986747Y-216720728D02*
X101701033Y-217101680D01*
X101701033Y-216435014D02*
X102081985Y-216815966D01*
X100891509Y-217054061D02*
X100986747Y-217101680D01*
X101177223Y-217101680D01*
X101272461Y-217054061D01*
X101320080Y-216958823D01*
X101320080Y-216577871D01*
X101272461Y-216482633D01*
X101177223Y-216435014D01*
X100986747Y-216435014D01*
X100891509Y-216482633D01*
X100843890Y-216577871D01*
X100843890Y-216673109D01*
X101320080Y-216768347D01*
M02*
