%TF.GenerationSoftware,KiCad,Pcbnew,(5.1.10)-1*%
%TF.CreationDate,2022-03-11T11:42:31-05:00*%
%TF.ProjectId,PiShield,50695368-6965-46c6-942e-6b696361645f,rev?*%
%TF.SameCoordinates,Original*%
%TF.FileFunction,Copper,L1,Top*%
%TF.FilePolarity,Positive*%
%FSLAX46Y46*%
G04 Gerber Fmt 4.6, Leading zero omitted, Abs format (unit mm)*
G04 Created by KiCad (PCBNEW (5.1.10)-1) date 2022-03-11 11:42:31*
%MOMM*%
%LPD*%
G01*
G04 APERTURE LIST*
%TA.AperFunction,ComponentPad*%
%ADD10O,1.700000X1.700000*%
%TD*%
%TA.AperFunction,ComponentPad*%
%ADD11R,1.700000X1.700000*%
%TD*%
%TA.AperFunction,ComponentPad*%
%ADD12R,2.800000X2.800000*%
%TD*%
%TA.AperFunction,ComponentPad*%
%ADD13C,2.800000*%
%TD*%
%TA.AperFunction,ComponentPad*%
%ADD14C,1.700000*%
%TD*%
%TA.AperFunction,ComponentPad*%
%ADD15C,1.200000*%
%TD*%
%TA.AperFunction,ComponentPad*%
%ADD16C,5.000000*%
%TD*%
%TA.AperFunction,ComponentPad*%
%ADD17C,1.800000*%
%TD*%
%TA.AperFunction,ComponentPad*%
%ADD18R,1.200000X1.200000*%
%TD*%
%TA.AperFunction,ViaPad*%
%ADD19C,0.800000*%
%TD*%
%TA.AperFunction,Conductor*%
%ADD20C,0.250000*%
%TD*%
G04 APERTURE END LIST*
D10*
%TO.P,J1,4*%
%TO.N,/SCL_PI*%
X223000000Y-66120000D03*
%TO.P,J1,3*%
%TO.N,/SDA_PI*%
X223000000Y-63580000D03*
%TO.P,J1,2*%
%TO.N,/GLV_RTN*%
X223000000Y-61040000D03*
D11*
%TO.P,J1,1*%
%TO.N,/5V*%
X223000000Y-58500000D03*
%TD*%
D12*
%TO.P,J2,1*%
%TO.N,/SCL_PI*%
X218300000Y-71100000D03*
D13*
%TO.P,J2,2*%
%TO.N,/SDA_PI*%
X218300000Y-75300000D03*
%TO.P,J2,3*%
%TO.N,/GLV_RTN*%
X223800000Y-71100000D03*
%TO.P,J2,4*%
%TO.N,/24V*%
X223800000Y-75300000D03*
%TD*%
D14*
%TO.P,U10,4*%
%TO.N,/SCL_PI*%
X189601600Y-111940000D03*
%TO.P,U10,3*%
%TO.N,/GLV_RTN*%
X192040000Y-111940000D03*
%TO.P,U10,2*%
%TO.N,N/C*%
X194580000Y-111940000D03*
%TO.P,U10,1*%
%TO.N,/3V3*%
X197120000Y-111940000D03*
%TO.P,U10,5*%
%TO.N,/SDA_PI*%
X186960000Y-111940000D03*
%TO.P,U10,6*%
%TO.N,/GLV_RTN*%
X186960000Y-96700000D03*
%TO.P,U10,7*%
X189500000Y-96700000D03*
%TD*%
D11*
%TO.P,U11,1*%
%TO.N,N/C*%
X214700000Y-101700000D03*
D10*
%TO.P,U11,2*%
%TO.N,/3V3*%
X217240000Y-101700000D03*
%TO.P,U11,3*%
%TO.N,N/C*%
X214700000Y-104240000D03*
%TO.P,U11,4*%
%TO.N,/SDA_PI*%
X217240000Y-104240000D03*
%TO.P,U11,5*%
%TO.N,/GLV_RTN*%
X214700000Y-106780000D03*
%TO.P,U11,6*%
%TO.N,/SCL_PI*%
X217240000Y-106780000D03*
%TD*%
%TO.P,J7,2*%
%TO.N,Net-(J7-Pad2)*%
X206540000Y-91700000D03*
D11*
%TO.P,J7,1*%
%TO.N,/CAN_L*%
X204000000Y-91700000D03*
%TD*%
D15*
%TO.P,U1,32*%
%TO.N,N/C*%
X173573800Y-96408800D03*
%TO.P,U1,24*%
X173573800Y-86248800D03*
%TO.P,U1,19*%
X175935800Y-81168800D03*
%TO.P,U1,39*%
%TO.N,/GLV_RTN*%
X175935800Y-106568800D03*
%TO.P,U1,37*%
%TO.N,N/C*%
X175935800Y-104028800D03*
%TO.P,U1,28*%
X173573800Y-91328800D03*
%TO.P,U1,30*%
%TO.N,/GLV_RTN*%
X173573800Y-93868800D03*
%TO.P,U1,23*%
%TO.N,N/C*%
X175935800Y-86248800D03*
%TO.P,U1,22*%
X173573800Y-83708800D03*
%TO.P,U1,21*%
X175935800Y-83708800D03*
%TO.P,U1,20*%
%TO.N,/GLV_RTN*%
X173573800Y-81168800D03*
%TO.P,U1,40*%
%TO.N,N/C*%
X173573800Y-106568800D03*
%TO.P,U1,29*%
X175935800Y-93868800D03*
%TO.P,U1,35*%
X175935800Y-101488800D03*
%TO.P,U1,18*%
X173573800Y-78628800D03*
%TO.P,U1,27*%
X175935800Y-91328800D03*
%TO.P,U1,38*%
X173573800Y-104028800D03*
%TO.P,U1,34*%
%TO.N,/GLV_RTN*%
X173573800Y-98948800D03*
%TO.P,U1,33*%
%TO.N,N/C*%
X175935800Y-98948800D03*
%TO.P,U1,26*%
X173573800Y-88788800D03*
%TO.P,U1,31*%
%TO.N,/SR_CTRL*%
X175935800Y-96408800D03*
%TO.P,U1,36*%
%TO.N,N/C*%
X173573800Y-101488800D03*
%TO.P,U1,25*%
%TO.N,/GLV_RTN*%
X175935800Y-88788800D03*
%TO.P,U1,11*%
%TO.N,N/C*%
X175935800Y-71008800D03*
D16*
%TO.P,U1,44*%
X223795800Y-53320800D03*
D15*
%TO.P,U1,2*%
%TO.N,/5V*%
X173573800Y-58308800D03*
%TO.P,U1,4*%
X173573800Y-60848800D03*
%TO.P,U1,1*%
%TO.N,/3V3*%
X175935800Y-58308800D03*
%TO.P,U1,13*%
%TO.N,N/C*%
X175935800Y-73548800D03*
%TO.P,U1,9*%
%TO.N,/GLV_RTN*%
X175935800Y-68468800D03*
%TO.P,U1,14*%
X173573800Y-73548800D03*
D16*
%TO.P,U1,43*%
%TO.N,N/C*%
X223795800Y-111320800D03*
D15*
%TO.P,U1,17*%
X175935800Y-78628800D03*
D16*
%TO.P,U1,41*%
X174795800Y-111320800D03*
D15*
%TO.P,U1,6*%
%TO.N,/GLV_RTN*%
X173573800Y-63388800D03*
%TO.P,U1,7*%
%TO.N,N/C*%
X175935800Y-65928800D03*
%TO.P,U1,10*%
X173573800Y-68468800D03*
%TO.P,U1,8*%
X173573800Y-65928800D03*
D16*
%TO.P,U1,42*%
X174795800Y-53320800D03*
D15*
%TO.P,U1,12*%
X173573800Y-71008800D03*
%TO.P,U1,3*%
%TO.N,/SDA_PI*%
X175935800Y-60848800D03*
%TO.P,U1,5*%
%TO.N,/SCL_PI*%
X175935800Y-63388800D03*
%TO.P,U1,15*%
%TO.N,N/C*%
X175935800Y-76088800D03*
%TO.P,U1,16*%
X173573800Y-76088800D03*
%TD*%
D17*
%TO.P,PS1,12*%
%TO.N,N/C*%
X191100000Y-89640000D03*
%TO.P,PS1,11*%
%TO.N,/5V*%
X191100000Y-87100000D03*
%TO.P,PS1,10*%
X191100000Y-84560000D03*
%TO.P,PS1,9*%
X191100000Y-82020000D03*
%TO.P,PS1,8*%
%TO.N,Net-(C1-Pad1)*%
X191100000Y-79480000D03*
%TO.P,PS1,7*%
X191100000Y-76940000D03*
%TO.P,PS1,6*%
X191100000Y-74400000D03*
%TO.P,PS1,5*%
X191100000Y-71860000D03*
%TO.P,PS1,4*%
%TO.N,Net-(C3-Pad1)*%
X191100000Y-69320000D03*
%TO.P,PS1,3*%
X191100000Y-66780000D03*
%TO.P,PS1,2*%
X191100000Y-64240000D03*
%TO.P,PS1,1*%
%TO.N,N/C*%
X191100000Y-61700000D03*
%TD*%
D10*
%TO.P,J6,2*%
%TO.N,N/C*%
X223300000Y-92960000D03*
D11*
%TO.P,J6,1*%
X223300000Y-95500000D03*
%TD*%
D10*
%TO.P,J5,10*%
%TO.N,N/C*%
X203360000Y-85760000D03*
%TO.P,J5,9*%
X205900000Y-85760000D03*
%TO.P,J5,8*%
X203360000Y-83220000D03*
%TO.P,J5,7*%
X205900000Y-83220000D03*
%TO.P,J5,6*%
X203360000Y-80680000D03*
%TO.P,J5,5*%
X205900000Y-80680000D03*
%TO.P,J5,4*%
%TO.N,/SR_CTRL*%
X203360000Y-78140000D03*
%TO.P,J5,3*%
%TO.N,/GLV_RTN*%
X205900000Y-78140000D03*
%TO.P,J5,2*%
%TO.N,/CAN_L*%
X203360000Y-75600000D03*
D11*
%TO.P,J5,1*%
%TO.N,/CAN_H*%
X205900000Y-75600000D03*
%TD*%
D13*
%TO.P,J4,4*%
%TO.N,N/C*%
X223600000Y-86800000D03*
%TO.P,J4,3*%
%TO.N,/GLV_RTN*%
X223600000Y-82600000D03*
%TO.P,J4,2*%
%TO.N,/CAN_L*%
X218100000Y-86800000D03*
D12*
%TO.P,J4,1*%
%TO.N,/CAN_H*%
X218100000Y-82600000D03*
%TD*%
D10*
%TO.P,J3,2*%
%TO.N,N/C*%
X216500000Y-92760000D03*
D11*
%TO.P,J3,1*%
X216500000Y-95300000D03*
%TD*%
D15*
%TO.P,C3,2*%
%TO.N,Net-(C1-Pad1)*%
X189900000Y-52400000D03*
D18*
%TO.P,C3,1*%
%TO.N,Net-(C3-Pad1)*%
X186400000Y-52400000D03*
%TD*%
D15*
%TO.P,C2,2*%
%TO.N,Net-(C1-Pad1)*%
X211600000Y-52900000D03*
D18*
%TO.P,C2,1*%
%TO.N,/24V*%
X208100000Y-52900000D03*
%TD*%
D19*
%TO.N,/24V*%
X208100000Y-50500000D03*
X178800000Y-50300000D03*
%TO.N,/GLV_RTN*%
X208700000Y-77900000D03*
X208900000Y-74300000D03*
X210900000Y-51000000D03*
X218600000Y-56700000D03*
X221500000Y-56800000D03*
%TO.N,/5V*%
X210600000Y-70200000D03*
X178600000Y-68800000D03*
%TO.N,Net-(C1-Pad1)*%
X206100000Y-53100000D03*
X203900000Y-61100000D03*
X202800000Y-63500000D03*
X180000000Y-78900000D03*
%TO.N,Net-(C3-Pad1)*%
X193700000Y-59100000D03*
%TO.N,/SDA_PI*%
X220700000Y-43900000D03*
X215900000Y-110700000D03*
%TO.N,/SCL_PI*%
X204500000Y-63400000D03*
X212600000Y-97500000D03*
X212800000Y-85100000D03*
%TO.N,/3V3*%
X214500000Y-85400000D03*
X214800000Y-75100000D03*
X219000000Y-59800000D03*
X214900000Y-55000000D03*
%TD*%
D20*
%TO.N,/24V*%
X179000000Y-50500000D02*
X208100000Y-50500000D01*
X178800000Y-50300000D02*
X179000000Y-50500000D01*
%TO.N,/SR_CTRL*%
X203360000Y-78140000D02*
X197160000Y-78140000D01*
X178144600Y-94200000D02*
X175935800Y-96408800D01*
X192900000Y-94200000D02*
X178144600Y-94200000D01*
X193200000Y-93900000D02*
X192900000Y-94200000D01*
X193200000Y-82100000D02*
X193200000Y-93900000D01*
X197160000Y-78140000D02*
X193200000Y-82100000D01*
%TO.N,/GLV_RTN*%
X208900000Y-74300000D02*
X208900000Y-76800000D01*
X208900000Y-77700000D02*
X208700000Y-77900000D01*
X208900000Y-76800000D02*
X208900000Y-77700000D01*
X223600000Y-82600000D02*
X223500000Y-82600000D01*
X221000000Y-73900000D02*
X223800000Y-71100000D01*
X221000000Y-80100000D02*
X221000000Y-73900000D01*
X223500000Y-82600000D02*
X221000000Y-80100000D01*
X223000000Y-61040000D02*
X223760000Y-61040000D01*
X212900000Y-51000000D02*
X210900000Y-51000000D01*
X218600000Y-56700000D02*
X212900000Y-51000000D01*
X224700000Y-56800000D02*
X221500000Y-56800000D01*
X225300000Y-57400000D02*
X224700000Y-56800000D01*
X225300000Y-59500000D02*
X225300000Y-57400000D01*
X223760000Y-61040000D02*
X225300000Y-59500000D01*
%TO.N,/5V*%
X200320000Y-72800000D02*
X191100000Y-82020000D01*
X208000000Y-72800000D02*
X200320000Y-72800000D01*
X210600000Y-70200000D02*
X208000000Y-72800000D01*
X178500000Y-66700000D02*
X178600000Y-68800000D01*
X178500000Y-63600000D02*
X178500000Y-66700000D01*
X177000000Y-62100000D02*
X178500000Y-63600000D01*
X174500000Y-62100000D02*
X177000000Y-62100000D01*
X173573800Y-61173800D02*
X174500000Y-62100000D01*
X173573800Y-60848800D02*
X173573800Y-61173800D01*
X191100000Y-82020000D02*
X191100000Y-84560000D01*
X191100000Y-84560000D02*
X191100000Y-87100000D01*
%TO.N,Net-(C1-Pad1)*%
X211600000Y-52900000D02*
X211400000Y-52900000D01*
X190700000Y-51600000D02*
X189900000Y-52400000D01*
X210100000Y-51600000D02*
X206000000Y-51600000D01*
X206000000Y-51600000D02*
X190700000Y-51600000D01*
X211400000Y-52900000D02*
X210100000Y-51600000D01*
X206000000Y-53000000D02*
X206000000Y-51600000D01*
X206100000Y-53100000D02*
X206000000Y-53000000D01*
X203900000Y-62400000D02*
X203900000Y-61100000D01*
X202800000Y-63500000D02*
X203900000Y-62400000D01*
X191100000Y-71860000D02*
X191100000Y-79480000D01*
X191100000Y-74400000D02*
X187900000Y-74400000D01*
X183400000Y-78900000D02*
X180000000Y-78900000D01*
X187900000Y-74400000D02*
X183400000Y-78900000D01*
%TO.N,Net-(C3-Pad1)*%
X191100000Y-64240000D02*
X191100000Y-69320000D01*
X187000000Y-52400000D02*
X186400000Y-52400000D01*
X193700000Y-59100000D02*
X187000000Y-52400000D01*
%TO.N,/SDA_PI*%
X220300000Y-60880000D02*
X223000000Y-63580000D01*
X220300000Y-44300000D02*
X220300000Y-60880000D01*
X220700000Y-43900000D02*
X220300000Y-44300000D01*
X220300000Y-60880000D02*
X212780000Y-60880000D01*
X176884600Y-59900000D02*
X175935800Y-60848800D01*
X211800000Y-59900000D02*
X176884600Y-59900000D01*
X212780000Y-60880000D02*
X211800000Y-59900000D01*
X218300000Y-79000000D02*
X218300000Y-75300000D01*
X220500000Y-81200000D02*
X218300000Y-79000000D01*
X220500000Y-87900000D02*
X220500000Y-81200000D01*
X225300000Y-92700000D02*
X220500000Y-87900000D01*
X225300000Y-104400000D02*
X225300000Y-92700000D01*
X218400000Y-111300000D02*
X225300000Y-104400000D01*
X216500000Y-111300000D02*
X218400000Y-111300000D01*
X215900000Y-110700000D02*
X216500000Y-111300000D01*
%TO.N,/SCL_PI*%
X223000000Y-66120000D02*
X223000000Y-68700000D01*
X220600000Y-71100000D02*
X218300000Y-71100000D01*
X223000000Y-68700000D02*
X220600000Y-71100000D01*
X213600000Y-66400000D02*
X218300000Y-71100000D01*
X207500000Y-66400000D02*
X213600000Y-66400000D01*
X204500000Y-63400000D02*
X207500000Y-66400000D01*
X218300000Y-71100000D02*
X214100000Y-71100000D01*
X222020000Y-106780000D02*
X217240000Y-106780000D01*
X222100000Y-106700000D02*
X222020000Y-106780000D01*
X222100000Y-98900000D02*
X222100000Y-106700000D01*
X217300000Y-98900000D02*
X222100000Y-98900000D01*
X214000000Y-98900000D02*
X217300000Y-98900000D01*
X212600000Y-97500000D02*
X214000000Y-98900000D01*
X212800000Y-72400000D02*
X212800000Y-85100000D01*
X214100000Y-71100000D02*
X212800000Y-72400000D01*
X217240000Y-106780000D02*
X217240000Y-107060000D01*
X192941600Y-108600000D02*
X189601600Y-111940000D01*
X215700000Y-108600000D02*
X192941600Y-108600000D01*
X217240000Y-107060000D02*
X215700000Y-108600000D01*
%TO.N,/CAN_L*%
X218100000Y-86800000D02*
X210400000Y-86800000D01*
X206500000Y-94200000D02*
X204000000Y-91700000D01*
X206500000Y-94500000D02*
X206500000Y-94200000D01*
X209700000Y-91300000D02*
X206500000Y-94500000D01*
X209700000Y-87500000D02*
X209700000Y-91300000D01*
X210400000Y-86800000D02*
X209700000Y-87500000D01*
%TO.N,/3V3*%
X214500000Y-75400000D02*
X214500000Y-85400000D01*
X214800000Y-75100000D02*
X214500000Y-75400000D01*
X215100000Y-55900000D02*
X219000000Y-59800000D01*
X215100000Y-54800000D02*
X215100000Y-55900000D01*
X214900000Y-55000000D02*
X215100000Y-54800000D01*
%TD*%
M02*
