%TF.GenerationSoftware,KiCad,Pcbnew,(5.1.10)-1*%
%TF.CreationDate,2022-03-11T11:42:31-05:00*%
%TF.ProjectId,PiShield,50695368-6965-46c6-942e-6b696361645f,rev?*%
%TF.SameCoordinates,Original*%
%TF.FileFunction,Soldermask,Top*%
%TF.FilePolarity,Negative*%
%FSLAX46Y46*%
G04 Gerber Fmt 4.6, Leading zero omitted, Abs format (unit mm)*
G04 Created by KiCad (PCBNEW (5.1.10)-1) date 2022-03-11 11:42:31*
%MOMM*%
%LPD*%
G01*
G04 APERTURE LIST*
%ADD10O,1.800000X1.800000*%
%ADD11C,2.900000*%
%ADD12C,1.800000*%
%ADD13C,1.300000*%
%ADD14C,5.100000*%
%ADD15C,1.900000*%
G04 APERTURE END LIST*
D10*
%TO.C,J1*%
X223000000Y-66120000D03*
X223000000Y-63580000D03*
X223000000Y-61040000D03*
G36*
G01*
X223900000Y-57650000D02*
X223900000Y-59350000D01*
G75*
G02*
X223850000Y-59400000I-50000J0D01*
G01*
X222150000Y-59400000D01*
G75*
G02*
X222100000Y-59350000I0J50000D01*
G01*
X222100000Y-57650000D01*
G75*
G02*
X222150000Y-57600000I50000J0D01*
G01*
X223850000Y-57600000D01*
G75*
G02*
X223900000Y-57650000I0J-50000D01*
G01*
G37*
%TD*%
%TO.C,J2*%
G36*
G01*
X216900000Y-69650000D02*
X219700000Y-69650000D01*
G75*
G02*
X219750000Y-69700000I0J-50000D01*
G01*
X219750000Y-72500000D01*
G75*
G02*
X219700000Y-72550000I-50000J0D01*
G01*
X216900000Y-72550000D01*
G75*
G02*
X216850000Y-72500000I0J50000D01*
G01*
X216850000Y-69700000D01*
G75*
G02*
X216900000Y-69650000I50000J0D01*
G01*
G37*
D11*
X218300000Y-75300000D03*
X223800000Y-71100000D03*
X223800000Y-75300000D03*
%TD*%
D12*
%TO.C,U10*%
X189601600Y-111940000D03*
X192040000Y-111940000D03*
X194580000Y-111940000D03*
X197120000Y-111940000D03*
X186960000Y-111940000D03*
X186960000Y-96700000D03*
X189500000Y-96700000D03*
%TD*%
%TO.C,U11*%
G36*
G01*
X215600000Y-100850000D02*
X215600000Y-102550000D01*
G75*
G02*
X215550000Y-102600000I-50000J0D01*
G01*
X213850000Y-102600000D01*
G75*
G02*
X213800000Y-102550000I0J50000D01*
G01*
X213800000Y-100850000D01*
G75*
G02*
X213850000Y-100800000I50000J0D01*
G01*
X215550000Y-100800000D01*
G75*
G02*
X215600000Y-100850000I0J-50000D01*
G01*
G37*
D10*
X217240000Y-101700000D03*
X214700000Y-104240000D03*
X217240000Y-104240000D03*
X214700000Y-106780000D03*
X217240000Y-106780000D03*
%TD*%
%TO.C,J7*%
X206540000Y-91700000D03*
G36*
G01*
X203150000Y-90800000D02*
X204850000Y-90800000D01*
G75*
G02*
X204900000Y-90850000I0J-50000D01*
G01*
X204900000Y-92550000D01*
G75*
G02*
X204850000Y-92600000I-50000J0D01*
G01*
X203150000Y-92600000D01*
G75*
G02*
X203100000Y-92550000I0J50000D01*
G01*
X203100000Y-90850000D01*
G75*
G02*
X203150000Y-90800000I50000J0D01*
G01*
G37*
%TD*%
D13*
%TO.C,U1*%
X173573800Y-96408800D03*
X173573800Y-86248800D03*
X175935800Y-81168800D03*
X175935800Y-106568800D03*
X175935800Y-104028800D03*
X173573800Y-91328800D03*
X173573800Y-93868800D03*
X175935800Y-86248800D03*
X173573800Y-83708800D03*
X175935800Y-83708800D03*
X173573800Y-81168800D03*
X173573800Y-106568800D03*
X175935800Y-93868800D03*
X175935800Y-101488800D03*
X173573800Y-78628800D03*
X175935800Y-91328800D03*
X173573800Y-104028800D03*
X173573800Y-98948800D03*
X175935800Y-98948800D03*
X173573800Y-88788800D03*
X175935800Y-96408800D03*
X173573800Y-101488800D03*
X175935800Y-88788800D03*
X175935800Y-71008800D03*
D14*
X223795800Y-53320800D03*
D13*
X173573800Y-58308800D03*
X173573800Y-60848800D03*
X175935800Y-58308800D03*
X175935800Y-73548800D03*
X175935800Y-68468800D03*
X173573800Y-73548800D03*
D14*
X223795800Y-111320800D03*
D13*
X175935800Y-78628800D03*
D14*
X174795800Y-111320800D03*
D13*
X173573800Y-63388800D03*
X175935800Y-65928800D03*
X173573800Y-68468800D03*
X173573800Y-65928800D03*
D14*
X174795800Y-53320800D03*
D13*
X173573800Y-71008800D03*
X175935800Y-60848800D03*
X175935800Y-63388800D03*
X175935800Y-76088800D03*
X173573800Y-76088800D03*
%TD*%
D15*
%TO.C,PS1*%
X191100000Y-89640000D03*
X191100000Y-87100000D03*
X191100000Y-84560000D03*
X191100000Y-82020000D03*
X191100000Y-79480000D03*
X191100000Y-76940000D03*
X191100000Y-74400000D03*
X191100000Y-71860000D03*
X191100000Y-69320000D03*
X191100000Y-66780000D03*
X191100000Y-64240000D03*
X191100000Y-61700000D03*
%TD*%
D10*
%TO.C,J6*%
X223300000Y-92960000D03*
G36*
G01*
X222400000Y-96350000D02*
X222400000Y-94650000D01*
G75*
G02*
X222450000Y-94600000I50000J0D01*
G01*
X224150000Y-94600000D01*
G75*
G02*
X224200000Y-94650000I0J-50000D01*
G01*
X224200000Y-96350000D01*
G75*
G02*
X224150000Y-96400000I-50000J0D01*
G01*
X222450000Y-96400000D01*
G75*
G02*
X222400000Y-96350000I0J50000D01*
G01*
G37*
%TD*%
%TO.C,J5*%
X203360000Y-85760000D03*
X205900000Y-85760000D03*
X203360000Y-83220000D03*
X205900000Y-83220000D03*
X203360000Y-80680000D03*
X205900000Y-80680000D03*
X203360000Y-78140000D03*
X205900000Y-78140000D03*
X203360000Y-75600000D03*
G36*
G01*
X206800000Y-74750000D02*
X206800000Y-76450000D01*
G75*
G02*
X206750000Y-76500000I-50000J0D01*
G01*
X205050000Y-76500000D01*
G75*
G02*
X205000000Y-76450000I0J50000D01*
G01*
X205000000Y-74750000D01*
G75*
G02*
X205050000Y-74700000I50000J0D01*
G01*
X206750000Y-74700000D01*
G75*
G02*
X206800000Y-74750000I0J-50000D01*
G01*
G37*
%TD*%
D11*
%TO.C,J4*%
X223600000Y-86800000D03*
X223600000Y-82600000D03*
X218100000Y-86800000D03*
G36*
G01*
X216700000Y-81150000D02*
X219500000Y-81150000D01*
G75*
G02*
X219550000Y-81200000I0J-50000D01*
G01*
X219550000Y-84000000D01*
G75*
G02*
X219500000Y-84050000I-50000J0D01*
G01*
X216700000Y-84050000D01*
G75*
G02*
X216650000Y-84000000I0J50000D01*
G01*
X216650000Y-81200000D01*
G75*
G02*
X216700000Y-81150000I50000J0D01*
G01*
G37*
%TD*%
D10*
%TO.C,J3*%
X216500000Y-92760000D03*
G36*
G01*
X215600000Y-96150000D02*
X215600000Y-94450000D01*
G75*
G02*
X215650000Y-94400000I50000J0D01*
G01*
X217350000Y-94400000D01*
G75*
G02*
X217400000Y-94450000I0J-50000D01*
G01*
X217400000Y-96150000D01*
G75*
G02*
X217350000Y-96200000I-50000J0D01*
G01*
X215650000Y-96200000D01*
G75*
G02*
X215600000Y-96150000I0J50000D01*
G01*
G37*
%TD*%
D13*
%TO.C,C3*%
X189900000Y-52400000D03*
G36*
G01*
X185750000Y-53000000D02*
X185750000Y-51800000D01*
G75*
G02*
X185800000Y-51750000I50000J0D01*
G01*
X187000000Y-51750000D01*
G75*
G02*
X187050000Y-51800000I0J-50000D01*
G01*
X187050000Y-53000000D01*
G75*
G02*
X187000000Y-53050000I-50000J0D01*
G01*
X185800000Y-53050000D01*
G75*
G02*
X185750000Y-53000000I0J50000D01*
G01*
G37*
%TD*%
%TO.C,C2*%
X211600000Y-52900000D03*
G36*
G01*
X207450000Y-53500000D02*
X207450000Y-52300000D01*
G75*
G02*
X207500000Y-52250000I50000J0D01*
G01*
X208700000Y-52250000D01*
G75*
G02*
X208750000Y-52300000I0J-50000D01*
G01*
X208750000Y-53500000D01*
G75*
G02*
X208700000Y-53550000I-50000J0D01*
G01*
X207500000Y-53550000D01*
G75*
G02*
X207450000Y-53500000I0J50000D01*
G01*
G37*
%TD*%
M02*
