M48
; DRILL file {KiCad (5.1.6)-1} date 04/27/21 16:34:29
; FORMAT={-:-/ absolute / inch / decimal}
; #@! TF.CreationDate,2021-04-27T16:34:29-04:00
; #@! TF.GenerationSoftware,Kicad,Pcbnew,(5.1.6)-1
; #@! TF.FileFunction,Plated,1,2,PTH
FMAT,2
INCH
T1C0.0157
T2C0.0551
T3C0.0709
T4C0.0984
%
G90
G05
T1
X5.6683Y-1.6891
X5.8383Y-1.4591
X5.95Y-2.3
X6.038Y-1.6887
X6.05Y-2.45
X6.185Y-1.6181
X6.1983Y-1.4191
X6.3835Y-2.1665
X6.4Y-1.825
X6.4331Y-1.6201
X6.85Y-1.8285
X7.1879Y-1.3095
X7.3Y-1.825
T2
X5.0118Y-1.5591
X5.0118Y-1.7244
X5.2283Y-1.5591
X5.2283Y-1.7244
X6.5Y-2.2846
X6.5Y-2.45
X6.7165Y-2.2846
X6.7165Y-2.45
X6.1Y-0.85
X6.1Y-1.0665
X7.0Y-0.85
X7.0Y-1.0665
T3
X5.2Y-0.85
X5.2Y-1.0744
X5.0512Y-2.2506
X5.0512Y-2.475
X5.2756Y-2.2506
X5.2756Y-2.475
X5.5Y-2.2506
X5.5Y-2.475
T4
X4.875Y-2.75
X7.4783Y-2.748
X4.875Y-0.875
X7.4783Y-0.8799
T0
M30
