M48
; DRILL file {KiCad (5.1.10)-1} date 03/11/22 11:42:49
; FORMAT={-:-/ absolute / inch / decimal}
; #@! TF.CreationDate,2022-03-11T11:42:49-05:00
; #@! TF.GenerationSoftware,Kicad,Pcbnew,(5.1.10)-1
; #@! TF.FileFunction,Plated,1,2,PTH
FMAT,2
INCH
T1C0.0157
T2C0.0315
T3C0.0394
T4C0.0472
T5C0.0551
T6C0.1181
%
G90
G05
T1
X7.0315Y-2.7087
X7.0394Y-1.9803
X7.0866Y-3.1063
X7.626Y-2.3268
X7.9843Y-2.5
X8.0276Y-2.4055
X8.0512Y-2.4961
X8.1142Y-2.0906
X8.1929Y-1.9882
X8.2165Y-3.0669
X8.2244Y-2.9252
X8.2913Y-2.7638
X8.3031Y-2.0079
X8.3701Y-3.8386
X8.378Y-3.3504
X8.4449Y-3.3622
X8.4567Y-2.9567
X8.4606Y-2.1654
X8.5Y-4.3583
X8.6063Y-2.2323
X8.622Y-2.3543
X8.689Y-1.7283
X8.7205Y-2.2362
T2
X6.8336Y-2.2956
X6.8336Y-2.3956
X6.8336Y-2.4956
X6.8336Y-2.5956
X6.8336Y-2.6956
X6.8336Y-2.7956
X6.8336Y-2.8956
X6.8336Y-2.9956
X6.8336Y-3.0956
X6.8336Y-3.1956
X6.8336Y-3.2956
X6.8336Y-3.3956
X6.8336Y-3.4956
X6.8336Y-3.5956
X6.8336Y-3.6956
X6.8336Y-3.7956
X6.8336Y-3.8956
X6.8336Y-3.9956
X6.8336Y-4.0956
X6.8336Y-4.1956
X6.9266Y-2.2956
X6.9266Y-2.3956
X6.9266Y-2.4956
X6.9266Y-2.5956
X6.9266Y-2.6956
X6.9266Y-2.7956
X6.9266Y-2.8956
X6.9266Y-2.9956
X6.9266Y-3.0956
X6.9266Y-3.1956
X6.9266Y-3.2956
X6.9266Y-3.3956
X6.9266Y-3.4956
X6.9266Y-3.5956
X6.9266Y-3.6956
X6.9266Y-3.7956
X6.9266Y-3.8956
X6.9266Y-3.9956
X6.9266Y-4.0956
X6.9266Y-4.1956
X7.3386Y-2.063
X7.4764Y-2.063
X8.1929Y-2.0827
X8.3307Y-2.0827
T3
X7.3606Y-3.8071
X7.3606Y-4.4071
X7.4606Y-3.8071
X7.4646Y-4.4071
X7.5606Y-4.4071
X7.6606Y-4.4071
X7.7606Y-4.4071
X8.0063Y-2.9764
X8.0063Y-3.0764
X8.0063Y-3.1764
X8.0063Y-3.2764
X8.0063Y-3.3764
X8.0315Y-3.6102
X8.1063Y-2.9764
X8.1063Y-3.0764
X8.1063Y-3.1764
X8.1063Y-3.2764
X8.1063Y-3.3764
X8.1315Y-3.6102
X8.4528Y-4.0039
X8.4528Y-4.1039
X8.4528Y-4.2039
X8.5236Y-3.652
X8.5236Y-3.752
X8.5528Y-4.0039
X8.5528Y-4.1039
X8.5528Y-4.2039
X8.7795Y-2.3031
X8.7795Y-2.4031
X8.7795Y-2.5031
X8.7795Y-2.6031
X8.7913Y-3.6598
X8.7913Y-3.7598
T4
X7.5236Y-2.4291
X7.5236Y-2.5291
X7.5236Y-2.6291
X7.5236Y-2.7291
X7.5236Y-2.8291
X7.5236Y-2.9291
X7.5236Y-3.0291
X7.5236Y-3.1291
X7.5236Y-3.2291
X7.5236Y-3.3291
X7.5236Y-3.4291
X7.5236Y-3.5291
T5
X8.5866Y-3.252
X8.5866Y-3.4173
X8.5945Y-2.7992
X8.5945Y-2.9646
X8.8031Y-3.252
X8.8031Y-3.4173
X8.811Y-2.7992
X8.811Y-2.9646
T6
X6.8817Y-2.0992
X6.8817Y-4.3827
X8.8109Y-2.0992
X8.8109Y-4.3827
T0
M30
