%TF.GenerationSoftware,KiCad,Pcbnew,(5.1.6)-1*%
%TF.CreationDate,2021-02-04T22:49:39-05:00*%
%TF.ProjectId,Logic,4c6f6769-632e-46b6-9963-61645f706362,rev?*%
%TF.SameCoordinates,Original*%
%TF.FileFunction,Legend,Bot*%
%TF.FilePolarity,Positive*%
%FSLAX46Y46*%
G04 Gerber Fmt 4.6, Leading zero omitted, Abs format (unit mm)*
G04 Created by KiCad (PCBNEW (5.1.6)-1) date 2021-02-04 22:49:39*
%MOMM*%
%LPD*%
G01*
G04 APERTURE LIST*
%ADD10C,0.120000*%
%ADD11C,0.150000*%
G04 APERTURE END LIST*
D10*
%TO.C,C4*%
X163270000Y-126236252D02*
X163270000Y-125713748D01*
X161850000Y-126236252D02*
X161850000Y-125713748D01*
%TO.C,C3*%
X159310000Y-22598748D02*
X159310000Y-23121252D01*
X160730000Y-22598748D02*
X160730000Y-23121252D01*
%TO.C,C5*%
X138990000Y-22843748D02*
X138990000Y-23366252D01*
X140410000Y-22843748D02*
X140410000Y-23366252D01*
%TO.C,C6*%
X168258748Y-125170000D02*
X168781252Y-125170000D01*
X168258748Y-123750000D02*
X168781252Y-123750000D01*
%TO.C,C7*%
X167021252Y-117400000D02*
X166498748Y-117400000D01*
X167021252Y-118820000D02*
X166498748Y-118820000D01*
%TO.C,C8*%
X168258748Y-132790000D02*
X168781252Y-132790000D01*
X168258748Y-131370000D02*
X168781252Y-131370000D01*
%TO.C,C10*%
X165175000Y-132843748D02*
X165175000Y-133366252D01*
X163755000Y-132843748D02*
X163755000Y-133366252D01*
%TO.C,L1*%
X166353748Y-128830000D02*
X166876252Y-128830000D01*
X166353748Y-130250000D02*
X166876252Y-130250000D01*
%TO.C,C4*%
D11*
X161012142Y-126443333D02*
X161059761Y-126395714D01*
X161107380Y-126252857D01*
X161107380Y-126157619D01*
X161059761Y-126014761D01*
X160964523Y-125919523D01*
X160869285Y-125871904D01*
X160678809Y-125824285D01*
X160535952Y-125824285D01*
X160345476Y-125871904D01*
X160250238Y-125919523D01*
X160155000Y-126014761D01*
X160107380Y-126157619D01*
X160107380Y-126252857D01*
X160155000Y-126395714D01*
X160202619Y-126443333D01*
X160440714Y-127300476D02*
X161107380Y-127300476D01*
X160059761Y-127062380D02*
X160774047Y-126824285D01*
X160774047Y-127443333D01*
%TO.C,C3*%
X158727142Y-22693333D02*
X158774761Y-22645714D01*
X158822380Y-22502857D01*
X158822380Y-22407619D01*
X158774761Y-22264761D01*
X158679523Y-22169523D01*
X158584285Y-22121904D01*
X158393809Y-22074285D01*
X158250952Y-22074285D01*
X158060476Y-22121904D01*
X157965238Y-22169523D01*
X157870000Y-22264761D01*
X157822380Y-22407619D01*
X157822380Y-22502857D01*
X157870000Y-22645714D01*
X157917619Y-22693333D01*
X157822380Y-23026666D02*
X157822380Y-23645714D01*
X158203333Y-23312380D01*
X158203333Y-23455238D01*
X158250952Y-23550476D01*
X158298571Y-23598095D01*
X158393809Y-23645714D01*
X158631904Y-23645714D01*
X158727142Y-23598095D01*
X158774761Y-23550476D01*
X158822380Y-23455238D01*
X158822380Y-23169523D01*
X158774761Y-23074285D01*
X158727142Y-23026666D01*
%TO.C,C5*%
X138407142Y-22938333D02*
X138454761Y-22890714D01*
X138502380Y-22747857D01*
X138502380Y-22652619D01*
X138454761Y-22509761D01*
X138359523Y-22414523D01*
X138264285Y-22366904D01*
X138073809Y-22319285D01*
X137930952Y-22319285D01*
X137740476Y-22366904D01*
X137645238Y-22414523D01*
X137550000Y-22509761D01*
X137502380Y-22652619D01*
X137502380Y-22747857D01*
X137550000Y-22890714D01*
X137597619Y-22938333D01*
X137502380Y-23843095D02*
X137502380Y-23366904D01*
X137978571Y-23319285D01*
X137930952Y-23366904D01*
X137883333Y-23462142D01*
X137883333Y-23700238D01*
X137930952Y-23795476D01*
X137978571Y-23843095D01*
X138073809Y-23890714D01*
X138311904Y-23890714D01*
X138407142Y-23843095D01*
X138454761Y-23795476D01*
X138502380Y-23700238D01*
X138502380Y-23462142D01*
X138454761Y-23366904D01*
X138407142Y-23319285D01*
%TO.C,C6*%
X165901666Y-124817142D02*
X165949285Y-124864761D01*
X166092142Y-124912380D01*
X166187380Y-124912380D01*
X166330238Y-124864761D01*
X166425476Y-124769523D01*
X166473095Y-124674285D01*
X166520714Y-124483809D01*
X166520714Y-124340952D01*
X166473095Y-124150476D01*
X166425476Y-124055238D01*
X166330238Y-123960000D01*
X166187380Y-123912380D01*
X166092142Y-123912380D01*
X165949285Y-123960000D01*
X165901666Y-124007619D01*
X165044523Y-123912380D02*
X165235000Y-123912380D01*
X165330238Y-123960000D01*
X165377857Y-124007619D01*
X165473095Y-124150476D01*
X165520714Y-124340952D01*
X165520714Y-124721904D01*
X165473095Y-124817142D01*
X165425476Y-124864761D01*
X165330238Y-124912380D01*
X165139761Y-124912380D01*
X165044523Y-124864761D01*
X164996904Y-124817142D01*
X164949285Y-124721904D01*
X164949285Y-124483809D01*
X164996904Y-124388571D01*
X165044523Y-124340952D01*
X165139761Y-124293333D01*
X165330238Y-124293333D01*
X165425476Y-124340952D01*
X165473095Y-124388571D01*
X165520714Y-124483809D01*
%TO.C,C7*%
X169856666Y-118467142D02*
X169904285Y-118514761D01*
X170047142Y-118562380D01*
X170142380Y-118562380D01*
X170285238Y-118514761D01*
X170380476Y-118419523D01*
X170428095Y-118324285D01*
X170475714Y-118133809D01*
X170475714Y-117990952D01*
X170428095Y-117800476D01*
X170380476Y-117705238D01*
X170285238Y-117610000D01*
X170142380Y-117562380D01*
X170047142Y-117562380D01*
X169904285Y-117610000D01*
X169856666Y-117657619D01*
X169523333Y-117562380D02*
X168856666Y-117562380D01*
X169285238Y-118562380D01*
%TO.C,C8*%
X165901666Y-132437142D02*
X165949285Y-132484761D01*
X166092142Y-132532380D01*
X166187380Y-132532380D01*
X166330238Y-132484761D01*
X166425476Y-132389523D01*
X166473095Y-132294285D01*
X166520714Y-132103809D01*
X166520714Y-131960952D01*
X166473095Y-131770476D01*
X166425476Y-131675238D01*
X166330238Y-131580000D01*
X166187380Y-131532380D01*
X166092142Y-131532380D01*
X165949285Y-131580000D01*
X165901666Y-131627619D01*
X165330238Y-131960952D02*
X165425476Y-131913333D01*
X165473095Y-131865714D01*
X165520714Y-131770476D01*
X165520714Y-131722857D01*
X165473095Y-131627619D01*
X165425476Y-131580000D01*
X165330238Y-131532380D01*
X165139761Y-131532380D01*
X165044523Y-131580000D01*
X164996904Y-131627619D01*
X164949285Y-131722857D01*
X164949285Y-131770476D01*
X164996904Y-131865714D01*
X165044523Y-131913333D01*
X165139761Y-131960952D01*
X165330238Y-131960952D01*
X165425476Y-132008571D01*
X165473095Y-132056190D01*
X165520714Y-132151428D01*
X165520714Y-132341904D01*
X165473095Y-132437142D01*
X165425476Y-132484761D01*
X165330238Y-132532380D01*
X165139761Y-132532380D01*
X165044523Y-132484761D01*
X164996904Y-132437142D01*
X164949285Y-132341904D01*
X164949285Y-132151428D01*
X164996904Y-132056190D01*
X165044523Y-132008571D01*
X165139761Y-131960952D01*
%TO.C,C10*%
X164822142Y-136027142D02*
X164869761Y-135979523D01*
X164917380Y-135836666D01*
X164917380Y-135741428D01*
X164869761Y-135598571D01*
X164774523Y-135503333D01*
X164679285Y-135455714D01*
X164488809Y-135408095D01*
X164345952Y-135408095D01*
X164155476Y-135455714D01*
X164060238Y-135503333D01*
X163965000Y-135598571D01*
X163917380Y-135741428D01*
X163917380Y-135836666D01*
X163965000Y-135979523D01*
X164012619Y-136027142D01*
X164917380Y-136979523D02*
X164917380Y-136408095D01*
X164917380Y-136693809D02*
X163917380Y-136693809D01*
X164060238Y-136598571D01*
X164155476Y-136503333D01*
X164203095Y-136408095D01*
X163917380Y-137598571D02*
X163917380Y-137693809D01*
X163965000Y-137789047D01*
X164012619Y-137836666D01*
X164107857Y-137884285D01*
X164298333Y-137931904D01*
X164536428Y-137931904D01*
X164726904Y-137884285D01*
X164822142Y-137836666D01*
X164869761Y-137789047D01*
X164917380Y-137693809D01*
X164917380Y-137598571D01*
X164869761Y-137503333D01*
X164822142Y-137455714D01*
X164726904Y-137408095D01*
X164536428Y-137360476D01*
X164298333Y-137360476D01*
X164107857Y-137408095D01*
X164012619Y-137455714D01*
X163965000Y-137503333D01*
X163917380Y-137598571D01*
%TO.C,L1*%
X166781666Y-132532380D02*
X167257857Y-132532380D01*
X167257857Y-131532380D01*
X165924523Y-132532380D02*
X166495952Y-132532380D01*
X166210238Y-132532380D02*
X166210238Y-131532380D01*
X166305476Y-131675238D01*
X166400714Y-131770476D01*
X166495952Y-131818095D01*
%TD*%
M02*
