%TF.GenerationSoftware,KiCad,Pcbnew,(5.1.6)-1*%
%TF.CreationDate,2021-04-27T14:55:35-04:00*%
%TF.ProjectId,Logic,4c6f6769-632e-46b6-9963-61645f706362,rev?*%
%TF.SameCoordinates,Original*%
%TF.FileFunction,Soldermask,Top*%
%TF.FilePolarity,Negative*%
%FSLAX46Y46*%
G04 Gerber Fmt 4.6, Leading zero omitted, Abs format (unit mm)*
G04 Created by KiCad (PCBNEW (5.1.6)-1) date 2021-04-27 14:55:35*
%MOMM*%
%LPD*%
G01*
G04 APERTURE LIST*
%ADD10C,1.300000*%
%ADD11C,5.100000*%
%ADD12R,2.350000X2.350000*%
%ADD13C,2.350000*%
%ADD14R,1.570000X0.400000*%
%ADD15R,0.400000X1.570000*%
%ADD16R,1.560500X0.633400*%
%ADD17R,0.658800X1.649400*%
%ADD18C,2.900000*%
%ADD19R,2.900000X2.900000*%
%ADD20R,1.800000X1.800000*%
%ADD21O,1.800000X1.800000*%
%ADD22R,1.560500X0.658800*%
%ADD23R,2.100000X5.600000*%
%ADD24R,0.900000X1.000000*%
%ADD25C,1.800000*%
G04 APERTURE END LIST*
D10*
%TO.C,U6*%
X173573800Y-96408800D03*
X173573800Y-86248800D03*
X175935800Y-81168800D03*
X175935800Y-106568800D03*
X175935800Y-104028800D03*
X173573800Y-91328800D03*
X173573800Y-93868800D03*
X175935800Y-86248800D03*
X173573800Y-83708800D03*
X175935800Y-83708800D03*
X173573800Y-81168800D03*
X173573800Y-106568800D03*
X175935800Y-93868800D03*
X175935800Y-101488800D03*
X173573800Y-78628800D03*
X175935800Y-91328800D03*
X173573800Y-104028800D03*
X173573800Y-98948800D03*
X175935800Y-98948800D03*
X173573800Y-88788800D03*
X175935800Y-96408800D03*
X173573800Y-101488800D03*
X175935800Y-88788800D03*
X175935800Y-71008800D03*
D11*
X223795800Y-53320800D03*
D10*
X173573800Y-58308800D03*
X173573800Y-60848800D03*
X175935800Y-58308800D03*
X175935800Y-73548800D03*
X175935800Y-68468800D03*
X173573800Y-73548800D03*
D11*
X223795800Y-111320800D03*
D10*
X175935800Y-78628800D03*
D11*
X174795800Y-111320800D03*
D10*
X173573800Y-63388800D03*
X175935800Y-65928800D03*
X173573800Y-68468800D03*
X173573800Y-65928800D03*
D11*
X174795800Y-53320800D03*
D10*
X173573800Y-71008800D03*
X175935800Y-60848800D03*
X175935800Y-63388800D03*
X175935800Y-76088800D03*
X173573800Y-76088800D03*
%TD*%
D12*
%TO.C,U4*%
X197104000Y-58166000D03*
D13*
X202184000Y-58166000D03*
X209804000Y-78486000D03*
X189484000Y-78486000D03*
X189484000Y-58166000D03*
X199644000Y-78486000D03*
%TD*%
D14*
%TO.C,U3*%
X217252000Y-109160000D03*
X217252000Y-108660000D03*
X217252000Y-108160000D03*
X217252000Y-107660000D03*
X217252000Y-107160000D03*
X217252000Y-106660000D03*
X217252000Y-106160000D03*
X217252000Y-105660000D03*
X217252000Y-105160000D03*
X217252000Y-104660000D03*
X217252000Y-104160000D03*
X217252000Y-103660000D03*
X217252000Y-103160000D03*
X217252000Y-102660000D03*
X217252000Y-102160000D03*
X217252000Y-101660000D03*
D15*
X215332000Y-99740000D03*
X214832000Y-99740000D03*
X214332000Y-99740000D03*
X213832000Y-99740000D03*
X213332000Y-99740000D03*
X212832000Y-99740000D03*
X212332000Y-99740000D03*
X211832000Y-99740000D03*
X211332000Y-99740000D03*
X210832000Y-99740000D03*
X210332000Y-99740000D03*
X209832000Y-99740000D03*
X209332000Y-99740000D03*
X208832000Y-99740000D03*
X208332000Y-99740000D03*
X207832000Y-99740000D03*
D14*
X205912000Y-101660000D03*
X205912000Y-102160000D03*
X205912000Y-102660000D03*
X205912000Y-103160000D03*
X205912000Y-103660000D03*
X205912000Y-104160000D03*
X205912000Y-104660000D03*
X205912000Y-105160000D03*
X205912000Y-105660000D03*
X205912000Y-106160000D03*
X205912000Y-106660000D03*
X205912000Y-107160000D03*
X205912000Y-107660000D03*
X205912000Y-108160000D03*
X205912000Y-108660000D03*
X205912000Y-109160000D03*
D15*
X207832000Y-111080000D03*
X208332000Y-111080000D03*
X208832000Y-111080000D03*
X209332000Y-111080000D03*
X209832000Y-111080000D03*
X210332000Y-111080000D03*
X210832000Y-111080000D03*
X211332000Y-111080000D03*
X211832000Y-111080000D03*
X212332000Y-111080000D03*
X212832000Y-111080000D03*
X213332000Y-111080000D03*
X213832000Y-111080000D03*
X214332000Y-111080000D03*
X214832000Y-111080000D03*
X215332000Y-111080000D03*
%TD*%
D16*
%TO.C,U7*%
X192093850Y-68326000D03*
X192093850Y-69596000D03*
X192093850Y-70866000D03*
X192093850Y-72136000D03*
X197542150Y-72136000D03*
X197542150Y-70866000D03*
X197542150Y-69596000D03*
X197542150Y-68326000D03*
%TD*%
%TO.C,C2*%
G36*
G01*
X220349338Y-97021600D02*
X221305862Y-97021600D01*
G75*
G02*
X221577600Y-97293338I0J-271738D01*
G01*
X221577600Y-97999862D01*
G75*
G02*
X221305862Y-98271600I-271738J0D01*
G01*
X220349338Y-98271600D01*
G75*
G02*
X220077600Y-97999862I0J271738D01*
G01*
X220077600Y-97293338D01*
G75*
G02*
X220349338Y-97021600I271738J0D01*
G01*
G37*
G36*
G01*
X220349338Y-94971600D02*
X221305862Y-94971600D01*
G75*
G02*
X221577600Y-95243338I0J-271738D01*
G01*
X221577600Y-95949862D01*
G75*
G02*
X221305862Y-96221600I-271738J0D01*
G01*
X220349338Y-96221600D01*
G75*
G02*
X220077600Y-95949862I0J271738D01*
G01*
X220077600Y-95243338D01*
G75*
G02*
X220349338Y-94971600I271738J0D01*
G01*
G37*
%TD*%
%TO.C,C3*%
G36*
G01*
X199244000Y-60735738D02*
X199244000Y-61692262D01*
G75*
G02*
X198972262Y-61964000I-271738J0D01*
G01*
X198265738Y-61964000D01*
G75*
G02*
X197994000Y-61692262I0J271738D01*
G01*
X197994000Y-60735738D01*
G75*
G02*
X198265738Y-60464000I271738J0D01*
G01*
X198972262Y-60464000D01*
G75*
G02*
X199244000Y-60735738I0J-271738D01*
G01*
G37*
G36*
G01*
X201294000Y-60735738D02*
X201294000Y-61692262D01*
G75*
G02*
X201022262Y-61964000I-271738J0D01*
G01*
X200315738Y-61964000D01*
G75*
G02*
X200044000Y-61692262I0J271738D01*
G01*
X200044000Y-60735738D01*
G75*
G02*
X200315738Y-60464000I271738J0D01*
G01*
X201022262Y-60464000D01*
G75*
G02*
X201294000Y-60735738I0J-271738D01*
G01*
G37*
%TD*%
%TO.C,C5*%
G36*
G01*
X199572138Y-69996000D02*
X200528662Y-69996000D01*
G75*
G02*
X200800400Y-70267738I0J-271738D01*
G01*
X200800400Y-70974262D01*
G75*
G02*
X200528662Y-71246000I-271738J0D01*
G01*
X199572138Y-71246000D01*
G75*
G02*
X199300400Y-70974262I0J271738D01*
G01*
X199300400Y-70267738D01*
G75*
G02*
X199572138Y-69996000I271738J0D01*
G01*
G37*
G36*
G01*
X199572138Y-67946000D02*
X200528662Y-67946000D01*
G75*
G02*
X200800400Y-68217738I0J-271738D01*
G01*
X200800400Y-68924262D01*
G75*
G02*
X200528662Y-69196000I-271738J0D01*
G01*
X199572138Y-69196000D01*
G75*
G02*
X199300400Y-68924262I0J271738D01*
G01*
X199300400Y-68217738D01*
G75*
G02*
X199572138Y-67946000I271738J0D01*
G01*
G37*
%TD*%
%TO.C,C6*%
G36*
G01*
X210470800Y-112958138D02*
X210470800Y-113914662D01*
G75*
G02*
X210199062Y-114186400I-271738J0D01*
G01*
X209492538Y-114186400D01*
G75*
G02*
X209220800Y-113914662I0J271738D01*
G01*
X209220800Y-112958138D01*
G75*
G02*
X209492538Y-112686400I271738J0D01*
G01*
X210199062Y-112686400D01*
G75*
G02*
X210470800Y-112958138I0J-271738D01*
G01*
G37*
G36*
G01*
X212520800Y-112958138D02*
X212520800Y-113914662D01*
G75*
G02*
X212249062Y-114186400I-271738J0D01*
G01*
X211542538Y-114186400D01*
G75*
G02*
X211270800Y-113914662I0J271738D01*
G01*
X211270800Y-112958138D01*
G75*
G02*
X211542538Y-112686400I271738J0D01*
G01*
X212249062Y-112686400D01*
G75*
G02*
X212520800Y-112958138I0J-271738D01*
G01*
G37*
%TD*%
%TO.C,C7*%
G36*
G01*
X215868200Y-113889262D02*
X215868200Y-112932738D01*
G75*
G02*
X216139938Y-112661000I271738J0D01*
G01*
X216846462Y-112661000D01*
G75*
G02*
X217118200Y-112932738I0J-271738D01*
G01*
X217118200Y-113889262D01*
G75*
G02*
X216846462Y-114161000I-271738J0D01*
G01*
X216139938Y-114161000D01*
G75*
G02*
X215868200Y-113889262I0J271738D01*
G01*
G37*
G36*
G01*
X213818200Y-113889262D02*
X213818200Y-112932738D01*
G75*
G02*
X214089938Y-112661000I271738J0D01*
G01*
X214796462Y-112661000D01*
G75*
G02*
X215068200Y-112932738I0J-271738D01*
G01*
X215068200Y-113889262D01*
G75*
G02*
X214796462Y-114161000I-271738J0D01*
G01*
X214089938Y-114161000D01*
G75*
G02*
X213818200Y-113889262I0J271738D01*
G01*
G37*
%TD*%
%TO.C,C8*%
G36*
G01*
X210341738Y-96412000D02*
X211298262Y-96412000D01*
G75*
G02*
X211570000Y-96683738I0J-271738D01*
G01*
X211570000Y-97390262D01*
G75*
G02*
X211298262Y-97662000I-271738J0D01*
G01*
X210341738Y-97662000D01*
G75*
G02*
X210070000Y-97390262I0J271738D01*
G01*
X210070000Y-96683738D01*
G75*
G02*
X210341738Y-96412000I271738J0D01*
G01*
G37*
G36*
G01*
X210341738Y-94362000D02*
X211298262Y-94362000D01*
G75*
G02*
X211570000Y-94633738I0J-271738D01*
G01*
X211570000Y-95340262D01*
G75*
G02*
X211298262Y-95612000I-271738J0D01*
G01*
X210341738Y-95612000D01*
G75*
G02*
X210070000Y-95340262I0J271738D01*
G01*
X210070000Y-94633738D01*
G75*
G02*
X210341738Y-94362000I271738J0D01*
G01*
G37*
%TD*%
%TO.C,C9*%
G36*
G01*
X202916262Y-102724000D02*
X201959738Y-102724000D01*
G75*
G02*
X201688000Y-102452262I0J271738D01*
G01*
X201688000Y-101745738D01*
G75*
G02*
X201959738Y-101474000I271738J0D01*
G01*
X202916262Y-101474000D01*
G75*
G02*
X203188000Y-101745738I0J-271738D01*
G01*
X203188000Y-102452262D01*
G75*
G02*
X202916262Y-102724000I-271738J0D01*
G01*
G37*
G36*
G01*
X202916262Y-104774000D02*
X201959738Y-104774000D01*
G75*
G02*
X201688000Y-104502262I0J271738D01*
G01*
X201688000Y-103795738D01*
G75*
G02*
X201959738Y-103524000I271738J0D01*
G01*
X202916262Y-103524000D01*
G75*
G02*
X203188000Y-103795738I0J-271738D01*
G01*
X203188000Y-104502262D01*
G75*
G02*
X202916262Y-104774000I-271738J0D01*
G01*
G37*
%TD*%
%TO.C,C10*%
G36*
G01*
X215362262Y-97662000D02*
X214405738Y-97662000D01*
G75*
G02*
X214134000Y-97390262I0J271738D01*
G01*
X214134000Y-96683738D01*
G75*
G02*
X214405738Y-96412000I271738J0D01*
G01*
X215362262Y-96412000D01*
G75*
G02*
X215634000Y-96683738I0J-271738D01*
G01*
X215634000Y-97390262D01*
G75*
G02*
X215362262Y-97662000I-271738J0D01*
G01*
G37*
G36*
G01*
X215362262Y-95612000D02*
X214405738Y-95612000D01*
G75*
G02*
X214134000Y-95340262I0J271738D01*
G01*
X214134000Y-94633738D01*
G75*
G02*
X214405738Y-94362000I271738J0D01*
G01*
X215362262Y-94362000D01*
G75*
G02*
X215634000Y-94633738I0J-271738D01*
G01*
X215634000Y-95340262D01*
G75*
G02*
X215362262Y-95612000I-271738J0D01*
G01*
G37*
%TD*%
%TO.C,C11*%
G36*
G01*
X204953600Y-113914662D02*
X204953600Y-112958138D01*
G75*
G02*
X205225338Y-112686400I271738J0D01*
G01*
X205931862Y-112686400D01*
G75*
G02*
X206203600Y-112958138I0J-271738D01*
G01*
X206203600Y-113914662D01*
G75*
G02*
X205931862Y-114186400I-271738J0D01*
G01*
X205225338Y-114186400D01*
G75*
G02*
X204953600Y-113914662I0J271738D01*
G01*
G37*
G36*
G01*
X207003600Y-113914662D02*
X207003600Y-112958138D01*
G75*
G02*
X207275338Y-112686400I271738J0D01*
G01*
X207981862Y-112686400D01*
G75*
G02*
X208253600Y-112958138I0J-271738D01*
G01*
X208253600Y-113914662D01*
G75*
G02*
X207981862Y-114186400I-271738J0D01*
G01*
X207275338Y-114186400D01*
G75*
G02*
X207003600Y-113914662I0J271738D01*
G01*
G37*
%TD*%
%TO.C,C12*%
G36*
G01*
X189513738Y-106808000D02*
X190470262Y-106808000D01*
G75*
G02*
X190742000Y-107079738I0J-271738D01*
G01*
X190742000Y-107786262D01*
G75*
G02*
X190470262Y-108058000I-271738J0D01*
G01*
X189513738Y-108058000D01*
G75*
G02*
X189242000Y-107786262I0J271738D01*
G01*
X189242000Y-107079738D01*
G75*
G02*
X189513738Y-106808000I271738J0D01*
G01*
G37*
G36*
G01*
X189513738Y-108858000D02*
X190470262Y-108858000D01*
G75*
G02*
X190742000Y-109129738I0J-271738D01*
G01*
X190742000Y-109836262D01*
G75*
G02*
X190470262Y-110108000I-271738J0D01*
G01*
X189513738Y-110108000D01*
G75*
G02*
X189242000Y-109836262I0J271738D01*
G01*
X189242000Y-109129738D01*
G75*
G02*
X189513738Y-108858000I271738J0D01*
G01*
G37*
%TD*%
%TO.C,C13*%
G36*
G01*
X189259738Y-68581000D02*
X190216262Y-68581000D01*
G75*
G02*
X190488000Y-68852738I0J-271738D01*
G01*
X190488000Y-69559262D01*
G75*
G02*
X190216262Y-69831000I-271738J0D01*
G01*
X189259738Y-69831000D01*
G75*
G02*
X188988000Y-69559262I0J271738D01*
G01*
X188988000Y-68852738D01*
G75*
G02*
X189259738Y-68581000I271738J0D01*
G01*
G37*
G36*
G01*
X189259738Y-70631000D02*
X190216262Y-70631000D01*
G75*
G02*
X190488000Y-70902738I0J-271738D01*
G01*
X190488000Y-71609262D01*
G75*
G02*
X190216262Y-71881000I-271738J0D01*
G01*
X189259738Y-71881000D01*
G75*
G02*
X188988000Y-71609262I0J271738D01*
G01*
X188988000Y-70902738D01*
G75*
G02*
X189259738Y-70631000I271738J0D01*
G01*
G37*
%TD*%
%TO.C,C14*%
G36*
G01*
X185898262Y-102488000D02*
X184941738Y-102488000D01*
G75*
G02*
X184670000Y-102216262I0J271738D01*
G01*
X184670000Y-101509738D01*
G75*
G02*
X184941738Y-101238000I271738J0D01*
G01*
X185898262Y-101238000D01*
G75*
G02*
X186170000Y-101509738I0J-271738D01*
G01*
X186170000Y-102216262D01*
G75*
G02*
X185898262Y-102488000I-271738J0D01*
G01*
G37*
G36*
G01*
X185898262Y-100438000D02*
X184941738Y-100438000D01*
G75*
G02*
X184670000Y-100166262I0J271738D01*
G01*
X184670000Y-99459738D01*
G75*
G02*
X184941738Y-99188000I271738J0D01*
G01*
X185898262Y-99188000D01*
G75*
G02*
X186170000Y-99459738I0J-271738D01*
G01*
X186170000Y-100166262D01*
G75*
G02*
X185898262Y-100438000I-271738J0D01*
G01*
G37*
%TD*%
%TO.C,C15*%
G36*
G01*
X187527200Y-92739738D02*
X187527200Y-93696262D01*
G75*
G02*
X187255462Y-93968000I-271738J0D01*
G01*
X186548938Y-93968000D01*
G75*
G02*
X186277200Y-93696262I0J271738D01*
G01*
X186277200Y-92739738D01*
G75*
G02*
X186548938Y-92468000I271738J0D01*
G01*
X187255462Y-92468000D01*
G75*
G02*
X187527200Y-92739738I0J-271738D01*
G01*
G37*
G36*
G01*
X185477200Y-92739738D02*
X185477200Y-93696262D01*
G75*
G02*
X185205462Y-93968000I-271738J0D01*
G01*
X184498938Y-93968000D01*
G75*
G02*
X184227200Y-93696262I0J271738D01*
G01*
X184227200Y-92739738D01*
G75*
G02*
X184498938Y-92468000I271738J0D01*
G01*
X185205462Y-92468000D01*
G75*
G02*
X185477200Y-92739738I0J-271738D01*
G01*
G37*
%TD*%
%TO.C,C16*%
G36*
G01*
X202467738Y-90570000D02*
X203424262Y-90570000D01*
G75*
G02*
X203696000Y-90841738I0J-271738D01*
G01*
X203696000Y-91548262D01*
G75*
G02*
X203424262Y-91820000I-271738J0D01*
G01*
X202467738Y-91820000D01*
G75*
G02*
X202196000Y-91548262I0J271738D01*
G01*
X202196000Y-90841738D01*
G75*
G02*
X202467738Y-90570000I271738J0D01*
G01*
G37*
G36*
G01*
X202467738Y-88520000D02*
X203424262Y-88520000D01*
G75*
G02*
X203696000Y-88791738I0J-271738D01*
G01*
X203696000Y-89498262D01*
G75*
G02*
X203424262Y-89770000I-271738J0D01*
G01*
X202467738Y-89770000D01*
G75*
G02*
X202196000Y-89498262I0J271738D01*
G01*
X202196000Y-88791738D01*
G75*
G02*
X202467738Y-88520000I271738J0D01*
G01*
G37*
%TD*%
%TO.C,C17*%
G36*
G01*
X202467738Y-80138000D02*
X203424262Y-80138000D01*
G75*
G02*
X203696000Y-80409738I0J-271738D01*
G01*
X203696000Y-81116262D01*
G75*
G02*
X203424262Y-81388000I-271738J0D01*
G01*
X202467738Y-81388000D01*
G75*
G02*
X202196000Y-81116262I0J271738D01*
G01*
X202196000Y-80409738D01*
G75*
G02*
X202467738Y-80138000I271738J0D01*
G01*
G37*
G36*
G01*
X202467738Y-82188000D02*
X203424262Y-82188000D01*
G75*
G02*
X203696000Y-82459738I0J-271738D01*
G01*
X203696000Y-83166262D01*
G75*
G02*
X203424262Y-83438000I-271738J0D01*
G01*
X202467738Y-83438000D01*
G75*
G02*
X202196000Y-83166262I0J271738D01*
G01*
X202196000Y-82459738D01*
G75*
G02*
X202467738Y-82188000I271738J0D01*
G01*
G37*
%TD*%
%TO.C,C18*%
G36*
G01*
X203991738Y-71520000D02*
X204948262Y-71520000D01*
G75*
G02*
X205220000Y-71791738I0J-271738D01*
G01*
X205220000Y-72498262D01*
G75*
G02*
X204948262Y-72770000I-271738J0D01*
G01*
X203991738Y-72770000D01*
G75*
G02*
X203720000Y-72498262I0J271738D01*
G01*
X203720000Y-71791738D01*
G75*
G02*
X203991738Y-71520000I271738J0D01*
G01*
G37*
G36*
G01*
X203991738Y-69470000D02*
X204948262Y-69470000D01*
G75*
G02*
X205220000Y-69741738I0J-271738D01*
G01*
X205220000Y-70448262D01*
G75*
G02*
X204948262Y-70720000I-271738J0D01*
G01*
X203991738Y-70720000D01*
G75*
G02*
X203720000Y-70448262I0J271738D01*
G01*
X203720000Y-69741738D01*
G75*
G02*
X203991738Y-69470000I271738J0D01*
G01*
G37*
%TD*%
%TO.C,C19*%
G36*
G01*
X220852000Y-89234538D02*
X220852000Y-90191062D01*
G75*
G02*
X220580262Y-90462800I-271738J0D01*
G01*
X219873738Y-90462800D01*
G75*
G02*
X219602000Y-90191062I0J271738D01*
G01*
X219602000Y-89234538D01*
G75*
G02*
X219873738Y-88962800I271738J0D01*
G01*
X220580262Y-88962800D01*
G75*
G02*
X220852000Y-89234538I0J-271738D01*
G01*
G37*
G36*
G01*
X218802000Y-89234538D02*
X218802000Y-90191062D01*
G75*
G02*
X218530262Y-90462800I-271738J0D01*
G01*
X217823738Y-90462800D01*
G75*
G02*
X217552000Y-90191062I0J271738D01*
G01*
X217552000Y-89234538D01*
G75*
G02*
X217823738Y-88962800I271738J0D01*
G01*
X218530262Y-88962800D01*
G75*
G02*
X218802000Y-89234538I0J-271738D01*
G01*
G37*
%TD*%
%TO.C,C20*%
G36*
G01*
X217552000Y-80539062D02*
X217552000Y-79582538D01*
G75*
G02*
X217823738Y-79310800I271738J0D01*
G01*
X218530262Y-79310800D01*
G75*
G02*
X218802000Y-79582538I0J-271738D01*
G01*
X218802000Y-80539062D01*
G75*
G02*
X218530262Y-80810800I-271738J0D01*
G01*
X217823738Y-80810800D01*
G75*
G02*
X217552000Y-80539062I0J271738D01*
G01*
G37*
G36*
G01*
X219602000Y-80539062D02*
X219602000Y-79582538D01*
G75*
G02*
X219873738Y-79310800I271738J0D01*
G01*
X220580262Y-79310800D01*
G75*
G02*
X220852000Y-79582538I0J-271738D01*
G01*
X220852000Y-80539062D01*
G75*
G02*
X220580262Y-80810800I-271738J0D01*
G01*
X219873738Y-80810800D01*
G75*
G02*
X219602000Y-80539062I0J271738D01*
G01*
G37*
%TD*%
D17*
%TO.C,CR1*%
X218059000Y-87566500D03*
X219329000Y-87566500D03*
X220599000Y-87566500D03*
X221869000Y-87566500D03*
X221869000Y-82207100D03*
X220599000Y-82207100D03*
X219329000Y-82207100D03*
X218059000Y-82207100D03*
%TD*%
D18*
%TO.C,J1*%
X223940000Y-64144000D03*
X223940000Y-59944000D03*
X218440000Y-64144000D03*
D19*
X218440000Y-59944000D03*
%TD*%
%TO.C,J4*%
X218440000Y-71120000D03*
D18*
X218440000Y-75320000D03*
X223940000Y-71120000D03*
X223940000Y-75320000D03*
%TD*%
D20*
%TO.C,J5*%
X225755200Y-94030800D03*
D21*
X225755200Y-91490800D03*
X225755200Y-88950800D03*
X225755200Y-86410800D03*
X225755200Y-83870800D03*
X225755200Y-81330800D03*
%TD*%
%TO.C,U2*%
G36*
G01*
X196086000Y-96453500D02*
X196086000Y-96078500D01*
G75*
G02*
X196273500Y-95891000I187500J0D01*
G01*
X198348500Y-95891000D01*
G75*
G02*
X198536000Y-96078500I0J-187500D01*
G01*
X198536000Y-96453500D01*
G75*
G02*
X198348500Y-96641000I-187500J0D01*
G01*
X196273500Y-96641000D01*
G75*
G02*
X196086000Y-96453500I0J187500D01*
G01*
G37*
G36*
G01*
X196086000Y-98993500D02*
X196086000Y-98618500D01*
G75*
G02*
X196273500Y-98431000I187500J0D01*
G01*
X198348500Y-98431000D01*
G75*
G02*
X198536000Y-98618500I0J-187500D01*
G01*
X198536000Y-98993500D01*
G75*
G02*
X198348500Y-99181000I-187500J0D01*
G01*
X196273500Y-99181000D01*
G75*
G02*
X196086000Y-98993500I0J187500D01*
G01*
G37*
G36*
G01*
X196086000Y-101533500D02*
X196086000Y-101158500D01*
G75*
G02*
X196273500Y-100971000I187500J0D01*
G01*
X198348500Y-100971000D01*
G75*
G02*
X198536000Y-101158500I0J-187500D01*
G01*
X198536000Y-101533500D01*
G75*
G02*
X198348500Y-101721000I-187500J0D01*
G01*
X196273500Y-101721000D01*
G75*
G02*
X196086000Y-101533500I0J187500D01*
G01*
G37*
G36*
G01*
X196086000Y-104073500D02*
X196086000Y-103698500D01*
G75*
G02*
X196273500Y-103511000I187500J0D01*
G01*
X198348500Y-103511000D01*
G75*
G02*
X198536000Y-103698500I0J-187500D01*
G01*
X198536000Y-104073500D01*
G75*
G02*
X198348500Y-104261000I-187500J0D01*
G01*
X196273500Y-104261000D01*
G75*
G02*
X196086000Y-104073500I0J187500D01*
G01*
G37*
G36*
G01*
X187036000Y-104073500D02*
X187036000Y-103698500D01*
G75*
G02*
X187223500Y-103511000I187500J0D01*
G01*
X189298500Y-103511000D01*
G75*
G02*
X189486000Y-103698500I0J-187500D01*
G01*
X189486000Y-104073500D01*
G75*
G02*
X189298500Y-104261000I-187500J0D01*
G01*
X187223500Y-104261000D01*
G75*
G02*
X187036000Y-104073500I0J187500D01*
G01*
G37*
G36*
G01*
X187036000Y-101533500D02*
X187036000Y-101158500D01*
G75*
G02*
X187223500Y-100971000I187500J0D01*
G01*
X189298500Y-100971000D01*
G75*
G02*
X189486000Y-101158500I0J-187500D01*
G01*
X189486000Y-101533500D01*
G75*
G02*
X189298500Y-101721000I-187500J0D01*
G01*
X187223500Y-101721000D01*
G75*
G02*
X187036000Y-101533500I0J187500D01*
G01*
G37*
G36*
G01*
X187036000Y-98993500D02*
X187036000Y-98618500D01*
G75*
G02*
X187223500Y-98431000I187500J0D01*
G01*
X189298500Y-98431000D01*
G75*
G02*
X189486000Y-98618500I0J-187500D01*
G01*
X189486000Y-98993500D01*
G75*
G02*
X189298500Y-99181000I-187500J0D01*
G01*
X187223500Y-99181000D01*
G75*
G02*
X187036000Y-98993500I0J187500D01*
G01*
G37*
G36*
G01*
X187036000Y-96453500D02*
X187036000Y-96078500D01*
G75*
G02*
X187223500Y-95891000I187500J0D01*
G01*
X189298500Y-95891000D01*
G75*
G02*
X189486000Y-96078500I0J-187500D01*
G01*
X189486000Y-96453500D01*
G75*
G02*
X189298500Y-96641000I-187500J0D01*
G01*
X187223500Y-96641000D01*
G75*
G02*
X187036000Y-96453500I0J187500D01*
G01*
G37*
%TD*%
%TO.C,U5*%
G36*
G01*
X203616000Y-113858500D02*
X203616000Y-114233500D01*
G75*
G02*
X203428500Y-114421000I-187500J0D01*
G01*
X201353500Y-114421000D01*
G75*
G02*
X201166000Y-114233500I0J187500D01*
G01*
X201166000Y-113858500D01*
G75*
G02*
X201353500Y-113671000I187500J0D01*
G01*
X203428500Y-113671000D01*
G75*
G02*
X203616000Y-113858500I0J-187500D01*
G01*
G37*
G36*
G01*
X203616000Y-111318500D02*
X203616000Y-111693500D01*
G75*
G02*
X203428500Y-111881000I-187500J0D01*
G01*
X201353500Y-111881000D01*
G75*
G02*
X201166000Y-111693500I0J187500D01*
G01*
X201166000Y-111318500D01*
G75*
G02*
X201353500Y-111131000I187500J0D01*
G01*
X203428500Y-111131000D01*
G75*
G02*
X203616000Y-111318500I0J-187500D01*
G01*
G37*
G36*
G01*
X203616000Y-108778500D02*
X203616000Y-109153500D01*
G75*
G02*
X203428500Y-109341000I-187500J0D01*
G01*
X201353500Y-109341000D01*
G75*
G02*
X201166000Y-109153500I0J187500D01*
G01*
X201166000Y-108778500D01*
G75*
G02*
X201353500Y-108591000I187500J0D01*
G01*
X203428500Y-108591000D01*
G75*
G02*
X203616000Y-108778500I0J-187500D01*
G01*
G37*
G36*
G01*
X203616000Y-106238500D02*
X203616000Y-106613500D01*
G75*
G02*
X203428500Y-106801000I-187500J0D01*
G01*
X201353500Y-106801000D01*
G75*
G02*
X201166000Y-106613500I0J187500D01*
G01*
X201166000Y-106238500D01*
G75*
G02*
X201353500Y-106051000I187500J0D01*
G01*
X203428500Y-106051000D01*
G75*
G02*
X203616000Y-106238500I0J-187500D01*
G01*
G37*
G36*
G01*
X194566000Y-106238500D02*
X194566000Y-106613500D01*
G75*
G02*
X194378500Y-106801000I-187500J0D01*
G01*
X192303500Y-106801000D01*
G75*
G02*
X192116000Y-106613500I0J187500D01*
G01*
X192116000Y-106238500D01*
G75*
G02*
X192303500Y-106051000I187500J0D01*
G01*
X194378500Y-106051000D01*
G75*
G02*
X194566000Y-106238500I0J-187500D01*
G01*
G37*
G36*
G01*
X194566000Y-108778500D02*
X194566000Y-109153500D01*
G75*
G02*
X194378500Y-109341000I-187500J0D01*
G01*
X192303500Y-109341000D01*
G75*
G02*
X192116000Y-109153500I0J187500D01*
G01*
X192116000Y-108778500D01*
G75*
G02*
X192303500Y-108591000I187500J0D01*
G01*
X194378500Y-108591000D01*
G75*
G02*
X194566000Y-108778500I0J-187500D01*
G01*
G37*
G36*
G01*
X194566000Y-111318500D02*
X194566000Y-111693500D01*
G75*
G02*
X194378500Y-111881000I-187500J0D01*
G01*
X192303500Y-111881000D01*
G75*
G02*
X192116000Y-111693500I0J187500D01*
G01*
X192116000Y-111318500D01*
G75*
G02*
X192303500Y-111131000I187500J0D01*
G01*
X194378500Y-111131000D01*
G75*
G02*
X194566000Y-111318500I0J-187500D01*
G01*
G37*
G36*
G01*
X194566000Y-113858500D02*
X194566000Y-114233500D01*
G75*
G02*
X194378500Y-114421000I-187500J0D01*
G01*
X192303500Y-114421000D01*
G75*
G02*
X192116000Y-114233500I0J187500D01*
G01*
X192116000Y-113858500D01*
G75*
G02*
X192303500Y-113671000I187500J0D01*
G01*
X194378500Y-113671000D01*
G75*
G02*
X194566000Y-113858500I0J-187500D01*
G01*
G37*
%TD*%
%TO.C,U8*%
G36*
G01*
X200289000Y-92154000D02*
X200289000Y-92504000D01*
G75*
G02*
X200114000Y-92679000I-175000J0D01*
G01*
X198314000Y-92679000D01*
G75*
G02*
X198139000Y-92504000I0J175000D01*
G01*
X198139000Y-92154000D01*
G75*
G02*
X198314000Y-91979000I175000J0D01*
G01*
X200114000Y-91979000D01*
G75*
G02*
X200289000Y-92154000I0J-175000D01*
G01*
G37*
G36*
G01*
X200289000Y-90884000D02*
X200289000Y-91234000D01*
G75*
G02*
X200114000Y-91409000I-175000J0D01*
G01*
X198314000Y-91409000D01*
G75*
G02*
X198139000Y-91234000I0J175000D01*
G01*
X198139000Y-90884000D01*
G75*
G02*
X198314000Y-90709000I175000J0D01*
G01*
X200114000Y-90709000D01*
G75*
G02*
X200289000Y-90884000I0J-175000D01*
G01*
G37*
G36*
G01*
X200289000Y-89614000D02*
X200289000Y-89964000D01*
G75*
G02*
X200114000Y-90139000I-175000J0D01*
G01*
X198314000Y-90139000D01*
G75*
G02*
X198139000Y-89964000I0J175000D01*
G01*
X198139000Y-89614000D01*
G75*
G02*
X198314000Y-89439000I175000J0D01*
G01*
X200114000Y-89439000D01*
G75*
G02*
X200289000Y-89614000I0J-175000D01*
G01*
G37*
G36*
G01*
X200289000Y-88344000D02*
X200289000Y-88694000D01*
G75*
G02*
X200114000Y-88869000I-175000J0D01*
G01*
X198314000Y-88869000D01*
G75*
G02*
X198139000Y-88694000I0J175000D01*
G01*
X198139000Y-88344000D01*
G75*
G02*
X198314000Y-88169000I175000J0D01*
G01*
X200114000Y-88169000D01*
G75*
G02*
X200289000Y-88344000I0J-175000D01*
G01*
G37*
G36*
G01*
X200289000Y-87074000D02*
X200289000Y-87424000D01*
G75*
G02*
X200114000Y-87599000I-175000J0D01*
G01*
X198314000Y-87599000D01*
G75*
G02*
X198139000Y-87424000I0J175000D01*
G01*
X198139000Y-87074000D01*
G75*
G02*
X198314000Y-86899000I175000J0D01*
G01*
X200114000Y-86899000D01*
G75*
G02*
X200289000Y-87074000I0J-175000D01*
G01*
G37*
G36*
G01*
X200289000Y-85804000D02*
X200289000Y-86154000D01*
G75*
G02*
X200114000Y-86329000I-175000J0D01*
G01*
X198314000Y-86329000D01*
G75*
G02*
X198139000Y-86154000I0J175000D01*
G01*
X198139000Y-85804000D01*
G75*
G02*
X198314000Y-85629000I175000J0D01*
G01*
X200114000Y-85629000D01*
G75*
G02*
X200289000Y-85804000I0J-175000D01*
G01*
G37*
G36*
G01*
X200289000Y-84534000D02*
X200289000Y-84884000D01*
G75*
G02*
X200114000Y-85059000I-175000J0D01*
G01*
X198314000Y-85059000D01*
G75*
G02*
X198139000Y-84884000I0J175000D01*
G01*
X198139000Y-84534000D01*
G75*
G02*
X198314000Y-84359000I175000J0D01*
G01*
X200114000Y-84359000D01*
G75*
G02*
X200289000Y-84534000I0J-175000D01*
G01*
G37*
G36*
G01*
X200289000Y-83264000D02*
X200289000Y-83614000D01*
G75*
G02*
X200114000Y-83789000I-175000J0D01*
G01*
X198314000Y-83789000D01*
G75*
G02*
X198139000Y-83614000I0J175000D01*
G01*
X198139000Y-83264000D01*
G75*
G02*
X198314000Y-83089000I175000J0D01*
G01*
X200114000Y-83089000D01*
G75*
G02*
X200289000Y-83264000I0J-175000D01*
G01*
G37*
G36*
G01*
X200289000Y-81994000D02*
X200289000Y-82344000D01*
G75*
G02*
X200114000Y-82519000I-175000J0D01*
G01*
X198314000Y-82519000D01*
G75*
G02*
X198139000Y-82344000I0J175000D01*
G01*
X198139000Y-81994000D01*
G75*
G02*
X198314000Y-81819000I175000J0D01*
G01*
X200114000Y-81819000D01*
G75*
G02*
X200289000Y-81994000I0J-175000D01*
G01*
G37*
G36*
G01*
X190989000Y-81994000D02*
X190989000Y-82344000D01*
G75*
G02*
X190814000Y-82519000I-175000J0D01*
G01*
X189014000Y-82519000D01*
G75*
G02*
X188839000Y-82344000I0J175000D01*
G01*
X188839000Y-81994000D01*
G75*
G02*
X189014000Y-81819000I175000J0D01*
G01*
X190814000Y-81819000D01*
G75*
G02*
X190989000Y-81994000I0J-175000D01*
G01*
G37*
G36*
G01*
X190989000Y-83264000D02*
X190989000Y-83614000D01*
G75*
G02*
X190814000Y-83789000I-175000J0D01*
G01*
X189014000Y-83789000D01*
G75*
G02*
X188839000Y-83614000I0J175000D01*
G01*
X188839000Y-83264000D01*
G75*
G02*
X189014000Y-83089000I175000J0D01*
G01*
X190814000Y-83089000D01*
G75*
G02*
X190989000Y-83264000I0J-175000D01*
G01*
G37*
G36*
G01*
X190989000Y-84534000D02*
X190989000Y-84884000D01*
G75*
G02*
X190814000Y-85059000I-175000J0D01*
G01*
X189014000Y-85059000D01*
G75*
G02*
X188839000Y-84884000I0J175000D01*
G01*
X188839000Y-84534000D01*
G75*
G02*
X189014000Y-84359000I175000J0D01*
G01*
X190814000Y-84359000D01*
G75*
G02*
X190989000Y-84534000I0J-175000D01*
G01*
G37*
G36*
G01*
X190989000Y-85804000D02*
X190989000Y-86154000D01*
G75*
G02*
X190814000Y-86329000I-175000J0D01*
G01*
X189014000Y-86329000D01*
G75*
G02*
X188839000Y-86154000I0J175000D01*
G01*
X188839000Y-85804000D01*
G75*
G02*
X189014000Y-85629000I175000J0D01*
G01*
X190814000Y-85629000D01*
G75*
G02*
X190989000Y-85804000I0J-175000D01*
G01*
G37*
G36*
G01*
X190989000Y-87074000D02*
X190989000Y-87424000D01*
G75*
G02*
X190814000Y-87599000I-175000J0D01*
G01*
X189014000Y-87599000D01*
G75*
G02*
X188839000Y-87424000I0J175000D01*
G01*
X188839000Y-87074000D01*
G75*
G02*
X189014000Y-86899000I175000J0D01*
G01*
X190814000Y-86899000D01*
G75*
G02*
X190989000Y-87074000I0J-175000D01*
G01*
G37*
G36*
G01*
X190989000Y-88344000D02*
X190989000Y-88694000D01*
G75*
G02*
X190814000Y-88869000I-175000J0D01*
G01*
X189014000Y-88869000D01*
G75*
G02*
X188839000Y-88694000I0J175000D01*
G01*
X188839000Y-88344000D01*
G75*
G02*
X189014000Y-88169000I175000J0D01*
G01*
X190814000Y-88169000D01*
G75*
G02*
X190989000Y-88344000I0J-175000D01*
G01*
G37*
G36*
G01*
X190989000Y-89614000D02*
X190989000Y-89964000D01*
G75*
G02*
X190814000Y-90139000I-175000J0D01*
G01*
X189014000Y-90139000D01*
G75*
G02*
X188839000Y-89964000I0J175000D01*
G01*
X188839000Y-89614000D01*
G75*
G02*
X189014000Y-89439000I175000J0D01*
G01*
X190814000Y-89439000D01*
G75*
G02*
X190989000Y-89614000I0J-175000D01*
G01*
G37*
G36*
G01*
X190989000Y-90884000D02*
X190989000Y-91234000D01*
G75*
G02*
X190814000Y-91409000I-175000J0D01*
G01*
X189014000Y-91409000D01*
G75*
G02*
X188839000Y-91234000I0J175000D01*
G01*
X188839000Y-90884000D01*
G75*
G02*
X189014000Y-90709000I175000J0D01*
G01*
X190814000Y-90709000D01*
G75*
G02*
X190989000Y-90884000I0J-175000D01*
G01*
G37*
G36*
G01*
X190989000Y-92154000D02*
X190989000Y-92504000D01*
G75*
G02*
X190814000Y-92679000I-175000J0D01*
G01*
X189014000Y-92679000D01*
G75*
G02*
X188839000Y-92504000I0J175000D01*
G01*
X188839000Y-92154000D01*
G75*
G02*
X189014000Y-91979000I175000J0D01*
G01*
X190814000Y-91979000D01*
G75*
G02*
X190989000Y-92154000I0J-175000D01*
G01*
G37*
%TD*%
D22*
%TO.C,U9*%
X206825850Y-69469000D03*
X206825850Y-70739000D03*
X206825850Y-72009000D03*
X206825850Y-73279000D03*
X212274150Y-73279000D03*
X212274150Y-72009000D03*
X212274150Y-70739000D03*
X212274150Y-69469000D03*
%TD*%
D23*
%TO.C,Y1*%
X206756000Y-90856000D03*
X206756000Y-81356000D03*
%TD*%
%TO.C,R1*%
G36*
G01*
X179470000Y-61438262D02*
X179470000Y-60481738D01*
G75*
G02*
X179741738Y-60210000I271738J0D01*
G01*
X180448262Y-60210000D01*
G75*
G02*
X180720000Y-60481738I0J-271738D01*
G01*
X180720000Y-61438262D01*
G75*
G02*
X180448262Y-61710000I-271738J0D01*
G01*
X179741738Y-61710000D01*
G75*
G02*
X179470000Y-61438262I0J271738D01*
G01*
G37*
G36*
G01*
X177420000Y-61438262D02*
X177420000Y-60481738D01*
G75*
G02*
X177691738Y-60210000I271738J0D01*
G01*
X178398262Y-60210000D01*
G75*
G02*
X178670000Y-60481738I0J-271738D01*
G01*
X178670000Y-61438262D01*
G75*
G02*
X178398262Y-61710000I-271738J0D01*
G01*
X177691738Y-61710000D01*
G75*
G02*
X177420000Y-61438262I0J271738D01*
G01*
G37*
%TD*%
%TO.C,R2*%
G36*
G01*
X177420000Y-63978262D02*
X177420000Y-63021738D01*
G75*
G02*
X177691738Y-62750000I271738J0D01*
G01*
X178398262Y-62750000D01*
G75*
G02*
X178670000Y-63021738I0J-271738D01*
G01*
X178670000Y-63978262D01*
G75*
G02*
X178398262Y-64250000I-271738J0D01*
G01*
X177691738Y-64250000D01*
G75*
G02*
X177420000Y-63978262I0J271738D01*
G01*
G37*
G36*
G01*
X179470000Y-63978262D02*
X179470000Y-63021738D01*
G75*
G02*
X179741738Y-62750000I271738J0D01*
G01*
X180448262Y-62750000D01*
G75*
G02*
X180720000Y-63021738I0J-271738D01*
G01*
X180720000Y-63978262D01*
G75*
G02*
X180448262Y-64250000I-271738J0D01*
G01*
X179741738Y-64250000D01*
G75*
G02*
X179470000Y-63978262I0J271738D01*
G01*
G37*
%TD*%
%TO.C,R3*%
G36*
G01*
X223337862Y-96221600D02*
X222381338Y-96221600D01*
G75*
G02*
X222109600Y-95949862I0J271738D01*
G01*
X222109600Y-95243338D01*
G75*
G02*
X222381338Y-94971600I271738J0D01*
G01*
X223337862Y-94971600D01*
G75*
G02*
X223609600Y-95243338I0J-271738D01*
G01*
X223609600Y-95949862D01*
G75*
G02*
X223337862Y-96221600I-271738J0D01*
G01*
G37*
G36*
G01*
X223337862Y-98271600D02*
X222381338Y-98271600D01*
G75*
G02*
X222109600Y-97999862I0J271738D01*
G01*
X222109600Y-97293338D01*
G75*
G02*
X222381338Y-97021600I271738J0D01*
G01*
X223337862Y-97021600D01*
G75*
G02*
X223609600Y-97293338I0J-271738D01*
G01*
X223609600Y-97999862D01*
G75*
G02*
X223337862Y-98271600I-271738J0D01*
G01*
G37*
%TD*%
%TO.C,R4*%
G36*
G01*
X220137462Y-103731000D02*
X219180938Y-103731000D01*
G75*
G02*
X218909200Y-103459262I0J271738D01*
G01*
X218909200Y-102752738D01*
G75*
G02*
X219180938Y-102481000I271738J0D01*
G01*
X220137462Y-102481000D01*
G75*
G02*
X220409200Y-102752738I0J-271738D01*
G01*
X220409200Y-103459262D01*
G75*
G02*
X220137462Y-103731000I-271738J0D01*
G01*
G37*
G36*
G01*
X220137462Y-105781000D02*
X219180938Y-105781000D01*
G75*
G02*
X218909200Y-105509262I0J271738D01*
G01*
X218909200Y-104802738D01*
G75*
G02*
X219180938Y-104531000I271738J0D01*
G01*
X220137462Y-104531000D01*
G75*
G02*
X220409200Y-104802738I0J-271738D01*
G01*
X220409200Y-105509262D01*
G75*
G02*
X220137462Y-105781000I-271738J0D01*
G01*
G37*
%TD*%
%TO.C,R10*%
G36*
G01*
X184269000Y-91537262D02*
X184269000Y-90580738D01*
G75*
G02*
X184540738Y-90309000I271738J0D01*
G01*
X185247262Y-90309000D01*
G75*
G02*
X185519000Y-90580738I0J-271738D01*
G01*
X185519000Y-91537262D01*
G75*
G02*
X185247262Y-91809000I-271738J0D01*
G01*
X184540738Y-91809000D01*
G75*
G02*
X184269000Y-91537262I0J271738D01*
G01*
G37*
G36*
G01*
X186319000Y-91537262D02*
X186319000Y-90580738D01*
G75*
G02*
X186590738Y-90309000I271738J0D01*
G01*
X187297262Y-90309000D01*
G75*
G02*
X187569000Y-90580738I0J-271738D01*
G01*
X187569000Y-91537262D01*
G75*
G02*
X187297262Y-91809000I-271738J0D01*
G01*
X186590738Y-91809000D01*
G75*
G02*
X186319000Y-91537262I0J271738D01*
G01*
G37*
%TD*%
D20*
%TO.C,J2*%
X214884000Y-81229200D03*
D21*
X214884000Y-83769200D03*
X214884000Y-86309200D03*
X214884000Y-88849200D03*
%TD*%
D24*
%TO.C,U1*%
X200980000Y-98536000D03*
X202880000Y-98536000D03*
X201930000Y-96536000D03*
%TD*%
%TO.C,C21*%
G36*
G01*
X213897738Y-69724000D02*
X214854262Y-69724000D01*
G75*
G02*
X215126000Y-69995738I0J-271738D01*
G01*
X215126000Y-70702262D01*
G75*
G02*
X214854262Y-70974000I-271738J0D01*
G01*
X213897738Y-70974000D01*
G75*
G02*
X213626000Y-70702262I0J271738D01*
G01*
X213626000Y-69995738D01*
G75*
G02*
X213897738Y-69724000I271738J0D01*
G01*
G37*
G36*
G01*
X213897738Y-71774000D02*
X214854262Y-71774000D01*
G75*
G02*
X215126000Y-72045738I0J-271738D01*
G01*
X215126000Y-72752262D01*
G75*
G02*
X214854262Y-73024000I-271738J0D01*
G01*
X213897738Y-73024000D01*
G75*
G02*
X213626000Y-72752262I0J271738D01*
G01*
X213626000Y-72045738D01*
G75*
G02*
X213897738Y-71774000I271738J0D01*
G01*
G37*
%TD*%
D25*
%TO.C,U10*%
X182473600Y-112776000D03*
X184912000Y-112776000D03*
X187452000Y-112776000D03*
X189992000Y-112776000D03*
X179832000Y-112776000D03*
X179832000Y-97536000D03*
X182372000Y-97536000D03*
%TD*%
D20*
%TO.C,J3*%
X180848000Y-71120000D03*
D21*
X183388000Y-71120000D03*
X180848000Y-73660000D03*
X183388000Y-73660000D03*
X180848000Y-76200000D03*
X183388000Y-76200000D03*
X180848000Y-78740000D03*
X183388000Y-78740000D03*
X180848000Y-81280000D03*
X183388000Y-81280000D03*
%TD*%
D20*
%TO.C,J6*%
X216154000Y-51562000D03*
D21*
X218694000Y-51562000D03*
%TD*%
D20*
%TO.C,U11*%
X225552000Y-106172000D03*
D21*
X223012000Y-106172000D03*
X225552000Y-103632000D03*
X223012000Y-103632000D03*
X225552000Y-101092000D03*
X223012000Y-101092000D03*
%TD*%
M02*
