M48
; DRILL file {KiCad (5.1.6)-1} date 04/27/21 14:55:41
; FORMAT={-:-/ absolute / inch / decimal}
; #@! TF.CreationDate,2021-04-27T14:55:41-04:00
; #@! TF.GenerationSoftware,Kicad,Pcbnew,(5.1.6)-1
; #@! TF.FileFunction,Plated,1,2,PTH
FMAT,2
INCH
T1C0.0157
T2C0.0315
T3C0.0394
T4C0.0551
T5C0.0591
T6C0.1181
%
G90
G05
T1
X7.01Y-3.4
X7.02Y-3.72
X7.02Y-4.12
X7.04Y-3.26
X7.0493Y-2.3155
X7.1706Y-2.4
X7.206Y-3.584
X7.296Y-2.718
X7.318Y-2.578
X7.3254Y-2.6806
X7.326Y-3.058
X7.33Y-3.0
X7.4Y-2.796
X7.4078Y-2.5482
X7.42Y-2.59
X7.42Y-4.316
X7.495Y-2.495
X7.534Y-4.1495
X7.587Y-4.2475
X7.644Y-3.608
X7.644Y-3.89
X7.664Y-2.79
X7.6757Y-4.0857
X7.684Y-3.57
X7.6886Y-2.9994
X7.7Y-3.094
X7.7179Y-3.7199
X7.748Y-3.1823
X7.85Y-3.81
X7.87Y-4.01
X7.872Y-4.086
X7.874Y-2.84
X7.874Y-3.006
X7.876Y-2.648
X7.906Y-3.722
X7.914Y-3.176
X7.916Y-3.662
X7.9345Y-2.8855
X7.948Y-3.46
X7.959Y-4.227
X7.97Y-3.96
X7.9804Y-2.7596
X8.024Y-3.762
X8.13Y-4.396
X8.15Y-2.93
X8.164Y-4.03
X8.168Y-4.131
X8.1824Y-4.2786
X8.2116Y-2.7886
X8.2138Y-2.9308
X8.218Y-4.309
X8.22Y-3.84
X8.221Y-2.634
X8.232Y-2.986
X8.284Y-3.532
X8.2977Y-1.8673
X8.302Y-2.836
X8.304Y-3.977
X8.3054Y-3.6314
X8.3135Y-3.4
X8.329Y-1.91
X8.332Y-2.29
X8.342Y-2.9957
X8.342Y-3.646
X8.36Y-4.16
X8.372Y-3.086
X8.372Y-3.532
X8.38Y-3.74
X8.3868Y-1.919
X8.404Y-3.59
X8.425Y-3.98
X8.4256Y-2.5858
X8.427Y-2.6836
X8.46Y-2.96
X8.495Y-4.135
X8.5Y-4.2
X8.52Y-3.12
X8.5722Y-3.632
X8.586Y-3.948
X8.592Y-3.898
X8.609Y-4.452
X8.6595Y-4.3445
X8.684Y-3.704
X8.6892Y-4.2156
X8.75Y-3.686
X8.794Y-3.306
X8.84Y-3.84
X8.94Y-3.84
X8.9481Y-4.3081
T2
X6.8336Y-2.2956
X6.8336Y-2.3956
X6.8336Y-2.4956
X6.8336Y-2.5956
X6.8336Y-2.6956
X6.8336Y-2.7956
X6.8336Y-2.8956
X6.8336Y-2.9956
X6.8336Y-3.0956
X6.8336Y-3.1956
X6.8336Y-3.2956
X6.8336Y-3.3956
X6.8336Y-3.4956
X6.8336Y-3.5956
X6.8336Y-3.6956
X6.8336Y-3.7956
X6.8336Y-3.8956
X6.8336Y-3.9956
X6.8336Y-4.0956
X6.8336Y-4.1956
X6.9266Y-2.2956
X6.9266Y-2.3956
X6.9266Y-2.4956
X6.9266Y-2.5956
X6.9266Y-2.6956
X6.9266Y-2.7956
X6.9266Y-2.8956
X6.9266Y-2.9956
X6.9266Y-3.0956
X6.9266Y-3.1956
X6.9266Y-3.2956
X6.9266Y-3.3956
X6.9266Y-3.4956
X6.9266Y-3.5956
X6.9266Y-3.6956
X6.9266Y-3.7956
X6.9266Y-3.8956
X6.9266Y-3.9956
X6.9266Y-4.0956
X6.9266Y-4.1956
T3
X7.08Y-3.84
X7.08Y-4.44
X7.18Y-3.84
X7.184Y-4.44
X7.28Y-4.44
X7.38Y-4.44
X7.48Y-4.44
X8.78Y-3.98
X8.78Y-4.08
X8.78Y-4.18
X8.88Y-3.98
X8.88Y-4.08
X8.88Y-4.18
X8.888Y-3.202
X8.888Y-3.302
X8.888Y-3.402
X8.888Y-3.502
X8.888Y-3.602
X8.888Y-3.702
X8.51Y-2.03
X8.61Y-2.03
X8.46Y-3.198
X8.46Y-3.298
X8.46Y-3.398
X8.46Y-3.498
X7.12Y-2.8
X7.12Y-2.9
X7.12Y-3.0
X7.12Y-3.1
X7.12Y-3.2
X7.22Y-2.8
X7.22Y-2.9
X7.22Y-3.0
X7.22Y-3.1
X7.22Y-3.2
T4
X8.6Y-2.36
X8.6Y-2.5254
X8.8165Y-2.36
X8.8165Y-2.5254
X8.6Y-2.8
X8.6Y-2.9654
X8.8165Y-2.8
X8.8165Y-2.9654
T5
X7.46Y-2.29
X7.46Y-3.09
X7.76Y-2.29
X7.86Y-3.09
X7.96Y-2.29
X8.26Y-3.09
T6
X6.8817Y-2.0992
X6.8817Y-4.3827
X8.8109Y-2.0992
X8.8109Y-4.3827
T0
M30
