%TF.GenerationSoftware,KiCad,Pcbnew,(5.1.6)-1*%
%TF.CreationDate,2021-04-27T14:55:35-04:00*%
%TF.ProjectId,Logic,4c6f6769-632e-46b6-9963-61645f706362,rev?*%
%TF.SameCoordinates,Original*%
%TF.FileFunction,Soldermask,Bot*%
%TF.FilePolarity,Negative*%
%FSLAX46Y46*%
G04 Gerber Fmt 4.6, Leading zero omitted, Abs format (unit mm)*
G04 Created by KiCad (PCBNEW (5.1.6)-1) date 2021-04-27 14:55:35*
%MOMM*%
%LPD*%
G01*
G04 APERTURE LIST*
%ADD10C,1.300000*%
%ADD11C,5.100000*%
%ADD12R,2.350000X2.350000*%
%ADD13C,2.350000*%
%ADD14R,1.344600X0.963600*%
%ADD15C,2.900000*%
%ADD16R,2.900000X2.900000*%
%ADD17R,1.800000X1.800000*%
%ADD18O,1.800000X1.800000*%
%ADD19R,0.963600X1.344600*%
%ADD20C,1.800000*%
G04 APERTURE END LIST*
D10*
%TO.C,U6*%
X173573800Y-96408800D03*
X173573800Y-86248800D03*
X175935800Y-81168800D03*
X175935800Y-106568800D03*
X175935800Y-104028800D03*
X173573800Y-91328800D03*
X173573800Y-93868800D03*
X175935800Y-86248800D03*
X173573800Y-83708800D03*
X175935800Y-83708800D03*
X173573800Y-81168800D03*
X173573800Y-106568800D03*
X175935800Y-93868800D03*
X175935800Y-101488800D03*
X173573800Y-78628800D03*
X175935800Y-91328800D03*
X173573800Y-104028800D03*
X173573800Y-98948800D03*
X175935800Y-98948800D03*
X173573800Y-88788800D03*
X175935800Y-96408800D03*
X173573800Y-101488800D03*
X175935800Y-88788800D03*
X175935800Y-71008800D03*
D11*
X223795800Y-53320800D03*
D10*
X173573800Y-58308800D03*
X173573800Y-60848800D03*
X175935800Y-58308800D03*
X175935800Y-73548800D03*
X175935800Y-68468800D03*
X173573800Y-73548800D03*
D11*
X223795800Y-111320800D03*
D10*
X175935800Y-78628800D03*
D11*
X174795800Y-111320800D03*
D10*
X173573800Y-63388800D03*
X175935800Y-65928800D03*
X173573800Y-68468800D03*
X173573800Y-65928800D03*
D11*
X174795800Y-53320800D03*
D10*
X173573800Y-71008800D03*
X175935800Y-60848800D03*
X175935800Y-63388800D03*
X175935800Y-76088800D03*
X173573800Y-76088800D03*
%TD*%
D12*
%TO.C,U4*%
X197104000Y-58166000D03*
D13*
X202184000Y-58166000D03*
X209804000Y-78486000D03*
X189484000Y-78486000D03*
X189484000Y-58166000D03*
X199644000Y-78486000D03*
%TD*%
%TO.C,C4*%
G36*
G01*
X214727262Y-105264000D02*
X213770738Y-105264000D01*
G75*
G02*
X213499000Y-104992262I0J271738D01*
G01*
X213499000Y-104285738D01*
G75*
G02*
X213770738Y-104014000I271738J0D01*
G01*
X214727262Y-104014000D01*
G75*
G02*
X214999000Y-104285738I0J-271738D01*
G01*
X214999000Y-104992262D01*
G75*
G02*
X214727262Y-105264000I-271738J0D01*
G01*
G37*
G36*
G01*
X214727262Y-107314000D02*
X213770738Y-107314000D01*
G75*
G02*
X213499000Y-107042262I0J271738D01*
G01*
X213499000Y-106335738D01*
G75*
G02*
X213770738Y-106064000I271738J0D01*
G01*
X214727262Y-106064000D01*
G75*
G02*
X214999000Y-106335738I0J-271738D01*
G01*
X214999000Y-107042262D01*
G75*
G02*
X214727262Y-107314000I-271738J0D01*
G01*
G37*
%TD*%
%TO.C,C1*%
G36*
G01*
X200630262Y-100710000D02*
X199673738Y-100710000D01*
G75*
G02*
X199402000Y-100438262I0J271738D01*
G01*
X199402000Y-99731738D01*
G75*
G02*
X199673738Y-99460000I271738J0D01*
G01*
X200630262Y-99460000D01*
G75*
G02*
X200902000Y-99731738I0J-271738D01*
G01*
X200902000Y-100438262D01*
G75*
G02*
X200630262Y-100710000I-271738J0D01*
G01*
G37*
G36*
G01*
X200630262Y-98660000D02*
X199673738Y-98660000D01*
G75*
G02*
X199402000Y-98388262I0J271738D01*
G01*
X199402000Y-97681738D01*
G75*
G02*
X199673738Y-97410000I271738J0D01*
G01*
X200630262Y-97410000D01*
G75*
G02*
X200902000Y-97681738I0J-271738D01*
G01*
X200902000Y-98388262D01*
G75*
G02*
X200630262Y-98660000I-271738J0D01*
G01*
G37*
%TD*%
D14*
%TO.C,D2*%
X180136800Y-43497500D03*
X180136800Y-41440100D03*
%TD*%
%TO.C,D3*%
X176034700Y-41465500D03*
X176034700Y-43522900D03*
%TD*%
%TO.C,D7*%
X218567000Y-41523920D03*
X218567000Y-43581320D03*
%TD*%
%TO.C,D8*%
X222224600Y-43581320D03*
X222224600Y-41523920D03*
%TD*%
%TO.C,D1*%
X184764680Y-41523920D03*
X184764680Y-43581320D03*
%TD*%
D15*
%TO.C,J1*%
X223940000Y-64144000D03*
X223940000Y-59944000D03*
X218440000Y-64144000D03*
D16*
X218440000Y-59944000D03*
%TD*%
%TO.C,J4*%
X218440000Y-71120000D03*
D15*
X218440000Y-75320000D03*
X223940000Y-71120000D03*
X223940000Y-75320000D03*
%TD*%
D17*
%TO.C,J5*%
X225755200Y-94030800D03*
D18*
X225755200Y-91490800D03*
X225755200Y-88950800D03*
X225755200Y-86410800D03*
X225755200Y-83870800D03*
X225755200Y-81330800D03*
%TD*%
%TO.C,L1*%
G36*
G01*
X210821000Y-102840262D02*
X210821000Y-101883738D01*
G75*
G02*
X211092738Y-101612000I271738J0D01*
G01*
X211799262Y-101612000D01*
G75*
G02*
X212071000Y-101883738I0J-271738D01*
G01*
X212071000Y-102840262D01*
G75*
G02*
X211799262Y-103112000I-271738J0D01*
G01*
X211092738Y-103112000D01*
G75*
G02*
X210821000Y-102840262I0J271738D01*
G01*
G37*
G36*
G01*
X212871000Y-102840262D02*
X212871000Y-101883738D01*
G75*
G02*
X213142738Y-101612000I271738J0D01*
G01*
X213849262Y-101612000D01*
G75*
G02*
X214121000Y-101883738I0J-271738D01*
G01*
X214121000Y-102840262D01*
G75*
G02*
X213849262Y-103112000I-271738J0D01*
G01*
X213142738Y-103112000D01*
G75*
G02*
X212871000Y-102840262I0J271738D01*
G01*
G37*
%TD*%
%TO.C,R5*%
G36*
G01*
X180615062Y-45955000D02*
X179658538Y-45955000D01*
G75*
G02*
X179386800Y-45683262I0J271738D01*
G01*
X179386800Y-44976738D01*
G75*
G02*
X179658538Y-44705000I271738J0D01*
G01*
X180615062Y-44705000D01*
G75*
G02*
X180886800Y-44976738I0J-271738D01*
G01*
X180886800Y-45683262D01*
G75*
G02*
X180615062Y-45955000I-271738J0D01*
G01*
G37*
G36*
G01*
X180615062Y-48005000D02*
X179658538Y-48005000D01*
G75*
G02*
X179386800Y-47733262I0J271738D01*
G01*
X179386800Y-47026738D01*
G75*
G02*
X179658538Y-46755000I271738J0D01*
G01*
X180615062Y-46755000D01*
G75*
G02*
X180886800Y-47026738I0J-271738D01*
G01*
X180886800Y-47733262D01*
G75*
G02*
X180615062Y-48005000I-271738J0D01*
G01*
G37*
%TD*%
%TO.C,R6*%
G36*
G01*
X176512962Y-48005000D02*
X175556438Y-48005000D01*
G75*
G02*
X175284700Y-47733262I0J271738D01*
G01*
X175284700Y-47026738D01*
G75*
G02*
X175556438Y-46755000I271738J0D01*
G01*
X176512962Y-46755000D01*
G75*
G02*
X176784700Y-47026738I0J-271738D01*
G01*
X176784700Y-47733262D01*
G75*
G02*
X176512962Y-48005000I-271738J0D01*
G01*
G37*
G36*
G01*
X176512962Y-45955000D02*
X175556438Y-45955000D01*
G75*
G02*
X175284700Y-45683262I0J271738D01*
G01*
X175284700Y-44976738D01*
G75*
G02*
X175556438Y-44705000I271738J0D01*
G01*
X176512962Y-44705000D01*
G75*
G02*
X176784700Y-44976738I0J-271738D01*
G01*
X176784700Y-45683262D01*
G75*
G02*
X176512962Y-45955000I-271738J0D01*
G01*
G37*
%TD*%
%TO.C,R13*%
G36*
G01*
X219035102Y-48005000D02*
X218078578Y-48005000D01*
G75*
G02*
X217806840Y-47733262I0J271738D01*
G01*
X217806840Y-47026738D01*
G75*
G02*
X218078578Y-46755000I271738J0D01*
G01*
X219035102Y-46755000D01*
G75*
G02*
X219306840Y-47026738I0J-271738D01*
G01*
X219306840Y-47733262D01*
G75*
G02*
X219035102Y-48005000I-271738J0D01*
G01*
G37*
G36*
G01*
X219035102Y-45955000D02*
X218078578Y-45955000D01*
G75*
G02*
X217806840Y-45683262I0J271738D01*
G01*
X217806840Y-44976738D01*
G75*
G02*
X218078578Y-44705000I271738J0D01*
G01*
X219035102Y-44705000D01*
G75*
G02*
X219306840Y-44976738I0J-271738D01*
G01*
X219306840Y-45683262D01*
G75*
G02*
X219035102Y-45955000I-271738J0D01*
G01*
G37*
%TD*%
%TO.C,R15*%
G36*
G01*
X222702862Y-45955000D02*
X221746338Y-45955000D01*
G75*
G02*
X221474600Y-45683262I0J271738D01*
G01*
X221474600Y-44976738D01*
G75*
G02*
X221746338Y-44705000I271738J0D01*
G01*
X222702862Y-44705000D01*
G75*
G02*
X222974600Y-44976738I0J-271738D01*
G01*
X222974600Y-45683262D01*
G75*
G02*
X222702862Y-45955000I-271738J0D01*
G01*
G37*
G36*
G01*
X222702862Y-48005000D02*
X221746338Y-48005000D01*
G75*
G02*
X221474600Y-47733262I0J271738D01*
G01*
X221474600Y-47026738D01*
G75*
G02*
X221746338Y-46755000I271738J0D01*
G01*
X222702862Y-46755000D01*
G75*
G02*
X222974600Y-47026738I0J-271738D01*
G01*
X222974600Y-47733262D01*
G75*
G02*
X222702862Y-48005000I-271738J0D01*
G01*
G37*
%TD*%
%TO.C,R16*%
G36*
G01*
X185242942Y-45955000D02*
X184286418Y-45955000D01*
G75*
G02*
X184014680Y-45683262I0J271738D01*
G01*
X184014680Y-44976738D01*
G75*
G02*
X184286418Y-44705000I271738J0D01*
G01*
X185242942Y-44705000D01*
G75*
G02*
X185514680Y-44976738I0J-271738D01*
G01*
X185514680Y-45683262D01*
G75*
G02*
X185242942Y-45955000I-271738J0D01*
G01*
G37*
G36*
G01*
X185242942Y-48005000D02*
X184286418Y-48005000D01*
G75*
G02*
X184014680Y-47733262I0J271738D01*
G01*
X184014680Y-47026738D01*
G75*
G02*
X184286418Y-46755000I271738J0D01*
G01*
X185242942Y-46755000D01*
G75*
G02*
X185514680Y-47026738I0J-271738D01*
G01*
X185514680Y-47733262D01*
G75*
G02*
X185242942Y-48005000I-271738J0D01*
G01*
G37*
%TD*%
D17*
%TO.C,J2*%
X214884000Y-81229200D03*
D18*
X214884000Y-83769200D03*
X214884000Y-86309200D03*
X214884000Y-88849200D03*
%TD*%
%TO.C,R8*%
G36*
G01*
X194048000Y-106853462D02*
X194048000Y-105896938D01*
G75*
G02*
X194319738Y-105625200I271738J0D01*
G01*
X195026262Y-105625200D01*
G75*
G02*
X195298000Y-105896938I0J-271738D01*
G01*
X195298000Y-106853462D01*
G75*
G02*
X195026262Y-107125200I-271738J0D01*
G01*
X194319738Y-107125200D01*
G75*
G02*
X194048000Y-106853462I0J271738D01*
G01*
G37*
G36*
G01*
X196098000Y-106853462D02*
X196098000Y-105896938D01*
G75*
G02*
X196369738Y-105625200I271738J0D01*
G01*
X197076262Y-105625200D01*
G75*
G02*
X197348000Y-105896938I0J-271738D01*
G01*
X197348000Y-106853462D01*
G75*
G02*
X197076262Y-107125200I-271738J0D01*
G01*
X196369738Y-107125200D01*
G75*
G02*
X196098000Y-106853462I0J271738D01*
G01*
G37*
%TD*%
%TO.C,R9*%
G36*
G01*
X194048000Y-109368062D02*
X194048000Y-108411538D01*
G75*
G02*
X194319738Y-108139800I271738J0D01*
G01*
X195026262Y-108139800D01*
G75*
G02*
X195298000Y-108411538I0J-271738D01*
G01*
X195298000Y-109368062D01*
G75*
G02*
X195026262Y-109639800I-271738J0D01*
G01*
X194319738Y-109639800D01*
G75*
G02*
X194048000Y-109368062I0J271738D01*
G01*
G37*
G36*
G01*
X196098000Y-109368062D02*
X196098000Y-108411538D01*
G75*
G02*
X196369738Y-108139800I271738J0D01*
G01*
X197076262Y-108139800D01*
G75*
G02*
X197348000Y-108411538I0J-271738D01*
G01*
X197348000Y-109368062D01*
G75*
G02*
X197076262Y-109639800I-271738J0D01*
G01*
X196369738Y-109639800D01*
G75*
G02*
X196098000Y-109368062I0J271738D01*
G01*
G37*
%TD*%
%TO.C,R11*%
G36*
G01*
X196098000Y-112568462D02*
X196098000Y-111611938D01*
G75*
G02*
X196369738Y-111340200I271738J0D01*
G01*
X197076262Y-111340200D01*
G75*
G02*
X197348000Y-111611938I0J-271738D01*
G01*
X197348000Y-112568462D01*
G75*
G02*
X197076262Y-112840200I-271738J0D01*
G01*
X196369738Y-112840200D01*
G75*
G02*
X196098000Y-112568462I0J271738D01*
G01*
G37*
G36*
G01*
X194048000Y-112568462D02*
X194048000Y-111611938D01*
G75*
G02*
X194319738Y-111340200I271738J0D01*
G01*
X195026262Y-111340200D01*
G75*
G02*
X195298000Y-111611938I0J-271738D01*
G01*
X195298000Y-112568462D01*
G75*
G02*
X195026262Y-112840200I-271738J0D01*
G01*
X194319738Y-112840200D01*
G75*
G02*
X194048000Y-112568462I0J271738D01*
G01*
G37*
%TD*%
D19*
%TO.C,D4*%
X200977500Y-106375200D03*
X198920100Y-106375200D03*
%TD*%
%TO.C,D5*%
X200977500Y-108889800D03*
X198920100Y-108889800D03*
%TD*%
%TO.C,D6*%
X198920100Y-112090200D03*
X200977500Y-112090200D03*
%TD*%
D20*
%TO.C,U10*%
X182473600Y-112776000D03*
X184912000Y-112776000D03*
X187452000Y-112776000D03*
X189992000Y-112776000D03*
X179832000Y-112776000D03*
X179832000Y-97536000D03*
X182372000Y-97536000D03*
%TD*%
D17*
%TO.C,J3*%
X180848000Y-71120000D03*
D18*
X183388000Y-71120000D03*
X180848000Y-73660000D03*
X183388000Y-73660000D03*
X180848000Y-76200000D03*
X183388000Y-76200000D03*
X180848000Y-78740000D03*
X183388000Y-78740000D03*
X180848000Y-81280000D03*
X183388000Y-81280000D03*
%TD*%
D17*
%TO.C,J6*%
X216154000Y-51562000D03*
D18*
X218694000Y-51562000D03*
%TD*%
%TO.C,R7*%
G36*
G01*
X215529000Y-55443862D02*
X215529000Y-54487338D01*
G75*
G02*
X215800738Y-54215600I271738J0D01*
G01*
X216507262Y-54215600D01*
G75*
G02*
X216779000Y-54487338I0J-271738D01*
G01*
X216779000Y-55443862D01*
G75*
G02*
X216507262Y-55715600I-271738J0D01*
G01*
X215800738Y-55715600D01*
G75*
G02*
X215529000Y-55443862I0J271738D01*
G01*
G37*
G36*
G01*
X217579000Y-55443862D02*
X217579000Y-54487338D01*
G75*
G02*
X217850738Y-54215600I271738J0D01*
G01*
X218557262Y-54215600D01*
G75*
G02*
X218829000Y-54487338I0J-271738D01*
G01*
X218829000Y-55443862D01*
G75*
G02*
X218557262Y-55715600I-271738J0D01*
G01*
X217850738Y-55715600D01*
G75*
G02*
X217579000Y-55443862I0J271738D01*
G01*
G37*
%TD*%
D17*
%TO.C,U11*%
X225552000Y-106172000D03*
D18*
X223012000Y-106172000D03*
X225552000Y-103632000D03*
X223012000Y-103632000D03*
X225552000Y-101092000D03*
X223012000Y-101092000D03*
%TD*%
M02*
