%TF.GenerationSoftware,KiCad,Pcbnew,(5.1.6)-1*%
%TF.CreationDate,2021-04-27T14:55:35-04:00*%
%TF.ProjectId,Logic,4c6f6769-632e-46b6-9963-61645f706362,rev?*%
%TF.SameCoordinates,Original*%
%TF.FileFunction,Legend,Bot*%
%TF.FilePolarity,Positive*%
%FSLAX46Y46*%
G04 Gerber Fmt 4.6, Leading zero omitted, Abs format (unit mm)*
G04 Created by KiCad (PCBNEW (5.1.6)-1) date 2021-04-27 14:55:35*
%MOMM*%
%LPD*%
G01*
G04 APERTURE LIST*
%ADD10C,0.250000*%
%ADD11C,0.150000*%
%ADD12C,0.127000*%
%ADD13C,0.400000*%
%ADD14C,0.120000*%
%ADD15C,0.152400*%
G04 APERTURE END LIST*
D10*
X225637380Y-42021523D02*
X224637380Y-42021523D01*
X225637380Y-42592952D01*
X224637380Y-42592952D01*
X224637380Y-43259619D02*
X224637380Y-43450095D01*
X224685000Y-43545333D01*
X224780238Y-43640571D01*
X224970714Y-43688190D01*
X225304047Y-43688190D01*
X225494523Y-43640571D01*
X225589761Y-43545333D01*
X225637380Y-43450095D01*
X225637380Y-43259619D01*
X225589761Y-43164380D01*
X225494523Y-43069142D01*
X225304047Y-43021523D01*
X224970714Y-43021523D01*
X224780238Y-43069142D01*
X224685000Y-43164380D01*
X224637380Y-43259619D01*
X225637380Y-44116761D02*
X224637380Y-44116761D01*
X225637380Y-44688190D01*
X224637380Y-44688190D01*
X225256428Y-45164380D02*
X225256428Y-45926285D01*
X225637380Y-46402476D02*
X224637380Y-46402476D01*
X225589761Y-46831047D02*
X225637380Y-46973904D01*
X225637380Y-47212000D01*
X225589761Y-47307238D01*
X225542142Y-47354857D01*
X225446904Y-47402476D01*
X225351666Y-47402476D01*
X225256428Y-47354857D01*
X225208809Y-47307238D01*
X225161190Y-47212000D01*
X225113571Y-47021523D01*
X225065952Y-46926285D01*
X225018333Y-46878666D01*
X224923095Y-46831047D01*
X224827857Y-46831047D01*
X224732619Y-46878666D01*
X224685000Y-46926285D01*
X224637380Y-47021523D01*
X224637380Y-47259619D01*
X224685000Y-47402476D01*
X224637380Y-48021523D02*
X224637380Y-48212000D01*
X224685000Y-48307238D01*
X224780238Y-48402476D01*
X224970714Y-48450095D01*
X225304047Y-48450095D01*
X225494523Y-48402476D01*
X225589761Y-48307238D01*
X225637380Y-48212000D01*
X225637380Y-48021523D01*
X225589761Y-47926285D01*
X225494523Y-47831047D01*
X225304047Y-47783428D01*
X224970714Y-47783428D01*
X224780238Y-47831047D01*
X224685000Y-47926285D01*
X224637380Y-48021523D01*
X227339761Y-40116761D02*
X227387380Y-40259619D01*
X227387380Y-40497714D01*
X227339761Y-40592952D01*
X227292142Y-40640571D01*
X227196904Y-40688190D01*
X227101666Y-40688190D01*
X227006428Y-40640571D01*
X226958809Y-40592952D01*
X226911190Y-40497714D01*
X226863571Y-40307238D01*
X226815952Y-40212000D01*
X226768333Y-40164380D01*
X226673095Y-40116761D01*
X226577857Y-40116761D01*
X226482619Y-40164380D01*
X226435000Y-40212000D01*
X226387380Y-40307238D01*
X226387380Y-40545333D01*
X226435000Y-40688190D01*
X226387380Y-40973904D02*
X226387380Y-41545333D01*
X227387380Y-41259619D02*
X226387380Y-41259619D01*
X227101666Y-41831047D02*
X227101666Y-42307238D01*
X227387380Y-41735809D02*
X226387380Y-42069142D01*
X227387380Y-42402476D01*
X226387380Y-42592952D02*
X226387380Y-43164380D01*
X227387380Y-42878666D02*
X226387380Y-42878666D01*
X226387380Y-43497714D02*
X227196904Y-43497714D01*
X227292142Y-43545333D01*
X227339761Y-43592952D01*
X227387380Y-43688190D01*
X227387380Y-43878666D01*
X227339761Y-43973904D01*
X227292142Y-44021523D01*
X227196904Y-44069142D01*
X226387380Y-44069142D01*
X227339761Y-44497714D02*
X227387380Y-44640571D01*
X227387380Y-44878666D01*
X227339761Y-44973904D01*
X227292142Y-45021523D01*
X227196904Y-45069142D01*
X227101666Y-45069142D01*
X227006428Y-45021523D01*
X226958809Y-44973904D01*
X226911190Y-44878666D01*
X226863571Y-44688190D01*
X226815952Y-44592952D01*
X226768333Y-44545333D01*
X226673095Y-44497714D01*
X226577857Y-44497714D01*
X226482619Y-44545333D01*
X226435000Y-44592952D01*
X226387380Y-44688190D01*
X226387380Y-44926285D01*
X226435000Y-45069142D01*
X227387380Y-46735809D02*
X227387380Y-46259619D01*
X226387380Y-46259619D01*
X226863571Y-47069142D02*
X226863571Y-47402476D01*
X227387380Y-47545333D02*
X227387380Y-47069142D01*
X226387380Y-47069142D01*
X226387380Y-47545333D01*
X227387380Y-47973904D02*
X226387380Y-47973904D01*
X226387380Y-48212000D01*
X226435000Y-48354857D01*
X226530238Y-48450095D01*
X226625476Y-48497714D01*
X226815952Y-48545333D01*
X226958809Y-48545333D01*
X227149285Y-48497714D01*
X227244523Y-48450095D01*
X227339761Y-48354857D01*
X227387380Y-48212000D01*
X227387380Y-47973904D01*
X227339761Y-48926285D02*
X227387380Y-49069142D01*
X227387380Y-49307238D01*
X227339761Y-49402476D01*
X227292142Y-49450095D01*
X227196904Y-49497714D01*
X227101666Y-49497714D01*
X227006428Y-49450095D01*
X226958809Y-49402476D01*
X226911190Y-49307238D01*
X226863571Y-49116761D01*
X226815952Y-49021523D01*
X226768333Y-48973904D01*
X226673095Y-48926285D01*
X226577857Y-48926285D01*
X226482619Y-48973904D01*
X226435000Y-49021523D01*
X226387380Y-49116761D01*
X226387380Y-49354857D01*
X226435000Y-49497714D01*
X227339761Y-49878666D02*
X227387380Y-49973904D01*
X227387380Y-50164380D01*
X227339761Y-50259619D01*
X227244523Y-50307238D01*
X227196904Y-50307238D01*
X227101666Y-50259619D01*
X227054047Y-50164380D01*
X227054047Y-50021523D01*
X227006428Y-49926285D01*
X226911190Y-49878666D01*
X226863571Y-49878666D01*
X226768333Y-49926285D01*
X226720714Y-50021523D01*
X226720714Y-50164380D01*
X226768333Y-50259619D01*
X212351428Y-104544761D02*
X212208571Y-104592380D01*
X211970476Y-104592380D01*
X211875238Y-104544761D01*
X211827619Y-104497142D01*
X211780000Y-104401904D01*
X211780000Y-104306666D01*
X211827619Y-104211428D01*
X211875238Y-104163809D01*
X211970476Y-104116190D01*
X212160952Y-104068571D01*
X212256190Y-104020952D01*
X212303809Y-103973333D01*
X212351428Y-103878095D01*
X212351428Y-103782857D01*
X212303809Y-103687619D01*
X212256190Y-103640000D01*
X212160952Y-103592380D01*
X211922857Y-103592380D01*
X211780000Y-103640000D01*
X211494285Y-103592380D02*
X210922857Y-103592380D01*
X211208571Y-104592380D02*
X211208571Y-103592380D01*
X210637142Y-104306666D02*
X210160952Y-104306666D01*
X210732380Y-104592380D02*
X210399047Y-103592380D01*
X210065714Y-104592380D01*
X209875238Y-103592380D02*
X209303809Y-103592380D01*
X209589523Y-104592380D02*
X209589523Y-103592380D01*
X208970476Y-104068571D02*
X208637142Y-104068571D01*
X208494285Y-104592380D02*
X208970476Y-104592380D01*
X208970476Y-103592380D01*
X208494285Y-103592380D01*
X206827619Y-104592380D02*
X207303809Y-104592380D01*
X207303809Y-103592380D01*
X206494285Y-104068571D02*
X206160952Y-104068571D01*
X206018095Y-104592380D02*
X206494285Y-104592380D01*
X206494285Y-103592380D01*
X206018095Y-103592380D01*
X205589523Y-104592380D02*
X205589523Y-103592380D01*
X205351428Y-103592380D01*
X205208571Y-103640000D01*
X205113333Y-103735238D01*
X205065714Y-103830476D01*
X205018095Y-104020952D01*
X205018095Y-104163809D01*
X205065714Y-104354285D01*
X205113333Y-104449523D01*
X205208571Y-104544761D01*
X205351428Y-104592380D01*
X205589523Y-104592380D01*
X204637142Y-104544761D02*
X204541904Y-104592380D01*
X204351428Y-104592380D01*
X204256190Y-104544761D01*
X204208571Y-104449523D01*
X204208571Y-104401904D01*
X204256190Y-104306666D01*
X204351428Y-104259047D01*
X204494285Y-104259047D01*
X204589523Y-104211428D01*
X204637142Y-104116190D01*
X204637142Y-104068571D01*
X204589523Y-103973333D01*
X204494285Y-103925714D01*
X204351428Y-103925714D01*
X204256190Y-103973333D01*
X172156380Y-39839047D02*
X171156380Y-39839047D01*
X172108761Y-40267619D02*
X172156380Y-40410476D01*
X172156380Y-40648571D01*
X172108761Y-40743809D01*
X172061142Y-40791428D01*
X171965904Y-40839047D01*
X171870666Y-40839047D01*
X171775428Y-40791428D01*
X171727809Y-40743809D01*
X171680190Y-40648571D01*
X171632571Y-40458095D01*
X171584952Y-40362857D01*
X171537333Y-40315238D01*
X171442095Y-40267619D01*
X171346857Y-40267619D01*
X171251619Y-40315238D01*
X171204000Y-40362857D01*
X171156380Y-40458095D01*
X171156380Y-40696190D01*
X171204000Y-40839047D01*
X171156380Y-41458095D02*
X171156380Y-41648571D01*
X171204000Y-41743809D01*
X171299238Y-41839047D01*
X171489714Y-41886666D01*
X171823047Y-41886666D01*
X172013523Y-41839047D01*
X172108761Y-41743809D01*
X172156380Y-41648571D01*
X172156380Y-41458095D01*
X172108761Y-41362857D01*
X172013523Y-41267619D01*
X171823047Y-41220000D01*
X171489714Y-41220000D01*
X171299238Y-41267619D01*
X171204000Y-41362857D01*
X171156380Y-41458095D01*
X172108761Y-43029523D02*
X172156380Y-43172380D01*
X172156380Y-43410476D01*
X172108761Y-43505714D01*
X172061142Y-43553333D01*
X171965904Y-43600952D01*
X171870666Y-43600952D01*
X171775428Y-43553333D01*
X171727809Y-43505714D01*
X171680190Y-43410476D01*
X171632571Y-43220000D01*
X171584952Y-43124761D01*
X171537333Y-43077142D01*
X171442095Y-43029523D01*
X171346857Y-43029523D01*
X171251619Y-43077142D01*
X171204000Y-43124761D01*
X171156380Y-43220000D01*
X171156380Y-43458095D01*
X171204000Y-43600952D01*
X171489714Y-43886666D02*
X171489714Y-44267619D01*
X171156380Y-44029523D02*
X172013523Y-44029523D01*
X172108761Y-44077142D01*
X172156380Y-44172380D01*
X172156380Y-44267619D01*
X172156380Y-45029523D02*
X171632571Y-45029523D01*
X171537333Y-44981904D01*
X171489714Y-44886666D01*
X171489714Y-44696190D01*
X171537333Y-44600952D01*
X172108761Y-45029523D02*
X172156380Y-44934285D01*
X172156380Y-44696190D01*
X172108761Y-44600952D01*
X172013523Y-44553333D01*
X171918285Y-44553333D01*
X171823047Y-44600952D01*
X171775428Y-44696190D01*
X171775428Y-44934285D01*
X171727809Y-45029523D01*
X171489714Y-45362857D02*
X171489714Y-45743809D01*
X171156380Y-45505714D02*
X172013523Y-45505714D01*
X172108761Y-45553333D01*
X172156380Y-45648571D01*
X172156380Y-45743809D01*
X171489714Y-46505714D02*
X172156380Y-46505714D01*
X171489714Y-46077142D02*
X172013523Y-46077142D01*
X172108761Y-46124761D01*
X172156380Y-46220000D01*
X172156380Y-46362857D01*
X172108761Y-46458095D01*
X172061142Y-46505714D01*
X172108761Y-46934285D02*
X172156380Y-47029523D01*
X172156380Y-47220000D01*
X172108761Y-47315238D01*
X172013523Y-47362857D01*
X171965904Y-47362857D01*
X171870666Y-47315238D01*
X171823047Y-47220000D01*
X171823047Y-47077142D01*
X171775428Y-46981904D01*
X171680190Y-46934285D01*
X171632571Y-46934285D01*
X171537333Y-46981904D01*
X171489714Y-47077142D01*
X171489714Y-47220000D01*
X171537333Y-47315238D01*
X172156380Y-49029523D02*
X172156380Y-48553333D01*
X171156380Y-48553333D01*
X171632571Y-49362857D02*
X171632571Y-49696190D01*
X172156380Y-49839047D02*
X172156380Y-49362857D01*
X171156380Y-49362857D01*
X171156380Y-49839047D01*
X172156380Y-50267619D02*
X171156380Y-50267619D01*
X171156380Y-50505714D01*
X171204000Y-50648571D01*
X171299238Y-50743809D01*
X171394476Y-50791428D01*
X171584952Y-50839047D01*
X171727809Y-50839047D01*
X171918285Y-50791428D01*
X172013523Y-50743809D01*
X172108761Y-50648571D01*
X172156380Y-50505714D01*
X172156380Y-50267619D01*
X172108761Y-51220000D02*
X172156380Y-51315238D01*
X172156380Y-51505714D01*
X172108761Y-51600952D01*
X172013523Y-51648571D01*
X171965904Y-51648571D01*
X171870666Y-51600952D01*
X171823047Y-51505714D01*
X171823047Y-51362857D01*
X171775428Y-51267619D01*
X171680190Y-51220000D01*
X171632571Y-51220000D01*
X171537333Y-51267619D01*
X171489714Y-51362857D01*
X171489714Y-51505714D01*
X171537333Y-51600952D01*
D11*
X183368580Y-93737180D02*
X183368580Y-94546704D01*
X183320961Y-94641942D01*
X183273342Y-94689561D01*
X183178104Y-94737180D01*
X182987628Y-94737180D01*
X182892390Y-94689561D01*
X182844771Y-94641942D01*
X182797152Y-94546704D01*
X182797152Y-93737180D01*
X181797152Y-94737180D02*
X182368580Y-94737180D01*
X182082866Y-94737180D02*
X182082866Y-93737180D01*
X182178104Y-93880038D01*
X182273342Y-93975276D01*
X182368580Y-94022895D01*
X181178104Y-93737180D02*
X181082866Y-93737180D01*
X180987628Y-93784800D01*
X180940009Y-93832419D01*
X180892390Y-93927657D01*
X180844771Y-94118133D01*
X180844771Y-94356228D01*
X180892390Y-94546704D01*
X180940009Y-94641942D01*
X180987628Y-94689561D01*
X181082866Y-94737180D01*
X181178104Y-94737180D01*
X181273342Y-94689561D01*
X181320961Y-94641942D01*
X181368580Y-94546704D01*
X181416200Y-94356228D01*
X181416200Y-94118133D01*
X181368580Y-93927657D01*
X181320961Y-93832419D01*
X181273342Y-93784800D01*
X181178104Y-93737180D01*
X179654295Y-94737180D02*
X179654295Y-93737180D01*
X179178104Y-94737180D02*
X179178104Y-93737180D01*
X178844771Y-94451466D01*
X178511438Y-93737180D01*
X178511438Y-94737180D01*
X178035247Y-93737180D02*
X178035247Y-94546704D01*
X177987628Y-94641942D01*
X177940009Y-94689561D01*
X177844771Y-94737180D01*
X177654295Y-94737180D01*
X177559057Y-94689561D01*
X177511438Y-94641942D01*
X177463819Y-94546704D01*
X177463819Y-93737180D01*
X227549085Y-98268285D02*
X227549085Y-98875428D01*
X227513371Y-98946857D01*
X227477657Y-98982571D01*
X227406228Y-99018285D01*
X227263371Y-99018285D01*
X227191942Y-98982571D01*
X227156228Y-98946857D01*
X227120514Y-98875428D01*
X227120514Y-98268285D01*
X226370514Y-99018285D02*
X226799085Y-99018285D01*
X226584800Y-99018285D02*
X226584800Y-98268285D01*
X226656228Y-98375428D01*
X226727657Y-98446857D01*
X226799085Y-98482571D01*
X225656228Y-99018285D02*
X226084800Y-99018285D01*
X225870514Y-99018285D02*
X225870514Y-98268285D01*
X225941942Y-98375428D01*
X226013371Y-98446857D01*
X226084800Y-98482571D01*
X224763371Y-99018285D02*
X224763371Y-98268285D01*
X224477657Y-98268285D01*
X224406228Y-98304000D01*
X224370514Y-98339714D01*
X224334800Y-98411142D01*
X224334800Y-98518285D01*
X224370514Y-98589714D01*
X224406228Y-98625428D01*
X224477657Y-98661142D01*
X224763371Y-98661142D01*
X224013371Y-99018285D02*
X224013371Y-98518285D01*
X224013371Y-98268285D02*
X224049085Y-98304000D01*
X224013371Y-98339714D01*
X223977657Y-98304000D01*
X224013371Y-98268285D01*
X224013371Y-98339714D01*
X222656228Y-99018285D02*
X222906228Y-98661142D01*
X223084800Y-99018285D02*
X223084800Y-98268285D01*
X222799085Y-98268285D01*
X222727657Y-98304000D01*
X222691942Y-98339714D01*
X222656228Y-98411142D01*
X222656228Y-98518285D01*
X222691942Y-98589714D01*
X222727657Y-98625428D01*
X222799085Y-98661142D01*
X223084800Y-98661142D01*
X222441942Y-98268285D02*
X222013371Y-98268285D01*
X222227657Y-99018285D02*
X222227657Y-98268285D01*
X221334800Y-98946857D02*
X221370514Y-98982571D01*
X221477657Y-99018285D01*
X221549085Y-99018285D01*
X221656228Y-98982571D01*
X221727657Y-98911142D01*
X221763371Y-98839714D01*
X221799085Y-98696857D01*
X221799085Y-98589714D01*
X221763371Y-98446857D01*
X221727657Y-98375428D01*
X221656228Y-98304000D01*
X221549085Y-98268285D01*
X221477657Y-98268285D01*
X221370514Y-98304000D01*
X221334800Y-98339714D01*
D12*
%TO.C,U4*%
X212344000Y-42926000D02*
X186944000Y-42926000D01*
X186944000Y-42926000D02*
X186944000Y-93726000D01*
X186944000Y-93726000D02*
X212344000Y-93726000D01*
X212344000Y-93726000D02*
X212344000Y-42926000D01*
D13*
X197304000Y-41656000D02*
G75*
G03*
X197304000Y-41656000I-200000J0D01*
G01*
D14*
%TO.C,C4*%
X213539000Y-105925252D02*
X213539000Y-105402748D01*
X214959000Y-105925252D02*
X214959000Y-105402748D01*
%TO.C,C1*%
X200862000Y-99321252D02*
X200862000Y-98798748D01*
X199442000Y-99321252D02*
X199442000Y-98798748D01*
D15*
%TO.C,D2*%
X180213000Y-40170100D02*
G75*
G03*
X180213000Y-40170100I-76200J0D01*
G01*
X179387500Y-42758150D02*
X179387500Y-42179450D01*
X180886100Y-42179450D02*
X180886100Y-42758150D01*
%TO.C,D3*%
X176784000Y-42204850D02*
X176784000Y-42783550D01*
X175285400Y-42783550D02*
X175285400Y-42204850D01*
X176110900Y-40195500D02*
G75*
G03*
X176110900Y-40195500I-76200J0D01*
G01*
%TO.C,D7*%
X219316300Y-42263270D02*
X219316300Y-42841970D01*
X217817700Y-42841970D02*
X217817700Y-42263270D01*
X218643200Y-40253920D02*
G75*
G03*
X218643200Y-40253920I-76200J0D01*
G01*
%TO.C,D8*%
X222300800Y-40253920D02*
G75*
G03*
X222300800Y-40253920I-76200J0D01*
G01*
X221475300Y-42841970D02*
X221475300Y-42263270D01*
X222973900Y-42263270D02*
X222973900Y-42841970D01*
%TO.C,D1*%
X185513980Y-42263270D02*
X185513980Y-42841970D01*
X184015380Y-42841970D02*
X184015380Y-42263270D01*
X184840880Y-40253920D02*
G75*
G03*
X184840880Y-40253920I-76200J0D01*
G01*
D14*
%TO.C,J1*%
X215840000Y-56894000D02*
X218690000Y-56894000D01*
X215840000Y-59744000D02*
X215840000Y-56894000D01*
X227390000Y-63844000D02*
X227390000Y-62044000D01*
X225990000Y-63844000D02*
X227390000Y-63844000D01*
X225990000Y-66944000D02*
X225990000Y-63844000D01*
X216090000Y-66944000D02*
X225990000Y-66944000D01*
X216090000Y-62044000D02*
X216090000Y-66944000D01*
X227390000Y-60244000D02*
X227390000Y-62044000D01*
X225990000Y-60244000D02*
X227390000Y-60244000D01*
X225990000Y-57144000D02*
X225990000Y-60244000D01*
X216090000Y-57144000D02*
X225990000Y-57144000D01*
X216090000Y-62044000D02*
X216090000Y-57144000D01*
%TO.C,J4*%
X216090000Y-73220000D02*
X216090000Y-68320000D01*
X216090000Y-68320000D02*
X225990000Y-68320000D01*
X225990000Y-68320000D02*
X225990000Y-71420000D01*
X225990000Y-71420000D02*
X227390000Y-71420000D01*
X227390000Y-71420000D02*
X227390000Y-73220000D01*
X216090000Y-73220000D02*
X216090000Y-78120000D01*
X216090000Y-78120000D02*
X225990000Y-78120000D01*
X225990000Y-78120000D02*
X225990000Y-75020000D01*
X225990000Y-75020000D02*
X227390000Y-75020000D01*
X227390000Y-75020000D02*
X227390000Y-73220000D01*
X215840000Y-70920000D02*
X215840000Y-68070000D01*
X215840000Y-68070000D02*
X218690000Y-68070000D01*
%TO.C,J5*%
X224425200Y-92760800D02*
X227085200Y-92760800D01*
X224425200Y-92760800D02*
X224425200Y-80000800D01*
X224425200Y-80000800D02*
X227085200Y-80000800D01*
X227085200Y-92760800D02*
X227085200Y-80000800D01*
X227085200Y-95360800D02*
X227085200Y-94030800D01*
X225755200Y-95360800D02*
X227085200Y-95360800D01*
%TO.C,L1*%
X212209748Y-103072000D02*
X212732252Y-103072000D01*
X212209748Y-101652000D02*
X212732252Y-101652000D01*
%TO.C,R5*%
X179426800Y-46616252D02*
X179426800Y-46093748D01*
X180846800Y-46616252D02*
X180846800Y-46093748D01*
%TO.C,R6*%
X176744700Y-46616252D02*
X176744700Y-46093748D01*
X175324700Y-46616252D02*
X175324700Y-46093748D01*
%TO.C,R13*%
X219266840Y-46616252D02*
X219266840Y-46093748D01*
X217846840Y-46616252D02*
X217846840Y-46093748D01*
%TO.C,R15*%
X221514600Y-46616252D02*
X221514600Y-46093748D01*
X222934600Y-46616252D02*
X222934600Y-46093748D01*
%TO.C,R16*%
X184054680Y-46616252D02*
X184054680Y-46093748D01*
X185474680Y-46616252D02*
X185474680Y-46093748D01*
%TO.C,J2*%
X216214000Y-82499200D02*
X213554000Y-82499200D01*
X216214000Y-82499200D02*
X216214000Y-90179200D01*
X216214000Y-90179200D02*
X213554000Y-90179200D01*
X213554000Y-82499200D02*
X213554000Y-90179200D01*
X213554000Y-79899200D02*
X213554000Y-81229200D01*
X214884000Y-79899200D02*
X213554000Y-79899200D01*
%TO.C,R8*%
X195436748Y-107085200D02*
X195959252Y-107085200D01*
X195436748Y-105665200D02*
X195959252Y-105665200D01*
%TO.C,R9*%
X195436748Y-109599800D02*
X195959252Y-109599800D01*
X195436748Y-108179800D02*
X195959252Y-108179800D01*
%TO.C,R11*%
X195436748Y-111380200D02*
X195959252Y-111380200D01*
X195436748Y-112800200D02*
X195959252Y-112800200D01*
D15*
%TO.C,D4*%
X202323700Y-106375200D02*
G75*
G03*
X202323700Y-106375200I-76200J0D01*
G01*
X199659450Y-105625900D02*
X200238150Y-105625900D01*
X200238150Y-107124500D02*
X199659450Y-107124500D01*
%TO.C,D5*%
X202323700Y-108889800D02*
G75*
G03*
X202323700Y-108889800I-76200J0D01*
G01*
X199659450Y-108140500D02*
X200238150Y-108140500D01*
X200238150Y-109639100D02*
X199659450Y-109639100D01*
%TO.C,D6*%
X200238150Y-112839500D02*
X199659450Y-112839500D01*
X199659450Y-111340900D02*
X200238150Y-111340900D01*
X202323700Y-112090200D02*
G75*
G03*
X202323700Y-112090200I-76200J0D01*
G01*
D14*
%TO.C,U10*%
X196342000Y-94996000D02*
X196342000Y-115316000D01*
X196342000Y-115316000D02*
X170942000Y-115316000D01*
X170942000Y-115316000D02*
X170942000Y-94996000D01*
X196342000Y-94996000D02*
X170942000Y-94996000D01*
%TO.C,J3*%
X180848000Y-69790000D02*
X179518000Y-69790000D01*
X179518000Y-69790000D02*
X179518000Y-71120000D01*
X182118000Y-69790000D02*
X182118000Y-72390000D01*
X182118000Y-72390000D02*
X179518000Y-72390000D01*
X179518000Y-72390000D02*
X179518000Y-82610000D01*
X184718000Y-82610000D02*
X179518000Y-82610000D01*
X184718000Y-69790000D02*
X184718000Y-82610000D01*
X184718000Y-69790000D02*
X182118000Y-69790000D01*
%TO.C,J6*%
X217424000Y-50232000D02*
X217424000Y-52892000D01*
X217424000Y-50232000D02*
X220024000Y-50232000D01*
X220024000Y-50232000D02*
X220024000Y-52892000D01*
X217424000Y-52892000D02*
X220024000Y-52892000D01*
X214824000Y-52892000D02*
X216154000Y-52892000D01*
X214824000Y-51562000D02*
X214824000Y-52892000D01*
%TO.C,R7*%
X216917748Y-55675600D02*
X217440252Y-55675600D01*
X216917748Y-54255600D02*
X217440252Y-54255600D01*
%TO.C,U11*%
X225552000Y-107502000D02*
X226882000Y-107502000D01*
X226882000Y-107502000D02*
X226882000Y-106172000D01*
X224282000Y-107502000D02*
X224282000Y-104902000D01*
X224282000Y-104902000D02*
X226882000Y-104902000D01*
X226882000Y-104902000D02*
X226882000Y-99762000D01*
X221682000Y-99762000D02*
X226882000Y-99762000D01*
X221682000Y-107502000D02*
X221682000Y-99762000D01*
X221682000Y-107502000D02*
X224282000Y-107502000D01*
%TO.C,U4*%
D11*
X189237725Y-41010684D02*
X189237725Y-42152368D01*
X189170567Y-42286683D01*
X189103410Y-42353841D01*
X188969094Y-42420999D01*
X188700462Y-42420999D01*
X188566147Y-42353841D01*
X188498989Y-42286683D01*
X188431831Y-42152368D01*
X188431831Y-41010684D01*
X187155832Y-41480789D02*
X187155832Y-42420999D01*
X187491621Y-40943526D02*
X187827410Y-41950894D01*
X186954358Y-41950894D01*
%TO.C,C4*%
X216574666Y-106021142D02*
X216622285Y-106068761D01*
X216765142Y-106116380D01*
X216860380Y-106116380D01*
X217003238Y-106068761D01*
X217098476Y-105973523D01*
X217146095Y-105878285D01*
X217193714Y-105687809D01*
X217193714Y-105544952D01*
X217146095Y-105354476D01*
X217098476Y-105259238D01*
X217003238Y-105164000D01*
X216860380Y-105116380D01*
X216765142Y-105116380D01*
X216622285Y-105164000D01*
X216574666Y-105211619D01*
X215717523Y-105449714D02*
X215717523Y-106116380D01*
X215955619Y-105068761D02*
X216193714Y-105783047D01*
X215574666Y-105783047D01*
%TO.C,C1*%
X198731142Y-98639333D02*
X198778761Y-98591714D01*
X198826380Y-98448857D01*
X198826380Y-98353619D01*
X198778761Y-98210761D01*
X198683523Y-98115523D01*
X198588285Y-98067904D01*
X198397809Y-98020285D01*
X198254952Y-98020285D01*
X198064476Y-98067904D01*
X197969238Y-98115523D01*
X197874000Y-98210761D01*
X197826380Y-98353619D01*
X197826380Y-98448857D01*
X197874000Y-98591714D01*
X197921619Y-98639333D01*
X198826380Y-99591714D02*
X198826380Y-99020285D01*
X198826380Y-99306000D02*
X197826380Y-99306000D01*
X197969238Y-99210761D01*
X198064476Y-99115523D01*
X198112095Y-99020285D01*
%TO.C,D2*%
X178995295Y-40533580D02*
X178995295Y-39533580D01*
X178757200Y-39533580D01*
X178614342Y-39581200D01*
X178519104Y-39676438D01*
X178471485Y-39771676D01*
X178423866Y-39962152D01*
X178423866Y-40105009D01*
X178471485Y-40295485D01*
X178519104Y-40390723D01*
X178614342Y-40485961D01*
X178757200Y-40533580D01*
X178995295Y-40533580D01*
X178042914Y-39628819D02*
X177995295Y-39581200D01*
X177900057Y-39533580D01*
X177661961Y-39533580D01*
X177566723Y-39581200D01*
X177519104Y-39628819D01*
X177471485Y-39724057D01*
X177471485Y-39819295D01*
X177519104Y-39962152D01*
X178090533Y-40533580D01*
X177471485Y-40533580D01*
X177709580Y-41557961D02*
X177709580Y-42177009D01*
X178090533Y-41843676D01*
X178090533Y-41986533D01*
X178138152Y-42081771D01*
X178185771Y-42129390D01*
X178281009Y-42177009D01*
X178519104Y-42177009D01*
X178614342Y-42129390D01*
X178661961Y-42081771D01*
X178709580Y-41986533D01*
X178709580Y-41700819D01*
X178661961Y-41605580D01*
X178614342Y-41557961D01*
X178614342Y-42605580D02*
X178661961Y-42653200D01*
X178709580Y-42605580D01*
X178661961Y-42557961D01*
X178614342Y-42605580D01*
X178709580Y-42605580D01*
X177709580Y-42986533D02*
X177709580Y-43605580D01*
X178090533Y-43272247D01*
X178090533Y-43415104D01*
X178138152Y-43510342D01*
X178185771Y-43557961D01*
X178281009Y-43605580D01*
X178519104Y-43605580D01*
X178614342Y-43557961D01*
X178661961Y-43510342D01*
X178709580Y-43415104D01*
X178709580Y-43129390D01*
X178661961Y-43034152D01*
X178614342Y-42986533D01*
X177709580Y-43891295D02*
X178709580Y-44224628D01*
X177709580Y-44557961D01*
X178709580Y-45653200D02*
X177709580Y-45653200D01*
X178661961Y-46081771D02*
X178709580Y-46224628D01*
X178709580Y-46462723D01*
X178661961Y-46557961D01*
X178614342Y-46605580D01*
X178519104Y-46653200D01*
X178423866Y-46653200D01*
X178328628Y-46605580D01*
X178281009Y-46557961D01*
X178233390Y-46462723D01*
X178185771Y-46272247D01*
X178138152Y-46177009D01*
X178090533Y-46129390D01*
X177995295Y-46081771D01*
X177900057Y-46081771D01*
X177804819Y-46129390D01*
X177757200Y-46177009D01*
X177709580Y-46272247D01*
X177709580Y-46510342D01*
X177757200Y-46653200D01*
X177709580Y-47272247D02*
X177709580Y-47462723D01*
X177757200Y-47557961D01*
X177852438Y-47653200D01*
X178042914Y-47700819D01*
X178376247Y-47700819D01*
X178566723Y-47653200D01*
X178661961Y-47557961D01*
X178709580Y-47462723D01*
X178709580Y-47272247D01*
X178661961Y-47177009D01*
X178566723Y-47081771D01*
X178376247Y-47034152D01*
X178042914Y-47034152D01*
X177852438Y-47081771D01*
X177757200Y-47177009D01*
X177709580Y-47272247D01*
%TO.C,D3*%
X174778895Y-40533580D02*
X174778895Y-39533580D01*
X174540800Y-39533580D01*
X174397942Y-39581200D01*
X174302704Y-39676438D01*
X174255085Y-39771676D01*
X174207466Y-39962152D01*
X174207466Y-40105009D01*
X174255085Y-40295485D01*
X174302704Y-40390723D01*
X174397942Y-40485961D01*
X174540800Y-40533580D01*
X174778895Y-40533580D01*
X173874133Y-39533580D02*
X173255085Y-39533580D01*
X173588419Y-39914533D01*
X173445561Y-39914533D01*
X173350323Y-39962152D01*
X173302704Y-40009771D01*
X173255085Y-40105009D01*
X173255085Y-40343104D01*
X173302704Y-40438342D01*
X173350323Y-40485961D01*
X173445561Y-40533580D01*
X173731276Y-40533580D01*
X173826514Y-40485961D01*
X173874133Y-40438342D01*
X174445561Y-41743666D02*
X174493180Y-41886523D01*
X174493180Y-42124619D01*
X174445561Y-42219857D01*
X174397942Y-42267476D01*
X174302704Y-42315095D01*
X174207466Y-42315095D01*
X174112228Y-42267476D01*
X174064609Y-42219857D01*
X174016990Y-42124619D01*
X173969371Y-41934142D01*
X173921752Y-41838904D01*
X173874133Y-41791285D01*
X173778895Y-41743666D01*
X173683657Y-41743666D01*
X173588419Y-41791285D01*
X173540800Y-41838904D01*
X173493180Y-41934142D01*
X173493180Y-42172238D01*
X173540800Y-42315095D01*
X174493180Y-42743666D02*
X173493180Y-42743666D01*
X173493180Y-42981761D01*
X173540800Y-43124619D01*
X173636038Y-43219857D01*
X173731276Y-43267476D01*
X173921752Y-43315095D01*
X174064609Y-43315095D01*
X174255085Y-43267476D01*
X174350323Y-43219857D01*
X174445561Y-43124619D01*
X174493180Y-42981761D01*
X174493180Y-42743666D01*
X174207466Y-43696047D02*
X174207466Y-44172238D01*
X174493180Y-43600809D02*
X173493180Y-43934142D01*
X174493180Y-44267476D01*
X174493180Y-45362714D02*
X173493180Y-45362714D01*
X174445561Y-45791285D02*
X174493180Y-45934142D01*
X174493180Y-46172238D01*
X174445561Y-46267476D01*
X174397942Y-46315095D01*
X174302704Y-46362714D01*
X174207466Y-46362714D01*
X174112228Y-46315095D01*
X174064609Y-46267476D01*
X174016990Y-46172238D01*
X173969371Y-45981761D01*
X173921752Y-45886523D01*
X173874133Y-45838904D01*
X173778895Y-45791285D01*
X173683657Y-45791285D01*
X173588419Y-45838904D01*
X173540800Y-45886523D01*
X173493180Y-45981761D01*
X173493180Y-46219857D01*
X173540800Y-46362714D01*
X173493180Y-46981761D02*
X173493180Y-47172238D01*
X173540800Y-47267476D01*
X173636038Y-47362714D01*
X173826514Y-47410333D01*
X174159847Y-47410333D01*
X174350323Y-47362714D01*
X174445561Y-47267476D01*
X174493180Y-47172238D01*
X174493180Y-46981761D01*
X174445561Y-46886523D01*
X174350323Y-46791285D01*
X174159847Y-46743666D01*
X173826514Y-46743666D01*
X173636038Y-46791285D01*
X173540800Y-46886523D01*
X173493180Y-46981761D01*
%TO.C,D7*%
X217400095Y-40533580D02*
X217400095Y-39533580D01*
X217162000Y-39533580D01*
X217019142Y-39581200D01*
X216923904Y-39676438D01*
X216876285Y-39771676D01*
X216828666Y-39962152D01*
X216828666Y-40105009D01*
X216876285Y-40295485D01*
X216923904Y-40390723D01*
X217019142Y-40485961D01*
X217162000Y-40533580D01*
X217400095Y-40533580D01*
X216495333Y-39533580D02*
X215828666Y-39533580D01*
X216257238Y-40533580D01*
X216285819Y-43208723D02*
X216238200Y-43256342D01*
X216190580Y-43351580D01*
X216190580Y-43589676D01*
X216238200Y-43684914D01*
X216285819Y-43732533D01*
X216381057Y-43780152D01*
X216476295Y-43780152D01*
X216619152Y-43732533D01*
X217190580Y-43161104D01*
X217190580Y-43780152D01*
X216523914Y-44637295D02*
X217190580Y-44637295D01*
X216142961Y-44399200D02*
X216857247Y-44161104D01*
X216857247Y-44780152D01*
X216190580Y-45018247D02*
X217190580Y-45351580D01*
X216190580Y-45684914D01*
%TO.C,D8*%
X221235495Y-40533580D02*
X221235495Y-39533580D01*
X220997400Y-39533580D01*
X220854542Y-39581200D01*
X220759304Y-39676438D01*
X220711685Y-39771676D01*
X220664066Y-39962152D01*
X220664066Y-40105009D01*
X220711685Y-40295485D01*
X220759304Y-40390723D01*
X220854542Y-40485961D01*
X220997400Y-40533580D01*
X221235495Y-40533580D01*
X220092638Y-39962152D02*
X220187876Y-39914533D01*
X220235495Y-39866914D01*
X220283114Y-39771676D01*
X220283114Y-39724057D01*
X220235495Y-39628819D01*
X220187876Y-39581200D01*
X220092638Y-39533580D01*
X219902161Y-39533580D01*
X219806923Y-39581200D01*
X219759304Y-39628819D01*
X219711685Y-39724057D01*
X219711685Y-39771676D01*
X219759304Y-39866914D01*
X219806923Y-39914533D01*
X219902161Y-39962152D01*
X220092638Y-39962152D01*
X220187876Y-40009771D01*
X220235495Y-40057390D01*
X220283114Y-40152628D01*
X220283114Y-40343104D01*
X220235495Y-40438342D01*
X220187876Y-40485961D01*
X220092638Y-40533580D01*
X219902161Y-40533580D01*
X219806923Y-40485961D01*
X219759304Y-40438342D01*
X219711685Y-40343104D01*
X219711685Y-40152628D01*
X219759304Y-40057390D01*
X219806923Y-40009771D01*
X219902161Y-39962152D01*
X219949780Y-42913466D02*
X219949780Y-42437276D01*
X220425971Y-42389657D01*
X220378352Y-42437276D01*
X220330733Y-42532514D01*
X220330733Y-42770609D01*
X220378352Y-42865847D01*
X220425971Y-42913466D01*
X220521209Y-42961085D01*
X220759304Y-42961085D01*
X220854542Y-42913466D01*
X220902161Y-42865847D01*
X220949780Y-42770609D01*
X220949780Y-42532514D01*
X220902161Y-42437276D01*
X220854542Y-42389657D01*
X219949780Y-43246800D02*
X220949780Y-43580133D01*
X219949780Y-43913466D01*
X220949780Y-45008704D02*
X219949780Y-45008704D01*
X220949780Y-45580133D01*
X219949780Y-45580133D01*
X220949780Y-46056323D02*
X219949780Y-46056323D01*
%TO.C,D1*%
X183516495Y-40533580D02*
X183516495Y-39533580D01*
X183278400Y-39533580D01*
X183135542Y-39581200D01*
X183040304Y-39676438D01*
X182992685Y-39771676D01*
X182945066Y-39962152D01*
X182945066Y-40105009D01*
X182992685Y-40295485D01*
X183040304Y-40390723D01*
X183135542Y-40485961D01*
X183278400Y-40533580D01*
X183516495Y-40533580D01*
X181992685Y-40533580D02*
X182564114Y-40533580D01*
X182278400Y-40533580D02*
X182278400Y-39533580D01*
X182373638Y-39676438D01*
X182468876Y-39771676D01*
X182564114Y-39819295D01*
X182230780Y-42615076D02*
X182230780Y-42138885D01*
X182706971Y-42091266D01*
X182659352Y-42138885D01*
X182611733Y-42234123D01*
X182611733Y-42472219D01*
X182659352Y-42567457D01*
X182706971Y-42615076D01*
X182802209Y-42662695D01*
X183040304Y-42662695D01*
X183135542Y-42615076D01*
X183183161Y-42567457D01*
X183230780Y-42472219D01*
X183230780Y-42234123D01*
X183183161Y-42138885D01*
X183135542Y-42091266D01*
X182230780Y-42948409D02*
X183230780Y-43281742D01*
X182230780Y-43615076D01*
X183230780Y-44710314D02*
X182230780Y-44710314D01*
X183183161Y-45138885D02*
X183230780Y-45281742D01*
X183230780Y-45519838D01*
X183183161Y-45615076D01*
X183135542Y-45662695D01*
X183040304Y-45710314D01*
X182945066Y-45710314D01*
X182849828Y-45662695D01*
X182802209Y-45615076D01*
X182754590Y-45519838D01*
X182706971Y-45329361D01*
X182659352Y-45234123D01*
X182611733Y-45186504D01*
X182516495Y-45138885D01*
X182421257Y-45138885D01*
X182326019Y-45186504D01*
X182278400Y-45234123D01*
X182230780Y-45329361D01*
X182230780Y-45567457D01*
X182278400Y-45710314D01*
X182230780Y-46329361D02*
X182230780Y-46519838D01*
X182278400Y-46615076D01*
X182373638Y-46710314D01*
X182564114Y-46757933D01*
X182897447Y-46757933D01*
X183087923Y-46710314D01*
X183183161Y-46615076D01*
X183230780Y-46519838D01*
X183230780Y-46329361D01*
X183183161Y-46234123D01*
X183087923Y-46138885D01*
X182897447Y-46091266D01*
X182564114Y-46091266D01*
X182373638Y-46138885D01*
X182278400Y-46234123D01*
X182230780Y-46329361D01*
%TO.C,J1*%
X213937904Y-57417247D02*
X214509333Y-57417247D01*
X214623619Y-57379152D01*
X214699809Y-57302961D01*
X214737904Y-57188676D01*
X214737904Y-57112485D01*
X214737904Y-58217247D02*
X214737904Y-57760104D01*
X214737904Y-57988676D02*
X213937904Y-57988676D01*
X214052190Y-57912485D01*
X214128380Y-57836295D01*
X214166476Y-57760104D01*
X214737904Y-59169628D02*
X213937904Y-59169628D01*
X214509333Y-59436295D01*
X213937904Y-59702961D01*
X214737904Y-59702961D01*
X214661714Y-60541057D02*
X214699809Y-60502961D01*
X214737904Y-60388676D01*
X214737904Y-60312485D01*
X214699809Y-60198200D01*
X214623619Y-60122009D01*
X214547428Y-60083914D01*
X214395047Y-60045819D01*
X214280761Y-60045819D01*
X214128380Y-60083914D01*
X214052190Y-60122009D01*
X213976000Y-60198200D01*
X213937904Y-60312485D01*
X213937904Y-60388676D01*
X213976000Y-60502961D01*
X214014095Y-60541057D01*
X214661714Y-61950580D02*
X214699809Y-61912485D01*
X214737904Y-61798200D01*
X214737904Y-61722009D01*
X214699809Y-61607723D01*
X214623619Y-61531533D01*
X214547428Y-61493438D01*
X214395047Y-61455342D01*
X214280761Y-61455342D01*
X214128380Y-61493438D01*
X214052190Y-61531533D01*
X213976000Y-61607723D01*
X213937904Y-61722009D01*
X213937904Y-61798200D01*
X213976000Y-61912485D01*
X214014095Y-61950580D01*
X214737904Y-62636295D02*
X214318857Y-62636295D01*
X214242666Y-62598200D01*
X214204571Y-62522009D01*
X214204571Y-62369628D01*
X214242666Y-62293438D01*
X214699809Y-62636295D02*
X214737904Y-62560104D01*
X214737904Y-62369628D01*
X214699809Y-62293438D01*
X214623619Y-62255342D01*
X214547428Y-62255342D01*
X214471238Y-62293438D01*
X214433142Y-62369628D01*
X214433142Y-62560104D01*
X214395047Y-62636295D01*
X214204571Y-63017247D02*
X214737904Y-63017247D01*
X214280761Y-63017247D02*
X214242666Y-63055342D01*
X214204571Y-63131533D01*
X214204571Y-63245819D01*
X214242666Y-63322009D01*
X214318857Y-63360104D01*
X214737904Y-63360104D01*
X214737904Y-64731533D02*
X214737904Y-64350580D01*
X213937904Y-64350580D01*
X214737904Y-64998200D02*
X214204571Y-64998200D01*
X213937904Y-64998200D02*
X213976000Y-64960104D01*
X214014095Y-64998200D01*
X213976000Y-65036295D01*
X213937904Y-64998200D01*
X214014095Y-64998200D01*
X214204571Y-65379152D02*
X214737904Y-65379152D01*
X214280761Y-65379152D02*
X214242666Y-65417247D01*
X214204571Y-65493438D01*
X214204571Y-65607723D01*
X214242666Y-65683914D01*
X214318857Y-65722009D01*
X214737904Y-65722009D01*
X214699809Y-66407723D02*
X214737904Y-66331533D01*
X214737904Y-66179152D01*
X214699809Y-66102961D01*
X214623619Y-66064866D01*
X214318857Y-66064866D01*
X214242666Y-66102961D01*
X214204571Y-66179152D01*
X214204571Y-66331533D01*
X214242666Y-66407723D01*
X214318857Y-66445819D01*
X214395047Y-66445819D01*
X214471238Y-66064866D01*
%TO.C,J4*%
X213828380Y-68691619D02*
X214542666Y-68691619D01*
X214685523Y-68644000D01*
X214780761Y-68548761D01*
X214828380Y-68405904D01*
X214828380Y-68310666D01*
X214161714Y-69596380D02*
X214828380Y-69596380D01*
X213780761Y-69358285D02*
X214495047Y-69120190D01*
X214495047Y-69739238D01*
X213876000Y-71405904D02*
X213828380Y-71310666D01*
X213828380Y-71167809D01*
X213876000Y-71024952D01*
X213971238Y-70929714D01*
X214066476Y-70882095D01*
X214256952Y-70834476D01*
X214399809Y-70834476D01*
X214590285Y-70882095D01*
X214685523Y-70929714D01*
X214780761Y-71024952D01*
X214828380Y-71167809D01*
X214828380Y-71263047D01*
X214780761Y-71405904D01*
X214733142Y-71453523D01*
X214399809Y-71453523D01*
X214399809Y-71263047D01*
X214828380Y-72358285D02*
X214828380Y-71882095D01*
X213828380Y-71882095D01*
X213828380Y-72548761D02*
X214828380Y-72882095D01*
X213828380Y-73215428D01*
X214304571Y-74644000D02*
X214352190Y-74786857D01*
X214399809Y-74834476D01*
X214495047Y-74882095D01*
X214637904Y-74882095D01*
X214733142Y-74834476D01*
X214780761Y-74786857D01*
X214828380Y-74691619D01*
X214828380Y-74310666D01*
X213828380Y-74310666D01*
X213828380Y-74644000D01*
X213876000Y-74739238D01*
X213923619Y-74786857D01*
X214018857Y-74834476D01*
X214114095Y-74834476D01*
X214209333Y-74786857D01*
X214256952Y-74739238D01*
X214304571Y-74644000D01*
X214304571Y-74310666D01*
X213828380Y-75501142D02*
X213828380Y-75691619D01*
X213876000Y-75786857D01*
X213971238Y-75882095D01*
X214161714Y-75929714D01*
X214495047Y-75929714D01*
X214685523Y-75882095D01*
X214780761Y-75786857D01*
X214828380Y-75691619D01*
X214828380Y-75501142D01*
X214780761Y-75405904D01*
X214685523Y-75310666D01*
X214495047Y-75263047D01*
X214161714Y-75263047D01*
X213971238Y-75310666D01*
X213876000Y-75405904D01*
X213828380Y-75501142D01*
X214304571Y-76691619D02*
X214352190Y-76834476D01*
X214399809Y-76882095D01*
X214495047Y-76929714D01*
X214637904Y-76929714D01*
X214733142Y-76882095D01*
X214780761Y-76834476D01*
X214828380Y-76739238D01*
X214828380Y-76358285D01*
X213828380Y-76358285D01*
X213828380Y-76691619D01*
X213876000Y-76786857D01*
X213923619Y-76834476D01*
X214018857Y-76882095D01*
X214114095Y-76882095D01*
X214209333Y-76834476D01*
X214256952Y-76786857D01*
X214304571Y-76691619D01*
X214304571Y-76358285D01*
%TO.C,J5*%
X222718380Y-82755266D02*
X223432666Y-82755266D01*
X223575523Y-82707647D01*
X223670761Y-82612409D01*
X223718380Y-82469552D01*
X223718380Y-82374314D01*
X222718380Y-83707647D02*
X222718380Y-83231457D01*
X223194571Y-83183838D01*
X223146952Y-83231457D01*
X223099333Y-83326695D01*
X223099333Y-83564790D01*
X223146952Y-83660028D01*
X223194571Y-83707647D01*
X223289809Y-83755266D01*
X223527904Y-83755266D01*
X223623142Y-83707647D01*
X223670761Y-83660028D01*
X223718380Y-83564790D01*
X223718380Y-83326695D01*
X223670761Y-83231457D01*
X223623142Y-83183838D01*
X223718380Y-84945742D02*
X222718380Y-84945742D01*
X222718380Y-85326695D01*
X222766000Y-85421933D01*
X222813619Y-85469552D01*
X222908857Y-85517171D01*
X223051714Y-85517171D01*
X223146952Y-85469552D01*
X223194571Y-85421933D01*
X223242190Y-85326695D01*
X223242190Y-84945742D01*
X223718380Y-85945742D02*
X222718380Y-85945742D01*
X223623142Y-86993361D02*
X223670761Y-86945742D01*
X223718380Y-86802885D01*
X223718380Y-86707647D01*
X223670761Y-86564790D01*
X223575523Y-86469552D01*
X223480285Y-86421933D01*
X223289809Y-86374314D01*
X223146952Y-86374314D01*
X222956476Y-86421933D01*
X222861238Y-86469552D01*
X222766000Y-86564790D01*
X222718380Y-86707647D01*
X222718380Y-86802885D01*
X222766000Y-86945742D01*
X222813619Y-86993361D01*
X223718380Y-87421933D02*
X222718380Y-87421933D01*
X223718380Y-87993361D02*
X223146952Y-87564790D01*
X222718380Y-87993361D02*
X223289809Y-87421933D01*
X223718380Y-88421933D02*
X223051714Y-88421933D01*
X222718380Y-88421933D02*
X222766000Y-88374314D01*
X222813619Y-88421933D01*
X222766000Y-88469552D01*
X222718380Y-88421933D01*
X222813619Y-88421933D01*
X223051714Y-88755266D02*
X223051714Y-89136219D01*
X222718380Y-88898123D02*
X223575523Y-88898123D01*
X223670761Y-88945742D01*
X223718380Y-89040980D01*
X223718380Y-89136219D01*
X222718380Y-90136219D02*
X222718380Y-90755266D01*
X223099333Y-90421933D01*
X223099333Y-90564790D01*
X223146952Y-90660028D01*
X223194571Y-90707647D01*
X223289809Y-90755266D01*
X223527904Y-90755266D01*
X223623142Y-90707647D01*
X223670761Y-90660028D01*
X223718380Y-90564790D01*
X223718380Y-90279076D01*
X223670761Y-90183838D01*
X223623142Y-90136219D01*
%TO.C,L1*%
X212510666Y-101036380D02*
X212986857Y-101036380D01*
X212986857Y-100036380D01*
X211653523Y-101036380D02*
X212224952Y-101036380D01*
X211939238Y-101036380D02*
X211939238Y-100036380D01*
X212034476Y-100179238D01*
X212129714Y-100274476D01*
X212224952Y-100322095D01*
%TO.C,R5*%
X180652680Y-49312533D02*
X180176490Y-48979200D01*
X180652680Y-48741104D02*
X179652680Y-48741104D01*
X179652680Y-49122057D01*
X179700300Y-49217295D01*
X179747919Y-49264914D01*
X179843157Y-49312533D01*
X179986014Y-49312533D01*
X180081252Y-49264914D01*
X180128871Y-49217295D01*
X180176490Y-49122057D01*
X180176490Y-48741104D01*
X179652680Y-50217295D02*
X179652680Y-49741104D01*
X180128871Y-49693485D01*
X180081252Y-49741104D01*
X180033633Y-49836342D01*
X180033633Y-50074438D01*
X180081252Y-50169676D01*
X180128871Y-50217295D01*
X180224109Y-50264914D01*
X180462204Y-50264914D01*
X180557442Y-50217295D01*
X180605061Y-50169676D01*
X180652680Y-50074438D01*
X180652680Y-49836342D01*
X180605061Y-49741104D01*
X180557442Y-49693485D01*
%TO.C,R6*%
X176550580Y-49261733D02*
X176074390Y-48928400D01*
X176550580Y-48690304D02*
X175550580Y-48690304D01*
X175550580Y-49071257D01*
X175598200Y-49166495D01*
X175645819Y-49214114D01*
X175741057Y-49261733D01*
X175883914Y-49261733D01*
X175979152Y-49214114D01*
X176026771Y-49166495D01*
X176074390Y-49071257D01*
X176074390Y-48690304D01*
X175550580Y-50118876D02*
X175550580Y-49928400D01*
X175598200Y-49833161D01*
X175645819Y-49785542D01*
X175788676Y-49690304D01*
X175979152Y-49642685D01*
X176360104Y-49642685D01*
X176455342Y-49690304D01*
X176502961Y-49737923D01*
X176550580Y-49833161D01*
X176550580Y-50023638D01*
X176502961Y-50118876D01*
X176455342Y-50166495D01*
X176360104Y-50214114D01*
X176122009Y-50214114D01*
X176026771Y-50166495D01*
X175979152Y-50118876D01*
X175931533Y-50023638D01*
X175931533Y-49833161D01*
X175979152Y-49737923D01*
X176026771Y-49690304D01*
X176122009Y-49642685D01*
%TO.C,R13*%
X219286057Y-49474380D02*
X219619390Y-48998190D01*
X219857485Y-49474380D02*
X219857485Y-48474380D01*
X219476533Y-48474380D01*
X219381295Y-48522000D01*
X219333676Y-48569619D01*
X219286057Y-48664857D01*
X219286057Y-48807714D01*
X219333676Y-48902952D01*
X219381295Y-48950571D01*
X219476533Y-48998190D01*
X219857485Y-48998190D01*
X218333676Y-49474380D02*
X218905104Y-49474380D01*
X218619390Y-49474380D02*
X218619390Y-48474380D01*
X218714628Y-48617238D01*
X218809866Y-48712476D01*
X218905104Y-48760095D01*
X218000342Y-48474380D02*
X217381295Y-48474380D01*
X217714628Y-48855333D01*
X217571771Y-48855333D01*
X217476533Y-48902952D01*
X217428914Y-48950571D01*
X217381295Y-49045809D01*
X217381295Y-49283904D01*
X217428914Y-49379142D01*
X217476533Y-49426761D01*
X217571771Y-49474380D01*
X217857485Y-49474380D01*
X217952723Y-49426761D01*
X218000342Y-49379142D01*
%TO.C,R15*%
X222778580Y-49166542D02*
X222302390Y-48833209D01*
X222778580Y-48595114D02*
X221778580Y-48595114D01*
X221778580Y-48976066D01*
X221826200Y-49071304D01*
X221873819Y-49118923D01*
X221969057Y-49166542D01*
X222111914Y-49166542D01*
X222207152Y-49118923D01*
X222254771Y-49071304D01*
X222302390Y-48976066D01*
X222302390Y-48595114D01*
X222778580Y-50118923D02*
X222778580Y-49547495D01*
X222778580Y-49833209D02*
X221778580Y-49833209D01*
X221921438Y-49737971D01*
X222016676Y-49642733D01*
X222064295Y-49547495D01*
X221778580Y-51023685D02*
X221778580Y-50547495D01*
X222254771Y-50499876D01*
X222207152Y-50547495D01*
X222159533Y-50642733D01*
X222159533Y-50880828D01*
X222207152Y-50976066D01*
X222254771Y-51023685D01*
X222350009Y-51071304D01*
X222588104Y-51071304D01*
X222683342Y-51023685D01*
X222730961Y-50976066D01*
X222778580Y-50880828D01*
X222778580Y-50642733D01*
X222730961Y-50547495D01*
X222683342Y-50499876D01*
%TO.C,R16*%
X185293260Y-49268142D02*
X184817070Y-48934809D01*
X185293260Y-48696714D02*
X184293260Y-48696714D01*
X184293260Y-49077666D01*
X184340880Y-49172904D01*
X184388499Y-49220523D01*
X184483737Y-49268142D01*
X184626594Y-49268142D01*
X184721832Y-49220523D01*
X184769451Y-49172904D01*
X184817070Y-49077666D01*
X184817070Y-48696714D01*
X185293260Y-50220523D02*
X185293260Y-49649095D01*
X185293260Y-49934809D02*
X184293260Y-49934809D01*
X184436118Y-49839571D01*
X184531356Y-49744333D01*
X184578975Y-49649095D01*
X184293260Y-51077666D02*
X184293260Y-50887190D01*
X184340880Y-50791952D01*
X184388499Y-50744333D01*
X184531356Y-50649095D01*
X184721832Y-50601476D01*
X185102784Y-50601476D01*
X185198022Y-50649095D01*
X185245641Y-50696714D01*
X185293260Y-50791952D01*
X185293260Y-50982428D01*
X185245641Y-51077666D01*
X185198022Y-51125285D01*
X185102784Y-51172904D01*
X184864689Y-51172904D01*
X184769451Y-51125285D01*
X184721832Y-51077666D01*
X184674213Y-50982428D01*
X184674213Y-50791952D01*
X184721832Y-50696714D01*
X184769451Y-50649095D01*
X184864689Y-50601476D01*
%TO.C,J2*%
X217130380Y-82780571D02*
X217844666Y-82780571D01*
X217987523Y-82732952D01*
X218082761Y-82637714D01*
X218130380Y-82494857D01*
X218130380Y-82399619D01*
X217225619Y-83209142D02*
X217178000Y-83256761D01*
X217130380Y-83352000D01*
X217130380Y-83590095D01*
X217178000Y-83685333D01*
X217225619Y-83732952D01*
X217320857Y-83780571D01*
X217416095Y-83780571D01*
X217558952Y-83732952D01*
X218130380Y-83161523D01*
X218130380Y-83780571D01*
X218130380Y-84971047D02*
X217130380Y-84971047D01*
X218130380Y-85542476D01*
X217130380Y-85542476D01*
X218130380Y-86018666D02*
X217130380Y-86018666D01*
X218130380Y-87256761D02*
X217130380Y-87256761D01*
X217225619Y-87685333D02*
X217178000Y-87732952D01*
X217130380Y-87828190D01*
X217130380Y-88066285D01*
X217178000Y-88161523D01*
X217225619Y-88209142D01*
X217320857Y-88256761D01*
X217416095Y-88256761D01*
X217558952Y-88209142D01*
X218130380Y-87637714D01*
X218130380Y-88256761D01*
X218035142Y-89256761D02*
X218082761Y-89209142D01*
X218130380Y-89066285D01*
X218130380Y-88971047D01*
X218082761Y-88828190D01*
X217987523Y-88732952D01*
X217892285Y-88685333D01*
X217701809Y-88637714D01*
X217558952Y-88637714D01*
X217368476Y-88685333D01*
X217273238Y-88732952D01*
X217178000Y-88828190D01*
X217130380Y-88971047D01*
X217130380Y-89066285D01*
X217178000Y-89209142D01*
X217225619Y-89256761D01*
%TO.C,R8*%
X192952666Y-106675180D02*
X193286000Y-106198990D01*
X193524095Y-106675180D02*
X193524095Y-105675180D01*
X193143142Y-105675180D01*
X193047904Y-105722800D01*
X193000285Y-105770419D01*
X192952666Y-105865657D01*
X192952666Y-106008514D01*
X193000285Y-106103752D01*
X193047904Y-106151371D01*
X193143142Y-106198990D01*
X193524095Y-106198990D01*
X192381238Y-106103752D02*
X192476476Y-106056133D01*
X192524095Y-106008514D01*
X192571714Y-105913276D01*
X192571714Y-105865657D01*
X192524095Y-105770419D01*
X192476476Y-105722800D01*
X192381238Y-105675180D01*
X192190761Y-105675180D01*
X192095523Y-105722800D01*
X192047904Y-105770419D01*
X192000285Y-105865657D01*
X192000285Y-105913276D01*
X192047904Y-106008514D01*
X192095523Y-106056133D01*
X192190761Y-106103752D01*
X192381238Y-106103752D01*
X192476476Y-106151371D01*
X192524095Y-106198990D01*
X192571714Y-106294228D01*
X192571714Y-106484704D01*
X192524095Y-106579942D01*
X192476476Y-106627561D01*
X192381238Y-106675180D01*
X192190761Y-106675180D01*
X192095523Y-106627561D01*
X192047904Y-106579942D01*
X192000285Y-106484704D01*
X192000285Y-106294228D01*
X192047904Y-106198990D01*
X192095523Y-106151371D01*
X192190761Y-106103752D01*
%TO.C,R9*%
X192952666Y-109392980D02*
X193286000Y-108916790D01*
X193524095Y-109392980D02*
X193524095Y-108392980D01*
X193143142Y-108392980D01*
X193047904Y-108440600D01*
X193000285Y-108488219D01*
X192952666Y-108583457D01*
X192952666Y-108726314D01*
X193000285Y-108821552D01*
X193047904Y-108869171D01*
X193143142Y-108916790D01*
X193524095Y-108916790D01*
X192476476Y-109392980D02*
X192286000Y-109392980D01*
X192190761Y-109345361D01*
X192143142Y-109297742D01*
X192047904Y-109154885D01*
X192000285Y-108964409D01*
X192000285Y-108583457D01*
X192047904Y-108488219D01*
X192095523Y-108440600D01*
X192190761Y-108392980D01*
X192381238Y-108392980D01*
X192476476Y-108440600D01*
X192524095Y-108488219D01*
X192571714Y-108583457D01*
X192571714Y-108821552D01*
X192524095Y-108916790D01*
X192476476Y-108964409D01*
X192381238Y-109012028D01*
X192190761Y-109012028D01*
X192095523Y-108964409D01*
X192047904Y-108916790D01*
X192000285Y-108821552D01*
%TO.C,R11*%
X192895457Y-112567980D02*
X193228790Y-112091790D01*
X193466885Y-112567980D02*
X193466885Y-111567980D01*
X193085933Y-111567980D01*
X192990695Y-111615600D01*
X192943076Y-111663219D01*
X192895457Y-111758457D01*
X192895457Y-111901314D01*
X192943076Y-111996552D01*
X192990695Y-112044171D01*
X193085933Y-112091790D01*
X193466885Y-112091790D01*
X191943076Y-112567980D02*
X192514504Y-112567980D01*
X192228790Y-112567980D02*
X192228790Y-111567980D01*
X192324028Y-111710838D01*
X192419266Y-111806076D01*
X192514504Y-111853695D01*
X190990695Y-112567980D02*
X191562123Y-112567980D01*
X191276409Y-112567980D02*
X191276409Y-111567980D01*
X191371647Y-111710838D01*
X191466885Y-111806076D01*
X191562123Y-111853695D01*
%TO.C,D4*%
X200915495Y-105049580D02*
X200915495Y-104049580D01*
X200677400Y-104049580D01*
X200534542Y-104097200D01*
X200439304Y-104192438D01*
X200391685Y-104287676D01*
X200344066Y-104478152D01*
X200344066Y-104621009D01*
X200391685Y-104811485D01*
X200439304Y-104906723D01*
X200534542Y-105001961D01*
X200677400Y-105049580D01*
X200915495Y-105049580D01*
X199486923Y-104382914D02*
X199486923Y-105049580D01*
X199725019Y-104001961D02*
X199963114Y-104716247D01*
X199344066Y-104716247D01*
X212164038Y-106754561D02*
X212021180Y-106802180D01*
X211783085Y-106802180D01*
X211687847Y-106754561D01*
X211640228Y-106706942D01*
X211592609Y-106611704D01*
X211592609Y-106516466D01*
X211640228Y-106421228D01*
X211687847Y-106373609D01*
X211783085Y-106325990D01*
X211973561Y-106278371D01*
X212068800Y-106230752D01*
X212116419Y-106183133D01*
X212164038Y-106087895D01*
X212164038Y-105992657D01*
X212116419Y-105897419D01*
X212068800Y-105849800D01*
X211973561Y-105802180D01*
X211735466Y-105802180D01*
X211592609Y-105849800D01*
X211306895Y-105802180D02*
X210735466Y-105802180D01*
X211021180Y-106802180D02*
X211021180Y-105802180D01*
X210449752Y-106516466D02*
X209973561Y-106516466D01*
X210544990Y-106802180D02*
X210211657Y-105802180D01*
X209878323Y-106802180D01*
X209687847Y-105802180D02*
X209116419Y-105802180D01*
X209402133Y-106802180D02*
X209402133Y-105802180D01*
X208783085Y-106278371D02*
X208449752Y-106278371D01*
X208306895Y-106802180D02*
X208783085Y-106802180D01*
X208783085Y-105802180D01*
X208306895Y-105802180D01*
X208116419Y-106897419D02*
X207354514Y-106897419D01*
X206925942Y-105802180D02*
X206735466Y-105802180D01*
X206640228Y-105849800D01*
X206544990Y-105945038D01*
X206497371Y-106135514D01*
X206497371Y-106468847D01*
X206544990Y-106659323D01*
X206640228Y-106754561D01*
X206735466Y-106802180D01*
X206925942Y-106802180D01*
X207021180Y-106754561D01*
X207116419Y-106659323D01*
X207164038Y-106468847D01*
X207164038Y-106135514D01*
X207116419Y-105945038D01*
X207021180Y-105849800D01*
X206925942Y-105802180D01*
X206068800Y-105802180D02*
X206068800Y-106611704D01*
X206021180Y-106706942D01*
X205973561Y-106754561D01*
X205878323Y-106802180D01*
X205687847Y-106802180D01*
X205592609Y-106754561D01*
X205544990Y-106706942D01*
X205497371Y-106611704D01*
X205497371Y-105802180D01*
X205164038Y-105802180D02*
X204592609Y-105802180D01*
X204878323Y-106802180D02*
X204878323Y-105802180D01*
X204497371Y-106897419D02*
X203735466Y-106897419D01*
X202973561Y-106802180D02*
X203544990Y-106802180D01*
X203259276Y-106802180D02*
X203259276Y-105802180D01*
X203354514Y-105945038D01*
X203449752Y-106040276D01*
X203544990Y-106087895D01*
%TO.C,D5*%
X200686895Y-110967780D02*
X200686895Y-109967780D01*
X200448800Y-109967780D01*
X200305942Y-110015400D01*
X200210704Y-110110638D01*
X200163085Y-110205876D01*
X200115466Y-110396352D01*
X200115466Y-110539209D01*
X200163085Y-110729685D01*
X200210704Y-110824923D01*
X200305942Y-110920161D01*
X200448800Y-110967780D01*
X200686895Y-110967780D01*
X199210704Y-109967780D02*
X199686895Y-109967780D01*
X199734514Y-110443971D01*
X199686895Y-110396352D01*
X199591657Y-110348733D01*
X199353561Y-110348733D01*
X199258323Y-110396352D01*
X199210704Y-110443971D01*
X199163085Y-110539209D01*
X199163085Y-110777304D01*
X199210704Y-110872542D01*
X199258323Y-110920161D01*
X199353561Y-110967780D01*
X199591657Y-110967780D01*
X199686895Y-110920161D01*
X199734514Y-110872542D01*
X212164038Y-109294561D02*
X212021180Y-109342180D01*
X211783085Y-109342180D01*
X211687847Y-109294561D01*
X211640228Y-109246942D01*
X211592609Y-109151704D01*
X211592609Y-109056466D01*
X211640228Y-108961228D01*
X211687847Y-108913609D01*
X211783085Y-108865990D01*
X211973561Y-108818371D01*
X212068800Y-108770752D01*
X212116419Y-108723133D01*
X212164038Y-108627895D01*
X212164038Y-108532657D01*
X212116419Y-108437419D01*
X212068800Y-108389800D01*
X211973561Y-108342180D01*
X211735466Y-108342180D01*
X211592609Y-108389800D01*
X211306895Y-108342180D02*
X210735466Y-108342180D01*
X211021180Y-109342180D02*
X211021180Y-108342180D01*
X210449752Y-109056466D02*
X209973561Y-109056466D01*
X210544990Y-109342180D02*
X210211657Y-108342180D01*
X209878323Y-109342180D01*
X209687847Y-108342180D02*
X209116419Y-108342180D01*
X209402133Y-109342180D02*
X209402133Y-108342180D01*
X208783085Y-108818371D02*
X208449752Y-108818371D01*
X208306895Y-109342180D02*
X208783085Y-109342180D01*
X208783085Y-108342180D01*
X208306895Y-108342180D01*
X208116419Y-109437419D02*
X207354514Y-109437419D01*
X206925942Y-108342180D02*
X206735466Y-108342180D01*
X206640228Y-108389800D01*
X206544990Y-108485038D01*
X206497371Y-108675514D01*
X206497371Y-109008847D01*
X206544990Y-109199323D01*
X206640228Y-109294561D01*
X206735466Y-109342180D01*
X206925942Y-109342180D01*
X207021180Y-109294561D01*
X207116419Y-109199323D01*
X207164038Y-109008847D01*
X207164038Y-108675514D01*
X207116419Y-108485038D01*
X207021180Y-108389800D01*
X206925942Y-108342180D01*
X206068800Y-108342180D02*
X206068800Y-109151704D01*
X206021180Y-109246942D01*
X205973561Y-109294561D01*
X205878323Y-109342180D01*
X205687847Y-109342180D01*
X205592609Y-109294561D01*
X205544990Y-109246942D01*
X205497371Y-109151704D01*
X205497371Y-108342180D01*
X205164038Y-108342180D02*
X204592609Y-108342180D01*
X204878323Y-109342180D02*
X204878323Y-108342180D01*
X204497371Y-109437419D02*
X203735466Y-109437419D01*
X203544990Y-108437419D02*
X203497371Y-108389800D01*
X203402133Y-108342180D01*
X203164038Y-108342180D01*
X203068799Y-108389800D01*
X203021180Y-108437419D01*
X202973561Y-108532657D01*
X202973561Y-108627895D01*
X203021180Y-108770752D01*
X203592609Y-109342180D01*
X202973561Y-109342180D01*
%TO.C,D6*%
X200686895Y-114218980D02*
X200686895Y-113218980D01*
X200448800Y-113218980D01*
X200305942Y-113266600D01*
X200210704Y-113361838D01*
X200163085Y-113457076D01*
X200115466Y-113647552D01*
X200115466Y-113790409D01*
X200163085Y-113980885D01*
X200210704Y-114076123D01*
X200305942Y-114171361D01*
X200448800Y-114218980D01*
X200686895Y-114218980D01*
X199258323Y-113218980D02*
X199448800Y-113218980D01*
X199544038Y-113266600D01*
X199591657Y-113314219D01*
X199686895Y-113457076D01*
X199734514Y-113647552D01*
X199734514Y-114028504D01*
X199686895Y-114123742D01*
X199639276Y-114171361D01*
X199544038Y-114218980D01*
X199353561Y-114218980D01*
X199258323Y-114171361D01*
X199210704Y-114123742D01*
X199163085Y-114028504D01*
X199163085Y-113790409D01*
X199210704Y-113695171D01*
X199258323Y-113647552D01*
X199353561Y-113599933D01*
X199544038Y-113599933D01*
X199639276Y-113647552D01*
X199686895Y-113695171D01*
X199734514Y-113790409D01*
X212164038Y-112494961D02*
X212021180Y-112542580D01*
X211783085Y-112542580D01*
X211687847Y-112494961D01*
X211640228Y-112447342D01*
X211592609Y-112352104D01*
X211592609Y-112256866D01*
X211640228Y-112161628D01*
X211687847Y-112114009D01*
X211783085Y-112066390D01*
X211973561Y-112018771D01*
X212068800Y-111971152D01*
X212116419Y-111923533D01*
X212164038Y-111828295D01*
X212164038Y-111733057D01*
X212116419Y-111637819D01*
X212068800Y-111590200D01*
X211973561Y-111542580D01*
X211735466Y-111542580D01*
X211592609Y-111590200D01*
X211306895Y-111542580D02*
X210735466Y-111542580D01*
X211021180Y-112542580D02*
X211021180Y-111542580D01*
X210449752Y-112256866D02*
X209973561Y-112256866D01*
X210544990Y-112542580D02*
X210211657Y-111542580D01*
X209878323Y-112542580D01*
X209687847Y-111542580D02*
X209116419Y-111542580D01*
X209402133Y-112542580D02*
X209402133Y-111542580D01*
X208783085Y-112018771D02*
X208449752Y-112018771D01*
X208306895Y-112542580D02*
X208783085Y-112542580D01*
X208783085Y-111542580D01*
X208306895Y-111542580D01*
X208116419Y-112637819D02*
X207354514Y-112637819D01*
X206925942Y-111542580D02*
X206735466Y-111542580D01*
X206640228Y-111590200D01*
X206544990Y-111685438D01*
X206497371Y-111875914D01*
X206497371Y-112209247D01*
X206544990Y-112399723D01*
X206640228Y-112494961D01*
X206735466Y-112542580D01*
X206925942Y-112542580D01*
X207021180Y-112494961D01*
X207116419Y-112399723D01*
X207164038Y-112209247D01*
X207164038Y-111875914D01*
X207116419Y-111685438D01*
X207021180Y-111590200D01*
X206925942Y-111542580D01*
X206068800Y-111542580D02*
X206068800Y-112352104D01*
X206021180Y-112447342D01*
X205973561Y-112494961D01*
X205878323Y-112542580D01*
X205687847Y-112542580D01*
X205592609Y-112494961D01*
X205544990Y-112447342D01*
X205497371Y-112352104D01*
X205497371Y-111542580D01*
X205164038Y-111542580D02*
X204592609Y-111542580D01*
X204878323Y-112542580D02*
X204878323Y-111542580D01*
X204497371Y-112637819D02*
X203735466Y-112637819D01*
X203592609Y-111542580D02*
X202973561Y-111542580D01*
X203306895Y-111923533D01*
X203164038Y-111923533D01*
X203068799Y-111971152D01*
X203021180Y-112018771D01*
X202973561Y-112114009D01*
X202973561Y-112352104D01*
X203021180Y-112447342D01*
X203068799Y-112494961D01*
X203164038Y-112542580D01*
X203449752Y-112542580D01*
X203544990Y-112494961D01*
X203592609Y-112447342D01*
%TO.C,J3*%
X185184609Y-67989504D02*
X185184609Y-68560933D01*
X185222704Y-68675219D01*
X185298895Y-68751409D01*
X185413180Y-68789504D01*
X185489371Y-68789504D01*
X184879847Y-67989504D02*
X184384609Y-67989504D01*
X184651276Y-68294266D01*
X184536990Y-68294266D01*
X184460800Y-68332361D01*
X184422704Y-68370457D01*
X184384609Y-68446647D01*
X184384609Y-68637123D01*
X184422704Y-68713314D01*
X184460800Y-68751409D01*
X184536990Y-68789504D01*
X184765561Y-68789504D01*
X184841752Y-68751409D01*
X184879847Y-68713314D01*
X183051276Y-68789504D02*
X183432228Y-68789504D01*
X183432228Y-67989504D01*
X182670323Y-68789504D02*
X182746514Y-68751409D01*
X182784609Y-68713314D01*
X182822704Y-68637123D01*
X182822704Y-68408552D01*
X182784609Y-68332361D01*
X182746514Y-68294266D01*
X182670323Y-68256171D01*
X182556038Y-68256171D01*
X182479847Y-68294266D01*
X182441752Y-68332361D01*
X182403657Y-68408552D01*
X182403657Y-68637123D01*
X182441752Y-68713314D01*
X182479847Y-68751409D01*
X182556038Y-68789504D01*
X182670323Y-68789504D01*
X181717942Y-68256171D02*
X181717942Y-68903790D01*
X181756038Y-68979980D01*
X181794133Y-69018076D01*
X181870323Y-69056171D01*
X181984609Y-69056171D01*
X182060800Y-69018076D01*
X181717942Y-68751409D02*
X181794133Y-68789504D01*
X181946514Y-68789504D01*
X182022704Y-68751409D01*
X182060800Y-68713314D01*
X182098895Y-68637123D01*
X182098895Y-68408552D01*
X182060800Y-68332361D01*
X182022704Y-68294266D01*
X181946514Y-68256171D01*
X181794133Y-68256171D01*
X181717942Y-68294266D01*
X181336990Y-68789504D02*
X181336990Y-68256171D01*
X181336990Y-67989504D02*
X181375085Y-68027600D01*
X181336990Y-68065695D01*
X181298895Y-68027600D01*
X181336990Y-67989504D01*
X181336990Y-68065695D01*
X180613180Y-68751409D02*
X180689371Y-68789504D01*
X180841752Y-68789504D01*
X180917942Y-68751409D01*
X180956038Y-68713314D01*
X180994133Y-68637123D01*
X180994133Y-68408552D01*
X180956038Y-68332361D01*
X180917942Y-68294266D01*
X180841752Y-68256171D01*
X180689371Y-68256171D01*
X180613180Y-68294266D01*
X180270323Y-68484742D02*
X179660800Y-68484742D01*
X179394133Y-67989504D02*
X178936990Y-67989504D01*
X179165561Y-68789504D02*
X179165561Y-67989504D01*
X178708419Y-68751409D02*
X178594133Y-68789504D01*
X178403657Y-68789504D01*
X178327466Y-68751409D01*
X178289371Y-68713314D01*
X178251276Y-68637123D01*
X178251276Y-68560933D01*
X178289371Y-68484742D01*
X178327466Y-68446647D01*
X178403657Y-68408552D01*
X178556038Y-68370457D01*
X178632228Y-68332361D01*
X178670323Y-68294266D01*
X178708419Y-68218076D01*
X178708419Y-68141885D01*
X178670323Y-68065695D01*
X178632228Y-68027600D01*
X178556038Y-67989504D01*
X178365561Y-67989504D01*
X178251276Y-68027600D01*
X177908419Y-68789504D02*
X177908419Y-67989504D01*
%TO.C,J6*%
X213125104Y-48380980D02*
X213696533Y-48380980D01*
X213810819Y-48342885D01*
X213887009Y-48266695D01*
X213925104Y-48152409D01*
X213925104Y-48076219D01*
X213125104Y-49104790D02*
X213125104Y-48952409D01*
X213163200Y-48876219D01*
X213201295Y-48838123D01*
X213315580Y-48761933D01*
X213467961Y-48723838D01*
X213772723Y-48723838D01*
X213848914Y-48761933D01*
X213887009Y-48800028D01*
X213925104Y-48876219D01*
X213925104Y-49028600D01*
X213887009Y-49104790D01*
X213848914Y-49142885D01*
X213772723Y-49180980D01*
X213582247Y-49180980D01*
X213506057Y-49142885D01*
X213467961Y-49104790D01*
X213429866Y-49028600D01*
X213429866Y-48876219D01*
X213467961Y-48800028D01*
X213506057Y-48761933D01*
X213582247Y-48723838D01*
X213925104Y-50133361D02*
X213125104Y-50133361D01*
X213925104Y-50590504D01*
X213125104Y-50590504D01*
X213925104Y-50971457D02*
X213125104Y-50971457D01*
X213848914Y-52419076D02*
X213887009Y-52380980D01*
X213925104Y-52266695D01*
X213925104Y-52190504D01*
X213887009Y-52076219D01*
X213810819Y-52000028D01*
X213734628Y-51961933D01*
X213582247Y-51923838D01*
X213467961Y-51923838D01*
X213315580Y-51961933D01*
X213239390Y-52000028D01*
X213163200Y-52076219D01*
X213125104Y-52190504D01*
X213125104Y-52266695D01*
X213163200Y-52380980D01*
X213201295Y-52419076D01*
X213696533Y-52723838D02*
X213696533Y-53104790D01*
X213925104Y-52647647D02*
X213125104Y-52914314D01*
X213925104Y-53180980D01*
X213925104Y-53447647D02*
X213125104Y-53447647D01*
X213925104Y-53904790D01*
X213125104Y-53904790D01*
%TO.C,R7*%
X220206866Y-55544980D02*
X220540200Y-55068790D01*
X220778295Y-55544980D02*
X220778295Y-54544980D01*
X220397342Y-54544980D01*
X220302104Y-54592600D01*
X220254485Y-54640219D01*
X220206866Y-54735457D01*
X220206866Y-54878314D01*
X220254485Y-54973552D01*
X220302104Y-55021171D01*
X220397342Y-55068790D01*
X220778295Y-55068790D01*
X219873533Y-54544980D02*
X219206866Y-54544980D01*
X219635438Y-55544980D01*
%TD*%
M02*
