%TF.GenerationSoftware,KiCad,Pcbnew,(5.1.6)-1*%
%TF.CreationDate,2021-02-04T22:49:39-05:00*%
%TF.ProjectId,Logic,4c6f6769-632e-46b6-9963-61645f706362,rev?*%
%TF.SameCoordinates,Original*%
%TF.FileFunction,Soldermask,Bot*%
%TF.FilePolarity,Negative*%
%FSLAX46Y46*%
G04 Gerber Fmt 4.6, Leading zero omitted, Abs format (unit mm)*
G04 Created by KiCad (PCBNEW (5.1.6)-1) date 2021-02-04 22:49:39*
%MOMM*%
%LPD*%
G01*
G04 APERTURE LIST*
%ADD10C,5.100000*%
%ADD11C,1.300000*%
%ADD12C,2.900000*%
%ADD13R,2.900000X2.900000*%
%ADD14O,1.800000X1.800000*%
%ADD15R,1.800000X1.800000*%
%ADD16R,2.350000X2.350000*%
%ADD17C,2.350000*%
G04 APERTURE END LIST*
D10*
%TO.C,REF\u002A\u002A*%
X95250000Y-5715000D03*
%TD*%
%TO.C,REF\u002A\u002A*%
X95250000Y-146050000D03*
%TD*%
%TO.C,C4*%
G36*
G01*
X163038262Y-125575000D02*
X162081738Y-125575000D01*
G75*
G02*
X161810000Y-125303262I0J271738D01*
G01*
X161810000Y-124596738D01*
G75*
G02*
X162081738Y-124325000I271738J0D01*
G01*
X163038262Y-124325000D01*
G75*
G02*
X163310000Y-124596738I0J-271738D01*
G01*
X163310000Y-125303262D01*
G75*
G02*
X163038262Y-125575000I-271738J0D01*
G01*
G37*
G36*
G01*
X163038262Y-127625000D02*
X162081738Y-127625000D01*
G75*
G02*
X161810000Y-127353262I0J271738D01*
G01*
X161810000Y-126646738D01*
G75*
G02*
X162081738Y-126375000I271738J0D01*
G01*
X163038262Y-126375000D01*
G75*
G02*
X163310000Y-126646738I0J-271738D01*
G01*
X163310000Y-127353262D01*
G75*
G02*
X163038262Y-127625000I-271738J0D01*
G01*
G37*
%TD*%
%TO.C,REF\u002A\u002A*%
X255905000Y-5715000D03*
%TD*%
%TO.C,REF\u002A\u002A*%
X255905000Y-146050000D03*
%TD*%
D11*
%TO.C,U6*%
X221269200Y-67675200D03*
X221269200Y-77835200D03*
X218907200Y-82915200D03*
X218907200Y-57515200D03*
X218907200Y-60055200D03*
X221269200Y-72755200D03*
X221269200Y-70215200D03*
X218907200Y-77835200D03*
X221269200Y-80375200D03*
X218907200Y-80375200D03*
X221269200Y-82915200D03*
X221269200Y-57515200D03*
X218907200Y-70215200D03*
X218907200Y-62595200D03*
X221269200Y-85455200D03*
X218907200Y-72755200D03*
X221269200Y-60055200D03*
X221269200Y-65135200D03*
X218907200Y-65135200D03*
X221269200Y-75295200D03*
X218907200Y-67675200D03*
X221269200Y-62595200D03*
X218907200Y-75295200D03*
X218907200Y-93075200D03*
D10*
X171047200Y-110763200D03*
D11*
X221269200Y-105775200D03*
X221269200Y-103235200D03*
X218907200Y-105775200D03*
X218907200Y-90535200D03*
X218907200Y-95615200D03*
X221269200Y-90535200D03*
D10*
X171047200Y-52763200D03*
D11*
X218907200Y-85455200D03*
D10*
X220047200Y-52763200D03*
D11*
X221269200Y-100695200D03*
X218907200Y-98155200D03*
X221269200Y-95615200D03*
X221269200Y-98155200D03*
D10*
X220047200Y-110763200D03*
D11*
X221269200Y-93075200D03*
X218907200Y-103235200D03*
X218907200Y-100695200D03*
X218907200Y-87995200D03*
X221269200Y-87995200D03*
%TD*%
%TO.C,C3*%
G36*
G01*
X159541738Y-23260000D02*
X160498262Y-23260000D01*
G75*
G02*
X160770000Y-23531738I0J-271738D01*
G01*
X160770000Y-24238262D01*
G75*
G02*
X160498262Y-24510000I-271738J0D01*
G01*
X159541738Y-24510000D01*
G75*
G02*
X159270000Y-24238262I0J271738D01*
G01*
X159270000Y-23531738D01*
G75*
G02*
X159541738Y-23260000I271738J0D01*
G01*
G37*
G36*
G01*
X159541738Y-21210000D02*
X160498262Y-21210000D01*
G75*
G02*
X160770000Y-21481738I0J-271738D01*
G01*
X160770000Y-22188262D01*
G75*
G02*
X160498262Y-22460000I-271738J0D01*
G01*
X159541738Y-22460000D01*
G75*
G02*
X159270000Y-22188262I0J271738D01*
G01*
X159270000Y-21481738D01*
G75*
G02*
X159541738Y-21210000I271738J0D01*
G01*
G37*
%TD*%
%TO.C,C5*%
G36*
G01*
X139221738Y-23505000D02*
X140178262Y-23505000D01*
G75*
G02*
X140450000Y-23776738I0J-271738D01*
G01*
X140450000Y-24483262D01*
G75*
G02*
X140178262Y-24755000I-271738J0D01*
G01*
X139221738Y-24755000D01*
G75*
G02*
X138950000Y-24483262I0J271738D01*
G01*
X138950000Y-23776738D01*
G75*
G02*
X139221738Y-23505000I271738J0D01*
G01*
G37*
G36*
G01*
X139221738Y-21455000D02*
X140178262Y-21455000D01*
G75*
G02*
X140450000Y-21726738I0J-271738D01*
G01*
X140450000Y-22433262D01*
G75*
G02*
X140178262Y-22705000I-271738J0D01*
G01*
X139221738Y-22705000D01*
G75*
G02*
X138950000Y-22433262I0J271738D01*
G01*
X138950000Y-21726738D01*
G75*
G02*
X139221738Y-21455000I271738J0D01*
G01*
G37*
%TD*%
%TO.C,C6*%
G36*
G01*
X168920000Y-124938262D02*
X168920000Y-123981738D01*
G75*
G02*
X169191738Y-123710000I271738J0D01*
G01*
X169898262Y-123710000D01*
G75*
G02*
X170170000Y-123981738I0J-271738D01*
G01*
X170170000Y-124938262D01*
G75*
G02*
X169898262Y-125210000I-271738J0D01*
G01*
X169191738Y-125210000D01*
G75*
G02*
X168920000Y-124938262I0J271738D01*
G01*
G37*
G36*
G01*
X166870000Y-124938262D02*
X166870000Y-123981738D01*
G75*
G02*
X167141738Y-123710000I271738J0D01*
G01*
X167848262Y-123710000D01*
G75*
G02*
X168120000Y-123981738I0J-271738D01*
G01*
X168120000Y-124938262D01*
G75*
G02*
X167848262Y-125210000I-271738J0D01*
G01*
X167141738Y-125210000D01*
G75*
G02*
X166870000Y-124938262I0J271738D01*
G01*
G37*
%TD*%
%TO.C,C7*%
G36*
G01*
X166360000Y-117631738D02*
X166360000Y-118588262D01*
G75*
G02*
X166088262Y-118860000I-271738J0D01*
G01*
X165381738Y-118860000D01*
G75*
G02*
X165110000Y-118588262I0J271738D01*
G01*
X165110000Y-117631738D01*
G75*
G02*
X165381738Y-117360000I271738J0D01*
G01*
X166088262Y-117360000D01*
G75*
G02*
X166360000Y-117631738I0J-271738D01*
G01*
G37*
G36*
G01*
X168410000Y-117631738D02*
X168410000Y-118588262D01*
G75*
G02*
X168138262Y-118860000I-271738J0D01*
G01*
X167431738Y-118860000D01*
G75*
G02*
X167160000Y-118588262I0J271738D01*
G01*
X167160000Y-117631738D01*
G75*
G02*
X167431738Y-117360000I271738J0D01*
G01*
X168138262Y-117360000D01*
G75*
G02*
X168410000Y-117631738I0J-271738D01*
G01*
G37*
%TD*%
%TO.C,C8*%
G36*
G01*
X168920000Y-132558262D02*
X168920000Y-131601738D01*
G75*
G02*
X169191738Y-131330000I271738J0D01*
G01*
X169898262Y-131330000D01*
G75*
G02*
X170170000Y-131601738I0J-271738D01*
G01*
X170170000Y-132558262D01*
G75*
G02*
X169898262Y-132830000I-271738J0D01*
G01*
X169191738Y-132830000D01*
G75*
G02*
X168920000Y-132558262I0J271738D01*
G01*
G37*
G36*
G01*
X166870000Y-132558262D02*
X166870000Y-131601738D01*
G75*
G02*
X167141738Y-131330000I271738J0D01*
G01*
X167848262Y-131330000D01*
G75*
G02*
X168120000Y-131601738I0J-271738D01*
G01*
X168120000Y-132558262D01*
G75*
G02*
X167848262Y-132830000I-271738J0D01*
G01*
X167141738Y-132830000D01*
G75*
G02*
X166870000Y-132558262I0J271738D01*
G01*
G37*
%TD*%
%TO.C,C10*%
G36*
G01*
X163986738Y-131455000D02*
X164943262Y-131455000D01*
G75*
G02*
X165215000Y-131726738I0J-271738D01*
G01*
X165215000Y-132433262D01*
G75*
G02*
X164943262Y-132705000I-271738J0D01*
G01*
X163986738Y-132705000D01*
G75*
G02*
X163715000Y-132433262I0J271738D01*
G01*
X163715000Y-131726738D01*
G75*
G02*
X163986738Y-131455000I271738J0D01*
G01*
G37*
G36*
G01*
X163986738Y-133505000D02*
X164943262Y-133505000D01*
G75*
G02*
X165215000Y-133776738I0J-271738D01*
G01*
X165215000Y-134483262D01*
G75*
G02*
X164943262Y-134755000I-271738J0D01*
G01*
X163986738Y-134755000D01*
G75*
G02*
X163715000Y-134483262I0J271738D01*
G01*
X163715000Y-133776738D01*
G75*
G02*
X163986738Y-133505000I271738J0D01*
G01*
G37*
%TD*%
D12*
%TO.C,J1*%
X140725000Y-136310000D03*
X136525000Y-136310000D03*
X140725000Y-130810000D03*
D13*
X136525000Y-130810000D03*
%TD*%
D14*
%TO.C,J3*%
X224790000Y-19685000D03*
X224790000Y-17145000D03*
X224790000Y-14605000D03*
D15*
X224790000Y-12065000D03*
%TD*%
%TO.C,J4*%
X241935000Y-12065000D03*
D14*
X241935000Y-14605000D03*
X241935000Y-17145000D03*
X241935000Y-19685000D03*
%TD*%
D15*
%TO.C,J5.1*%
X96520000Y-68580000D03*
D14*
X96520000Y-71120000D03*
X96520000Y-73660000D03*
X96520000Y-76200000D03*
X96520000Y-78740000D03*
X96520000Y-81280000D03*
%TD*%
%TO.C,J5.2*%
X254259080Y-81280000D03*
X254259080Y-78740000D03*
X254259080Y-76200000D03*
X254259080Y-73660000D03*
X254259080Y-71120000D03*
D15*
X254259080Y-68580000D03*
%TD*%
%TO.C,J6*%
X240665000Y-69850000D03*
D14*
X240665000Y-67310000D03*
X240665000Y-64770000D03*
X240665000Y-62230000D03*
X240665000Y-59690000D03*
X240665000Y-57150000D03*
X240665000Y-54610000D03*
X240665000Y-52070000D03*
%TD*%
D13*
%TO.C,J7*%
X186055000Y-13335000D03*
D12*
X186055000Y-17535000D03*
X180555000Y-13335000D03*
X180555000Y-17535000D03*
%TD*%
D15*
%TO.C,J8*%
X149225000Y-146685000D03*
D14*
X151765000Y-146685000D03*
X154305000Y-146685000D03*
X156845000Y-146685000D03*
X159385000Y-146685000D03*
X161925000Y-146685000D03*
%TD*%
D15*
%TO.C,J9*%
X161290000Y-80645000D03*
D14*
X161290000Y-78105000D03*
%TD*%
%TO.C,L1*%
G36*
G01*
X164965000Y-130018262D02*
X164965000Y-129061738D01*
G75*
G02*
X165236738Y-128790000I271738J0D01*
G01*
X165943262Y-128790000D01*
G75*
G02*
X166215000Y-129061738I0J-271738D01*
G01*
X166215000Y-130018262D01*
G75*
G02*
X165943262Y-130290000I-271738J0D01*
G01*
X165236738Y-130290000D01*
G75*
G02*
X164965000Y-130018262I0J271738D01*
G01*
G37*
G36*
G01*
X167015000Y-130018262D02*
X167015000Y-129061738D01*
G75*
G02*
X167286738Y-128790000I271738J0D01*
G01*
X167993262Y-128790000D01*
G75*
G02*
X168265000Y-129061738I0J-271738D01*
G01*
X168265000Y-130018262D01*
G75*
G02*
X167993262Y-130290000I-271738J0D01*
G01*
X167286738Y-130290000D01*
G75*
G02*
X167015000Y-130018262I0J271738D01*
G01*
G37*
%TD*%
D16*
%TO.C,U4*%
X156845000Y-25400000D03*
D17*
X156845000Y-20320000D03*
X136525000Y-12700000D03*
X136525000Y-33020000D03*
X156845000Y-33020000D03*
X136525000Y-22860000D03*
%TD*%
M02*
