%TF.GenerationSoftware,KiCad,Pcbnew,(5.1.6)-1*%
%TF.CreationDate,2021-02-04T22:49:39-05:00*%
%TF.ProjectId,Logic,4c6f6769-632e-46b6-9963-61645f706362,rev?*%
%TF.SameCoordinates,Original*%
%TF.FileFunction,Legend,Top*%
%TF.FilePolarity,Positive*%
%FSLAX46Y46*%
G04 Gerber Fmt 4.6, Leading zero omitted, Abs format (unit mm)*
G04 Created by KiCad (PCBNEW (5.1.6)-1) date 2021-02-04 22:49:39*
%MOMM*%
%LPD*%
G01*
G04 APERTURE LIST*
%ADD10C,0.150000*%
%ADD11C,0.500000*%
%ADD12C,0.200000*%
%ADD13C,0.010000*%
%ADD14C,0.120000*%
%ADD15C,0.152400*%
%ADD16C,0.400000*%
%ADD17C,0.127000*%
%ADD18C,0.015000*%
G04 APERTURE END LIST*
D10*
X214885714Y-139438571D02*
X215219047Y-139438571D01*
X215361904Y-139962380D02*
X214885714Y-139962380D01*
X214885714Y-138962380D01*
X215361904Y-138962380D01*
X215933333Y-139962380D02*
X215838095Y-139914761D01*
X215790476Y-139819523D01*
X215790476Y-138962380D01*
X216695238Y-139914761D02*
X216600000Y-139962380D01*
X216409523Y-139962380D01*
X216314285Y-139914761D01*
X216266666Y-139819523D01*
X216266666Y-139438571D01*
X216314285Y-139343333D01*
X216409523Y-139295714D01*
X216600000Y-139295714D01*
X216695238Y-139343333D01*
X216742857Y-139438571D01*
X216742857Y-139533809D01*
X216266666Y-139629047D01*
X217600000Y-139914761D02*
X217504761Y-139962380D01*
X217314285Y-139962380D01*
X217219047Y-139914761D01*
X217171428Y-139867142D01*
X217123809Y-139771904D01*
X217123809Y-139486190D01*
X217171428Y-139390952D01*
X217219047Y-139343333D01*
X217314285Y-139295714D01*
X217504761Y-139295714D01*
X217600000Y-139343333D01*
X217885714Y-139295714D02*
X218266666Y-139295714D01*
X218028571Y-138962380D02*
X218028571Y-139819523D01*
X218076190Y-139914761D01*
X218171428Y-139962380D01*
X218266666Y-139962380D01*
X218600000Y-139962380D02*
X218600000Y-139295714D01*
X218600000Y-139486190D02*
X218647619Y-139390952D01*
X218695238Y-139343333D01*
X218790476Y-139295714D01*
X218885714Y-139295714D01*
X219219047Y-139962380D02*
X219219047Y-139295714D01*
X219219047Y-138962380D02*
X219171428Y-139010000D01*
X219219047Y-139057619D01*
X219266666Y-139010000D01*
X219219047Y-138962380D01*
X219219047Y-139057619D01*
X220123809Y-139914761D02*
X220028571Y-139962380D01*
X219838095Y-139962380D01*
X219742857Y-139914761D01*
X219695238Y-139867142D01*
X219647619Y-139771904D01*
X219647619Y-139486190D01*
X219695238Y-139390952D01*
X219742857Y-139343333D01*
X219838095Y-139295714D01*
X220028571Y-139295714D01*
X220123809Y-139343333D01*
X220980952Y-139962380D02*
X220980952Y-139438571D01*
X220933333Y-139343333D01*
X220838095Y-139295714D01*
X220647619Y-139295714D01*
X220552380Y-139343333D01*
X220980952Y-139914761D02*
X220885714Y-139962380D01*
X220647619Y-139962380D01*
X220552380Y-139914761D01*
X220504761Y-139819523D01*
X220504761Y-139724285D01*
X220552380Y-139629047D01*
X220647619Y-139581428D01*
X220885714Y-139581428D01*
X220980952Y-139533809D01*
X221600000Y-139962380D02*
X221504761Y-139914761D01*
X221457142Y-139819523D01*
X221457142Y-138962380D01*
X223171428Y-139962380D02*
X223171428Y-139438571D01*
X223123809Y-139343333D01*
X223028571Y-139295714D01*
X222838095Y-139295714D01*
X222742857Y-139343333D01*
X223171428Y-139914761D02*
X223076190Y-139962380D01*
X222838095Y-139962380D01*
X222742857Y-139914761D01*
X222695238Y-139819523D01*
X222695238Y-139724285D01*
X222742857Y-139629047D01*
X222838095Y-139581428D01*
X223076190Y-139581428D01*
X223171428Y-139533809D01*
X223647619Y-139295714D02*
X223647619Y-139962380D01*
X223647619Y-139390952D02*
X223695238Y-139343333D01*
X223790476Y-139295714D01*
X223933333Y-139295714D01*
X224028571Y-139343333D01*
X224076190Y-139438571D01*
X224076190Y-139962380D01*
X224980952Y-139962380D02*
X224980952Y-138962380D01*
X224980952Y-139914761D02*
X224885714Y-139962380D01*
X224695238Y-139962380D01*
X224600000Y-139914761D01*
X224552380Y-139867142D01*
X224504761Y-139771904D01*
X224504761Y-139486190D01*
X224552380Y-139390952D01*
X224600000Y-139343333D01*
X224695238Y-139295714D01*
X224885714Y-139295714D01*
X224980952Y-139343333D01*
X226790476Y-139867142D02*
X226742857Y-139914761D01*
X226600000Y-139962380D01*
X226504761Y-139962380D01*
X226361904Y-139914761D01*
X226266666Y-139819523D01*
X226219047Y-139724285D01*
X226171428Y-139533809D01*
X226171428Y-139390952D01*
X226219047Y-139200476D01*
X226266666Y-139105238D01*
X226361904Y-139010000D01*
X226504761Y-138962380D01*
X226600000Y-138962380D01*
X226742857Y-139010000D01*
X226790476Y-139057619D01*
X227361904Y-139962380D02*
X227266666Y-139914761D01*
X227219047Y-139867142D01*
X227171428Y-139771904D01*
X227171428Y-139486190D01*
X227219047Y-139390952D01*
X227266666Y-139343333D01*
X227361904Y-139295714D01*
X227504761Y-139295714D01*
X227600000Y-139343333D01*
X227647619Y-139390952D01*
X227695238Y-139486190D01*
X227695238Y-139771904D01*
X227647619Y-139867142D01*
X227600000Y-139914761D01*
X227504761Y-139962380D01*
X227361904Y-139962380D01*
X228123809Y-139962380D02*
X228123809Y-139295714D01*
X228123809Y-139390952D02*
X228171428Y-139343333D01*
X228266666Y-139295714D01*
X228409523Y-139295714D01*
X228504761Y-139343333D01*
X228552380Y-139438571D01*
X228552380Y-139962380D01*
X228552380Y-139438571D02*
X228600000Y-139343333D01*
X228695238Y-139295714D01*
X228838095Y-139295714D01*
X228933333Y-139343333D01*
X228980952Y-139438571D01*
X228980952Y-139962380D01*
X229457142Y-139295714D02*
X229457142Y-140295714D01*
X229457142Y-139343333D02*
X229552380Y-139295714D01*
X229742857Y-139295714D01*
X229838095Y-139343333D01*
X229885714Y-139390952D01*
X229933333Y-139486190D01*
X229933333Y-139771904D01*
X229885714Y-139867142D01*
X229838095Y-139914761D01*
X229742857Y-139962380D01*
X229552380Y-139962380D01*
X229457142Y-139914761D01*
X230790476Y-139295714D02*
X230790476Y-139962380D01*
X230361904Y-139295714D02*
X230361904Y-139819523D01*
X230409523Y-139914761D01*
X230504761Y-139962380D01*
X230647619Y-139962380D01*
X230742857Y-139914761D01*
X230790476Y-139867142D01*
X231123809Y-139295714D02*
X231504761Y-139295714D01*
X231266666Y-138962380D02*
X231266666Y-139819523D01*
X231314285Y-139914761D01*
X231409523Y-139962380D01*
X231504761Y-139962380D01*
X232219047Y-139914761D02*
X232123809Y-139962380D01*
X231933333Y-139962380D01*
X231838095Y-139914761D01*
X231790476Y-139819523D01*
X231790476Y-139438571D01*
X231838095Y-139343333D01*
X231933333Y-139295714D01*
X232123809Y-139295714D01*
X232219047Y-139343333D01*
X232266666Y-139438571D01*
X232266666Y-139533809D01*
X231790476Y-139629047D01*
X232695238Y-139962380D02*
X232695238Y-139295714D01*
X232695238Y-139486190D02*
X232742857Y-139390952D01*
X232790476Y-139343333D01*
X232885714Y-139295714D01*
X232980952Y-139295714D01*
X234076190Y-139438571D02*
X234409523Y-139438571D01*
X234552380Y-139962380D02*
X234076190Y-139962380D01*
X234076190Y-138962380D01*
X234552380Y-138962380D01*
X234980952Y-139295714D02*
X234980952Y-139962380D01*
X234980952Y-139390952D02*
X235028571Y-139343333D01*
X235123809Y-139295714D01*
X235266666Y-139295714D01*
X235361904Y-139343333D01*
X235409523Y-139438571D01*
X235409523Y-139962380D01*
X236314285Y-139295714D02*
X236314285Y-140105238D01*
X236266666Y-140200476D01*
X236219047Y-140248095D01*
X236123809Y-140295714D01*
X235980952Y-140295714D01*
X235885714Y-140248095D01*
X236314285Y-139914761D02*
X236219047Y-139962380D01*
X236028571Y-139962380D01*
X235933333Y-139914761D01*
X235885714Y-139867142D01*
X235838095Y-139771904D01*
X235838095Y-139486190D01*
X235885714Y-139390952D01*
X235933333Y-139343333D01*
X236028571Y-139295714D01*
X236219047Y-139295714D01*
X236314285Y-139343333D01*
X236790476Y-139962380D02*
X236790476Y-139295714D01*
X236790476Y-138962380D02*
X236742857Y-139010000D01*
X236790476Y-139057619D01*
X236838095Y-139010000D01*
X236790476Y-138962380D01*
X236790476Y-139057619D01*
X237266666Y-139295714D02*
X237266666Y-139962380D01*
X237266666Y-139390952D02*
X237314285Y-139343333D01*
X237409523Y-139295714D01*
X237552380Y-139295714D01*
X237647619Y-139343333D01*
X237695238Y-139438571D01*
X237695238Y-139962380D01*
X238552380Y-139914761D02*
X238457142Y-139962380D01*
X238266666Y-139962380D01*
X238171428Y-139914761D01*
X238123809Y-139819523D01*
X238123809Y-139438571D01*
X238171428Y-139343333D01*
X238266666Y-139295714D01*
X238457142Y-139295714D01*
X238552380Y-139343333D01*
X238600000Y-139438571D01*
X238600000Y-139533809D01*
X238123809Y-139629047D01*
X239409523Y-139914761D02*
X239314285Y-139962380D01*
X239123809Y-139962380D01*
X239028571Y-139914761D01*
X238980952Y-139819523D01*
X238980952Y-139438571D01*
X239028571Y-139343333D01*
X239123809Y-139295714D01*
X239314285Y-139295714D01*
X239409523Y-139343333D01*
X239457142Y-139438571D01*
X239457142Y-139533809D01*
X238980952Y-139629047D01*
X239885714Y-139962380D02*
X239885714Y-139295714D01*
X239885714Y-139486190D02*
X239933333Y-139390952D01*
X239980952Y-139343333D01*
X240076190Y-139295714D01*
X240171428Y-139295714D01*
X240504761Y-139962380D02*
X240504761Y-139295714D01*
X240504761Y-138962380D02*
X240457142Y-139010000D01*
X240504761Y-139057619D01*
X240552380Y-139010000D01*
X240504761Y-138962380D01*
X240504761Y-139057619D01*
X240980952Y-139295714D02*
X240980952Y-139962380D01*
X240980952Y-139390952D02*
X241028571Y-139343333D01*
X241123809Y-139295714D01*
X241266666Y-139295714D01*
X241361904Y-139343333D01*
X241409523Y-139438571D01*
X241409523Y-139962380D01*
X242314285Y-139295714D02*
X242314285Y-140105238D01*
X242266666Y-140200476D01*
X242219047Y-140248095D01*
X242123809Y-140295714D01*
X241980952Y-140295714D01*
X241885714Y-140248095D01*
X242314285Y-139914761D02*
X242219047Y-139962380D01*
X242028571Y-139962380D01*
X241933333Y-139914761D01*
X241885714Y-139867142D01*
X241838095Y-139771904D01*
X241838095Y-139486190D01*
X241885714Y-139390952D01*
X241933333Y-139343333D01*
X242028571Y-139295714D01*
X242219047Y-139295714D01*
X242314285Y-139343333D01*
X216528571Y-141088571D02*
X216861904Y-141088571D01*
X217004761Y-141612380D02*
X216528571Y-141612380D01*
X216528571Y-140612380D01*
X217004761Y-140612380D01*
X217290476Y-140945714D02*
X217671428Y-140945714D01*
X217433333Y-140612380D02*
X217433333Y-141469523D01*
X217480952Y-141564761D01*
X217576190Y-141612380D01*
X217671428Y-141612380D01*
X218004761Y-141612380D02*
X218004761Y-140612380D01*
X218433333Y-141612380D02*
X218433333Y-141088571D01*
X218385714Y-140993333D01*
X218290476Y-140945714D01*
X218147619Y-140945714D01*
X218052380Y-140993333D01*
X218004761Y-141040952D01*
X219338095Y-141612380D02*
X219338095Y-141088571D01*
X219290476Y-140993333D01*
X219195238Y-140945714D01*
X219004761Y-140945714D01*
X218909523Y-140993333D01*
X219338095Y-141564761D02*
X219242857Y-141612380D01*
X219004761Y-141612380D01*
X218909523Y-141564761D01*
X218861904Y-141469523D01*
X218861904Y-141374285D01*
X218909523Y-141279047D01*
X219004761Y-141231428D01*
X219242857Y-141231428D01*
X219338095Y-141183809D01*
X219814285Y-140945714D02*
X219814285Y-141612380D01*
X219814285Y-141040952D02*
X219861904Y-140993333D01*
X219957142Y-140945714D01*
X220100000Y-140945714D01*
X220195238Y-140993333D01*
X220242857Y-141088571D01*
X220242857Y-141612380D01*
X221480952Y-141612380D02*
X221480952Y-140612380D01*
X221814285Y-141326666D01*
X222147619Y-140612380D01*
X222147619Y-141612380D01*
X222623809Y-141612380D02*
X222623809Y-140945714D01*
X222623809Y-140612380D02*
X222576190Y-140660000D01*
X222623809Y-140707619D01*
X222671428Y-140660000D01*
X222623809Y-140612380D01*
X222623809Y-140707619D01*
X223242857Y-141612380D02*
X223147619Y-141564761D01*
X223100000Y-141469523D01*
X223100000Y-140612380D01*
X223766666Y-141612380D02*
X223671428Y-141564761D01*
X223623809Y-141469523D01*
X223623809Y-140612380D01*
X224528571Y-141564761D02*
X224433333Y-141612380D01*
X224242857Y-141612380D01*
X224147619Y-141564761D01*
X224100000Y-141469523D01*
X224100000Y-141088571D01*
X224147619Y-140993333D01*
X224242857Y-140945714D01*
X224433333Y-140945714D01*
X224528571Y-140993333D01*
X224576190Y-141088571D01*
X224576190Y-141183809D01*
X224100000Y-141279047D01*
X225004761Y-141612380D02*
X225004761Y-140945714D01*
X225004761Y-141136190D02*
X225052380Y-141040952D01*
X225100000Y-140993333D01*
X225195238Y-140945714D01*
X225290476Y-140945714D01*
X226814285Y-141612380D02*
X226814285Y-141088571D01*
X226766666Y-140993333D01*
X226671428Y-140945714D01*
X226480952Y-140945714D01*
X226385714Y-140993333D01*
X226814285Y-141564761D02*
X226719047Y-141612380D01*
X226480952Y-141612380D01*
X226385714Y-141564761D01*
X226338095Y-141469523D01*
X226338095Y-141374285D01*
X226385714Y-141279047D01*
X226480952Y-141231428D01*
X226719047Y-141231428D01*
X226814285Y-141183809D01*
X227290476Y-140945714D02*
X227290476Y-141612380D01*
X227290476Y-141040952D02*
X227338095Y-140993333D01*
X227433333Y-140945714D01*
X227576190Y-140945714D01*
X227671428Y-140993333D01*
X227719047Y-141088571D01*
X227719047Y-141612380D01*
X228623809Y-141612380D02*
X228623809Y-140612380D01*
X228623809Y-141564761D02*
X228528571Y-141612380D01*
X228338095Y-141612380D01*
X228242857Y-141564761D01*
X228195238Y-141517142D01*
X228147619Y-141421904D01*
X228147619Y-141136190D01*
X228195238Y-141040952D01*
X228242857Y-140993333D01*
X228338095Y-140945714D01*
X228528571Y-140945714D01*
X228623809Y-140993333D01*
X229766666Y-140612380D02*
X230433333Y-140612380D01*
X229766666Y-141612380D01*
X230433333Y-141612380D01*
X231242857Y-141612380D02*
X231242857Y-141088571D01*
X231195238Y-140993333D01*
X231100000Y-140945714D01*
X230909523Y-140945714D01*
X230814285Y-140993333D01*
X231242857Y-141564761D02*
X231147619Y-141612380D01*
X230909523Y-141612380D01*
X230814285Y-141564761D01*
X230766666Y-141469523D01*
X230766666Y-141374285D01*
X230814285Y-141279047D01*
X230909523Y-141231428D01*
X231147619Y-141231428D01*
X231242857Y-141183809D01*
X232147619Y-141564761D02*
X232052380Y-141612380D01*
X231861904Y-141612380D01*
X231766666Y-141564761D01*
X231719047Y-141517142D01*
X231671428Y-141421904D01*
X231671428Y-141136190D01*
X231719047Y-141040952D01*
X231766666Y-140993333D01*
X231861904Y-140945714D01*
X232052380Y-140945714D01*
X232147619Y-140993333D01*
X232576190Y-141612380D02*
X232576190Y-140612380D01*
X233004761Y-141612380D02*
X233004761Y-141088571D01*
X232957142Y-140993333D01*
X232861904Y-140945714D01*
X232719047Y-140945714D01*
X232623809Y-140993333D01*
X232576190Y-141040952D01*
X233909523Y-141612380D02*
X233909523Y-141088571D01*
X233861904Y-140993333D01*
X233766666Y-140945714D01*
X233576190Y-140945714D01*
X233480952Y-140993333D01*
X233909523Y-141564761D02*
X233814285Y-141612380D01*
X233576190Y-141612380D01*
X233480952Y-141564761D01*
X233433333Y-141469523D01*
X233433333Y-141374285D01*
X233480952Y-141279047D01*
X233576190Y-141231428D01*
X233814285Y-141231428D01*
X233909523Y-141183809D01*
X234385714Y-141612380D02*
X234385714Y-140945714D01*
X234385714Y-141136190D02*
X234433333Y-141040952D01*
X234480952Y-140993333D01*
X234576190Y-140945714D01*
X234671428Y-140945714D01*
X234909523Y-140945714D02*
X235147619Y-141612380D01*
X235385714Y-140945714D02*
X235147619Y-141612380D01*
X235052380Y-141850476D01*
X235004761Y-141898095D01*
X234909523Y-141945714D01*
X236528571Y-141612380D02*
X236528571Y-140612380D01*
X236861904Y-141326666D01*
X237195238Y-140612380D01*
X237195238Y-141612380D01*
X238099999Y-141612380D02*
X238099999Y-141088571D01*
X238052380Y-140993333D01*
X237957142Y-140945714D01*
X237766666Y-140945714D01*
X237671428Y-140993333D01*
X238099999Y-141564761D02*
X238004761Y-141612380D01*
X237766666Y-141612380D01*
X237671428Y-141564761D01*
X237623809Y-141469523D01*
X237623809Y-141374285D01*
X237671428Y-141279047D01*
X237766666Y-141231428D01*
X238004761Y-141231428D01*
X238099999Y-141183809D01*
X238576190Y-141612380D02*
X238576190Y-140945714D01*
X238576190Y-141136190D02*
X238623809Y-141040952D01*
X238671428Y-140993333D01*
X238766666Y-140945714D01*
X238861904Y-140945714D01*
X239052380Y-140945714D02*
X239433333Y-140945714D01*
X239195238Y-140612380D02*
X239195238Y-141469523D01*
X239242857Y-141564761D01*
X239338095Y-141612380D01*
X239433333Y-141612380D01*
X239766666Y-141612380D02*
X239766666Y-140945714D01*
X239766666Y-140612380D02*
X239719047Y-140660000D01*
X239766666Y-140707619D01*
X239814285Y-140660000D01*
X239766666Y-140612380D01*
X239766666Y-140707619D01*
X240242857Y-140945714D02*
X240242857Y-141612380D01*
X240242857Y-141040952D02*
X240290476Y-140993333D01*
X240385714Y-140945714D01*
X240528571Y-140945714D01*
X240623809Y-140993333D01*
X240671428Y-141088571D01*
X240671428Y-141612380D01*
D11*
%TO.C,U3*%
X164270001Y-122510001D02*
G75*
G03*
X164270001Y-122510001I-250000J0D01*
G01*
D12*
X162170001Y-121710001D02*
G75*
G03*
X162170001Y-121710001I-100000J0D01*
G01*
X172920001Y-121310001D02*
X172120001Y-121310001D01*
X172920001Y-122110001D02*
X172920001Y-121310001D01*
X172920001Y-131310001D02*
X172920001Y-130510001D01*
X172120001Y-131310001D02*
X172920001Y-131310001D01*
X162920001Y-131310001D02*
X163720001Y-131310001D01*
X162920001Y-130510001D02*
X162920001Y-131310001D01*
X162920001Y-121310001D02*
X162920001Y-122110001D01*
X163720001Y-121310001D02*
X162920001Y-121310001D01*
D13*
%TO.C,G\u002A\u002A\u002A*%
G36*
X198136116Y-142020405D02*
G01*
X198285991Y-142091800D01*
X198303232Y-142118691D01*
X198311480Y-142277788D01*
X198227540Y-142354820D01*
X198103703Y-142310500D01*
X198080644Y-142285921D01*
X197892975Y-142180098D01*
X197619054Y-142165861D01*
X197315188Y-142243416D01*
X197230046Y-142282826D01*
X196986705Y-142491215D01*
X196861354Y-142774331D01*
X196848609Y-143090912D01*
X196943091Y-143399696D01*
X197139418Y-143659420D01*
X197431647Y-143828639D01*
X197678466Y-143889669D01*
X197868109Y-143870288D01*
X198016155Y-143807472D01*
X198211873Y-143712158D01*
X198292139Y-143694721D01*
X198294270Y-143759999D01*
X198273579Y-143840839D01*
X198153184Y-143996170D01*
X197919367Y-144081954D01*
X197615509Y-144092572D01*
X197284990Y-144022403D01*
X197181485Y-143982320D01*
X196843461Y-143754147D01*
X196626318Y-143432728D01*
X196553666Y-143071044D01*
X196619759Y-142654861D01*
X196805681Y-142318776D01*
X197058895Y-142114433D01*
X197296994Y-142033632D01*
X197590185Y-141991145D01*
X197887037Y-141986794D01*
X198136116Y-142020405D01*
G37*
X198136116Y-142020405D02*
X198285991Y-142091800D01*
X198303232Y-142118691D01*
X198311480Y-142277788D01*
X198227540Y-142354820D01*
X198103703Y-142310500D01*
X198080644Y-142285921D01*
X197892975Y-142180098D01*
X197619054Y-142165861D01*
X197315188Y-142243416D01*
X197230046Y-142282826D01*
X196986705Y-142491215D01*
X196861354Y-142774331D01*
X196848609Y-143090912D01*
X196943091Y-143399696D01*
X197139418Y-143659420D01*
X197431647Y-143828639D01*
X197678466Y-143889669D01*
X197868109Y-143870288D01*
X198016155Y-143807472D01*
X198211873Y-143712158D01*
X198292139Y-143694721D01*
X198294270Y-143759999D01*
X198273579Y-143840839D01*
X198153184Y-143996170D01*
X197919367Y-144081954D01*
X197615509Y-144092572D01*
X197284990Y-144022403D01*
X197181485Y-143982320D01*
X196843461Y-143754147D01*
X196626318Y-143432728D01*
X196553666Y-143071044D01*
X196619759Y-142654861D01*
X196805681Y-142318776D01*
X197058895Y-142114433D01*
X197296994Y-142033632D01*
X197590185Y-141991145D01*
X197887037Y-141986794D01*
X198136116Y-142020405D01*
G36*
X199810650Y-142037987D02*
G01*
X200107809Y-142204763D01*
X200321816Y-142494935D01*
X200446089Y-142900770D01*
X200414755Y-143299166D01*
X200238877Y-143655179D01*
X199929522Y-143933865D01*
X199852395Y-143977358D01*
X199515479Y-144089974D01*
X199184375Y-144057420D01*
X198927287Y-143946742D01*
X198603686Y-143689780D01*
X198415812Y-143359709D01*
X198386951Y-143136649D01*
X198679228Y-143136649D01*
X198795551Y-143506555D01*
X198918096Y-143698349D01*
X199068324Y-143798291D01*
X199304678Y-143836860D01*
X199438741Y-143841982D01*
X199741294Y-143789157D01*
X199919298Y-143658167D01*
X200121665Y-143328012D01*
X200163325Y-142950439D01*
X200111237Y-142710425D01*
X199938428Y-142396917D01*
X199689872Y-142206591D01*
X199401883Y-142148202D01*
X199110778Y-142230509D01*
X198889526Y-142415829D01*
X198708278Y-142754471D01*
X198679228Y-143136649D01*
X198386951Y-143136649D01*
X198368009Y-142990252D01*
X198464623Y-142615132D01*
X198709997Y-142268070D01*
X198710877Y-142267189D01*
X198917111Y-142088399D01*
X199115655Y-142006284D01*
X199392485Y-141986017D01*
X199405027Y-141986000D01*
X199810650Y-142037987D01*
G37*
X199810650Y-142037987D02*
X200107809Y-142204763D01*
X200321816Y-142494935D01*
X200446089Y-142900770D01*
X200414755Y-143299166D01*
X200238877Y-143655179D01*
X199929522Y-143933865D01*
X199852395Y-143977358D01*
X199515479Y-144089974D01*
X199184375Y-144057420D01*
X198927287Y-143946742D01*
X198603686Y-143689780D01*
X198415812Y-143359709D01*
X198386951Y-143136649D01*
X198679228Y-143136649D01*
X198795551Y-143506555D01*
X198918096Y-143698349D01*
X199068324Y-143798291D01*
X199304678Y-143836860D01*
X199438741Y-143841982D01*
X199741294Y-143789157D01*
X199919298Y-143658167D01*
X200121665Y-143328012D01*
X200163325Y-142950439D01*
X200111237Y-142710425D01*
X199938428Y-142396917D01*
X199689872Y-142206591D01*
X199401883Y-142148202D01*
X199110778Y-142230509D01*
X198889526Y-142415829D01*
X198708278Y-142754471D01*
X198679228Y-143136649D01*
X198386951Y-143136649D01*
X198368009Y-142990252D01*
X198464623Y-142615132D01*
X198709997Y-142268070D01*
X198710877Y-142267189D01*
X198917111Y-142088399D01*
X199115655Y-142006284D01*
X199392485Y-141986017D01*
X199405027Y-141986000D01*
X199810650Y-142037987D01*
G36*
X206857522Y-141991142D02*
G01*
X206941546Y-142029061D01*
X206966182Y-142110664D01*
X206967666Y-142188112D01*
X206948063Y-142368032D01*
X206874961Y-142390708D01*
X206743904Y-142282333D01*
X206575318Y-142195172D01*
X206337928Y-142155556D01*
X206320106Y-142155333D01*
X206001681Y-142230015D01*
X205749627Y-142427383D01*
X205583399Y-142707419D01*
X205522448Y-143030105D01*
X205586228Y-143355424D01*
X205666398Y-143500105D01*
X205859980Y-143683470D01*
X206124082Y-143826353D01*
X206390588Y-143898789D01*
X206550548Y-143889027D01*
X206655190Y-143796592D01*
X206712312Y-143643472D01*
X206710467Y-143497325D01*
X206638210Y-143425805D01*
X206629000Y-143425333D01*
X206546793Y-143360904D01*
X206544333Y-143340667D01*
X206618762Y-143284704D01*
X206801776Y-143256731D01*
X206840666Y-143256000D01*
X207036534Y-143277265D01*
X207134440Y-143329555D01*
X207137000Y-143340667D01*
X207072570Y-143422873D01*
X207052333Y-143425333D01*
X206995556Y-143499567D01*
X206968127Y-143681266D01*
X206967666Y-143711083D01*
X206947297Y-143912051D01*
X206853508Y-144008198D01*
X206703083Y-144049750D01*
X206409082Y-144093784D01*
X206177745Y-144076464D01*
X205919083Y-143986853D01*
X205818243Y-143942214D01*
X205485496Y-143710648D01*
X205283747Y-143397883D01*
X205218935Y-143036883D01*
X205297000Y-142660616D01*
X205522953Y-142303084D01*
X205665833Y-142159983D01*
X205811010Y-142075188D01*
X206012257Y-142029407D01*
X206323344Y-142003347D01*
X206365081Y-142000940D01*
X206677553Y-141985554D01*
X206857522Y-141991142D01*
G37*
X206857522Y-141991142D02*
X206941546Y-142029061D01*
X206966182Y-142110664D01*
X206967666Y-142188112D01*
X206948063Y-142368032D01*
X206874961Y-142390708D01*
X206743904Y-142282333D01*
X206575318Y-142195172D01*
X206337928Y-142155556D01*
X206320106Y-142155333D01*
X206001681Y-142230015D01*
X205749627Y-142427383D01*
X205583399Y-142707419D01*
X205522448Y-143030105D01*
X205586228Y-143355424D01*
X205666398Y-143500105D01*
X205859980Y-143683470D01*
X206124082Y-143826353D01*
X206390588Y-143898789D01*
X206550548Y-143889027D01*
X206655190Y-143796592D01*
X206712312Y-143643472D01*
X206710467Y-143497325D01*
X206638210Y-143425805D01*
X206629000Y-143425333D01*
X206546793Y-143360904D01*
X206544333Y-143340667D01*
X206618762Y-143284704D01*
X206801776Y-143256731D01*
X206840666Y-143256000D01*
X207036534Y-143277265D01*
X207134440Y-143329555D01*
X207137000Y-143340667D01*
X207072570Y-143422873D01*
X207052333Y-143425333D01*
X206995556Y-143499567D01*
X206968127Y-143681266D01*
X206967666Y-143711083D01*
X206947297Y-143912051D01*
X206853508Y-144008198D01*
X206703083Y-144049750D01*
X206409082Y-144093784D01*
X206177745Y-144076464D01*
X205919083Y-143986853D01*
X205818243Y-143942214D01*
X205485496Y-143710648D01*
X205283747Y-143397883D01*
X205218935Y-143036883D01*
X205297000Y-142660616D01*
X205522953Y-142303084D01*
X205665833Y-142159983D01*
X205811010Y-142075188D01*
X206012257Y-142029407D01*
X206323344Y-142003347D01*
X206365081Y-142000940D01*
X206677553Y-141985554D01*
X206857522Y-141991142D01*
G36*
X201141219Y-142002816D02*
G01*
X201277517Y-142045364D01*
X201295000Y-142070667D01*
X201226423Y-142145781D01*
X201168000Y-142155333D01*
X201108777Y-142183311D01*
X201070755Y-142285814D01*
X201049755Y-142490693D01*
X201041601Y-142825801D01*
X201041000Y-143002000D01*
X201041000Y-143848667D01*
X201276161Y-143848667D01*
X201529607Y-143798651D01*
X201704969Y-143713031D01*
X201874988Y-143616599D01*
X201941672Y-143649916D01*
X201919401Y-143821005D01*
X201916767Y-143831197D01*
X201878953Y-143924845D01*
X201801259Y-143980631D01*
X201646449Y-144008238D01*
X201377289Y-144017351D01*
X201198506Y-144018000D01*
X200529096Y-144018000D01*
X200667063Y-143807436D01*
X200730058Y-143628820D01*
X200768081Y-143355031D01*
X200781968Y-143032287D01*
X200772555Y-142706803D01*
X200740680Y-142424799D01*
X200687177Y-142232490D01*
X200637545Y-142176070D01*
X200527969Y-142108809D01*
X200564169Y-142044358D01*
X200723091Y-141998568D01*
X200914000Y-141986000D01*
X201141219Y-142002816D01*
G37*
X201141219Y-142002816D02*
X201277517Y-142045364D01*
X201295000Y-142070667D01*
X201226423Y-142145781D01*
X201168000Y-142155333D01*
X201108777Y-142183311D01*
X201070755Y-142285814D01*
X201049755Y-142490693D01*
X201041601Y-142825801D01*
X201041000Y-143002000D01*
X201041000Y-143848667D01*
X201276161Y-143848667D01*
X201529607Y-143798651D01*
X201704969Y-143713031D01*
X201874988Y-143616599D01*
X201941672Y-143649916D01*
X201919401Y-143821005D01*
X201916767Y-143831197D01*
X201878953Y-143924845D01*
X201801259Y-143980631D01*
X201646449Y-144008238D01*
X201377289Y-144017351D01*
X201198506Y-144018000D01*
X200529096Y-144018000D01*
X200667063Y-143807436D01*
X200730058Y-143628820D01*
X200768081Y-143355031D01*
X200781968Y-143032287D01*
X200772555Y-142706803D01*
X200740680Y-142424799D01*
X200687177Y-142232490D01*
X200637545Y-142176070D01*
X200527969Y-142108809D01*
X200564169Y-142044358D01*
X200723091Y-141998568D01*
X200914000Y-141986000D01*
X201141219Y-142002816D01*
G36*
X202686582Y-142006704D02*
G01*
X202809946Y-142060039D01*
X202791673Y-142132833D01*
X202688803Y-142187177D01*
X202626648Y-142240499D01*
X202590540Y-142362667D01*
X202576500Y-142585061D01*
X202580548Y-142939058D01*
X202582970Y-143021736D01*
X202607333Y-143806333D01*
X202845639Y-143833652D01*
X203097943Y-143807245D01*
X203290139Y-143725867D01*
X203444775Y-143651078D01*
X203493267Y-143705141D01*
X203444941Y-143884075D01*
X203384734Y-143952981D01*
X203247344Y-143993841D01*
X202999913Y-144012476D01*
X202704108Y-144015307D01*
X202369273Y-144010526D01*
X202179788Y-143996034D01*
X202111730Y-143966741D01*
X202141177Y-143917559D01*
X202162833Y-143900140D01*
X202237653Y-143763499D01*
X202289883Y-143514587D01*
X202318957Y-143199235D01*
X202324310Y-142863273D01*
X202305374Y-142552535D01*
X202261584Y-142312850D01*
X202192375Y-142190051D01*
X202184000Y-142185951D01*
X202061238Y-142108068D01*
X202090881Y-142040309D01*
X202256032Y-141995977D01*
X202438000Y-141986000D01*
X202686582Y-142006704D01*
G37*
X202686582Y-142006704D02*
X202809946Y-142060039D01*
X202791673Y-142132833D01*
X202688803Y-142187177D01*
X202626648Y-142240499D01*
X202590540Y-142362667D01*
X202576500Y-142585061D01*
X202580548Y-142939058D01*
X202582970Y-143021736D01*
X202607333Y-143806333D01*
X202845639Y-143833652D01*
X203097943Y-143807245D01*
X203290139Y-143725867D01*
X203444775Y-143651078D01*
X203493267Y-143705141D01*
X203444941Y-143884075D01*
X203384734Y-143952981D01*
X203247344Y-143993841D01*
X202999913Y-144012476D01*
X202704108Y-144015307D01*
X202369273Y-144010526D01*
X202179788Y-143996034D01*
X202111730Y-143966741D01*
X202141177Y-143917559D01*
X202162833Y-143900140D01*
X202237653Y-143763499D01*
X202289883Y-143514587D01*
X202318957Y-143199235D01*
X202324310Y-142863273D01*
X202305374Y-142552535D01*
X202261584Y-142312850D01*
X202192375Y-142190051D01*
X202184000Y-142185951D01*
X202061238Y-142108068D01*
X202090881Y-142040309D01*
X202256032Y-141995977D01*
X202438000Y-141986000D01*
X202686582Y-142006704D01*
G36*
X204678929Y-141988255D02*
G01*
X204880077Y-142002220D01*
X204980992Y-142038690D01*
X205016223Y-142108462D01*
X205020333Y-142197667D01*
X205015636Y-142348031D01*
X204972592Y-142395595D01*
X204847764Y-142351847D01*
X204704711Y-142281139D01*
X204436353Y-142193002D01*
X204262507Y-142245000D01*
X204180948Y-142438287D01*
X204173666Y-142556540D01*
X204173666Y-142854962D01*
X204512333Y-142809538D01*
X204728862Y-142789805D01*
X204825996Y-142822764D01*
X204850641Y-142929207D01*
X204851000Y-142959667D01*
X204834876Y-143082533D01*
X204755234Y-143127938D01*
X204565167Y-143116675D01*
X204512333Y-143109795D01*
X204173666Y-143064371D01*
X204173666Y-143456519D01*
X204179885Y-143695052D01*
X204219964Y-143809670D01*
X204326036Y-143845782D01*
X204451161Y-143848667D01*
X204709433Y-143807939D01*
X204916827Y-143716866D01*
X205060308Y-143646031D01*
X205102161Y-143708542D01*
X205053608Y-143884075D01*
X204995739Y-143951144D01*
X204863708Y-143991785D01*
X204625383Y-144011387D01*
X204270441Y-144015425D01*
X203915155Y-144008774D01*
X203714504Y-143990433D01*
X203654053Y-143958205D01*
X203686833Y-143926551D01*
X203756140Y-143861990D01*
X203800268Y-143743736D01*
X203824483Y-143538759D01*
X203834057Y-143214033D01*
X203835000Y-142997793D01*
X203826912Y-142605842D01*
X203804296Y-142322648D01*
X203769616Y-142172759D01*
X203750333Y-142155333D01*
X203668126Y-142090904D01*
X203665666Y-142070667D01*
X203744882Y-142028737D01*
X203961152Y-141999273D01*
X204282407Y-141986282D01*
X204343000Y-141986000D01*
X204678929Y-141988255D01*
G37*
X204678929Y-141988255D02*
X204880077Y-142002220D01*
X204980992Y-142038690D01*
X205016223Y-142108462D01*
X205020333Y-142197667D01*
X205015636Y-142348031D01*
X204972592Y-142395595D01*
X204847764Y-142351847D01*
X204704711Y-142281139D01*
X204436353Y-142193002D01*
X204262507Y-142245000D01*
X204180948Y-142438287D01*
X204173666Y-142556540D01*
X204173666Y-142854962D01*
X204512333Y-142809538D01*
X204728862Y-142789805D01*
X204825996Y-142822764D01*
X204850641Y-142929207D01*
X204851000Y-142959667D01*
X204834876Y-143082533D01*
X204755234Y-143127938D01*
X204565167Y-143116675D01*
X204512333Y-143109795D01*
X204173666Y-143064371D01*
X204173666Y-143456519D01*
X204179885Y-143695052D01*
X204219964Y-143809670D01*
X204326036Y-143845782D01*
X204451161Y-143848667D01*
X204709433Y-143807939D01*
X204916827Y-143716866D01*
X205060308Y-143646031D01*
X205102161Y-143708542D01*
X205053608Y-143884075D01*
X204995739Y-143951144D01*
X204863708Y-143991785D01*
X204625383Y-144011387D01*
X204270441Y-144015425D01*
X203915155Y-144008774D01*
X203714504Y-143990433D01*
X203654053Y-143958205D01*
X203686833Y-143926551D01*
X203756140Y-143861990D01*
X203800268Y-143743736D01*
X203824483Y-143538759D01*
X203834057Y-143214033D01*
X203835000Y-142997793D01*
X203826912Y-142605842D01*
X203804296Y-142322648D01*
X203769616Y-142172759D01*
X203750333Y-142155333D01*
X203668126Y-142090904D01*
X203665666Y-142070667D01*
X203744882Y-142028737D01*
X203961152Y-141999273D01*
X204282407Y-141986282D01*
X204343000Y-141986000D01*
X204678929Y-141988255D01*
G36*
X208282127Y-141987760D02*
G01*
X208491960Y-141999700D01*
X208597654Y-142031806D01*
X208631804Y-142094065D01*
X208627008Y-142196464D01*
X208626866Y-142197802D01*
X208592246Y-142361823D01*
X208542491Y-142471104D01*
X208501803Y-142485623D01*
X208491666Y-142421349D01*
X208421231Y-142320374D01*
X208274456Y-142237892D01*
X208008271Y-142201253D01*
X207818811Y-142304944D01*
X207732305Y-142531990D01*
X207729666Y-142590538D01*
X207740378Y-142755575D01*
X207804708Y-142823525D01*
X207970948Y-142826845D01*
X208068333Y-142818155D01*
X208286709Y-142808534D01*
X208384326Y-142848511D01*
X208406996Y-142957230D01*
X208407000Y-142959667D01*
X208385168Y-143069658D01*
X208289133Y-143110598D01*
X208073081Y-143101628D01*
X208068333Y-143101178D01*
X207851952Y-143088852D01*
X207755403Y-143128890D01*
X207730429Y-143253162D01*
X207729666Y-143324849D01*
X207746256Y-143556009D01*
X207781058Y-143714742D01*
X207900467Y-143815973D01*
X208114127Y-143846066D01*
X208362916Y-143805642D01*
X208572401Y-143706424D01*
X208711938Y-143614919D01*
X208746728Y-143625091D01*
X208718240Y-143713349D01*
X208669124Y-143879284D01*
X208661000Y-143940258D01*
X208582746Y-143974658D01*
X208373520Y-144000636D01*
X208071621Y-144014307D01*
X207920166Y-144015425D01*
X207561814Y-144008818D01*
X207358209Y-143990625D01*
X207295027Y-143958700D01*
X207327500Y-143926551D01*
X207398340Y-143859989D01*
X207442800Y-143737797D01*
X207466527Y-143526102D01*
X207475163Y-143191031D01*
X207475666Y-143037469D01*
X207470056Y-142644285D01*
X207450319Y-142390938D01*
X207412099Y-142248212D01*
X207351038Y-142186893D01*
X207348666Y-142185951D01*
X207220946Y-142111429D01*
X207253278Y-142051593D01*
X207436781Y-142009466D01*
X207762574Y-141988074D01*
X207935557Y-141986000D01*
X208282127Y-141987760D01*
G37*
X208282127Y-141987760D02*
X208491960Y-141999700D01*
X208597654Y-142031806D01*
X208631804Y-142094065D01*
X208627008Y-142196464D01*
X208626866Y-142197802D01*
X208592246Y-142361823D01*
X208542491Y-142471104D01*
X208501803Y-142485623D01*
X208491666Y-142421349D01*
X208421231Y-142320374D01*
X208274456Y-142237892D01*
X208008271Y-142201253D01*
X207818811Y-142304944D01*
X207732305Y-142531990D01*
X207729666Y-142590538D01*
X207740378Y-142755575D01*
X207804708Y-142823525D01*
X207970948Y-142826845D01*
X208068333Y-142818155D01*
X208286709Y-142808534D01*
X208384326Y-142848511D01*
X208406996Y-142957230D01*
X208407000Y-142959667D01*
X208385168Y-143069658D01*
X208289133Y-143110598D01*
X208073081Y-143101628D01*
X208068333Y-143101178D01*
X207851952Y-143088852D01*
X207755403Y-143128890D01*
X207730429Y-143253162D01*
X207729666Y-143324849D01*
X207746256Y-143556009D01*
X207781058Y-143714742D01*
X207900467Y-143815973D01*
X208114127Y-143846066D01*
X208362916Y-143805642D01*
X208572401Y-143706424D01*
X208711938Y-143614919D01*
X208746728Y-143625091D01*
X208718240Y-143713349D01*
X208669124Y-143879284D01*
X208661000Y-143940258D01*
X208582746Y-143974658D01*
X208373520Y-144000636D01*
X208071621Y-144014307D01*
X207920166Y-144015425D01*
X207561814Y-144008818D01*
X207358209Y-143990625D01*
X207295027Y-143958700D01*
X207327500Y-143926551D01*
X207398340Y-143859989D01*
X207442800Y-143737797D01*
X207466527Y-143526102D01*
X207475163Y-143191031D01*
X207475666Y-143037469D01*
X207470056Y-142644285D01*
X207450319Y-142390938D01*
X207412099Y-142248212D01*
X207351038Y-142186893D01*
X207348666Y-142185951D01*
X207220946Y-142111429D01*
X207253278Y-142051593D01*
X207436781Y-142009466D01*
X207762574Y-141988074D01*
X207935557Y-141986000D01*
X208282127Y-141987760D01*
G36*
X202556345Y-141098087D02*
G01*
X202621226Y-141159274D01*
X202713228Y-141289901D01*
X202670728Y-141409437D01*
X202653193Y-141431417D01*
X202535127Y-141539885D01*
X202480333Y-141562667D01*
X202379714Y-141505091D01*
X202307473Y-141431417D01*
X202245460Y-141306736D01*
X202316557Y-141182814D01*
X202339439Y-141159274D01*
X202458467Y-141064352D01*
X202556345Y-141098087D01*
G37*
X202556345Y-141098087D02*
X202621226Y-141159274D01*
X202713228Y-141289901D01*
X202670728Y-141409437D01*
X202653193Y-141431417D01*
X202535127Y-141539885D01*
X202480333Y-141562667D01*
X202379714Y-141505091D01*
X202307473Y-141431417D01*
X202245460Y-141306736D01*
X202316557Y-141182814D01*
X202339439Y-141159274D01*
X202458467Y-141064352D01*
X202556345Y-141098087D01*
G36*
X198966963Y-141225716D02*
G01*
X199878395Y-141230826D01*
X200634848Y-141239274D01*
X201233539Y-141251003D01*
X201671683Y-141265956D01*
X201946495Y-141284076D01*
X202055193Y-141305307D01*
X202057000Y-141308667D01*
X201975641Y-141327991D01*
X201744765Y-141344903D01*
X201384170Y-141359405D01*
X200913653Y-141371496D01*
X200353015Y-141381175D01*
X199722052Y-141388443D01*
X199040564Y-141393300D01*
X198328349Y-141395746D01*
X197605205Y-141395780D01*
X196890931Y-141393404D01*
X196205325Y-141388616D01*
X195568185Y-141381417D01*
X194999311Y-141371807D01*
X194518500Y-141359786D01*
X194145551Y-141345354D01*
X193900263Y-141328510D01*
X193802433Y-141309255D01*
X193802000Y-141308667D01*
X193871850Y-141286638D01*
X194109933Y-141267884D01*
X194515178Y-141252428D01*
X195086515Y-141240291D01*
X195822874Y-141231495D01*
X196723186Y-141226064D01*
X197786380Y-141224017D01*
X197903336Y-141224000D01*
X198966963Y-141225716D01*
G37*
X198966963Y-141225716D02*
X199878395Y-141230826D01*
X200634848Y-141239274D01*
X201233539Y-141251003D01*
X201671683Y-141265956D01*
X201946495Y-141284076D01*
X202055193Y-141305307D01*
X202057000Y-141308667D01*
X201975641Y-141327991D01*
X201744765Y-141344903D01*
X201384170Y-141359405D01*
X200913653Y-141371496D01*
X200353015Y-141381175D01*
X199722052Y-141388443D01*
X199040564Y-141393300D01*
X198328349Y-141395746D01*
X197605205Y-141395780D01*
X196890931Y-141393404D01*
X196205325Y-141388616D01*
X195568185Y-141381417D01*
X194999311Y-141371807D01*
X194518500Y-141359786D01*
X194145551Y-141345354D01*
X193900263Y-141328510D01*
X193802433Y-141309255D01*
X193802000Y-141308667D01*
X193871850Y-141286638D01*
X194109933Y-141267884D01*
X194515178Y-141252428D01*
X195086515Y-141240291D01*
X195822874Y-141231495D01*
X196723186Y-141226064D01*
X197786380Y-141224017D01*
X197903336Y-141224000D01*
X198966963Y-141225716D01*
G36*
X208193298Y-141225650D02*
G01*
X209128977Y-141230585D01*
X209900680Y-141238786D01*
X210507385Y-141250231D01*
X210948069Y-141264901D01*
X211221709Y-141282775D01*
X211327284Y-141303832D01*
X211328000Y-141308667D01*
X211234034Y-141327874D01*
X210990556Y-141344695D01*
X210617368Y-141359130D01*
X210134276Y-141371179D01*
X209561082Y-141380841D01*
X208917590Y-141388118D01*
X208223605Y-141393009D01*
X207498929Y-141395514D01*
X206763367Y-141395632D01*
X206036723Y-141393365D01*
X205338800Y-141388711D01*
X204689402Y-141381672D01*
X204108333Y-141372246D01*
X203615396Y-141360434D01*
X203230396Y-141346237D01*
X202973136Y-141329653D01*
X202863420Y-141310683D01*
X202861333Y-141308667D01*
X202931410Y-141286942D01*
X203169768Y-141268397D01*
X203575385Y-141253051D01*
X204147238Y-141240925D01*
X204884304Y-141232040D01*
X205785561Y-141226416D01*
X206849987Y-141224073D01*
X207094666Y-141224000D01*
X208193298Y-141225650D01*
G37*
X208193298Y-141225650D02*
X209128977Y-141230585D01*
X209900680Y-141238786D01*
X210507385Y-141250231D01*
X210948069Y-141264901D01*
X211221709Y-141282775D01*
X211327284Y-141303832D01*
X211328000Y-141308667D01*
X211234034Y-141327874D01*
X210990556Y-141344695D01*
X210617368Y-141359130D01*
X210134276Y-141371179D01*
X209561082Y-141380841D01*
X208917590Y-141388118D01*
X208223605Y-141393009D01*
X207498929Y-141395514D01*
X206763367Y-141395632D01*
X206036723Y-141393365D01*
X205338800Y-141388711D01*
X204689402Y-141381672D01*
X204108333Y-141372246D01*
X203615396Y-141360434D01*
X203230396Y-141346237D01*
X202973136Y-141329653D01*
X202863420Y-141310683D01*
X202861333Y-141308667D01*
X202931410Y-141286942D01*
X203169768Y-141268397D01*
X203575385Y-141253051D01*
X204147238Y-141240925D01*
X204884304Y-141232040D01*
X205785561Y-141226416D01*
X206849987Y-141224073D01*
X207094666Y-141224000D01*
X208193298Y-141225650D01*
G36*
X197020871Y-139095944D02*
G01*
X197186482Y-139526558D01*
X197338805Y-139906060D01*
X197464942Y-140203532D01*
X197551998Y-140388058D01*
X197576451Y-140427842D01*
X197737948Y-140526470D01*
X197932452Y-140536114D01*
X198083127Y-140458945D01*
X198110941Y-140412742D01*
X198131569Y-140277498D01*
X198148246Y-140013048D01*
X198159096Y-139659504D01*
X198162333Y-139315373D01*
X198159707Y-138892915D01*
X198148067Y-138605148D01*
X198121767Y-138417464D01*
X198075163Y-138295254D01*
X198002609Y-138203909D01*
X197977035Y-138179298D01*
X197791736Y-138006666D01*
X198696701Y-138006666D01*
X199601666Y-138006667D01*
X199601666Y-138591636D01*
X199393848Y-138383818D01*
X199113195Y-138208297D01*
X198888827Y-138176000D01*
X198626320Y-138230719D01*
X198474584Y-138401854D01*
X198426381Y-138699870D01*
X198432602Y-138835751D01*
X198464134Y-139044110D01*
X198547547Y-139138138D01*
X198736773Y-139172823D01*
X198765635Y-139175316D01*
X199063709Y-139148961D01*
X199210135Y-139063435D01*
X199300444Y-138988506D01*
X199339096Y-139027883D01*
X199347638Y-139207858D01*
X199347666Y-139231264D01*
X199338726Y-139427825D01*
X199293496Y-139489169D01*
X199184362Y-139449192D01*
X199174421Y-139443906D01*
X198965622Y-139385142D01*
X198729921Y-139377427D01*
X198542609Y-139416379D01*
X198459230Y-139521435D01*
X198430981Y-139694312D01*
X198425571Y-140019087D01*
X198466260Y-140297498D01*
X198543038Y-140487066D01*
X198631836Y-140546667D01*
X198742023Y-140593619D01*
X198755000Y-140631333D01*
X198674261Y-140670088D01*
X198447344Y-140698281D01*
X198097195Y-140713728D01*
X197866000Y-140716000D01*
X197501071Y-140709119D01*
X197208737Y-140690510D01*
X197023968Y-140663227D01*
X196977000Y-140638389D01*
X197043548Y-140543115D01*
X197077151Y-140527394D01*
X197128512Y-140463235D01*
X197117074Y-140302928D01*
X197065104Y-140093278D01*
X196952906Y-139692545D01*
X195918666Y-139742333D01*
X195751047Y-140229167D01*
X195583427Y-140716000D01*
X194713880Y-140716000D01*
X194353302Y-140709152D01*
X194065707Y-140690657D01*
X193886457Y-140663591D01*
X193844333Y-140640392D01*
X193911712Y-140547835D01*
X193971333Y-140516049D01*
X194024565Y-140467183D01*
X194061081Y-140351464D01*
X194083681Y-140143228D01*
X194095164Y-139816814D01*
X194098333Y-139352158D01*
X194095593Y-138887849D01*
X194085034Y-138563765D01*
X194063151Y-138350849D01*
X194026436Y-138220047D01*
X193971383Y-138142304D01*
X193950166Y-138124526D01*
X193889045Y-138062573D01*
X193928927Y-138028292D01*
X194094794Y-138013819D01*
X194310000Y-138011242D01*
X194587751Y-138013056D01*
X194720706Y-138027329D01*
X194733398Y-138065591D01*
X194650361Y-138139371D01*
X194624743Y-138159159D01*
X194544529Y-138229400D01*
X194491188Y-138314864D01*
X194460254Y-138447318D01*
X194447263Y-138658527D01*
X194447749Y-138980257D01*
X194455410Y-139363776D01*
X194479333Y-140419667D01*
X195371397Y-140470955D01*
X195614403Y-139937311D01*
X195764005Y-139610475D01*
X195839728Y-139446000D01*
X196056458Y-139446000D01*
X196432062Y-139446000D01*
X196657509Y-139440509D01*
X196791524Y-139426637D01*
X196807666Y-139418749D01*
X196779585Y-139295662D01*
X196710575Y-139095133D01*
X196623492Y-138874561D01*
X196541188Y-138691344D01*
X196486517Y-138602882D01*
X196482207Y-138601329D01*
X196420343Y-138673293D01*
X196320044Y-138856410D01*
X196241562Y-139024662D01*
X196056458Y-139446000D01*
X195839728Y-139446000D01*
X195952162Y-139201790D01*
X196145873Y-138782880D01*
X196210657Y-138643269D01*
X196563906Y-137882871D01*
X197020871Y-139095944D01*
G37*
X197020871Y-139095944D02*
X197186482Y-139526558D01*
X197338805Y-139906060D01*
X197464942Y-140203532D01*
X197551998Y-140388058D01*
X197576451Y-140427842D01*
X197737948Y-140526470D01*
X197932452Y-140536114D01*
X198083127Y-140458945D01*
X198110941Y-140412742D01*
X198131569Y-140277498D01*
X198148246Y-140013048D01*
X198159096Y-139659504D01*
X198162333Y-139315373D01*
X198159707Y-138892915D01*
X198148067Y-138605148D01*
X198121767Y-138417464D01*
X198075163Y-138295254D01*
X198002609Y-138203909D01*
X197977035Y-138179298D01*
X197791736Y-138006666D01*
X198696701Y-138006666D01*
X199601666Y-138006667D01*
X199601666Y-138591636D01*
X199393848Y-138383818D01*
X199113195Y-138208297D01*
X198888827Y-138176000D01*
X198626320Y-138230719D01*
X198474584Y-138401854D01*
X198426381Y-138699870D01*
X198432602Y-138835751D01*
X198464134Y-139044110D01*
X198547547Y-139138138D01*
X198736773Y-139172823D01*
X198765635Y-139175316D01*
X199063709Y-139148961D01*
X199210135Y-139063435D01*
X199300444Y-138988506D01*
X199339096Y-139027883D01*
X199347638Y-139207858D01*
X199347666Y-139231264D01*
X199338726Y-139427825D01*
X199293496Y-139489169D01*
X199184362Y-139449192D01*
X199174421Y-139443906D01*
X198965622Y-139385142D01*
X198729921Y-139377427D01*
X198542609Y-139416379D01*
X198459230Y-139521435D01*
X198430981Y-139694312D01*
X198425571Y-140019087D01*
X198466260Y-140297498D01*
X198543038Y-140487066D01*
X198631836Y-140546667D01*
X198742023Y-140593619D01*
X198755000Y-140631333D01*
X198674261Y-140670088D01*
X198447344Y-140698281D01*
X198097195Y-140713728D01*
X197866000Y-140716000D01*
X197501071Y-140709119D01*
X197208737Y-140690510D01*
X197023968Y-140663227D01*
X196977000Y-140638389D01*
X197043548Y-140543115D01*
X197077151Y-140527394D01*
X197128512Y-140463235D01*
X197117074Y-140302928D01*
X197065104Y-140093278D01*
X196952906Y-139692545D01*
X195918666Y-139742333D01*
X195751047Y-140229167D01*
X195583427Y-140716000D01*
X194713880Y-140716000D01*
X194353302Y-140709152D01*
X194065707Y-140690657D01*
X193886457Y-140663591D01*
X193844333Y-140640392D01*
X193911712Y-140547835D01*
X193971333Y-140516049D01*
X194024565Y-140467183D01*
X194061081Y-140351464D01*
X194083681Y-140143228D01*
X194095164Y-139816814D01*
X194098333Y-139352158D01*
X194095593Y-138887849D01*
X194085034Y-138563765D01*
X194063151Y-138350849D01*
X194026436Y-138220047D01*
X193971383Y-138142304D01*
X193950166Y-138124526D01*
X193889045Y-138062573D01*
X193928927Y-138028292D01*
X194094794Y-138013819D01*
X194310000Y-138011242D01*
X194587751Y-138013056D01*
X194720706Y-138027329D01*
X194733398Y-138065591D01*
X194650361Y-138139371D01*
X194624743Y-138159159D01*
X194544529Y-138229400D01*
X194491188Y-138314864D01*
X194460254Y-138447318D01*
X194447263Y-138658527D01*
X194447749Y-138980257D01*
X194455410Y-139363776D01*
X194479333Y-140419667D01*
X195371397Y-140470955D01*
X195614403Y-139937311D01*
X195764005Y-139610475D01*
X195839728Y-139446000D01*
X196056458Y-139446000D01*
X196432062Y-139446000D01*
X196657509Y-139440509D01*
X196791524Y-139426637D01*
X196807666Y-139418749D01*
X196779585Y-139295662D01*
X196710575Y-139095133D01*
X196623492Y-138874561D01*
X196541188Y-138691344D01*
X196486517Y-138602882D01*
X196482207Y-138601329D01*
X196420343Y-138673293D01*
X196320044Y-138856410D01*
X196241562Y-139024662D01*
X196056458Y-139446000D01*
X195839728Y-139446000D01*
X195952162Y-139201790D01*
X196145873Y-138782880D01*
X196210657Y-138643269D01*
X196563906Y-137882871D01*
X197020871Y-139095944D01*
G36*
X200517481Y-138007258D02*
G01*
X200540219Y-138049000D01*
X200594806Y-138186925D01*
X200697287Y-138449033D01*
X200834505Y-138801564D01*
X200993304Y-139210758D01*
X201047610Y-139350947D01*
X201249078Y-139852440D01*
X201408680Y-140205332D01*
X201533312Y-140423183D01*
X201629868Y-140519553D01*
X201644580Y-140524989D01*
X201791983Y-140587236D01*
X201787690Y-140646949D01*
X201649135Y-140693291D01*
X201393750Y-140715423D01*
X201337333Y-140716000D01*
X201082318Y-140702081D01*
X200913176Y-140666177D01*
X200871666Y-140631333D01*
X200940243Y-140556219D01*
X200998666Y-140546667D01*
X201088813Y-140533285D01*
X201116452Y-140469262D01*
X201080732Y-140318780D01*
X200987164Y-140062664D01*
X200848661Y-139700000D01*
X199874052Y-139700000D01*
X199736312Y-140044247D01*
X199649524Y-140325626D01*
X199667852Y-140487712D01*
X199793815Y-140545924D01*
X199818330Y-140546667D01*
X199927757Y-140594005D01*
X199940333Y-140631333D01*
X199863781Y-140677700D01*
X199666308Y-140708453D01*
X199474666Y-140716000D01*
X199219631Y-140703703D01*
X199050490Y-140671981D01*
X199009000Y-140641208D01*
X199078742Y-140559780D01*
X199158443Y-140527336D01*
X199268292Y-140428629D01*
X199416152Y-140193852D01*
X199586886Y-139847713D01*
X199618381Y-139776628D01*
X199778710Y-139410686D01*
X200025000Y-139410686D01*
X200100201Y-139432811D01*
X200288037Y-139445106D01*
X200363666Y-139446000D01*
X200603573Y-139421478D01*
X200695621Y-139351055D01*
X200696054Y-139340167D01*
X200659165Y-139201755D01*
X200574222Y-138981649D01*
X200536596Y-138895667D01*
X200383418Y-138557000D01*
X200204209Y-138966186D01*
X200103565Y-139202122D01*
X200038547Y-139366318D01*
X200025000Y-139410686D01*
X199778710Y-139410686D01*
X199879325Y-139181040D01*
X200082251Y-138725683D01*
X200235471Y-138394981D01*
X200347294Y-138173361D01*
X200426030Y-138045250D01*
X200479989Y-137995073D01*
X200517481Y-138007258D01*
G37*
X200517481Y-138007258D02*
X200540219Y-138049000D01*
X200594806Y-138186925D01*
X200697287Y-138449033D01*
X200834505Y-138801564D01*
X200993304Y-139210758D01*
X201047610Y-139350947D01*
X201249078Y-139852440D01*
X201408680Y-140205332D01*
X201533312Y-140423183D01*
X201629868Y-140519553D01*
X201644580Y-140524989D01*
X201791983Y-140587236D01*
X201787690Y-140646949D01*
X201649135Y-140693291D01*
X201393750Y-140715423D01*
X201337333Y-140716000D01*
X201082318Y-140702081D01*
X200913176Y-140666177D01*
X200871666Y-140631333D01*
X200940243Y-140556219D01*
X200998666Y-140546667D01*
X201088813Y-140533285D01*
X201116452Y-140469262D01*
X201080732Y-140318780D01*
X200987164Y-140062664D01*
X200848661Y-139700000D01*
X199874052Y-139700000D01*
X199736312Y-140044247D01*
X199649524Y-140325626D01*
X199667852Y-140487712D01*
X199793815Y-140545924D01*
X199818330Y-140546667D01*
X199927757Y-140594005D01*
X199940333Y-140631333D01*
X199863781Y-140677700D01*
X199666308Y-140708453D01*
X199474666Y-140716000D01*
X199219631Y-140703703D01*
X199050490Y-140671981D01*
X199009000Y-140641208D01*
X199078742Y-140559780D01*
X199158443Y-140527336D01*
X199268292Y-140428629D01*
X199416152Y-140193852D01*
X199586886Y-139847713D01*
X199618381Y-139776628D01*
X199778710Y-139410686D01*
X200025000Y-139410686D01*
X200100201Y-139432811D01*
X200288037Y-139445106D01*
X200363666Y-139446000D01*
X200603573Y-139421478D01*
X200695621Y-139351055D01*
X200696054Y-139340167D01*
X200659165Y-139201755D01*
X200574222Y-138981649D01*
X200536596Y-138895667D01*
X200383418Y-138557000D01*
X200204209Y-138966186D01*
X200103565Y-139202122D01*
X200038547Y-139366318D01*
X200025000Y-139410686D01*
X199778710Y-139410686D01*
X199879325Y-139181040D01*
X200082251Y-138725683D01*
X200235471Y-138394981D01*
X200347294Y-138173361D01*
X200426030Y-138045250D01*
X200479989Y-137995073D01*
X200517481Y-138007258D01*
G36*
X205528333Y-138260667D02*
G01*
X205498905Y-138450666D01*
X205429108Y-138513407D01*
X205346676Y-138430461D01*
X205330174Y-138392338D01*
X205214854Y-138292099D01*
X204997012Y-138219726D01*
X204742927Y-138189639D01*
X204519694Y-138215997D01*
X204415511Y-138274037D01*
X204362167Y-138393119D01*
X204343969Y-138619071D01*
X204343000Y-138732039D01*
X204343000Y-139192000D01*
X204620494Y-139192000D01*
X204878767Y-139151272D01*
X205086161Y-139060199D01*
X205211078Y-138983201D01*
X205263148Y-139012212D01*
X205274231Y-139175904D01*
X205274333Y-139229532D01*
X205246662Y-139445627D01*
X205175636Y-139532172D01*
X205079240Y-139470776D01*
X205062666Y-139446000D01*
X204951793Y-139392155D01*
X204740783Y-139363024D01*
X204672629Y-139361333D01*
X204334919Y-139361333D01*
X204385333Y-140419667D01*
X204801962Y-140446063D01*
X205114265Y-140441400D01*
X205345784Y-140366384D01*
X205472133Y-140285008D01*
X205633061Y-140171945D01*
X205688349Y-140159760D01*
X205665413Y-140244596D01*
X205659731Y-140258611D01*
X205581401Y-140471967D01*
X205551186Y-140567833D01*
X205513639Y-140633106D01*
X205425960Y-140675943D01*
X205258335Y-140700773D01*
X204980951Y-140712021D01*
X204565958Y-140714117D01*
X204158758Y-140712142D01*
X203897839Y-140705077D01*
X203760147Y-140688293D01*
X203722631Y-140657159D01*
X203762239Y-140607044D01*
X203816503Y-140563572D01*
X203895364Y-140494773D01*
X203948349Y-140411175D01*
X203979666Y-140281799D01*
X203993521Y-140075666D01*
X203994122Y-139761796D01*
X203985836Y-139316622D01*
X203974959Y-138868222D01*
X203961656Y-138561305D01*
X203940515Y-138368046D01*
X203906125Y-138260622D01*
X203853074Y-138211209D01*
X203775951Y-138191982D01*
X203766839Y-138190667D01*
X203610868Y-138192644D01*
X203469037Y-138262575D01*
X203317241Y-138423702D01*
X203131377Y-138699270D01*
X202983831Y-138945709D01*
X202803002Y-139276468D01*
X202700843Y-139534227D01*
X202656845Y-139783234D01*
X202649666Y-139992596D01*
X202665436Y-140298907D01*
X202717314Y-140466688D01*
X202776666Y-140516049D01*
X202901873Y-140592027D01*
X202872861Y-140655385D01*
X202704689Y-140697942D01*
X202416833Y-140711559D01*
X202148492Y-140706279D01*
X202025356Y-140689354D01*
X202023299Y-140649601D01*
X202118194Y-140575841D01*
X202120500Y-140574232D01*
X202240485Y-140455323D01*
X202297404Y-140280655D01*
X202311000Y-140015761D01*
X202293929Y-139768582D01*
X202231570Y-139523627D01*
X202107204Y-139231760D01*
X201925565Y-138883088D01*
X201747240Y-138577291D01*
X201585587Y-138338057D01*
X201464095Y-138198404D01*
X201422562Y-138176000D01*
X201280304Y-138122565D01*
X201252666Y-138091333D01*
X201296931Y-138041576D01*
X201491511Y-138013904D01*
X201692169Y-138009359D01*
X201959966Y-138015941D01*
X202083191Y-138037080D01*
X202086473Y-138080589D01*
X202041701Y-138120236D01*
X201974472Y-138189377D01*
X201964967Y-138280862D01*
X202022437Y-138432907D01*
X202156134Y-138683728D01*
X202194770Y-138752543D01*
X202343551Y-139009800D01*
X202458929Y-139196761D01*
X202517770Y-139276083D01*
X202519487Y-139276667D01*
X202572624Y-139208996D01*
X202683118Y-139031943D01*
X202820966Y-138794478D01*
X202968563Y-138513729D01*
X203031315Y-138330918D01*
X203020717Y-138204727D01*
X202997664Y-138159478D01*
X202970549Y-138101645D01*
X202988276Y-138060578D01*
X203073607Y-138033421D01*
X203249304Y-138017317D01*
X203538132Y-138009409D01*
X203962851Y-138006841D01*
X204215282Y-138006667D01*
X205528333Y-138006667D01*
X205528333Y-138260667D01*
G37*
X205528333Y-138260667D02*
X205498905Y-138450666D01*
X205429108Y-138513407D01*
X205346676Y-138430461D01*
X205330174Y-138392338D01*
X205214854Y-138292099D01*
X204997012Y-138219726D01*
X204742927Y-138189639D01*
X204519694Y-138215997D01*
X204415511Y-138274037D01*
X204362167Y-138393119D01*
X204343969Y-138619071D01*
X204343000Y-138732039D01*
X204343000Y-139192000D01*
X204620494Y-139192000D01*
X204878767Y-139151272D01*
X205086161Y-139060199D01*
X205211078Y-138983201D01*
X205263148Y-139012212D01*
X205274231Y-139175904D01*
X205274333Y-139229532D01*
X205246662Y-139445627D01*
X205175636Y-139532172D01*
X205079240Y-139470776D01*
X205062666Y-139446000D01*
X204951793Y-139392155D01*
X204740783Y-139363024D01*
X204672629Y-139361333D01*
X204334919Y-139361333D01*
X204385333Y-140419667D01*
X204801962Y-140446063D01*
X205114265Y-140441400D01*
X205345784Y-140366384D01*
X205472133Y-140285008D01*
X205633061Y-140171945D01*
X205688349Y-140159760D01*
X205665413Y-140244596D01*
X205659731Y-140258611D01*
X205581401Y-140471967D01*
X205551186Y-140567833D01*
X205513639Y-140633106D01*
X205425960Y-140675943D01*
X205258335Y-140700773D01*
X204980951Y-140712021D01*
X204565958Y-140714117D01*
X204158758Y-140712142D01*
X203897839Y-140705077D01*
X203760147Y-140688293D01*
X203722631Y-140657159D01*
X203762239Y-140607044D01*
X203816503Y-140563572D01*
X203895364Y-140494773D01*
X203948349Y-140411175D01*
X203979666Y-140281799D01*
X203993521Y-140075666D01*
X203994122Y-139761796D01*
X203985836Y-139316622D01*
X203974959Y-138868222D01*
X203961656Y-138561305D01*
X203940515Y-138368046D01*
X203906125Y-138260622D01*
X203853074Y-138211209D01*
X203775951Y-138191982D01*
X203766839Y-138190667D01*
X203610868Y-138192644D01*
X203469037Y-138262575D01*
X203317241Y-138423702D01*
X203131377Y-138699270D01*
X202983831Y-138945709D01*
X202803002Y-139276468D01*
X202700843Y-139534227D01*
X202656845Y-139783234D01*
X202649666Y-139992596D01*
X202665436Y-140298907D01*
X202717314Y-140466688D01*
X202776666Y-140516049D01*
X202901873Y-140592027D01*
X202872861Y-140655385D01*
X202704689Y-140697942D01*
X202416833Y-140711559D01*
X202148492Y-140706279D01*
X202025356Y-140689354D01*
X202023299Y-140649601D01*
X202118194Y-140575841D01*
X202120500Y-140574232D01*
X202240485Y-140455323D01*
X202297404Y-140280655D01*
X202311000Y-140015761D01*
X202293929Y-139768582D01*
X202231570Y-139523627D01*
X202107204Y-139231760D01*
X201925565Y-138883088D01*
X201747240Y-138577291D01*
X201585587Y-138338057D01*
X201464095Y-138198404D01*
X201422562Y-138176000D01*
X201280304Y-138122565D01*
X201252666Y-138091333D01*
X201296931Y-138041576D01*
X201491511Y-138013904D01*
X201692169Y-138009359D01*
X201959966Y-138015941D01*
X202083191Y-138037080D01*
X202086473Y-138080589D01*
X202041701Y-138120236D01*
X201974472Y-138189377D01*
X201964967Y-138280862D01*
X202022437Y-138432907D01*
X202156134Y-138683728D01*
X202194770Y-138752543D01*
X202343551Y-139009800D01*
X202458929Y-139196761D01*
X202517770Y-139276083D01*
X202519487Y-139276667D01*
X202572624Y-139208996D01*
X202683118Y-139031943D01*
X202820966Y-138794478D01*
X202968563Y-138513729D01*
X203031315Y-138330918D01*
X203020717Y-138204727D01*
X202997664Y-138159478D01*
X202970549Y-138101645D01*
X202988276Y-138060578D01*
X203073607Y-138033421D01*
X203249304Y-138017317D01*
X203538132Y-138009409D01*
X203962851Y-138006841D01*
X204215282Y-138006667D01*
X205528333Y-138006667D01*
X205528333Y-138260667D01*
G36*
X209423000Y-138631263D02*
G01*
X209250368Y-138445965D01*
X208991234Y-138288510D01*
X208784701Y-138260667D01*
X208491666Y-138260667D01*
X208491666Y-139363990D01*
X208494960Y-139829950D01*
X208506738Y-140152454D01*
X208529841Y-140357283D01*
X208567112Y-140470221D01*
X208618666Y-140516049D01*
X208743697Y-140592127D01*
X208714220Y-140655913D01*
X208545008Y-140699273D01*
X208258833Y-140714117D01*
X207988569Y-140710700D01*
X207863219Y-140694818D01*
X207858364Y-140653952D01*
X207949585Y-140575584D01*
X207965169Y-140563572D01*
X208044030Y-140494773D01*
X208097016Y-140411175D01*
X208128333Y-140281799D01*
X208142188Y-140075666D01*
X208142789Y-139761796D01*
X208134503Y-139316622D01*
X208110666Y-138218333D01*
X207010000Y-138218333D01*
X206986363Y-139341876D01*
X206979356Y-139808234D01*
X206982915Y-140131840D01*
X206999421Y-140339080D01*
X207031254Y-140456338D01*
X207080793Y-140509997D01*
X207092197Y-140515101D01*
X207218585Y-140591801D01*
X207190059Y-140656311D01*
X207020989Y-140700433D01*
X206740035Y-140716000D01*
X206258403Y-140716000D01*
X206443701Y-140543368D01*
X206524482Y-140454457D01*
X206577742Y-140344315D01*
X206609127Y-140178331D01*
X206624281Y-139921898D01*
X206628849Y-139540407D01*
X206629000Y-139407293D01*
X206624653Y-139009261D01*
X206612865Y-138665882D01*
X206595514Y-138417270D01*
X206577608Y-138309925D01*
X206457884Y-138197665D01*
X206260410Y-138189458D01*
X206036439Y-138279670D01*
X205905484Y-138383818D01*
X205697666Y-138591636D01*
X205697666Y-138006667D01*
X209423000Y-138006667D01*
X209423000Y-138631263D01*
G37*
X209423000Y-138631263D02*
X209250368Y-138445965D01*
X208991234Y-138288510D01*
X208784701Y-138260667D01*
X208491666Y-138260667D01*
X208491666Y-139363990D01*
X208494960Y-139829950D01*
X208506738Y-140152454D01*
X208529841Y-140357283D01*
X208567112Y-140470221D01*
X208618666Y-140516049D01*
X208743697Y-140592127D01*
X208714220Y-140655913D01*
X208545008Y-140699273D01*
X208258833Y-140714117D01*
X207988569Y-140710700D01*
X207863219Y-140694818D01*
X207858364Y-140653952D01*
X207949585Y-140575584D01*
X207965169Y-140563572D01*
X208044030Y-140494773D01*
X208097016Y-140411175D01*
X208128333Y-140281799D01*
X208142188Y-140075666D01*
X208142789Y-139761796D01*
X208134503Y-139316622D01*
X208110666Y-138218333D01*
X207010000Y-138218333D01*
X206986363Y-139341876D01*
X206979356Y-139808234D01*
X206982915Y-140131840D01*
X206999421Y-140339080D01*
X207031254Y-140456338D01*
X207080793Y-140509997D01*
X207092197Y-140515101D01*
X207218585Y-140591801D01*
X207190059Y-140656311D01*
X207020989Y-140700433D01*
X206740035Y-140716000D01*
X206258403Y-140716000D01*
X206443701Y-140543368D01*
X206524482Y-140454457D01*
X206577742Y-140344315D01*
X206609127Y-140178331D01*
X206624281Y-139921898D01*
X206628849Y-139540407D01*
X206629000Y-139407293D01*
X206624653Y-139009261D01*
X206612865Y-138665882D01*
X206595514Y-138417270D01*
X206577608Y-138309925D01*
X206457884Y-138197665D01*
X206260410Y-138189458D01*
X206036439Y-138279670D01*
X205905484Y-138383818D01*
X205697666Y-138591636D01*
X205697666Y-138006667D01*
X209423000Y-138006667D01*
X209423000Y-138631263D01*
G36*
X211285666Y-138591636D02*
G01*
X211077848Y-138383818D01*
X210832956Y-138228203D01*
X210551149Y-138174957D01*
X210304553Y-138237291D01*
X210298514Y-138241046D01*
X210236768Y-138355852D01*
X210188797Y-138578809D01*
X210173897Y-138726583D01*
X210147433Y-139149667D01*
X210452019Y-139175316D01*
X210748128Y-139148812D01*
X210894135Y-139063435D01*
X210984444Y-138988506D01*
X211023096Y-139027883D01*
X211031638Y-139207858D01*
X211031666Y-139231264D01*
X211022726Y-139427825D01*
X210977496Y-139489169D01*
X210868362Y-139449192D01*
X210858421Y-139443906D01*
X210693788Y-139394895D01*
X210485321Y-139378061D01*
X210292525Y-139391411D01*
X210174901Y-139432954D01*
X210163833Y-139467167D01*
X210175583Y-139581289D01*
X210183269Y-139807221D01*
X210185000Y-139996333D01*
X210185000Y-140462000D01*
X210631827Y-140462000D01*
X210967588Y-140433364D01*
X211221708Y-140356751D01*
X211266827Y-140330199D01*
X211404940Y-140243636D01*
X211446416Y-140264756D01*
X211404085Y-140414040D01*
X211372428Y-140498821D01*
X211329899Y-140594721D01*
X211268001Y-140657192D01*
X211154097Y-140693397D01*
X210955551Y-140710497D01*
X210639725Y-140715657D01*
X210382797Y-140716000D01*
X209475736Y-140716000D01*
X209661035Y-140543368D01*
X209740168Y-140456762D01*
X209792970Y-140349828D01*
X209824699Y-140189027D01*
X209840612Y-139940818D01*
X209845967Y-139571662D01*
X209846333Y-139361333D01*
X209843968Y-138928054D01*
X209833368Y-138630541D01*
X209809276Y-138435256D01*
X209766433Y-138308657D01*
X209699582Y-138217205D01*
X209661035Y-138179298D01*
X209475736Y-138006667D01*
X211285666Y-138006667D01*
X211285666Y-138591636D01*
G37*
X211285666Y-138591636D02*
X211077848Y-138383818D01*
X210832956Y-138228203D01*
X210551149Y-138174957D01*
X210304553Y-138237291D01*
X210298514Y-138241046D01*
X210236768Y-138355852D01*
X210188797Y-138578809D01*
X210173897Y-138726583D01*
X210147433Y-139149667D01*
X210452019Y-139175316D01*
X210748128Y-139148812D01*
X210894135Y-139063435D01*
X210984444Y-138988506D01*
X211023096Y-139027883D01*
X211031638Y-139207858D01*
X211031666Y-139231264D01*
X211022726Y-139427825D01*
X210977496Y-139489169D01*
X210868362Y-139449192D01*
X210858421Y-139443906D01*
X210693788Y-139394895D01*
X210485321Y-139378061D01*
X210292525Y-139391411D01*
X210174901Y-139432954D01*
X210163833Y-139467167D01*
X210175583Y-139581289D01*
X210183269Y-139807221D01*
X210185000Y-139996333D01*
X210185000Y-140462000D01*
X210631827Y-140462000D01*
X210967588Y-140433364D01*
X211221708Y-140356751D01*
X211266827Y-140330199D01*
X211404940Y-140243636D01*
X211446416Y-140264756D01*
X211404085Y-140414040D01*
X211372428Y-140498821D01*
X211329899Y-140594721D01*
X211268001Y-140657192D01*
X211154097Y-140693397D01*
X210955551Y-140710497D01*
X210639725Y-140715657D01*
X210382797Y-140716000D01*
X209475736Y-140716000D01*
X209661035Y-140543368D01*
X209740168Y-140456762D01*
X209792970Y-140349828D01*
X209824699Y-140189027D01*
X209840612Y-139940818D01*
X209845967Y-139571662D01*
X209846333Y-139361333D01*
X209843968Y-138928054D01*
X209833368Y-138630541D01*
X209809276Y-138435256D01*
X209766433Y-138308657D01*
X209699582Y-138217205D01*
X209661035Y-138179298D01*
X209475736Y-138006667D01*
X211285666Y-138006667D01*
X211285666Y-138591636D01*
D14*
%TO.C,U6*%
X217807201Y-56415200D02*
X217807200Y-106875200D01*
X217807200Y-106875200D02*
X222369199Y-106875200D01*
X219327867Y-56775200D02*
X219327867Y-56415200D01*
X220848533Y-56775200D02*
X219327867Y-56775200D01*
X166958200Y-48705200D02*
X223958200Y-48705200D01*
X220848533Y-56415200D02*
X220848533Y-56775200D01*
X222369200Y-56415200D02*
X220848533Y-56415200D01*
X222369199Y-106875200D02*
X222369200Y-56415200D01*
X223958200Y-114705200D02*
X166958200Y-114705200D01*
X166958200Y-114705200D02*
X166958200Y-48705200D01*
X223958200Y-48705200D02*
X223958200Y-114705200D01*
X219327867Y-56415200D02*
X217807201Y-56415200D01*
%TO.C,C1*%
X154230000Y-71738748D02*
X154230000Y-72261252D01*
X155650000Y-71738748D02*
X155650000Y-72261252D01*
%TO.C,C2*%
X147395000Y-125713748D02*
X147395000Y-126236252D01*
X145975000Y-125713748D02*
X145975000Y-126236252D01*
%TO.C,C9*%
X177725000Y-128286252D02*
X177725000Y-127763748D01*
X179145000Y-128286252D02*
X179145000Y-127763748D01*
%TO.C,C11*%
X115495000Y-114918748D02*
X115495000Y-115441252D01*
X116915000Y-114918748D02*
X116915000Y-115441252D01*
%TO.C,C12*%
X142315000Y-115586252D02*
X142315000Y-115063748D01*
X140895000Y-115586252D02*
X140895000Y-115063748D01*
%TO.C,C13*%
X157555000Y-41536252D02*
X157555000Y-41013748D01*
X156135000Y-41536252D02*
X156135000Y-41013748D01*
%TO.C,C14*%
X127560000Y-72128748D02*
X127560000Y-72651252D01*
X128980000Y-72128748D02*
X128980000Y-72651252D01*
%TO.C,C15*%
X154230000Y-83803748D02*
X154230000Y-84326252D01*
X155650000Y-83803748D02*
X155650000Y-84326252D01*
%TO.C,C16*%
X125655000Y-84326252D02*
X125655000Y-83803748D01*
X127075000Y-84326252D02*
X127075000Y-83803748D01*
%TO.C,C17*%
X125655000Y-90933748D02*
X125655000Y-91456252D01*
X127075000Y-90933748D02*
X127075000Y-91456252D01*
%TO.C,C18*%
X215975000Y-19668748D02*
X215975000Y-20191252D01*
X214555000Y-19668748D02*
X214555000Y-20191252D01*
%TO.C,C19*%
X122630000Y-100981252D02*
X122630000Y-100458748D01*
X121210000Y-100981252D02*
X121210000Y-100458748D01*
%TO.C,C20*%
X133910000Y-100313748D02*
X133910000Y-100836252D01*
X135330000Y-100313748D02*
X135330000Y-100836252D01*
D15*
%TO.C,CR1*%
X130403600Y-98971100D02*
X126136400Y-98971100D01*
X126136400Y-104228900D02*
X130403600Y-104228900D01*
%TO.C,D1*%
X201399350Y-13449300D02*
X201978050Y-13449300D01*
X201978050Y-11950700D02*
X201399350Y-11950700D01*
X199466200Y-12700000D02*
G75*
G03*
X199466200Y-12700000I-76200J0D01*
G01*
%TO.C,D2*%
X215341200Y-32385000D02*
G75*
G03*
X215341200Y-32385000I-76200J0D01*
G01*
X214515700Y-29796950D02*
X214515700Y-30375650D01*
X216014300Y-30375650D02*
X216014300Y-29796950D01*
%TO.C,D3*%
X184861200Y-26670000D02*
G75*
G03*
X184861200Y-26670000I-76200J0D01*
G01*
X182196950Y-27419300D02*
X182775650Y-27419300D01*
X182775650Y-25920700D02*
X182196950Y-25920700D01*
%TO.C,D4*%
X189334350Y-27419300D02*
X189913050Y-27419300D01*
X189913050Y-25920700D02*
X189334350Y-25920700D01*
X187401200Y-26670000D02*
G75*
G03*
X187401200Y-26670000I-76200J0D01*
G01*
%TO.C,D5*%
X153784300Y-64183050D02*
X153784300Y-63604350D01*
X152285700Y-63604350D02*
X152285700Y-64183050D01*
X153111200Y-66192400D02*
G75*
G03*
X153111200Y-66192400I-76200J0D01*
G01*
%TO.C,D6*%
X118186200Y-28575000D02*
G75*
G03*
X118186200Y-28575000I-76200J0D01*
G01*
X117360700Y-25986950D02*
X117360700Y-26565650D01*
X118859300Y-26565650D02*
X118859300Y-25986950D01*
D14*
%TO.C,J1*%
X138625000Y-128460000D02*
X133725000Y-128460000D01*
X133725000Y-128460000D02*
X133725000Y-138360000D01*
X133725000Y-138360000D02*
X136825000Y-138360000D01*
X136825000Y-138360000D02*
X136825000Y-139760000D01*
X136825000Y-139760000D02*
X138625000Y-139760000D01*
X138625000Y-128460000D02*
X143525000Y-128460000D01*
X143525000Y-128460000D02*
X143525000Y-138360000D01*
X143525000Y-138360000D02*
X140425000Y-138360000D01*
X140425000Y-138360000D02*
X140425000Y-139760000D01*
X140425000Y-139760000D02*
X138625000Y-139760000D01*
X136325000Y-128210000D02*
X133475000Y-128210000D01*
X133475000Y-128210000D02*
X133475000Y-131060000D01*
%TO.C,J3*%
X223460000Y-21015000D02*
X226120000Y-21015000D01*
X223460000Y-13335000D02*
X223460000Y-21015000D01*
X226120000Y-13335000D02*
X226120000Y-21015000D01*
X223460000Y-13335000D02*
X226120000Y-13335000D01*
X223460000Y-12065000D02*
X223460000Y-10735000D01*
X223460000Y-10735000D02*
X224790000Y-10735000D01*
%TO.C,J4*%
X240605000Y-10735000D02*
X241935000Y-10735000D01*
X240605000Y-12065000D02*
X240605000Y-10735000D01*
X240605000Y-13335000D02*
X243265000Y-13335000D01*
X243265000Y-13335000D02*
X243265000Y-21015000D01*
X240605000Y-13335000D02*
X240605000Y-21015000D01*
X240605000Y-21015000D02*
X243265000Y-21015000D01*
%TO.C,J5.1*%
X96520000Y-67250000D02*
X97850000Y-67250000D01*
X97850000Y-67250000D02*
X97850000Y-68580000D01*
X97850000Y-69850000D02*
X97850000Y-82610000D01*
X95190000Y-82610000D02*
X97850000Y-82610000D01*
X95190000Y-69850000D02*
X95190000Y-82610000D01*
X95190000Y-69850000D02*
X97850000Y-69850000D01*
%TO.C,J5.2*%
X252929080Y-69850000D02*
X255589080Y-69850000D01*
X252929080Y-69850000D02*
X252929080Y-82610000D01*
X252929080Y-82610000D02*
X255589080Y-82610000D01*
X255589080Y-69850000D02*
X255589080Y-82610000D01*
X255589080Y-67250000D02*
X255589080Y-68580000D01*
X254259080Y-67250000D02*
X255589080Y-67250000D01*
%TO.C,J6*%
X240665000Y-71180000D02*
X239335000Y-71180000D01*
X239335000Y-71180000D02*
X239335000Y-69850000D01*
X239335000Y-68580000D02*
X239335000Y-50740000D01*
X241995000Y-50740000D02*
X239335000Y-50740000D01*
X241995000Y-68580000D02*
X241995000Y-50740000D01*
X241995000Y-68580000D02*
X239335000Y-68580000D01*
%TO.C,J7*%
X188655000Y-10285000D02*
X185805000Y-10285000D01*
X188655000Y-13135000D02*
X188655000Y-10285000D01*
X177105000Y-17235000D02*
X177105000Y-15435000D01*
X178505000Y-17235000D02*
X177105000Y-17235000D01*
X178505000Y-20335000D02*
X178505000Y-17235000D01*
X188405000Y-20335000D02*
X178505000Y-20335000D01*
X188405000Y-15435000D02*
X188405000Y-20335000D01*
X177105000Y-13635000D02*
X177105000Y-15435000D01*
X178505000Y-13635000D02*
X177105000Y-13635000D01*
X178505000Y-10535000D02*
X178505000Y-13635000D01*
X188405000Y-10535000D02*
X178505000Y-10535000D01*
X188405000Y-15435000D02*
X188405000Y-10535000D01*
%TO.C,J8*%
X147895000Y-146685000D02*
X147895000Y-145355000D01*
X147895000Y-145355000D02*
X149225000Y-145355000D01*
X150495000Y-145355000D02*
X163255000Y-145355000D01*
X163255000Y-148015000D02*
X163255000Y-145355000D01*
X150495000Y-148015000D02*
X163255000Y-148015000D01*
X150495000Y-148015000D02*
X150495000Y-145355000D01*
%TO.C,J9*%
X161290000Y-81975000D02*
X159960000Y-81975000D01*
X159960000Y-81975000D02*
X159960000Y-80645000D01*
X159960000Y-79375000D02*
X159960000Y-76775000D01*
X162620000Y-76775000D02*
X159960000Y-76775000D01*
X162620000Y-79375000D02*
X162620000Y-76775000D01*
X162620000Y-79375000D02*
X159960000Y-79375000D01*
%TO.C,U1*%
X168150000Y-134945000D02*
X169610000Y-134945000D01*
X168150000Y-138105000D02*
X170310000Y-138105000D01*
X168150000Y-138105000D02*
X168150000Y-137175000D01*
X168150000Y-134945000D02*
X168150000Y-135875000D01*
%TO.C,U2*%
X142240000Y-77075000D02*
X145660000Y-77075000D01*
X145660000Y-77075000D02*
X145660000Y-76785000D01*
X142240000Y-77075000D02*
X138820000Y-77075000D01*
X138820000Y-77075000D02*
X138820000Y-76785000D01*
X142240000Y-67705000D02*
X145660000Y-67705000D01*
X145660000Y-67705000D02*
X145660000Y-67995000D01*
X142240000Y-67705000D02*
X138820000Y-67705000D01*
X138820000Y-67705000D02*
X138820000Y-67995000D01*
X138820000Y-67995000D02*
X136540000Y-67995000D01*
D16*
%TO.C,U4*%
X173555000Y-25400000D02*
G75*
G03*
X173555000Y-25400000I-200000J0D01*
G01*
D17*
X121285000Y-10160000D02*
X172085000Y-10160000D01*
X121285000Y-35560000D02*
X121285000Y-10160000D01*
X172085000Y-35560000D02*
X121285000Y-35560000D01*
X172085000Y-10160000D02*
X172085000Y-35560000D01*
D14*
%TO.C,U5*%
X125485000Y-111175000D02*
X123205000Y-111175000D01*
X125485000Y-110885000D02*
X125485000Y-111175000D01*
X128905000Y-110885000D02*
X125485000Y-110885000D01*
X132325000Y-110885000D02*
X132325000Y-111175000D01*
X128905000Y-110885000D02*
X132325000Y-110885000D01*
X125485000Y-120255000D02*
X125485000Y-119965000D01*
X128905000Y-120255000D02*
X125485000Y-120255000D01*
X132325000Y-120255000D02*
X132325000Y-119965000D01*
X128905000Y-120255000D02*
X132325000Y-120255000D01*
D15*
%TO.C,U7*%
X147739100Y-43903900D02*
X151980900Y-43903900D01*
X151980900Y-38646100D02*
X147739100Y-38646100D01*
D14*
%TO.C,U8*%
X138380000Y-82625000D02*
X136565000Y-82625000D01*
X138380000Y-82380000D02*
X138380000Y-82625000D01*
X142240000Y-82380000D02*
X138380000Y-82380000D01*
X146100000Y-82380000D02*
X146100000Y-82625000D01*
X142240000Y-82380000D02*
X146100000Y-82380000D01*
X138380000Y-94150000D02*
X138380000Y-93905000D01*
X142240000Y-94150000D02*
X138380000Y-94150000D01*
X146100000Y-94150000D02*
X146100000Y-93905000D01*
X142240000Y-94150000D02*
X146100000Y-94150000D01*
D15*
%TO.C,U9*%
X207860900Y-17691100D02*
X203619100Y-17691100D01*
X203619100Y-22948900D02*
X207860900Y-22948900D01*
D14*
%TO.C,U10*%
X142395000Y-105510000D02*
X140730000Y-105510000D01*
X142395000Y-105270000D02*
X142395000Y-105510000D01*
X144780000Y-105270000D02*
X142395000Y-105270000D01*
X147165000Y-105270000D02*
X147165000Y-105510000D01*
X144780000Y-105270000D02*
X147165000Y-105270000D01*
X142395000Y-108090000D02*
X142395000Y-107850000D01*
X144780000Y-108090000D02*
X142395000Y-108090000D01*
X147165000Y-108090000D02*
X147165000Y-107850000D01*
X144780000Y-108090000D02*
X147165000Y-108090000D01*
D17*
%TO.C,Y1*%
X118250000Y-81930000D02*
X119396000Y-81930000D01*
X118250000Y-93330000D02*
X118250000Y-81930000D01*
X119396000Y-93330000D02*
X118250000Y-93330000D01*
X123050000Y-93330000D02*
X121904000Y-93330000D01*
X123050000Y-81930000D02*
X123050000Y-93330000D01*
X121904000Y-81930000D02*
X123050000Y-81930000D01*
D14*
%TO.C,R1*%
X210110000Y-13986252D02*
X210110000Y-13463748D01*
X211530000Y-13986252D02*
X211530000Y-13463748D01*
%TO.C,R2*%
X214705000Y-13841252D02*
X214705000Y-13318748D01*
X213285000Y-13841252D02*
X213285000Y-13318748D01*
%TO.C,R3*%
X149785000Y-121936252D02*
X149785000Y-121413748D01*
X151205000Y-121936252D02*
X151205000Y-121413748D01*
%TO.C,R4*%
X149785000Y-125991252D02*
X149785000Y-125468748D01*
X151205000Y-125991252D02*
X151205000Y-125468748D01*
%TO.C,R5*%
X206881252Y-13410000D02*
X206358748Y-13410000D01*
X206881252Y-11990000D02*
X206358748Y-11990000D01*
%TO.C,R6*%
X211380000Y-29828748D02*
X211380000Y-30351252D01*
X212800000Y-29828748D02*
X212800000Y-30351252D01*
%TO.C,R7*%
X155836252Y-79935000D02*
X155313748Y-79935000D01*
X155836252Y-81355000D02*
X155313748Y-81355000D01*
%TO.C,R8*%
X116915000Y-100313748D02*
X116915000Y-100836252D01*
X115495000Y-100313748D02*
X115495000Y-100836252D01*
%TO.C,R9*%
X115495000Y-105538748D02*
X115495000Y-106061252D01*
X116915000Y-105538748D02*
X116915000Y-106061252D01*
%TO.C,R10*%
X151146252Y-83745000D02*
X150623748Y-83745000D01*
X151146252Y-85165000D02*
X150623748Y-85165000D01*
%TO.C,R11*%
X137143748Y-106755000D02*
X137666252Y-106755000D01*
X137143748Y-105335000D02*
X137666252Y-105335000D01*
%TO.C,R12*%
X151748748Y-105335000D02*
X152271252Y-105335000D01*
X151748748Y-106755000D02*
X152271252Y-106755000D01*
%TO.C,R13*%
X177148748Y-27380000D02*
X177671252Y-27380000D01*
X177148748Y-25960000D02*
X177671252Y-25960000D01*
%TO.C,R14*%
X194961252Y-25960000D02*
X194438748Y-25960000D01*
X194961252Y-27380000D02*
X194438748Y-27380000D01*
%TO.C,R15*%
X149300000Y-63483748D02*
X149300000Y-64006252D01*
X147880000Y-63483748D02*
X147880000Y-64006252D01*
%TO.C,R16*%
X118820000Y-21083748D02*
X118820000Y-21606252D01*
X117400000Y-21083748D02*
X117400000Y-21606252D01*
%TO.C,REF\u002A\u002A*%
D10*
X93916666Y-2667380D02*
X93583333Y-2191190D01*
X93345238Y-2667380D02*
X93345238Y-1667380D01*
X93726190Y-1667380D01*
X93821428Y-1715000D01*
X93869047Y-1762619D01*
X93916666Y-1857857D01*
X93916666Y-2000714D01*
X93869047Y-2095952D01*
X93821428Y-2143571D01*
X93726190Y-2191190D01*
X93345238Y-2191190D01*
X94345238Y-2143571D02*
X94678571Y-2143571D01*
X94821428Y-2667380D02*
X94345238Y-2667380D01*
X94345238Y-1667380D01*
X94821428Y-1667380D01*
X95583333Y-2143571D02*
X95250000Y-2143571D01*
X95250000Y-2667380D02*
X95250000Y-1667380D01*
X95726190Y-1667380D01*
X96250000Y-1667380D02*
X96250000Y-1905476D01*
X96011904Y-1810238D02*
X96250000Y-1905476D01*
X96488095Y-1810238D01*
X96107142Y-2095952D02*
X96250000Y-1905476D01*
X96392857Y-2095952D01*
X97011904Y-1667380D02*
X97011904Y-1905476D01*
X96773809Y-1810238D02*
X97011904Y-1905476D01*
X97250000Y-1810238D01*
X96869047Y-2095952D02*
X97011904Y-1905476D01*
X97154761Y-2095952D01*
X93916666Y-143002380D02*
X93583333Y-142526190D01*
X93345238Y-143002380D02*
X93345238Y-142002380D01*
X93726190Y-142002380D01*
X93821428Y-142050000D01*
X93869047Y-142097619D01*
X93916666Y-142192857D01*
X93916666Y-142335714D01*
X93869047Y-142430952D01*
X93821428Y-142478571D01*
X93726190Y-142526190D01*
X93345238Y-142526190D01*
X94345238Y-142478571D02*
X94678571Y-142478571D01*
X94821428Y-143002380D02*
X94345238Y-143002380D01*
X94345238Y-142002380D01*
X94821428Y-142002380D01*
X95583333Y-142478571D02*
X95250000Y-142478571D01*
X95250000Y-143002380D02*
X95250000Y-142002380D01*
X95726190Y-142002380D01*
X96250000Y-142002380D02*
X96250000Y-142240476D01*
X96011904Y-142145238D02*
X96250000Y-142240476D01*
X96488095Y-142145238D01*
X96107142Y-142430952D02*
X96250000Y-142240476D01*
X96392857Y-142430952D01*
X97011904Y-142002380D02*
X97011904Y-142240476D01*
X96773809Y-142145238D02*
X97011904Y-142240476D01*
X97250000Y-142145238D01*
X96869047Y-142430952D02*
X97011904Y-142240476D01*
X97154761Y-142430952D01*
%TO.C,U3*%
D18*
X163578738Y-118369399D02*
X163578738Y-119179739D01*
X163626405Y-119275073D01*
X163674072Y-119322740D01*
X163769406Y-119370407D01*
X163960074Y-119370407D01*
X164055408Y-119322740D01*
X164103075Y-119275073D01*
X164150742Y-119179739D01*
X164150742Y-118369399D01*
X164532079Y-118369399D02*
X165151750Y-118369399D01*
X164818081Y-118750736D01*
X164961082Y-118750736D01*
X165056416Y-118798403D01*
X165104083Y-118846070D01*
X165151750Y-118941404D01*
X165151750Y-119179739D01*
X165104083Y-119275073D01*
X165056416Y-119322740D01*
X164961082Y-119370407D01*
X164675080Y-119370407D01*
X164579746Y-119322740D01*
X164532079Y-119275073D01*
%TO.C,REF\u002A\u002A*%
D10*
X254571666Y-2667380D02*
X254238333Y-2191190D01*
X254000238Y-2667380D02*
X254000238Y-1667380D01*
X254381190Y-1667380D01*
X254476428Y-1715000D01*
X254524047Y-1762619D01*
X254571666Y-1857857D01*
X254571666Y-2000714D01*
X254524047Y-2095952D01*
X254476428Y-2143571D01*
X254381190Y-2191190D01*
X254000238Y-2191190D01*
X255000238Y-2143571D02*
X255333571Y-2143571D01*
X255476428Y-2667380D02*
X255000238Y-2667380D01*
X255000238Y-1667380D01*
X255476428Y-1667380D01*
X256238333Y-2143571D02*
X255905000Y-2143571D01*
X255905000Y-2667380D02*
X255905000Y-1667380D01*
X256381190Y-1667380D01*
X256905000Y-1667380D02*
X256905000Y-1905476D01*
X256666904Y-1810238D02*
X256905000Y-1905476D01*
X257143095Y-1810238D01*
X256762142Y-2095952D02*
X256905000Y-1905476D01*
X257047857Y-2095952D01*
X257666904Y-1667380D02*
X257666904Y-1905476D01*
X257428809Y-1810238D02*
X257666904Y-1905476D01*
X257905000Y-1810238D01*
X257524047Y-2095952D02*
X257666904Y-1905476D01*
X257809761Y-2095952D01*
X254571666Y-143002380D02*
X254238333Y-142526190D01*
X254000238Y-143002380D02*
X254000238Y-142002380D01*
X254381190Y-142002380D01*
X254476428Y-142050000D01*
X254524047Y-142097619D01*
X254571666Y-142192857D01*
X254571666Y-142335714D01*
X254524047Y-142430952D01*
X254476428Y-142478571D01*
X254381190Y-142526190D01*
X254000238Y-142526190D01*
X255000238Y-142478571D02*
X255333571Y-142478571D01*
X255476428Y-143002380D02*
X255000238Y-143002380D01*
X255000238Y-142002380D01*
X255476428Y-142002380D01*
X256238333Y-142478571D02*
X255905000Y-142478571D01*
X255905000Y-143002380D02*
X255905000Y-142002380D01*
X256381190Y-142002380D01*
X256905000Y-142002380D02*
X256905000Y-142240476D01*
X256666904Y-142145238D02*
X256905000Y-142240476D01*
X257143095Y-142145238D01*
X256762142Y-142430952D02*
X256905000Y-142240476D01*
X257047857Y-142430952D01*
X257666904Y-142002380D02*
X257666904Y-142240476D01*
X257428809Y-142145238D02*
X257666904Y-142240476D01*
X257905000Y-142145238D01*
X257524047Y-142430952D02*
X257666904Y-142240476D01*
X257809761Y-142430952D01*
%TO.C,U6*%
X197993095Y-79962380D02*
X197993095Y-80771904D01*
X198040714Y-80867142D01*
X198088333Y-80914761D01*
X198183571Y-80962380D01*
X198374047Y-80962380D01*
X198469285Y-80914761D01*
X198516904Y-80867142D01*
X198564523Y-80771904D01*
X198564523Y-79962380D01*
X199469285Y-79962380D02*
X199278809Y-79962380D01*
X199183571Y-80010000D01*
X199135952Y-80057619D01*
X199040714Y-80200476D01*
X198993095Y-80390952D01*
X198993095Y-80771904D01*
X199040714Y-80867142D01*
X199088333Y-80914761D01*
X199183571Y-80962380D01*
X199374047Y-80962380D01*
X199469285Y-80914761D01*
X199516904Y-80867142D01*
X199564523Y-80771904D01*
X199564523Y-80533809D01*
X199516904Y-80438571D01*
X199469285Y-80390952D01*
X199374047Y-80343333D01*
X199183571Y-80343333D01*
X199088333Y-80390952D01*
X199040714Y-80438571D01*
X198993095Y-80533809D01*
%TO.C,C1*%
X156947142Y-72166666D02*
X156994761Y-72214285D01*
X157042380Y-72357142D01*
X157042380Y-72452380D01*
X156994761Y-72595238D01*
X156899523Y-72690476D01*
X156804285Y-72738095D01*
X156613809Y-72785714D01*
X156470952Y-72785714D01*
X156280476Y-72738095D01*
X156185238Y-72690476D01*
X156090000Y-72595238D01*
X156042380Y-72452380D01*
X156042380Y-72357142D01*
X156090000Y-72214285D01*
X156137619Y-72166666D01*
X157042380Y-71214285D02*
X157042380Y-71785714D01*
X157042380Y-71500000D02*
X156042380Y-71500000D01*
X156185238Y-71595238D01*
X156280476Y-71690476D01*
X156328095Y-71785714D01*
%TO.C,C2*%
X147042142Y-123356666D02*
X147089761Y-123404285D01*
X147137380Y-123547142D01*
X147137380Y-123642380D01*
X147089761Y-123785238D01*
X146994523Y-123880476D01*
X146899285Y-123928095D01*
X146708809Y-123975714D01*
X146565952Y-123975714D01*
X146375476Y-123928095D01*
X146280238Y-123880476D01*
X146185000Y-123785238D01*
X146137380Y-123642380D01*
X146137380Y-123547142D01*
X146185000Y-123404285D01*
X146232619Y-123356666D01*
X146232619Y-122975714D02*
X146185000Y-122928095D01*
X146137380Y-122832857D01*
X146137380Y-122594761D01*
X146185000Y-122499523D01*
X146232619Y-122451904D01*
X146327857Y-122404285D01*
X146423095Y-122404285D01*
X146565952Y-122451904D01*
X147137380Y-123023333D01*
X147137380Y-122404285D01*
%TO.C,C9*%
X178792142Y-131121666D02*
X178839761Y-131169285D01*
X178887380Y-131312142D01*
X178887380Y-131407380D01*
X178839761Y-131550238D01*
X178744523Y-131645476D01*
X178649285Y-131693095D01*
X178458809Y-131740714D01*
X178315952Y-131740714D01*
X178125476Y-131693095D01*
X178030238Y-131645476D01*
X177935000Y-131550238D01*
X177887380Y-131407380D01*
X177887380Y-131312142D01*
X177935000Y-131169285D01*
X177982619Y-131121666D01*
X178887380Y-130645476D02*
X178887380Y-130455000D01*
X178839761Y-130359761D01*
X178792142Y-130312142D01*
X178649285Y-130216904D01*
X178458809Y-130169285D01*
X178077857Y-130169285D01*
X177982619Y-130216904D01*
X177935000Y-130264523D01*
X177887380Y-130359761D01*
X177887380Y-130550238D01*
X177935000Y-130645476D01*
X177982619Y-130693095D01*
X178077857Y-130740714D01*
X178315952Y-130740714D01*
X178411190Y-130693095D01*
X178458809Y-130645476D01*
X178506428Y-130550238D01*
X178506428Y-130359761D01*
X178458809Y-130264523D01*
X178411190Y-130216904D01*
X178315952Y-130169285D01*
%TO.C,C11*%
X118212142Y-115822857D02*
X118259761Y-115870476D01*
X118307380Y-116013333D01*
X118307380Y-116108571D01*
X118259761Y-116251428D01*
X118164523Y-116346666D01*
X118069285Y-116394285D01*
X117878809Y-116441904D01*
X117735952Y-116441904D01*
X117545476Y-116394285D01*
X117450238Y-116346666D01*
X117355000Y-116251428D01*
X117307380Y-116108571D01*
X117307380Y-116013333D01*
X117355000Y-115870476D01*
X117402619Y-115822857D01*
X118307380Y-114870476D02*
X118307380Y-115441904D01*
X118307380Y-115156190D02*
X117307380Y-115156190D01*
X117450238Y-115251428D01*
X117545476Y-115346666D01*
X117593095Y-115441904D01*
X118307380Y-113918095D02*
X118307380Y-114489523D01*
X118307380Y-114203809D02*
X117307380Y-114203809D01*
X117450238Y-114299047D01*
X117545476Y-114394285D01*
X117593095Y-114489523D01*
%TO.C,C12*%
X140312142Y-115967857D02*
X140359761Y-116015476D01*
X140407380Y-116158333D01*
X140407380Y-116253571D01*
X140359761Y-116396428D01*
X140264523Y-116491666D01*
X140169285Y-116539285D01*
X139978809Y-116586904D01*
X139835952Y-116586904D01*
X139645476Y-116539285D01*
X139550238Y-116491666D01*
X139455000Y-116396428D01*
X139407380Y-116253571D01*
X139407380Y-116158333D01*
X139455000Y-116015476D01*
X139502619Y-115967857D01*
X140407380Y-115015476D02*
X140407380Y-115586904D01*
X140407380Y-115301190D02*
X139407380Y-115301190D01*
X139550238Y-115396428D01*
X139645476Y-115491666D01*
X139693095Y-115586904D01*
X139502619Y-114634523D02*
X139455000Y-114586904D01*
X139407380Y-114491666D01*
X139407380Y-114253571D01*
X139455000Y-114158333D01*
X139502619Y-114110714D01*
X139597857Y-114063095D01*
X139693095Y-114063095D01*
X139835952Y-114110714D01*
X140407380Y-114682142D01*
X140407380Y-114063095D01*
%TO.C,C13*%
X155552142Y-41917857D02*
X155599761Y-41965476D01*
X155647380Y-42108333D01*
X155647380Y-42203571D01*
X155599761Y-42346428D01*
X155504523Y-42441666D01*
X155409285Y-42489285D01*
X155218809Y-42536904D01*
X155075952Y-42536904D01*
X154885476Y-42489285D01*
X154790238Y-42441666D01*
X154695000Y-42346428D01*
X154647380Y-42203571D01*
X154647380Y-42108333D01*
X154695000Y-41965476D01*
X154742619Y-41917857D01*
X155647380Y-40965476D02*
X155647380Y-41536904D01*
X155647380Y-41251190D02*
X154647380Y-41251190D01*
X154790238Y-41346428D01*
X154885476Y-41441666D01*
X154933095Y-41536904D01*
X154647380Y-40632142D02*
X154647380Y-40013095D01*
X155028333Y-40346428D01*
X155028333Y-40203571D01*
X155075952Y-40108333D01*
X155123571Y-40060714D01*
X155218809Y-40013095D01*
X155456904Y-40013095D01*
X155552142Y-40060714D01*
X155599761Y-40108333D01*
X155647380Y-40203571D01*
X155647380Y-40489285D01*
X155599761Y-40584523D01*
X155552142Y-40632142D01*
%TO.C,C14*%
X130277142Y-73032857D02*
X130324761Y-73080476D01*
X130372380Y-73223333D01*
X130372380Y-73318571D01*
X130324761Y-73461428D01*
X130229523Y-73556666D01*
X130134285Y-73604285D01*
X129943809Y-73651904D01*
X129800952Y-73651904D01*
X129610476Y-73604285D01*
X129515238Y-73556666D01*
X129420000Y-73461428D01*
X129372380Y-73318571D01*
X129372380Y-73223333D01*
X129420000Y-73080476D01*
X129467619Y-73032857D01*
X130372380Y-72080476D02*
X130372380Y-72651904D01*
X130372380Y-72366190D02*
X129372380Y-72366190D01*
X129515238Y-72461428D01*
X129610476Y-72556666D01*
X129658095Y-72651904D01*
X129705714Y-71223333D02*
X130372380Y-71223333D01*
X129324761Y-71461428D02*
X130039047Y-71699523D01*
X130039047Y-71080476D01*
%TO.C,C15*%
X156947142Y-84707857D02*
X156994761Y-84755476D01*
X157042380Y-84898333D01*
X157042380Y-84993571D01*
X156994761Y-85136428D01*
X156899523Y-85231666D01*
X156804285Y-85279285D01*
X156613809Y-85326904D01*
X156470952Y-85326904D01*
X156280476Y-85279285D01*
X156185238Y-85231666D01*
X156090000Y-85136428D01*
X156042380Y-84993571D01*
X156042380Y-84898333D01*
X156090000Y-84755476D01*
X156137619Y-84707857D01*
X157042380Y-83755476D02*
X157042380Y-84326904D01*
X157042380Y-84041190D02*
X156042380Y-84041190D01*
X156185238Y-84136428D01*
X156280476Y-84231666D01*
X156328095Y-84326904D01*
X156042380Y-82850714D02*
X156042380Y-83326904D01*
X156518571Y-83374523D01*
X156470952Y-83326904D01*
X156423333Y-83231666D01*
X156423333Y-82993571D01*
X156470952Y-82898333D01*
X156518571Y-82850714D01*
X156613809Y-82803095D01*
X156851904Y-82803095D01*
X156947142Y-82850714D01*
X156994761Y-82898333D01*
X157042380Y-82993571D01*
X157042380Y-83231666D01*
X156994761Y-83326904D01*
X156947142Y-83374523D01*
%TO.C,C16*%
X125072142Y-84707857D02*
X125119761Y-84755476D01*
X125167380Y-84898333D01*
X125167380Y-84993571D01*
X125119761Y-85136428D01*
X125024523Y-85231666D01*
X124929285Y-85279285D01*
X124738809Y-85326904D01*
X124595952Y-85326904D01*
X124405476Y-85279285D01*
X124310238Y-85231666D01*
X124215000Y-85136428D01*
X124167380Y-84993571D01*
X124167380Y-84898333D01*
X124215000Y-84755476D01*
X124262619Y-84707857D01*
X125167380Y-83755476D02*
X125167380Y-84326904D01*
X125167380Y-84041190D02*
X124167380Y-84041190D01*
X124310238Y-84136428D01*
X124405476Y-84231666D01*
X124453095Y-84326904D01*
X124167380Y-82898333D02*
X124167380Y-83088809D01*
X124215000Y-83184047D01*
X124262619Y-83231666D01*
X124405476Y-83326904D01*
X124595952Y-83374523D01*
X124976904Y-83374523D01*
X125072142Y-83326904D01*
X125119761Y-83279285D01*
X125167380Y-83184047D01*
X125167380Y-82993571D01*
X125119761Y-82898333D01*
X125072142Y-82850714D01*
X124976904Y-82803095D01*
X124738809Y-82803095D01*
X124643571Y-82850714D01*
X124595952Y-82898333D01*
X124548333Y-82993571D01*
X124548333Y-83184047D01*
X124595952Y-83279285D01*
X124643571Y-83326904D01*
X124738809Y-83374523D01*
%TO.C,C17*%
X128372142Y-91837857D02*
X128419761Y-91885476D01*
X128467380Y-92028333D01*
X128467380Y-92123571D01*
X128419761Y-92266428D01*
X128324523Y-92361666D01*
X128229285Y-92409285D01*
X128038809Y-92456904D01*
X127895952Y-92456904D01*
X127705476Y-92409285D01*
X127610238Y-92361666D01*
X127515000Y-92266428D01*
X127467380Y-92123571D01*
X127467380Y-92028333D01*
X127515000Y-91885476D01*
X127562619Y-91837857D01*
X128467380Y-90885476D02*
X128467380Y-91456904D01*
X128467380Y-91171190D02*
X127467380Y-91171190D01*
X127610238Y-91266428D01*
X127705476Y-91361666D01*
X127753095Y-91456904D01*
X127467380Y-90552142D02*
X127467380Y-89885476D01*
X128467380Y-90314047D01*
%TO.C,C18*%
X217272142Y-20572857D02*
X217319761Y-20620476D01*
X217367380Y-20763333D01*
X217367380Y-20858571D01*
X217319761Y-21001428D01*
X217224523Y-21096666D01*
X217129285Y-21144285D01*
X216938809Y-21191904D01*
X216795952Y-21191904D01*
X216605476Y-21144285D01*
X216510238Y-21096666D01*
X216415000Y-21001428D01*
X216367380Y-20858571D01*
X216367380Y-20763333D01*
X216415000Y-20620476D01*
X216462619Y-20572857D01*
X217367380Y-19620476D02*
X217367380Y-20191904D01*
X217367380Y-19906190D02*
X216367380Y-19906190D01*
X216510238Y-20001428D01*
X216605476Y-20096666D01*
X216653095Y-20191904D01*
X216795952Y-19049047D02*
X216748333Y-19144285D01*
X216700714Y-19191904D01*
X216605476Y-19239523D01*
X216557857Y-19239523D01*
X216462619Y-19191904D01*
X216415000Y-19144285D01*
X216367380Y-19049047D01*
X216367380Y-18858571D01*
X216415000Y-18763333D01*
X216462619Y-18715714D01*
X216557857Y-18668095D01*
X216605476Y-18668095D01*
X216700714Y-18715714D01*
X216748333Y-18763333D01*
X216795952Y-18858571D01*
X216795952Y-19049047D01*
X216843571Y-19144285D01*
X216891190Y-19191904D01*
X216986428Y-19239523D01*
X217176904Y-19239523D01*
X217272142Y-19191904D01*
X217319761Y-19144285D01*
X217367380Y-19049047D01*
X217367380Y-18858571D01*
X217319761Y-18763333D01*
X217272142Y-18715714D01*
X217176904Y-18668095D01*
X216986428Y-18668095D01*
X216891190Y-18715714D01*
X216843571Y-18763333D01*
X216795952Y-18858571D01*
%TO.C,C19*%
X120627142Y-101362857D02*
X120674761Y-101410476D01*
X120722380Y-101553333D01*
X120722380Y-101648571D01*
X120674761Y-101791428D01*
X120579523Y-101886666D01*
X120484285Y-101934285D01*
X120293809Y-101981904D01*
X120150952Y-101981904D01*
X119960476Y-101934285D01*
X119865238Y-101886666D01*
X119770000Y-101791428D01*
X119722380Y-101648571D01*
X119722380Y-101553333D01*
X119770000Y-101410476D01*
X119817619Y-101362857D01*
X120722380Y-100410476D02*
X120722380Y-100981904D01*
X120722380Y-100696190D02*
X119722380Y-100696190D01*
X119865238Y-100791428D01*
X119960476Y-100886666D01*
X120008095Y-100981904D01*
X120722380Y-99934285D02*
X120722380Y-99743809D01*
X120674761Y-99648571D01*
X120627142Y-99600952D01*
X120484285Y-99505714D01*
X120293809Y-99458095D01*
X119912857Y-99458095D01*
X119817619Y-99505714D01*
X119770000Y-99553333D01*
X119722380Y-99648571D01*
X119722380Y-99839047D01*
X119770000Y-99934285D01*
X119817619Y-99981904D01*
X119912857Y-100029523D01*
X120150952Y-100029523D01*
X120246190Y-99981904D01*
X120293809Y-99934285D01*
X120341428Y-99839047D01*
X120341428Y-99648571D01*
X120293809Y-99553333D01*
X120246190Y-99505714D01*
X120150952Y-99458095D01*
%TO.C,C20*%
X136627142Y-101217857D02*
X136674761Y-101265476D01*
X136722380Y-101408333D01*
X136722380Y-101503571D01*
X136674761Y-101646428D01*
X136579523Y-101741666D01*
X136484285Y-101789285D01*
X136293809Y-101836904D01*
X136150952Y-101836904D01*
X135960476Y-101789285D01*
X135865238Y-101741666D01*
X135770000Y-101646428D01*
X135722380Y-101503571D01*
X135722380Y-101408333D01*
X135770000Y-101265476D01*
X135817619Y-101217857D01*
X135817619Y-100836904D02*
X135770000Y-100789285D01*
X135722380Y-100694047D01*
X135722380Y-100455952D01*
X135770000Y-100360714D01*
X135817619Y-100313095D01*
X135912857Y-100265476D01*
X136008095Y-100265476D01*
X136150952Y-100313095D01*
X136722380Y-100884523D01*
X136722380Y-100265476D01*
X135722380Y-99646428D02*
X135722380Y-99551190D01*
X135770000Y-99455952D01*
X135817619Y-99408333D01*
X135912857Y-99360714D01*
X136103333Y-99313095D01*
X136341428Y-99313095D01*
X136531904Y-99360714D01*
X136627142Y-99408333D01*
X136674761Y-99455952D01*
X136722380Y-99551190D01*
X136722380Y-99646428D01*
X136674761Y-99741666D01*
X136627142Y-99789285D01*
X136531904Y-99836904D01*
X136341428Y-99884523D01*
X136103333Y-99884523D01*
X135912857Y-99836904D01*
X135817619Y-99789285D01*
X135770000Y-99741666D01*
X135722380Y-99646428D01*
%TO.C,CR1*%
X127603333Y-98147142D02*
X127555714Y-98194761D01*
X127412857Y-98242380D01*
X127317619Y-98242380D01*
X127174761Y-98194761D01*
X127079523Y-98099523D01*
X127031904Y-98004285D01*
X126984285Y-97813809D01*
X126984285Y-97670952D01*
X127031904Y-97480476D01*
X127079523Y-97385238D01*
X127174761Y-97290000D01*
X127317619Y-97242380D01*
X127412857Y-97242380D01*
X127555714Y-97290000D01*
X127603333Y-97337619D01*
X128603333Y-98242380D02*
X128270000Y-97766190D01*
X128031904Y-98242380D02*
X128031904Y-97242380D01*
X128412857Y-97242380D01*
X128508095Y-97290000D01*
X128555714Y-97337619D01*
X128603333Y-97432857D01*
X128603333Y-97575714D01*
X128555714Y-97670952D01*
X128508095Y-97718571D01*
X128412857Y-97766190D01*
X128031904Y-97766190D01*
X129555714Y-98242380D02*
X128984285Y-98242380D01*
X129270000Y-98242380D02*
X129270000Y-97242380D01*
X129174761Y-97385238D01*
X129079523Y-97480476D01*
X128984285Y-97528095D01*
X235403095Y-100782380D02*
X234926904Y-100782380D01*
X234926904Y-99782380D01*
X235641190Y-99782380D02*
X236307857Y-99782380D01*
X235879285Y-100782380D01*
X236831666Y-100210952D02*
X236736428Y-100163333D01*
X236688809Y-100115714D01*
X236641190Y-100020476D01*
X236641190Y-99972857D01*
X236688809Y-99877619D01*
X236736428Y-99830000D01*
X236831666Y-99782380D01*
X237022142Y-99782380D01*
X237117380Y-99830000D01*
X237165000Y-99877619D01*
X237212619Y-99972857D01*
X237212619Y-100020476D01*
X237165000Y-100115714D01*
X237117380Y-100163333D01*
X237022142Y-100210952D01*
X236831666Y-100210952D01*
X236736428Y-100258571D01*
X236688809Y-100306190D01*
X236641190Y-100401428D01*
X236641190Y-100591904D01*
X236688809Y-100687142D01*
X236736428Y-100734761D01*
X236831666Y-100782380D01*
X237022142Y-100782380D01*
X237117380Y-100734761D01*
X237165000Y-100687142D01*
X237212619Y-100591904D01*
X237212619Y-100401428D01*
X237165000Y-100306190D01*
X237117380Y-100258571D01*
X237022142Y-100210952D01*
X238117380Y-100782380D02*
X237641190Y-100782380D01*
X237641190Y-99782380D01*
X238641190Y-99782380D02*
X238736428Y-99782380D01*
X238831666Y-99830000D01*
X238879285Y-99877619D01*
X238926904Y-99972857D01*
X238974523Y-100163333D01*
X238974523Y-100401428D01*
X238926904Y-100591904D01*
X238879285Y-100687142D01*
X238831666Y-100734761D01*
X238736428Y-100782380D01*
X238641190Y-100782380D01*
X238545952Y-100734761D01*
X238498333Y-100687142D01*
X238450714Y-100591904D01*
X238403095Y-100401428D01*
X238403095Y-100163333D01*
X238450714Y-99972857D01*
X238498333Y-99877619D01*
X238545952Y-99830000D01*
X238641190Y-99782380D01*
X239879285Y-99782380D02*
X239403095Y-99782380D01*
X239355476Y-100258571D01*
X239403095Y-100210952D01*
X239498333Y-100163333D01*
X239736428Y-100163333D01*
X239831666Y-100210952D01*
X239879285Y-100258571D01*
X239926904Y-100353809D01*
X239926904Y-100591904D01*
X239879285Y-100687142D01*
X239831666Y-100734761D01*
X239736428Y-100782380D01*
X239498333Y-100782380D01*
X239403095Y-100734761D01*
X239355476Y-100687142D01*
X240307857Y-100496666D02*
X240784047Y-100496666D01*
X240212619Y-100782380D02*
X240545952Y-99782380D01*
X240879285Y-100782380D01*
X241784047Y-100687142D02*
X241736428Y-100734761D01*
X241593571Y-100782380D01*
X241498333Y-100782380D01*
X241355476Y-100734761D01*
X241260238Y-100639523D01*
X241212619Y-100544285D01*
X241165000Y-100353809D01*
X241165000Y-100210952D01*
X241212619Y-100020476D01*
X241260238Y-99925238D01*
X241355476Y-99830000D01*
X241498333Y-99782380D01*
X241593571Y-99782380D01*
X241736428Y-99830000D01*
X241784047Y-99877619D01*
X242212619Y-100782380D02*
X242212619Y-99782380D01*
X242450714Y-99782380D01*
X242593571Y-99830000D01*
X242688809Y-99925238D01*
X242736428Y-100020476D01*
X242784047Y-100210952D01*
X242784047Y-100353809D01*
X242736428Y-100544285D01*
X242688809Y-100639523D01*
X242593571Y-100734761D01*
X242450714Y-100782380D01*
X242212619Y-100782380D01*
X243736428Y-100782380D02*
X243165000Y-100782380D01*
X243450714Y-100782380D02*
X243450714Y-99782380D01*
X243355476Y-99925238D01*
X243260238Y-100020476D01*
X243165000Y-100068095D01*
X244069761Y-99782380D02*
X244688809Y-99782380D01*
X244355476Y-100163333D01*
X244498333Y-100163333D01*
X244593571Y-100210952D01*
X244641190Y-100258571D01*
X244688809Y-100353809D01*
X244688809Y-100591904D01*
X244641190Y-100687142D01*
X244593571Y-100734761D01*
X244498333Y-100782380D01*
X244212619Y-100782380D01*
X244117380Y-100734761D01*
X244069761Y-100687142D01*
X244974523Y-99782380D02*
X245545952Y-99782380D01*
X245260238Y-100782380D02*
X245260238Y-99782380D01*
X246450714Y-100782380D02*
X246117380Y-100306190D01*
X245879285Y-100782380D02*
X245879285Y-99782380D01*
X246260238Y-99782380D01*
X246355476Y-99830000D01*
X246403095Y-99877619D01*
X246450714Y-99972857D01*
X246450714Y-100115714D01*
X246403095Y-100210952D01*
X246355476Y-100258571D01*
X246260238Y-100306190D01*
X245879285Y-100306190D01*
X125336300Y-97445580D02*
X125336300Y-97683676D01*
X125098204Y-97588438D02*
X125336300Y-97683676D01*
X125574395Y-97588438D01*
X125193442Y-97874152D02*
X125336300Y-97683676D01*
X125479157Y-97874152D01*
X125336300Y-97445580D02*
X125336300Y-97683676D01*
X125098204Y-97588438D02*
X125336300Y-97683676D01*
X125574395Y-97588438D01*
X125193442Y-97874152D02*
X125336300Y-97683676D01*
X125479157Y-97874152D01*
%TO.C,D1*%
X200709304Y-11247380D02*
X200709304Y-10247380D01*
X200947400Y-10247380D01*
X201090257Y-10295000D01*
X201185495Y-10390238D01*
X201233114Y-10485476D01*
X201280733Y-10675952D01*
X201280733Y-10818809D01*
X201233114Y-11009285D01*
X201185495Y-11104523D01*
X201090257Y-11199761D01*
X200947400Y-11247380D01*
X200709304Y-11247380D01*
X202233114Y-11247380D02*
X201661685Y-11247380D01*
X201947400Y-11247380D02*
X201947400Y-10247380D01*
X201852161Y-10390238D01*
X201756923Y-10485476D01*
X201661685Y-10533095D01*
X201045842Y-13152380D02*
X200569652Y-13152380D01*
X200569652Y-12152380D01*
X201379176Y-12628571D02*
X201712509Y-12628571D01*
X201855366Y-13152380D02*
X201379176Y-13152380D01*
X201379176Y-12152380D01*
X201855366Y-12152380D01*
X202283938Y-13152380D02*
X202283938Y-12152380D01*
X202522033Y-12152380D01*
X202664890Y-12200000D01*
X202760128Y-12295238D01*
X202807747Y-12390476D01*
X202855366Y-12580952D01*
X202855366Y-12723809D01*
X202807747Y-12914285D01*
X202760128Y-13009523D01*
X202664890Y-13104761D01*
X202522033Y-13152380D01*
X202283938Y-13152380D01*
X201688700Y-12152380D02*
X201688700Y-12390476D01*
X201450604Y-12295238D02*
X201688700Y-12390476D01*
X201926795Y-12295238D01*
X201545842Y-12580952D02*
X201688700Y-12390476D01*
X201831557Y-12580952D01*
%TO.C,D2*%
X215717380Y-28043095D02*
X214717380Y-28043095D01*
X214717380Y-27805000D01*
X214765000Y-27662142D01*
X214860238Y-27566904D01*
X214955476Y-27519285D01*
X215145952Y-27471666D01*
X215288809Y-27471666D01*
X215479285Y-27519285D01*
X215574523Y-27566904D01*
X215669761Y-27662142D01*
X215717380Y-27805000D01*
X215717380Y-28043095D01*
X214812619Y-27090714D02*
X214765000Y-27043095D01*
X214717380Y-26947857D01*
X214717380Y-26709761D01*
X214765000Y-26614523D01*
X214812619Y-26566904D01*
X214907857Y-26519285D01*
X215003095Y-26519285D01*
X215145952Y-26566904D01*
X215717380Y-27138333D01*
X215717380Y-26519285D01*
X215717380Y-30729157D02*
X215717380Y-31205347D01*
X214717380Y-31205347D01*
X215193571Y-30395823D02*
X215193571Y-30062490D01*
X215717380Y-29919633D02*
X215717380Y-30395823D01*
X214717380Y-30395823D01*
X214717380Y-29919633D01*
X215717380Y-29491061D02*
X214717380Y-29491061D01*
X214717380Y-29252966D01*
X214765000Y-29110109D01*
X214860238Y-29014871D01*
X214955476Y-28967252D01*
X215145952Y-28919633D01*
X215288809Y-28919633D01*
X215479285Y-28967252D01*
X215574523Y-29014871D01*
X215669761Y-29110109D01*
X215717380Y-29252966D01*
X215717380Y-29491061D01*
X214717380Y-30086300D02*
X214955476Y-30086300D01*
X214860238Y-30324395D02*
X214955476Y-30086300D01*
X214860238Y-29848204D01*
X215145952Y-30229157D02*
X214955476Y-30086300D01*
X215145952Y-29943442D01*
%TO.C,D3*%
X181989504Y-29027380D02*
X181989504Y-28027380D01*
X182227600Y-28027380D01*
X182370457Y-28075000D01*
X182465695Y-28170238D01*
X182513314Y-28265476D01*
X182560933Y-28455952D01*
X182560933Y-28598809D01*
X182513314Y-28789285D01*
X182465695Y-28884523D01*
X182370457Y-28979761D01*
X182227600Y-29027380D01*
X181989504Y-29027380D01*
X182894266Y-28027380D02*
X183513314Y-28027380D01*
X183179980Y-28408333D01*
X183322838Y-28408333D01*
X183418076Y-28455952D01*
X183465695Y-28503571D01*
X183513314Y-28598809D01*
X183513314Y-28836904D01*
X183465695Y-28932142D01*
X183418076Y-28979761D01*
X183322838Y-29027380D01*
X183037123Y-29027380D01*
X182941885Y-28979761D01*
X182894266Y-28932142D01*
X181843442Y-27122380D02*
X181367252Y-27122380D01*
X181367252Y-26122380D01*
X182176776Y-26598571D02*
X182510109Y-26598571D01*
X182652966Y-27122380D02*
X182176776Y-27122380D01*
X182176776Y-26122380D01*
X182652966Y-26122380D01*
X183081538Y-27122380D02*
X183081538Y-26122380D01*
X183319633Y-26122380D01*
X183462490Y-26170000D01*
X183557728Y-26265238D01*
X183605347Y-26360476D01*
X183652966Y-26550952D01*
X183652966Y-26693809D01*
X183605347Y-26884285D01*
X183557728Y-26979523D01*
X183462490Y-27074761D01*
X183319633Y-27122380D01*
X183081538Y-27122380D01*
X182486300Y-26122380D02*
X182486300Y-26360476D01*
X182248204Y-26265238D02*
X182486300Y-26360476D01*
X182724395Y-26265238D01*
X182343442Y-26550952D02*
X182486300Y-26360476D01*
X182629157Y-26550952D01*
%TO.C,D4*%
X188885604Y-25217380D02*
X188885604Y-24217380D01*
X189123700Y-24217380D01*
X189266557Y-24265000D01*
X189361795Y-24360238D01*
X189409414Y-24455476D01*
X189457033Y-24645952D01*
X189457033Y-24788809D01*
X189409414Y-24979285D01*
X189361795Y-25074523D01*
X189266557Y-25169761D01*
X189123700Y-25217380D01*
X188885604Y-25217380D01*
X190314176Y-24550714D02*
X190314176Y-25217380D01*
X190076080Y-24169761D02*
X189837985Y-24884047D01*
X190457033Y-24884047D01*
X188980842Y-27122380D02*
X188504652Y-27122380D01*
X188504652Y-26122380D01*
X189314176Y-26598571D02*
X189647509Y-26598571D01*
X189790366Y-27122380D02*
X189314176Y-27122380D01*
X189314176Y-26122380D01*
X189790366Y-26122380D01*
X190218938Y-27122380D02*
X190218938Y-26122380D01*
X190457033Y-26122380D01*
X190599890Y-26170000D01*
X190695128Y-26265238D01*
X190742747Y-26360476D01*
X190790366Y-26550952D01*
X190790366Y-26693809D01*
X190742747Y-26884285D01*
X190695128Y-26979523D01*
X190599890Y-27074761D01*
X190457033Y-27122380D01*
X190218938Y-27122380D01*
X189623700Y-26122380D02*
X189623700Y-26360476D01*
X189385604Y-26265238D02*
X189623700Y-26360476D01*
X189861795Y-26265238D01*
X189480842Y-26550952D02*
X189623700Y-26360476D01*
X189766557Y-26550952D01*
%TO.C,D5*%
X152217380Y-61698095D02*
X151217380Y-61698095D01*
X151217380Y-61460000D01*
X151265000Y-61317142D01*
X151360238Y-61221904D01*
X151455476Y-61174285D01*
X151645952Y-61126666D01*
X151788809Y-61126666D01*
X151979285Y-61174285D01*
X152074523Y-61221904D01*
X152169761Y-61317142D01*
X152217380Y-61460000D01*
X152217380Y-61698095D01*
X151217380Y-60221904D02*
X151217380Y-60698095D01*
X151693571Y-60745714D01*
X151645952Y-60698095D01*
X151598333Y-60602857D01*
X151598333Y-60364761D01*
X151645952Y-60269523D01*
X151693571Y-60221904D01*
X151788809Y-60174285D01*
X152026904Y-60174285D01*
X152122142Y-60221904D01*
X152169761Y-60269523D01*
X152217380Y-60364761D01*
X152217380Y-60602857D01*
X152169761Y-60698095D01*
X152122142Y-60745714D01*
X153487380Y-64536557D02*
X153487380Y-65012747D01*
X152487380Y-65012747D01*
X152963571Y-64203223D02*
X152963571Y-63869890D01*
X153487380Y-63727033D02*
X153487380Y-64203223D01*
X152487380Y-64203223D01*
X152487380Y-63727033D01*
X153487380Y-63298461D02*
X152487380Y-63298461D01*
X152487380Y-63060366D01*
X152535000Y-62917509D01*
X152630238Y-62822271D01*
X152725476Y-62774652D01*
X152915952Y-62727033D01*
X153058809Y-62727033D01*
X153249285Y-62774652D01*
X153344523Y-62822271D01*
X153439761Y-62917509D01*
X153487380Y-63060366D01*
X153487380Y-63298461D01*
X152487380Y-63893700D02*
X152725476Y-63893700D01*
X152630238Y-64131795D02*
X152725476Y-63893700D01*
X152630238Y-63655604D01*
X152915952Y-64036557D02*
X152725476Y-63893700D01*
X152915952Y-63750842D01*
%TO.C,D6*%
X116657380Y-27014395D02*
X115657380Y-27014395D01*
X115657380Y-26776300D01*
X115705000Y-26633442D01*
X115800238Y-26538204D01*
X115895476Y-26490585D01*
X116085952Y-26442966D01*
X116228809Y-26442966D01*
X116419285Y-26490585D01*
X116514523Y-26538204D01*
X116609761Y-26633442D01*
X116657380Y-26776300D01*
X116657380Y-27014395D01*
X115657380Y-25585823D02*
X115657380Y-25776300D01*
X115705000Y-25871538D01*
X115752619Y-25919157D01*
X115895476Y-26014395D01*
X116085952Y-26062014D01*
X116466904Y-26062014D01*
X116562142Y-26014395D01*
X116609761Y-25966776D01*
X116657380Y-25871538D01*
X116657380Y-25681061D01*
X116609761Y-25585823D01*
X116562142Y-25538204D01*
X116466904Y-25490585D01*
X116228809Y-25490585D01*
X116133571Y-25538204D01*
X116085952Y-25585823D01*
X116038333Y-25681061D01*
X116038333Y-25871538D01*
X116085952Y-25966776D01*
X116133571Y-26014395D01*
X116228809Y-26062014D01*
X118562380Y-26919157D02*
X118562380Y-27395347D01*
X117562380Y-27395347D01*
X118038571Y-26585823D02*
X118038571Y-26252490D01*
X118562380Y-26109633D02*
X118562380Y-26585823D01*
X117562380Y-26585823D01*
X117562380Y-26109633D01*
X118562380Y-25681061D02*
X117562380Y-25681061D01*
X117562380Y-25442966D01*
X117610000Y-25300109D01*
X117705238Y-25204871D01*
X117800476Y-25157252D01*
X117990952Y-25109633D01*
X118133809Y-25109633D01*
X118324285Y-25157252D01*
X118419523Y-25204871D01*
X118514761Y-25300109D01*
X118562380Y-25442966D01*
X118562380Y-25681061D01*
X117562380Y-26276300D02*
X117800476Y-26276300D01*
X117705238Y-26514395D02*
X117800476Y-26276300D01*
X117705238Y-26038204D01*
X117990952Y-26419157D02*
X117800476Y-26276300D01*
X117990952Y-26133442D01*
%TO.C,J1*%
X138291666Y-140262380D02*
X138291666Y-140976666D01*
X138244047Y-141119523D01*
X138148809Y-141214761D01*
X138005952Y-141262380D01*
X137910714Y-141262380D01*
X139291666Y-141262380D02*
X138720238Y-141262380D01*
X139005952Y-141262380D02*
X139005952Y-140262380D01*
X138910714Y-140405238D01*
X138815476Y-140500476D01*
X138720238Y-140548095D01*
%TO.C,J3*%
X224456666Y-9187380D02*
X224456666Y-9901666D01*
X224409047Y-10044523D01*
X224313809Y-10139761D01*
X224170952Y-10187380D01*
X224075714Y-10187380D01*
X224837619Y-9187380D02*
X225456666Y-9187380D01*
X225123333Y-9568333D01*
X225266190Y-9568333D01*
X225361428Y-9615952D01*
X225409047Y-9663571D01*
X225456666Y-9758809D01*
X225456666Y-9996904D01*
X225409047Y-10092142D01*
X225361428Y-10139761D01*
X225266190Y-10187380D01*
X224980476Y-10187380D01*
X224885238Y-10139761D01*
X224837619Y-10092142D01*
%TO.C,J4*%
X241601666Y-9187380D02*
X241601666Y-9901666D01*
X241554047Y-10044523D01*
X241458809Y-10139761D01*
X241315952Y-10187380D01*
X241220714Y-10187380D01*
X242506428Y-9520714D02*
X242506428Y-10187380D01*
X242268333Y-9139761D02*
X242030238Y-9854047D01*
X242649285Y-9854047D01*
%TO.C,J5.1*%
X95472380Y-65262380D02*
X95472380Y-65976666D01*
X95424761Y-66119523D01*
X95329523Y-66214761D01*
X95186666Y-66262380D01*
X95091428Y-66262380D01*
X96424761Y-65262380D02*
X95948571Y-65262380D01*
X95900952Y-65738571D01*
X95948571Y-65690952D01*
X96043809Y-65643333D01*
X96281904Y-65643333D01*
X96377142Y-65690952D01*
X96424761Y-65738571D01*
X96472380Y-65833809D01*
X96472380Y-66071904D01*
X96424761Y-66167142D01*
X96377142Y-66214761D01*
X96281904Y-66262380D01*
X96043809Y-66262380D01*
X95948571Y-66214761D01*
X95900952Y-66167142D01*
X96900952Y-66167142D02*
X96948571Y-66214761D01*
X96900952Y-66262380D01*
X96853333Y-66214761D01*
X96900952Y-66167142D01*
X96900952Y-66262380D01*
X97900952Y-66262380D02*
X97329523Y-66262380D01*
X97615238Y-66262380D02*
X97615238Y-65262380D01*
X97520000Y-65405238D01*
X97424761Y-65500476D01*
X97329523Y-65548095D01*
%TO.C,J5.2*%
X253211460Y-65262380D02*
X253211460Y-65976666D01*
X253163841Y-66119523D01*
X253068603Y-66214761D01*
X252925746Y-66262380D01*
X252830508Y-66262380D01*
X254163841Y-65262380D02*
X253687651Y-65262380D01*
X253640032Y-65738571D01*
X253687651Y-65690952D01*
X253782889Y-65643333D01*
X254020984Y-65643333D01*
X254116222Y-65690952D01*
X254163841Y-65738571D01*
X254211460Y-65833809D01*
X254211460Y-66071904D01*
X254163841Y-66167142D01*
X254116222Y-66214761D01*
X254020984Y-66262380D01*
X253782889Y-66262380D01*
X253687651Y-66214761D01*
X253640032Y-66167142D01*
X254640032Y-66167142D02*
X254687651Y-66214761D01*
X254640032Y-66262380D01*
X254592413Y-66214761D01*
X254640032Y-66167142D01*
X254640032Y-66262380D01*
X255068603Y-65357619D02*
X255116222Y-65310000D01*
X255211460Y-65262380D01*
X255449556Y-65262380D01*
X255544794Y-65310000D01*
X255592413Y-65357619D01*
X255640032Y-65452857D01*
X255640032Y-65548095D01*
X255592413Y-65690952D01*
X255020984Y-66262380D01*
X255640032Y-66262380D01*
%TO.C,J6*%
X240331666Y-72072380D02*
X240331666Y-72786666D01*
X240284047Y-72929523D01*
X240188809Y-73024761D01*
X240045952Y-73072380D01*
X239950714Y-73072380D01*
X241236428Y-72072380D02*
X241045952Y-72072380D01*
X240950714Y-72120000D01*
X240903095Y-72167619D01*
X240807857Y-72310476D01*
X240760238Y-72500952D01*
X240760238Y-72881904D01*
X240807857Y-72977142D01*
X240855476Y-73024761D01*
X240950714Y-73072380D01*
X241141190Y-73072380D01*
X241236428Y-73024761D01*
X241284047Y-72977142D01*
X241331666Y-72881904D01*
X241331666Y-72643809D01*
X241284047Y-72548571D01*
X241236428Y-72500952D01*
X241141190Y-72453333D01*
X240950714Y-72453333D01*
X240855476Y-72500952D01*
X240807857Y-72548571D01*
X240760238Y-72643809D01*
%TO.C,J7*%
X175507380Y-15768333D02*
X176221666Y-15768333D01*
X176364523Y-15815952D01*
X176459761Y-15911190D01*
X176507380Y-16054047D01*
X176507380Y-16149285D01*
X175507380Y-15387380D02*
X175507380Y-14720714D01*
X176507380Y-15149285D01*
%TO.C,J8*%
X145907380Y-147018333D02*
X146621666Y-147018333D01*
X146764523Y-147065952D01*
X146859761Y-147161190D01*
X146907380Y-147304047D01*
X146907380Y-147399285D01*
X146335952Y-146399285D02*
X146288333Y-146494523D01*
X146240714Y-146542142D01*
X146145476Y-146589761D01*
X146097857Y-146589761D01*
X146002619Y-146542142D01*
X145955000Y-146494523D01*
X145907380Y-146399285D01*
X145907380Y-146208809D01*
X145955000Y-146113571D01*
X146002619Y-146065952D01*
X146097857Y-146018333D01*
X146145476Y-146018333D01*
X146240714Y-146065952D01*
X146288333Y-146113571D01*
X146335952Y-146208809D01*
X146335952Y-146399285D01*
X146383571Y-146494523D01*
X146431190Y-146542142D01*
X146526428Y-146589761D01*
X146716904Y-146589761D01*
X146812142Y-146542142D01*
X146859761Y-146494523D01*
X146907380Y-146399285D01*
X146907380Y-146208809D01*
X146859761Y-146113571D01*
X146812142Y-146065952D01*
X146716904Y-146018333D01*
X146526428Y-146018333D01*
X146431190Y-146065952D01*
X146383571Y-146113571D01*
X146335952Y-146208809D01*
%TO.C,J9*%
X160956666Y-82867380D02*
X160956666Y-83581666D01*
X160909047Y-83724523D01*
X160813809Y-83819761D01*
X160670952Y-83867380D01*
X160575714Y-83867380D01*
X161480476Y-83867380D02*
X161670952Y-83867380D01*
X161766190Y-83819761D01*
X161813809Y-83772142D01*
X161909047Y-83629285D01*
X161956666Y-83438809D01*
X161956666Y-83057857D01*
X161909047Y-82962619D01*
X161861428Y-82915000D01*
X161766190Y-82867380D01*
X161575714Y-82867380D01*
X161480476Y-82915000D01*
X161432857Y-82962619D01*
X161385238Y-83057857D01*
X161385238Y-83295952D01*
X161432857Y-83391190D01*
X161480476Y-83438809D01*
X161575714Y-83486428D01*
X161766190Y-83486428D01*
X161861428Y-83438809D01*
X161909047Y-83391190D01*
X161956666Y-83295952D01*
%TO.C,U1*%
X168148095Y-138477380D02*
X168148095Y-139286904D01*
X168195714Y-139382142D01*
X168243333Y-139429761D01*
X168338571Y-139477380D01*
X168529047Y-139477380D01*
X168624285Y-139429761D01*
X168671904Y-139382142D01*
X168719523Y-139286904D01*
X168719523Y-138477380D01*
X169719523Y-139477380D02*
X169148095Y-139477380D01*
X169433809Y-139477380D02*
X169433809Y-138477380D01*
X169338571Y-138620238D01*
X169243333Y-138715476D01*
X169148095Y-138763095D01*
%TO.C,U2*%
X141478095Y-66322380D02*
X141478095Y-67131904D01*
X141525714Y-67227142D01*
X141573333Y-67274761D01*
X141668571Y-67322380D01*
X141859047Y-67322380D01*
X141954285Y-67274761D01*
X142001904Y-67227142D01*
X142049523Y-67131904D01*
X142049523Y-66322380D01*
X142478095Y-66417619D02*
X142525714Y-66370000D01*
X142620952Y-66322380D01*
X142859047Y-66322380D01*
X142954285Y-66370000D01*
X143001904Y-66417619D01*
X143049523Y-66512857D01*
X143049523Y-66608095D01*
X143001904Y-66750952D01*
X142430476Y-67322380D01*
X143049523Y-67322380D01*
%TO.C,U4*%
D18*
X167022024Y-36179834D02*
X167022024Y-37321518D01*
X167089182Y-37455833D01*
X167156340Y-37522991D01*
X167290655Y-37590149D01*
X167559287Y-37590149D01*
X167693602Y-37522991D01*
X167760760Y-37455833D01*
X167827918Y-37321518D01*
X167827918Y-36179834D01*
X169103917Y-36649939D02*
X169103917Y-37590149D01*
X168768128Y-36112676D02*
X168432339Y-37120044D01*
X169305391Y-37120044D01*
%TO.C,U5*%
D10*
X128143095Y-109502380D02*
X128143095Y-110311904D01*
X128190714Y-110407142D01*
X128238333Y-110454761D01*
X128333571Y-110502380D01*
X128524047Y-110502380D01*
X128619285Y-110454761D01*
X128666904Y-110407142D01*
X128714523Y-110311904D01*
X128714523Y-109502380D01*
X129666904Y-109502380D02*
X129190714Y-109502380D01*
X129143095Y-109978571D01*
X129190714Y-109930952D01*
X129285952Y-109883333D01*
X129524047Y-109883333D01*
X129619285Y-109930952D01*
X129666904Y-109978571D01*
X129714523Y-110073809D01*
X129714523Y-110311904D01*
X129666904Y-110407142D01*
X129619285Y-110454761D01*
X129524047Y-110502380D01*
X129285952Y-110502380D01*
X129190714Y-110454761D01*
X129143095Y-110407142D01*
%TO.C,U7*%
X149098095Y-44537380D02*
X149098095Y-45346904D01*
X149145714Y-45442142D01*
X149193333Y-45489761D01*
X149288571Y-45537380D01*
X149479047Y-45537380D01*
X149574285Y-45489761D01*
X149621904Y-45442142D01*
X149669523Y-45346904D01*
X149669523Y-44537380D01*
X150050476Y-44537380D02*
X150717142Y-44537380D01*
X150288571Y-45537380D01*
X152838150Y-44308780D02*
X152838150Y-44546876D01*
X152600054Y-44451638D02*
X152838150Y-44546876D01*
X153076245Y-44451638D01*
X152695292Y-44737352D02*
X152838150Y-44546876D01*
X152981007Y-44737352D01*
X152838150Y-44308780D02*
X152838150Y-44546876D01*
X152600054Y-44451638D02*
X152838150Y-44546876D01*
X153076245Y-44451638D01*
X152695292Y-44737352D02*
X152838150Y-44546876D01*
X152981007Y-44737352D01*
%TO.C,U8*%
X141478095Y-80997380D02*
X141478095Y-81806904D01*
X141525714Y-81902142D01*
X141573333Y-81949761D01*
X141668571Y-81997380D01*
X141859047Y-81997380D01*
X141954285Y-81949761D01*
X142001904Y-81902142D01*
X142049523Y-81806904D01*
X142049523Y-80997380D01*
X142668571Y-81425952D02*
X142573333Y-81378333D01*
X142525714Y-81330714D01*
X142478095Y-81235476D01*
X142478095Y-81187857D01*
X142525714Y-81092619D01*
X142573333Y-81045000D01*
X142668571Y-80997380D01*
X142859047Y-80997380D01*
X142954285Y-81045000D01*
X143001904Y-81092619D01*
X143049523Y-81187857D01*
X143049523Y-81235476D01*
X143001904Y-81330714D01*
X142954285Y-81378333D01*
X142859047Y-81425952D01*
X142668571Y-81425952D01*
X142573333Y-81473571D01*
X142525714Y-81521190D01*
X142478095Y-81616428D01*
X142478095Y-81806904D01*
X142525714Y-81902142D01*
X142573333Y-81949761D01*
X142668571Y-81997380D01*
X142859047Y-81997380D01*
X142954285Y-81949761D01*
X143001904Y-81902142D01*
X143049523Y-81806904D01*
X143049523Y-81616428D01*
X143001904Y-81521190D01*
X142954285Y-81473571D01*
X142859047Y-81425952D01*
%TO.C,U9*%
X204978095Y-15327380D02*
X204978095Y-16136904D01*
X205025714Y-16232142D01*
X205073333Y-16279761D01*
X205168571Y-16327380D01*
X205359047Y-16327380D01*
X205454285Y-16279761D01*
X205501904Y-16232142D01*
X205549523Y-16136904D01*
X205549523Y-15327380D01*
X206073333Y-16327380D02*
X206263809Y-16327380D01*
X206359047Y-16279761D01*
X206406666Y-16232142D01*
X206501904Y-16089285D01*
X206549523Y-15898809D01*
X206549523Y-15517857D01*
X206501904Y-15422619D01*
X206454285Y-15375000D01*
X206359047Y-15327380D01*
X206168571Y-15327380D01*
X206073333Y-15375000D01*
X206025714Y-15422619D01*
X205978095Y-15517857D01*
X205978095Y-15755952D01*
X206025714Y-15851190D01*
X206073333Y-15898809D01*
X206168571Y-15946428D01*
X206359047Y-15946428D01*
X206454285Y-15898809D01*
X206501904Y-15851190D01*
X206549523Y-15755952D01*
X202761850Y-16165580D02*
X202761850Y-16403676D01*
X202523754Y-16308438D02*
X202761850Y-16403676D01*
X202999945Y-16308438D01*
X202618992Y-16594152D02*
X202761850Y-16403676D01*
X202904707Y-16594152D01*
X202761850Y-16165580D02*
X202761850Y-16403676D01*
X202523754Y-16308438D02*
X202761850Y-16403676D01*
X202999945Y-16308438D01*
X202618992Y-16594152D02*
X202761850Y-16403676D01*
X202904707Y-16594152D01*
%TO.C,U10*%
X143541904Y-103882380D02*
X143541904Y-104691904D01*
X143589523Y-104787142D01*
X143637142Y-104834761D01*
X143732380Y-104882380D01*
X143922857Y-104882380D01*
X144018095Y-104834761D01*
X144065714Y-104787142D01*
X144113333Y-104691904D01*
X144113333Y-103882380D01*
X145113333Y-104882380D02*
X144541904Y-104882380D01*
X144827619Y-104882380D02*
X144827619Y-103882380D01*
X144732380Y-104025238D01*
X144637142Y-104120476D01*
X144541904Y-104168095D01*
X145732380Y-103882380D02*
X145827619Y-103882380D01*
X145922857Y-103930000D01*
X145970476Y-103977619D01*
X146018095Y-104072857D01*
X146065714Y-104263333D01*
X146065714Y-104501428D01*
X146018095Y-104691904D01*
X145970476Y-104787142D01*
X145922857Y-104834761D01*
X145827619Y-104882380D01*
X145732380Y-104882380D01*
X145637142Y-104834761D01*
X145589523Y-104787142D01*
X145541904Y-104691904D01*
X145494285Y-104501428D01*
X145494285Y-104263333D01*
X145541904Y-104072857D01*
X145589523Y-103977619D01*
X145637142Y-103930000D01*
X145732380Y-103882380D01*
%TO.C,Y1*%
D18*
X124182825Y-84976271D02*
X124559012Y-84976271D01*
X123769020Y-85239602D02*
X124182825Y-84976271D01*
X123769020Y-84712941D01*
X124559012Y-84035805D02*
X124559012Y-84487229D01*
X124559012Y-84261517D02*
X123769020Y-84261517D01*
X123881876Y-84336754D01*
X123957113Y-84411991D01*
X123994732Y-84487229D01*
%TO.C,R1*%
D10*
X209622380Y-13891666D02*
X209146190Y-14225000D01*
X209622380Y-14463095D02*
X208622380Y-14463095D01*
X208622380Y-14082142D01*
X208670000Y-13986904D01*
X208717619Y-13939285D01*
X208812857Y-13891666D01*
X208955714Y-13891666D01*
X209050952Y-13939285D01*
X209098571Y-13986904D01*
X209146190Y-14082142D01*
X209146190Y-14463095D01*
X209622380Y-12939285D02*
X209622380Y-13510714D01*
X209622380Y-13225000D02*
X208622380Y-13225000D01*
X208765238Y-13320238D01*
X208860476Y-13415476D01*
X208908095Y-13510714D01*
%TO.C,R2*%
X216987380Y-13746666D02*
X216511190Y-14080000D01*
X216987380Y-14318095D02*
X215987380Y-14318095D01*
X215987380Y-13937142D01*
X216035000Y-13841904D01*
X216082619Y-13794285D01*
X216177857Y-13746666D01*
X216320714Y-13746666D01*
X216415952Y-13794285D01*
X216463571Y-13841904D01*
X216511190Y-13937142D01*
X216511190Y-14318095D01*
X216082619Y-13365714D02*
X216035000Y-13318095D01*
X215987380Y-13222857D01*
X215987380Y-12984761D01*
X216035000Y-12889523D01*
X216082619Y-12841904D01*
X216177857Y-12794285D01*
X216273095Y-12794285D01*
X216415952Y-12841904D01*
X216987380Y-13413333D01*
X216987380Y-12794285D01*
%TO.C,R3*%
X149297380Y-121841666D02*
X148821190Y-122175000D01*
X149297380Y-122413095D02*
X148297380Y-122413095D01*
X148297380Y-122032142D01*
X148345000Y-121936904D01*
X148392619Y-121889285D01*
X148487857Y-121841666D01*
X148630714Y-121841666D01*
X148725952Y-121889285D01*
X148773571Y-121936904D01*
X148821190Y-122032142D01*
X148821190Y-122413095D01*
X148297380Y-121508333D02*
X148297380Y-120889285D01*
X148678333Y-121222619D01*
X148678333Y-121079761D01*
X148725952Y-120984523D01*
X148773571Y-120936904D01*
X148868809Y-120889285D01*
X149106904Y-120889285D01*
X149202142Y-120936904D01*
X149249761Y-120984523D01*
X149297380Y-121079761D01*
X149297380Y-121365476D01*
X149249761Y-121460714D01*
X149202142Y-121508333D01*
%TO.C,R4*%
X149297380Y-125896666D02*
X148821190Y-126230000D01*
X149297380Y-126468095D02*
X148297380Y-126468095D01*
X148297380Y-126087142D01*
X148345000Y-125991904D01*
X148392619Y-125944285D01*
X148487857Y-125896666D01*
X148630714Y-125896666D01*
X148725952Y-125944285D01*
X148773571Y-125991904D01*
X148821190Y-126087142D01*
X148821190Y-126468095D01*
X148630714Y-125039523D02*
X149297380Y-125039523D01*
X148249761Y-125277619D02*
X148964047Y-125515714D01*
X148964047Y-124896666D01*
%TO.C,R5*%
X206453333Y-14802380D02*
X206120000Y-14326190D01*
X205881904Y-14802380D02*
X205881904Y-13802380D01*
X206262857Y-13802380D01*
X206358095Y-13850000D01*
X206405714Y-13897619D01*
X206453333Y-13992857D01*
X206453333Y-14135714D01*
X206405714Y-14230952D01*
X206358095Y-14278571D01*
X206262857Y-14326190D01*
X205881904Y-14326190D01*
X207358095Y-13802380D02*
X206881904Y-13802380D01*
X206834285Y-14278571D01*
X206881904Y-14230952D01*
X206977142Y-14183333D01*
X207215238Y-14183333D01*
X207310476Y-14230952D01*
X207358095Y-14278571D01*
X207405714Y-14373809D01*
X207405714Y-14611904D01*
X207358095Y-14707142D01*
X207310476Y-14754761D01*
X207215238Y-14802380D01*
X206977142Y-14802380D01*
X206881904Y-14754761D01*
X206834285Y-14707142D01*
%TO.C,R6*%
X210637380Y-31281666D02*
X210161190Y-31615000D01*
X210637380Y-31853095D02*
X209637380Y-31853095D01*
X209637380Y-31472142D01*
X209685000Y-31376904D01*
X209732619Y-31329285D01*
X209827857Y-31281666D01*
X209970714Y-31281666D01*
X210065952Y-31329285D01*
X210113571Y-31376904D01*
X210161190Y-31472142D01*
X210161190Y-31853095D01*
X209637380Y-30424523D02*
X209637380Y-30615000D01*
X209685000Y-30710238D01*
X209732619Y-30757857D01*
X209875476Y-30853095D01*
X210065952Y-30900714D01*
X210446904Y-30900714D01*
X210542142Y-30853095D01*
X210589761Y-30805476D01*
X210637380Y-30710238D01*
X210637380Y-30519761D01*
X210589761Y-30424523D01*
X210542142Y-30376904D01*
X210446904Y-30329285D01*
X210208809Y-30329285D01*
X210113571Y-30376904D01*
X210065952Y-30424523D01*
X210018333Y-30519761D01*
X210018333Y-30710238D01*
X210065952Y-30805476D01*
X210113571Y-30853095D01*
X210208809Y-30900714D01*
%TO.C,R7*%
X152868333Y-79827380D02*
X152535000Y-79351190D01*
X152296904Y-79827380D02*
X152296904Y-78827380D01*
X152677857Y-78827380D01*
X152773095Y-78875000D01*
X152820714Y-78922619D01*
X152868333Y-79017857D01*
X152868333Y-79160714D01*
X152820714Y-79255952D01*
X152773095Y-79303571D01*
X152677857Y-79351190D01*
X152296904Y-79351190D01*
X153201666Y-78827380D02*
X153868333Y-78827380D01*
X153439761Y-79827380D01*
%TO.C,R8*%
X118307380Y-100741666D02*
X117831190Y-101075000D01*
X118307380Y-101313095D02*
X117307380Y-101313095D01*
X117307380Y-100932142D01*
X117355000Y-100836904D01*
X117402619Y-100789285D01*
X117497857Y-100741666D01*
X117640714Y-100741666D01*
X117735952Y-100789285D01*
X117783571Y-100836904D01*
X117831190Y-100932142D01*
X117831190Y-101313095D01*
X117735952Y-100170238D02*
X117688333Y-100265476D01*
X117640714Y-100313095D01*
X117545476Y-100360714D01*
X117497857Y-100360714D01*
X117402619Y-100313095D01*
X117355000Y-100265476D01*
X117307380Y-100170238D01*
X117307380Y-99979761D01*
X117355000Y-99884523D01*
X117402619Y-99836904D01*
X117497857Y-99789285D01*
X117545476Y-99789285D01*
X117640714Y-99836904D01*
X117688333Y-99884523D01*
X117735952Y-99979761D01*
X117735952Y-100170238D01*
X117783571Y-100265476D01*
X117831190Y-100313095D01*
X117926428Y-100360714D01*
X118116904Y-100360714D01*
X118212142Y-100313095D01*
X118259761Y-100265476D01*
X118307380Y-100170238D01*
X118307380Y-99979761D01*
X118259761Y-99884523D01*
X118212142Y-99836904D01*
X118116904Y-99789285D01*
X117926428Y-99789285D01*
X117831190Y-99836904D01*
X117783571Y-99884523D01*
X117735952Y-99979761D01*
%TO.C,R9*%
X118307380Y-105966666D02*
X117831190Y-106300000D01*
X118307380Y-106538095D02*
X117307380Y-106538095D01*
X117307380Y-106157142D01*
X117355000Y-106061904D01*
X117402619Y-106014285D01*
X117497857Y-105966666D01*
X117640714Y-105966666D01*
X117735952Y-106014285D01*
X117783571Y-106061904D01*
X117831190Y-106157142D01*
X117831190Y-106538095D01*
X118307380Y-105490476D02*
X118307380Y-105300000D01*
X118259761Y-105204761D01*
X118212142Y-105157142D01*
X118069285Y-105061904D01*
X117878809Y-105014285D01*
X117497857Y-105014285D01*
X117402619Y-105061904D01*
X117355000Y-105109523D01*
X117307380Y-105204761D01*
X117307380Y-105395238D01*
X117355000Y-105490476D01*
X117402619Y-105538095D01*
X117497857Y-105585714D01*
X117735952Y-105585714D01*
X117831190Y-105538095D01*
X117878809Y-105490476D01*
X117926428Y-105395238D01*
X117926428Y-105204761D01*
X117878809Y-105109523D01*
X117831190Y-105061904D01*
X117735952Y-105014285D01*
%TO.C,R10*%
X150242142Y-86557380D02*
X149908809Y-86081190D01*
X149670714Y-86557380D02*
X149670714Y-85557380D01*
X150051666Y-85557380D01*
X150146904Y-85605000D01*
X150194523Y-85652619D01*
X150242142Y-85747857D01*
X150242142Y-85890714D01*
X150194523Y-85985952D01*
X150146904Y-86033571D01*
X150051666Y-86081190D01*
X149670714Y-86081190D01*
X151194523Y-86557380D02*
X150623095Y-86557380D01*
X150908809Y-86557380D02*
X150908809Y-85557380D01*
X150813571Y-85700238D01*
X150718333Y-85795476D01*
X150623095Y-85843095D01*
X151813571Y-85557380D02*
X151908809Y-85557380D01*
X152004047Y-85605000D01*
X152051666Y-85652619D01*
X152099285Y-85747857D01*
X152146904Y-85938333D01*
X152146904Y-86176428D01*
X152099285Y-86366904D01*
X152051666Y-86462142D01*
X152004047Y-86509761D01*
X151908809Y-86557380D01*
X151813571Y-86557380D01*
X151718333Y-86509761D01*
X151670714Y-86462142D01*
X151623095Y-86366904D01*
X151575476Y-86176428D01*
X151575476Y-85938333D01*
X151623095Y-85747857D01*
X151670714Y-85652619D01*
X151718333Y-85605000D01*
X151813571Y-85557380D01*
%TO.C,R11*%
X136762142Y-104847380D02*
X136428809Y-104371190D01*
X136190714Y-104847380D02*
X136190714Y-103847380D01*
X136571666Y-103847380D01*
X136666904Y-103895000D01*
X136714523Y-103942619D01*
X136762142Y-104037857D01*
X136762142Y-104180714D01*
X136714523Y-104275952D01*
X136666904Y-104323571D01*
X136571666Y-104371190D01*
X136190714Y-104371190D01*
X137714523Y-104847380D02*
X137143095Y-104847380D01*
X137428809Y-104847380D02*
X137428809Y-103847380D01*
X137333571Y-103990238D01*
X137238333Y-104085476D01*
X137143095Y-104133095D01*
X138666904Y-104847380D02*
X138095476Y-104847380D01*
X138381190Y-104847380D02*
X138381190Y-103847380D01*
X138285952Y-103990238D01*
X138190714Y-104085476D01*
X138095476Y-104133095D01*
%TO.C,R12*%
X150487142Y-104847380D02*
X150153809Y-104371190D01*
X149915714Y-104847380D02*
X149915714Y-103847380D01*
X150296666Y-103847380D01*
X150391904Y-103895000D01*
X150439523Y-103942619D01*
X150487142Y-104037857D01*
X150487142Y-104180714D01*
X150439523Y-104275952D01*
X150391904Y-104323571D01*
X150296666Y-104371190D01*
X149915714Y-104371190D01*
X151439523Y-104847380D02*
X150868095Y-104847380D01*
X151153809Y-104847380D02*
X151153809Y-103847380D01*
X151058571Y-103990238D01*
X150963333Y-104085476D01*
X150868095Y-104133095D01*
X151820476Y-103942619D02*
X151868095Y-103895000D01*
X151963333Y-103847380D01*
X152201428Y-103847380D01*
X152296666Y-103895000D01*
X152344285Y-103942619D01*
X152391904Y-104037857D01*
X152391904Y-104133095D01*
X152344285Y-104275952D01*
X151772857Y-104847380D01*
X152391904Y-104847380D01*
%TO.C,R13*%
X176767142Y-25472380D02*
X176433809Y-24996190D01*
X176195714Y-25472380D02*
X176195714Y-24472380D01*
X176576666Y-24472380D01*
X176671904Y-24520000D01*
X176719523Y-24567619D01*
X176767142Y-24662857D01*
X176767142Y-24805714D01*
X176719523Y-24900952D01*
X176671904Y-24948571D01*
X176576666Y-24996190D01*
X176195714Y-24996190D01*
X177719523Y-25472380D02*
X177148095Y-25472380D01*
X177433809Y-25472380D02*
X177433809Y-24472380D01*
X177338571Y-24615238D01*
X177243333Y-24710476D01*
X177148095Y-24758095D01*
X178052857Y-24472380D02*
X178671904Y-24472380D01*
X178338571Y-24853333D01*
X178481428Y-24853333D01*
X178576666Y-24900952D01*
X178624285Y-24948571D01*
X178671904Y-25043809D01*
X178671904Y-25281904D01*
X178624285Y-25377142D01*
X178576666Y-25424761D01*
X178481428Y-25472380D01*
X178195714Y-25472380D01*
X178100476Y-25424761D01*
X178052857Y-25377142D01*
%TO.C,R14*%
X194057142Y-28772380D02*
X193723809Y-28296190D01*
X193485714Y-28772380D02*
X193485714Y-27772380D01*
X193866666Y-27772380D01*
X193961904Y-27820000D01*
X194009523Y-27867619D01*
X194057142Y-27962857D01*
X194057142Y-28105714D01*
X194009523Y-28200952D01*
X193961904Y-28248571D01*
X193866666Y-28296190D01*
X193485714Y-28296190D01*
X195009523Y-28772380D02*
X194438095Y-28772380D01*
X194723809Y-28772380D02*
X194723809Y-27772380D01*
X194628571Y-27915238D01*
X194533333Y-28010476D01*
X194438095Y-28058095D01*
X195866666Y-28105714D02*
X195866666Y-28772380D01*
X195628571Y-27724761D02*
X195390476Y-28439047D01*
X196009523Y-28439047D01*
%TO.C,R15*%
X149042380Y-60967857D02*
X148566190Y-61301190D01*
X149042380Y-61539285D02*
X148042380Y-61539285D01*
X148042380Y-61158333D01*
X148090000Y-61063095D01*
X148137619Y-61015476D01*
X148232857Y-60967857D01*
X148375714Y-60967857D01*
X148470952Y-61015476D01*
X148518571Y-61063095D01*
X148566190Y-61158333D01*
X148566190Y-61539285D01*
X149042380Y-60015476D02*
X149042380Y-60586904D01*
X149042380Y-60301190D02*
X148042380Y-60301190D01*
X148185238Y-60396428D01*
X148280476Y-60491666D01*
X148328095Y-60586904D01*
X148042380Y-59110714D02*
X148042380Y-59586904D01*
X148518571Y-59634523D01*
X148470952Y-59586904D01*
X148423333Y-59491666D01*
X148423333Y-59253571D01*
X148470952Y-59158333D01*
X148518571Y-59110714D01*
X148613809Y-59063095D01*
X148851904Y-59063095D01*
X148947142Y-59110714D01*
X148994761Y-59158333D01*
X149042380Y-59253571D01*
X149042380Y-59491666D01*
X148994761Y-59586904D01*
X148947142Y-59634523D01*
%TO.C,R16*%
X120212380Y-21987857D02*
X119736190Y-22321190D01*
X120212380Y-22559285D02*
X119212380Y-22559285D01*
X119212380Y-22178333D01*
X119260000Y-22083095D01*
X119307619Y-22035476D01*
X119402857Y-21987857D01*
X119545714Y-21987857D01*
X119640952Y-22035476D01*
X119688571Y-22083095D01*
X119736190Y-22178333D01*
X119736190Y-22559285D01*
X120212380Y-21035476D02*
X120212380Y-21606904D01*
X120212380Y-21321190D02*
X119212380Y-21321190D01*
X119355238Y-21416428D01*
X119450476Y-21511666D01*
X119498095Y-21606904D01*
X119212380Y-20178333D02*
X119212380Y-20368809D01*
X119260000Y-20464047D01*
X119307619Y-20511666D01*
X119450476Y-20606904D01*
X119640952Y-20654523D01*
X120021904Y-20654523D01*
X120117142Y-20606904D01*
X120164761Y-20559285D01*
X120212380Y-20464047D01*
X120212380Y-20273571D01*
X120164761Y-20178333D01*
X120117142Y-20130714D01*
X120021904Y-20083095D01*
X119783809Y-20083095D01*
X119688571Y-20130714D01*
X119640952Y-20178333D01*
X119593333Y-20273571D01*
X119593333Y-20464047D01*
X119640952Y-20559285D01*
X119688571Y-20606904D01*
X119783809Y-20654523D01*
%TD*%
M02*
