%TF.GenerationSoftware,KiCad,Pcbnew,(5.1.6)-1*%
%TF.CreationDate,2021-02-21T22:15:12-05:00*%
%TF.ProjectId,Logic,4c6f6769-632e-46b6-9963-61645f706362,rev?*%
%TF.SameCoordinates,Original*%
%TF.FileFunction,Copper,L1,Top*%
%TF.FilePolarity,Positive*%
%FSLAX46Y46*%
G04 Gerber Fmt 4.6, Leading zero omitted, Abs format (unit mm)*
G04 Created by KiCad (PCBNEW (5.1.6)-1) date 2021-02-21 22:15:12*
%MOMM*%
%LPD*%
G01*
G04 APERTURE LIST*
%TA.AperFunction,ComponentPad*%
%ADD10C,5.000000*%
%TD*%
%TA.AperFunction,SMDPad,CuDef*%
%ADD11R,1.470000X0.300000*%
%TD*%
%TA.AperFunction,SMDPad,CuDef*%
%ADD12R,0.300000X1.470000*%
%TD*%
%TA.AperFunction,ComponentPad*%
%ADD13C,1.200000*%
%TD*%
%TA.AperFunction,SMDPad,CuDef*%
%ADD14R,1.549400X0.558800*%
%TD*%
%TA.AperFunction,SMDPad,CuDef*%
%ADD15R,0.863600X1.244600*%
%TD*%
%TA.AperFunction,SMDPad,CuDef*%
%ADD16R,1.244600X0.863600*%
%TD*%
%TA.AperFunction,ComponentPad*%
%ADD17C,2.800000*%
%TD*%
%TA.AperFunction,ComponentPad*%
%ADD18R,2.800000X2.800000*%
%TD*%
%TA.AperFunction,ComponentPad*%
%ADD19R,1.700000X1.700000*%
%TD*%
%TA.AperFunction,ComponentPad*%
%ADD20O,1.700000X1.700000*%
%TD*%
%TA.AperFunction,ComponentPad*%
%ADD21R,2.250000X2.250000*%
%TD*%
%TA.AperFunction,ComponentPad*%
%ADD22C,2.250000*%
%TD*%
%TA.AperFunction,SMDPad,CuDef*%
%ADD23R,1.460500X0.533400*%
%TD*%
%TA.AperFunction,SMDPad,CuDef*%
%ADD24R,1.460500X0.558800*%
%TD*%
%TA.AperFunction,SMDPad,CuDef*%
%ADD25R,2.000000X5.500000*%
%TD*%
%TA.AperFunction,ViaPad*%
%ADD26C,0.800000*%
%TD*%
%TA.AperFunction,Conductor*%
%ADD27C,0.250000*%
%TD*%
%TA.AperFunction,Conductor*%
%ADD28C,1.800000*%
%TD*%
G04 APERTURE END LIST*
D10*
%TO.P,REF\u002A\u002A,1*%
%TO.N,N/C*%
X96200000Y-146950000D03*
%TD*%
%TO.P,REF\u002A\u002A,1*%
%TO.N,N/C*%
X254950000Y-146850000D03*
%TD*%
%TO.P,REF\u002A\u002A,1*%
%TO.N,N/C*%
X96200000Y-4900000D03*
%TD*%
%TO.P,REF\u002A\u002A,1*%
%TO.N,N/C*%
X255000000Y-4750000D03*
%TD*%
D11*
%TO.P,U3,1*%
%TO.N,Net-(U3-Pad1)*%
X162250001Y-122560001D03*
%TO.P,U3,2*%
%TO.N,Net-(U3-Pad2)*%
X162250001Y-123060001D03*
%TO.P,U3,3*%
%TO.N,/Cooling_CTRL*%
X162250001Y-123560001D03*
%TO.P,U3,4*%
%TO.N,/Safety_Loop_iso*%
X162250001Y-124060001D03*
%TO.P,U3,5*%
%TO.N,/SCL_iso*%
X162250001Y-124560001D03*
%TO.P,U3,6*%
%TO.N,/SDA_iso*%
X162250001Y-125060001D03*
%TO.P,U3,7*%
%TO.N,/3.3V_rtn*%
X162250001Y-125560001D03*
%TO.P,U3,8*%
%TO.N,/3.3V*%
X162250001Y-126060001D03*
%TO.P,U3,9*%
%TO.N,/~MCLR~*%
X162250001Y-126560001D03*
%TO.P,U3,10*%
%TO.N,Net-(U3-Pad10)*%
X162250001Y-127060001D03*
%TO.P,U3,11*%
%TO.N,Net-(U3-Pad11)*%
X162250001Y-127560001D03*
%TO.P,U3,12*%
%TO.N,Net-(U3-Pad12)*%
X162250001Y-128060001D03*
%TO.P,U3,13*%
%TO.N,Net-(U3-Pad13)*%
X162250001Y-128560001D03*
%TO.P,U3,14*%
%TO.N,Net-(U3-Pad14)*%
X162250001Y-129060001D03*
%TO.P,U3,15*%
%TO.N,/PGEC*%
X162250001Y-129560001D03*
%TO.P,U3,16*%
%TO.N,/PGED*%
X162250001Y-130060001D03*
D12*
%TO.P,U3,17*%
%TO.N,Net-(U3-Pad17)*%
X164170001Y-131980001D03*
%TO.P,U3,18*%
%TO.N,Net-(U3-Pad18)*%
X164670001Y-131980001D03*
%TO.P,U3,19*%
%TO.N,/3.3V*%
X165170001Y-131980001D03*
%TO.P,U3,20*%
%TO.N,/3.3V_rtn*%
X165670001Y-131980001D03*
%TO.P,U3,21*%
%TO.N,/Throttle_SEL*%
X166170001Y-131980001D03*
%TO.P,U3,22*%
%TO.N,Net-(U3-Pad22)*%
X166670001Y-131980001D03*
%TO.P,U3,23*%
%TO.N,Net-(U3-Pad23)*%
X167170001Y-131980001D03*
%TO.P,U3,24*%
%TO.N,Net-(U3-Pad24)*%
X167670001Y-131980001D03*
%TO.P,U3,25*%
%TO.N,/3.3V_rtn*%
X168170001Y-131980001D03*
%TO.P,U3,26*%
%TO.N,/3.3V*%
X168670001Y-131980001D03*
%TO.P,U3,27*%
%TO.N,Net-(U3-Pad27)*%
X169170001Y-131980001D03*
%TO.P,U3,28*%
%TO.N,Net-(U3-Pad28)*%
X169670001Y-131980001D03*
%TO.P,U3,29*%
%TO.N,Net-(U3-Pad29)*%
X170170001Y-131980001D03*
%TO.P,U3,30*%
%TO.N,Net-(U3-Pad30)*%
X170670001Y-131980001D03*
%TO.P,U3,31*%
%TO.N,Net-(U3-Pad31)*%
X171170001Y-131980001D03*
%TO.P,U3,32*%
%TO.N,Net-(U3-Pad32)*%
X171670001Y-131980001D03*
D11*
%TO.P,U3,33*%
%TO.N,Net-(U3-Pad33)*%
X173590001Y-130060001D03*
%TO.P,U3,34*%
%TO.N,/3.3V_rtn*%
X173590001Y-129560001D03*
%TO.P,U3,35*%
X173590001Y-129060001D03*
%TO.P,U3,36*%
%TO.N,Net-(U3-Pad36)*%
X173590001Y-128560001D03*
%TO.P,U3,37*%
%TO.N,Net-(U3-Pad37)*%
X173590001Y-128060001D03*
%TO.P,U3,38*%
%TO.N,Net-(U3-Pad38)*%
X173590001Y-127560001D03*
%TO.P,U3,39*%
%TO.N,/3.3V*%
X173590001Y-127060001D03*
%TO.P,U3,40*%
%TO.N,/3.3V_rtn*%
X173590001Y-126560001D03*
%TO.P,U3,41*%
%TO.N,Net-(U3-Pad41)*%
X173590001Y-126060001D03*
%TO.P,U3,42*%
%TO.N,Net-(U3-Pad42)*%
X173590001Y-125560001D03*
%TO.P,U3,43*%
%TO.N,/PC_ready*%
X173590001Y-125060001D03*
%TO.P,U3,44*%
%TO.N,Net-(U3-Pad44)*%
X173590001Y-124560001D03*
%TO.P,U3,45*%
%TO.N,Net-(U3-Pad45)*%
X173590001Y-124060001D03*
%TO.P,U3,46*%
%TO.N,Net-(U3-Pad46)*%
X173590001Y-123560001D03*
%TO.P,U3,47*%
%TO.N,Net-(U3-Pad47)*%
X173590001Y-123060001D03*
%TO.P,U3,48*%
%TO.N,/PC_ready*%
X173590001Y-122560001D03*
D12*
%TO.P,U3,49*%
%TO.N,Net-(U3-Pad49)*%
X171670001Y-120640001D03*
%TO.P,U3,50*%
%TO.N,Net-(U3-Pad50)*%
X171170001Y-120640001D03*
%TO.P,U3,51*%
%TO.N,Net-(U3-Pad51)*%
X170670001Y-120640001D03*
%TO.P,U3,52*%
%TO.N,Net-(U3-Pad52)*%
X170170001Y-120640001D03*
%TO.P,U3,53*%
%TO.N,Net-(U3-Pad53)*%
X169670001Y-120640001D03*
%TO.P,U3,54*%
%TO.N,/3.3V*%
X169170001Y-120640001D03*
%TO.P,U3,55*%
%TO.N,/3.3V_rtn*%
X168670001Y-120640001D03*
%TO.P,U3,56*%
%TO.N,Net-(U3-Pad56)*%
X168170001Y-120640001D03*
%TO.P,U3,57*%
%TO.N,Net-(U3-Pad57)*%
X167670001Y-120640001D03*
%TO.P,U3,58*%
%TO.N,/RTDS_CTRL*%
X167170001Y-120640001D03*
%TO.P,U3,59*%
%TO.N,/3.3V_rtn*%
X166670001Y-120640001D03*
%TO.P,U3,60*%
%TO.N,/3.3V*%
X166170001Y-120640001D03*
%TO.P,U3,61*%
%TO.N,Net-(U3-Pad61)*%
X165670001Y-120640001D03*
%TO.P,U3,62*%
%TO.N,Net-(U3-Pad62)*%
X165170001Y-120640001D03*
%TO.P,U3,63*%
%TO.N,Net-(U3-Pad63)*%
X164670001Y-120640001D03*
%TO.P,U3,64*%
%TO.N,Net-(U3-Pad64)*%
X164170001Y-120640001D03*
%TD*%
D13*
%TO.P,U6,32*%
%TO.N,Net-(U6-Pad32)*%
X221269200Y-67675200D03*
%TO.P,U6,24*%
%TO.N,/PI_SPI_CEO*%
X221269200Y-77835200D03*
%TO.P,U6,19*%
%TO.N,/PiHat.sch/PI_SPI_MOSI*%
X218907200Y-82915200D03*
%TO.P,U6,39*%
%TO.N,/3.3V_rtn*%
X218907200Y-57515200D03*
%TO.P,U6,37*%
%TO.N,Net-(J6-Pad4)*%
X218907200Y-60055200D03*
%TO.P,U6,28*%
%TO.N,Net-(U6-Pad28)*%
X221269200Y-72755200D03*
%TO.P,U6,30*%
%TO.N,/3.3V_rtn*%
X221269200Y-70215200D03*
%TO.P,U6,23*%
%TO.N,/PiHat.sch/PI_SPI_SCLK*%
X218907200Y-77835200D03*
%TO.P,U6,22*%
%TO.N,/GPIO25*%
X221269200Y-80375200D03*
%TO.P,U6,21*%
%TO.N,/PiHat.sch/PI_SPI_MISO*%
X218907200Y-80375200D03*
%TO.P,U6,20*%
%TO.N,/3.3V_rtn*%
X221269200Y-82915200D03*
%TO.P,U6,40*%
%TO.N,Net-(J6-Pad3)*%
X221269200Y-57515200D03*
%TO.P,U6,29*%
%TO.N,Net-(J6-Pad7)*%
X218907200Y-70215200D03*
%TO.P,U6,35*%
%TO.N,Net-(J6-Pad5)*%
X218907200Y-62595200D03*
%TO.P,U6,18*%
%TO.N,Net-(U6-Pad18)*%
X221269200Y-85455200D03*
%TO.P,U6,27*%
%TO.N,Net-(J6-Pad8)*%
X218907200Y-72755200D03*
%TO.P,U6,38*%
%TO.N,Net-(J6-Pad2)*%
X221269200Y-60055200D03*
%TO.P,U6,34*%
%TO.N,/3.3V_rtn*%
X221269200Y-65135200D03*
%TO.P,U6,33*%
%TO.N,Net-(J6-Pad6)*%
X218907200Y-65135200D03*
%TO.P,U6,26*%
%TO.N,Net-(U6-Pad26)*%
X221269200Y-75295200D03*
%TO.P,U6,31*%
%TO.N,/SR_CTRL*%
X218907200Y-67675200D03*
%TO.P,U6,36*%
%TO.N,Net-(J6-Pad1)*%
X221269200Y-62595200D03*
%TO.P,U6,25*%
%TO.N,/3.3V_rtn*%
X218907200Y-75295200D03*
%TO.P,U6,11*%
%TO.N,Net-(U6-Pad11)*%
X218907200Y-93075200D03*
D10*
%TO.P,U6,44*%
%TO.N,N/C*%
X171047200Y-110763200D03*
D13*
%TO.P,U6,2*%
%TO.N,/5V*%
X221269200Y-105775200D03*
%TO.P,U6,4*%
X221269200Y-103235200D03*
%TO.P,U6,1*%
%TO.N,Net-(U6-Pad1)*%
X218907200Y-105775200D03*
%TO.P,U6,13*%
%TO.N,Net-(U6-Pad13)*%
X218907200Y-90535200D03*
%TO.P,U6,9*%
%TO.N,/3.3V_rtn*%
X218907200Y-95615200D03*
%TO.P,U6,14*%
X221269200Y-90535200D03*
D10*
%TO.P,U6,43*%
%TO.N,N/C*%
X171047200Y-52763200D03*
D13*
%TO.P,U6,17*%
%TO.N,Net-(U6-Pad17)*%
X218907200Y-85455200D03*
D10*
%TO.P,U6,41*%
%TO.N,N/C*%
X220047200Y-52763200D03*
D13*
%TO.P,U6,6*%
%TO.N,/3.3V_rtn*%
X221269200Y-100695200D03*
%TO.P,U6,7*%
%TO.N,Net-(U6-Pad7)*%
X218907200Y-98155200D03*
%TO.P,U6,10*%
%TO.N,Net-(U6-Pad10)*%
X221269200Y-95615200D03*
%TO.P,U6,8*%
%TO.N,Net-(U6-Pad8)*%
X221269200Y-98155200D03*
D10*
%TO.P,U6,42*%
%TO.N,N/C*%
X220047200Y-110763200D03*
D13*
%TO.P,U6,12*%
%TO.N,Net-(U6-Pad12)*%
X221269200Y-93075200D03*
%TO.P,U6,3*%
%TO.N,/SDA_iso*%
X218907200Y-103235200D03*
%TO.P,U6,5*%
%TO.N,/SCL_iso*%
X218907200Y-100695200D03*
%TO.P,U6,15*%
%TO.N,Net-(U6-Pad15)*%
X218907200Y-87995200D03*
%TO.P,U6,16*%
%TO.N,/Safety_Loop_iso*%
X221269200Y-87995200D03*
%TD*%
%TO.P,C1,1*%
%TO.N,/5V_non_iso*%
%TA.AperFunction,SMDPad,CuDef*%
G36*
G01*
X154489999Y-70400000D02*
X155390001Y-70400000D01*
G75*
G02*
X155640000Y-70649999I0J-249999D01*
G01*
X155640000Y-71300001D01*
G75*
G02*
X155390001Y-71550000I-249999J0D01*
G01*
X154489999Y-71550000D01*
G75*
G02*
X154240000Y-71300001I0J249999D01*
G01*
X154240000Y-70649999D01*
G75*
G02*
X154489999Y-70400000I249999J0D01*
G01*
G37*
%TD.AperFunction*%
%TO.P,C1,2*%
%TO.N,/24V_rtn*%
%TA.AperFunction,SMDPad,CuDef*%
G36*
G01*
X154489999Y-72450000D02*
X155390001Y-72450000D01*
G75*
G02*
X155640000Y-72699999I0J-249999D01*
G01*
X155640000Y-73350001D01*
G75*
G02*
X155390001Y-73600000I-249999J0D01*
G01*
X154489999Y-73600000D01*
G75*
G02*
X154240000Y-73350001I0J249999D01*
G01*
X154240000Y-72699999D01*
G75*
G02*
X154489999Y-72450000I249999J0D01*
G01*
G37*
%TD.AperFunction*%
%TD*%
%TO.P,C2,2*%
%TO.N,/3.3V_rtn*%
%TA.AperFunction,SMDPad,CuDef*%
G36*
G01*
X146234999Y-126425000D02*
X147135001Y-126425000D01*
G75*
G02*
X147385000Y-126674999I0J-249999D01*
G01*
X147385000Y-127325001D01*
G75*
G02*
X147135001Y-127575000I-249999J0D01*
G01*
X146234999Y-127575000D01*
G75*
G02*
X145985000Y-127325001I0J249999D01*
G01*
X145985000Y-126674999D01*
G75*
G02*
X146234999Y-126425000I249999J0D01*
G01*
G37*
%TD.AperFunction*%
%TO.P,C2,1*%
%TO.N,Net-(C2-Pad1)*%
%TA.AperFunction,SMDPad,CuDef*%
G36*
G01*
X146234999Y-124375000D02*
X147135001Y-124375000D01*
G75*
G02*
X147385000Y-124624999I0J-249999D01*
G01*
X147385000Y-125275001D01*
G75*
G02*
X147135001Y-125525000I-249999J0D01*
G01*
X146234999Y-125525000D01*
G75*
G02*
X145985000Y-125275001I0J249999D01*
G01*
X145985000Y-124624999D01*
G75*
G02*
X146234999Y-124375000I249999J0D01*
G01*
G37*
%TD.AperFunction*%
%TD*%
%TO.P,C9,2*%
%TO.N,/3.3V*%
%TA.AperFunction,SMDPad,CuDef*%
G36*
G01*
X178885001Y-127575000D02*
X177984999Y-127575000D01*
G75*
G02*
X177735000Y-127325001I0J249999D01*
G01*
X177735000Y-126674999D01*
G75*
G02*
X177984999Y-126425000I249999J0D01*
G01*
X178885001Y-126425000D01*
G75*
G02*
X179135000Y-126674999I0J-249999D01*
G01*
X179135000Y-127325001D01*
G75*
G02*
X178885001Y-127575000I-249999J0D01*
G01*
G37*
%TD.AperFunction*%
%TO.P,C9,1*%
%TO.N,/3.3V_rtn*%
%TA.AperFunction,SMDPad,CuDef*%
G36*
G01*
X178885001Y-129625000D02*
X177984999Y-129625000D01*
G75*
G02*
X177735000Y-129375001I0J249999D01*
G01*
X177735000Y-128724999D01*
G75*
G02*
X177984999Y-128475000I249999J0D01*
G01*
X178885001Y-128475000D01*
G75*
G02*
X179135000Y-128724999I0J-249999D01*
G01*
X179135000Y-129375001D01*
G75*
G02*
X178885001Y-129625000I-249999J0D01*
G01*
G37*
%TD.AperFunction*%
%TD*%
%TO.P,C11,1*%
%TO.N,/5V*%
%TA.AperFunction,SMDPad,CuDef*%
G36*
G01*
X115754999Y-113580000D02*
X116655001Y-113580000D01*
G75*
G02*
X116905000Y-113829999I0J-249999D01*
G01*
X116905000Y-114480001D01*
G75*
G02*
X116655001Y-114730000I-249999J0D01*
G01*
X115754999Y-114730000D01*
G75*
G02*
X115505000Y-114480001I0J249999D01*
G01*
X115505000Y-113829999D01*
G75*
G02*
X115754999Y-113580000I249999J0D01*
G01*
G37*
%TD.AperFunction*%
%TO.P,C11,2*%
%TO.N,/3.3V_rtn*%
%TA.AperFunction,SMDPad,CuDef*%
G36*
G01*
X115754999Y-115630000D02*
X116655001Y-115630000D01*
G75*
G02*
X116905000Y-115879999I0J-249999D01*
G01*
X116905000Y-116530001D01*
G75*
G02*
X116655001Y-116780000I-249999J0D01*
G01*
X115754999Y-116780000D01*
G75*
G02*
X115505000Y-116530001I0J249999D01*
G01*
X115505000Y-115879999D01*
G75*
G02*
X115754999Y-115630000I249999J0D01*
G01*
G37*
%TD.AperFunction*%
%TD*%
%TO.P,C12,1*%
%TO.N,/24V_rtn*%
%TA.AperFunction,SMDPad,CuDef*%
G36*
G01*
X142055001Y-116925000D02*
X141154999Y-116925000D01*
G75*
G02*
X140905000Y-116675001I0J249999D01*
G01*
X140905000Y-116024999D01*
G75*
G02*
X141154999Y-115775000I249999J0D01*
G01*
X142055001Y-115775000D01*
G75*
G02*
X142305000Y-116024999I0J-249999D01*
G01*
X142305000Y-116675001D01*
G75*
G02*
X142055001Y-116925000I-249999J0D01*
G01*
G37*
%TD.AperFunction*%
%TO.P,C12,2*%
%TO.N,/5V_non_iso*%
%TA.AperFunction,SMDPad,CuDef*%
G36*
G01*
X142055001Y-114875000D02*
X141154999Y-114875000D01*
G75*
G02*
X140905000Y-114625001I0J249999D01*
G01*
X140905000Y-113974999D01*
G75*
G02*
X141154999Y-113725000I249999J0D01*
G01*
X142055001Y-113725000D01*
G75*
G02*
X142305000Y-113974999I0J-249999D01*
G01*
X142305000Y-114625001D01*
G75*
G02*
X142055001Y-114875000I-249999J0D01*
G01*
G37*
%TD.AperFunction*%
%TD*%
%TO.P,C13,1*%
%TO.N,/3.3V*%
%TA.AperFunction,SMDPad,CuDef*%
G36*
G01*
X157295001Y-42875000D02*
X156394999Y-42875000D01*
G75*
G02*
X156145000Y-42625001I0J249999D01*
G01*
X156145000Y-41974999D01*
G75*
G02*
X156394999Y-41725000I249999J0D01*
G01*
X157295001Y-41725000D01*
G75*
G02*
X157545000Y-41974999I0J-249999D01*
G01*
X157545000Y-42625001D01*
G75*
G02*
X157295001Y-42875000I-249999J0D01*
G01*
G37*
%TD.AperFunction*%
%TO.P,C13,2*%
%TO.N,Net-(C13-Pad2)*%
%TA.AperFunction,SMDPad,CuDef*%
G36*
G01*
X157295001Y-40825000D02*
X156394999Y-40825000D01*
G75*
G02*
X156145000Y-40575001I0J249999D01*
G01*
X156145000Y-39924999D01*
G75*
G02*
X156394999Y-39675000I249999J0D01*
G01*
X157295001Y-39675000D01*
G75*
G02*
X157545000Y-39924999I0J-249999D01*
G01*
X157545000Y-40575001D01*
G75*
G02*
X157295001Y-40825000I-249999J0D01*
G01*
G37*
%TD.AperFunction*%
%TD*%
%TO.P,C14,1*%
%TO.N,/5V*%
%TA.AperFunction,SMDPad,CuDef*%
G36*
G01*
X127819999Y-70790000D02*
X128720001Y-70790000D01*
G75*
G02*
X128970000Y-71039999I0J-249999D01*
G01*
X128970000Y-71690001D01*
G75*
G02*
X128720001Y-71940000I-249999J0D01*
G01*
X127819999Y-71940000D01*
G75*
G02*
X127570000Y-71690001I0J249999D01*
G01*
X127570000Y-71039999D01*
G75*
G02*
X127819999Y-70790000I249999J0D01*
G01*
G37*
%TD.AperFunction*%
%TO.P,C14,2*%
%TO.N,/3.3V_rtn*%
%TA.AperFunction,SMDPad,CuDef*%
G36*
G01*
X127819999Y-72840000D02*
X128720001Y-72840000D01*
G75*
G02*
X128970000Y-73089999I0J-249999D01*
G01*
X128970000Y-73740001D01*
G75*
G02*
X128720001Y-73990000I-249999J0D01*
G01*
X127819999Y-73990000D01*
G75*
G02*
X127570000Y-73740001I0J249999D01*
G01*
X127570000Y-73089999D01*
G75*
G02*
X127819999Y-72840000I249999J0D01*
G01*
G37*
%TD.AperFunction*%
%TD*%
%TO.P,C15,1*%
%TO.N,/5V*%
%TA.AperFunction,SMDPad,CuDef*%
G36*
G01*
X154489999Y-82465000D02*
X155390001Y-82465000D01*
G75*
G02*
X155640000Y-82714999I0J-249999D01*
G01*
X155640000Y-83365001D01*
G75*
G02*
X155390001Y-83615000I-249999J0D01*
G01*
X154489999Y-83615000D01*
G75*
G02*
X154240000Y-83365001I0J249999D01*
G01*
X154240000Y-82714999D01*
G75*
G02*
X154489999Y-82465000I249999J0D01*
G01*
G37*
%TD.AperFunction*%
%TO.P,C15,2*%
%TO.N,/3.3V_rtn*%
%TA.AperFunction,SMDPad,CuDef*%
G36*
G01*
X154489999Y-84515000D02*
X155390001Y-84515000D01*
G75*
G02*
X155640000Y-84764999I0J-249999D01*
G01*
X155640000Y-85415001D01*
G75*
G02*
X155390001Y-85665000I-249999J0D01*
G01*
X154489999Y-85665000D01*
G75*
G02*
X154240000Y-85415001I0J249999D01*
G01*
X154240000Y-84764999D01*
G75*
G02*
X154489999Y-84515000I249999J0D01*
G01*
G37*
%TD.AperFunction*%
%TD*%
%TO.P,C16,2*%
%TO.N,Net-(C16-Pad2)*%
%TA.AperFunction,SMDPad,CuDef*%
G36*
G01*
X126815001Y-83615000D02*
X125914999Y-83615000D01*
G75*
G02*
X125665000Y-83365001I0J249999D01*
G01*
X125665000Y-82714999D01*
G75*
G02*
X125914999Y-82465000I249999J0D01*
G01*
X126815001Y-82465000D01*
G75*
G02*
X127065000Y-82714999I0J-249999D01*
G01*
X127065000Y-83365001D01*
G75*
G02*
X126815001Y-83615000I-249999J0D01*
G01*
G37*
%TD.AperFunction*%
%TO.P,C16,1*%
%TO.N,/3.3V_rtn*%
%TA.AperFunction,SMDPad,CuDef*%
G36*
G01*
X126815001Y-85665000D02*
X125914999Y-85665000D01*
G75*
G02*
X125665000Y-85415001I0J249999D01*
G01*
X125665000Y-84764999D01*
G75*
G02*
X125914999Y-84515000I249999J0D01*
G01*
X126815001Y-84515000D01*
G75*
G02*
X127065000Y-84764999I0J-249999D01*
G01*
X127065000Y-85415001D01*
G75*
G02*
X126815001Y-85665000I-249999J0D01*
G01*
G37*
%TD.AperFunction*%
%TD*%
%TO.P,C17,1*%
%TO.N,/3.3V_rtn*%
%TA.AperFunction,SMDPad,CuDef*%
G36*
G01*
X125914999Y-89595000D02*
X126815001Y-89595000D01*
G75*
G02*
X127065000Y-89844999I0J-249999D01*
G01*
X127065000Y-90495001D01*
G75*
G02*
X126815001Y-90745000I-249999J0D01*
G01*
X125914999Y-90745000D01*
G75*
G02*
X125665000Y-90495001I0J249999D01*
G01*
X125665000Y-89844999D01*
G75*
G02*
X125914999Y-89595000I249999J0D01*
G01*
G37*
%TD.AperFunction*%
%TO.P,C17,2*%
%TO.N,Net-(C17-Pad2)*%
%TA.AperFunction,SMDPad,CuDef*%
G36*
G01*
X125914999Y-91645000D02*
X126815001Y-91645000D01*
G75*
G02*
X127065000Y-91894999I0J-249999D01*
G01*
X127065000Y-92545001D01*
G75*
G02*
X126815001Y-92795000I-249999J0D01*
G01*
X125914999Y-92795000D01*
G75*
G02*
X125665000Y-92545001I0J249999D01*
G01*
X125665000Y-91894999D01*
G75*
G02*
X125914999Y-91645000I249999J0D01*
G01*
G37*
%TD.AperFunction*%
%TD*%
%TO.P,C18,2*%
%TO.N,/3.3V_rtn*%
%TA.AperFunction,SMDPad,CuDef*%
G36*
G01*
X214814999Y-20380000D02*
X215715001Y-20380000D01*
G75*
G02*
X215965000Y-20629999I0J-249999D01*
G01*
X215965000Y-21280001D01*
G75*
G02*
X215715001Y-21530000I-249999J0D01*
G01*
X214814999Y-21530000D01*
G75*
G02*
X214565000Y-21280001I0J249999D01*
G01*
X214565000Y-20629999D01*
G75*
G02*
X214814999Y-20380000I249999J0D01*
G01*
G37*
%TD.AperFunction*%
%TO.P,C18,1*%
%TO.N,/3.3V*%
%TA.AperFunction,SMDPad,CuDef*%
G36*
G01*
X214814999Y-18330000D02*
X215715001Y-18330000D01*
G75*
G02*
X215965000Y-18579999I0J-249999D01*
G01*
X215965000Y-19230001D01*
G75*
G02*
X215715001Y-19480000I-249999J0D01*
G01*
X214814999Y-19480000D01*
G75*
G02*
X214565000Y-19230001I0J249999D01*
G01*
X214565000Y-18579999D01*
G75*
G02*
X214814999Y-18330000I249999J0D01*
G01*
G37*
%TD.AperFunction*%
%TD*%
%TO.P,C19,1*%
%TO.N,/24V_rtn*%
%TA.AperFunction,SMDPad,CuDef*%
G36*
G01*
X122370001Y-102320000D02*
X121469999Y-102320000D01*
G75*
G02*
X121220000Y-102070001I0J249999D01*
G01*
X121220000Y-101419999D01*
G75*
G02*
X121469999Y-101170000I249999J0D01*
G01*
X122370001Y-101170000D01*
G75*
G02*
X122620000Y-101419999I0J-249999D01*
G01*
X122620000Y-102070001D01*
G75*
G02*
X122370001Y-102320000I-249999J0D01*
G01*
G37*
%TD.AperFunction*%
%TO.P,C19,2*%
%TO.N,/5V_non_iso*%
%TA.AperFunction,SMDPad,CuDef*%
G36*
G01*
X122370001Y-100270000D02*
X121469999Y-100270000D01*
G75*
G02*
X121220000Y-100020001I0J249999D01*
G01*
X121220000Y-99369999D01*
G75*
G02*
X121469999Y-99120000I249999J0D01*
G01*
X122370001Y-99120000D01*
G75*
G02*
X122620000Y-99369999I0J-249999D01*
G01*
X122620000Y-100020001D01*
G75*
G02*
X122370001Y-100270000I-249999J0D01*
G01*
G37*
%TD.AperFunction*%
%TD*%
%TO.P,C20,1*%
%TO.N,/24V*%
%TA.AperFunction,SMDPad,CuDef*%
G36*
G01*
X134169999Y-98975000D02*
X135070001Y-98975000D01*
G75*
G02*
X135320000Y-99224999I0J-249999D01*
G01*
X135320000Y-99875001D01*
G75*
G02*
X135070001Y-100125000I-249999J0D01*
G01*
X134169999Y-100125000D01*
G75*
G02*
X133920000Y-99875001I0J249999D01*
G01*
X133920000Y-99224999D01*
G75*
G02*
X134169999Y-98975000I249999J0D01*
G01*
G37*
%TD.AperFunction*%
%TO.P,C20,2*%
%TO.N,/24V_rtn*%
%TA.AperFunction,SMDPad,CuDef*%
G36*
G01*
X134169999Y-101025000D02*
X135070001Y-101025000D01*
G75*
G02*
X135320000Y-101274999I0J-249999D01*
G01*
X135320000Y-101925001D01*
G75*
G02*
X135070001Y-102175000I-249999J0D01*
G01*
X134169999Y-102175000D01*
G75*
G02*
X133920000Y-101925001I0J249999D01*
G01*
X133920000Y-101274999D01*
G75*
G02*
X134169999Y-101025000I249999J0D01*
G01*
G37*
%TD.AperFunction*%
%TD*%
D14*
%TO.P,CR1,1*%
%TO.N,/5V_non_iso*%
X125590300Y-99695000D03*
%TO.P,CR1,2*%
%TO.N,/24V_rtn*%
X125590300Y-100965000D03*
%TO.P,CR1,3*%
X125590300Y-102235000D03*
%TO.P,CR1,4*%
%TO.N,Net-(CR1-Pad4)*%
X125590300Y-103505000D03*
%TO.P,CR1,5*%
%TO.N,Net-(CR1-Pad5)*%
X130949700Y-103505000D03*
%TO.P,CR1,6*%
%TO.N,/24V_rtn*%
X130949700Y-102235000D03*
%TO.P,CR1,7*%
X130949700Y-100965000D03*
%TO.P,CR1,8*%
%TO.N,/24V*%
X130949700Y-99695000D03*
%TD*%
D15*
%TO.P,D1,2*%
%TO.N,Net-(D1-Pad2)*%
X202717400Y-12700000D03*
%TO.P,D1,1*%
%TO.N,/3.3V_rtn*%
X200660000Y-12700000D03*
%TD*%
D16*
%TO.P,D2,1*%
%TO.N,/3.3V_rtn*%
X215265000Y-31115000D03*
%TO.P,D2,2*%
%TO.N,Net-(D2-Pad2)*%
X215265000Y-29057600D03*
%TD*%
D15*
%TO.P,D3,1*%
%TO.N,/24V_rtn*%
X183515000Y-26670000D03*
%TO.P,D3,2*%
%TO.N,Net-(D3-Pad2)*%
X181457600Y-26670000D03*
%TD*%
%TO.P,D4,2*%
%TO.N,Net-(D4-Pad2)*%
X190652400Y-26670000D03*
%TO.P,D4,1*%
%TO.N,/24V_rtn*%
X188595000Y-26670000D03*
%TD*%
D16*
%TO.P,D5,2*%
%TO.N,Net-(D5-Pad2)*%
X153035000Y-62865000D03*
%TO.P,D5,1*%
%TO.N,/24V_rtn*%
X153035000Y-64922400D03*
%TD*%
%TO.P,D6,1*%
%TO.N,/3.3V_rtn*%
X118110000Y-27305000D03*
%TO.P,D6,2*%
%TO.N,Net-(D6-Pad2)*%
X118110000Y-25247600D03*
%TD*%
D17*
%TO.P,J1 MC Can,4*%
%TO.N,Net-(J1-Pad4)*%
X140725000Y-136310000D03*
%TO.P,J1 MC Can,3*%
%TO.N,/3.3V_rtn*%
X136525000Y-136310000D03*
%TO.P,J1 MC Can,2*%
%TO.N,/BP_CAN-*%
X140725000Y-130810000D03*
D18*
%TO.P,J1 MC Can,1*%
%TO.N,/BP_CAN+*%
X136525000Y-130810000D03*
%TD*%
D19*
%TO.P,J4 RTC,1*%
%TO.N,/3.3V*%
X254850000Y-114350000D03*
D20*
%TO.P,J4 RTC,2*%
%TO.N,/3.3V_rtn*%
X254850000Y-116890000D03*
%TO.P,J4 RTC,3*%
%TO.N,/SDA_iso*%
X254850000Y-119430000D03*
%TO.P,J4 RTC,4*%
%TO.N,/SCL_iso*%
X254850000Y-121970000D03*
%TD*%
D19*
%TO.P,J5.1 TSI,1*%
%TO.N,/GLV_SCL*%
X96520000Y-68580000D03*
D20*
%TO.P,J5.1 TSI,2*%
%TO.N,/GLV_SDA*%
X96520000Y-71120000D03*
%TO.P,J5.1 TSI,3*%
%TO.N,/3.3V_rtn*%
X96520000Y-73660000D03*
%TO.P,J5.1 TSI,4*%
%TO.N,/Safety_Loop*%
X96520000Y-76200000D03*
%TO.P,J5.1 TSI,5*%
%TO.N,/Cooling_CTRL*%
X96520000Y-78740000D03*
%TO.P,J5.1 TSI,6*%
%TO.N,/Throttle_SEL*%
X96520000Y-81280000D03*
%TD*%
%TO.P,J5.2 TSI,6*%
%TO.N,/PC_ready*%
X254259080Y-81280000D03*
%TO.P,J5.2 TSI,5*%
%TO.N,/RTDS_CTRL*%
X254259080Y-78740000D03*
%TO.P,J5.2 TSI,4*%
%TO.N,/BP_CAN+*%
X254259080Y-76200000D03*
%TO.P,J5.2 TSI,3*%
%TO.N,/BP_CAN-*%
X254259080Y-73660000D03*
%TO.P,J5.2 TSI,2*%
%TO.N,/SR_CTRL*%
X254259080Y-71120000D03*
D19*
%TO.P,J5.2 TSI,1*%
%TO.N,/AMS_Fault*%
X254259080Y-68580000D03*
%TD*%
%TO.P,J6 Extra GPIO,1*%
%TO.N,Net-(J6-Pad1)*%
X240665000Y-69850000D03*
D20*
%TO.P,J6 Extra GPIO,2*%
%TO.N,Net-(J6-Pad2)*%
X240665000Y-67310000D03*
%TO.P,J6 Extra GPIO,3*%
%TO.N,Net-(J6-Pad3)*%
X240665000Y-64770000D03*
%TO.P,J6 Extra GPIO,4*%
%TO.N,Net-(J6-Pad4)*%
X240665000Y-62230000D03*
%TO.P,J6 Extra GPIO,5*%
%TO.N,Net-(J6-Pad5)*%
X240665000Y-59690000D03*
%TO.P,J6 Extra GPIO,6*%
%TO.N,Net-(J6-Pad6)*%
X240665000Y-57150000D03*
%TO.P,J6 Extra GPIO,7*%
%TO.N,Net-(J6-Pad7)*%
X240665000Y-54610000D03*
%TO.P,J6 Extra GPIO,8*%
%TO.N,Net-(J6-Pad8)*%
X240665000Y-52070000D03*
%TD*%
D18*
%TO.P,J7 GLV BOB,1*%
%TO.N,/GLV_SCL*%
X186055000Y-13335000D03*
D17*
%TO.P,J7 GLV BOB,2*%
%TO.N,/GLV_SDA*%
X186055000Y-17535000D03*
%TO.P,J7 GLV BOB,3*%
%TO.N,/24V_rtn*%
X180555000Y-13335000D03*
%TO.P,J7 GLV BOB,4*%
%TO.N,/24V*%
X180555000Y-17535000D03*
%TD*%
D19*
%TO.P,J8 Pic32 Prog,1*%
%TO.N,/~MCLR~*%
X149225000Y-146685000D03*
D20*
%TO.P,J8 Pic32 Prog,2*%
%TO.N,/3.3V*%
X151765000Y-146685000D03*
%TO.P,J8 Pic32 Prog,3*%
%TO.N,/3.3V_rtn*%
X154305000Y-146685000D03*
%TO.P,J8 Pic32 Prog,4*%
%TO.N,/PGEC*%
X156845000Y-146685000D03*
%TO.P,J8 Pic32 Prog,5*%
%TO.N,/PGED*%
X159385000Y-146685000D03*
%TO.P,J8 Pic32 Prog,6*%
%TO.N,Net-(J8-Pad6)*%
X161925000Y-146685000D03*
%TD*%
D19*
%TO.P,J9,1*%
%TO.N,Net-(J9-Pad1)*%
X161290000Y-80645000D03*
D20*
%TO.P,J9,2*%
%TO.N,/BP_CAN-*%
X161290000Y-78105000D03*
%TD*%
%TO.P,U2,8*%
%TO.N,/5V_non_iso*%
%TA.AperFunction,SMDPad,CuDef*%
G36*
G01*
X145590000Y-68742500D02*
X145590000Y-68417500D01*
G75*
G02*
X145752500Y-68255000I162500J0D01*
G01*
X147777500Y-68255000D01*
G75*
G02*
X147940000Y-68417500I0J-162500D01*
G01*
X147940000Y-68742500D01*
G75*
G02*
X147777500Y-68905000I-162500J0D01*
G01*
X145752500Y-68905000D01*
G75*
G02*
X145590000Y-68742500I0J162500D01*
G01*
G37*
%TD.AperFunction*%
%TO.P,U2,7*%
%TO.N,/BP_CAN+*%
%TA.AperFunction,SMDPad,CuDef*%
G36*
G01*
X145590000Y-71282500D02*
X145590000Y-70957500D01*
G75*
G02*
X145752500Y-70795000I162500J0D01*
G01*
X147777500Y-70795000D01*
G75*
G02*
X147940000Y-70957500I0J-162500D01*
G01*
X147940000Y-71282500D01*
G75*
G02*
X147777500Y-71445000I-162500J0D01*
G01*
X145752500Y-71445000D01*
G75*
G02*
X145590000Y-71282500I0J162500D01*
G01*
G37*
%TD.AperFunction*%
%TO.P,U2,6*%
%TO.N,/BP_CAN-*%
%TA.AperFunction,SMDPad,CuDef*%
G36*
G01*
X145590000Y-73822500D02*
X145590000Y-73497500D01*
G75*
G02*
X145752500Y-73335000I162500J0D01*
G01*
X147777500Y-73335000D01*
G75*
G02*
X147940000Y-73497500I0J-162500D01*
G01*
X147940000Y-73822500D01*
G75*
G02*
X147777500Y-73985000I-162500J0D01*
G01*
X145752500Y-73985000D01*
G75*
G02*
X145590000Y-73822500I0J162500D01*
G01*
G37*
%TD.AperFunction*%
%TO.P,U2,5*%
%TO.N,/24V_rtn*%
%TA.AperFunction,SMDPad,CuDef*%
G36*
G01*
X145590000Y-76362500D02*
X145590000Y-76037500D01*
G75*
G02*
X145752500Y-75875000I162500J0D01*
G01*
X147777500Y-75875000D01*
G75*
G02*
X147940000Y-76037500I0J-162500D01*
G01*
X147940000Y-76362500D01*
G75*
G02*
X147777500Y-76525000I-162500J0D01*
G01*
X145752500Y-76525000D01*
G75*
G02*
X145590000Y-76362500I0J162500D01*
G01*
G37*
%TD.AperFunction*%
%TO.P,U2,4*%
%TO.N,/3.3V_rtn*%
%TA.AperFunction,SMDPad,CuDef*%
G36*
G01*
X136540000Y-76362500D02*
X136540000Y-76037500D01*
G75*
G02*
X136702500Y-75875000I162500J0D01*
G01*
X138727500Y-75875000D01*
G75*
G02*
X138890000Y-76037500I0J-162500D01*
G01*
X138890000Y-76362500D01*
G75*
G02*
X138727500Y-76525000I-162500J0D01*
G01*
X136702500Y-76525000D01*
G75*
G02*
X136540000Y-76362500I0J162500D01*
G01*
G37*
%TD.AperFunction*%
%TO.P,U2,3*%
%TO.N,Net-(U2-Pad3)*%
%TA.AperFunction,SMDPad,CuDef*%
G36*
G01*
X136540000Y-73822500D02*
X136540000Y-73497500D01*
G75*
G02*
X136702500Y-73335000I162500J0D01*
G01*
X138727500Y-73335000D01*
G75*
G02*
X138890000Y-73497500I0J-162500D01*
G01*
X138890000Y-73822500D01*
G75*
G02*
X138727500Y-73985000I-162500J0D01*
G01*
X136702500Y-73985000D01*
G75*
G02*
X136540000Y-73822500I0J162500D01*
G01*
G37*
%TD.AperFunction*%
%TO.P,U2,2*%
%TO.N,Net-(U2-Pad2)*%
%TA.AperFunction,SMDPad,CuDef*%
G36*
G01*
X136540000Y-71282500D02*
X136540000Y-70957500D01*
G75*
G02*
X136702500Y-70795000I162500J0D01*
G01*
X138727500Y-70795000D01*
G75*
G02*
X138890000Y-70957500I0J-162500D01*
G01*
X138890000Y-71282500D01*
G75*
G02*
X138727500Y-71445000I-162500J0D01*
G01*
X136702500Y-71445000D01*
G75*
G02*
X136540000Y-71282500I0J162500D01*
G01*
G37*
%TD.AperFunction*%
%TO.P,U2,1*%
%TO.N,/5V*%
%TA.AperFunction,SMDPad,CuDef*%
G36*
G01*
X136540000Y-68742500D02*
X136540000Y-68417500D01*
G75*
G02*
X136702500Y-68255000I162500J0D01*
G01*
X138727500Y-68255000D01*
G75*
G02*
X138890000Y-68417500I0J-162500D01*
G01*
X138890000Y-68742500D01*
G75*
G02*
X138727500Y-68905000I-162500J0D01*
G01*
X136702500Y-68905000D01*
G75*
G02*
X136540000Y-68742500I0J162500D01*
G01*
G37*
%TD.AperFunction*%
%TD*%
D21*
%TO.P,U4,1*%
%TO.N,/24V_rtn*%
X156845000Y-25400000D03*
D22*
%TO.P,U4,2*%
%TO.N,/24V*%
X156845000Y-20320000D03*
%TO.P,U4,3*%
%TO.N,/5V*%
X136525000Y-12700000D03*
%TO.P,U4,5*%
%TO.N,/3.3V_rtn*%
X136525000Y-33020000D03*
%TO.P,U4,6*%
%TO.N,Net-(U4-Pad6)*%
X156845000Y-33020000D03*
%TO.P,U4,4*%
%TO.N,Net-(U4-Pad4)*%
X136525000Y-22860000D03*
%TD*%
%TO.P,U5,1*%
%TO.N,/5V*%
%TA.AperFunction,SMDPad,CuDef*%
G36*
G01*
X123205000Y-111922500D02*
X123205000Y-111597500D01*
G75*
G02*
X123367500Y-111435000I162500J0D01*
G01*
X125392500Y-111435000D01*
G75*
G02*
X125555000Y-111597500I0J-162500D01*
G01*
X125555000Y-111922500D01*
G75*
G02*
X125392500Y-112085000I-162500J0D01*
G01*
X123367500Y-112085000D01*
G75*
G02*
X123205000Y-111922500I0J162500D01*
G01*
G37*
%TD.AperFunction*%
%TO.P,U5,2*%
%TO.N,Net-(U3-Pad42)*%
%TA.AperFunction,SMDPad,CuDef*%
G36*
G01*
X123205000Y-114462500D02*
X123205000Y-114137500D01*
G75*
G02*
X123367500Y-113975000I162500J0D01*
G01*
X125392500Y-113975000D01*
G75*
G02*
X125555000Y-114137500I0J-162500D01*
G01*
X125555000Y-114462500D01*
G75*
G02*
X125392500Y-114625000I-162500J0D01*
G01*
X123367500Y-114625000D01*
G75*
G02*
X123205000Y-114462500I0J162500D01*
G01*
G37*
%TD.AperFunction*%
%TO.P,U5,3*%
%TO.N,Net-(U3-Pad41)*%
%TA.AperFunction,SMDPad,CuDef*%
G36*
G01*
X123205000Y-117002500D02*
X123205000Y-116677500D01*
G75*
G02*
X123367500Y-116515000I162500J0D01*
G01*
X125392500Y-116515000D01*
G75*
G02*
X125555000Y-116677500I0J-162500D01*
G01*
X125555000Y-117002500D01*
G75*
G02*
X125392500Y-117165000I-162500J0D01*
G01*
X123367500Y-117165000D01*
G75*
G02*
X123205000Y-117002500I0J162500D01*
G01*
G37*
%TD.AperFunction*%
%TO.P,U5,4*%
%TO.N,/3.3V_rtn*%
%TA.AperFunction,SMDPad,CuDef*%
G36*
G01*
X123205000Y-119542500D02*
X123205000Y-119217500D01*
G75*
G02*
X123367500Y-119055000I162500J0D01*
G01*
X125392500Y-119055000D01*
G75*
G02*
X125555000Y-119217500I0J-162500D01*
G01*
X125555000Y-119542500D01*
G75*
G02*
X125392500Y-119705000I-162500J0D01*
G01*
X123367500Y-119705000D01*
G75*
G02*
X123205000Y-119542500I0J162500D01*
G01*
G37*
%TD.AperFunction*%
%TO.P,U5,5*%
%TO.N,/24V_rtn*%
%TA.AperFunction,SMDPad,CuDef*%
G36*
G01*
X132255000Y-119542500D02*
X132255000Y-119217500D01*
G75*
G02*
X132417500Y-119055000I162500J0D01*
G01*
X134442500Y-119055000D01*
G75*
G02*
X134605000Y-119217500I0J-162500D01*
G01*
X134605000Y-119542500D01*
G75*
G02*
X134442500Y-119705000I-162500J0D01*
G01*
X132417500Y-119705000D01*
G75*
G02*
X132255000Y-119542500I0J162500D01*
G01*
G37*
%TD.AperFunction*%
%TO.P,U5,6*%
%TO.N,/BP_CAN-*%
%TA.AperFunction,SMDPad,CuDef*%
G36*
G01*
X132255000Y-117002500D02*
X132255000Y-116677500D01*
G75*
G02*
X132417500Y-116515000I162500J0D01*
G01*
X134442500Y-116515000D01*
G75*
G02*
X134605000Y-116677500I0J-162500D01*
G01*
X134605000Y-117002500D01*
G75*
G02*
X134442500Y-117165000I-162500J0D01*
G01*
X132417500Y-117165000D01*
G75*
G02*
X132255000Y-117002500I0J162500D01*
G01*
G37*
%TD.AperFunction*%
%TO.P,U5,7*%
%TO.N,/BP_CAN+*%
%TA.AperFunction,SMDPad,CuDef*%
G36*
G01*
X132255000Y-114462500D02*
X132255000Y-114137500D01*
G75*
G02*
X132417500Y-113975000I162500J0D01*
G01*
X134442500Y-113975000D01*
G75*
G02*
X134605000Y-114137500I0J-162500D01*
G01*
X134605000Y-114462500D01*
G75*
G02*
X134442500Y-114625000I-162500J0D01*
G01*
X132417500Y-114625000D01*
G75*
G02*
X132255000Y-114462500I0J162500D01*
G01*
G37*
%TD.AperFunction*%
%TO.P,U5,8*%
%TO.N,/5V_non_iso*%
%TA.AperFunction,SMDPad,CuDef*%
G36*
G01*
X132255000Y-111922500D02*
X132255000Y-111597500D01*
G75*
G02*
X132417500Y-111435000I162500J0D01*
G01*
X134442500Y-111435000D01*
G75*
G02*
X134605000Y-111597500I0J-162500D01*
G01*
X134605000Y-111922500D01*
G75*
G02*
X134442500Y-112085000I-162500J0D01*
G01*
X132417500Y-112085000D01*
G75*
G02*
X132255000Y-111922500I0J162500D01*
G01*
G37*
%TD.AperFunction*%
%TD*%
D23*
%TO.P,U7,1*%
%TO.N,/3.3V*%
X152584150Y-43180000D03*
%TO.P,U7,2*%
X152584150Y-41910000D03*
%TO.P,U7,3*%
%TO.N,/3.3V_rtn*%
X152584150Y-40640000D03*
%TO.P,U7,4*%
%TO.N,Net-(C13-Pad2)*%
X152584150Y-39370000D03*
%TO.P,U7,5*%
%TO.N,/5V*%
X147135850Y-39370000D03*
%TO.P,U7,6*%
%TO.N,/3.3V_rtn*%
X147135850Y-40640000D03*
%TO.P,U7,7*%
X147135850Y-41910000D03*
%TO.P,U7,8*%
%TO.N,/5V*%
X147135850Y-43180000D03*
%TD*%
%TO.P,U8,1*%
%TO.N,Net-(U2-Pad3)*%
%TA.AperFunction,SMDPad,CuDef*%
G36*
G01*
X136565000Y-83335000D02*
X136565000Y-83035000D01*
G75*
G02*
X136715000Y-82885000I150000J0D01*
G01*
X138465000Y-82885000D01*
G75*
G02*
X138615000Y-83035000I0J-150000D01*
G01*
X138615000Y-83335000D01*
G75*
G02*
X138465000Y-83485000I-150000J0D01*
G01*
X136715000Y-83485000D01*
G75*
G02*
X136565000Y-83335000I0J150000D01*
G01*
G37*
%TD.AperFunction*%
%TO.P,U8,2*%
%TO.N,Net-(U2-Pad2)*%
%TA.AperFunction,SMDPad,CuDef*%
G36*
G01*
X136565000Y-84605000D02*
X136565000Y-84305000D01*
G75*
G02*
X136715000Y-84155000I150000J0D01*
G01*
X138465000Y-84155000D01*
G75*
G02*
X138615000Y-84305000I0J-150000D01*
G01*
X138615000Y-84605000D01*
G75*
G02*
X138465000Y-84755000I-150000J0D01*
G01*
X136715000Y-84755000D01*
G75*
G02*
X136565000Y-84605000I0J150000D01*
G01*
G37*
%TD.AperFunction*%
%TO.P,U8,3*%
%TO.N,Net-(U8-Pad3)*%
%TA.AperFunction,SMDPad,CuDef*%
G36*
G01*
X136565000Y-85875000D02*
X136565000Y-85575000D01*
G75*
G02*
X136715000Y-85425000I150000J0D01*
G01*
X138465000Y-85425000D01*
G75*
G02*
X138615000Y-85575000I0J-150000D01*
G01*
X138615000Y-85875000D01*
G75*
G02*
X138465000Y-86025000I-150000J0D01*
G01*
X136715000Y-86025000D01*
G75*
G02*
X136565000Y-85875000I0J150000D01*
G01*
G37*
%TD.AperFunction*%
%TO.P,U8,4*%
%TO.N,Net-(U8-Pad4)*%
%TA.AperFunction,SMDPad,CuDef*%
G36*
G01*
X136565000Y-87145000D02*
X136565000Y-86845000D01*
G75*
G02*
X136715000Y-86695000I150000J0D01*
G01*
X138465000Y-86695000D01*
G75*
G02*
X138615000Y-86845000I0J-150000D01*
G01*
X138615000Y-87145000D01*
G75*
G02*
X138465000Y-87295000I-150000J0D01*
G01*
X136715000Y-87295000D01*
G75*
G02*
X136565000Y-87145000I0J150000D01*
G01*
G37*
%TD.AperFunction*%
%TO.P,U8,5*%
%TO.N,Net-(U8-Pad5)*%
%TA.AperFunction,SMDPad,CuDef*%
G36*
G01*
X136565000Y-88415000D02*
X136565000Y-88115000D01*
G75*
G02*
X136715000Y-87965000I150000J0D01*
G01*
X138465000Y-87965000D01*
G75*
G02*
X138615000Y-88115000I0J-150000D01*
G01*
X138615000Y-88415000D01*
G75*
G02*
X138465000Y-88565000I-150000J0D01*
G01*
X136715000Y-88565000D01*
G75*
G02*
X136565000Y-88415000I0J150000D01*
G01*
G37*
%TD.AperFunction*%
%TO.P,U8,6*%
%TO.N,Net-(U8-Pad6)*%
%TA.AperFunction,SMDPad,CuDef*%
G36*
G01*
X136565000Y-89685000D02*
X136565000Y-89385000D01*
G75*
G02*
X136715000Y-89235000I150000J0D01*
G01*
X138465000Y-89235000D01*
G75*
G02*
X138615000Y-89385000I0J-150000D01*
G01*
X138615000Y-89685000D01*
G75*
G02*
X138465000Y-89835000I-150000J0D01*
G01*
X136715000Y-89835000D01*
G75*
G02*
X136565000Y-89685000I0J150000D01*
G01*
G37*
%TD.AperFunction*%
%TO.P,U8,7*%
%TO.N,Net-(C16-Pad2)*%
%TA.AperFunction,SMDPad,CuDef*%
G36*
G01*
X136565000Y-90955000D02*
X136565000Y-90655000D01*
G75*
G02*
X136715000Y-90505000I150000J0D01*
G01*
X138465000Y-90505000D01*
G75*
G02*
X138615000Y-90655000I0J-150000D01*
G01*
X138615000Y-90955000D01*
G75*
G02*
X138465000Y-91105000I-150000J0D01*
G01*
X136715000Y-91105000D01*
G75*
G02*
X136565000Y-90955000I0J150000D01*
G01*
G37*
%TD.AperFunction*%
%TO.P,U8,8*%
%TO.N,Net-(C17-Pad2)*%
%TA.AperFunction,SMDPad,CuDef*%
G36*
G01*
X136565000Y-92225000D02*
X136565000Y-91925000D01*
G75*
G02*
X136715000Y-91775000I150000J0D01*
G01*
X138465000Y-91775000D01*
G75*
G02*
X138615000Y-91925000I0J-150000D01*
G01*
X138615000Y-92225000D01*
G75*
G02*
X138465000Y-92375000I-150000J0D01*
G01*
X136715000Y-92375000D01*
G75*
G02*
X136565000Y-92225000I0J150000D01*
G01*
G37*
%TD.AperFunction*%
%TO.P,U8,9*%
%TO.N,/3.3V_rtn*%
%TA.AperFunction,SMDPad,CuDef*%
G36*
G01*
X136565000Y-93495000D02*
X136565000Y-93195000D01*
G75*
G02*
X136715000Y-93045000I150000J0D01*
G01*
X138465000Y-93045000D01*
G75*
G02*
X138615000Y-93195000I0J-150000D01*
G01*
X138615000Y-93495000D01*
G75*
G02*
X138465000Y-93645000I-150000J0D01*
G01*
X136715000Y-93645000D01*
G75*
G02*
X136565000Y-93495000I0J150000D01*
G01*
G37*
%TD.AperFunction*%
%TO.P,U8,10*%
%TO.N,Net-(U8-Pad10)*%
%TA.AperFunction,SMDPad,CuDef*%
G36*
G01*
X145865000Y-93495000D02*
X145865000Y-93195000D01*
G75*
G02*
X146015000Y-93045000I150000J0D01*
G01*
X147765000Y-93045000D01*
G75*
G02*
X147915000Y-93195000I0J-150000D01*
G01*
X147915000Y-93495000D01*
G75*
G02*
X147765000Y-93645000I-150000J0D01*
G01*
X146015000Y-93645000D01*
G75*
G02*
X145865000Y-93495000I0J150000D01*
G01*
G37*
%TD.AperFunction*%
%TO.P,U8,11*%
%TO.N,Net-(U8-Pad11)*%
%TA.AperFunction,SMDPad,CuDef*%
G36*
G01*
X145865000Y-92225000D02*
X145865000Y-91925000D01*
G75*
G02*
X146015000Y-91775000I150000J0D01*
G01*
X147765000Y-91775000D01*
G75*
G02*
X147915000Y-91925000I0J-150000D01*
G01*
X147915000Y-92225000D01*
G75*
G02*
X147765000Y-92375000I-150000J0D01*
G01*
X146015000Y-92375000D01*
G75*
G02*
X145865000Y-92225000I0J150000D01*
G01*
G37*
%TD.AperFunction*%
%TO.P,U8,12*%
%TO.N,/GPIO25*%
%TA.AperFunction,SMDPad,CuDef*%
G36*
G01*
X145865000Y-90955000D02*
X145865000Y-90655000D01*
G75*
G02*
X146015000Y-90505000I150000J0D01*
G01*
X147765000Y-90505000D01*
G75*
G02*
X147915000Y-90655000I0J-150000D01*
G01*
X147915000Y-90955000D01*
G75*
G02*
X147765000Y-91105000I-150000J0D01*
G01*
X146015000Y-91105000D01*
G75*
G02*
X145865000Y-90955000I0J150000D01*
G01*
G37*
%TD.AperFunction*%
%TO.P,U8,13*%
%TO.N,/PiHat.sch/PI_SPI_SCLK*%
%TA.AperFunction,SMDPad,CuDef*%
G36*
G01*
X145865000Y-89685000D02*
X145865000Y-89385000D01*
G75*
G02*
X146015000Y-89235000I150000J0D01*
G01*
X147765000Y-89235000D01*
G75*
G02*
X147915000Y-89385000I0J-150000D01*
G01*
X147915000Y-89685000D01*
G75*
G02*
X147765000Y-89835000I-150000J0D01*
G01*
X146015000Y-89835000D01*
G75*
G02*
X145865000Y-89685000I0J150000D01*
G01*
G37*
%TD.AperFunction*%
%TO.P,U8,14*%
%TO.N,/PiHat.sch/PI_SPI_MOSI*%
%TA.AperFunction,SMDPad,CuDef*%
G36*
G01*
X145865000Y-88415000D02*
X145865000Y-88115000D01*
G75*
G02*
X146015000Y-87965000I150000J0D01*
G01*
X147765000Y-87965000D01*
G75*
G02*
X147915000Y-88115000I0J-150000D01*
G01*
X147915000Y-88415000D01*
G75*
G02*
X147765000Y-88565000I-150000J0D01*
G01*
X146015000Y-88565000D01*
G75*
G02*
X145865000Y-88415000I0J150000D01*
G01*
G37*
%TD.AperFunction*%
%TO.P,U8,15*%
%TO.N,/PiHat.sch/PI_SPI_MISO*%
%TA.AperFunction,SMDPad,CuDef*%
G36*
G01*
X145865000Y-87145000D02*
X145865000Y-86845000D01*
G75*
G02*
X146015000Y-86695000I150000J0D01*
G01*
X147765000Y-86695000D01*
G75*
G02*
X147915000Y-86845000I0J-150000D01*
G01*
X147915000Y-87145000D01*
G75*
G02*
X147765000Y-87295000I-150000J0D01*
G01*
X146015000Y-87295000D01*
G75*
G02*
X145865000Y-87145000I0J150000D01*
G01*
G37*
%TD.AperFunction*%
%TO.P,U8,16*%
%TO.N,/PI_SPI_CEO*%
%TA.AperFunction,SMDPad,CuDef*%
G36*
G01*
X145865000Y-85875000D02*
X145865000Y-85575000D01*
G75*
G02*
X146015000Y-85425000I150000J0D01*
G01*
X147765000Y-85425000D01*
G75*
G02*
X147915000Y-85575000I0J-150000D01*
G01*
X147915000Y-85875000D01*
G75*
G02*
X147765000Y-86025000I-150000J0D01*
G01*
X146015000Y-86025000D01*
G75*
G02*
X145865000Y-85875000I0J150000D01*
G01*
G37*
%TD.AperFunction*%
%TO.P,U8,17*%
%TO.N,Net-(R10-Pad2)*%
%TA.AperFunction,SMDPad,CuDef*%
G36*
G01*
X145865000Y-84605000D02*
X145865000Y-84305000D01*
G75*
G02*
X146015000Y-84155000I150000J0D01*
G01*
X147765000Y-84155000D01*
G75*
G02*
X147915000Y-84305000I0J-150000D01*
G01*
X147915000Y-84605000D01*
G75*
G02*
X147765000Y-84755000I-150000J0D01*
G01*
X146015000Y-84755000D01*
G75*
G02*
X145865000Y-84605000I0J150000D01*
G01*
G37*
%TD.AperFunction*%
%TO.P,U8,18*%
%TO.N,/5V*%
%TA.AperFunction,SMDPad,CuDef*%
G36*
G01*
X145865000Y-83335000D02*
X145865000Y-83035000D01*
G75*
G02*
X146015000Y-82885000I150000J0D01*
G01*
X147765000Y-82885000D01*
G75*
G02*
X147915000Y-83035000I0J-150000D01*
G01*
X147915000Y-83335000D01*
G75*
G02*
X147765000Y-83485000I-150000J0D01*
G01*
X146015000Y-83485000D01*
G75*
G02*
X145865000Y-83335000I0J150000D01*
G01*
G37*
%TD.AperFunction*%
%TD*%
D24*
%TO.P,U9,1*%
%TO.N,/3.3V_non_iso*%
X203015850Y-18415000D03*
%TO.P,U9,2*%
%TO.N,/GLV_SDA*%
X203015850Y-19685000D03*
%TO.P,U9,3*%
%TO.N,/GLV_SCL*%
X203015850Y-20955000D03*
%TO.P,U9,4*%
%TO.N,/24V_rtn*%
X203015850Y-22225000D03*
%TO.P,U9,5*%
%TO.N,/3.3V_rtn*%
X208464150Y-22225000D03*
%TO.P,U9,6*%
%TO.N,/SCL_iso*%
X208464150Y-20955000D03*
%TO.P,U9,7*%
%TO.N,/SDA_iso*%
X208464150Y-19685000D03*
%TO.P,U9,8*%
%TO.N,/3.3V*%
X208464150Y-18415000D03*
%TD*%
%TO.P,U10,1*%
%TO.N,Net-(R11-Pad2)*%
%TA.AperFunction,SMDPad,CuDef*%
G36*
G01*
X140730000Y-106182500D02*
X140730000Y-105907500D01*
G75*
G02*
X140867500Y-105770000I137500J0D01*
G01*
X142192500Y-105770000D01*
G75*
G02*
X142330000Y-105907500I0J-137500D01*
G01*
X142330000Y-106182500D01*
G75*
G02*
X142192500Y-106320000I-137500J0D01*
G01*
X140867500Y-106320000D01*
G75*
G02*
X140730000Y-106182500I0J137500D01*
G01*
G37*
%TD.AperFunction*%
%TO.P,U10,2*%
%TO.N,/24V_rtn*%
%TA.AperFunction,SMDPad,CuDef*%
G36*
G01*
X140730000Y-107452500D02*
X140730000Y-107177500D01*
G75*
G02*
X140867500Y-107040000I137500J0D01*
G01*
X142192500Y-107040000D01*
G75*
G02*
X142330000Y-107177500I0J-137500D01*
G01*
X142330000Y-107452500D01*
G75*
G02*
X142192500Y-107590000I-137500J0D01*
G01*
X140867500Y-107590000D01*
G75*
G02*
X140730000Y-107452500I0J137500D01*
G01*
G37*
%TD.AperFunction*%
%TO.P,U10,3*%
%TO.N,/3.3V_rtn*%
%TA.AperFunction,SMDPad,CuDef*%
G36*
G01*
X147230000Y-107452500D02*
X147230000Y-107177500D01*
G75*
G02*
X147367500Y-107040000I137500J0D01*
G01*
X148692500Y-107040000D01*
G75*
G02*
X148830000Y-107177500I0J-137500D01*
G01*
X148830000Y-107452500D01*
G75*
G02*
X148692500Y-107590000I-137500J0D01*
G01*
X147367500Y-107590000D01*
G75*
G02*
X147230000Y-107452500I0J137500D01*
G01*
G37*
%TD.AperFunction*%
%TO.P,U10,4*%
%TO.N,/Safety_Loop_iso*%
%TA.AperFunction,SMDPad,CuDef*%
G36*
G01*
X147230000Y-106182500D02*
X147230000Y-105907500D01*
G75*
G02*
X147367500Y-105770000I137500J0D01*
G01*
X148692500Y-105770000D01*
G75*
G02*
X148830000Y-105907500I0J-137500D01*
G01*
X148830000Y-106182500D01*
G75*
G02*
X148692500Y-106320000I-137500J0D01*
G01*
X147367500Y-106320000D01*
G75*
G02*
X147230000Y-106182500I0J137500D01*
G01*
G37*
%TD.AperFunction*%
%TD*%
D25*
%TO.P,Y1,1*%
%TO.N,Net-(C16-Pad2)*%
X120650000Y-82880000D03*
%TO.P,Y1,2*%
%TO.N,Net-(C17-Pad2)*%
X120650000Y-92380000D03*
%TD*%
%TO.P,R1,2*%
%TO.N,/3.3V*%
%TA.AperFunction,SMDPad,CuDef*%
G36*
G01*
X211270001Y-13275000D02*
X210369999Y-13275000D01*
G75*
G02*
X210120000Y-13025001I0J249999D01*
G01*
X210120000Y-12374999D01*
G75*
G02*
X210369999Y-12125000I249999J0D01*
G01*
X211270001Y-12125000D01*
G75*
G02*
X211520000Y-12374999I0J-249999D01*
G01*
X211520000Y-13025001D01*
G75*
G02*
X211270001Y-13275000I-249999J0D01*
G01*
G37*
%TD.AperFunction*%
%TO.P,R1,1*%
%TO.N,/SDA_iso*%
%TA.AperFunction,SMDPad,CuDef*%
G36*
G01*
X211270001Y-15325000D02*
X210369999Y-15325000D01*
G75*
G02*
X210120000Y-15075001I0J249999D01*
G01*
X210120000Y-14424999D01*
G75*
G02*
X210369999Y-14175000I249999J0D01*
G01*
X211270001Y-14175000D01*
G75*
G02*
X211520000Y-14424999I0J-249999D01*
G01*
X211520000Y-15075001D01*
G75*
G02*
X211270001Y-15325000I-249999J0D01*
G01*
G37*
%TD.AperFunction*%
%TD*%
%TO.P,R2,1*%
%TO.N,/SCL_iso*%
%TA.AperFunction,SMDPad,CuDef*%
G36*
G01*
X214445001Y-15180000D02*
X213544999Y-15180000D01*
G75*
G02*
X213295000Y-14930001I0J249999D01*
G01*
X213295000Y-14279999D01*
G75*
G02*
X213544999Y-14030000I249999J0D01*
G01*
X214445001Y-14030000D01*
G75*
G02*
X214695000Y-14279999I0J-249999D01*
G01*
X214695000Y-14930001D01*
G75*
G02*
X214445001Y-15180000I-249999J0D01*
G01*
G37*
%TD.AperFunction*%
%TO.P,R2,2*%
%TO.N,/3.3V*%
%TA.AperFunction,SMDPad,CuDef*%
G36*
G01*
X214445001Y-13130000D02*
X213544999Y-13130000D01*
G75*
G02*
X213295000Y-12880001I0J249999D01*
G01*
X213295000Y-12229999D01*
G75*
G02*
X213544999Y-11980000I249999J0D01*
G01*
X214445001Y-11980000D01*
G75*
G02*
X214695000Y-12229999I0J-249999D01*
G01*
X214695000Y-12880001D01*
G75*
G02*
X214445001Y-13130000I-249999J0D01*
G01*
G37*
%TD.AperFunction*%
%TD*%
%TO.P,R3,2*%
%TO.N,/3.3V*%
%TA.AperFunction,SMDPad,CuDef*%
G36*
G01*
X150945001Y-121225000D02*
X150044999Y-121225000D01*
G75*
G02*
X149795000Y-120975001I0J249999D01*
G01*
X149795000Y-120324999D01*
G75*
G02*
X150044999Y-120075000I249999J0D01*
G01*
X150945001Y-120075000D01*
G75*
G02*
X151195000Y-120324999I0J-249999D01*
G01*
X151195000Y-120975001D01*
G75*
G02*
X150945001Y-121225000I-249999J0D01*
G01*
G37*
%TD.AperFunction*%
%TO.P,R3,1*%
%TO.N,Net-(C2-Pad1)*%
%TA.AperFunction,SMDPad,CuDef*%
G36*
G01*
X150945001Y-123275000D02*
X150044999Y-123275000D01*
G75*
G02*
X149795000Y-123025001I0J249999D01*
G01*
X149795000Y-122374999D01*
G75*
G02*
X150044999Y-122125000I249999J0D01*
G01*
X150945001Y-122125000D01*
G75*
G02*
X151195000Y-122374999I0J-249999D01*
G01*
X151195000Y-123025001D01*
G75*
G02*
X150945001Y-123275000I-249999J0D01*
G01*
G37*
%TD.AperFunction*%
%TD*%
%TO.P,R4,2*%
%TO.N,Net-(C2-Pad1)*%
%TA.AperFunction,SMDPad,CuDef*%
G36*
G01*
X150945001Y-125280000D02*
X150044999Y-125280000D01*
G75*
G02*
X149795000Y-125030001I0J249999D01*
G01*
X149795000Y-124379999D01*
G75*
G02*
X150044999Y-124130000I249999J0D01*
G01*
X150945001Y-124130000D01*
G75*
G02*
X151195000Y-124379999I0J-249999D01*
G01*
X151195000Y-125030001D01*
G75*
G02*
X150945001Y-125280000I-249999J0D01*
G01*
G37*
%TD.AperFunction*%
%TO.P,R4,1*%
%TO.N,/~MCLR~*%
%TA.AperFunction,SMDPad,CuDef*%
G36*
G01*
X150945001Y-127330000D02*
X150044999Y-127330000D01*
G75*
G02*
X149795000Y-127080001I0J249999D01*
G01*
X149795000Y-126429999D01*
G75*
G02*
X150044999Y-126180000I249999J0D01*
G01*
X150945001Y-126180000D01*
G75*
G02*
X151195000Y-126429999I0J-249999D01*
G01*
X151195000Y-127080001D01*
G75*
G02*
X150945001Y-127330000I-249999J0D01*
G01*
G37*
%TD.AperFunction*%
%TD*%
%TO.P,R5,2*%
%TO.N,Net-(D1-Pad2)*%
%TA.AperFunction,SMDPad,CuDef*%
G36*
G01*
X206170000Y-12249999D02*
X206170000Y-13150001D01*
G75*
G02*
X205920001Y-13400000I-249999J0D01*
G01*
X205269999Y-13400000D01*
G75*
G02*
X205020000Y-13150001I0J249999D01*
G01*
X205020000Y-12249999D01*
G75*
G02*
X205269999Y-12000000I249999J0D01*
G01*
X205920001Y-12000000D01*
G75*
G02*
X206170000Y-12249999I0J-249999D01*
G01*
G37*
%TD.AperFunction*%
%TO.P,R5,1*%
%TO.N,/3.3V*%
%TA.AperFunction,SMDPad,CuDef*%
G36*
G01*
X208220000Y-12249999D02*
X208220000Y-13150001D01*
G75*
G02*
X207970001Y-13400000I-249999J0D01*
G01*
X207319999Y-13400000D01*
G75*
G02*
X207070000Y-13150001I0J249999D01*
G01*
X207070000Y-12249999D01*
G75*
G02*
X207319999Y-12000000I249999J0D01*
G01*
X207970001Y-12000000D01*
G75*
G02*
X208220000Y-12249999I0J-249999D01*
G01*
G37*
%TD.AperFunction*%
%TD*%
%TO.P,R6,1*%
%TO.N,/SDA_iso*%
%TA.AperFunction,SMDPad,CuDef*%
G36*
G01*
X211639999Y-28490000D02*
X212540001Y-28490000D01*
G75*
G02*
X212790000Y-28739999I0J-249999D01*
G01*
X212790000Y-29390001D01*
G75*
G02*
X212540001Y-29640000I-249999J0D01*
G01*
X211639999Y-29640000D01*
G75*
G02*
X211390000Y-29390001I0J249999D01*
G01*
X211390000Y-28739999D01*
G75*
G02*
X211639999Y-28490000I249999J0D01*
G01*
G37*
%TD.AperFunction*%
%TO.P,R6,2*%
%TO.N,Net-(D2-Pad2)*%
%TA.AperFunction,SMDPad,CuDef*%
G36*
G01*
X211639999Y-30540000D02*
X212540001Y-30540000D01*
G75*
G02*
X212790000Y-30789999I0J-249999D01*
G01*
X212790000Y-31440001D01*
G75*
G02*
X212540001Y-31690000I-249999J0D01*
G01*
X211639999Y-31690000D01*
G75*
G02*
X211390000Y-31440001I0J249999D01*
G01*
X211390000Y-30789999D01*
G75*
G02*
X211639999Y-30540000I249999J0D01*
G01*
G37*
%TD.AperFunction*%
%TD*%
%TO.P,R7,1*%
%TO.N,Net-(J9-Pad1)*%
%TA.AperFunction,SMDPad,CuDef*%
G36*
G01*
X157175000Y-80194999D02*
X157175000Y-81095001D01*
G75*
G02*
X156925001Y-81345000I-249999J0D01*
G01*
X156274999Y-81345000D01*
G75*
G02*
X156025000Y-81095001I0J249999D01*
G01*
X156025000Y-80194999D01*
G75*
G02*
X156274999Y-79945000I249999J0D01*
G01*
X156925001Y-79945000D01*
G75*
G02*
X157175000Y-80194999I0J-249999D01*
G01*
G37*
%TD.AperFunction*%
%TO.P,R7,2*%
%TO.N,/BP_CAN+*%
%TA.AperFunction,SMDPad,CuDef*%
G36*
G01*
X155125000Y-80194999D02*
X155125000Y-81095001D01*
G75*
G02*
X154875001Y-81345000I-249999J0D01*
G01*
X154224999Y-81345000D01*
G75*
G02*
X153975000Y-81095001I0J249999D01*
G01*
X153975000Y-80194999D01*
G75*
G02*
X154224999Y-79945000I249999J0D01*
G01*
X154875001Y-79945000D01*
G75*
G02*
X155125000Y-80194999I0J-249999D01*
G01*
G37*
%TD.AperFunction*%
%TD*%
%TO.P,R8,2*%
%TO.N,/3.3V_non_iso*%
%TA.AperFunction,SMDPad,CuDef*%
G36*
G01*
X115754999Y-101025000D02*
X116655001Y-101025000D01*
G75*
G02*
X116905000Y-101274999I0J-249999D01*
G01*
X116905000Y-101925001D01*
G75*
G02*
X116655001Y-102175000I-249999J0D01*
G01*
X115754999Y-102175000D01*
G75*
G02*
X115505000Y-101925001I0J249999D01*
G01*
X115505000Y-101274999D01*
G75*
G02*
X115754999Y-101025000I249999J0D01*
G01*
G37*
%TD.AperFunction*%
%TO.P,R8,1*%
%TO.N,/5V_non_iso*%
%TA.AperFunction,SMDPad,CuDef*%
G36*
G01*
X115754999Y-98975000D02*
X116655001Y-98975000D01*
G75*
G02*
X116905000Y-99224999I0J-249999D01*
G01*
X116905000Y-99875001D01*
G75*
G02*
X116655001Y-100125000I-249999J0D01*
G01*
X115754999Y-100125000D01*
G75*
G02*
X115505000Y-99875001I0J249999D01*
G01*
X115505000Y-99224999D01*
G75*
G02*
X115754999Y-98975000I249999J0D01*
G01*
G37*
%TD.AperFunction*%
%TD*%
%TO.P,R9,1*%
%TO.N,/3.3V_non_iso*%
%TA.AperFunction,SMDPad,CuDef*%
G36*
G01*
X115754999Y-104200000D02*
X116655001Y-104200000D01*
G75*
G02*
X116905000Y-104449999I0J-249999D01*
G01*
X116905000Y-105100001D01*
G75*
G02*
X116655001Y-105350000I-249999J0D01*
G01*
X115754999Y-105350000D01*
G75*
G02*
X115505000Y-105100001I0J249999D01*
G01*
X115505000Y-104449999D01*
G75*
G02*
X115754999Y-104200000I249999J0D01*
G01*
G37*
%TD.AperFunction*%
%TO.P,R9,2*%
%TO.N,/24V_rtn*%
%TA.AperFunction,SMDPad,CuDef*%
G36*
G01*
X115754999Y-106250000D02*
X116655001Y-106250000D01*
G75*
G02*
X116905000Y-106499999I0J-249999D01*
G01*
X116905000Y-107150001D01*
G75*
G02*
X116655001Y-107400000I-249999J0D01*
G01*
X115754999Y-107400000D01*
G75*
G02*
X115505000Y-107150001I0J249999D01*
G01*
X115505000Y-106499999D01*
G75*
G02*
X115754999Y-106250000I249999J0D01*
G01*
G37*
%TD.AperFunction*%
%TD*%
%TO.P,R10,1*%
%TO.N,/5V*%
%TA.AperFunction,SMDPad,CuDef*%
G36*
G01*
X152485000Y-84004999D02*
X152485000Y-84905001D01*
G75*
G02*
X152235001Y-85155000I-249999J0D01*
G01*
X151584999Y-85155000D01*
G75*
G02*
X151335000Y-84905001I0J249999D01*
G01*
X151335000Y-84004999D01*
G75*
G02*
X151584999Y-83755000I249999J0D01*
G01*
X152235001Y-83755000D01*
G75*
G02*
X152485000Y-84004999I0J-249999D01*
G01*
G37*
%TD.AperFunction*%
%TO.P,R10,2*%
%TO.N,Net-(R10-Pad2)*%
%TA.AperFunction,SMDPad,CuDef*%
G36*
G01*
X150435000Y-84004999D02*
X150435000Y-84905001D01*
G75*
G02*
X150185001Y-85155000I-249999J0D01*
G01*
X149534999Y-85155000D01*
G75*
G02*
X149285000Y-84905001I0J249999D01*
G01*
X149285000Y-84004999D01*
G75*
G02*
X149534999Y-83755000I249999J0D01*
G01*
X150185001Y-83755000D01*
G75*
G02*
X150435000Y-84004999I0J-249999D01*
G01*
G37*
%TD.AperFunction*%
%TD*%
%TO.P,R11,1*%
%TO.N,/Safety_Loop*%
%TA.AperFunction,SMDPad,CuDef*%
G36*
G01*
X135805000Y-106495001D02*
X135805000Y-105594999D01*
G75*
G02*
X136054999Y-105345000I249999J0D01*
G01*
X136705001Y-105345000D01*
G75*
G02*
X136955000Y-105594999I0J-249999D01*
G01*
X136955000Y-106495001D01*
G75*
G02*
X136705001Y-106745000I-249999J0D01*
G01*
X136054999Y-106745000D01*
G75*
G02*
X135805000Y-106495001I0J249999D01*
G01*
G37*
%TD.AperFunction*%
%TO.P,R11,2*%
%TO.N,Net-(R11-Pad2)*%
%TA.AperFunction,SMDPad,CuDef*%
G36*
G01*
X137855000Y-106495001D02*
X137855000Y-105594999D01*
G75*
G02*
X138104999Y-105345000I249999J0D01*
G01*
X138755001Y-105345000D01*
G75*
G02*
X139005000Y-105594999I0J-249999D01*
G01*
X139005000Y-106495001D01*
G75*
G02*
X138755001Y-106745000I-249999J0D01*
G01*
X138104999Y-106745000D01*
G75*
G02*
X137855000Y-106495001I0J249999D01*
G01*
G37*
%TD.AperFunction*%
%TD*%
%TO.P,R12,2*%
%TO.N,/5V*%
%TA.AperFunction,SMDPad,CuDef*%
G36*
G01*
X152460000Y-106495001D02*
X152460000Y-105594999D01*
G75*
G02*
X152709999Y-105345000I249999J0D01*
G01*
X153360001Y-105345000D01*
G75*
G02*
X153610000Y-105594999I0J-249999D01*
G01*
X153610000Y-106495001D01*
G75*
G02*
X153360001Y-106745000I-249999J0D01*
G01*
X152709999Y-106745000D01*
G75*
G02*
X152460000Y-106495001I0J249999D01*
G01*
G37*
%TD.AperFunction*%
%TO.P,R12,1*%
%TO.N,/Safety_Loop_iso*%
%TA.AperFunction,SMDPad,CuDef*%
G36*
G01*
X150410000Y-106495001D02*
X150410000Y-105594999D01*
G75*
G02*
X150659999Y-105345000I249999J0D01*
G01*
X151310001Y-105345000D01*
G75*
G02*
X151560000Y-105594999I0J-249999D01*
G01*
X151560000Y-106495001D01*
G75*
G02*
X151310001Y-106745000I-249999J0D01*
G01*
X150659999Y-106745000D01*
G75*
G02*
X150410000Y-106495001I0J249999D01*
G01*
G37*
%TD.AperFunction*%
%TD*%
%TO.P,R13,1*%
%TO.N,/24V*%
%TA.AperFunction,SMDPad,CuDef*%
G36*
G01*
X175810000Y-27120001D02*
X175810000Y-26219999D01*
G75*
G02*
X176059999Y-25970000I249999J0D01*
G01*
X176710001Y-25970000D01*
G75*
G02*
X176960000Y-26219999I0J-249999D01*
G01*
X176960000Y-27120001D01*
G75*
G02*
X176710001Y-27370000I-249999J0D01*
G01*
X176059999Y-27370000D01*
G75*
G02*
X175810000Y-27120001I0J249999D01*
G01*
G37*
%TD.AperFunction*%
%TO.P,R13,2*%
%TO.N,Net-(D3-Pad2)*%
%TA.AperFunction,SMDPad,CuDef*%
G36*
G01*
X177860000Y-27120001D02*
X177860000Y-26219999D01*
G75*
G02*
X178109999Y-25970000I249999J0D01*
G01*
X178760001Y-25970000D01*
G75*
G02*
X179010000Y-26219999I0J-249999D01*
G01*
X179010000Y-27120001D01*
G75*
G02*
X178760001Y-27370000I-249999J0D01*
G01*
X178109999Y-27370000D01*
G75*
G02*
X177860000Y-27120001I0J249999D01*
G01*
G37*
%TD.AperFunction*%
%TD*%
%TO.P,R14,1*%
%TO.N,/3.3V_non_iso*%
%TA.AperFunction,SMDPad,CuDef*%
G36*
G01*
X196300000Y-26219999D02*
X196300000Y-27120001D01*
G75*
G02*
X196050001Y-27370000I-249999J0D01*
G01*
X195399999Y-27370000D01*
G75*
G02*
X195150000Y-27120001I0J249999D01*
G01*
X195150000Y-26219999D01*
G75*
G02*
X195399999Y-25970000I249999J0D01*
G01*
X196050001Y-25970000D01*
G75*
G02*
X196300000Y-26219999I0J-249999D01*
G01*
G37*
%TD.AperFunction*%
%TO.P,R14,2*%
%TO.N,Net-(D4-Pad2)*%
%TA.AperFunction,SMDPad,CuDef*%
G36*
G01*
X194250000Y-26219999D02*
X194250000Y-27120001D01*
G75*
G02*
X194000001Y-27370000I-249999J0D01*
G01*
X193349999Y-27370000D01*
G75*
G02*
X193100000Y-27120001I0J249999D01*
G01*
X193100000Y-26219999D01*
G75*
G02*
X193349999Y-25970000I249999J0D01*
G01*
X194000001Y-25970000D01*
G75*
G02*
X194250000Y-26219999I0J-249999D01*
G01*
G37*
%TD.AperFunction*%
%TD*%
%TO.P,R15,2*%
%TO.N,Net-(D5-Pad2)*%
%TA.AperFunction,SMDPad,CuDef*%
G36*
G01*
X148139999Y-64195000D02*
X149040001Y-64195000D01*
G75*
G02*
X149290000Y-64444999I0J-249999D01*
G01*
X149290000Y-65095001D01*
G75*
G02*
X149040001Y-65345000I-249999J0D01*
G01*
X148139999Y-65345000D01*
G75*
G02*
X147890000Y-65095001I0J249999D01*
G01*
X147890000Y-64444999D01*
G75*
G02*
X148139999Y-64195000I249999J0D01*
G01*
G37*
%TD.AperFunction*%
%TO.P,R15,1*%
%TO.N,/5V_non_iso*%
%TA.AperFunction,SMDPad,CuDef*%
G36*
G01*
X148139999Y-62145000D02*
X149040001Y-62145000D01*
G75*
G02*
X149290000Y-62394999I0J-249999D01*
G01*
X149290000Y-63045001D01*
G75*
G02*
X149040001Y-63295000I-249999J0D01*
G01*
X148139999Y-63295000D01*
G75*
G02*
X147890000Y-63045001I0J249999D01*
G01*
X147890000Y-62394999D01*
G75*
G02*
X148139999Y-62145000I249999J0D01*
G01*
G37*
%TD.AperFunction*%
%TD*%
%TO.P,R16,2*%
%TO.N,Net-(D6-Pad2)*%
%TA.AperFunction,SMDPad,CuDef*%
G36*
G01*
X117659999Y-21795000D02*
X118560001Y-21795000D01*
G75*
G02*
X118810000Y-22044999I0J-249999D01*
G01*
X118810000Y-22695001D01*
G75*
G02*
X118560001Y-22945000I-249999J0D01*
G01*
X117659999Y-22945000D01*
G75*
G02*
X117410000Y-22695001I0J249999D01*
G01*
X117410000Y-22044999D01*
G75*
G02*
X117659999Y-21795000I249999J0D01*
G01*
G37*
%TD.AperFunction*%
%TO.P,R16,1*%
%TO.N,/5V*%
%TA.AperFunction,SMDPad,CuDef*%
G36*
G01*
X117659999Y-19745000D02*
X118560001Y-19745000D01*
G75*
G02*
X118810000Y-19994999I0J-249999D01*
G01*
X118810000Y-20645001D01*
G75*
G02*
X118560001Y-20895000I-249999J0D01*
G01*
X117659999Y-20895000D01*
G75*
G02*
X117410000Y-20645001I0J249999D01*
G01*
X117410000Y-19994999D01*
G75*
G02*
X117659999Y-19745000I249999J0D01*
G01*
G37*
%TD.AperFunction*%
%TD*%
D19*
%TO.P,J3 IMU,1*%
%TO.N,/3.3V*%
X224790000Y-12065000D03*
D20*
%TO.P,J3 IMU,2*%
%TO.N,/3.3V_rtn*%
X224790000Y-14605000D03*
%TO.P,J3 IMU,3*%
%TO.N,/SDA_iso*%
X224790000Y-17145000D03*
%TO.P,J3 IMU,4*%
%TO.N,/SCL_iso*%
X224790000Y-19685000D03*
%TO.P,J3 IMU,5*%
%TO.N,N/C*%
X224790000Y-22225000D03*
%TD*%
D19*
%TO.P,J2 IMU,1*%
%TO.N,/3.3V_rtn*%
X241800000Y-14600000D03*
D20*
%TO.P,J2 IMU,2*%
X241800000Y-17140000D03*
%TD*%
D26*
%TO.N,/5V_non_iso*%
X128905000Y-111760000D03*
X128270000Y-99695000D03*
X116205000Y-97155000D03*
X116205000Y-62230000D03*
X158115000Y-68580000D03*
X158115000Y-113665000D03*
%TO.N,/3.3V_rtn*%
X136525000Y-40640000D03*
X130810000Y-76200000D03*
X130810000Y-93345000D03*
X127635000Y-87630000D03*
X208915000Y-57785000D03*
X208280000Y-74930000D03*
X205740000Y-95250000D03*
X205740000Y-107315000D03*
X124460000Y-40640000D03*
X124460000Y-73660000D03*
X129540000Y-136525000D03*
X124460000Y-121285000D03*
X144145000Y-107315000D03*
X144145000Y-95250000D03*
X154940000Y-86995000D03*
X154940000Y-95250000D03*
X208915000Y-25400000D03*
X144145000Y-127000000D03*
X154940000Y-139065000D03*
X146685000Y-128270000D03*
X146685000Y-139065000D03*
X206375000Y-128905000D03*
X199390000Y-13970000D03*
X198755000Y-25400000D03*
X217170000Y-31115000D03*
X217170000Y-25400000D03*
X119380000Y-28575000D03*
X120015000Y-40640000D03*
X167640000Y-122555000D03*
X164465000Y-135890000D03*
X169445001Y-133985000D03*
X165735000Y-125730000D03*
X172085000Y-128270000D03*
X171450000Y-126275000D03*
%TO.N,/24V_rtn*%
X166370000Y-101600000D03*
X161925000Y-63500000D03*
X138430000Y-114935000D03*
X138430000Y-108585000D03*
X183515000Y-22225000D03*
X166370000Y-74930000D03*
X166370000Y-63500000D03*
X152400000Y-66040000D03*
X152400000Y-72390000D03*
%TO.N,/24V*%
X165100000Y-99695000D03*
X174625000Y-26670000D03*
%TO.N,/3.3V*%
X219075000Y-41275000D03*
X219075000Y-19050000D03*
X152400000Y-125730000D03*
X152400000Y-120650000D03*
X163830000Y-117475000D03*
X163830000Y-42545000D03*
X169545000Y-122555000D03*
X164509184Y-130645096D03*
X168872906Y-130663309D03*
X164465000Y-125730000D03*
X170180000Y-127000000D03*
%TO.N,/5V*%
X143510000Y-39370000D03*
X143510000Y-43180000D03*
X128270000Y-68580000D03*
X128270000Y-43180000D03*
X112395000Y-71120000D03*
X112395000Y-113665000D03*
X153035000Y-104140000D03*
X112395000Y-141605000D03*
X146050000Y-81280000D03*
X153035000Y-86995000D03*
X150495000Y-55245000D03*
X224155000Y-114300000D03*
X118110000Y-19050000D03*
%TO.N,/BP_CAN-*%
X152400000Y-73660000D03*
X152400000Y-78105000D03*
X138430000Y-116840000D03*
X140970000Y-78105000D03*
X245745000Y-73660000D03*
X245745000Y-38100000D03*
X160655000Y-38100000D03*
%TO.N,/BP_CAN+*%
X150495000Y-71120000D03*
X136525000Y-114300000D03*
X150495000Y-80645000D03*
X136525000Y-80010000D03*
X247015000Y-76200000D03*
X247015000Y-36830000D03*
X159385000Y-36830000D03*
X159385000Y-67310000D03*
X150495000Y-67310000D03*
%TO.N,/GLV_SCL*%
X197485000Y-17780000D03*
X197485000Y-20955000D03*
X186055000Y-8890000D03*
X103505000Y-68580000D03*
X103505000Y-8890000D03*
%TO.N,/GLV_SDA*%
X100330000Y-71120000D03*
X100330000Y-7620000D03*
X189865000Y-7620000D03*
X189865000Y-15875000D03*
%TO.N,/Safety_Loop*%
X111125000Y-76200000D03*
X111125000Y-109220000D03*
X133985000Y-109220000D03*
X133985000Y-106045000D03*
%TO.N,/Cooling_CTRL*%
X109220000Y-78740000D03*
X109220000Y-122555000D03*
X145415000Y-122555000D03*
X145415000Y-118745000D03*
X160110000Y-118745000D03*
X160655000Y-123190000D03*
%TO.N,/Throttle_SEL*%
X107315000Y-81280000D03*
X107315000Y-133985000D03*
%TO.N,/PC_ready*%
X233680000Y-81280000D03*
X233680000Y-133350000D03*
X201930000Y-133350000D03*
X201295000Y-122555000D03*
%TO.N,/RTDS_CTRL*%
X231775000Y-78740000D03*
X231775000Y-130175000D03*
X198755000Y-130175000D03*
X196215000Y-118110000D03*
%TO.N,/SR_CTRL*%
X244475000Y-71120000D03*
X244475000Y-39370000D03*
X200660000Y-39370000D03*
X200660000Y-67945000D03*
%TO.N,Net-(J6-Pad4)*%
X215900000Y-59690000D03*
X215900000Y-47625000D03*
%TO.N,Net-(J6-Pad5)*%
X214630000Y-62865000D03*
X214630000Y-46355000D03*
%TO.N,Net-(J6-Pad6)*%
X213360000Y-45085000D03*
X213360000Y-65405000D03*
%TO.N,Net-(J6-Pad7)*%
X212090000Y-43815000D03*
X212090000Y-70485000D03*
%TO.N,Net-(J6-Pad8)*%
X210185000Y-42545000D03*
X210185000Y-72390000D03*
%TO.N,/~MCLR~*%
X149225000Y-128905000D03*
%TO.N,/PGEC*%
X156845000Y-139065000D03*
X156845000Y-135890000D03*
X156845000Y-129540000D03*
%TO.N,/PGED*%
X159385000Y-136525000D03*
X159385000Y-133350000D03*
X159385000Y-130265000D03*
%TO.N,/SDA_iso*%
X210185000Y-19685000D03*
X210185000Y-16510000D03*
X210185000Y-22950000D03*
X156210000Y-124460000D03*
X155575000Y-115570000D03*
X215900000Y-125095000D03*
X182880000Y-125095000D03*
X182880000Y-115570000D03*
X210185000Y-29210000D03*
X201930000Y-29210000D03*
X201930000Y-103505000D03*
X215990000Y-103505000D03*
X212700000Y-19650000D03*
%TO.N,/SCL_iso*%
X211455000Y-20955000D03*
X211455000Y-16510000D03*
X231140000Y-24130000D03*
X211455000Y-24130000D03*
X157480000Y-124460000D03*
X157480000Y-116840000D03*
X215175000Y-123825000D03*
X184785000Y-123825000D03*
X184785000Y-116840000D03*
X211455000Y-27305000D03*
X203835000Y-27305000D03*
X203200000Y-100330000D03*
X215265000Y-100330000D03*
%TO.N,/3.3V_non_iso*%
X114300000Y-101600000D03*
X114300000Y-29845000D03*
X200025000Y-29845000D03*
X200025000Y-18415000D03*
%TO.N,/Safety_Loop_iso*%
X159385000Y-108585000D03*
X159385000Y-123825000D03*
X224790000Y-88265000D03*
X229235000Y-88265000D03*
X229235000Y-127635000D03*
X196215000Y-127635000D03*
X182880000Y-107315000D03*
%TO.N,Net-(U2-Pad3)*%
X132715000Y-73660000D03*
X132715000Y-83185000D03*
%TO.N,Net-(U2-Pad2)*%
X134620000Y-71120000D03*
X134620000Y-84455000D03*
%TO.N,Net-(U3-Pad41)*%
X120650000Y-116840000D03*
X120650000Y-144145000D03*
X175260000Y-144145000D03*
X175260000Y-126335001D03*
%TO.N,Net-(U3-Pad42)*%
X121920000Y-114300000D03*
X121920000Y-142875000D03*
X176530000Y-142875000D03*
X176530000Y-123825000D03*
%TO.N,/PiHat.sch/PI_SPI_SCLK*%
X178435000Y-78105000D03*
X177800000Y-92710000D03*
%TO.N,/PiHat.sch/PI_SPI_MISO*%
X176530000Y-91440000D03*
X177165000Y-79375000D03*
%TO.N,/GPIO25*%
X226060000Y-120650000D03*
X202565000Y-120650000D03*
X174625000Y-93435000D03*
%TO.N,/PiHat.sch/PI_SPI_MOSI*%
X181610000Y-83185000D03*
X181610000Y-92075000D03*
%TO.N,/PI_SPI_CEO*%
X227330000Y-121920000D03*
X205105000Y-121920000D03*
X170815000Y-90715000D03*
%TD*%
D27*
%TO.N,/5V_non_iso*%
X121920000Y-99695000D02*
X125590300Y-99695000D01*
X116350000Y-99695000D02*
X116205000Y-99550000D01*
X121920000Y-99695000D02*
X116350000Y-99695000D01*
X154940000Y-70975000D02*
X154940000Y-68580000D01*
X154940000Y-68580000D02*
X146765000Y-68580000D01*
X141605000Y-114300000D02*
X141605000Y-111760000D01*
X141605000Y-111760000D02*
X133430000Y-111760000D01*
X133430000Y-111760000D02*
X128905000Y-111760000D01*
X128270000Y-99695000D02*
X125590300Y-99695000D01*
X128270000Y-99695000D02*
X128270000Y-97155000D01*
X128270000Y-97155000D02*
X116205000Y-97155000D01*
X116205000Y-62230000D02*
X146685000Y-62230000D01*
X146685000Y-68500000D02*
X146765000Y-68580000D01*
X154940000Y-68580000D02*
X158115000Y-68580000D01*
X142240000Y-113665000D02*
X141605000Y-114300000D01*
X158115000Y-113665000D02*
X142240000Y-113665000D01*
X148445000Y-62865000D02*
X148590000Y-62720000D01*
X146685000Y-62865000D02*
X148445000Y-62865000D01*
X146685000Y-62865000D02*
X146685000Y-68500000D01*
X146685000Y-62230000D02*
X146685000Y-62865000D01*
%TO.N,/3.3V_rtn*%
X152584150Y-40640000D02*
X147135850Y-40640000D01*
X147135850Y-40640000D02*
X147135850Y-41910000D01*
X136525000Y-40640000D02*
X147135850Y-40640000D01*
X128270000Y-73415000D02*
X128270000Y-76200000D01*
X137715000Y-76200000D02*
X130810000Y-76200000D01*
X130810000Y-76200000D02*
X128270000Y-76200000D01*
X130810000Y-93345000D02*
X137590000Y-93345000D01*
X127635000Y-87630000D02*
X126365000Y-87630000D01*
X126365000Y-85090000D02*
X126365000Y-87630000D01*
X126365000Y-87630000D02*
X126365000Y-90170000D01*
X173590001Y-129560001D02*
X173590001Y-129060001D01*
X215265000Y-20955000D02*
X215265000Y-21590000D01*
X214630000Y-22225000D02*
X208464150Y-22225000D01*
X215265000Y-21590000D02*
X214630000Y-22225000D01*
X215265000Y-20955000D02*
X222250000Y-20955000D01*
X222250000Y-20955000D02*
X222250000Y-14605000D01*
X222250000Y-14605000D02*
X224790000Y-14605000D01*
X116205000Y-119380000D02*
X116205000Y-116205000D01*
X124380000Y-119380000D02*
X116205000Y-119380000D01*
X168170001Y-131980001D02*
X168170001Y-133880001D01*
X168170001Y-133880001D02*
X167640000Y-134410002D01*
X167640000Y-136255000D02*
X167910000Y-136525000D01*
X167640000Y-134410002D02*
X167640000Y-136255000D01*
X221269200Y-65135200D02*
X223520000Y-67386000D01*
X223520000Y-67964400D02*
X221269200Y-70215200D01*
X223520000Y-67386000D02*
X223520000Y-67964400D01*
X221269200Y-82915200D02*
X222809000Y-84455000D01*
X222809000Y-84455000D02*
X222809000Y-89459000D01*
X221732800Y-90535200D02*
X221269200Y-90535200D01*
X222809000Y-89459000D02*
X221732800Y-90535200D01*
X218907200Y-57515200D02*
X209184800Y-57515200D01*
X209184800Y-57515200D02*
X208915000Y-57785000D01*
X218542000Y-74930000D02*
X218907200Y-75295200D01*
X221269200Y-100695200D02*
X222269400Y-99695000D01*
X222269400Y-99695000D02*
X222269400Y-99675600D01*
X222269400Y-99675600D02*
X222885000Y-99060000D01*
X222885000Y-89535000D02*
X222809000Y-89459000D01*
X222885000Y-99060000D02*
X222885000Y-89535000D01*
X218907200Y-75295200D02*
X214360200Y-75295200D01*
X214360200Y-75295200D02*
X213995000Y-74930000D01*
X213995000Y-74930000D02*
X208280000Y-74930000D01*
X218542000Y-95250000D02*
X218907200Y-95615200D01*
X213995000Y-95250000D02*
X218542000Y-95250000D01*
X221269200Y-100695200D02*
X223444000Y-102870000D01*
X223444000Y-102870000D02*
X223444000Y-107239000D01*
X223444000Y-107239000D02*
X223368000Y-107315000D01*
X223368000Y-107315000D02*
X213995000Y-107315000D01*
X221269200Y-70215200D02*
X222809000Y-71755000D01*
X222809000Y-71755000D02*
X222809000Y-84455000D01*
X136525000Y-40640000D02*
X124460000Y-40640000D01*
X128025000Y-73660000D02*
X128270000Y-73415000D01*
X124460000Y-73660000D02*
X128025000Y-73660000D01*
X136525000Y-136310000D02*
X129755000Y-136310000D01*
X129755000Y-136310000D02*
X129540000Y-136525000D01*
X124460000Y-119460000D02*
X124380000Y-119380000D01*
X124460000Y-121285000D02*
X124460000Y-119460000D01*
X139280000Y-139065000D02*
X136525000Y-136310000D01*
X148030000Y-107315000D02*
X144145000Y-107315000D01*
X144145000Y-95250000D02*
X130810000Y-95250000D01*
X130810000Y-95250000D02*
X130810000Y-93345000D01*
X154940000Y-85090000D02*
X154940000Y-86995000D01*
X154940000Y-95250000D02*
X144145000Y-95250000D01*
X208915000Y-22675850D02*
X208464150Y-22225000D01*
X208915000Y-25400000D02*
X208915000Y-22675850D01*
X213995000Y-95250000D02*
X205740000Y-95250000D01*
X213995000Y-107315000D02*
X205740000Y-107315000D01*
X146685000Y-127000000D02*
X144145000Y-127000000D01*
X154940000Y-139065000D02*
X151130000Y-139065000D01*
X151765000Y-139065000D02*
X151130000Y-139065000D01*
X146685000Y-127000000D02*
X146685000Y-128270000D01*
X151130000Y-139065000D02*
X146685000Y-139065000D01*
X146685000Y-139065000D02*
X139280000Y-139065000D01*
X96520000Y-73660000D02*
X124460000Y-73660000D01*
X200660000Y-12700000D02*
X199390000Y-13970000D01*
X198755000Y-25400000D02*
X208915000Y-25400000D01*
X215265000Y-31115000D02*
X217170000Y-31115000D01*
X217170000Y-25400000D02*
X208915000Y-25400000D01*
X118110000Y-27305000D02*
X119380000Y-28575000D01*
X120015000Y-40640000D02*
X124460000Y-40640000D01*
X166645002Y-120615002D02*
X166670001Y-120640001D01*
X173590001Y-129560001D02*
X172699999Y-129560001D01*
X167640000Y-122555000D02*
X168645002Y-121549998D01*
X168645002Y-120665000D02*
X168670001Y-120640001D01*
X168645002Y-121549998D02*
X168645002Y-120665000D01*
X167640000Y-122555000D02*
X167005000Y-121920000D01*
X166670001Y-121610003D02*
X166670001Y-120640001D01*
X166979998Y-121920000D02*
X166670001Y-121610003D01*
X167005000Y-121920000D02*
X166979998Y-121920000D01*
X173600002Y-129050000D02*
X173590001Y-129060001D01*
X178435000Y-129050000D02*
X173600002Y-129050000D01*
X165670001Y-131980001D02*
X165670001Y-134684999D01*
X165670001Y-134684999D02*
X164465000Y-135890000D01*
X168275000Y-133985000D02*
X168170001Y-133880001D01*
X169445001Y-133985000D02*
X168275000Y-133985000D01*
X164116999Y-125004999D02*
X165009999Y-125004999D01*
X165009999Y-125004999D02*
X165735000Y-125730000D01*
X162250001Y-125560001D02*
X163561997Y-125560001D01*
X163561997Y-125560001D02*
X164116999Y-125004999D01*
X165670001Y-125794999D02*
X165735000Y-125730000D01*
X165670001Y-131980001D02*
X165670001Y-125794999D01*
X206230000Y-129050000D02*
X206375000Y-128905000D01*
X178435000Y-129050000D02*
X206230000Y-129050000D01*
X168170001Y-130995001D02*
X167640000Y-130465000D01*
X168170001Y-131980001D02*
X168170001Y-130995001D01*
X167640000Y-130465000D02*
X167640000Y-130175000D01*
X168254999Y-129560001D02*
X173590001Y-129560001D01*
X167640000Y-130175000D02*
X168254999Y-129560001D01*
X172085000Y-128540000D02*
X172085000Y-128270000D01*
X173590001Y-129060001D02*
X172605001Y-129060001D01*
X172605001Y-129060001D02*
X172085000Y-128540000D01*
X171735001Y-126560001D02*
X173590001Y-126560001D01*
X171450000Y-126275000D02*
X171735001Y-126560001D01*
X223368000Y-107315000D02*
X240465000Y-107315000D01*
X250040000Y-116890000D02*
X254850000Y-116890000D01*
X240465000Y-107315000D02*
X250040000Y-116890000D01*
%TO.N,Net-(C2-Pad1)*%
X150495000Y-122700000D02*
X150495000Y-124705000D01*
X146930000Y-124705000D02*
X146685000Y-124950000D01*
X150495000Y-124705000D02*
X146930000Y-124705000D01*
%TO.N,/24V_rtn*%
X121920000Y-101745000D02*
X121920000Y-102235000D01*
X121920000Y-102235000D02*
X125590300Y-102235000D01*
X125590300Y-100965000D02*
X125590300Y-102235000D01*
X125590300Y-100965000D02*
X130949700Y-100965000D01*
X130949700Y-100965000D02*
X130949700Y-102235000D01*
X133985000Y-102235000D02*
X134620000Y-101600000D01*
X130949700Y-102235000D02*
X133985000Y-102235000D01*
X116205000Y-106825000D02*
X121775000Y-106825000D01*
X121920000Y-106680000D02*
X121920000Y-101745000D01*
X121775000Y-106825000D02*
X121920000Y-106680000D01*
X154940000Y-76200000D02*
X146765000Y-76200000D01*
X141605000Y-116350000D02*
X141605000Y-119380000D01*
X141605000Y-119380000D02*
X133430000Y-119380000D01*
X122555000Y-107315000D02*
X121920000Y-106680000D01*
X134620000Y-101600000D02*
X166370000Y-101600000D01*
X166370000Y-63500000D02*
X166370000Y-63500000D01*
X166370000Y-74930000D02*
X166370000Y-74930000D01*
X154940000Y-73025000D02*
X154940000Y-74930000D01*
X154940000Y-74930000D02*
X154940000Y-76200000D01*
X141605000Y-116350000D02*
X139845000Y-116350000D01*
X139845000Y-116350000D02*
X138430000Y-114935000D01*
X138430000Y-108585000D02*
X138430000Y-107315000D01*
X141530000Y-107315000D02*
X138430000Y-107315000D01*
X138430000Y-107315000D02*
X122555000Y-107315000D01*
X203015850Y-22225000D02*
X183515000Y-22225000D01*
X166370000Y-74930000D02*
X154940000Y-74930000D01*
X166370000Y-63500000D02*
X161925000Y-63500000D01*
X153035000Y-64922400D02*
X153035000Y-65405000D01*
X153035000Y-65405000D02*
X152400000Y-66040000D01*
X152400000Y-72390000D02*
X153035000Y-73025000D01*
X153035000Y-73025000D02*
X154940000Y-73025000D01*
X188595000Y-26670000D02*
X187960000Y-26035000D01*
X187960000Y-26035000D02*
X183515000Y-26035000D01*
X183515000Y-26670000D02*
X183515000Y-26035000D01*
X183515000Y-26035000D02*
X183515000Y-22225000D01*
%TO.N,/24V*%
X134475000Y-99695000D02*
X134620000Y-99550000D01*
X130949700Y-99695000D02*
X134475000Y-99695000D01*
X134620000Y-99550000D02*
X164955000Y-99550000D01*
X164955000Y-99550000D02*
X165100000Y-99695000D01*
X174625000Y-26670000D02*
X176385000Y-26670000D01*
%TO.N,/3.3V*%
X156455000Y-41910000D02*
X156845000Y-42300000D01*
X152584150Y-41910000D02*
X156455000Y-41910000D01*
X152584150Y-43180000D02*
X152584150Y-41910000D01*
X215265000Y-18905000D02*
X214485000Y-18905000D01*
X213995000Y-18415000D02*
X208464150Y-18415000D01*
X214485000Y-18905000D02*
X213995000Y-18415000D01*
X210965000Y-12555000D02*
X210820000Y-12700000D01*
X213995000Y-12555000D02*
X210965000Y-12555000D01*
X224300000Y-12555000D02*
X224790000Y-12065000D01*
X215755000Y-12555000D02*
X215755000Y-18415000D01*
X215755000Y-18415000D02*
X215265000Y-18905000D01*
X215755000Y-12555000D02*
X224300000Y-12555000D01*
X213995000Y-12555000D02*
X215755000Y-12555000D01*
X156845000Y-42300000D02*
X157090000Y-42300000D01*
X157090000Y-42300000D02*
X158115000Y-41275000D01*
X215410000Y-19050000D02*
X215265000Y-18905000D01*
X219075000Y-19050000D02*
X215410000Y-19050000D01*
X152400000Y-120650000D02*
X150495000Y-120650000D01*
X150495000Y-120650000D02*
X150495000Y-120015000D01*
X163830000Y-42545000D02*
X163830000Y-41275000D01*
X158115000Y-41275000D02*
X163830000Y-41275000D01*
X163830000Y-41275000D02*
X219075000Y-41275000D01*
X160629998Y-125730000D02*
X152400000Y-125730000D01*
X160959999Y-126060001D02*
X160629998Y-125730000D01*
X162250001Y-126060001D02*
X160959999Y-126060001D01*
X166194992Y-120190008D02*
X166194992Y-118569992D01*
X166170001Y-120214999D02*
X166194992Y-120190008D01*
X165100000Y-117475000D02*
X163830000Y-117475000D01*
X166194992Y-118569992D02*
X165100000Y-117475000D01*
X210820000Y-12700000D02*
X207645000Y-12700000D01*
X166170001Y-120640001D02*
X166170001Y-120214999D01*
X172659999Y-127060001D02*
X173590001Y-127060001D01*
X169170001Y-122180001D02*
X169170001Y-120640001D01*
X169545000Y-122555000D02*
X169170001Y-122180001D01*
X178290000Y-126855000D02*
X178435000Y-127000000D01*
X175608002Y-127060001D02*
X173590001Y-127060001D01*
X175668003Y-127000000D02*
X175608002Y-127060001D01*
X178435000Y-127000000D02*
X175668003Y-127000000D01*
X164820096Y-130645096D02*
X164509184Y-130645096D01*
X165170001Y-131980001D02*
X165170001Y-130995001D01*
X165170001Y-130995001D02*
X164820096Y-130645096D01*
X168670001Y-131980001D02*
X168670001Y-130866214D01*
X168670001Y-130866214D02*
X168872906Y-130663309D01*
X164134999Y-126060001D02*
X164465000Y-125730000D01*
X162250001Y-126060001D02*
X164134999Y-126060001D01*
X171510001Y-127060001D02*
X173590001Y-127060001D01*
X171450000Y-127000000D02*
X171510001Y-127060001D01*
X171450000Y-127000000D02*
X170180000Y-127000000D01*
X169545000Y-122555000D02*
X168910000Y-122555000D01*
X168910000Y-122555000D02*
X167640000Y-123825000D01*
X167640000Y-123825000D02*
X166145002Y-122330002D01*
X166145002Y-120665000D02*
X166170001Y-120640001D01*
X166145002Y-122330002D02*
X166145002Y-120665000D01*
X254850000Y-114350000D02*
X254850000Y-89950000D01*
X254850000Y-89950000D02*
X257750000Y-87050000D01*
X257750000Y-87050000D02*
X257750000Y-41600000D01*
X257425000Y-41275000D02*
X219075000Y-41275000D01*
X257750000Y-41600000D02*
X257425000Y-41275000D01*
%TO.N,/5V*%
X143510000Y-39370000D02*
X147135850Y-39370000D01*
X143510000Y-43180000D02*
X147135850Y-43180000D01*
X128270000Y-71365000D02*
X128270000Y-68580000D01*
X147035000Y-83040000D02*
X146890000Y-83185000D01*
X116205000Y-111760000D02*
X116205000Y-114155000D01*
X124380000Y-111760000D02*
X116205000Y-111760000D01*
X151910000Y-83040000D02*
X151910000Y-84455000D01*
X151910000Y-83040000D02*
X147035000Y-83040000D01*
X154940000Y-83040000D02*
X151910000Y-83040000D01*
D28*
X221269200Y-105775200D02*
X221269200Y-103235200D01*
X150495000Y-55245000D02*
X150495000Y-55245000D01*
D27*
X137715000Y-68580000D02*
X128270000Y-68580000D01*
X128270000Y-43180000D02*
X143510000Y-43180000D01*
X115715000Y-113665000D02*
X116205000Y-114155000D01*
X112395000Y-113665000D02*
X115715000Y-113665000D01*
X153035000Y-104140000D02*
X153035000Y-106045000D01*
X169910000Y-137475000D02*
X169910000Y-139970000D01*
X169910000Y-139970000D02*
X168275000Y-141605000D01*
X168275000Y-141605000D02*
X112395000Y-141605000D01*
X146890000Y-83185000D02*
X146890000Y-82120000D01*
X146890000Y-82120000D02*
X146050000Y-81280000D01*
X153035000Y-85580000D02*
X151910000Y-84455000D01*
X153035000Y-86995000D02*
X153035000Y-85580000D01*
D28*
X150495000Y-55245000D02*
X213995000Y-118745000D01*
X213995000Y-118745000D02*
X213995000Y-118745000D01*
X213995000Y-118745000D02*
X219710000Y-118745000D01*
X219710000Y-118745000D02*
X224155000Y-114300000D01*
D27*
X118110000Y-20320000D02*
X118110000Y-19050000D01*
%TO.N,Net-(C13-Pad2)*%
X155965000Y-39370000D02*
X156845000Y-40250000D01*
X152584150Y-39370000D02*
X155965000Y-39370000D01*
%TO.N,Net-(C16-Pad2)*%
X120810000Y-83040000D02*
X120650000Y-82880000D01*
X126365000Y-83040000D02*
X120810000Y-83040000D01*
X134130000Y-90805000D02*
X137590000Y-90805000D01*
X126365000Y-83040000D02*
X134130000Y-90805000D01*
%TO.N,Net-(C17-Pad2)*%
X120810000Y-92220000D02*
X120650000Y-92380000D01*
X126365000Y-92220000D02*
X120810000Y-92220000D01*
X137445000Y-92220000D02*
X137590000Y-92075000D01*
X126365000Y-92220000D02*
X137445000Y-92220000D01*
%TO.N,Net-(D1-Pad2)*%
X205595000Y-12700000D02*
X202717400Y-12700000D01*
%TO.N,Net-(D2-Pad2)*%
X212090000Y-31115000D02*
X213360000Y-31115000D01*
X213360000Y-30962600D02*
X215265000Y-29057600D01*
X213360000Y-31115000D02*
X213360000Y-30962600D01*
%TO.N,Net-(D3-Pad2)*%
X178435000Y-26670000D02*
X181457600Y-26670000D01*
%TO.N,Net-(D4-Pad2)*%
X193675000Y-26670000D02*
X190652400Y-26670000D01*
%TO.N,Net-(D5-Pad2)*%
X148590000Y-64770000D02*
X149860000Y-64770000D01*
X149860000Y-64770000D02*
X151765000Y-62865000D01*
X151765000Y-62865000D02*
X153035000Y-62865000D01*
%TO.N,Net-(D6-Pad2)*%
X118110000Y-22370000D02*
X118110000Y-25247600D01*
%TO.N,/BP_CAN-*%
X146765000Y-73660000D02*
X152400000Y-73660000D01*
X152400000Y-78105000D02*
X161290000Y-78105000D01*
X138430000Y-116840000D02*
X133430000Y-116840000D01*
X152400000Y-78105000D02*
X140970000Y-78105000D01*
X245745000Y-38100000D02*
X160655000Y-38100000D01*
X245745000Y-73660000D02*
X254259080Y-73660000D01*
%TO.N,/BP_CAN+*%
X146765000Y-71120000D02*
X150495000Y-71120000D01*
X136525000Y-114300000D02*
X133430000Y-114300000D01*
X154550000Y-80645000D02*
X150495000Y-80645000D01*
X150495000Y-80645000D02*
X147320000Y-80645000D01*
X147320000Y-80645000D02*
X146685000Y-80010000D01*
X146685000Y-80010000D02*
X136525000Y-80010000D01*
X247015000Y-36830000D02*
X159385000Y-36830000D01*
X159385000Y-67310000D02*
X150495000Y-67310000D01*
X247015000Y-76200000D02*
X254259080Y-76200000D01*
%TO.N,/GLV_SCL*%
X193040000Y-13335000D02*
X197485000Y-17780000D01*
X197485000Y-20955000D02*
X203015850Y-20955000D01*
X193040000Y-13335000D02*
X186055000Y-13335000D01*
X96520000Y-68580000D02*
X103505000Y-68580000D01*
X103505000Y-8890000D02*
X186055000Y-8890000D01*
%TO.N,/GLV_SDA*%
X195190000Y-19685000D02*
X203015850Y-19685000D01*
X193040000Y-17535000D02*
X195190000Y-19685000D01*
X96520000Y-71120000D02*
X100330000Y-71120000D01*
X100330000Y-7620000D02*
X189865000Y-7620000D01*
X189865000Y-17290000D02*
X190110000Y-17535000D01*
X189865000Y-15875000D02*
X189865000Y-17290000D01*
X193040000Y-17535000D02*
X190110000Y-17535000D01*
X190110000Y-17535000D02*
X186055000Y-17535000D01*
%TO.N,/Safety_Loop*%
X96520000Y-76200000D02*
X111125000Y-76200000D01*
X111125000Y-109220000D02*
X133985000Y-109220000D01*
X133985000Y-106045000D02*
X136380000Y-106045000D01*
%TO.N,/Cooling_CTRL*%
X96520000Y-78740000D02*
X109220000Y-78740000D01*
X109220000Y-122555000D02*
X145415000Y-122555000D01*
X145415000Y-118745000D02*
X160110000Y-118745000D01*
X161025001Y-123560001D02*
X160655000Y-123190000D01*
X162250001Y-123560001D02*
X161025001Y-123560001D01*
%TO.N,/Throttle_SEL*%
X96520000Y-81280000D02*
X107315000Y-81280000D01*
X107315000Y-133985000D02*
X158115000Y-133985000D01*
X158115000Y-133985000D02*
X158115000Y-138430000D01*
X158115000Y-138430000D02*
X166370000Y-138430000D01*
X166170001Y-133150001D02*
X166170001Y-131980001D01*
X166370000Y-133350000D02*
X166170001Y-133150001D01*
X166370000Y-138430000D02*
X166370000Y-133350000D01*
%TO.N,/PC_ready*%
X233680000Y-133350000D02*
X201930000Y-133350000D01*
X173595002Y-122555000D02*
X173590001Y-122560001D01*
X201295000Y-122555000D02*
X173595002Y-122555000D01*
X233680000Y-81280000D02*
X254259080Y-81280000D01*
X173590001Y-125060001D02*
X172685001Y-125060001D01*
X172685001Y-125060001D02*
X172085000Y-124460000D01*
X172605001Y-122560001D02*
X173590001Y-122560001D01*
X172085000Y-123080002D02*
X172605001Y-122560001D01*
X172085000Y-124460000D02*
X172085000Y-123080002D01*
%TO.N,/RTDS_CTRL*%
X231775000Y-130175000D02*
X198755000Y-130175000D01*
X196215000Y-118110000D02*
X167640000Y-118110000D01*
X167640000Y-118110000D02*
X167145002Y-118604998D01*
X167145002Y-118604998D02*
X167145002Y-120615002D01*
X231775000Y-78740000D02*
X254259080Y-78740000D01*
X167145002Y-120615002D02*
X167170001Y-120640001D01*
%TO.N,/SR_CTRL*%
X244475000Y-39370000D02*
X200660000Y-39370000D01*
X218637400Y-67945000D02*
X218907200Y-67675200D01*
X200660000Y-67945000D02*
X218637400Y-67945000D01*
X244475000Y-71120000D02*
X254259080Y-71120000D01*
%TO.N,Net-(J6-Pad1)*%
X228524000Y-69850000D02*
X221269200Y-62595200D01*
X240665000Y-69850000D02*
X228524000Y-69850000D01*
%TO.N,Net-(J6-Pad2)*%
X228524000Y-67310000D02*
X221269200Y-60055200D01*
X240665000Y-67310000D02*
X228524000Y-67310000D01*
%TO.N,Net-(J6-Pad3)*%
X228524000Y-64770000D02*
X221269200Y-57515200D01*
X240665000Y-64770000D02*
X228524000Y-64770000D01*
%TO.N,Net-(J6-Pad4)*%
X240665000Y-62230000D02*
X229870000Y-62230000D01*
X229870000Y-62230000D02*
X224790000Y-57150000D01*
X218907200Y-60055200D02*
X216265200Y-60055200D01*
X216265200Y-60055200D02*
X215900000Y-59690000D01*
X215900000Y-47625000D02*
X224790000Y-47625000D01*
X224790000Y-47625000D02*
X224790000Y-57150000D01*
%TO.N,Net-(J6-Pad5)*%
X240665000Y-59690000D02*
X231140000Y-59690000D01*
X231140000Y-59690000D02*
X227330000Y-55880000D01*
X218637400Y-62865000D02*
X218907200Y-62595200D01*
X214630000Y-62865000D02*
X218637400Y-62865000D01*
X227330000Y-55880000D02*
X226060000Y-54610000D01*
X226060000Y-54610000D02*
X226060000Y-46355000D01*
X226060000Y-46355000D02*
X215265000Y-46355000D01*
X215265000Y-46355000D02*
X214630000Y-46355000D01*
%TO.N,Net-(J6-Pad6)*%
X240665000Y-57150000D02*
X232410000Y-57150000D01*
X232410000Y-57150000D02*
X229870000Y-54610000D01*
X229870000Y-54610000D02*
X227330000Y-52070000D01*
X227330000Y-52070000D02*
X227330000Y-45085000D01*
X227330000Y-45085000D02*
X213360000Y-45085000D01*
X218637400Y-65405000D02*
X218907200Y-65135200D01*
X213360000Y-65405000D02*
X218637400Y-65405000D01*
%TO.N,Net-(J6-Pad7)*%
X240665000Y-54610000D02*
X233680000Y-54610000D01*
X233680000Y-54610000D02*
X233045000Y-54610000D01*
X233045000Y-54610000D02*
X229235000Y-50800000D01*
X229235000Y-50800000D02*
X229235000Y-46353590D01*
X229235000Y-46353590D02*
X229235000Y-43815000D01*
X229235000Y-43815000D02*
X212090000Y-43815000D01*
X218637400Y-70485000D02*
X218907200Y-70215200D01*
X212090000Y-70485000D02*
X218637400Y-70485000D01*
%TO.N,Net-(J6-Pad8)*%
X240665000Y-52070000D02*
X235585000Y-52070000D01*
X235585000Y-52070000D02*
X233045000Y-52070000D01*
X233045000Y-52070000D02*
X230505000Y-49530000D01*
X230505000Y-49530000D02*
X230505000Y-42545000D01*
X230505000Y-42545000D02*
X210185000Y-42545000D01*
X218542000Y-72390000D02*
X218907200Y-72755200D01*
X210185000Y-72390000D02*
X218542000Y-72390000D01*
%TO.N,/~MCLR~*%
X150689999Y-126560001D02*
X150495000Y-126755000D01*
X162250001Y-126560001D02*
X150689999Y-126560001D01*
X149225000Y-128025000D02*
X150495000Y-126755000D01*
X149225000Y-128905000D02*
X149225000Y-128025000D01*
%TO.N,/PGEC*%
X156845000Y-139065000D02*
X156845000Y-135890000D01*
X162230000Y-129540000D02*
X162250001Y-129560001D01*
X156845000Y-129540000D02*
X162230000Y-129540000D01*
%TO.N,/PGED*%
X159385000Y-136525000D02*
X159385000Y-133350000D01*
X162045002Y-130265000D02*
X162250001Y-130060001D01*
X159385000Y-130265000D02*
X162045002Y-130265000D01*
%TO.N,Net-(J9-Pad1)*%
X160655000Y-81280000D02*
X161290000Y-80645000D01*
X156600000Y-80645000D02*
X161290000Y-80645000D01*
%TO.N,/SDA_iso*%
X208464150Y-19685000D02*
X210185000Y-19685000D01*
X210185000Y-15385000D02*
X210820000Y-14750000D01*
X210185000Y-16510000D02*
X210185000Y-15385000D01*
X210275000Y-22860000D02*
X210185000Y-22950000D01*
X156935001Y-125185001D02*
X156210000Y-124460000D01*
X157828001Y-125185001D02*
X156935001Y-125185001D01*
X162250001Y-125060001D02*
X157953001Y-125060001D01*
X157953001Y-125060001D02*
X157828001Y-125185001D01*
X155575000Y-115570000D02*
X176530000Y-115570000D01*
X215900000Y-125095000D02*
X182880000Y-125095000D01*
X182880000Y-115570000D02*
X176530000Y-115570000D01*
X210185000Y-29210000D02*
X204470000Y-29210000D01*
X204470000Y-29210000D02*
X201930000Y-29210000D01*
X201930000Y-103505000D02*
X215990000Y-103505000D01*
X211945000Y-29210000D02*
X212090000Y-29065000D01*
X210185000Y-29210000D02*
X211945000Y-29210000D01*
X210220000Y-19650000D02*
X210185000Y-19685000D01*
X212700000Y-19650000D02*
X210220000Y-19650000D01*
%TO.N,/SCL_iso*%
X208464150Y-20955000D02*
X211455000Y-20955000D01*
X211455000Y-16510000D02*
X213995000Y-16510000D01*
X213995000Y-16510000D02*
X213995000Y-14605000D01*
X231140000Y-24130000D02*
X211455000Y-24130000D01*
X162250001Y-124560001D02*
X157580001Y-124560001D01*
X157580001Y-124560001D02*
X157480000Y-124460000D01*
X157879999Y-116440001D02*
X176130001Y-116440001D01*
X157480000Y-116840000D02*
X157879999Y-116440001D01*
X215175000Y-123825000D02*
X193675000Y-123825000D01*
X193675000Y-123825000D02*
X184785000Y-123825000D01*
X176530000Y-116840000D02*
X176130001Y-116440001D01*
X184785000Y-116840000D02*
X176530000Y-116840000D01*
X211455000Y-27305000D02*
X206376410Y-27305000D01*
X206376410Y-27305000D02*
X206190010Y-27305000D01*
X206190010Y-27305000D02*
X205740000Y-27305000D01*
X205740000Y-27305000D02*
X203835000Y-27305000D01*
X203200000Y-100330000D02*
X215265000Y-100330000D01*
%TO.N,/3.3V_non_iso*%
X116205000Y-101600000D02*
X116205000Y-104775000D01*
X116205000Y-101600000D02*
X114300000Y-101600000D01*
X200025000Y-18415000D02*
X203015850Y-18415000D01*
X195725000Y-26670000D02*
X196850000Y-26670000D01*
X196850000Y-26670000D02*
X196850000Y-29845000D01*
X114300000Y-29845000D02*
X196850000Y-29845000D01*
X196850000Y-29845000D02*
X200025000Y-29845000D01*
%TO.N,Net-(R10-Pad2)*%
X149860000Y-84455000D02*
X146890000Y-84455000D01*
%TO.N,Net-(R11-Pad2)*%
X138430000Y-106045000D02*
X141530000Y-106045000D01*
%TO.N,/Safety_Loop_iso*%
X150985000Y-106045000D02*
X148030000Y-106045000D01*
X150985000Y-106045000D02*
X150985000Y-107805000D01*
X150985000Y-107805000D02*
X151765000Y-108585000D01*
X151765000Y-108585000D02*
X159385000Y-108585000D01*
X159620001Y-124060001D02*
X162250001Y-124060001D01*
X159385000Y-123825000D02*
X159620001Y-124060001D01*
X224790000Y-88265000D02*
X229235000Y-88265000D01*
X229235000Y-127635000D02*
X196215000Y-127635000D01*
X160655000Y-107315000D02*
X159385000Y-108585000D01*
X182880000Y-107315000D02*
X160655000Y-107315000D01*
%TO.N,Net-(U2-Pad3)*%
X137715000Y-73660000D02*
X132715000Y-73660000D01*
X132715000Y-83185000D02*
X137590000Y-83185000D01*
%TO.N,Net-(U2-Pad2)*%
X137715000Y-71120000D02*
X134620000Y-71120000D01*
X134620000Y-84455000D02*
X137590000Y-84455000D01*
%TO.N,Net-(U3-Pad41)*%
X124380000Y-116840000D02*
X120650000Y-116840000D01*
X120650000Y-144145000D02*
X175260000Y-144145000D01*
X174985000Y-126060001D02*
X173590001Y-126060001D01*
X175260000Y-126335001D02*
X174985000Y-126060001D01*
%TO.N,Net-(U3-Pad42)*%
X124380000Y-114300000D02*
X121920000Y-114300000D01*
X121920000Y-142875000D02*
X176530000Y-142875000D01*
X174794999Y-125560001D02*
X173590001Y-125560001D01*
X176530000Y-123825000D02*
X174794999Y-125560001D01*
%TO.N,/PiHat.sch/PI_SPI_SCLK*%
X218907200Y-77835200D02*
X178704800Y-77835200D01*
X178704800Y-77835200D02*
X178435000Y-78105000D01*
X147955000Y-89535000D02*
X146890000Y-89535000D01*
X177800000Y-92710000D02*
X151130000Y-92710000D01*
X151130000Y-92710000D02*
X147955000Y-89535000D01*
%TO.N,/PiHat.sch/PI_SPI_MISO*%
X147955000Y-86995000D02*
X152400000Y-91440000D01*
X146890000Y-86995000D02*
X147955000Y-86995000D01*
X152400000Y-91440000D02*
X175895000Y-91440000D01*
X175895000Y-91440000D02*
X176530000Y-91440000D01*
X178165200Y-80375200D02*
X177165000Y-79375000D01*
X218907200Y-80375200D02*
X178165200Y-80375200D01*
%TO.N,/GPIO25*%
X146890000Y-90805000D02*
X147955000Y-90805000D01*
X147955000Y-90805000D02*
X150495000Y-93345000D01*
X220345000Y-120650000D02*
X206547575Y-120650000D01*
X226060000Y-120650000D02*
X220345000Y-120650000D01*
X206547575Y-120650000D02*
X202565000Y-120650000D01*
X150495000Y-93345000D02*
X174535000Y-93345000D01*
X174535000Y-93345000D02*
X174625000Y-93435000D01*
%TO.N,/PiHat.sch/PI_SPI_MOSI*%
X218907200Y-82915200D02*
X181879800Y-82915200D01*
X181879800Y-82915200D02*
X181610000Y-83185000D01*
X181519999Y-91984999D02*
X181610000Y-92075000D01*
X176181999Y-92165001D02*
X177271997Y-92165001D01*
X176091998Y-92075000D02*
X176181999Y-92165001D01*
X151765000Y-92075000D02*
X176091998Y-92075000D01*
X177451999Y-91984999D02*
X181519999Y-91984999D01*
X147955000Y-88265000D02*
X151765000Y-92075000D01*
X177271997Y-92165001D02*
X177451999Y-91984999D01*
X146890000Y-88265000D02*
X147955000Y-88265000D01*
%TO.N,/PI_SPI_CEO*%
X146890000Y-85725000D02*
X147955000Y-85725000D01*
X147955000Y-85725000D02*
X153035000Y-90805000D01*
X227330000Y-121920000D02*
X205105000Y-121920000D01*
X153035000Y-90805000D02*
X170725000Y-90805000D01*
X170725000Y-90805000D02*
X170815000Y-90715000D01*
%TO.N,Net-(U3-Pad29)*%
X170170001Y-135314999D02*
X170170001Y-131980001D01*
X169910000Y-135575000D02*
X170170001Y-135314999D01*
%TD*%
M02*
