M48
; DRILL file {KiCad (5.1.6)-1} date 02/09/21 18:52:48
; FORMAT={-:-/ absolute / inch / decimal}
; #@! TF.CreationDate,2021-02-09T18:52:48-05:00
; #@! TF.GenerationSoftware,Kicad,Pcbnew,(5.1.6)-1
; #@! TF.FileFunction,Plated,1,2,PTH
FMAT,2
INCH
T1C0.0157
T2C0.0315
T3C0.0394
T4C0.0551
T5C0.0591
T6C0.1181
%
G90
G05
T1
X3.95Y-0.3
X3.95Y-2.8
X4.075Y-0.35
X4.075Y-2.7
X4.225Y-3.2
X4.225Y-5.275
X4.3Y-3.1
X4.3Y-4.825
X4.375Y-3.0
X4.375Y-4.3
X4.425Y-2.8
X4.425Y-4.475
X4.425Y-5.575
X4.5Y-1.175
X4.5Y-4.0
X4.575Y-2.45
X4.575Y-3.825
X4.65Y-0.75
X4.7Y-1.125
X4.725Y-1.6
X4.75Y-4.6
X4.75Y-5.675
X4.8Y-4.5
X4.8Y-5.625
X4.9Y-1.6
X4.9Y-2.9
X4.9Y-4.775
X5.025Y-3.45
X5.05Y-1.7
X5.05Y-2.7
X5.05Y-3.925
X5.075Y-4.4
X5.1Y-5.375
X5.15Y-3.0
X5.15Y-3.675
X5.225Y-2.9
X5.225Y-3.275
X5.275Y-4.175
X5.275Y-4.3
X5.3Y-2.8
X5.3Y-3.325
X5.375Y-1.6
X5.375Y-3.15
X5.375Y-4.5
X5.45Y-4.275
X5.45Y-4.525
X5.45Y-4.6
X5.55Y-3.075
X5.65Y-1.55
X5.65Y-1.7
X5.675Y-3.75
X5.675Y-4.225
X5.675Y-5.0
X5.725Y-4.675
X5.725Y-4.825
X5.75Y-3.2
X5.775Y-5.05
X5.775Y-5.475
X5.875Y-5.075
X5.925Y-2.175
X5.925Y-2.65
X5.925Y-2.8
X5.925Y-3.175
X6.0Y-2.6
X6.0Y-2.85
X6.0Y-2.9
X6.0Y-3.075
X6.0Y-4.75
X6.0Y-4.95
X6.025Y-3.425
X6.025Y-4.1
X6.1Y-3.425
X6.1Y-3.75
X6.1Y-5.475
X6.125Y-4.55
X6.15Y-4.9
X6.175Y-5.1
X6.175Y-5.35
X6.175Y-5.475
X6.2Y-4.6
X6.2Y-4.9
X6.225Y-2.7
X6.225Y-4.475
X6.275Y-1.45
X6.275Y-2.65
X6.275Y-4.275
X6.275Y-4.875
X6.275Y-5.1285
X6.275Y-5.25
X6.275Y-5.375
X6.3035Y-4.675
X6.325Y-1.5
X6.325Y-4.85
X6.375Y-2.5
X6.45Y-1.675
X6.45Y-4.625
X6.475Y-4.95
X6.475Y-5.35
X6.4767Y-5.1435
X6.5Y-3.925
X6.525Y-4.95
X6.55Y-2.5
X6.55Y-2.95
X6.55Y-4.0
X6.6Y-4.825
X6.6485Y-5.1442
X6.6711Y-5.275
X6.675Y-4.825
X6.7Y-5.0
X6.725Y-3.5715
X6.75Y-4.9715
X6.775Y-5.05
X6.875Y-1.05
X6.875Y-3.6785
X6.9Y-4.9738
X6.9Y-5.675
X6.95Y-3.6
X6.95Y-4.875
X6.95Y-5.625
X6.975Y-3.125
X7.0Y-3.65
X7.025Y-3.075
X7.15Y-3.275
X7.15Y-3.625
X7.2Y-4.225
X7.2Y-4.55
X7.2Y-4.925
X7.225Y-0.875
X7.275Y-4.6
X7.275Y-4.875
X7.325Y-0.35
X7.475Y-0.3
X7.475Y-0.625
X7.725Y-4.65
X7.725Y-5.025
X7.775Y-0.7
X7.775Y-0.825
X7.825Y-1.0
X7.825Y-5.125
X7.85Y-0.55
X7.875Y-0.725
X7.875Y-1.175
X7.9Y-1.55
X7.9Y-2.675
X7.925Y-4.825
X7.95Y-1.15
X7.95Y-4.075
X7.95Y-5.25
X7.975Y-4.75
X8.0Y-3.95
X8.025Y-1.075
X8.075Y-4.8
X8.1Y-3.75
X8.1Y-4.225
X8.125Y-5.075
X8.2Y-2.95
X8.225Y-1.0
X8.225Y-2.275
X8.275Y-0.65
X8.275Y-0.775
X8.275Y-0.9035
X8.275Y-1.15
X8.275Y-1.675
X8.275Y-2.85
X8.325Y-0.65
X8.325Y-0.825
X8.325Y-0.95
X8.325Y-1.075
X8.35Y-1.725
X8.35Y-2.775
X8.374Y-0.7736
X8.4Y-1.775
X8.4Y-2.575
X8.45Y-1.825
X8.45Y-2.475
X8.4715Y-4.875
X8.475Y-3.95
X8.5Y-1.875
X8.5Y-2.35
X8.5Y-4.925
X8.5035Y-4.075
X8.55Y-1.0
X8.55Y-1.225
X8.625Y-0.75
X8.625Y-1.625
X8.825Y-4.5
X8.85Y-3.475
X8.9Y-4.75
X8.95Y-4.8
X9.025Y-3.475
X9.025Y-5.025
X9.1Y-0.95
X9.125Y-3.1
X9.125Y-5.125
X9.2Y-3.2
X9.2Y-5.25
X9.625Y-1.55
X9.625Y-2.8
X9.675Y-1.5
X9.675Y-2.9
X9.725Y-1.45
X9.725Y-3.0
T2
X8.6184Y-2.2644
X8.6184Y-2.3644
X8.6184Y-2.4644
X8.6184Y-2.5644
X8.6184Y-2.6644
X8.6184Y-2.7644
X8.6184Y-2.8644
X8.6184Y-2.9644
X8.6184Y-3.0644
X8.6184Y-3.1644
X8.6184Y-3.2644
X8.6184Y-3.3644
X8.6184Y-3.4644
X8.6184Y-3.5644
X8.6184Y-3.6644
X8.6184Y-3.7644
X8.6184Y-3.8644
X8.6184Y-3.9644
X8.6184Y-4.0644
X8.6184Y-4.1644
X8.7114Y-2.2644
X8.7114Y-2.3644
X8.7114Y-2.4644
X8.7114Y-2.5644
X8.7114Y-2.6644
X8.7114Y-2.7644
X8.7114Y-2.8644
X8.7114Y-2.9644
X8.7114Y-3.0644
X8.7114Y-3.1644
X8.7114Y-3.2644
X8.7114Y-3.3644
X8.7114Y-3.4644
X8.7114Y-3.5644
X8.7114Y-3.6644
X8.7114Y-3.7644
X8.7114Y-3.8644
X8.7114Y-3.9644
X8.7114Y-4.0644
X8.7114Y-4.1644
T3
X8.85Y-0.475
X8.85Y-0.575
X8.85Y-0.675
X8.85Y-0.775
X8.85Y-0.875
X6.35Y-3.075
X6.35Y-3.175
X9.475Y-2.05
X9.475Y-2.15
X9.475Y-2.25
X9.475Y-2.35
X9.475Y-2.45
X9.475Y-2.55
X9.475Y-2.65
X9.475Y-2.75
X3.8Y-2.7
X3.8Y-2.8
X3.8Y-2.9
X3.8Y-3.0
X3.8Y-3.1
X3.8Y-3.2
X9.5197Y-0.5748
X9.5197Y-0.6748
X10.0335Y-4.502
X10.0335Y-4.602
X10.0335Y-4.702
X10.0335Y-4.802
X5.875Y-5.775
X5.975Y-5.775
X6.075Y-5.775
X6.175Y-5.775
X6.275Y-5.775
X6.375Y-5.775
X10.0102Y-2.7
X10.0102Y-2.8
X10.0102Y-2.9
X10.0102Y-3.0
X10.0102Y-3.1
X10.0102Y-3.2
T4
X5.375Y-5.15
X5.375Y-5.3665
X5.5404Y-5.15
X5.5404Y-5.3665
X7.1085Y-0.525
X7.1085Y-0.6904
X7.325Y-0.525
X7.325Y-0.6904
T5
X5.375Y-0.5
X5.375Y-0.9
X5.375Y-1.3
X6.175Y-0.8
X6.175Y-1.0
X6.175Y-1.3
T6
X6.7341Y-2.0773
X6.7341Y-4.3608
X8.6633Y-2.0773
X8.6633Y-4.3608
T0
M30
