%TF.GenerationSoftware,KiCad,Pcbnew,(5.1.6)-1*%
%TF.CreationDate,2021-02-04T22:49:39-05:00*%
%TF.ProjectId,Logic,4c6f6769-632e-46b6-9963-61645f706362,rev?*%
%TF.SameCoordinates,Original*%
%TF.FileFunction,Soldermask,Top*%
%TF.FilePolarity,Negative*%
%FSLAX46Y46*%
G04 Gerber Fmt 4.6, Leading zero omitted, Abs format (unit mm)*
G04 Created by KiCad (PCBNEW (5.1.6)-1) date 2021-02-04 22:49:39*
%MOMM*%
%LPD*%
G01*
G04 APERTURE LIST*
%ADD10C,5.100000*%
%ADD11R,1.570000X0.400000*%
%ADD12R,0.400000X1.570000*%
%ADD13C,1.300000*%
%ADD14R,1.649400X0.658800*%
%ADD15R,0.963600X1.344600*%
%ADD16R,1.344600X0.963600*%
%ADD17C,2.900000*%
%ADD18R,2.900000X2.900000*%
%ADD19O,1.800000X1.800000*%
%ADD20R,1.800000X1.800000*%
%ADD21R,1.000000X0.900000*%
%ADD22R,2.350000X2.350000*%
%ADD23C,2.350000*%
%ADD24R,1.560500X0.633400*%
%ADD25R,1.560500X0.658800*%
%ADD26R,2.100000X5.600000*%
G04 APERTURE END LIST*
D10*
%TO.C,REF\u002A\u002A*%
X95250000Y-5715000D03*
%TD*%
%TO.C,REF\u002A\u002A*%
X95250000Y-146050000D03*
%TD*%
D11*
%TO.C,U3*%
X162250001Y-122560001D03*
X162250001Y-123060001D03*
X162250001Y-123560001D03*
X162250001Y-124060001D03*
X162250001Y-124560001D03*
X162250001Y-125060001D03*
X162250001Y-125560001D03*
X162250001Y-126060001D03*
X162250001Y-126560001D03*
X162250001Y-127060001D03*
X162250001Y-127560001D03*
X162250001Y-128060001D03*
X162250001Y-128560001D03*
X162250001Y-129060001D03*
X162250001Y-129560001D03*
X162250001Y-130060001D03*
D12*
X164170001Y-131980001D03*
X164670001Y-131980001D03*
X165170001Y-131980001D03*
X165670001Y-131980001D03*
X166170001Y-131980001D03*
X166670001Y-131980001D03*
X167170001Y-131980001D03*
X167670001Y-131980001D03*
X168170001Y-131980001D03*
X168670001Y-131980001D03*
X169170001Y-131980001D03*
X169670001Y-131980001D03*
X170170001Y-131980001D03*
X170670001Y-131980001D03*
X171170001Y-131980001D03*
X171670001Y-131980001D03*
D11*
X173590001Y-130060001D03*
X173590001Y-129560001D03*
X173590001Y-129060001D03*
X173590001Y-128560001D03*
X173590001Y-128060001D03*
X173590001Y-127560001D03*
X173590001Y-127060001D03*
X173590001Y-126560001D03*
X173590001Y-126060001D03*
X173590001Y-125560001D03*
X173590001Y-125060001D03*
X173590001Y-124560001D03*
X173590001Y-124060001D03*
X173590001Y-123560001D03*
X173590001Y-123060001D03*
X173590001Y-122560001D03*
D12*
X171670001Y-120640001D03*
X171170001Y-120640001D03*
X170670001Y-120640001D03*
X170170001Y-120640001D03*
X169670001Y-120640001D03*
X169170001Y-120640001D03*
X168670001Y-120640001D03*
X168170001Y-120640001D03*
X167670001Y-120640001D03*
X167170001Y-120640001D03*
X166670001Y-120640001D03*
X166170001Y-120640001D03*
X165670001Y-120640001D03*
X165170001Y-120640001D03*
X164670001Y-120640001D03*
X164170001Y-120640001D03*
%TD*%
D10*
%TO.C,REF\u002A\u002A*%
X255905000Y-5715000D03*
%TD*%
%TO.C,REF\u002A\u002A*%
X255905000Y-146050000D03*
%TD*%
D13*
%TO.C,U6*%
X221269200Y-67675200D03*
X221269200Y-77835200D03*
X218907200Y-82915200D03*
X218907200Y-57515200D03*
X218907200Y-60055200D03*
X221269200Y-72755200D03*
X221269200Y-70215200D03*
X218907200Y-77835200D03*
X221269200Y-80375200D03*
X218907200Y-80375200D03*
X221269200Y-82915200D03*
X221269200Y-57515200D03*
X218907200Y-70215200D03*
X218907200Y-62595200D03*
X221269200Y-85455200D03*
X218907200Y-72755200D03*
X221269200Y-60055200D03*
X221269200Y-65135200D03*
X218907200Y-65135200D03*
X221269200Y-75295200D03*
X218907200Y-67675200D03*
X221269200Y-62595200D03*
X218907200Y-75295200D03*
X218907200Y-93075200D03*
D10*
X171047200Y-110763200D03*
D13*
X221269200Y-105775200D03*
X221269200Y-103235200D03*
X218907200Y-105775200D03*
X218907200Y-90535200D03*
X218907200Y-95615200D03*
X221269200Y-90535200D03*
D10*
X171047200Y-52763200D03*
D13*
X218907200Y-85455200D03*
D10*
X220047200Y-52763200D03*
D13*
X221269200Y-100695200D03*
X218907200Y-98155200D03*
X221269200Y-95615200D03*
X221269200Y-98155200D03*
D10*
X220047200Y-110763200D03*
D13*
X221269200Y-93075200D03*
X218907200Y-103235200D03*
X218907200Y-100695200D03*
X218907200Y-87995200D03*
X221269200Y-87995200D03*
%TD*%
%TO.C,C1*%
G36*
G01*
X154461738Y-70350000D02*
X155418262Y-70350000D01*
G75*
G02*
X155690000Y-70621738I0J-271738D01*
G01*
X155690000Y-71328262D01*
G75*
G02*
X155418262Y-71600000I-271738J0D01*
G01*
X154461738Y-71600000D01*
G75*
G02*
X154190000Y-71328262I0J271738D01*
G01*
X154190000Y-70621738D01*
G75*
G02*
X154461738Y-70350000I271738J0D01*
G01*
G37*
G36*
G01*
X154461738Y-72400000D02*
X155418262Y-72400000D01*
G75*
G02*
X155690000Y-72671738I0J-271738D01*
G01*
X155690000Y-73378262D01*
G75*
G02*
X155418262Y-73650000I-271738J0D01*
G01*
X154461738Y-73650000D01*
G75*
G02*
X154190000Y-73378262I0J271738D01*
G01*
X154190000Y-72671738D01*
G75*
G02*
X154461738Y-72400000I271738J0D01*
G01*
G37*
%TD*%
%TO.C,C2*%
G36*
G01*
X146206738Y-126375000D02*
X147163262Y-126375000D01*
G75*
G02*
X147435000Y-126646738I0J-271738D01*
G01*
X147435000Y-127353262D01*
G75*
G02*
X147163262Y-127625000I-271738J0D01*
G01*
X146206738Y-127625000D01*
G75*
G02*
X145935000Y-127353262I0J271738D01*
G01*
X145935000Y-126646738D01*
G75*
G02*
X146206738Y-126375000I271738J0D01*
G01*
G37*
G36*
G01*
X146206738Y-124325000D02*
X147163262Y-124325000D01*
G75*
G02*
X147435000Y-124596738I0J-271738D01*
G01*
X147435000Y-125303262D01*
G75*
G02*
X147163262Y-125575000I-271738J0D01*
G01*
X146206738Y-125575000D01*
G75*
G02*
X145935000Y-125303262I0J271738D01*
G01*
X145935000Y-124596738D01*
G75*
G02*
X146206738Y-124325000I271738J0D01*
G01*
G37*
%TD*%
%TO.C,C9*%
G36*
G01*
X178913262Y-127625000D02*
X177956738Y-127625000D01*
G75*
G02*
X177685000Y-127353262I0J271738D01*
G01*
X177685000Y-126646738D01*
G75*
G02*
X177956738Y-126375000I271738J0D01*
G01*
X178913262Y-126375000D01*
G75*
G02*
X179185000Y-126646738I0J-271738D01*
G01*
X179185000Y-127353262D01*
G75*
G02*
X178913262Y-127625000I-271738J0D01*
G01*
G37*
G36*
G01*
X178913262Y-129675000D02*
X177956738Y-129675000D01*
G75*
G02*
X177685000Y-129403262I0J271738D01*
G01*
X177685000Y-128696738D01*
G75*
G02*
X177956738Y-128425000I271738J0D01*
G01*
X178913262Y-128425000D01*
G75*
G02*
X179185000Y-128696738I0J-271738D01*
G01*
X179185000Y-129403262D01*
G75*
G02*
X178913262Y-129675000I-271738J0D01*
G01*
G37*
%TD*%
%TO.C,C11*%
G36*
G01*
X115726738Y-113530000D02*
X116683262Y-113530000D01*
G75*
G02*
X116955000Y-113801738I0J-271738D01*
G01*
X116955000Y-114508262D01*
G75*
G02*
X116683262Y-114780000I-271738J0D01*
G01*
X115726738Y-114780000D01*
G75*
G02*
X115455000Y-114508262I0J271738D01*
G01*
X115455000Y-113801738D01*
G75*
G02*
X115726738Y-113530000I271738J0D01*
G01*
G37*
G36*
G01*
X115726738Y-115580000D02*
X116683262Y-115580000D01*
G75*
G02*
X116955000Y-115851738I0J-271738D01*
G01*
X116955000Y-116558262D01*
G75*
G02*
X116683262Y-116830000I-271738J0D01*
G01*
X115726738Y-116830000D01*
G75*
G02*
X115455000Y-116558262I0J271738D01*
G01*
X115455000Y-115851738D01*
G75*
G02*
X115726738Y-115580000I271738J0D01*
G01*
G37*
%TD*%
%TO.C,C12*%
G36*
G01*
X142083262Y-116975000D02*
X141126738Y-116975000D01*
G75*
G02*
X140855000Y-116703262I0J271738D01*
G01*
X140855000Y-115996738D01*
G75*
G02*
X141126738Y-115725000I271738J0D01*
G01*
X142083262Y-115725000D01*
G75*
G02*
X142355000Y-115996738I0J-271738D01*
G01*
X142355000Y-116703262D01*
G75*
G02*
X142083262Y-116975000I-271738J0D01*
G01*
G37*
G36*
G01*
X142083262Y-114925000D02*
X141126738Y-114925000D01*
G75*
G02*
X140855000Y-114653262I0J271738D01*
G01*
X140855000Y-113946738D01*
G75*
G02*
X141126738Y-113675000I271738J0D01*
G01*
X142083262Y-113675000D01*
G75*
G02*
X142355000Y-113946738I0J-271738D01*
G01*
X142355000Y-114653262D01*
G75*
G02*
X142083262Y-114925000I-271738J0D01*
G01*
G37*
%TD*%
%TO.C,C13*%
G36*
G01*
X157323262Y-42925000D02*
X156366738Y-42925000D01*
G75*
G02*
X156095000Y-42653262I0J271738D01*
G01*
X156095000Y-41946738D01*
G75*
G02*
X156366738Y-41675000I271738J0D01*
G01*
X157323262Y-41675000D01*
G75*
G02*
X157595000Y-41946738I0J-271738D01*
G01*
X157595000Y-42653262D01*
G75*
G02*
X157323262Y-42925000I-271738J0D01*
G01*
G37*
G36*
G01*
X157323262Y-40875000D02*
X156366738Y-40875000D01*
G75*
G02*
X156095000Y-40603262I0J271738D01*
G01*
X156095000Y-39896738D01*
G75*
G02*
X156366738Y-39625000I271738J0D01*
G01*
X157323262Y-39625000D01*
G75*
G02*
X157595000Y-39896738I0J-271738D01*
G01*
X157595000Y-40603262D01*
G75*
G02*
X157323262Y-40875000I-271738J0D01*
G01*
G37*
%TD*%
%TO.C,C14*%
G36*
G01*
X127791738Y-70740000D02*
X128748262Y-70740000D01*
G75*
G02*
X129020000Y-71011738I0J-271738D01*
G01*
X129020000Y-71718262D01*
G75*
G02*
X128748262Y-71990000I-271738J0D01*
G01*
X127791738Y-71990000D01*
G75*
G02*
X127520000Y-71718262I0J271738D01*
G01*
X127520000Y-71011738D01*
G75*
G02*
X127791738Y-70740000I271738J0D01*
G01*
G37*
G36*
G01*
X127791738Y-72790000D02*
X128748262Y-72790000D01*
G75*
G02*
X129020000Y-73061738I0J-271738D01*
G01*
X129020000Y-73768262D01*
G75*
G02*
X128748262Y-74040000I-271738J0D01*
G01*
X127791738Y-74040000D01*
G75*
G02*
X127520000Y-73768262I0J271738D01*
G01*
X127520000Y-73061738D01*
G75*
G02*
X127791738Y-72790000I271738J0D01*
G01*
G37*
%TD*%
%TO.C,C15*%
G36*
G01*
X154461738Y-82415000D02*
X155418262Y-82415000D01*
G75*
G02*
X155690000Y-82686738I0J-271738D01*
G01*
X155690000Y-83393262D01*
G75*
G02*
X155418262Y-83665000I-271738J0D01*
G01*
X154461738Y-83665000D01*
G75*
G02*
X154190000Y-83393262I0J271738D01*
G01*
X154190000Y-82686738D01*
G75*
G02*
X154461738Y-82415000I271738J0D01*
G01*
G37*
G36*
G01*
X154461738Y-84465000D02*
X155418262Y-84465000D01*
G75*
G02*
X155690000Y-84736738I0J-271738D01*
G01*
X155690000Y-85443262D01*
G75*
G02*
X155418262Y-85715000I-271738J0D01*
G01*
X154461738Y-85715000D01*
G75*
G02*
X154190000Y-85443262I0J271738D01*
G01*
X154190000Y-84736738D01*
G75*
G02*
X154461738Y-84465000I271738J0D01*
G01*
G37*
%TD*%
%TO.C,C16*%
G36*
G01*
X126843262Y-83665000D02*
X125886738Y-83665000D01*
G75*
G02*
X125615000Y-83393262I0J271738D01*
G01*
X125615000Y-82686738D01*
G75*
G02*
X125886738Y-82415000I271738J0D01*
G01*
X126843262Y-82415000D01*
G75*
G02*
X127115000Y-82686738I0J-271738D01*
G01*
X127115000Y-83393262D01*
G75*
G02*
X126843262Y-83665000I-271738J0D01*
G01*
G37*
G36*
G01*
X126843262Y-85715000D02*
X125886738Y-85715000D01*
G75*
G02*
X125615000Y-85443262I0J271738D01*
G01*
X125615000Y-84736738D01*
G75*
G02*
X125886738Y-84465000I271738J0D01*
G01*
X126843262Y-84465000D01*
G75*
G02*
X127115000Y-84736738I0J-271738D01*
G01*
X127115000Y-85443262D01*
G75*
G02*
X126843262Y-85715000I-271738J0D01*
G01*
G37*
%TD*%
%TO.C,C17*%
G36*
G01*
X125886738Y-89545000D02*
X126843262Y-89545000D01*
G75*
G02*
X127115000Y-89816738I0J-271738D01*
G01*
X127115000Y-90523262D01*
G75*
G02*
X126843262Y-90795000I-271738J0D01*
G01*
X125886738Y-90795000D01*
G75*
G02*
X125615000Y-90523262I0J271738D01*
G01*
X125615000Y-89816738D01*
G75*
G02*
X125886738Y-89545000I271738J0D01*
G01*
G37*
G36*
G01*
X125886738Y-91595000D02*
X126843262Y-91595000D01*
G75*
G02*
X127115000Y-91866738I0J-271738D01*
G01*
X127115000Y-92573262D01*
G75*
G02*
X126843262Y-92845000I-271738J0D01*
G01*
X125886738Y-92845000D01*
G75*
G02*
X125615000Y-92573262I0J271738D01*
G01*
X125615000Y-91866738D01*
G75*
G02*
X125886738Y-91595000I271738J0D01*
G01*
G37*
%TD*%
%TO.C,C18*%
G36*
G01*
X214786738Y-20330000D02*
X215743262Y-20330000D01*
G75*
G02*
X216015000Y-20601738I0J-271738D01*
G01*
X216015000Y-21308262D01*
G75*
G02*
X215743262Y-21580000I-271738J0D01*
G01*
X214786738Y-21580000D01*
G75*
G02*
X214515000Y-21308262I0J271738D01*
G01*
X214515000Y-20601738D01*
G75*
G02*
X214786738Y-20330000I271738J0D01*
G01*
G37*
G36*
G01*
X214786738Y-18280000D02*
X215743262Y-18280000D01*
G75*
G02*
X216015000Y-18551738I0J-271738D01*
G01*
X216015000Y-19258262D01*
G75*
G02*
X215743262Y-19530000I-271738J0D01*
G01*
X214786738Y-19530000D01*
G75*
G02*
X214515000Y-19258262I0J271738D01*
G01*
X214515000Y-18551738D01*
G75*
G02*
X214786738Y-18280000I271738J0D01*
G01*
G37*
%TD*%
%TO.C,C19*%
G36*
G01*
X122398262Y-102370000D02*
X121441738Y-102370000D01*
G75*
G02*
X121170000Y-102098262I0J271738D01*
G01*
X121170000Y-101391738D01*
G75*
G02*
X121441738Y-101120000I271738J0D01*
G01*
X122398262Y-101120000D01*
G75*
G02*
X122670000Y-101391738I0J-271738D01*
G01*
X122670000Y-102098262D01*
G75*
G02*
X122398262Y-102370000I-271738J0D01*
G01*
G37*
G36*
G01*
X122398262Y-100320000D02*
X121441738Y-100320000D01*
G75*
G02*
X121170000Y-100048262I0J271738D01*
G01*
X121170000Y-99341738D01*
G75*
G02*
X121441738Y-99070000I271738J0D01*
G01*
X122398262Y-99070000D01*
G75*
G02*
X122670000Y-99341738I0J-271738D01*
G01*
X122670000Y-100048262D01*
G75*
G02*
X122398262Y-100320000I-271738J0D01*
G01*
G37*
%TD*%
%TO.C,C20*%
G36*
G01*
X134141738Y-98925000D02*
X135098262Y-98925000D01*
G75*
G02*
X135370000Y-99196738I0J-271738D01*
G01*
X135370000Y-99903262D01*
G75*
G02*
X135098262Y-100175000I-271738J0D01*
G01*
X134141738Y-100175000D01*
G75*
G02*
X133870000Y-99903262I0J271738D01*
G01*
X133870000Y-99196738D01*
G75*
G02*
X134141738Y-98925000I271738J0D01*
G01*
G37*
G36*
G01*
X134141738Y-100975000D02*
X135098262Y-100975000D01*
G75*
G02*
X135370000Y-101246738I0J-271738D01*
G01*
X135370000Y-101953262D01*
G75*
G02*
X135098262Y-102225000I-271738J0D01*
G01*
X134141738Y-102225000D01*
G75*
G02*
X133870000Y-101953262I0J271738D01*
G01*
X133870000Y-101246738D01*
G75*
G02*
X134141738Y-100975000I271738J0D01*
G01*
G37*
%TD*%
D14*
%TO.C,CR1*%
X125590300Y-99695000D03*
X125590300Y-100965000D03*
X125590300Y-102235000D03*
X125590300Y-103505000D03*
X130949700Y-103505000D03*
X130949700Y-102235000D03*
X130949700Y-100965000D03*
X130949700Y-99695000D03*
%TD*%
D15*
%TO.C,D1*%
X202717400Y-12700000D03*
X200660000Y-12700000D03*
%TD*%
D16*
%TO.C,D2*%
X215265000Y-31115000D03*
X215265000Y-29057600D03*
%TD*%
D15*
%TO.C,D3*%
X183515000Y-26670000D03*
X181457600Y-26670000D03*
%TD*%
%TO.C,D4*%
X190652400Y-26670000D03*
X188595000Y-26670000D03*
%TD*%
D16*
%TO.C,D5*%
X153035000Y-62865000D03*
X153035000Y-64922400D03*
%TD*%
%TO.C,D6*%
X118110000Y-27305000D03*
X118110000Y-25247600D03*
%TD*%
D17*
%TO.C,J1*%
X140725000Y-136310000D03*
X136525000Y-136310000D03*
X140725000Y-130810000D03*
D18*
X136525000Y-130810000D03*
%TD*%
D19*
%TO.C,J3*%
X224790000Y-19685000D03*
X224790000Y-17145000D03*
X224790000Y-14605000D03*
D20*
X224790000Y-12065000D03*
%TD*%
%TO.C,J4*%
X241935000Y-12065000D03*
D19*
X241935000Y-14605000D03*
X241935000Y-17145000D03*
X241935000Y-19685000D03*
%TD*%
D20*
%TO.C,J5.1*%
X96520000Y-68580000D03*
D19*
X96520000Y-71120000D03*
X96520000Y-73660000D03*
X96520000Y-76200000D03*
X96520000Y-78740000D03*
X96520000Y-81280000D03*
%TD*%
%TO.C,J5.2*%
X254259080Y-81280000D03*
X254259080Y-78740000D03*
X254259080Y-76200000D03*
X254259080Y-73660000D03*
X254259080Y-71120000D03*
D20*
X254259080Y-68580000D03*
%TD*%
%TO.C,J6*%
X240665000Y-69850000D03*
D19*
X240665000Y-67310000D03*
X240665000Y-64770000D03*
X240665000Y-62230000D03*
X240665000Y-59690000D03*
X240665000Y-57150000D03*
X240665000Y-54610000D03*
X240665000Y-52070000D03*
%TD*%
D18*
%TO.C,J7*%
X186055000Y-13335000D03*
D17*
X186055000Y-17535000D03*
X180555000Y-13335000D03*
X180555000Y-17535000D03*
%TD*%
D20*
%TO.C,J8*%
X149225000Y-146685000D03*
D19*
X151765000Y-146685000D03*
X154305000Y-146685000D03*
X156845000Y-146685000D03*
X159385000Y-146685000D03*
X161925000Y-146685000D03*
%TD*%
D20*
%TO.C,J9*%
X161290000Y-80645000D03*
D19*
X161290000Y-78105000D03*
%TD*%
D21*
%TO.C,U1*%
X169910000Y-137475000D03*
X169910000Y-135575000D03*
X167910000Y-136525000D03*
%TD*%
%TO.C,U2*%
G36*
G01*
X145540000Y-68767500D02*
X145540000Y-68392500D01*
G75*
G02*
X145727500Y-68205000I187500J0D01*
G01*
X147802500Y-68205000D01*
G75*
G02*
X147990000Y-68392500I0J-187500D01*
G01*
X147990000Y-68767500D01*
G75*
G02*
X147802500Y-68955000I-187500J0D01*
G01*
X145727500Y-68955000D01*
G75*
G02*
X145540000Y-68767500I0J187500D01*
G01*
G37*
G36*
G01*
X145540000Y-71307500D02*
X145540000Y-70932500D01*
G75*
G02*
X145727500Y-70745000I187500J0D01*
G01*
X147802500Y-70745000D01*
G75*
G02*
X147990000Y-70932500I0J-187500D01*
G01*
X147990000Y-71307500D01*
G75*
G02*
X147802500Y-71495000I-187500J0D01*
G01*
X145727500Y-71495000D01*
G75*
G02*
X145540000Y-71307500I0J187500D01*
G01*
G37*
G36*
G01*
X145540000Y-73847500D02*
X145540000Y-73472500D01*
G75*
G02*
X145727500Y-73285000I187500J0D01*
G01*
X147802500Y-73285000D01*
G75*
G02*
X147990000Y-73472500I0J-187500D01*
G01*
X147990000Y-73847500D01*
G75*
G02*
X147802500Y-74035000I-187500J0D01*
G01*
X145727500Y-74035000D01*
G75*
G02*
X145540000Y-73847500I0J187500D01*
G01*
G37*
G36*
G01*
X145540000Y-76387500D02*
X145540000Y-76012500D01*
G75*
G02*
X145727500Y-75825000I187500J0D01*
G01*
X147802500Y-75825000D01*
G75*
G02*
X147990000Y-76012500I0J-187500D01*
G01*
X147990000Y-76387500D01*
G75*
G02*
X147802500Y-76575000I-187500J0D01*
G01*
X145727500Y-76575000D01*
G75*
G02*
X145540000Y-76387500I0J187500D01*
G01*
G37*
G36*
G01*
X136490000Y-76387500D02*
X136490000Y-76012500D01*
G75*
G02*
X136677500Y-75825000I187500J0D01*
G01*
X138752500Y-75825000D01*
G75*
G02*
X138940000Y-76012500I0J-187500D01*
G01*
X138940000Y-76387500D01*
G75*
G02*
X138752500Y-76575000I-187500J0D01*
G01*
X136677500Y-76575000D01*
G75*
G02*
X136490000Y-76387500I0J187500D01*
G01*
G37*
G36*
G01*
X136490000Y-73847500D02*
X136490000Y-73472500D01*
G75*
G02*
X136677500Y-73285000I187500J0D01*
G01*
X138752500Y-73285000D01*
G75*
G02*
X138940000Y-73472500I0J-187500D01*
G01*
X138940000Y-73847500D01*
G75*
G02*
X138752500Y-74035000I-187500J0D01*
G01*
X136677500Y-74035000D01*
G75*
G02*
X136490000Y-73847500I0J187500D01*
G01*
G37*
G36*
G01*
X136490000Y-71307500D02*
X136490000Y-70932500D01*
G75*
G02*
X136677500Y-70745000I187500J0D01*
G01*
X138752500Y-70745000D01*
G75*
G02*
X138940000Y-70932500I0J-187500D01*
G01*
X138940000Y-71307500D01*
G75*
G02*
X138752500Y-71495000I-187500J0D01*
G01*
X136677500Y-71495000D01*
G75*
G02*
X136490000Y-71307500I0J187500D01*
G01*
G37*
G36*
G01*
X136490000Y-68767500D02*
X136490000Y-68392500D01*
G75*
G02*
X136677500Y-68205000I187500J0D01*
G01*
X138752500Y-68205000D01*
G75*
G02*
X138940000Y-68392500I0J-187500D01*
G01*
X138940000Y-68767500D01*
G75*
G02*
X138752500Y-68955000I-187500J0D01*
G01*
X136677500Y-68955000D01*
G75*
G02*
X136490000Y-68767500I0J187500D01*
G01*
G37*
%TD*%
D22*
%TO.C,U4*%
X156845000Y-25400000D03*
D23*
X156845000Y-20320000D03*
X136525000Y-12700000D03*
X136525000Y-33020000D03*
X156845000Y-33020000D03*
X136525000Y-22860000D03*
%TD*%
%TO.C,U5*%
G36*
G01*
X123155000Y-111947500D02*
X123155000Y-111572500D01*
G75*
G02*
X123342500Y-111385000I187500J0D01*
G01*
X125417500Y-111385000D01*
G75*
G02*
X125605000Y-111572500I0J-187500D01*
G01*
X125605000Y-111947500D01*
G75*
G02*
X125417500Y-112135000I-187500J0D01*
G01*
X123342500Y-112135000D01*
G75*
G02*
X123155000Y-111947500I0J187500D01*
G01*
G37*
G36*
G01*
X123155000Y-114487500D02*
X123155000Y-114112500D01*
G75*
G02*
X123342500Y-113925000I187500J0D01*
G01*
X125417500Y-113925000D01*
G75*
G02*
X125605000Y-114112500I0J-187500D01*
G01*
X125605000Y-114487500D01*
G75*
G02*
X125417500Y-114675000I-187500J0D01*
G01*
X123342500Y-114675000D01*
G75*
G02*
X123155000Y-114487500I0J187500D01*
G01*
G37*
G36*
G01*
X123155000Y-117027500D02*
X123155000Y-116652500D01*
G75*
G02*
X123342500Y-116465000I187500J0D01*
G01*
X125417500Y-116465000D01*
G75*
G02*
X125605000Y-116652500I0J-187500D01*
G01*
X125605000Y-117027500D01*
G75*
G02*
X125417500Y-117215000I-187500J0D01*
G01*
X123342500Y-117215000D01*
G75*
G02*
X123155000Y-117027500I0J187500D01*
G01*
G37*
G36*
G01*
X123155000Y-119567500D02*
X123155000Y-119192500D01*
G75*
G02*
X123342500Y-119005000I187500J0D01*
G01*
X125417500Y-119005000D01*
G75*
G02*
X125605000Y-119192500I0J-187500D01*
G01*
X125605000Y-119567500D01*
G75*
G02*
X125417500Y-119755000I-187500J0D01*
G01*
X123342500Y-119755000D01*
G75*
G02*
X123155000Y-119567500I0J187500D01*
G01*
G37*
G36*
G01*
X132205000Y-119567500D02*
X132205000Y-119192500D01*
G75*
G02*
X132392500Y-119005000I187500J0D01*
G01*
X134467500Y-119005000D01*
G75*
G02*
X134655000Y-119192500I0J-187500D01*
G01*
X134655000Y-119567500D01*
G75*
G02*
X134467500Y-119755000I-187500J0D01*
G01*
X132392500Y-119755000D01*
G75*
G02*
X132205000Y-119567500I0J187500D01*
G01*
G37*
G36*
G01*
X132205000Y-117027500D02*
X132205000Y-116652500D01*
G75*
G02*
X132392500Y-116465000I187500J0D01*
G01*
X134467500Y-116465000D01*
G75*
G02*
X134655000Y-116652500I0J-187500D01*
G01*
X134655000Y-117027500D01*
G75*
G02*
X134467500Y-117215000I-187500J0D01*
G01*
X132392500Y-117215000D01*
G75*
G02*
X132205000Y-117027500I0J187500D01*
G01*
G37*
G36*
G01*
X132205000Y-114487500D02*
X132205000Y-114112500D01*
G75*
G02*
X132392500Y-113925000I187500J0D01*
G01*
X134467500Y-113925000D01*
G75*
G02*
X134655000Y-114112500I0J-187500D01*
G01*
X134655000Y-114487500D01*
G75*
G02*
X134467500Y-114675000I-187500J0D01*
G01*
X132392500Y-114675000D01*
G75*
G02*
X132205000Y-114487500I0J187500D01*
G01*
G37*
G36*
G01*
X132205000Y-111947500D02*
X132205000Y-111572500D01*
G75*
G02*
X132392500Y-111385000I187500J0D01*
G01*
X134467500Y-111385000D01*
G75*
G02*
X134655000Y-111572500I0J-187500D01*
G01*
X134655000Y-111947500D01*
G75*
G02*
X134467500Y-112135000I-187500J0D01*
G01*
X132392500Y-112135000D01*
G75*
G02*
X132205000Y-111947500I0J187500D01*
G01*
G37*
%TD*%
D24*
%TO.C,U7*%
X152584150Y-43180000D03*
X152584150Y-41910000D03*
X152584150Y-40640000D03*
X152584150Y-39370000D03*
X147135850Y-39370000D03*
X147135850Y-40640000D03*
X147135850Y-41910000D03*
X147135850Y-43180000D03*
%TD*%
%TO.C,U8*%
G36*
G01*
X136515000Y-83360000D02*
X136515000Y-83010000D01*
G75*
G02*
X136690000Y-82835000I175000J0D01*
G01*
X138490000Y-82835000D01*
G75*
G02*
X138665000Y-83010000I0J-175000D01*
G01*
X138665000Y-83360000D01*
G75*
G02*
X138490000Y-83535000I-175000J0D01*
G01*
X136690000Y-83535000D01*
G75*
G02*
X136515000Y-83360000I0J175000D01*
G01*
G37*
G36*
G01*
X136515000Y-84630000D02*
X136515000Y-84280000D01*
G75*
G02*
X136690000Y-84105000I175000J0D01*
G01*
X138490000Y-84105000D01*
G75*
G02*
X138665000Y-84280000I0J-175000D01*
G01*
X138665000Y-84630000D01*
G75*
G02*
X138490000Y-84805000I-175000J0D01*
G01*
X136690000Y-84805000D01*
G75*
G02*
X136515000Y-84630000I0J175000D01*
G01*
G37*
G36*
G01*
X136515000Y-85900000D02*
X136515000Y-85550000D01*
G75*
G02*
X136690000Y-85375000I175000J0D01*
G01*
X138490000Y-85375000D01*
G75*
G02*
X138665000Y-85550000I0J-175000D01*
G01*
X138665000Y-85900000D01*
G75*
G02*
X138490000Y-86075000I-175000J0D01*
G01*
X136690000Y-86075000D01*
G75*
G02*
X136515000Y-85900000I0J175000D01*
G01*
G37*
G36*
G01*
X136515000Y-87170000D02*
X136515000Y-86820000D01*
G75*
G02*
X136690000Y-86645000I175000J0D01*
G01*
X138490000Y-86645000D01*
G75*
G02*
X138665000Y-86820000I0J-175000D01*
G01*
X138665000Y-87170000D01*
G75*
G02*
X138490000Y-87345000I-175000J0D01*
G01*
X136690000Y-87345000D01*
G75*
G02*
X136515000Y-87170000I0J175000D01*
G01*
G37*
G36*
G01*
X136515000Y-88440000D02*
X136515000Y-88090000D01*
G75*
G02*
X136690000Y-87915000I175000J0D01*
G01*
X138490000Y-87915000D01*
G75*
G02*
X138665000Y-88090000I0J-175000D01*
G01*
X138665000Y-88440000D01*
G75*
G02*
X138490000Y-88615000I-175000J0D01*
G01*
X136690000Y-88615000D01*
G75*
G02*
X136515000Y-88440000I0J175000D01*
G01*
G37*
G36*
G01*
X136515000Y-89710000D02*
X136515000Y-89360000D01*
G75*
G02*
X136690000Y-89185000I175000J0D01*
G01*
X138490000Y-89185000D01*
G75*
G02*
X138665000Y-89360000I0J-175000D01*
G01*
X138665000Y-89710000D01*
G75*
G02*
X138490000Y-89885000I-175000J0D01*
G01*
X136690000Y-89885000D01*
G75*
G02*
X136515000Y-89710000I0J175000D01*
G01*
G37*
G36*
G01*
X136515000Y-90980000D02*
X136515000Y-90630000D01*
G75*
G02*
X136690000Y-90455000I175000J0D01*
G01*
X138490000Y-90455000D01*
G75*
G02*
X138665000Y-90630000I0J-175000D01*
G01*
X138665000Y-90980000D01*
G75*
G02*
X138490000Y-91155000I-175000J0D01*
G01*
X136690000Y-91155000D01*
G75*
G02*
X136515000Y-90980000I0J175000D01*
G01*
G37*
G36*
G01*
X136515000Y-92250000D02*
X136515000Y-91900000D01*
G75*
G02*
X136690000Y-91725000I175000J0D01*
G01*
X138490000Y-91725000D01*
G75*
G02*
X138665000Y-91900000I0J-175000D01*
G01*
X138665000Y-92250000D01*
G75*
G02*
X138490000Y-92425000I-175000J0D01*
G01*
X136690000Y-92425000D01*
G75*
G02*
X136515000Y-92250000I0J175000D01*
G01*
G37*
G36*
G01*
X136515000Y-93520000D02*
X136515000Y-93170000D01*
G75*
G02*
X136690000Y-92995000I175000J0D01*
G01*
X138490000Y-92995000D01*
G75*
G02*
X138665000Y-93170000I0J-175000D01*
G01*
X138665000Y-93520000D01*
G75*
G02*
X138490000Y-93695000I-175000J0D01*
G01*
X136690000Y-93695000D01*
G75*
G02*
X136515000Y-93520000I0J175000D01*
G01*
G37*
G36*
G01*
X145815000Y-93520000D02*
X145815000Y-93170000D01*
G75*
G02*
X145990000Y-92995000I175000J0D01*
G01*
X147790000Y-92995000D01*
G75*
G02*
X147965000Y-93170000I0J-175000D01*
G01*
X147965000Y-93520000D01*
G75*
G02*
X147790000Y-93695000I-175000J0D01*
G01*
X145990000Y-93695000D01*
G75*
G02*
X145815000Y-93520000I0J175000D01*
G01*
G37*
G36*
G01*
X145815000Y-92250000D02*
X145815000Y-91900000D01*
G75*
G02*
X145990000Y-91725000I175000J0D01*
G01*
X147790000Y-91725000D01*
G75*
G02*
X147965000Y-91900000I0J-175000D01*
G01*
X147965000Y-92250000D01*
G75*
G02*
X147790000Y-92425000I-175000J0D01*
G01*
X145990000Y-92425000D01*
G75*
G02*
X145815000Y-92250000I0J175000D01*
G01*
G37*
G36*
G01*
X145815000Y-90980000D02*
X145815000Y-90630000D01*
G75*
G02*
X145990000Y-90455000I175000J0D01*
G01*
X147790000Y-90455000D01*
G75*
G02*
X147965000Y-90630000I0J-175000D01*
G01*
X147965000Y-90980000D01*
G75*
G02*
X147790000Y-91155000I-175000J0D01*
G01*
X145990000Y-91155000D01*
G75*
G02*
X145815000Y-90980000I0J175000D01*
G01*
G37*
G36*
G01*
X145815000Y-89710000D02*
X145815000Y-89360000D01*
G75*
G02*
X145990000Y-89185000I175000J0D01*
G01*
X147790000Y-89185000D01*
G75*
G02*
X147965000Y-89360000I0J-175000D01*
G01*
X147965000Y-89710000D01*
G75*
G02*
X147790000Y-89885000I-175000J0D01*
G01*
X145990000Y-89885000D01*
G75*
G02*
X145815000Y-89710000I0J175000D01*
G01*
G37*
G36*
G01*
X145815000Y-88440000D02*
X145815000Y-88090000D01*
G75*
G02*
X145990000Y-87915000I175000J0D01*
G01*
X147790000Y-87915000D01*
G75*
G02*
X147965000Y-88090000I0J-175000D01*
G01*
X147965000Y-88440000D01*
G75*
G02*
X147790000Y-88615000I-175000J0D01*
G01*
X145990000Y-88615000D01*
G75*
G02*
X145815000Y-88440000I0J175000D01*
G01*
G37*
G36*
G01*
X145815000Y-87170000D02*
X145815000Y-86820000D01*
G75*
G02*
X145990000Y-86645000I175000J0D01*
G01*
X147790000Y-86645000D01*
G75*
G02*
X147965000Y-86820000I0J-175000D01*
G01*
X147965000Y-87170000D01*
G75*
G02*
X147790000Y-87345000I-175000J0D01*
G01*
X145990000Y-87345000D01*
G75*
G02*
X145815000Y-87170000I0J175000D01*
G01*
G37*
G36*
G01*
X145815000Y-85900000D02*
X145815000Y-85550000D01*
G75*
G02*
X145990000Y-85375000I175000J0D01*
G01*
X147790000Y-85375000D01*
G75*
G02*
X147965000Y-85550000I0J-175000D01*
G01*
X147965000Y-85900000D01*
G75*
G02*
X147790000Y-86075000I-175000J0D01*
G01*
X145990000Y-86075000D01*
G75*
G02*
X145815000Y-85900000I0J175000D01*
G01*
G37*
G36*
G01*
X145815000Y-84630000D02*
X145815000Y-84280000D01*
G75*
G02*
X145990000Y-84105000I175000J0D01*
G01*
X147790000Y-84105000D01*
G75*
G02*
X147965000Y-84280000I0J-175000D01*
G01*
X147965000Y-84630000D01*
G75*
G02*
X147790000Y-84805000I-175000J0D01*
G01*
X145990000Y-84805000D01*
G75*
G02*
X145815000Y-84630000I0J175000D01*
G01*
G37*
G36*
G01*
X145815000Y-83360000D02*
X145815000Y-83010000D01*
G75*
G02*
X145990000Y-82835000I175000J0D01*
G01*
X147790000Y-82835000D01*
G75*
G02*
X147965000Y-83010000I0J-175000D01*
G01*
X147965000Y-83360000D01*
G75*
G02*
X147790000Y-83535000I-175000J0D01*
G01*
X145990000Y-83535000D01*
G75*
G02*
X145815000Y-83360000I0J175000D01*
G01*
G37*
%TD*%
D25*
%TO.C,U9*%
X203015850Y-18415000D03*
X203015850Y-19685000D03*
X203015850Y-20955000D03*
X203015850Y-22225000D03*
X208464150Y-22225000D03*
X208464150Y-20955000D03*
X208464150Y-19685000D03*
X208464150Y-18415000D03*
%TD*%
%TO.C,U10*%
G36*
G01*
X140680000Y-106207500D02*
X140680000Y-105882500D01*
G75*
G02*
X140842500Y-105720000I162500J0D01*
G01*
X142217500Y-105720000D01*
G75*
G02*
X142380000Y-105882500I0J-162500D01*
G01*
X142380000Y-106207500D01*
G75*
G02*
X142217500Y-106370000I-162500J0D01*
G01*
X140842500Y-106370000D01*
G75*
G02*
X140680000Y-106207500I0J162500D01*
G01*
G37*
G36*
G01*
X140680000Y-107477500D02*
X140680000Y-107152500D01*
G75*
G02*
X140842500Y-106990000I162500J0D01*
G01*
X142217500Y-106990000D01*
G75*
G02*
X142380000Y-107152500I0J-162500D01*
G01*
X142380000Y-107477500D01*
G75*
G02*
X142217500Y-107640000I-162500J0D01*
G01*
X140842500Y-107640000D01*
G75*
G02*
X140680000Y-107477500I0J162500D01*
G01*
G37*
G36*
G01*
X147180000Y-107477500D02*
X147180000Y-107152500D01*
G75*
G02*
X147342500Y-106990000I162500J0D01*
G01*
X148717500Y-106990000D01*
G75*
G02*
X148880000Y-107152500I0J-162500D01*
G01*
X148880000Y-107477500D01*
G75*
G02*
X148717500Y-107640000I-162500J0D01*
G01*
X147342500Y-107640000D01*
G75*
G02*
X147180000Y-107477500I0J162500D01*
G01*
G37*
G36*
G01*
X147180000Y-106207500D02*
X147180000Y-105882500D01*
G75*
G02*
X147342500Y-105720000I162500J0D01*
G01*
X148717500Y-105720000D01*
G75*
G02*
X148880000Y-105882500I0J-162500D01*
G01*
X148880000Y-106207500D01*
G75*
G02*
X148717500Y-106370000I-162500J0D01*
G01*
X147342500Y-106370000D01*
G75*
G02*
X147180000Y-106207500I0J162500D01*
G01*
G37*
%TD*%
D26*
%TO.C,Y1*%
X120650000Y-82880000D03*
X120650000Y-92380000D03*
%TD*%
%TO.C,R1*%
G36*
G01*
X211298262Y-13325000D02*
X210341738Y-13325000D01*
G75*
G02*
X210070000Y-13053262I0J271738D01*
G01*
X210070000Y-12346738D01*
G75*
G02*
X210341738Y-12075000I271738J0D01*
G01*
X211298262Y-12075000D01*
G75*
G02*
X211570000Y-12346738I0J-271738D01*
G01*
X211570000Y-13053262D01*
G75*
G02*
X211298262Y-13325000I-271738J0D01*
G01*
G37*
G36*
G01*
X211298262Y-15375000D02*
X210341738Y-15375000D01*
G75*
G02*
X210070000Y-15103262I0J271738D01*
G01*
X210070000Y-14396738D01*
G75*
G02*
X210341738Y-14125000I271738J0D01*
G01*
X211298262Y-14125000D01*
G75*
G02*
X211570000Y-14396738I0J-271738D01*
G01*
X211570000Y-15103262D01*
G75*
G02*
X211298262Y-15375000I-271738J0D01*
G01*
G37*
%TD*%
%TO.C,R2*%
G36*
G01*
X214473262Y-15230000D02*
X213516738Y-15230000D01*
G75*
G02*
X213245000Y-14958262I0J271738D01*
G01*
X213245000Y-14251738D01*
G75*
G02*
X213516738Y-13980000I271738J0D01*
G01*
X214473262Y-13980000D01*
G75*
G02*
X214745000Y-14251738I0J-271738D01*
G01*
X214745000Y-14958262D01*
G75*
G02*
X214473262Y-15230000I-271738J0D01*
G01*
G37*
G36*
G01*
X214473262Y-13180000D02*
X213516738Y-13180000D01*
G75*
G02*
X213245000Y-12908262I0J271738D01*
G01*
X213245000Y-12201738D01*
G75*
G02*
X213516738Y-11930000I271738J0D01*
G01*
X214473262Y-11930000D01*
G75*
G02*
X214745000Y-12201738I0J-271738D01*
G01*
X214745000Y-12908262D01*
G75*
G02*
X214473262Y-13180000I-271738J0D01*
G01*
G37*
%TD*%
%TO.C,R3*%
G36*
G01*
X150973262Y-121275000D02*
X150016738Y-121275000D01*
G75*
G02*
X149745000Y-121003262I0J271738D01*
G01*
X149745000Y-120296738D01*
G75*
G02*
X150016738Y-120025000I271738J0D01*
G01*
X150973262Y-120025000D01*
G75*
G02*
X151245000Y-120296738I0J-271738D01*
G01*
X151245000Y-121003262D01*
G75*
G02*
X150973262Y-121275000I-271738J0D01*
G01*
G37*
G36*
G01*
X150973262Y-123325000D02*
X150016738Y-123325000D01*
G75*
G02*
X149745000Y-123053262I0J271738D01*
G01*
X149745000Y-122346738D01*
G75*
G02*
X150016738Y-122075000I271738J0D01*
G01*
X150973262Y-122075000D01*
G75*
G02*
X151245000Y-122346738I0J-271738D01*
G01*
X151245000Y-123053262D01*
G75*
G02*
X150973262Y-123325000I-271738J0D01*
G01*
G37*
%TD*%
%TO.C,R4*%
G36*
G01*
X150973262Y-125330000D02*
X150016738Y-125330000D01*
G75*
G02*
X149745000Y-125058262I0J271738D01*
G01*
X149745000Y-124351738D01*
G75*
G02*
X150016738Y-124080000I271738J0D01*
G01*
X150973262Y-124080000D01*
G75*
G02*
X151245000Y-124351738I0J-271738D01*
G01*
X151245000Y-125058262D01*
G75*
G02*
X150973262Y-125330000I-271738J0D01*
G01*
G37*
G36*
G01*
X150973262Y-127380000D02*
X150016738Y-127380000D01*
G75*
G02*
X149745000Y-127108262I0J271738D01*
G01*
X149745000Y-126401738D01*
G75*
G02*
X150016738Y-126130000I271738J0D01*
G01*
X150973262Y-126130000D01*
G75*
G02*
X151245000Y-126401738I0J-271738D01*
G01*
X151245000Y-127108262D01*
G75*
G02*
X150973262Y-127380000I-271738J0D01*
G01*
G37*
%TD*%
%TO.C,R5*%
G36*
G01*
X206220000Y-12221738D02*
X206220000Y-13178262D01*
G75*
G02*
X205948262Y-13450000I-271738J0D01*
G01*
X205241738Y-13450000D01*
G75*
G02*
X204970000Y-13178262I0J271738D01*
G01*
X204970000Y-12221738D01*
G75*
G02*
X205241738Y-11950000I271738J0D01*
G01*
X205948262Y-11950000D01*
G75*
G02*
X206220000Y-12221738I0J-271738D01*
G01*
G37*
G36*
G01*
X208270000Y-12221738D02*
X208270000Y-13178262D01*
G75*
G02*
X207998262Y-13450000I-271738J0D01*
G01*
X207291738Y-13450000D01*
G75*
G02*
X207020000Y-13178262I0J271738D01*
G01*
X207020000Y-12221738D01*
G75*
G02*
X207291738Y-11950000I271738J0D01*
G01*
X207998262Y-11950000D01*
G75*
G02*
X208270000Y-12221738I0J-271738D01*
G01*
G37*
%TD*%
%TO.C,R6*%
G36*
G01*
X211611738Y-28440000D02*
X212568262Y-28440000D01*
G75*
G02*
X212840000Y-28711738I0J-271738D01*
G01*
X212840000Y-29418262D01*
G75*
G02*
X212568262Y-29690000I-271738J0D01*
G01*
X211611738Y-29690000D01*
G75*
G02*
X211340000Y-29418262I0J271738D01*
G01*
X211340000Y-28711738D01*
G75*
G02*
X211611738Y-28440000I271738J0D01*
G01*
G37*
G36*
G01*
X211611738Y-30490000D02*
X212568262Y-30490000D01*
G75*
G02*
X212840000Y-30761738I0J-271738D01*
G01*
X212840000Y-31468262D01*
G75*
G02*
X212568262Y-31740000I-271738J0D01*
G01*
X211611738Y-31740000D01*
G75*
G02*
X211340000Y-31468262I0J271738D01*
G01*
X211340000Y-30761738D01*
G75*
G02*
X211611738Y-30490000I271738J0D01*
G01*
G37*
%TD*%
%TO.C,R7*%
G36*
G01*
X157225000Y-80166738D02*
X157225000Y-81123262D01*
G75*
G02*
X156953262Y-81395000I-271738J0D01*
G01*
X156246738Y-81395000D01*
G75*
G02*
X155975000Y-81123262I0J271738D01*
G01*
X155975000Y-80166738D01*
G75*
G02*
X156246738Y-79895000I271738J0D01*
G01*
X156953262Y-79895000D01*
G75*
G02*
X157225000Y-80166738I0J-271738D01*
G01*
G37*
G36*
G01*
X155175000Y-80166738D02*
X155175000Y-81123262D01*
G75*
G02*
X154903262Y-81395000I-271738J0D01*
G01*
X154196738Y-81395000D01*
G75*
G02*
X153925000Y-81123262I0J271738D01*
G01*
X153925000Y-80166738D01*
G75*
G02*
X154196738Y-79895000I271738J0D01*
G01*
X154903262Y-79895000D01*
G75*
G02*
X155175000Y-80166738I0J-271738D01*
G01*
G37*
%TD*%
%TO.C,R8*%
G36*
G01*
X115726738Y-100975000D02*
X116683262Y-100975000D01*
G75*
G02*
X116955000Y-101246738I0J-271738D01*
G01*
X116955000Y-101953262D01*
G75*
G02*
X116683262Y-102225000I-271738J0D01*
G01*
X115726738Y-102225000D01*
G75*
G02*
X115455000Y-101953262I0J271738D01*
G01*
X115455000Y-101246738D01*
G75*
G02*
X115726738Y-100975000I271738J0D01*
G01*
G37*
G36*
G01*
X115726738Y-98925000D02*
X116683262Y-98925000D01*
G75*
G02*
X116955000Y-99196738I0J-271738D01*
G01*
X116955000Y-99903262D01*
G75*
G02*
X116683262Y-100175000I-271738J0D01*
G01*
X115726738Y-100175000D01*
G75*
G02*
X115455000Y-99903262I0J271738D01*
G01*
X115455000Y-99196738D01*
G75*
G02*
X115726738Y-98925000I271738J0D01*
G01*
G37*
%TD*%
%TO.C,R9*%
G36*
G01*
X115726738Y-104150000D02*
X116683262Y-104150000D01*
G75*
G02*
X116955000Y-104421738I0J-271738D01*
G01*
X116955000Y-105128262D01*
G75*
G02*
X116683262Y-105400000I-271738J0D01*
G01*
X115726738Y-105400000D01*
G75*
G02*
X115455000Y-105128262I0J271738D01*
G01*
X115455000Y-104421738D01*
G75*
G02*
X115726738Y-104150000I271738J0D01*
G01*
G37*
G36*
G01*
X115726738Y-106200000D02*
X116683262Y-106200000D01*
G75*
G02*
X116955000Y-106471738I0J-271738D01*
G01*
X116955000Y-107178262D01*
G75*
G02*
X116683262Y-107450000I-271738J0D01*
G01*
X115726738Y-107450000D01*
G75*
G02*
X115455000Y-107178262I0J271738D01*
G01*
X115455000Y-106471738D01*
G75*
G02*
X115726738Y-106200000I271738J0D01*
G01*
G37*
%TD*%
%TO.C,R10*%
G36*
G01*
X152535000Y-83976738D02*
X152535000Y-84933262D01*
G75*
G02*
X152263262Y-85205000I-271738J0D01*
G01*
X151556738Y-85205000D01*
G75*
G02*
X151285000Y-84933262I0J271738D01*
G01*
X151285000Y-83976738D01*
G75*
G02*
X151556738Y-83705000I271738J0D01*
G01*
X152263262Y-83705000D01*
G75*
G02*
X152535000Y-83976738I0J-271738D01*
G01*
G37*
G36*
G01*
X150485000Y-83976738D02*
X150485000Y-84933262D01*
G75*
G02*
X150213262Y-85205000I-271738J0D01*
G01*
X149506738Y-85205000D01*
G75*
G02*
X149235000Y-84933262I0J271738D01*
G01*
X149235000Y-83976738D01*
G75*
G02*
X149506738Y-83705000I271738J0D01*
G01*
X150213262Y-83705000D01*
G75*
G02*
X150485000Y-83976738I0J-271738D01*
G01*
G37*
%TD*%
%TO.C,R11*%
G36*
G01*
X135755000Y-106523262D02*
X135755000Y-105566738D01*
G75*
G02*
X136026738Y-105295000I271738J0D01*
G01*
X136733262Y-105295000D01*
G75*
G02*
X137005000Y-105566738I0J-271738D01*
G01*
X137005000Y-106523262D01*
G75*
G02*
X136733262Y-106795000I-271738J0D01*
G01*
X136026738Y-106795000D01*
G75*
G02*
X135755000Y-106523262I0J271738D01*
G01*
G37*
G36*
G01*
X137805000Y-106523262D02*
X137805000Y-105566738D01*
G75*
G02*
X138076738Y-105295000I271738J0D01*
G01*
X138783262Y-105295000D01*
G75*
G02*
X139055000Y-105566738I0J-271738D01*
G01*
X139055000Y-106523262D01*
G75*
G02*
X138783262Y-106795000I-271738J0D01*
G01*
X138076738Y-106795000D01*
G75*
G02*
X137805000Y-106523262I0J271738D01*
G01*
G37*
%TD*%
%TO.C,R12*%
G36*
G01*
X152410000Y-106523262D02*
X152410000Y-105566738D01*
G75*
G02*
X152681738Y-105295000I271738J0D01*
G01*
X153388262Y-105295000D01*
G75*
G02*
X153660000Y-105566738I0J-271738D01*
G01*
X153660000Y-106523262D01*
G75*
G02*
X153388262Y-106795000I-271738J0D01*
G01*
X152681738Y-106795000D01*
G75*
G02*
X152410000Y-106523262I0J271738D01*
G01*
G37*
G36*
G01*
X150360000Y-106523262D02*
X150360000Y-105566738D01*
G75*
G02*
X150631738Y-105295000I271738J0D01*
G01*
X151338262Y-105295000D01*
G75*
G02*
X151610000Y-105566738I0J-271738D01*
G01*
X151610000Y-106523262D01*
G75*
G02*
X151338262Y-106795000I-271738J0D01*
G01*
X150631738Y-106795000D01*
G75*
G02*
X150360000Y-106523262I0J271738D01*
G01*
G37*
%TD*%
%TO.C,R13*%
G36*
G01*
X175760000Y-27148262D02*
X175760000Y-26191738D01*
G75*
G02*
X176031738Y-25920000I271738J0D01*
G01*
X176738262Y-25920000D01*
G75*
G02*
X177010000Y-26191738I0J-271738D01*
G01*
X177010000Y-27148262D01*
G75*
G02*
X176738262Y-27420000I-271738J0D01*
G01*
X176031738Y-27420000D01*
G75*
G02*
X175760000Y-27148262I0J271738D01*
G01*
G37*
G36*
G01*
X177810000Y-27148262D02*
X177810000Y-26191738D01*
G75*
G02*
X178081738Y-25920000I271738J0D01*
G01*
X178788262Y-25920000D01*
G75*
G02*
X179060000Y-26191738I0J-271738D01*
G01*
X179060000Y-27148262D01*
G75*
G02*
X178788262Y-27420000I-271738J0D01*
G01*
X178081738Y-27420000D01*
G75*
G02*
X177810000Y-27148262I0J271738D01*
G01*
G37*
%TD*%
%TO.C,R14*%
G36*
G01*
X196350000Y-26191738D02*
X196350000Y-27148262D01*
G75*
G02*
X196078262Y-27420000I-271738J0D01*
G01*
X195371738Y-27420000D01*
G75*
G02*
X195100000Y-27148262I0J271738D01*
G01*
X195100000Y-26191738D01*
G75*
G02*
X195371738Y-25920000I271738J0D01*
G01*
X196078262Y-25920000D01*
G75*
G02*
X196350000Y-26191738I0J-271738D01*
G01*
G37*
G36*
G01*
X194300000Y-26191738D02*
X194300000Y-27148262D01*
G75*
G02*
X194028262Y-27420000I-271738J0D01*
G01*
X193321738Y-27420000D01*
G75*
G02*
X193050000Y-27148262I0J271738D01*
G01*
X193050000Y-26191738D01*
G75*
G02*
X193321738Y-25920000I271738J0D01*
G01*
X194028262Y-25920000D01*
G75*
G02*
X194300000Y-26191738I0J-271738D01*
G01*
G37*
%TD*%
%TO.C,R15*%
G36*
G01*
X148111738Y-64145000D02*
X149068262Y-64145000D01*
G75*
G02*
X149340000Y-64416738I0J-271738D01*
G01*
X149340000Y-65123262D01*
G75*
G02*
X149068262Y-65395000I-271738J0D01*
G01*
X148111738Y-65395000D01*
G75*
G02*
X147840000Y-65123262I0J271738D01*
G01*
X147840000Y-64416738D01*
G75*
G02*
X148111738Y-64145000I271738J0D01*
G01*
G37*
G36*
G01*
X148111738Y-62095000D02*
X149068262Y-62095000D01*
G75*
G02*
X149340000Y-62366738I0J-271738D01*
G01*
X149340000Y-63073262D01*
G75*
G02*
X149068262Y-63345000I-271738J0D01*
G01*
X148111738Y-63345000D01*
G75*
G02*
X147840000Y-63073262I0J271738D01*
G01*
X147840000Y-62366738D01*
G75*
G02*
X148111738Y-62095000I271738J0D01*
G01*
G37*
%TD*%
%TO.C,R16*%
G36*
G01*
X117631738Y-21745000D02*
X118588262Y-21745000D01*
G75*
G02*
X118860000Y-22016738I0J-271738D01*
G01*
X118860000Y-22723262D01*
G75*
G02*
X118588262Y-22995000I-271738J0D01*
G01*
X117631738Y-22995000D01*
G75*
G02*
X117360000Y-22723262I0J271738D01*
G01*
X117360000Y-22016738D01*
G75*
G02*
X117631738Y-21745000I271738J0D01*
G01*
G37*
G36*
G01*
X117631738Y-19695000D02*
X118588262Y-19695000D01*
G75*
G02*
X118860000Y-19966738I0J-271738D01*
G01*
X118860000Y-20673262D01*
G75*
G02*
X118588262Y-20945000I-271738J0D01*
G01*
X117631738Y-20945000D01*
G75*
G02*
X117360000Y-20673262I0J271738D01*
G01*
X117360000Y-19966738D01*
G75*
G02*
X117631738Y-19695000I271738J0D01*
G01*
G37*
%TD*%
M02*
