%TF.GenerationSoftware,KiCad,Pcbnew,(5.1.6)-1*%
%TF.CreationDate,2021-04-27T14:52:06-04:00*%
%TF.ProjectId,TSI_Rev.5,5453495f-5265-4762-9e35-2e6b69636164,rev?*%
%TF.SameCoordinates,Original*%
%TF.FileFunction,Legend,Bot*%
%TF.FilePolarity,Positive*%
%FSLAX46Y46*%
G04 Gerber Fmt 4.6, Leading zero omitted, Abs format (unit mm)*
G04 Created by KiCad (PCBNEW (5.1.6)-1) date 2021-04-27 14:52:06*
%MOMM*%
%LPD*%
G01*
G04 APERTURE LIST*
%ADD10C,0.300000*%
%ADD11C,0.150000*%
%ADD12C,0.010000*%
G04 APERTURE END LIST*
D10*
X239993428Y-216832571D02*
X239993428Y-215332571D01*
X239493428Y-216404000D01*
X238993428Y-215332571D01*
X238993428Y-216832571D01*
X237636285Y-216832571D02*
X237636285Y-216046857D01*
X237707714Y-215904000D01*
X237850571Y-215832571D01*
X238136285Y-215832571D01*
X238279142Y-215904000D01*
X237636285Y-216761142D02*
X237779142Y-216832571D01*
X238136285Y-216832571D01*
X238279142Y-216761142D01*
X238350571Y-216618285D01*
X238350571Y-216475428D01*
X238279142Y-216332571D01*
X238136285Y-216261142D01*
X237779142Y-216261142D01*
X237636285Y-216189714D01*
X236279142Y-216832571D02*
X236279142Y-215332571D01*
X236279142Y-216761142D02*
X236422000Y-216832571D01*
X236707714Y-216832571D01*
X236850571Y-216761142D01*
X236922000Y-216689714D01*
X236993428Y-216546857D01*
X236993428Y-216118285D01*
X236922000Y-215975428D01*
X236850571Y-215904000D01*
X236707714Y-215832571D01*
X236422000Y-215832571D01*
X236279142Y-215904000D01*
X234993428Y-216761142D02*
X235136285Y-216832571D01*
X235422000Y-216832571D01*
X235564857Y-216761142D01*
X235636285Y-216618285D01*
X235636285Y-216046857D01*
X235564857Y-215904000D01*
X235422000Y-215832571D01*
X235136285Y-215832571D01*
X234993428Y-215904000D01*
X234922000Y-216046857D01*
X234922000Y-216189714D01*
X235636285Y-216332571D01*
X233136285Y-216832571D02*
X233136285Y-215832571D01*
X233136285Y-215332571D02*
X233207714Y-215404000D01*
X233136285Y-215475428D01*
X233064857Y-215404000D01*
X233136285Y-215332571D01*
X233136285Y-215475428D01*
X232422000Y-215832571D02*
X232422000Y-216832571D01*
X232422000Y-215975428D02*
X232350571Y-215904000D01*
X232207714Y-215832571D01*
X231993428Y-215832571D01*
X231850571Y-215904000D01*
X231779142Y-216046857D01*
X231779142Y-216832571D01*
X229922000Y-215332571D02*
X229922000Y-216546857D01*
X229850571Y-216689714D01*
X229779142Y-216761142D01*
X229636285Y-216832571D01*
X229350571Y-216832571D01*
X229207714Y-216761142D01*
X229136285Y-216689714D01*
X229064857Y-216546857D01*
X229064857Y-215332571D01*
X228422000Y-216761142D02*
X228207714Y-216832571D01*
X227850571Y-216832571D01*
X227707714Y-216761142D01*
X227636285Y-216689714D01*
X227564857Y-216546857D01*
X227564857Y-216404000D01*
X227636285Y-216261142D01*
X227707714Y-216189714D01*
X227850571Y-216118285D01*
X228136285Y-216046857D01*
X228279142Y-215975428D01*
X228350571Y-215904000D01*
X228422000Y-215761142D01*
X228422000Y-215618285D01*
X228350571Y-215475428D01*
X228279142Y-215404000D01*
X228136285Y-215332571D01*
X227779142Y-215332571D01*
X227564857Y-215404000D01*
X226993428Y-216404000D02*
X226279142Y-216404000D01*
X227136285Y-216832571D02*
X226636285Y-215332571D01*
X226136285Y-216832571D01*
X302742285Y-215840571D02*
X301885142Y-215840571D01*
X302313714Y-217340571D02*
X302313714Y-215840571D01*
X301456571Y-217269142D02*
X301242285Y-217340571D01*
X300885142Y-217340571D01*
X300742285Y-217269142D01*
X300670857Y-217197714D01*
X300599428Y-217054857D01*
X300599428Y-216912000D01*
X300670857Y-216769142D01*
X300742285Y-216697714D01*
X300885142Y-216626285D01*
X301170857Y-216554857D01*
X301313714Y-216483428D01*
X301385142Y-216412000D01*
X301456571Y-216269142D01*
X301456571Y-216126285D01*
X301385142Y-215983428D01*
X301313714Y-215912000D01*
X301170857Y-215840571D01*
X300813714Y-215840571D01*
X300599428Y-215912000D01*
X299956571Y-217340571D02*
X299956571Y-215840571D01*
X297242285Y-217340571D02*
X297742285Y-216626285D01*
X298099428Y-217340571D02*
X298099428Y-215840571D01*
X297528000Y-215840571D01*
X297385142Y-215912000D01*
X297313714Y-215983428D01*
X297242285Y-216126285D01*
X297242285Y-216340571D01*
X297313714Y-216483428D01*
X297385142Y-216554857D01*
X297528000Y-216626285D01*
X298099428Y-216626285D01*
X296028000Y-217269142D02*
X296170857Y-217340571D01*
X296456571Y-217340571D01*
X296599428Y-217269142D01*
X296670857Y-217126285D01*
X296670857Y-216554857D01*
X296599428Y-216412000D01*
X296456571Y-216340571D01*
X296170857Y-216340571D01*
X296028000Y-216412000D01*
X295956571Y-216554857D01*
X295956571Y-216697714D01*
X296670857Y-216840571D01*
X295456571Y-216340571D02*
X295099428Y-217340571D01*
X294742285Y-216340571D01*
X294170857Y-217340571D02*
X294170857Y-216340571D01*
X294170857Y-215840571D02*
X294242285Y-215912000D01*
X294170857Y-215983428D01*
X294099428Y-215912000D01*
X294170857Y-215840571D01*
X294170857Y-215983428D01*
X293528000Y-217269142D02*
X293385142Y-217340571D01*
X293099428Y-217340571D01*
X292956571Y-217269142D01*
X292885142Y-217126285D01*
X292885142Y-217054857D01*
X292956571Y-216912000D01*
X293099428Y-216840571D01*
X293313714Y-216840571D01*
X293456571Y-216769142D01*
X293528000Y-216626285D01*
X293528000Y-216554857D01*
X293456571Y-216412000D01*
X293313714Y-216340571D01*
X293099428Y-216340571D01*
X292956571Y-216412000D01*
X292242285Y-217340571D02*
X292242285Y-216340571D01*
X292242285Y-215840571D02*
X292313714Y-215912000D01*
X292242285Y-215983428D01*
X292170857Y-215912000D01*
X292242285Y-215840571D01*
X292242285Y-215983428D01*
X291313714Y-217340571D02*
X291456571Y-217269142D01*
X291528000Y-217197714D01*
X291599428Y-217054857D01*
X291599428Y-216626285D01*
X291528000Y-216483428D01*
X291456571Y-216412000D01*
X291313714Y-216340571D01*
X291099428Y-216340571D01*
X290956571Y-216412000D01*
X290885142Y-216483428D01*
X290813714Y-216626285D01*
X290813714Y-217054857D01*
X290885142Y-217197714D01*
X290956571Y-217269142D01*
X291099428Y-217340571D01*
X291313714Y-217340571D01*
X290170857Y-216340571D02*
X290170857Y-217340571D01*
X290170857Y-216483428D02*
X290099428Y-216412000D01*
X289956571Y-216340571D01*
X289742285Y-216340571D01*
X289599428Y-216412000D01*
X289528000Y-216554857D01*
X289528000Y-217340571D01*
X287028000Y-215840571D02*
X287313714Y-215840571D01*
X287456571Y-215912000D01*
X287528000Y-215983428D01*
X287670857Y-216197714D01*
X287742285Y-216483428D01*
X287742285Y-217054857D01*
X287670857Y-217197714D01*
X287599428Y-217269142D01*
X287456571Y-217340571D01*
X287170857Y-217340571D01*
X287028000Y-217269142D01*
X286956571Y-217197714D01*
X286885142Y-217054857D01*
X286885142Y-216697714D01*
X286956571Y-216554857D01*
X287028000Y-216483428D01*
X287170857Y-216412000D01*
X287456571Y-216412000D01*
X287599428Y-216483428D01*
X287670857Y-216554857D01*
X287742285Y-216697714D01*
X285099428Y-216769142D02*
X283956571Y-216769142D01*
X281456571Y-216340571D02*
X281456571Y-217340571D01*
X281813714Y-215769142D02*
X282170857Y-216840571D01*
X281242285Y-216840571D01*
X279599428Y-215769142D02*
X280885142Y-217697714D01*
X279170857Y-215983428D02*
X279099428Y-215912000D01*
X278956571Y-215840571D01*
X278599428Y-215840571D01*
X278456571Y-215912000D01*
X278385142Y-215983428D01*
X278313714Y-216126285D01*
X278313714Y-216269142D01*
X278385142Y-216483428D01*
X279242285Y-217340571D01*
X278313714Y-217340571D01*
X277813714Y-215840571D02*
X276813714Y-215840571D01*
X277456571Y-217340571D01*
X275170857Y-215769142D02*
X276456571Y-217697714D01*
X274742285Y-215983428D02*
X274670857Y-215912000D01*
X274528000Y-215840571D01*
X274170857Y-215840571D01*
X274028000Y-215912000D01*
X273956571Y-215983428D01*
X273885142Y-216126285D01*
X273885142Y-216269142D01*
X273956571Y-216483428D01*
X274813714Y-217340571D01*
X273885142Y-217340571D01*
X272456571Y-217340571D02*
X273313714Y-217340571D01*
X272885142Y-217340571D02*
X272885142Y-215840571D01*
X273028000Y-216054857D01*
X273170857Y-216197714D01*
X273313714Y-216269142D01*
X206029428Y-208466571D02*
X205243714Y-208466571D01*
X206029428Y-209466571D01*
X205243714Y-209466571D01*
X204029428Y-209466571D02*
X204029428Y-208680857D01*
X204100857Y-208538000D01*
X204243714Y-208466571D01*
X204529428Y-208466571D01*
X204672285Y-208538000D01*
X204029428Y-209395142D02*
X204172285Y-209466571D01*
X204529428Y-209466571D01*
X204672285Y-209395142D01*
X204743714Y-209252285D01*
X204743714Y-209109428D01*
X204672285Y-208966571D01*
X204529428Y-208895142D01*
X204172285Y-208895142D01*
X204029428Y-208823714D01*
X202672285Y-209395142D02*
X202815142Y-209466571D01*
X203100857Y-209466571D01*
X203243714Y-209395142D01*
X203315142Y-209323714D01*
X203386571Y-209180857D01*
X203386571Y-208752285D01*
X203315142Y-208609428D01*
X203243714Y-208538000D01*
X203100857Y-208466571D01*
X202815142Y-208466571D01*
X202672285Y-208538000D01*
X202029428Y-209466571D02*
X202029428Y-207966571D01*
X201886571Y-208895142D02*
X201458000Y-209466571D01*
X201458000Y-208466571D02*
X202029428Y-209038000D01*
D11*
X118939128Y-216101680D02*
X118272461Y-216101680D01*
X118939128Y-217101680D01*
X118272461Y-217101680D01*
X117462938Y-217101680D02*
X117462938Y-216577871D01*
X117510557Y-216482633D01*
X117605795Y-216435014D01*
X117796271Y-216435014D01*
X117891509Y-216482633D01*
X117462938Y-217054061D02*
X117558176Y-217101680D01*
X117796271Y-217101680D01*
X117891509Y-217054061D01*
X117939128Y-216958823D01*
X117939128Y-216863585D01*
X117891509Y-216768347D01*
X117796271Y-216720728D01*
X117558176Y-216720728D01*
X117462938Y-216673109D01*
X116558176Y-217054061D02*
X116653414Y-217101680D01*
X116843890Y-217101680D01*
X116939128Y-217054061D01*
X116986747Y-217006442D01*
X117034366Y-216911204D01*
X117034366Y-216625490D01*
X116986747Y-216530252D01*
X116939128Y-216482633D01*
X116843890Y-216435014D01*
X116653414Y-216435014D01*
X116558176Y-216482633D01*
X116129604Y-217101680D02*
X116129604Y-216101680D01*
X116034366Y-216720728D02*
X115748652Y-217101680D01*
X115748652Y-216435014D02*
X116129604Y-216815966D01*
X115415319Y-216435014D02*
X115177223Y-217101680D01*
X114939128Y-216435014D02*
X115177223Y-217101680D01*
X115272461Y-217339776D01*
X115320080Y-217387395D01*
X115415319Y-217435014D01*
X113462938Y-216577871D02*
X113320080Y-216625490D01*
X113272461Y-216673109D01*
X113224842Y-216768347D01*
X113224842Y-216911204D01*
X113272461Y-217006442D01*
X113320080Y-217054061D01*
X113415319Y-217101680D01*
X113796271Y-217101680D01*
X113796271Y-216101680D01*
X113462938Y-216101680D01*
X113367700Y-216149300D01*
X113320080Y-216196919D01*
X113272461Y-216292157D01*
X113272461Y-216387395D01*
X113320080Y-216482633D01*
X113367700Y-216530252D01*
X113462938Y-216577871D01*
X113796271Y-216577871D01*
X112415319Y-217054061D02*
X112510557Y-217101680D01*
X112701033Y-217101680D01*
X112796271Y-217054061D01*
X112843890Y-216958823D01*
X112843890Y-216577871D01*
X112796271Y-216482633D01*
X112701033Y-216435014D01*
X112510557Y-216435014D01*
X112415319Y-216482633D01*
X112367700Y-216577871D01*
X112367700Y-216673109D01*
X112843890Y-216768347D01*
X111510557Y-217101680D02*
X111510557Y-216577871D01*
X111558176Y-216482633D01*
X111653414Y-216435014D01*
X111843890Y-216435014D01*
X111939128Y-216482633D01*
X111510557Y-217054061D02*
X111605795Y-217101680D01*
X111843890Y-217101680D01*
X111939128Y-217054061D01*
X111986747Y-216958823D01*
X111986747Y-216863585D01*
X111939128Y-216768347D01*
X111843890Y-216720728D01*
X111605795Y-216720728D01*
X111510557Y-216673109D01*
X111034366Y-217101680D02*
X111034366Y-216435014D01*
X111034366Y-216625490D02*
X110986747Y-216530252D01*
X110939128Y-216482633D01*
X110843890Y-216435014D01*
X110748652Y-216435014D01*
X109653414Y-217101680D02*
X109653414Y-216101680D01*
X109415319Y-216101680D01*
X109272461Y-216149300D01*
X109177223Y-216244538D01*
X109129604Y-216339776D01*
X109081985Y-216530252D01*
X109081985Y-216673109D01*
X109129604Y-216863585D01*
X109177223Y-216958823D01*
X109272461Y-217054061D01*
X109415319Y-217101680D01*
X109653414Y-217101680D01*
X108510557Y-217101680D02*
X108605795Y-217054061D01*
X108653414Y-217006442D01*
X108701033Y-216911204D01*
X108701033Y-216625490D01*
X108653414Y-216530252D01*
X108605795Y-216482633D01*
X108510557Y-216435014D01*
X108367700Y-216435014D01*
X108272461Y-216482633D01*
X108224842Y-216530252D01*
X108177223Y-216625490D01*
X108177223Y-216911204D01*
X108224842Y-217006442D01*
X108272461Y-217054061D01*
X108367700Y-217101680D01*
X108510557Y-217101680D01*
X107367700Y-217054061D02*
X107462938Y-217101680D01*
X107653414Y-217101680D01*
X107748652Y-217054061D01*
X107796271Y-216958823D01*
X107796271Y-216577871D01*
X107748652Y-216482633D01*
X107653414Y-216435014D01*
X107462938Y-216435014D01*
X107367700Y-216482633D01*
X107320080Y-216577871D01*
X107320080Y-216673109D01*
X107796271Y-216768347D01*
X106939128Y-217054061D02*
X106843890Y-217101680D01*
X106653414Y-217101680D01*
X106558176Y-217054061D01*
X106510557Y-216958823D01*
X106510557Y-216911204D01*
X106558176Y-216815966D01*
X106653414Y-216768347D01*
X106796271Y-216768347D01*
X106891509Y-216720728D01*
X106939128Y-216625490D01*
X106939128Y-216577871D01*
X106891509Y-216482633D01*
X106796271Y-216435014D01*
X106653414Y-216435014D01*
X106558176Y-216482633D01*
X106081985Y-216435014D02*
X106081985Y-217101680D01*
X106081985Y-216530252D02*
X106034366Y-216482633D01*
X105939128Y-216435014D01*
X105796271Y-216435014D01*
X105701033Y-216482633D01*
X105653414Y-216577871D01*
X105653414Y-217101680D01*
X105129604Y-216101680D02*
X105224842Y-216292157D01*
X104843890Y-216435014D02*
X104462938Y-216435014D01*
X104701033Y-216101680D02*
X104701033Y-216958823D01*
X104653414Y-217054061D01*
X104558176Y-217101680D01*
X104462938Y-217101680D01*
X102891509Y-217101680D02*
X103367700Y-217101680D01*
X103367700Y-216101680D01*
X102558176Y-217101680D02*
X102558176Y-216435014D01*
X102558176Y-216101680D02*
X102605795Y-216149300D01*
X102558176Y-216196919D01*
X102510557Y-216149300D01*
X102558176Y-216101680D01*
X102558176Y-216196919D01*
X102081985Y-217101680D02*
X102081985Y-216101680D01*
X101986747Y-216720728D02*
X101701033Y-217101680D01*
X101701033Y-216435014D02*
X102081985Y-216815966D01*
X100891509Y-217054061D02*
X100986747Y-217101680D01*
X101177223Y-217101680D01*
X101272461Y-217054061D01*
X101320080Y-216958823D01*
X101320080Y-216577871D01*
X101272461Y-216482633D01*
X101177223Y-216435014D01*
X100986747Y-216435014D01*
X100891509Y-216482633D01*
X100843890Y-216577871D01*
X100843890Y-216673109D01*
X101320080Y-216768347D01*
D12*
%TO.C,G\u002A\u002A\u002A*%
G36*
X297544884Y-176056405D02*
G01*
X297395009Y-176127800D01*
X297377768Y-176154691D01*
X297369520Y-176313788D01*
X297453460Y-176390820D01*
X297577297Y-176346500D01*
X297600356Y-176321921D01*
X297788025Y-176216098D01*
X298061946Y-176201861D01*
X298365812Y-176279416D01*
X298450954Y-176318826D01*
X298694295Y-176527215D01*
X298819646Y-176810331D01*
X298832391Y-177126912D01*
X298737909Y-177435696D01*
X298541582Y-177695420D01*
X298249353Y-177864639D01*
X298002534Y-177925669D01*
X297812891Y-177906288D01*
X297664845Y-177843472D01*
X297469127Y-177748158D01*
X297388861Y-177730721D01*
X297386730Y-177795999D01*
X297407421Y-177876839D01*
X297527816Y-178032170D01*
X297761633Y-178117954D01*
X298065491Y-178128572D01*
X298396010Y-178058403D01*
X298499515Y-178018320D01*
X298837539Y-177790147D01*
X299054682Y-177468728D01*
X299127334Y-177107044D01*
X299061241Y-176690861D01*
X298875319Y-176354776D01*
X298622105Y-176150433D01*
X298384006Y-176069632D01*
X298090815Y-176027145D01*
X297793963Y-176022794D01*
X297544884Y-176056405D01*
G37*
X297544884Y-176056405D02*
X297395009Y-176127800D01*
X297377768Y-176154691D01*
X297369520Y-176313788D01*
X297453460Y-176390820D01*
X297577297Y-176346500D01*
X297600356Y-176321921D01*
X297788025Y-176216098D01*
X298061946Y-176201861D01*
X298365812Y-176279416D01*
X298450954Y-176318826D01*
X298694295Y-176527215D01*
X298819646Y-176810331D01*
X298832391Y-177126912D01*
X298737909Y-177435696D01*
X298541582Y-177695420D01*
X298249353Y-177864639D01*
X298002534Y-177925669D01*
X297812891Y-177906288D01*
X297664845Y-177843472D01*
X297469127Y-177748158D01*
X297388861Y-177730721D01*
X297386730Y-177795999D01*
X297407421Y-177876839D01*
X297527816Y-178032170D01*
X297761633Y-178117954D01*
X298065491Y-178128572D01*
X298396010Y-178058403D01*
X298499515Y-178018320D01*
X298837539Y-177790147D01*
X299054682Y-177468728D01*
X299127334Y-177107044D01*
X299061241Y-176690861D01*
X298875319Y-176354776D01*
X298622105Y-176150433D01*
X298384006Y-176069632D01*
X298090815Y-176027145D01*
X297793963Y-176022794D01*
X297544884Y-176056405D01*
G36*
X295870350Y-176073987D02*
G01*
X295573191Y-176240763D01*
X295359184Y-176530935D01*
X295234911Y-176936770D01*
X295266245Y-177335166D01*
X295442123Y-177691179D01*
X295751478Y-177969865D01*
X295828605Y-178013358D01*
X296165521Y-178125974D01*
X296496625Y-178093420D01*
X296753713Y-177982742D01*
X297077314Y-177725780D01*
X297265188Y-177395709D01*
X297294049Y-177172649D01*
X297001772Y-177172649D01*
X296885449Y-177542555D01*
X296762904Y-177734349D01*
X296612676Y-177834291D01*
X296376322Y-177872860D01*
X296242259Y-177877982D01*
X295939706Y-177825157D01*
X295761702Y-177694167D01*
X295559335Y-177364012D01*
X295517675Y-176986439D01*
X295569763Y-176746425D01*
X295742572Y-176432917D01*
X295991128Y-176242591D01*
X296279117Y-176184202D01*
X296570222Y-176266509D01*
X296791474Y-176451829D01*
X296972722Y-176790471D01*
X297001772Y-177172649D01*
X297294049Y-177172649D01*
X297312991Y-177026252D01*
X297216377Y-176651132D01*
X296971003Y-176304070D01*
X296970123Y-176303189D01*
X296763889Y-176124399D01*
X296565345Y-176042284D01*
X296288515Y-176022017D01*
X296275973Y-176022000D01*
X295870350Y-176073987D01*
G37*
X295870350Y-176073987D02*
X295573191Y-176240763D01*
X295359184Y-176530935D01*
X295234911Y-176936770D01*
X295266245Y-177335166D01*
X295442123Y-177691179D01*
X295751478Y-177969865D01*
X295828605Y-178013358D01*
X296165521Y-178125974D01*
X296496625Y-178093420D01*
X296753713Y-177982742D01*
X297077314Y-177725780D01*
X297265188Y-177395709D01*
X297294049Y-177172649D01*
X297001772Y-177172649D01*
X296885449Y-177542555D01*
X296762904Y-177734349D01*
X296612676Y-177834291D01*
X296376322Y-177872860D01*
X296242259Y-177877982D01*
X295939706Y-177825157D01*
X295761702Y-177694167D01*
X295559335Y-177364012D01*
X295517675Y-176986439D01*
X295569763Y-176746425D01*
X295742572Y-176432917D01*
X295991128Y-176242591D01*
X296279117Y-176184202D01*
X296570222Y-176266509D01*
X296791474Y-176451829D01*
X296972722Y-176790471D01*
X297001772Y-177172649D01*
X297294049Y-177172649D01*
X297312991Y-177026252D01*
X297216377Y-176651132D01*
X296971003Y-176304070D01*
X296970123Y-176303189D01*
X296763889Y-176124399D01*
X296565345Y-176042284D01*
X296288515Y-176022017D01*
X296275973Y-176022000D01*
X295870350Y-176073987D01*
G36*
X288823478Y-176027142D02*
G01*
X288739454Y-176065061D01*
X288714818Y-176146664D01*
X288713334Y-176224112D01*
X288732937Y-176404032D01*
X288806039Y-176426708D01*
X288937096Y-176318333D01*
X289105682Y-176231172D01*
X289343072Y-176191556D01*
X289360894Y-176191333D01*
X289679319Y-176266015D01*
X289931373Y-176463383D01*
X290097601Y-176743419D01*
X290158552Y-177066105D01*
X290094772Y-177391424D01*
X290014602Y-177536105D01*
X289821020Y-177719470D01*
X289556918Y-177862353D01*
X289290412Y-177934789D01*
X289130452Y-177925027D01*
X289025810Y-177832592D01*
X288968688Y-177679472D01*
X288970533Y-177533325D01*
X289042790Y-177461805D01*
X289052000Y-177461333D01*
X289134207Y-177396904D01*
X289136667Y-177376667D01*
X289062238Y-177320704D01*
X288879224Y-177292731D01*
X288840334Y-177292000D01*
X288644466Y-177313265D01*
X288546560Y-177365555D01*
X288544000Y-177376667D01*
X288608430Y-177458873D01*
X288628667Y-177461333D01*
X288685444Y-177535567D01*
X288712873Y-177717266D01*
X288713334Y-177747083D01*
X288733703Y-177948051D01*
X288827492Y-178044198D01*
X288977917Y-178085750D01*
X289271918Y-178129784D01*
X289503255Y-178112464D01*
X289761917Y-178022853D01*
X289862757Y-177978214D01*
X290195504Y-177746648D01*
X290397253Y-177433883D01*
X290462065Y-177072883D01*
X290384000Y-176696616D01*
X290158047Y-176339084D01*
X290015167Y-176195983D01*
X289869990Y-176111188D01*
X289668743Y-176065407D01*
X289357656Y-176039347D01*
X289315919Y-176036940D01*
X289003447Y-176021554D01*
X288823478Y-176027142D01*
G37*
X288823478Y-176027142D02*
X288739454Y-176065061D01*
X288714818Y-176146664D01*
X288713334Y-176224112D01*
X288732937Y-176404032D01*
X288806039Y-176426708D01*
X288937096Y-176318333D01*
X289105682Y-176231172D01*
X289343072Y-176191556D01*
X289360894Y-176191333D01*
X289679319Y-176266015D01*
X289931373Y-176463383D01*
X290097601Y-176743419D01*
X290158552Y-177066105D01*
X290094772Y-177391424D01*
X290014602Y-177536105D01*
X289821020Y-177719470D01*
X289556918Y-177862353D01*
X289290412Y-177934789D01*
X289130452Y-177925027D01*
X289025810Y-177832592D01*
X288968688Y-177679472D01*
X288970533Y-177533325D01*
X289042790Y-177461805D01*
X289052000Y-177461333D01*
X289134207Y-177396904D01*
X289136667Y-177376667D01*
X289062238Y-177320704D01*
X288879224Y-177292731D01*
X288840334Y-177292000D01*
X288644466Y-177313265D01*
X288546560Y-177365555D01*
X288544000Y-177376667D01*
X288608430Y-177458873D01*
X288628667Y-177461333D01*
X288685444Y-177535567D01*
X288712873Y-177717266D01*
X288713334Y-177747083D01*
X288733703Y-177948051D01*
X288827492Y-178044198D01*
X288977917Y-178085750D01*
X289271918Y-178129784D01*
X289503255Y-178112464D01*
X289761917Y-178022853D01*
X289862757Y-177978214D01*
X290195504Y-177746648D01*
X290397253Y-177433883D01*
X290462065Y-177072883D01*
X290384000Y-176696616D01*
X290158047Y-176339084D01*
X290015167Y-176195983D01*
X289869990Y-176111188D01*
X289668743Y-176065407D01*
X289357656Y-176039347D01*
X289315919Y-176036940D01*
X289003447Y-176021554D01*
X288823478Y-176027142D01*
G36*
X294539781Y-176038816D02*
G01*
X294403483Y-176081364D01*
X294386000Y-176106667D01*
X294454577Y-176181781D01*
X294513000Y-176191333D01*
X294572223Y-176219311D01*
X294610245Y-176321814D01*
X294631245Y-176526693D01*
X294639399Y-176861801D01*
X294640000Y-177038000D01*
X294640000Y-177884667D01*
X294404839Y-177884667D01*
X294151393Y-177834651D01*
X293976031Y-177749031D01*
X293806012Y-177652599D01*
X293739328Y-177685916D01*
X293761599Y-177857005D01*
X293764233Y-177867197D01*
X293802047Y-177960845D01*
X293879741Y-178016631D01*
X294034551Y-178044238D01*
X294303711Y-178053351D01*
X294482494Y-178054000D01*
X295151904Y-178054000D01*
X295013937Y-177843436D01*
X294950942Y-177664820D01*
X294912919Y-177391031D01*
X294899032Y-177068287D01*
X294908445Y-176742803D01*
X294940320Y-176460799D01*
X294993823Y-176268490D01*
X295043455Y-176212070D01*
X295153031Y-176144809D01*
X295116831Y-176080358D01*
X294957909Y-176034568D01*
X294767000Y-176022000D01*
X294539781Y-176038816D01*
G37*
X294539781Y-176038816D02*
X294403483Y-176081364D01*
X294386000Y-176106667D01*
X294454577Y-176181781D01*
X294513000Y-176191333D01*
X294572223Y-176219311D01*
X294610245Y-176321814D01*
X294631245Y-176526693D01*
X294639399Y-176861801D01*
X294640000Y-177038000D01*
X294640000Y-177884667D01*
X294404839Y-177884667D01*
X294151393Y-177834651D01*
X293976031Y-177749031D01*
X293806012Y-177652599D01*
X293739328Y-177685916D01*
X293761599Y-177857005D01*
X293764233Y-177867197D01*
X293802047Y-177960845D01*
X293879741Y-178016631D01*
X294034551Y-178044238D01*
X294303711Y-178053351D01*
X294482494Y-178054000D01*
X295151904Y-178054000D01*
X295013937Y-177843436D01*
X294950942Y-177664820D01*
X294912919Y-177391031D01*
X294899032Y-177068287D01*
X294908445Y-176742803D01*
X294940320Y-176460799D01*
X294993823Y-176268490D01*
X295043455Y-176212070D01*
X295153031Y-176144809D01*
X295116831Y-176080358D01*
X294957909Y-176034568D01*
X294767000Y-176022000D01*
X294539781Y-176038816D01*
G36*
X292994418Y-176042704D02*
G01*
X292871054Y-176096039D01*
X292889327Y-176168833D01*
X292992197Y-176223177D01*
X293054352Y-176276499D01*
X293090460Y-176398667D01*
X293104500Y-176621061D01*
X293100452Y-176975058D01*
X293098030Y-177057736D01*
X293073667Y-177842333D01*
X292835361Y-177869652D01*
X292583057Y-177843245D01*
X292390861Y-177761867D01*
X292236225Y-177687078D01*
X292187733Y-177741141D01*
X292236059Y-177920075D01*
X292296266Y-177988981D01*
X292433656Y-178029841D01*
X292681087Y-178048476D01*
X292976892Y-178051307D01*
X293311727Y-178046526D01*
X293501212Y-178032034D01*
X293569270Y-178002741D01*
X293539823Y-177953559D01*
X293518167Y-177936140D01*
X293443347Y-177799499D01*
X293391117Y-177550587D01*
X293362043Y-177235235D01*
X293356690Y-176899273D01*
X293375626Y-176588535D01*
X293419416Y-176348850D01*
X293488625Y-176226051D01*
X293497000Y-176221951D01*
X293619762Y-176144068D01*
X293590119Y-176076309D01*
X293424968Y-176031977D01*
X293243000Y-176022000D01*
X292994418Y-176042704D01*
G37*
X292994418Y-176042704D02*
X292871054Y-176096039D01*
X292889327Y-176168833D01*
X292992197Y-176223177D01*
X293054352Y-176276499D01*
X293090460Y-176398667D01*
X293104500Y-176621061D01*
X293100452Y-176975058D01*
X293098030Y-177057736D01*
X293073667Y-177842333D01*
X292835361Y-177869652D01*
X292583057Y-177843245D01*
X292390861Y-177761867D01*
X292236225Y-177687078D01*
X292187733Y-177741141D01*
X292236059Y-177920075D01*
X292296266Y-177988981D01*
X292433656Y-178029841D01*
X292681087Y-178048476D01*
X292976892Y-178051307D01*
X293311727Y-178046526D01*
X293501212Y-178032034D01*
X293569270Y-178002741D01*
X293539823Y-177953559D01*
X293518167Y-177936140D01*
X293443347Y-177799499D01*
X293391117Y-177550587D01*
X293362043Y-177235235D01*
X293356690Y-176899273D01*
X293375626Y-176588535D01*
X293419416Y-176348850D01*
X293488625Y-176226051D01*
X293497000Y-176221951D01*
X293619762Y-176144068D01*
X293590119Y-176076309D01*
X293424968Y-176031977D01*
X293243000Y-176022000D01*
X292994418Y-176042704D01*
G36*
X291002071Y-176024255D02*
G01*
X290800923Y-176038220D01*
X290700008Y-176074690D01*
X290664777Y-176144462D01*
X290660667Y-176233667D01*
X290665364Y-176384031D01*
X290708408Y-176431595D01*
X290833236Y-176387847D01*
X290976289Y-176317139D01*
X291244647Y-176229002D01*
X291418493Y-176281000D01*
X291500052Y-176474287D01*
X291507334Y-176592540D01*
X291507334Y-176890962D01*
X291168667Y-176845538D01*
X290952138Y-176825805D01*
X290855004Y-176858764D01*
X290830359Y-176965207D01*
X290830000Y-176995667D01*
X290846124Y-177118533D01*
X290925766Y-177163938D01*
X291115833Y-177152675D01*
X291168667Y-177145795D01*
X291507334Y-177100371D01*
X291507334Y-177492519D01*
X291501115Y-177731052D01*
X291461036Y-177845670D01*
X291354964Y-177881782D01*
X291229839Y-177884667D01*
X290971567Y-177843939D01*
X290764173Y-177752866D01*
X290620692Y-177682031D01*
X290578839Y-177744542D01*
X290627392Y-177920075D01*
X290685261Y-177987144D01*
X290817292Y-178027785D01*
X291055617Y-178047387D01*
X291410559Y-178051425D01*
X291765845Y-178044774D01*
X291966496Y-178026433D01*
X292026947Y-177994205D01*
X291994167Y-177962551D01*
X291924860Y-177897990D01*
X291880732Y-177779736D01*
X291856517Y-177574759D01*
X291846943Y-177250033D01*
X291846000Y-177033793D01*
X291854088Y-176641842D01*
X291876704Y-176358648D01*
X291911384Y-176208759D01*
X291930667Y-176191333D01*
X292012874Y-176126904D01*
X292015334Y-176106667D01*
X291936118Y-176064737D01*
X291719848Y-176035273D01*
X291398593Y-176022282D01*
X291338000Y-176022000D01*
X291002071Y-176024255D01*
G37*
X291002071Y-176024255D02*
X290800923Y-176038220D01*
X290700008Y-176074690D01*
X290664777Y-176144462D01*
X290660667Y-176233667D01*
X290665364Y-176384031D01*
X290708408Y-176431595D01*
X290833236Y-176387847D01*
X290976289Y-176317139D01*
X291244647Y-176229002D01*
X291418493Y-176281000D01*
X291500052Y-176474287D01*
X291507334Y-176592540D01*
X291507334Y-176890962D01*
X291168667Y-176845538D01*
X290952138Y-176825805D01*
X290855004Y-176858764D01*
X290830359Y-176965207D01*
X290830000Y-176995667D01*
X290846124Y-177118533D01*
X290925766Y-177163938D01*
X291115833Y-177152675D01*
X291168667Y-177145795D01*
X291507334Y-177100371D01*
X291507334Y-177492519D01*
X291501115Y-177731052D01*
X291461036Y-177845670D01*
X291354964Y-177881782D01*
X291229839Y-177884667D01*
X290971567Y-177843939D01*
X290764173Y-177752866D01*
X290620692Y-177682031D01*
X290578839Y-177744542D01*
X290627392Y-177920075D01*
X290685261Y-177987144D01*
X290817292Y-178027785D01*
X291055617Y-178047387D01*
X291410559Y-178051425D01*
X291765845Y-178044774D01*
X291966496Y-178026433D01*
X292026947Y-177994205D01*
X291994167Y-177962551D01*
X291924860Y-177897990D01*
X291880732Y-177779736D01*
X291856517Y-177574759D01*
X291846943Y-177250033D01*
X291846000Y-177033793D01*
X291854088Y-176641842D01*
X291876704Y-176358648D01*
X291911384Y-176208759D01*
X291930667Y-176191333D01*
X292012874Y-176126904D01*
X292015334Y-176106667D01*
X291936118Y-176064737D01*
X291719848Y-176035273D01*
X291398593Y-176022282D01*
X291338000Y-176022000D01*
X291002071Y-176024255D01*
G36*
X287398873Y-176023760D02*
G01*
X287189040Y-176035700D01*
X287083346Y-176067806D01*
X287049196Y-176130065D01*
X287053992Y-176232464D01*
X287054134Y-176233802D01*
X287088754Y-176397823D01*
X287138509Y-176507104D01*
X287179197Y-176521623D01*
X287189334Y-176457349D01*
X287259769Y-176356374D01*
X287406544Y-176273892D01*
X287672729Y-176237253D01*
X287862189Y-176340944D01*
X287948695Y-176567990D01*
X287951334Y-176626538D01*
X287940622Y-176791575D01*
X287876292Y-176859525D01*
X287710052Y-176862845D01*
X287612667Y-176854155D01*
X287394291Y-176844534D01*
X287296674Y-176884511D01*
X287274004Y-176993230D01*
X287274000Y-176995667D01*
X287295832Y-177105658D01*
X287391867Y-177146598D01*
X287607919Y-177137628D01*
X287612667Y-177137178D01*
X287829048Y-177124852D01*
X287925597Y-177164890D01*
X287950571Y-177289162D01*
X287951334Y-177360849D01*
X287934744Y-177592009D01*
X287899942Y-177750742D01*
X287780533Y-177851973D01*
X287566873Y-177882066D01*
X287318084Y-177841642D01*
X287108599Y-177742424D01*
X286969062Y-177650919D01*
X286934272Y-177661091D01*
X286962760Y-177749349D01*
X287011876Y-177915284D01*
X287020000Y-177976258D01*
X287098254Y-178010658D01*
X287307480Y-178036636D01*
X287609379Y-178050307D01*
X287760834Y-178051425D01*
X288119186Y-178044818D01*
X288322791Y-178026625D01*
X288385973Y-177994700D01*
X288353500Y-177962551D01*
X288282660Y-177895989D01*
X288238200Y-177773797D01*
X288214473Y-177562102D01*
X288205837Y-177227031D01*
X288205334Y-177073469D01*
X288210944Y-176680285D01*
X288230681Y-176426938D01*
X288268901Y-176284212D01*
X288329962Y-176222893D01*
X288332334Y-176221951D01*
X288460054Y-176147429D01*
X288427722Y-176087593D01*
X288244219Y-176045466D01*
X287918426Y-176024074D01*
X287745443Y-176022000D01*
X287398873Y-176023760D01*
G37*
X287398873Y-176023760D02*
X287189040Y-176035700D01*
X287083346Y-176067806D01*
X287049196Y-176130065D01*
X287053992Y-176232464D01*
X287054134Y-176233802D01*
X287088754Y-176397823D01*
X287138509Y-176507104D01*
X287179197Y-176521623D01*
X287189334Y-176457349D01*
X287259769Y-176356374D01*
X287406544Y-176273892D01*
X287672729Y-176237253D01*
X287862189Y-176340944D01*
X287948695Y-176567990D01*
X287951334Y-176626538D01*
X287940622Y-176791575D01*
X287876292Y-176859525D01*
X287710052Y-176862845D01*
X287612667Y-176854155D01*
X287394291Y-176844534D01*
X287296674Y-176884511D01*
X287274004Y-176993230D01*
X287274000Y-176995667D01*
X287295832Y-177105658D01*
X287391867Y-177146598D01*
X287607919Y-177137628D01*
X287612667Y-177137178D01*
X287829048Y-177124852D01*
X287925597Y-177164890D01*
X287950571Y-177289162D01*
X287951334Y-177360849D01*
X287934744Y-177592009D01*
X287899942Y-177750742D01*
X287780533Y-177851973D01*
X287566873Y-177882066D01*
X287318084Y-177841642D01*
X287108599Y-177742424D01*
X286969062Y-177650919D01*
X286934272Y-177661091D01*
X286962760Y-177749349D01*
X287011876Y-177915284D01*
X287020000Y-177976258D01*
X287098254Y-178010658D01*
X287307480Y-178036636D01*
X287609379Y-178050307D01*
X287760834Y-178051425D01*
X288119186Y-178044818D01*
X288322791Y-178026625D01*
X288385973Y-177994700D01*
X288353500Y-177962551D01*
X288282660Y-177895989D01*
X288238200Y-177773797D01*
X288214473Y-177562102D01*
X288205837Y-177227031D01*
X288205334Y-177073469D01*
X288210944Y-176680285D01*
X288230681Y-176426938D01*
X288268901Y-176284212D01*
X288329962Y-176222893D01*
X288332334Y-176221951D01*
X288460054Y-176147429D01*
X288427722Y-176087593D01*
X288244219Y-176045466D01*
X287918426Y-176024074D01*
X287745443Y-176022000D01*
X287398873Y-176023760D01*
G36*
X293124655Y-175134087D02*
G01*
X293059774Y-175195274D01*
X292967772Y-175325901D01*
X293010272Y-175445437D01*
X293027807Y-175467417D01*
X293145873Y-175575885D01*
X293200667Y-175598667D01*
X293301286Y-175541091D01*
X293373527Y-175467417D01*
X293435540Y-175342736D01*
X293364443Y-175218814D01*
X293341561Y-175195274D01*
X293222533Y-175100352D01*
X293124655Y-175134087D01*
G37*
X293124655Y-175134087D02*
X293059774Y-175195274D01*
X292967772Y-175325901D01*
X293010272Y-175445437D01*
X293027807Y-175467417D01*
X293145873Y-175575885D01*
X293200667Y-175598667D01*
X293301286Y-175541091D01*
X293373527Y-175467417D01*
X293435540Y-175342736D01*
X293364443Y-175218814D01*
X293341561Y-175195274D01*
X293222533Y-175100352D01*
X293124655Y-175134087D01*
G36*
X296714037Y-175261716D02*
G01*
X295802605Y-175266826D01*
X295046152Y-175275274D01*
X294447461Y-175287003D01*
X294009317Y-175301956D01*
X293734505Y-175320076D01*
X293625807Y-175341307D01*
X293624000Y-175344667D01*
X293705359Y-175363991D01*
X293936235Y-175380903D01*
X294296830Y-175395405D01*
X294767347Y-175407496D01*
X295327985Y-175417175D01*
X295958948Y-175424443D01*
X296640436Y-175429300D01*
X297352651Y-175431746D01*
X298075795Y-175431780D01*
X298790069Y-175429404D01*
X299475675Y-175424616D01*
X300112815Y-175417417D01*
X300681689Y-175407807D01*
X301162500Y-175395786D01*
X301535449Y-175381354D01*
X301780737Y-175364510D01*
X301878567Y-175345255D01*
X301879000Y-175344667D01*
X301809150Y-175322638D01*
X301571067Y-175303884D01*
X301165822Y-175288428D01*
X300594485Y-175276291D01*
X299858126Y-175267495D01*
X298957814Y-175262064D01*
X297894620Y-175260017D01*
X297777664Y-175260000D01*
X296714037Y-175261716D01*
G37*
X296714037Y-175261716D02*
X295802605Y-175266826D01*
X295046152Y-175275274D01*
X294447461Y-175287003D01*
X294009317Y-175301956D01*
X293734505Y-175320076D01*
X293625807Y-175341307D01*
X293624000Y-175344667D01*
X293705359Y-175363991D01*
X293936235Y-175380903D01*
X294296830Y-175395405D01*
X294767347Y-175407496D01*
X295327985Y-175417175D01*
X295958948Y-175424443D01*
X296640436Y-175429300D01*
X297352651Y-175431746D01*
X298075795Y-175431780D01*
X298790069Y-175429404D01*
X299475675Y-175424616D01*
X300112815Y-175417417D01*
X300681689Y-175407807D01*
X301162500Y-175395786D01*
X301535449Y-175381354D01*
X301780737Y-175364510D01*
X301878567Y-175345255D01*
X301879000Y-175344667D01*
X301809150Y-175322638D01*
X301571067Y-175303884D01*
X301165822Y-175288428D01*
X300594485Y-175276291D01*
X299858126Y-175267495D01*
X298957814Y-175262064D01*
X297894620Y-175260017D01*
X297777664Y-175260000D01*
X296714037Y-175261716D01*
G36*
X287487702Y-175261650D02*
G01*
X286552023Y-175266585D01*
X285780320Y-175274786D01*
X285173615Y-175286231D01*
X284732931Y-175300901D01*
X284459291Y-175318775D01*
X284353716Y-175339832D01*
X284353000Y-175344667D01*
X284446966Y-175363874D01*
X284690444Y-175380695D01*
X285063632Y-175395130D01*
X285546724Y-175407179D01*
X286119918Y-175416841D01*
X286763410Y-175424118D01*
X287457395Y-175429009D01*
X288182071Y-175431514D01*
X288917633Y-175431632D01*
X289644277Y-175429365D01*
X290342200Y-175424711D01*
X290991598Y-175417672D01*
X291572667Y-175408246D01*
X292065604Y-175396434D01*
X292450604Y-175382237D01*
X292707864Y-175365653D01*
X292817580Y-175346683D01*
X292819667Y-175344667D01*
X292749590Y-175322942D01*
X292511232Y-175304397D01*
X292105615Y-175289051D01*
X291533762Y-175276925D01*
X290796696Y-175268040D01*
X289895439Y-175262416D01*
X288831013Y-175260073D01*
X288586334Y-175260000D01*
X287487702Y-175261650D01*
G37*
X287487702Y-175261650D02*
X286552023Y-175266585D01*
X285780320Y-175274786D01*
X285173615Y-175286231D01*
X284732931Y-175300901D01*
X284459291Y-175318775D01*
X284353716Y-175339832D01*
X284353000Y-175344667D01*
X284446966Y-175363874D01*
X284690444Y-175380695D01*
X285063632Y-175395130D01*
X285546724Y-175407179D01*
X286119918Y-175416841D01*
X286763410Y-175424118D01*
X287457395Y-175429009D01*
X288182071Y-175431514D01*
X288917633Y-175431632D01*
X289644277Y-175429365D01*
X290342200Y-175424711D01*
X290991598Y-175417672D01*
X291572667Y-175408246D01*
X292065604Y-175396434D01*
X292450604Y-175382237D01*
X292707864Y-175365653D01*
X292817580Y-175346683D01*
X292819667Y-175344667D01*
X292749590Y-175322942D01*
X292511232Y-175304397D01*
X292105615Y-175289051D01*
X291533762Y-175276925D01*
X290796696Y-175268040D01*
X289895439Y-175262416D01*
X288831013Y-175260073D01*
X288586334Y-175260000D01*
X287487702Y-175261650D01*
G36*
X298660129Y-173131944D02*
G01*
X298494518Y-173562558D01*
X298342195Y-173942060D01*
X298216058Y-174239532D01*
X298129002Y-174424058D01*
X298104549Y-174463842D01*
X297943052Y-174562470D01*
X297748548Y-174572114D01*
X297597873Y-174494945D01*
X297570059Y-174448742D01*
X297549431Y-174313498D01*
X297532754Y-174049048D01*
X297521904Y-173695504D01*
X297518667Y-173351373D01*
X297521293Y-172928915D01*
X297532933Y-172641148D01*
X297559233Y-172453464D01*
X297605837Y-172331254D01*
X297678391Y-172239909D01*
X297703965Y-172215298D01*
X297889264Y-172042666D01*
X296984299Y-172042666D01*
X296079334Y-172042667D01*
X296079334Y-172627636D01*
X296287152Y-172419818D01*
X296567805Y-172244297D01*
X296792173Y-172212000D01*
X297054680Y-172266719D01*
X297206416Y-172437854D01*
X297254619Y-172735870D01*
X297248398Y-172871751D01*
X297216866Y-173080110D01*
X297133453Y-173174138D01*
X296944227Y-173208823D01*
X296915365Y-173211316D01*
X296617291Y-173184961D01*
X296470865Y-173099435D01*
X296380556Y-173024506D01*
X296341904Y-173063883D01*
X296333362Y-173243858D01*
X296333334Y-173267264D01*
X296342274Y-173463825D01*
X296387504Y-173525169D01*
X296496638Y-173485192D01*
X296506579Y-173479906D01*
X296715378Y-173421142D01*
X296951079Y-173413427D01*
X297138391Y-173452379D01*
X297221770Y-173557435D01*
X297250019Y-173730312D01*
X297255429Y-174055087D01*
X297214740Y-174333498D01*
X297137962Y-174523066D01*
X297049164Y-174582667D01*
X296938977Y-174629619D01*
X296926000Y-174667333D01*
X297006739Y-174706088D01*
X297233656Y-174734281D01*
X297583805Y-174749728D01*
X297815000Y-174752000D01*
X298179929Y-174745119D01*
X298472263Y-174726510D01*
X298657032Y-174699227D01*
X298704000Y-174674389D01*
X298637452Y-174579115D01*
X298603849Y-174563394D01*
X298552488Y-174499235D01*
X298563926Y-174338928D01*
X298615896Y-174129278D01*
X298728094Y-173728545D01*
X299762334Y-173778333D01*
X299929953Y-174265167D01*
X300097573Y-174752000D01*
X300967120Y-174752000D01*
X301327698Y-174745152D01*
X301615293Y-174726657D01*
X301794543Y-174699591D01*
X301836667Y-174676392D01*
X301769288Y-174583835D01*
X301709667Y-174552049D01*
X301656435Y-174503183D01*
X301619919Y-174387464D01*
X301597319Y-174179228D01*
X301585836Y-173852814D01*
X301582667Y-173388158D01*
X301585407Y-172923849D01*
X301595966Y-172599765D01*
X301617849Y-172386849D01*
X301654564Y-172256047D01*
X301709617Y-172178304D01*
X301730834Y-172160526D01*
X301791955Y-172098573D01*
X301752073Y-172064292D01*
X301586206Y-172049819D01*
X301371000Y-172047242D01*
X301093249Y-172049056D01*
X300960294Y-172063329D01*
X300947602Y-172101591D01*
X301030639Y-172175371D01*
X301056257Y-172195159D01*
X301136471Y-172265400D01*
X301189812Y-172350864D01*
X301220746Y-172483318D01*
X301233737Y-172694527D01*
X301233251Y-173016257D01*
X301225590Y-173399776D01*
X301201667Y-174455667D01*
X300309603Y-174506955D01*
X300066597Y-173973311D01*
X299916995Y-173646475D01*
X299841272Y-173482000D01*
X299624542Y-173482000D01*
X299248938Y-173482000D01*
X299023491Y-173476509D01*
X298889476Y-173462637D01*
X298873334Y-173454749D01*
X298901415Y-173331662D01*
X298970425Y-173131133D01*
X299057508Y-172910561D01*
X299139812Y-172727344D01*
X299194483Y-172638882D01*
X299198793Y-172637329D01*
X299260657Y-172709293D01*
X299360956Y-172892410D01*
X299439438Y-173060662D01*
X299624542Y-173482000D01*
X299841272Y-173482000D01*
X299728838Y-173237790D01*
X299535127Y-172818880D01*
X299470343Y-172679269D01*
X299117094Y-171918871D01*
X298660129Y-173131944D01*
G37*
X298660129Y-173131944D02*
X298494518Y-173562558D01*
X298342195Y-173942060D01*
X298216058Y-174239532D01*
X298129002Y-174424058D01*
X298104549Y-174463842D01*
X297943052Y-174562470D01*
X297748548Y-174572114D01*
X297597873Y-174494945D01*
X297570059Y-174448742D01*
X297549431Y-174313498D01*
X297532754Y-174049048D01*
X297521904Y-173695504D01*
X297518667Y-173351373D01*
X297521293Y-172928915D01*
X297532933Y-172641148D01*
X297559233Y-172453464D01*
X297605837Y-172331254D01*
X297678391Y-172239909D01*
X297703965Y-172215298D01*
X297889264Y-172042666D01*
X296984299Y-172042666D01*
X296079334Y-172042667D01*
X296079334Y-172627636D01*
X296287152Y-172419818D01*
X296567805Y-172244297D01*
X296792173Y-172212000D01*
X297054680Y-172266719D01*
X297206416Y-172437854D01*
X297254619Y-172735870D01*
X297248398Y-172871751D01*
X297216866Y-173080110D01*
X297133453Y-173174138D01*
X296944227Y-173208823D01*
X296915365Y-173211316D01*
X296617291Y-173184961D01*
X296470865Y-173099435D01*
X296380556Y-173024506D01*
X296341904Y-173063883D01*
X296333362Y-173243858D01*
X296333334Y-173267264D01*
X296342274Y-173463825D01*
X296387504Y-173525169D01*
X296496638Y-173485192D01*
X296506579Y-173479906D01*
X296715378Y-173421142D01*
X296951079Y-173413427D01*
X297138391Y-173452379D01*
X297221770Y-173557435D01*
X297250019Y-173730312D01*
X297255429Y-174055087D01*
X297214740Y-174333498D01*
X297137962Y-174523066D01*
X297049164Y-174582667D01*
X296938977Y-174629619D01*
X296926000Y-174667333D01*
X297006739Y-174706088D01*
X297233656Y-174734281D01*
X297583805Y-174749728D01*
X297815000Y-174752000D01*
X298179929Y-174745119D01*
X298472263Y-174726510D01*
X298657032Y-174699227D01*
X298704000Y-174674389D01*
X298637452Y-174579115D01*
X298603849Y-174563394D01*
X298552488Y-174499235D01*
X298563926Y-174338928D01*
X298615896Y-174129278D01*
X298728094Y-173728545D01*
X299762334Y-173778333D01*
X299929953Y-174265167D01*
X300097573Y-174752000D01*
X300967120Y-174752000D01*
X301327698Y-174745152D01*
X301615293Y-174726657D01*
X301794543Y-174699591D01*
X301836667Y-174676392D01*
X301769288Y-174583835D01*
X301709667Y-174552049D01*
X301656435Y-174503183D01*
X301619919Y-174387464D01*
X301597319Y-174179228D01*
X301585836Y-173852814D01*
X301582667Y-173388158D01*
X301585407Y-172923849D01*
X301595966Y-172599765D01*
X301617849Y-172386849D01*
X301654564Y-172256047D01*
X301709617Y-172178304D01*
X301730834Y-172160526D01*
X301791955Y-172098573D01*
X301752073Y-172064292D01*
X301586206Y-172049819D01*
X301371000Y-172047242D01*
X301093249Y-172049056D01*
X300960294Y-172063329D01*
X300947602Y-172101591D01*
X301030639Y-172175371D01*
X301056257Y-172195159D01*
X301136471Y-172265400D01*
X301189812Y-172350864D01*
X301220746Y-172483318D01*
X301233737Y-172694527D01*
X301233251Y-173016257D01*
X301225590Y-173399776D01*
X301201667Y-174455667D01*
X300309603Y-174506955D01*
X300066597Y-173973311D01*
X299916995Y-173646475D01*
X299841272Y-173482000D01*
X299624542Y-173482000D01*
X299248938Y-173482000D01*
X299023491Y-173476509D01*
X298889476Y-173462637D01*
X298873334Y-173454749D01*
X298901415Y-173331662D01*
X298970425Y-173131133D01*
X299057508Y-172910561D01*
X299139812Y-172727344D01*
X299194483Y-172638882D01*
X299198793Y-172637329D01*
X299260657Y-172709293D01*
X299360956Y-172892410D01*
X299439438Y-173060662D01*
X299624542Y-173482000D01*
X299841272Y-173482000D01*
X299728838Y-173237790D01*
X299535127Y-172818880D01*
X299470343Y-172679269D01*
X299117094Y-171918871D01*
X298660129Y-173131944D01*
G36*
X295163519Y-172043258D02*
G01*
X295140781Y-172085000D01*
X295086194Y-172222925D01*
X294983713Y-172485033D01*
X294846495Y-172837564D01*
X294687696Y-173246758D01*
X294633390Y-173386947D01*
X294431922Y-173888440D01*
X294272320Y-174241332D01*
X294147688Y-174459183D01*
X294051132Y-174555553D01*
X294036420Y-174560989D01*
X293889017Y-174623236D01*
X293893310Y-174682949D01*
X294031865Y-174729291D01*
X294287250Y-174751423D01*
X294343667Y-174752000D01*
X294598682Y-174738081D01*
X294767824Y-174702177D01*
X294809334Y-174667333D01*
X294740757Y-174592219D01*
X294682334Y-174582667D01*
X294592187Y-174569285D01*
X294564548Y-174505262D01*
X294600268Y-174354780D01*
X294693836Y-174098664D01*
X294832339Y-173736000D01*
X295806948Y-173736000D01*
X295944688Y-174080247D01*
X296031476Y-174361626D01*
X296013148Y-174523712D01*
X295887185Y-174581924D01*
X295862670Y-174582667D01*
X295753243Y-174630005D01*
X295740667Y-174667333D01*
X295817219Y-174713700D01*
X296014692Y-174744453D01*
X296206334Y-174752000D01*
X296461369Y-174739703D01*
X296630510Y-174707981D01*
X296672000Y-174677208D01*
X296602258Y-174595780D01*
X296522557Y-174563336D01*
X296412708Y-174464629D01*
X296264848Y-174229852D01*
X296094114Y-173883713D01*
X296062619Y-173812628D01*
X295902290Y-173446686D01*
X295656000Y-173446686D01*
X295580799Y-173468811D01*
X295392963Y-173481106D01*
X295317334Y-173482000D01*
X295077427Y-173457478D01*
X294985379Y-173387055D01*
X294984946Y-173376167D01*
X295021835Y-173237755D01*
X295106778Y-173017649D01*
X295144404Y-172931667D01*
X295297582Y-172593000D01*
X295476791Y-173002186D01*
X295577435Y-173238122D01*
X295642453Y-173402318D01*
X295656000Y-173446686D01*
X295902290Y-173446686D01*
X295801675Y-173217040D01*
X295598749Y-172761683D01*
X295445529Y-172430981D01*
X295333706Y-172209361D01*
X295254970Y-172081250D01*
X295201011Y-172031073D01*
X295163519Y-172043258D01*
G37*
X295163519Y-172043258D02*
X295140781Y-172085000D01*
X295086194Y-172222925D01*
X294983713Y-172485033D01*
X294846495Y-172837564D01*
X294687696Y-173246758D01*
X294633390Y-173386947D01*
X294431922Y-173888440D01*
X294272320Y-174241332D01*
X294147688Y-174459183D01*
X294051132Y-174555553D01*
X294036420Y-174560989D01*
X293889017Y-174623236D01*
X293893310Y-174682949D01*
X294031865Y-174729291D01*
X294287250Y-174751423D01*
X294343667Y-174752000D01*
X294598682Y-174738081D01*
X294767824Y-174702177D01*
X294809334Y-174667333D01*
X294740757Y-174592219D01*
X294682334Y-174582667D01*
X294592187Y-174569285D01*
X294564548Y-174505262D01*
X294600268Y-174354780D01*
X294693836Y-174098664D01*
X294832339Y-173736000D01*
X295806948Y-173736000D01*
X295944688Y-174080247D01*
X296031476Y-174361626D01*
X296013148Y-174523712D01*
X295887185Y-174581924D01*
X295862670Y-174582667D01*
X295753243Y-174630005D01*
X295740667Y-174667333D01*
X295817219Y-174713700D01*
X296014692Y-174744453D01*
X296206334Y-174752000D01*
X296461369Y-174739703D01*
X296630510Y-174707981D01*
X296672000Y-174677208D01*
X296602258Y-174595780D01*
X296522557Y-174563336D01*
X296412708Y-174464629D01*
X296264848Y-174229852D01*
X296094114Y-173883713D01*
X296062619Y-173812628D01*
X295902290Y-173446686D01*
X295656000Y-173446686D01*
X295580799Y-173468811D01*
X295392963Y-173481106D01*
X295317334Y-173482000D01*
X295077427Y-173457478D01*
X294985379Y-173387055D01*
X294984946Y-173376167D01*
X295021835Y-173237755D01*
X295106778Y-173017649D01*
X295144404Y-172931667D01*
X295297582Y-172593000D01*
X295476791Y-173002186D01*
X295577435Y-173238122D01*
X295642453Y-173402318D01*
X295656000Y-173446686D01*
X295902290Y-173446686D01*
X295801675Y-173217040D01*
X295598749Y-172761683D01*
X295445529Y-172430981D01*
X295333706Y-172209361D01*
X295254970Y-172081250D01*
X295201011Y-172031073D01*
X295163519Y-172043258D01*
G36*
X290152667Y-172296667D02*
G01*
X290182095Y-172486666D01*
X290251892Y-172549407D01*
X290334324Y-172466461D01*
X290350826Y-172428338D01*
X290466146Y-172328099D01*
X290683988Y-172255726D01*
X290938073Y-172225639D01*
X291161306Y-172251997D01*
X291265489Y-172310037D01*
X291318833Y-172429119D01*
X291337031Y-172655071D01*
X291338000Y-172768039D01*
X291338000Y-173228000D01*
X291060506Y-173228000D01*
X290802233Y-173187272D01*
X290594839Y-173096199D01*
X290469922Y-173019201D01*
X290417852Y-173048212D01*
X290406769Y-173211904D01*
X290406667Y-173265532D01*
X290434338Y-173481627D01*
X290505364Y-173568172D01*
X290601760Y-173506776D01*
X290618334Y-173482000D01*
X290729207Y-173428155D01*
X290940217Y-173399024D01*
X291008371Y-173397333D01*
X291346081Y-173397333D01*
X291295667Y-174455667D01*
X290879038Y-174482063D01*
X290566735Y-174477400D01*
X290335216Y-174402384D01*
X290208867Y-174321008D01*
X290047939Y-174207945D01*
X289992651Y-174195760D01*
X290015587Y-174280596D01*
X290021269Y-174294611D01*
X290099599Y-174507967D01*
X290129814Y-174603833D01*
X290167361Y-174669106D01*
X290255040Y-174711943D01*
X290422665Y-174736773D01*
X290700049Y-174748021D01*
X291115042Y-174750117D01*
X291522242Y-174748142D01*
X291783161Y-174741077D01*
X291920853Y-174724293D01*
X291958369Y-174693159D01*
X291918761Y-174643044D01*
X291864497Y-174599572D01*
X291785636Y-174530773D01*
X291732651Y-174447175D01*
X291701334Y-174317799D01*
X291687479Y-174111666D01*
X291686878Y-173797796D01*
X291695164Y-173352622D01*
X291706041Y-172904222D01*
X291719344Y-172597305D01*
X291740485Y-172404046D01*
X291774875Y-172296622D01*
X291827926Y-172247209D01*
X291905049Y-172227982D01*
X291914161Y-172226667D01*
X292070132Y-172228644D01*
X292211963Y-172298575D01*
X292363759Y-172459702D01*
X292549623Y-172735270D01*
X292697169Y-172981709D01*
X292877998Y-173312468D01*
X292980157Y-173570227D01*
X293024155Y-173819234D01*
X293031334Y-174028596D01*
X293015564Y-174334907D01*
X292963686Y-174502688D01*
X292904334Y-174552049D01*
X292779127Y-174628027D01*
X292808139Y-174691385D01*
X292976311Y-174733942D01*
X293264167Y-174747559D01*
X293532508Y-174742279D01*
X293655644Y-174725354D01*
X293657701Y-174685601D01*
X293562806Y-174611841D01*
X293560500Y-174610232D01*
X293440515Y-174491323D01*
X293383596Y-174316655D01*
X293370000Y-174051761D01*
X293387071Y-173804582D01*
X293449430Y-173559627D01*
X293573796Y-173267760D01*
X293755435Y-172919088D01*
X293933760Y-172613291D01*
X294095413Y-172374057D01*
X294216905Y-172234404D01*
X294258438Y-172212000D01*
X294400696Y-172158565D01*
X294428334Y-172127333D01*
X294384069Y-172077576D01*
X294189489Y-172049904D01*
X293988831Y-172045359D01*
X293721034Y-172051941D01*
X293597809Y-172073080D01*
X293594527Y-172116589D01*
X293639299Y-172156236D01*
X293706528Y-172225377D01*
X293716033Y-172316862D01*
X293658563Y-172468907D01*
X293524866Y-172719728D01*
X293486230Y-172788543D01*
X293337449Y-173045800D01*
X293222071Y-173232761D01*
X293163230Y-173312083D01*
X293161513Y-173312667D01*
X293108376Y-173244996D01*
X292997882Y-173067943D01*
X292860034Y-172830478D01*
X292712437Y-172549729D01*
X292649685Y-172366918D01*
X292660283Y-172240727D01*
X292683336Y-172195478D01*
X292710451Y-172137645D01*
X292692724Y-172096578D01*
X292607393Y-172069421D01*
X292431696Y-172053317D01*
X292142868Y-172045409D01*
X291718149Y-172042841D01*
X291465718Y-172042667D01*
X290152667Y-172042667D01*
X290152667Y-172296667D01*
G37*
X290152667Y-172296667D02*
X290182095Y-172486666D01*
X290251892Y-172549407D01*
X290334324Y-172466461D01*
X290350826Y-172428338D01*
X290466146Y-172328099D01*
X290683988Y-172255726D01*
X290938073Y-172225639D01*
X291161306Y-172251997D01*
X291265489Y-172310037D01*
X291318833Y-172429119D01*
X291337031Y-172655071D01*
X291338000Y-172768039D01*
X291338000Y-173228000D01*
X291060506Y-173228000D01*
X290802233Y-173187272D01*
X290594839Y-173096199D01*
X290469922Y-173019201D01*
X290417852Y-173048212D01*
X290406769Y-173211904D01*
X290406667Y-173265532D01*
X290434338Y-173481627D01*
X290505364Y-173568172D01*
X290601760Y-173506776D01*
X290618334Y-173482000D01*
X290729207Y-173428155D01*
X290940217Y-173399024D01*
X291008371Y-173397333D01*
X291346081Y-173397333D01*
X291295667Y-174455667D01*
X290879038Y-174482063D01*
X290566735Y-174477400D01*
X290335216Y-174402384D01*
X290208867Y-174321008D01*
X290047939Y-174207945D01*
X289992651Y-174195760D01*
X290015587Y-174280596D01*
X290021269Y-174294611D01*
X290099599Y-174507967D01*
X290129814Y-174603833D01*
X290167361Y-174669106D01*
X290255040Y-174711943D01*
X290422665Y-174736773D01*
X290700049Y-174748021D01*
X291115042Y-174750117D01*
X291522242Y-174748142D01*
X291783161Y-174741077D01*
X291920853Y-174724293D01*
X291958369Y-174693159D01*
X291918761Y-174643044D01*
X291864497Y-174599572D01*
X291785636Y-174530773D01*
X291732651Y-174447175D01*
X291701334Y-174317799D01*
X291687479Y-174111666D01*
X291686878Y-173797796D01*
X291695164Y-173352622D01*
X291706041Y-172904222D01*
X291719344Y-172597305D01*
X291740485Y-172404046D01*
X291774875Y-172296622D01*
X291827926Y-172247209D01*
X291905049Y-172227982D01*
X291914161Y-172226667D01*
X292070132Y-172228644D01*
X292211963Y-172298575D01*
X292363759Y-172459702D01*
X292549623Y-172735270D01*
X292697169Y-172981709D01*
X292877998Y-173312468D01*
X292980157Y-173570227D01*
X293024155Y-173819234D01*
X293031334Y-174028596D01*
X293015564Y-174334907D01*
X292963686Y-174502688D01*
X292904334Y-174552049D01*
X292779127Y-174628027D01*
X292808139Y-174691385D01*
X292976311Y-174733942D01*
X293264167Y-174747559D01*
X293532508Y-174742279D01*
X293655644Y-174725354D01*
X293657701Y-174685601D01*
X293562806Y-174611841D01*
X293560500Y-174610232D01*
X293440515Y-174491323D01*
X293383596Y-174316655D01*
X293370000Y-174051761D01*
X293387071Y-173804582D01*
X293449430Y-173559627D01*
X293573796Y-173267760D01*
X293755435Y-172919088D01*
X293933760Y-172613291D01*
X294095413Y-172374057D01*
X294216905Y-172234404D01*
X294258438Y-172212000D01*
X294400696Y-172158565D01*
X294428334Y-172127333D01*
X294384069Y-172077576D01*
X294189489Y-172049904D01*
X293988831Y-172045359D01*
X293721034Y-172051941D01*
X293597809Y-172073080D01*
X293594527Y-172116589D01*
X293639299Y-172156236D01*
X293706528Y-172225377D01*
X293716033Y-172316862D01*
X293658563Y-172468907D01*
X293524866Y-172719728D01*
X293486230Y-172788543D01*
X293337449Y-173045800D01*
X293222071Y-173232761D01*
X293163230Y-173312083D01*
X293161513Y-173312667D01*
X293108376Y-173244996D01*
X292997882Y-173067943D01*
X292860034Y-172830478D01*
X292712437Y-172549729D01*
X292649685Y-172366918D01*
X292660283Y-172240727D01*
X292683336Y-172195478D01*
X292710451Y-172137645D01*
X292692724Y-172096578D01*
X292607393Y-172069421D01*
X292431696Y-172053317D01*
X292142868Y-172045409D01*
X291718149Y-172042841D01*
X291465718Y-172042667D01*
X290152667Y-172042667D01*
X290152667Y-172296667D01*
G36*
X286258000Y-172667263D02*
G01*
X286430632Y-172481965D01*
X286689766Y-172324510D01*
X286896299Y-172296667D01*
X287189334Y-172296667D01*
X287189334Y-173399990D01*
X287186040Y-173865950D01*
X287174262Y-174188454D01*
X287151159Y-174393283D01*
X287113888Y-174506221D01*
X287062334Y-174552049D01*
X286937303Y-174628127D01*
X286966780Y-174691913D01*
X287135992Y-174735273D01*
X287422167Y-174750117D01*
X287692431Y-174746700D01*
X287817781Y-174730818D01*
X287822636Y-174689952D01*
X287731415Y-174611584D01*
X287715831Y-174599572D01*
X287636970Y-174530773D01*
X287583984Y-174447175D01*
X287552667Y-174317799D01*
X287538812Y-174111666D01*
X287538211Y-173797796D01*
X287546497Y-173352622D01*
X287570334Y-172254333D01*
X288671000Y-172254333D01*
X288694637Y-173377876D01*
X288701644Y-173844234D01*
X288698085Y-174167840D01*
X288681579Y-174375080D01*
X288649746Y-174492338D01*
X288600207Y-174545997D01*
X288588803Y-174551101D01*
X288462415Y-174627801D01*
X288490941Y-174692311D01*
X288660011Y-174736433D01*
X288940965Y-174752000D01*
X289422597Y-174752000D01*
X289237299Y-174579368D01*
X289156518Y-174490457D01*
X289103258Y-174380315D01*
X289071873Y-174214331D01*
X289056719Y-173957898D01*
X289052151Y-173576407D01*
X289052000Y-173443293D01*
X289056347Y-173045261D01*
X289068135Y-172701882D01*
X289085486Y-172453270D01*
X289103392Y-172345925D01*
X289223116Y-172233665D01*
X289420590Y-172225458D01*
X289644561Y-172315670D01*
X289775516Y-172419818D01*
X289983334Y-172627636D01*
X289983334Y-172042667D01*
X286258000Y-172042667D01*
X286258000Y-172667263D01*
G37*
X286258000Y-172667263D02*
X286430632Y-172481965D01*
X286689766Y-172324510D01*
X286896299Y-172296667D01*
X287189334Y-172296667D01*
X287189334Y-173399990D01*
X287186040Y-173865950D01*
X287174262Y-174188454D01*
X287151159Y-174393283D01*
X287113888Y-174506221D01*
X287062334Y-174552049D01*
X286937303Y-174628127D01*
X286966780Y-174691913D01*
X287135992Y-174735273D01*
X287422167Y-174750117D01*
X287692431Y-174746700D01*
X287817781Y-174730818D01*
X287822636Y-174689952D01*
X287731415Y-174611584D01*
X287715831Y-174599572D01*
X287636970Y-174530773D01*
X287583984Y-174447175D01*
X287552667Y-174317799D01*
X287538812Y-174111666D01*
X287538211Y-173797796D01*
X287546497Y-173352622D01*
X287570334Y-172254333D01*
X288671000Y-172254333D01*
X288694637Y-173377876D01*
X288701644Y-173844234D01*
X288698085Y-174167840D01*
X288681579Y-174375080D01*
X288649746Y-174492338D01*
X288600207Y-174545997D01*
X288588803Y-174551101D01*
X288462415Y-174627801D01*
X288490941Y-174692311D01*
X288660011Y-174736433D01*
X288940965Y-174752000D01*
X289422597Y-174752000D01*
X289237299Y-174579368D01*
X289156518Y-174490457D01*
X289103258Y-174380315D01*
X289071873Y-174214331D01*
X289056719Y-173957898D01*
X289052151Y-173576407D01*
X289052000Y-173443293D01*
X289056347Y-173045261D01*
X289068135Y-172701882D01*
X289085486Y-172453270D01*
X289103392Y-172345925D01*
X289223116Y-172233665D01*
X289420590Y-172225458D01*
X289644561Y-172315670D01*
X289775516Y-172419818D01*
X289983334Y-172627636D01*
X289983334Y-172042667D01*
X286258000Y-172042667D01*
X286258000Y-172667263D01*
G36*
X284395334Y-172627636D02*
G01*
X284603152Y-172419818D01*
X284848044Y-172264203D01*
X285129851Y-172210957D01*
X285376447Y-172273291D01*
X285382486Y-172277046D01*
X285444232Y-172391852D01*
X285492203Y-172614809D01*
X285507103Y-172762583D01*
X285533567Y-173185667D01*
X285228981Y-173211316D01*
X284932872Y-173184812D01*
X284786865Y-173099435D01*
X284696556Y-173024506D01*
X284657904Y-173063883D01*
X284649362Y-173243858D01*
X284649334Y-173267264D01*
X284658274Y-173463825D01*
X284703504Y-173525169D01*
X284812638Y-173485192D01*
X284822579Y-173479906D01*
X284987212Y-173430895D01*
X285195679Y-173414061D01*
X285388475Y-173427411D01*
X285506099Y-173468954D01*
X285517167Y-173503167D01*
X285505417Y-173617289D01*
X285497731Y-173843221D01*
X285496000Y-174032333D01*
X285496000Y-174498000D01*
X285049173Y-174498000D01*
X284713412Y-174469364D01*
X284459292Y-174392751D01*
X284414173Y-174366199D01*
X284276060Y-174279636D01*
X284234584Y-174300756D01*
X284276915Y-174450040D01*
X284308572Y-174534821D01*
X284351101Y-174630721D01*
X284412999Y-174693192D01*
X284526903Y-174729397D01*
X284725449Y-174746497D01*
X285041275Y-174751657D01*
X285298203Y-174752000D01*
X286205264Y-174752000D01*
X286019965Y-174579368D01*
X285940832Y-174492762D01*
X285888030Y-174385828D01*
X285856301Y-174225027D01*
X285840388Y-173976818D01*
X285835033Y-173607662D01*
X285834667Y-173397333D01*
X285837032Y-172964054D01*
X285847632Y-172666541D01*
X285871724Y-172471256D01*
X285914567Y-172344657D01*
X285981418Y-172253205D01*
X286019965Y-172215298D01*
X286205264Y-172042667D01*
X284395334Y-172042667D01*
X284395334Y-172627636D01*
G37*
X284395334Y-172627636D02*
X284603152Y-172419818D01*
X284848044Y-172264203D01*
X285129851Y-172210957D01*
X285376447Y-172273291D01*
X285382486Y-172277046D01*
X285444232Y-172391852D01*
X285492203Y-172614809D01*
X285507103Y-172762583D01*
X285533567Y-173185667D01*
X285228981Y-173211316D01*
X284932872Y-173184812D01*
X284786865Y-173099435D01*
X284696556Y-173024506D01*
X284657904Y-173063883D01*
X284649362Y-173243858D01*
X284649334Y-173267264D01*
X284658274Y-173463825D01*
X284703504Y-173525169D01*
X284812638Y-173485192D01*
X284822579Y-173479906D01*
X284987212Y-173430895D01*
X285195679Y-173414061D01*
X285388475Y-173427411D01*
X285506099Y-173468954D01*
X285517167Y-173503167D01*
X285505417Y-173617289D01*
X285497731Y-173843221D01*
X285496000Y-174032333D01*
X285496000Y-174498000D01*
X285049173Y-174498000D01*
X284713412Y-174469364D01*
X284459292Y-174392751D01*
X284414173Y-174366199D01*
X284276060Y-174279636D01*
X284234584Y-174300756D01*
X284276915Y-174450040D01*
X284308572Y-174534821D01*
X284351101Y-174630721D01*
X284412999Y-174693192D01*
X284526903Y-174729397D01*
X284725449Y-174746497D01*
X285041275Y-174751657D01*
X285298203Y-174752000D01*
X286205264Y-174752000D01*
X286019965Y-174579368D01*
X285940832Y-174492762D01*
X285888030Y-174385828D01*
X285856301Y-174225027D01*
X285840388Y-173976818D01*
X285835033Y-173607662D01*
X285834667Y-173397333D01*
X285837032Y-172964054D01*
X285847632Y-172666541D01*
X285871724Y-172471256D01*
X285914567Y-172344657D01*
X285981418Y-172253205D01*
X286019965Y-172215298D01*
X286205264Y-172042667D01*
X284395334Y-172042667D01*
X284395334Y-172627636D01*
G36*
X203516963Y-180225098D02*
G01*
X203131530Y-180332228D01*
X202817340Y-180539320D01*
X202651100Y-180760562D01*
X202538032Y-181067548D01*
X202562772Y-181327028D01*
X202706216Y-181566509D01*
X203014211Y-181830134D01*
X203412244Y-181987313D01*
X203850806Y-182027517D01*
X204280387Y-181940216D01*
X204343000Y-181914587D01*
X204687256Y-181693783D01*
X204881268Y-181398361D01*
X204931819Y-181086252D01*
X204898486Y-180813324D01*
X204774001Y-180615241D01*
X204699560Y-180545581D01*
X204341095Y-180327564D01*
X203933524Y-180222140D01*
X203516963Y-180225098D01*
G37*
X203516963Y-180225098D02*
X203131530Y-180332228D01*
X202817340Y-180539320D01*
X202651100Y-180760562D01*
X202538032Y-181067548D01*
X202562772Y-181327028D01*
X202706216Y-181566509D01*
X203014211Y-181830134D01*
X203412244Y-181987313D01*
X203850806Y-182027517D01*
X204280387Y-181940216D01*
X204343000Y-181914587D01*
X204687256Y-181693783D01*
X204881268Y-181398361D01*
X204931819Y-181086252D01*
X204898486Y-180813324D01*
X204774001Y-180615241D01*
X204699560Y-180545581D01*
X204341095Y-180327564D01*
X203933524Y-180222140D01*
X203516963Y-180225098D01*
G36*
X211069846Y-172605370D02*
G01*
X210987379Y-172636143D01*
X210753053Y-172789598D01*
X210679853Y-172986858D01*
X210704716Y-173101000D01*
X210828016Y-173205797D01*
X211062836Y-173206701D01*
X211387026Y-173103770D01*
X211397589Y-173099213D01*
X211592346Y-172985773D01*
X211655248Y-172852809D01*
X211651589Y-172785027D01*
X211556441Y-172621251D01*
X211352096Y-172559027D01*
X211069846Y-172605370D01*
G37*
X211069846Y-172605370D02*
X210987379Y-172636143D01*
X210753053Y-172789598D01*
X210679853Y-172986858D01*
X210704716Y-173101000D01*
X210828016Y-173205797D01*
X211062836Y-173206701D01*
X211387026Y-173103770D01*
X211397589Y-173099213D01*
X211592346Y-172985773D01*
X211655248Y-172852809D01*
X211651589Y-172785027D01*
X211556441Y-172621251D01*
X211352096Y-172559027D01*
X211069846Y-172605370D01*
G36*
X212139673Y-172653309D02*
G01*
X212052753Y-172779611D01*
X212060584Y-172961092D01*
X212207912Y-173106634D01*
X212367753Y-173165403D01*
X212582983Y-173224463D01*
X212690269Y-173263299D01*
X212853989Y-173253036D01*
X212932575Y-173190598D01*
X213002138Y-173007112D01*
X212908339Y-172833091D01*
X212657141Y-172679284D01*
X212646257Y-172674685D01*
X212343697Y-172595654D01*
X212139673Y-172653309D01*
G37*
X212139673Y-172653309D02*
X212052753Y-172779611D01*
X212060584Y-172961092D01*
X212207912Y-173106634D01*
X212367753Y-173165403D01*
X212582983Y-173224463D01*
X212690269Y-173263299D01*
X212853989Y-173253036D01*
X212932575Y-173190598D01*
X213002138Y-173007112D01*
X212908339Y-172833091D01*
X212657141Y-172679284D01*
X212646257Y-172674685D01*
X212343697Y-172595654D01*
X212139673Y-172653309D01*
G36*
X213262964Y-173457963D02*
G01*
X213219507Y-173528968D01*
X213227325Y-173685144D01*
X213306307Y-173905380D01*
X213423487Y-174120208D01*
X213545897Y-174260156D01*
X213573734Y-174275411D01*
X213719128Y-174268087D01*
X213809614Y-174230976D01*
X213935485Y-174090422D01*
X213915306Y-173884552D01*
X213777569Y-173643237D01*
X213596451Y-173466053D01*
X213410363Y-173401315D01*
X213262964Y-173457963D01*
G37*
X213262964Y-173457963D02*
X213219507Y-173528968D01*
X213227325Y-173685144D01*
X213306307Y-173905380D01*
X213423487Y-174120208D01*
X213545897Y-174260156D01*
X213573734Y-174275411D01*
X213719128Y-174268087D01*
X213809614Y-174230976D01*
X213935485Y-174090422D01*
X213915306Y-173884552D01*
X213777569Y-173643237D01*
X213596451Y-173466053D01*
X213410363Y-173401315D01*
X213262964Y-173457963D01*
G36*
X213779671Y-174688156D02*
G01*
X213665392Y-174801258D01*
X213609682Y-175064174D01*
X213629174Y-175313535D01*
X213708564Y-175509629D01*
X213832547Y-175612746D01*
X213970429Y-175592767D01*
X214096500Y-175439554D01*
X214171532Y-175200995D01*
X214180770Y-174955294D01*
X214121230Y-174793405D01*
X213955133Y-174683945D01*
X213779671Y-174688156D01*
G37*
X213779671Y-174688156D02*
X213665392Y-174801258D01*
X213609682Y-175064174D01*
X213629174Y-175313535D01*
X213708564Y-175509629D01*
X213832547Y-175612746D01*
X213970429Y-175592767D01*
X214096500Y-175439554D01*
X214171532Y-175200995D01*
X214180770Y-174955294D01*
X214121230Y-174793405D01*
X213955133Y-174683945D01*
X213779671Y-174688156D01*
G36*
X213403738Y-175993997D02*
G01*
X213206589Y-176187905D01*
X213054560Y-176451904D01*
X213025880Y-176651264D01*
X213119778Y-176765219D01*
X213228692Y-176784000D01*
X213454092Y-176700107D01*
X213662226Y-176487467D01*
X213798586Y-176286373D01*
X213830443Y-176157211D01*
X213783168Y-176064134D01*
X213603447Y-175947384D01*
X213403738Y-175993997D01*
G37*
X213403738Y-175993997D02*
X213206589Y-176187905D01*
X213054560Y-176451904D01*
X213025880Y-176651264D01*
X213119778Y-176765219D01*
X213228692Y-176784000D01*
X213454092Y-176700107D01*
X213662226Y-176487467D01*
X213798586Y-176286373D01*
X213830443Y-176157211D01*
X213783168Y-176064134D01*
X213603447Y-175947384D01*
X213403738Y-175993997D01*
G36*
X194136512Y-172690037D02*
G01*
X194054046Y-172720810D01*
X193831233Y-172864205D01*
X193750332Y-173036975D01*
X193810907Y-173196398D01*
X193960370Y-173294101D01*
X194179442Y-173284879D01*
X194464256Y-173183880D01*
X194659013Y-173070440D01*
X194721914Y-172937475D01*
X194718256Y-172869694D01*
X194623107Y-172705917D01*
X194418763Y-172643694D01*
X194136512Y-172690037D01*
G37*
X194136512Y-172690037D02*
X194054046Y-172720810D01*
X193831233Y-172864205D01*
X193750332Y-173036975D01*
X193810907Y-173196398D01*
X193960370Y-173294101D01*
X194179442Y-173284879D01*
X194464256Y-173183880D01*
X194659013Y-173070440D01*
X194721914Y-172937475D01*
X194718256Y-172869694D01*
X194623107Y-172705917D01*
X194418763Y-172643694D01*
X194136512Y-172690037D01*
G36*
X195223975Y-172663428D02*
G01*
X195123392Y-172769258D01*
X195079098Y-172950515D01*
X195140043Y-173070131D01*
X195334188Y-173176672D01*
X195365614Y-173189987D01*
X195649441Y-173289741D01*
X195837214Y-173299773D01*
X195975492Y-173221665D01*
X195986400Y-173211067D01*
X196082545Y-173039613D01*
X196010469Y-172885409D01*
X195794387Y-172758013D01*
X195451074Y-172650627D01*
X195223975Y-172663428D01*
G37*
X195223975Y-172663428D02*
X195123392Y-172769258D01*
X195079098Y-172950515D01*
X195140043Y-173070131D01*
X195334188Y-173176672D01*
X195365614Y-173189987D01*
X195649441Y-173289741D01*
X195837214Y-173299773D01*
X195975492Y-173221665D01*
X195986400Y-173211067D01*
X196082545Y-173039613D01*
X196010469Y-172885409D01*
X195794387Y-172758013D01*
X195451074Y-172650627D01*
X195223975Y-172663428D01*
G36*
X196420903Y-173377141D02*
G01*
X196357971Y-173547285D01*
X196413722Y-173783733D01*
X196548443Y-173934996D01*
X196731236Y-173991469D01*
X196898053Y-173945397D01*
X196969863Y-173851070D01*
X196963957Y-173663255D01*
X196854025Y-173468627D01*
X196687915Y-173335254D01*
X196591391Y-173312667D01*
X196420903Y-173377141D01*
G37*
X196420903Y-173377141D02*
X196357971Y-173547285D01*
X196413722Y-173783733D01*
X196548443Y-173934996D01*
X196731236Y-173991469D01*
X196898053Y-173945397D01*
X196969863Y-173851070D01*
X196963957Y-173663255D01*
X196854025Y-173468627D01*
X196687915Y-173335254D01*
X196591391Y-173312667D01*
X196420903Y-173377141D01*
G36*
X193156643Y-173504619D02*
G01*
X193079481Y-173569347D01*
X192871642Y-173825246D01*
X192812098Y-174054707D01*
X192874039Y-174205730D01*
X193034001Y-174318044D01*
X193202719Y-174269094D01*
X193372902Y-174082763D01*
X193508493Y-173823473D01*
X193538685Y-173608056D01*
X193479456Y-173464471D01*
X193346783Y-173420673D01*
X193156643Y-173504619D01*
G37*
X193156643Y-173504619D02*
X193079481Y-173569347D01*
X192871642Y-173825246D01*
X192812098Y-174054707D01*
X192874039Y-174205730D01*
X193034001Y-174318044D01*
X193202719Y-174269094D01*
X193372902Y-174082763D01*
X193508493Y-173823473D01*
X193538685Y-173608056D01*
X193479456Y-173464471D01*
X193346783Y-173420673D01*
X193156643Y-173504619D01*
G36*
X192665134Y-174634362D02*
G01*
X192573288Y-174749747D01*
X192533170Y-174964482D01*
X192548358Y-175215576D01*
X192619646Y-175434900D01*
X192760847Y-175564820D01*
X192945441Y-175598116D01*
X193068223Y-175542222D01*
X193103049Y-175429359D01*
X193122903Y-175213774D01*
X193124667Y-175121868D01*
X193076397Y-174826821D01*
X192943790Y-174650456D01*
X192745154Y-174612194D01*
X192665134Y-174634362D01*
G37*
X192665134Y-174634362D02*
X192573288Y-174749747D01*
X192533170Y-174964482D01*
X192548358Y-175215576D01*
X192619646Y-175434900D01*
X192760847Y-175564820D01*
X192945441Y-175598116D01*
X193068223Y-175542222D01*
X193103049Y-175429359D01*
X193122903Y-175213774D01*
X193124667Y-175121868D01*
X193076397Y-174826821D01*
X192943790Y-174650456D01*
X192745154Y-174612194D01*
X192665134Y-174634362D01*
G36*
X193039582Y-176011239D02*
G01*
X193006451Y-176071974D01*
X193005513Y-176262209D01*
X193109552Y-176462685D01*
X193279159Y-176638445D01*
X193474925Y-176754534D01*
X193657438Y-176775995D01*
X193745556Y-176727556D01*
X193798330Y-176579264D01*
X193711047Y-176368317D01*
X193582808Y-176197830D01*
X193371038Y-176006888D01*
X193179930Y-175942501D01*
X193039582Y-176011239D01*
G37*
X193039582Y-176011239D02*
X193006451Y-176071974D01*
X193005513Y-176262209D01*
X193109552Y-176462685D01*
X193279159Y-176638445D01*
X193474925Y-176754534D01*
X193657438Y-176775995D01*
X193745556Y-176727556D01*
X193798330Y-176579264D01*
X193711047Y-176368317D01*
X193582808Y-176197830D01*
X193371038Y-176006888D01*
X193179930Y-175942501D01*
X193039582Y-176011239D01*
G36*
X194048525Y-176912319D02*
G01*
X193985800Y-177065096D01*
X194023641Y-177187755D01*
X194166868Y-177303705D01*
X194371717Y-177360231D01*
X194570301Y-177350584D01*
X194694731Y-177268013D01*
X194700641Y-177255075D01*
X194712814Y-177034978D01*
X194574392Y-176873859D01*
X194433460Y-176817879D01*
X194211287Y-176817691D01*
X194048525Y-176912319D01*
G37*
X194048525Y-176912319D02*
X193985800Y-177065096D01*
X194023641Y-177187755D01*
X194166868Y-177303705D01*
X194371717Y-177360231D01*
X194570301Y-177350584D01*
X194694731Y-177268013D01*
X194700641Y-177255075D01*
X194712814Y-177034978D01*
X194574392Y-176873859D01*
X194433460Y-176817879D01*
X194211287Y-176817691D01*
X194048525Y-176912319D01*
G36*
X199912248Y-178149966D02*
G01*
X199735000Y-178292396D01*
X199592429Y-178539667D01*
X199512303Y-178827429D01*
X199516414Y-179067329D01*
X199645943Y-179372875D01*
X199854583Y-179573928D01*
X200105286Y-179657389D01*
X200361004Y-179610158D01*
X200569189Y-179439582D01*
X200715840Y-179151511D01*
X200746253Y-178845224D01*
X200677717Y-178554657D01*
X200527520Y-178313751D01*
X200312951Y-178156444D01*
X200051299Y-178116674D01*
X199912248Y-178149966D01*
G37*
X199912248Y-178149966D02*
X199735000Y-178292396D01*
X199592429Y-178539667D01*
X199512303Y-178827429D01*
X199516414Y-179067329D01*
X199645943Y-179372875D01*
X199854583Y-179573928D01*
X200105286Y-179657389D01*
X200361004Y-179610158D01*
X200569189Y-179439582D01*
X200715840Y-179151511D01*
X200746253Y-178845224D01*
X200677717Y-178554657D01*
X200527520Y-178313751D01*
X200312951Y-178156444D01*
X200051299Y-178116674D01*
X199912248Y-178149966D01*
G36*
X206978257Y-178216539D02*
G01*
X206801581Y-178422204D01*
X206694494Y-178693092D01*
X206673537Y-178994893D01*
X206755249Y-179293297D01*
X206846812Y-179439582D01*
X207079687Y-179618251D01*
X207354135Y-179658541D01*
X207615570Y-179556360D01*
X207678713Y-179501954D01*
X207842541Y-179237971D01*
X207898390Y-178920153D01*
X207853792Y-178598717D01*
X207716275Y-178323880D01*
X207493369Y-178145861D01*
X207474219Y-178138116D01*
X207207983Y-178110407D01*
X206978257Y-178216539D01*
G37*
X206978257Y-178216539D02*
X206801581Y-178422204D01*
X206694494Y-178693092D01*
X206673537Y-178994893D01*
X206755249Y-179293297D01*
X206846812Y-179439582D01*
X207079687Y-179618251D01*
X207354135Y-179658541D01*
X207615570Y-179556360D01*
X207678713Y-179501954D01*
X207842541Y-179237971D01*
X207898390Y-178920153D01*
X207853792Y-178598717D01*
X207716275Y-178323880D01*
X207493369Y-178145861D01*
X207474219Y-178138116D01*
X207207983Y-178110407D01*
X206978257Y-178216539D01*
G36*
X202802718Y-178628202D02*
G01*
X202053055Y-178817366D01*
X201362485Y-179117463D01*
X200756076Y-179514996D01*
X200258892Y-179996466D01*
X199896001Y-180548373D01*
X199894380Y-180551667D01*
X199783775Y-180810499D01*
X199719862Y-181067960D01*
X199691327Y-181386214D01*
X199686334Y-181694667D01*
X199693172Y-182071874D01*
X199722395Y-182341061D01*
X199787064Y-182563286D01*
X199900240Y-182799606D01*
X199937155Y-182867160D01*
X200321679Y-183400519D01*
X200837338Y-183874431D01*
X201449712Y-184265017D01*
X202124379Y-184548396D01*
X202505668Y-184649103D01*
X202953287Y-184709920D01*
X203487018Y-184733533D01*
X204041137Y-184721075D01*
X204549918Y-184673680D01*
X204893334Y-184607921D01*
X205630672Y-184344892D01*
X206271508Y-183980320D01*
X206802253Y-183529029D01*
X207209321Y-183005840D01*
X207479124Y-182425577D01*
X207580556Y-181894730D01*
X207135596Y-181894730D01*
X206989015Y-182436717D01*
X206682202Y-182955055D01*
X206574220Y-183085713D01*
X206328636Y-183339229D01*
X206069844Y-183567574D01*
X205916283Y-183679946D01*
X205634629Y-183828417D01*
X205257988Y-183989663D01*
X204856025Y-184136915D01*
X204498405Y-184243403D01*
X204385334Y-184268227D01*
X204094353Y-184292928D01*
X203695564Y-184289315D01*
X203247278Y-184261907D01*
X202807804Y-184215225D01*
X202435454Y-184153789D01*
X202238340Y-184101806D01*
X201584507Y-183817477D01*
X201047632Y-183452231D01*
X200704584Y-183118620D01*
X200343682Y-182607244D01*
X200144139Y-182068252D01*
X200103986Y-181518718D01*
X200221254Y-180975716D01*
X200493973Y-180456318D01*
X200920172Y-179977598D01*
X201082797Y-179840403D01*
X201705412Y-179451781D01*
X202409953Y-179188805D01*
X203164824Y-179051475D01*
X203938431Y-179039790D01*
X204699179Y-179153751D01*
X205415473Y-179393358D01*
X206055717Y-179758611D01*
X206163871Y-179840403D01*
X206636083Y-180301932D01*
X206956917Y-180809833D01*
X207124159Y-181346601D01*
X207135596Y-181894730D01*
X207580556Y-181894730D01*
X207598073Y-181803060D01*
X207602667Y-181652334D01*
X207522153Y-181027814D01*
X207290841Y-180447810D01*
X206924075Y-179924123D01*
X206437200Y-179468555D01*
X205845562Y-179092907D01*
X205164506Y-178808981D01*
X204409375Y-178628578D01*
X203595516Y-178563501D01*
X203586410Y-178563470D01*
X202802718Y-178628202D01*
G37*
X202802718Y-178628202D02*
X202053055Y-178817366D01*
X201362485Y-179117463D01*
X200756076Y-179514996D01*
X200258892Y-179996466D01*
X199896001Y-180548373D01*
X199894380Y-180551667D01*
X199783775Y-180810499D01*
X199719862Y-181067960D01*
X199691327Y-181386214D01*
X199686334Y-181694667D01*
X199693172Y-182071874D01*
X199722395Y-182341061D01*
X199787064Y-182563286D01*
X199900240Y-182799606D01*
X199937155Y-182867160D01*
X200321679Y-183400519D01*
X200837338Y-183874431D01*
X201449712Y-184265017D01*
X202124379Y-184548396D01*
X202505668Y-184649103D01*
X202953287Y-184709920D01*
X203487018Y-184733533D01*
X204041137Y-184721075D01*
X204549918Y-184673680D01*
X204893334Y-184607921D01*
X205630672Y-184344892D01*
X206271508Y-183980320D01*
X206802253Y-183529029D01*
X207209321Y-183005840D01*
X207479124Y-182425577D01*
X207580556Y-181894730D01*
X207135596Y-181894730D01*
X206989015Y-182436717D01*
X206682202Y-182955055D01*
X206574220Y-183085713D01*
X206328636Y-183339229D01*
X206069844Y-183567574D01*
X205916283Y-183679946D01*
X205634629Y-183828417D01*
X205257988Y-183989663D01*
X204856025Y-184136915D01*
X204498405Y-184243403D01*
X204385334Y-184268227D01*
X204094353Y-184292928D01*
X203695564Y-184289315D01*
X203247278Y-184261907D01*
X202807804Y-184215225D01*
X202435454Y-184153789D01*
X202238340Y-184101806D01*
X201584507Y-183817477D01*
X201047632Y-183452231D01*
X200704584Y-183118620D01*
X200343682Y-182607244D01*
X200144139Y-182068252D01*
X200103986Y-181518718D01*
X200221254Y-180975716D01*
X200493973Y-180456318D01*
X200920172Y-179977598D01*
X201082797Y-179840403D01*
X201705412Y-179451781D01*
X202409953Y-179188805D01*
X203164824Y-179051475D01*
X203938431Y-179039790D01*
X204699179Y-179153751D01*
X205415473Y-179393358D01*
X206055717Y-179758611D01*
X206163871Y-179840403D01*
X206636083Y-180301932D01*
X206956917Y-180809833D01*
X207124159Y-181346601D01*
X207135596Y-181894730D01*
X207580556Y-181894730D01*
X207598073Y-181803060D01*
X207602667Y-181652334D01*
X207522153Y-181027814D01*
X207290841Y-180447810D01*
X206924075Y-179924123D01*
X206437200Y-179468555D01*
X205845562Y-179092907D01*
X205164506Y-178808981D01*
X204409375Y-178628578D01*
X203595516Y-178563501D01*
X203586410Y-178563470D01*
X202802718Y-178628202D01*
G36*
X203817964Y-190825044D02*
G01*
X203769863Y-191035287D01*
X203789887Y-191207340D01*
X203850308Y-191430453D01*
X203909439Y-191583710D01*
X203913495Y-191590681D01*
X204044879Y-191672034D01*
X204223016Y-191672835D01*
X204344921Y-191597560D01*
X204376028Y-191424839D01*
X204342853Y-191180858D01*
X204264216Y-190939422D01*
X204158936Y-190774338D01*
X204129585Y-190753064D01*
X203945284Y-190721058D01*
X203817964Y-190825044D01*
G37*
X203817964Y-190825044D02*
X203769863Y-191035287D01*
X203789887Y-191207340D01*
X203850308Y-191430453D01*
X203909439Y-191583710D01*
X203913495Y-191590681D01*
X204044879Y-191672034D01*
X204223016Y-191672835D01*
X204344921Y-191597560D01*
X204376028Y-191424839D01*
X204342853Y-191180858D01*
X204264216Y-190939422D01*
X204158936Y-190774338D01*
X204129585Y-190753064D01*
X203945284Y-190721058D01*
X203817964Y-190825044D01*
G36*
X204148520Y-192688461D02*
G01*
X204080121Y-192810019D01*
X204062761Y-192930255D01*
X204072494Y-193179451D01*
X204129240Y-193374755D01*
X204268962Y-193510412D01*
X204443429Y-193541032D01*
X204584951Y-193461444D01*
X204612305Y-193411647D01*
X204627686Y-193242071D01*
X204597054Y-193004238D01*
X204588481Y-192967147D01*
X204514698Y-192757262D01*
X204406617Y-192670750D01*
X204300667Y-192659000D01*
X204148520Y-192688461D01*
G37*
X204148520Y-192688461D02*
X204080121Y-192810019D01*
X204062761Y-192930255D01*
X204072494Y-193179451D01*
X204129240Y-193374755D01*
X204268962Y-193510412D01*
X204443429Y-193541032D01*
X204584951Y-193461444D01*
X204612305Y-193411647D01*
X204627686Y-193242071D01*
X204597054Y-193004238D01*
X204588481Y-192967147D01*
X204514698Y-192757262D01*
X204406617Y-192670750D01*
X204300667Y-192659000D01*
X204148520Y-192688461D01*
G36*
X204312278Y-194457738D02*
G01*
X204209035Y-194617168D01*
X204168460Y-194855566D01*
X204199592Y-195100102D01*
X204303905Y-195319510D01*
X204451364Y-195395188D01*
X204616907Y-195314531D01*
X204619929Y-195311538D01*
X204696041Y-195143099D01*
X204720932Y-194895573D01*
X204694354Y-194650729D01*
X204622400Y-194496267D01*
X204457097Y-194407397D01*
X204312278Y-194457738D01*
G37*
X204312278Y-194457738D02*
X204209035Y-194617168D01*
X204168460Y-194855566D01*
X204199592Y-195100102D01*
X204303905Y-195319510D01*
X204451364Y-195395188D01*
X204616907Y-195314531D01*
X204619929Y-195311538D01*
X204696041Y-195143099D01*
X204720932Y-194895573D01*
X204694354Y-194650729D01*
X204622400Y-194496267D01*
X204457097Y-194407397D01*
X204312278Y-194457738D01*
G36*
X204236271Y-196482877D02*
G01*
X204157648Y-196699920D01*
X204148732Y-196934667D01*
X204192489Y-197148491D01*
X204295568Y-197242743D01*
X204358439Y-197257305D01*
X204552789Y-197209608D01*
X204638825Y-197104951D01*
X204708885Y-196848107D01*
X204675636Y-196592337D01*
X204549870Y-196407333D01*
X204528542Y-196392873D01*
X204367544Y-196369628D01*
X204236271Y-196482877D01*
G37*
X204236271Y-196482877D02*
X204157648Y-196699920D01*
X204148732Y-196934667D01*
X204192489Y-197148491D01*
X204295568Y-197242743D01*
X204358439Y-197257305D01*
X204552789Y-197209608D01*
X204638825Y-197104951D01*
X204708885Y-196848107D01*
X204675636Y-196592337D01*
X204549870Y-196407333D01*
X204528542Y-196392873D01*
X204367544Y-196369628D01*
X204236271Y-196482877D01*
G36*
X204090378Y-198260725D02*
G01*
X204027709Y-198330771D01*
X204006339Y-198500440D01*
X204004334Y-198670334D01*
X204013275Y-198925364D01*
X204052981Y-199057052D01*
X204142778Y-199111002D01*
X204195212Y-199120772D01*
X204368250Y-199093979D01*
X204433687Y-199023842D01*
X204458324Y-198861420D01*
X204457792Y-198620862D01*
X204454476Y-198573404D01*
X204422250Y-198359040D01*
X204350117Y-198266179D01*
X204216000Y-198247000D01*
X204090378Y-198260725D01*
G37*
X204090378Y-198260725D02*
X204027709Y-198330771D01*
X204006339Y-198500440D01*
X204004334Y-198670334D01*
X204013275Y-198925364D01*
X204052981Y-199057052D01*
X204142778Y-199111002D01*
X204195212Y-199120772D01*
X204368250Y-199093979D01*
X204433687Y-199023842D01*
X204458324Y-198861420D01*
X204457792Y-198620862D01*
X204454476Y-198573404D01*
X204422250Y-198359040D01*
X204350117Y-198266179D01*
X204216000Y-198247000D01*
X204090378Y-198260725D01*
G36*
X203902568Y-200082619D02*
G01*
X203798419Y-200177802D01*
X203720476Y-200376147D01*
X203681548Y-200612012D01*
X203694444Y-200819756D01*
X203740580Y-200912713D01*
X203907723Y-200994317D01*
X204062760Y-200943751D01*
X204095172Y-200904014D01*
X204153162Y-200760329D01*
X204214250Y-200540536D01*
X204217689Y-200525513D01*
X204226610Y-200263088D01*
X204122138Y-200108472D01*
X203917319Y-200080001D01*
X203902568Y-200082619D01*
G37*
X203902568Y-200082619D02*
X203798419Y-200177802D01*
X203720476Y-200376147D01*
X203681548Y-200612012D01*
X203694444Y-200819756D01*
X203740580Y-200912713D01*
X203907723Y-200994317D01*
X204062760Y-200943751D01*
X204095172Y-200904014D01*
X204153162Y-200760329D01*
X204214250Y-200540536D01*
X204217689Y-200525513D01*
X204226610Y-200263088D01*
X204122138Y-200108472D01*
X203917319Y-200080001D01*
X203902568Y-200082619D01*
G36*
X186424136Y-195353512D02*
G01*
X186190739Y-195461419D01*
X186058047Y-195575070D01*
X186052695Y-195715577D01*
X186163665Y-195845886D01*
X186342857Y-195915304D01*
X186382867Y-195917419D01*
X186596722Y-195878192D01*
X186774667Y-195809466D01*
X186947127Y-195666235D01*
X187014271Y-195494704D01*
X186966640Y-195346429D01*
X186870484Y-195287206D01*
X186676516Y-195286300D01*
X186424136Y-195353512D01*
G37*
X186424136Y-195353512D02*
X186190739Y-195461419D01*
X186058047Y-195575070D01*
X186052695Y-195715577D01*
X186163665Y-195845886D01*
X186342857Y-195915304D01*
X186382867Y-195917419D01*
X186596722Y-195878192D01*
X186774667Y-195809466D01*
X186947127Y-195666235D01*
X187014271Y-195494704D01*
X186966640Y-195346429D01*
X186870484Y-195287206D01*
X186676516Y-195286300D01*
X186424136Y-195353512D01*
G36*
X187550758Y-195467124D02*
G01*
X187416831Y-195591465D01*
X187418135Y-195731903D01*
X187559552Y-195917875D01*
X187638212Y-195994642D01*
X187881926Y-196191773D01*
X188052813Y-196251042D01*
X188168073Y-196178003D01*
X188174641Y-196167855D01*
X188202077Y-195988305D01*
X188120840Y-195783582D01*
X187968854Y-195596282D01*
X187784044Y-195469000D01*
X187604334Y-195444332D01*
X187550758Y-195467124D01*
G37*
X187550758Y-195467124D02*
X187416831Y-195591465D01*
X187418135Y-195731903D01*
X187559552Y-195917875D01*
X187638212Y-195994642D01*
X187881926Y-196191773D01*
X188052813Y-196251042D01*
X188168073Y-196178003D01*
X188174641Y-196167855D01*
X188202077Y-195988305D01*
X188120840Y-195783582D01*
X187968854Y-195596282D01*
X187784044Y-195469000D01*
X187604334Y-195444332D01*
X187550758Y-195467124D01*
G36*
X188388584Y-196577453D02*
G01*
X188314000Y-196744928D01*
X188325901Y-196967433D01*
X188426104Y-197198642D01*
X188516509Y-197309746D01*
X188655170Y-197418997D01*
X188792215Y-197415244D01*
X188870167Y-197386594D01*
X188959618Y-197273038D01*
X188961431Y-197079273D01*
X188894532Y-196856685D01*
X188777846Y-196656665D01*
X188630297Y-196530600D01*
X188547836Y-196511334D01*
X188388584Y-196577453D01*
G37*
X188388584Y-196577453D02*
X188314000Y-196744928D01*
X188325901Y-196967433D01*
X188426104Y-197198642D01*
X188516509Y-197309746D01*
X188655170Y-197418997D01*
X188792215Y-197415244D01*
X188870167Y-197386594D01*
X188959618Y-197273038D01*
X188961431Y-197079273D01*
X188894532Y-196856685D01*
X188777846Y-196656665D01*
X188630297Y-196530600D01*
X188547836Y-196511334D01*
X188388584Y-196577453D01*
G36*
X189015644Y-197812983D02*
G01*
X188925121Y-197884942D01*
X188909591Y-198033861D01*
X188931989Y-198184394D01*
X189022911Y-198500672D01*
X189157131Y-198669825D01*
X189317979Y-198712667D01*
X189465358Y-198661635D01*
X189506326Y-198606834D01*
X189505123Y-198433636D01*
X189439743Y-198195120D01*
X189335726Y-197969581D01*
X189267778Y-197875589D01*
X189108064Y-197801749D01*
X189015644Y-197812983D01*
G37*
X189015644Y-197812983D02*
X188925121Y-197884942D01*
X188909591Y-198033861D01*
X188931989Y-198184394D01*
X189022911Y-198500672D01*
X189157131Y-198669825D01*
X189317979Y-198712667D01*
X189465358Y-198661635D01*
X189506326Y-198606834D01*
X189505123Y-198433636D01*
X189439743Y-198195120D01*
X189335726Y-197969581D01*
X189267778Y-197875589D01*
X189108064Y-197801749D01*
X189015644Y-197812983D01*
G36*
X189421733Y-199081669D02*
G01*
X189331080Y-199158557D01*
X189282689Y-199314650D01*
X189295166Y-199542021D01*
X189353673Y-199782122D01*
X189443370Y-199976407D01*
X189549419Y-200066328D01*
X189561413Y-200067334D01*
X189719631Y-200038457D01*
X189766223Y-200010889D01*
X189811935Y-199875418D01*
X189820051Y-199648778D01*
X189793443Y-199404230D01*
X189735022Y-199215101D01*
X189590853Y-199070813D01*
X189421733Y-199081669D01*
G37*
X189421733Y-199081669D02*
X189331080Y-199158557D01*
X189282689Y-199314650D01*
X189295166Y-199542021D01*
X189353673Y-199782122D01*
X189443370Y-199976407D01*
X189549419Y-200066328D01*
X189561413Y-200067334D01*
X189719631Y-200038457D01*
X189766223Y-200010889D01*
X189811935Y-199875418D01*
X189820051Y-199648778D01*
X189793443Y-199404230D01*
X189735022Y-199215101D01*
X189590853Y-199070813D01*
X189421733Y-199081669D01*
G36*
X189578326Y-200552071D02*
G01*
X189485302Y-200698811D01*
X189451895Y-200933036D01*
X189479049Y-201183390D01*
X189567388Y-201378126D01*
X189683273Y-201484331D01*
X189813526Y-201477752D01*
X189886167Y-201450594D01*
X189954679Y-201339520D01*
X189989371Y-201096949D01*
X189992000Y-200988954D01*
X189956518Y-200676308D01*
X189853183Y-200511037D01*
X189686663Y-200498072D01*
X189578326Y-200552071D01*
G37*
X189578326Y-200552071D02*
X189485302Y-200698811D01*
X189451895Y-200933036D01*
X189479049Y-201183390D01*
X189567388Y-201378126D01*
X189683273Y-201484331D01*
X189813526Y-201477752D01*
X189886167Y-201450594D01*
X189954679Y-201339520D01*
X189989371Y-201096949D01*
X189992000Y-200988954D01*
X189956518Y-200676308D01*
X189853183Y-200511037D01*
X189686663Y-200498072D01*
X189578326Y-200552071D01*
G36*
X189776955Y-201877248D02*
G01*
X189697126Y-201952134D01*
X189665265Y-202120818D01*
X189670043Y-202373553D01*
X189695250Y-202639653D01*
X189743902Y-202779689D01*
X189834833Y-202836867D01*
X189875391Y-202844643D01*
X190047780Y-202808106D01*
X190108224Y-202731885D01*
X190168127Y-202450565D01*
X190145607Y-202186701D01*
X190056026Y-201979925D01*
X189914745Y-201869863D01*
X189776955Y-201877248D01*
G37*
X189776955Y-201877248D02*
X189697126Y-201952134D01*
X189665265Y-202120818D01*
X189670043Y-202373553D01*
X189695250Y-202639653D01*
X189743902Y-202779689D01*
X189834833Y-202836867D01*
X189875391Y-202844643D01*
X190047780Y-202808106D01*
X190108224Y-202731885D01*
X190168127Y-202450565D01*
X190145607Y-202186701D01*
X190056026Y-201979925D01*
X189914745Y-201869863D01*
X189776955Y-201877248D01*
G36*
X189782925Y-203341578D02*
G01*
X189715759Y-203413433D01*
X189683322Y-203584743D01*
X189670076Y-203771500D01*
X189660326Y-204029906D01*
X189682017Y-204161860D01*
X189753563Y-204209743D01*
X189863233Y-204216000D01*
X190043953Y-204175190D01*
X190127299Y-204097904D01*
X190150414Y-203939824D01*
X190149209Y-203701831D01*
X190145809Y-203653404D01*
X190113583Y-203439040D01*
X190041451Y-203346179D01*
X189907334Y-203327000D01*
X189782925Y-203341578D01*
G37*
X189782925Y-203341578D02*
X189715759Y-203413433D01*
X189683322Y-203584743D01*
X189670076Y-203771500D01*
X189660326Y-204029906D01*
X189682017Y-204161860D01*
X189753563Y-204209743D01*
X189863233Y-204216000D01*
X190043953Y-204175190D01*
X190127299Y-204097904D01*
X190150414Y-203939824D01*
X190149209Y-203701831D01*
X190145809Y-203653404D01*
X190113583Y-203439040D01*
X190041451Y-203346179D01*
X189907334Y-203327000D01*
X189782925Y-203341578D01*
G36*
X220444095Y-195522535D02*
G01*
X220381975Y-195585771D01*
X220309632Y-195780046D01*
X220384706Y-195929631D01*
X220596281Y-196049987D01*
X220884194Y-196150236D01*
X221074733Y-196157206D01*
X221212045Y-196070597D01*
X221234000Y-196045667D01*
X221284334Y-195886268D01*
X221172201Y-195735637D01*
X220904463Y-195601269D01*
X220793968Y-195564994D01*
X220567675Y-195509669D01*
X220444095Y-195522535D01*
G37*
X220444095Y-195522535D02*
X220381975Y-195585771D01*
X220309632Y-195780046D01*
X220384706Y-195929631D01*
X220596281Y-196049987D01*
X220884194Y-196150236D01*
X221074733Y-196157206D01*
X221212045Y-196070597D01*
X221234000Y-196045667D01*
X221284334Y-195886268D01*
X221172201Y-195735637D01*
X220904463Y-195601269D01*
X220793968Y-195564994D01*
X220567675Y-195509669D01*
X220444095Y-195522535D01*
G36*
X219461662Y-195784138D02*
G01*
X219386924Y-195840613D01*
X219154047Y-196058201D01*
X219068007Y-196232918D01*
X219118870Y-196385896D01*
X219126240Y-196395065D01*
X219264368Y-196496773D01*
X219428518Y-196471878D01*
X219648399Y-196313422D01*
X219708553Y-196258686D01*
X219894123Y-196047767D01*
X219930758Y-195886226D01*
X219821679Y-195749135D01*
X219778259Y-195719662D01*
X219642274Y-195693140D01*
X219461662Y-195784138D01*
G37*
X219461662Y-195784138D02*
X219386924Y-195840613D01*
X219154047Y-196058201D01*
X219068007Y-196232918D01*
X219118870Y-196385896D01*
X219126240Y-196395065D01*
X219264368Y-196496773D01*
X219428518Y-196471878D01*
X219648399Y-196313422D01*
X219708553Y-196258686D01*
X219894123Y-196047767D01*
X219930758Y-195886226D01*
X219821679Y-195749135D01*
X219778259Y-195719662D01*
X219642274Y-195693140D01*
X219461662Y-195784138D01*
G36*
X218645241Y-196833899D02*
G01*
X218490695Y-196997229D01*
X218372172Y-197214649D01*
X218321217Y-197429627D01*
X218360689Y-197576119D01*
X218524170Y-197687518D01*
X218694077Y-197632100D01*
X218866046Y-197421500D01*
X218992462Y-197140105D01*
X218994875Y-196925211D01*
X218875506Y-196799829D01*
X218804263Y-196781192D01*
X218645241Y-196833899D01*
G37*
X218645241Y-196833899D02*
X218490695Y-196997229D01*
X218372172Y-197214649D01*
X218321217Y-197429627D01*
X218360689Y-197576119D01*
X218524170Y-197687518D01*
X218694077Y-197632100D01*
X218866046Y-197421500D01*
X218992462Y-197140105D01*
X218994875Y-196925211D01*
X218875506Y-196799829D01*
X218804263Y-196781192D01*
X218645241Y-196833899D01*
G36*
X218013180Y-198215194D02*
G01*
X217909201Y-198383988D01*
X217811874Y-198673040D01*
X217842355Y-198869128D01*
X217997552Y-198961064D01*
X218070154Y-198966667D01*
X218258231Y-198903680D01*
X218361491Y-198738807D01*
X218430698Y-198442240D01*
X218405456Y-198221972D01*
X218310778Y-198097625D01*
X218171681Y-198088824D01*
X218013180Y-198215194D01*
G37*
X218013180Y-198215194D02*
X217909201Y-198383988D01*
X217811874Y-198673040D01*
X217842355Y-198869128D01*
X217997552Y-198961064D01*
X218070154Y-198966667D01*
X218258231Y-198903680D01*
X218361491Y-198738807D01*
X218430698Y-198442240D01*
X218405456Y-198221972D01*
X218310778Y-198097625D01*
X218171681Y-198088824D01*
X218013180Y-198215194D01*
G36*
X217696154Y-199385326D02*
G01*
X217561031Y-199598905D01*
X217509144Y-199768887D01*
X217473052Y-200006327D01*
X217476120Y-200183655D01*
X217481992Y-200204607D01*
X217587358Y-200288345D01*
X217762538Y-200321568D01*
X217917781Y-200294245D01*
X217958217Y-200257834D01*
X217995571Y-200139544D01*
X218042377Y-199926784D01*
X218052921Y-199870416D01*
X218062519Y-199561532D01*
X217982514Y-199373289D01*
X217848520Y-199312337D01*
X217696154Y-199385326D01*
G37*
X217696154Y-199385326D02*
X217561031Y-199598905D01*
X217509144Y-199768887D01*
X217473052Y-200006327D01*
X217476120Y-200183655D01*
X217481992Y-200204607D01*
X217587358Y-200288345D01*
X217762538Y-200321568D01*
X217917781Y-200294245D01*
X217958217Y-200257834D01*
X217995571Y-200139544D01*
X218042377Y-199926784D01*
X218052921Y-199870416D01*
X218062519Y-199561532D01*
X217982514Y-199373289D01*
X217848520Y-199312337D01*
X217696154Y-199385326D01*
G36*
X217374249Y-200806121D02*
G01*
X217306293Y-200894031D01*
X217275011Y-201096548D01*
X217270660Y-201153091D01*
X217284819Y-201449525D01*
X217363314Y-201665068D01*
X217490350Y-201759405D01*
X217508667Y-201760667D01*
X217610591Y-201703334D01*
X217672807Y-201639924D01*
X217729505Y-201484228D01*
X217750043Y-201240939D01*
X217746674Y-201153091D01*
X217719063Y-200922986D01*
X217660565Y-200816392D01*
X217541394Y-200787490D01*
X217508667Y-200787000D01*
X217374249Y-200806121D01*
G37*
X217374249Y-200806121D02*
X217306293Y-200894031D01*
X217275011Y-201096548D01*
X217270660Y-201153091D01*
X217284819Y-201449525D01*
X217363314Y-201665068D01*
X217490350Y-201759405D01*
X217508667Y-201760667D01*
X217610591Y-201703334D01*
X217672807Y-201639924D01*
X217729505Y-201484228D01*
X217750043Y-201240939D01*
X217746674Y-201153091D01*
X217719063Y-200922986D01*
X217660565Y-200816392D01*
X217541394Y-200787490D01*
X217508667Y-200787000D01*
X217374249Y-200806121D01*
G36*
X217252308Y-202165056D02*
G01*
X217189850Y-202378577D01*
X217186710Y-202627553D01*
X217212504Y-202894929D01*
X217262153Y-203035539D01*
X217353577Y-203091845D01*
X217385151Y-203097738D01*
X217553388Y-203092074D01*
X217617985Y-203062461D01*
X217670086Y-202918092D01*
X217679367Y-202684105D01*
X217651289Y-202433187D01*
X217591309Y-202238023D01*
X217552079Y-202184895D01*
X217375318Y-202097748D01*
X217252308Y-202165056D01*
G37*
X217252308Y-202165056D02*
X217189850Y-202378577D01*
X217186710Y-202627553D01*
X217212504Y-202894929D01*
X217262153Y-203035539D01*
X217353577Y-203091845D01*
X217385151Y-203097738D01*
X217553388Y-203092074D01*
X217617985Y-203062461D01*
X217670086Y-202918092D01*
X217679367Y-202684105D01*
X217651289Y-202433187D01*
X217591309Y-202238023D01*
X217552079Y-202184895D01*
X217375318Y-202097748D01*
X217252308Y-202165056D01*
G36*
X217298378Y-203594725D02*
G01*
X217235709Y-203664771D01*
X217214339Y-203834440D01*
X217212334Y-204004334D01*
X217221275Y-204259364D01*
X217260981Y-204391052D01*
X217350778Y-204445002D01*
X217403212Y-204454772D01*
X217576250Y-204427979D01*
X217641687Y-204357842D01*
X217666324Y-204195420D01*
X217665792Y-203954862D01*
X217662476Y-203907404D01*
X217630250Y-203693040D01*
X217558117Y-203600179D01*
X217424000Y-203581000D01*
X217298378Y-203594725D01*
G37*
X217298378Y-203594725D02*
X217235709Y-203664771D01*
X217214339Y-203834440D01*
X217212334Y-204004334D01*
X217221275Y-204259364D01*
X217260981Y-204391052D01*
X217350778Y-204445002D01*
X217403212Y-204454772D01*
X217576250Y-204427979D01*
X217641687Y-204357842D01*
X217666324Y-204195420D01*
X217665792Y-203954862D01*
X217662476Y-203907404D01*
X217630250Y-203693040D01*
X217558117Y-203600179D01*
X217424000Y-203581000D01*
X217298378Y-203594725D01*
G36*
X211376892Y-171325526D02*
G01*
X210646326Y-171501987D01*
X209962969Y-171822398D01*
X209351468Y-172282784D01*
X209225231Y-172406355D01*
X208858128Y-172783558D01*
X208383139Y-172497535D01*
X207822881Y-172204545D01*
X207144146Y-171921708D01*
X206397531Y-171668595D01*
X205842227Y-171514715D01*
X205260931Y-171407932D01*
X204567587Y-171341609D01*
X203814573Y-171315747D01*
X203054269Y-171330346D01*
X202339054Y-171385406D01*
X201721309Y-171480928D01*
X201573774Y-171514715D01*
X200389547Y-171878107D01*
X199316908Y-172345928D01*
X198820746Y-172621262D01*
X198148551Y-173025264D01*
X197901442Y-172695607D01*
X197451440Y-172222305D01*
X196884013Y-171822742D01*
X196243492Y-171520564D01*
X195574207Y-171339421D01*
X195294791Y-171305092D01*
X194525206Y-171321640D01*
X193817221Y-171480462D01*
X193178985Y-171764337D01*
X192618650Y-172156048D01*
X192144367Y-172638376D01*
X191764286Y-173194102D01*
X191486559Y-173806008D01*
X191319336Y-174456874D01*
X191270769Y-175129483D01*
X191349008Y-175806615D01*
X191562205Y-176471052D01*
X191918509Y-177105575D01*
X192320334Y-177588571D01*
X192822968Y-178006382D01*
X193425556Y-178354206D01*
X194062209Y-178596273D01*
X194270252Y-178647203D01*
X194733334Y-178743339D01*
X194733334Y-179545239D01*
X194814777Y-180666681D01*
X195058488Y-181740894D01*
X195463535Y-182765825D01*
X196028990Y-183739417D01*
X196753923Y-184659617D01*
X197300325Y-185218800D01*
X198098141Y-185973852D01*
X197536087Y-186280435D01*
X196817756Y-186721611D01*
X196075408Y-187265989D01*
X195345869Y-187880585D01*
X194665961Y-188532415D01*
X194072510Y-189188497D01*
X193621883Y-189786373D01*
X193074512Y-190710748D01*
X192619117Y-191694240D01*
X192279160Y-192682616D01*
X192157998Y-193170122D01*
X192066343Y-193366132D01*
X191869102Y-193640872D01*
X191589302Y-193962924D01*
X191534403Y-194020932D01*
X191271349Y-194307872D01*
X191043060Y-194579247D01*
X190883816Y-194793327D01*
X190841471Y-194864477D01*
X190753322Y-195041551D01*
X190706256Y-195135598D01*
X190705140Y-195137776D01*
X190644422Y-195091898D01*
X190489773Y-194949514D01*
X190266461Y-194734391D01*
X190067336Y-194537838D01*
X189631384Y-194140795D01*
X189234259Y-193872248D01*
X188833164Y-193712333D01*
X188385305Y-193641181D01*
X188117427Y-193632667D01*
X187466500Y-193714024D01*
X186859638Y-193951933D01*
X186306474Y-194337149D01*
X185816642Y-194860428D01*
X185399776Y-195512525D01*
X185065509Y-196284197D01*
X184941046Y-196680667D01*
X184885011Y-196911553D01*
X184844014Y-197165192D01*
X184816033Y-197471578D01*
X184799045Y-197860705D01*
X184791029Y-198362569D01*
X184789796Y-198924334D01*
X184793004Y-199536662D01*
X184802623Y-200019705D01*
X184822020Y-200413482D01*
X184854562Y-200758012D01*
X184903617Y-201093316D01*
X184972550Y-201459414D01*
X185023777Y-201705444D01*
X185125862Y-202162553D01*
X185233215Y-202604550D01*
X185333119Y-202981223D01*
X185412860Y-203242362D01*
X185413314Y-203243655D01*
X185733415Y-203916798D01*
X186181273Y-204478882D01*
X186756348Y-204929365D01*
X187409667Y-205249522D01*
X187625620Y-205325459D01*
X187834293Y-205378711D01*
X188072132Y-205413133D01*
X188375584Y-205432582D01*
X188781093Y-205440916D01*
X189230000Y-205442143D01*
X189839262Y-205433652D01*
X190371353Y-205404997D01*
X190866316Y-205349109D01*
X191364194Y-205258914D01*
X191905027Y-205127341D01*
X192528860Y-204947319D01*
X193167000Y-204746836D01*
X194274110Y-204359397D01*
X195464196Y-203885521D01*
X196688731Y-203345455D01*
X197748171Y-202835588D01*
X198811798Y-202302511D01*
X199884066Y-202658517D01*
X200793205Y-202932575D01*
X201633114Y-203120304D01*
X202472113Y-203232738D01*
X203378521Y-203280913D01*
X203760955Y-203284667D01*
X204936806Y-203234899D01*
X206033669Y-203078956D01*
X207111898Y-202806876D01*
X207574594Y-202655269D01*
X208389403Y-202371380D01*
X209244869Y-202822524D01*
X210192989Y-203296439D01*
X211210874Y-203758475D01*
X212262723Y-204195024D01*
X213312734Y-204592477D01*
X214325106Y-204937227D01*
X215264040Y-205215664D01*
X216027000Y-205400473D01*
X216686144Y-205512875D01*
X217378988Y-205586745D01*
X218060488Y-205620343D01*
X218685597Y-205611927D01*
X219209271Y-205559759D01*
X219366356Y-205529463D01*
X220123488Y-205282158D01*
X220772763Y-204912502D01*
X221305463Y-204427183D01*
X221712870Y-203832889D01*
X221794911Y-203666352D01*
X221977905Y-203175511D01*
X222145657Y-202552493D01*
X222292817Y-201834166D01*
X222414038Y-201057398D01*
X222503970Y-200259057D01*
X222557264Y-199476010D01*
X222559163Y-199353246D01*
X221988782Y-199353246D01*
X221944365Y-200139620D01*
X221874547Y-200744667D01*
X221759720Y-201461515D01*
X221632236Y-202125816D01*
X221498584Y-202709638D01*
X221365254Y-203185046D01*
X221238734Y-203524108D01*
X221219652Y-203563649D01*
X220851782Y-204109133D01*
X220360557Y-204550034D01*
X219765693Y-204872347D01*
X219117334Y-205056867D01*
X218639524Y-205105825D01*
X218048759Y-205112242D01*
X217395292Y-205078694D01*
X216729379Y-205007762D01*
X216101724Y-204902117D01*
X215414771Y-204737773D01*
X214623397Y-204510200D01*
X213773492Y-204234145D01*
X212910945Y-203924355D01*
X212240152Y-203661126D01*
X211873887Y-203506796D01*
X211450056Y-203321004D01*
X210994541Y-203115924D01*
X210533220Y-202903733D01*
X210091973Y-202696604D01*
X209696681Y-202506714D01*
X209373222Y-202346238D01*
X209147478Y-202227350D01*
X209045327Y-202162227D01*
X209042000Y-202156552D01*
X209108833Y-202097140D01*
X209287444Y-201972162D01*
X209545001Y-201804155D01*
X209670576Y-201725086D01*
X210244849Y-201321805D01*
X210821391Y-200836167D01*
X211354443Y-200311338D01*
X211798242Y-199790485D01*
X211957110Y-199568195D01*
X212150961Y-199247859D01*
X212351114Y-198869322D01*
X212539425Y-198473014D01*
X212697750Y-198099363D01*
X212807945Y-197788802D01*
X212851868Y-197581759D01*
X212852000Y-197574072D01*
X212872386Y-197472834D01*
X212947594Y-197420093D01*
X213098697Y-197418262D01*
X213346770Y-197469753D01*
X213712887Y-197576981D01*
X214164334Y-197724338D01*
X214605500Y-197873818D01*
X214911578Y-197985535D01*
X215108696Y-198073527D01*
X215222980Y-198151837D01*
X215280556Y-198234506D01*
X215307552Y-198335573D01*
X215308165Y-198339053D01*
X215374822Y-198523241D01*
X215512375Y-198584345D01*
X215549992Y-198585667D01*
X215650037Y-198567147D01*
X215735747Y-198492119D01*
X215825161Y-198331382D01*
X215936315Y-198055735D01*
X216020785Y-197823494D01*
X216381704Y-196927774D01*
X216781369Y-196145907D01*
X216881340Y-195993422D01*
X216173220Y-195993422D01*
X215888444Y-196716152D01*
X215721179Y-197104400D01*
X215583832Y-197346965D01*
X215481602Y-197434769D01*
X215476667Y-197434917D01*
X215353862Y-197406375D01*
X215104639Y-197330804D01*
X214761837Y-197218722D01*
X214358292Y-197080649D01*
X214227208Y-197034642D01*
X213104749Y-196638334D01*
X213077294Y-195570288D01*
X212500788Y-195570288D01*
X212489536Y-195938647D01*
X212434937Y-196634414D01*
X212337362Y-197225316D01*
X212181198Y-197773598D01*
X211950830Y-198341503D01*
X211814891Y-198628000D01*
X211380048Y-199343155D01*
X210799684Y-200033210D01*
X210097547Y-200677813D01*
X209297382Y-201256609D01*
X208422936Y-201749246D01*
X207899255Y-201984148D01*
X207123014Y-202261800D01*
X206270056Y-202501165D01*
X205420210Y-202681809D01*
X204851000Y-202764487D01*
X204428902Y-202809578D01*
X204109919Y-202836374D01*
X203838541Y-202844987D01*
X203559261Y-202835530D01*
X203216568Y-202808117D01*
X202812539Y-202768635D01*
X201517572Y-202575630D01*
X200317921Y-202269150D01*
X199573609Y-201988284D01*
X198120000Y-201988284D01*
X198046700Y-202043502D01*
X197843682Y-202154915D01*
X197536267Y-202310631D01*
X197149779Y-202498757D01*
X196709539Y-202707401D01*
X196240871Y-202924668D01*
X195769096Y-203138666D01*
X195319537Y-203337501D01*
X194917517Y-203509282D01*
X194648667Y-203618637D01*
X193304090Y-204110992D01*
X192058437Y-204491693D01*
X190916398Y-204759865D01*
X189882659Y-204914631D01*
X188961909Y-204955115D01*
X188158835Y-204880441D01*
X188030801Y-204855480D01*
X187518498Y-204721668D01*
X187116762Y-204549983D01*
X186767077Y-204311754D01*
X186576993Y-204143171D01*
X186320509Y-203856689D01*
X186102029Y-203511012D01*
X185914367Y-203085523D01*
X185750336Y-202559606D01*
X185602751Y-201912644D01*
X185464425Y-201124022D01*
X185417923Y-200817892D01*
X185292889Y-199651430D01*
X185271599Y-198572649D01*
X185351783Y-197589671D01*
X185531172Y-196710618D01*
X185807497Y-195943612D01*
X186178488Y-195296776D01*
X186641876Y-194778232D01*
X187195391Y-194396101D01*
X187215097Y-194385945D01*
X187769812Y-194184326D01*
X188311630Y-194149520D01*
X188837526Y-194279295D01*
X189344476Y-194571420D01*
X189829454Y-195023661D01*
X190289436Y-195633787D01*
X190721398Y-196399566D01*
X191095191Y-197249140D01*
X191281123Y-197695970D01*
X191433369Y-197992485D01*
X191563812Y-198151461D01*
X191684335Y-198185669D01*
X191806820Y-198107882D01*
X191849540Y-198060003D01*
X192016357Y-197939701D01*
X192345738Y-197787777D01*
X192839035Y-197603654D01*
X193205010Y-197480501D01*
X193626162Y-197345307D01*
X193986160Y-197234201D01*
X194256453Y-197155642D01*
X194408492Y-197118091D01*
X194431125Y-197117164D01*
X194465326Y-197206554D01*
X194533562Y-197416169D01*
X194622163Y-197703761D01*
X194638045Y-197756628D01*
X195019022Y-198738384D01*
X195550600Y-199644406D01*
X196230472Y-200471706D01*
X197056329Y-201217297D01*
X197633167Y-201632272D01*
X197875579Y-201797045D01*
X198049957Y-201924324D01*
X198119891Y-201987480D01*
X198120000Y-201988284D01*
X199573609Y-201988284D01*
X199220326Y-201854973D01*
X198231529Y-201338873D01*
X197358274Y-200726625D01*
X196607301Y-200024005D01*
X195985355Y-199236789D01*
X195499175Y-198370751D01*
X195155506Y-197431667D01*
X194961088Y-196425312D01*
X194927076Y-196013950D01*
X194941157Y-194740194D01*
X195110241Y-193440462D01*
X195426492Y-192135222D01*
X195882073Y-190844941D01*
X196469147Y-189590085D01*
X197179878Y-188391121D01*
X198006429Y-187268517D01*
X198214133Y-187028667D01*
X197463309Y-187028667D01*
X197446289Y-187091315D01*
X197346193Y-187259211D01*
X197181736Y-187502279D01*
X197081298Y-187642500D01*
X196745181Y-188111140D01*
X196481092Y-188501358D01*
X196255822Y-188867393D01*
X196036164Y-189263487D01*
X195788911Y-189743879D01*
X195762040Y-189797347D01*
X195178957Y-191104332D01*
X194755434Y-192389710D01*
X194486637Y-193672475D01*
X194367730Y-194971617D01*
X194360851Y-195302083D01*
X194352334Y-196505832D01*
X193886667Y-196674118D01*
X193510445Y-196807340D01*
X193103038Y-196947135D01*
X192699056Y-197082170D01*
X192333111Y-197201113D01*
X192039814Y-197292632D01*
X191853776Y-197345393D01*
X191810977Y-197353748D01*
X191743608Y-197282579D01*
X191631749Y-197087541D01*
X191493420Y-196802138D01*
X191400995Y-196591495D01*
X191077037Y-195824991D01*
X191313422Y-195357783D01*
X191487291Y-195071317D01*
X191736002Y-194731342D01*
X192012191Y-194401559D01*
X192075310Y-194333118D01*
X192330123Y-194055120D01*
X192497743Y-193837350D01*
X192609542Y-193621192D01*
X192696894Y-193348033D01*
X192776193Y-193023656D01*
X193114430Y-191934180D01*
X193606783Y-190878657D01*
X194238356Y-189880642D01*
X194994252Y-188963688D01*
X195855817Y-188154438D01*
X196200330Y-187879635D01*
X196553735Y-187612533D01*
X196886804Y-187373599D01*
X197170309Y-187183304D01*
X197375023Y-187062116D01*
X197463309Y-187028667D01*
X198214133Y-187028667D01*
X198489082Y-186711167D01*
X198691129Y-186496653D01*
X198819801Y-186388562D01*
X198913837Y-186366416D01*
X199011980Y-186409740D01*
X199033699Y-186423309D01*
X199080375Y-186498638D01*
X199052258Y-186643865D01*
X198941778Y-186893058D01*
X198919298Y-186938199D01*
X198723768Y-187489474D01*
X198640368Y-188105714D01*
X198666593Y-188738267D01*
X198799940Y-189338484D01*
X199037906Y-189857713D01*
X199072273Y-189910638D01*
X199366360Y-190258743D01*
X199706410Y-190472424D01*
X200132205Y-190571648D01*
X200415345Y-190584667D01*
X201103618Y-190511119D01*
X201719601Y-190286836D01*
X202278004Y-189906353D01*
X202304645Y-189883159D01*
X202720817Y-189516946D01*
X203020644Y-189669806D01*
X203338451Y-189772817D01*
X203728613Y-189818536D01*
X204114859Y-189803854D01*
X204418493Y-189726775D01*
X204565694Y-189681960D01*
X204705153Y-189714692D01*
X204895492Y-189842527D01*
X204951643Y-189886445D01*
X205467908Y-190241025D01*
X205965137Y-190459882D01*
X206491222Y-190562838D01*
X206606612Y-190571408D01*
X207031453Y-190582566D01*
X207341639Y-190549760D01*
X207589306Y-190458270D01*
X207826589Y-190293374D01*
X207939847Y-190194937D01*
X208273708Y-189785506D01*
X208506962Y-189272610D01*
X208635123Y-188692195D01*
X208648200Y-188261455D01*
X208100810Y-188261455D01*
X208091373Y-188516840D01*
X208011494Y-189036480D01*
X207851147Y-189476714D01*
X207624669Y-189806169D01*
X207434557Y-189954023D01*
X207131886Y-190046506D01*
X206738544Y-190066639D01*
X206316824Y-190014704D01*
X206072583Y-189947868D01*
X205767849Y-189807569D01*
X205459212Y-189612470D01*
X205374137Y-189545701D01*
X205183949Y-189373493D01*
X205104489Y-189249859D01*
X205111400Y-189121270D01*
X205141303Y-189033988D01*
X205180533Y-188847184D01*
X205211221Y-188541739D01*
X205229132Y-188168291D01*
X205230200Y-188087000D01*
X204639334Y-188087000D01*
X204635235Y-188462050D01*
X204617537Y-188708192D01*
X204578133Y-188865763D01*
X204508921Y-188975101D01*
X204448834Y-189035132D01*
X204269356Y-189176421D01*
X204131334Y-189254873D01*
X203814088Y-189306054D01*
X203454697Y-189272421D01*
X203192159Y-189183612D01*
X202989659Y-189035144D01*
X202861369Y-188819626D01*
X202794620Y-188503616D01*
X202776667Y-188087000D01*
X202789314Y-187765314D01*
X202822095Y-187483395D01*
X202846908Y-187379662D01*
X202268667Y-187379662D01*
X202268667Y-188228261D01*
X202255857Y-188710288D01*
X202203722Y-189061922D01*
X202091701Y-189321059D01*
X201899235Y-189525597D01*
X201605767Y-189713432D01*
X201406832Y-189816881D01*
X201009648Y-189986844D01*
X200656622Y-190064931D01*
X200424850Y-190076667D01*
X200139356Y-190064697D01*
X199944848Y-190007539D01*
X199763503Y-189873317D01*
X199642176Y-189756097D01*
X199363001Y-189389111D01*
X199199602Y-188949479D01*
X199143665Y-188409693D01*
X199151081Y-188131190D01*
X199236916Y-187557874D01*
X199415832Y-187102865D01*
X199679357Y-186775892D01*
X200019020Y-186586680D01*
X200426349Y-186544957D01*
X200522629Y-186556293D01*
X201156680Y-186705926D01*
X201687818Y-186938022D01*
X201953850Y-187120163D01*
X202268667Y-187379662D01*
X202846908Y-187379662D01*
X202857696Y-187334567D01*
X203029355Y-187101083D01*
X203307087Y-186946844D01*
X203644091Y-186878275D01*
X203993565Y-186901803D01*
X204308706Y-187023852D01*
X204432939Y-187118286D01*
X204531388Y-187224724D01*
X204592431Y-187345966D01*
X204624875Y-187523356D01*
X204637530Y-187798239D01*
X204639334Y-188087000D01*
X205230200Y-188087000D01*
X205232000Y-187950040D01*
X205232000Y-187104437D01*
X205791085Y-186842810D01*
X206227052Y-186668778D01*
X206621183Y-186586294D01*
X206855565Y-186572091D01*
X207146622Y-186574438D01*
X207333979Y-186611227D01*
X207483001Y-186707396D01*
X207646052Y-186873697D01*
X207906701Y-187250613D01*
X208055875Y-187704298D01*
X208100810Y-188261455D01*
X208648200Y-188261455D01*
X208653704Y-188080204D01*
X208558220Y-187472581D01*
X208349218Y-186915132D01*
X208250655Y-186708260D01*
X208230339Y-186593561D01*
X208286797Y-186513810D01*
X208337851Y-186473325D01*
X208482159Y-186379766D01*
X208548395Y-186354026D01*
X208639977Y-186415398D01*
X208811009Y-186586578D01*
X209039452Y-186841831D01*
X209303264Y-187155417D01*
X209580403Y-187501598D01*
X209848830Y-187854638D01*
X209936904Y-187975423D01*
X210705524Y-189164306D01*
X211346228Y-190410809D01*
X211852561Y-191694795D01*
X212218069Y-192996128D01*
X212436296Y-194294671D01*
X212500788Y-195570288D01*
X213077294Y-195570288D01*
X213069926Y-195283667D01*
X213029119Y-194418736D01*
X212947410Y-193655668D01*
X212813572Y-192929611D01*
X212616380Y-192175716D01*
X212428374Y-191577772D01*
X212194145Y-190950322D01*
X211887383Y-190244752D01*
X211535778Y-189517589D01*
X211167018Y-188825363D01*
X210808792Y-188224601D01*
X210718538Y-188087000D01*
X210466406Y-187711462D01*
X210297081Y-187456142D01*
X210198934Y-187300705D01*
X210160336Y-187224815D01*
X210169657Y-187208135D01*
X210215267Y-187230330D01*
X210235419Y-187242199D01*
X210642237Y-187519853D01*
X211113060Y-187900883D01*
X211612340Y-188351687D01*
X212104528Y-188838665D01*
X212554074Y-189328214D01*
X212920674Y-189780334D01*
X213243398Y-190259561D01*
X213560039Y-190812247D01*
X213856037Y-191404420D01*
X214116833Y-192002107D01*
X214327866Y-192571336D01*
X214474578Y-193078135D01*
X214542407Y-193488531D01*
X214545334Y-193571171D01*
X214605557Y-193719900D01*
X214757977Y-193911691D01*
X214849415Y-193999725D01*
X215162911Y-194317216D01*
X215482281Y-194709336D01*
X215767474Y-195121222D01*
X215978441Y-195498007D01*
X216028889Y-195615495D01*
X216173220Y-195993422D01*
X216881340Y-195993422D01*
X217211061Y-195490503D01*
X217662063Y-194974170D01*
X218125655Y-194609515D01*
X218312743Y-194508911D01*
X218856030Y-194343674D01*
X219408293Y-194343125D01*
X219954374Y-194504348D01*
X220479112Y-194824429D01*
X220635283Y-194955639D01*
X220985863Y-195311310D01*
X221266475Y-195698938D01*
X221506404Y-196165743D01*
X221710716Y-196689629D01*
X221845464Y-197205827D01*
X221937767Y-197847637D01*
X221986061Y-198576348D01*
X221988782Y-199353246D01*
X222559163Y-199353246D01*
X222568572Y-198745125D01*
X222556974Y-198413737D01*
X222445467Y-197391009D01*
X222232467Y-196480647D01*
X221921773Y-195688912D01*
X221517187Y-195022064D01*
X221022507Y-194486362D01*
X220441535Y-194088066D01*
X219778070Y-193833435D01*
X219776013Y-193832907D01*
X219146214Y-193745604D01*
X218550297Y-193818063D01*
X217980901Y-194052891D01*
X217430663Y-194452692D01*
X217099807Y-194780302D01*
X216828432Y-195070318D01*
X216649212Y-195243642D01*
X216545167Y-195313054D01*
X216499317Y-195291335D01*
X216492667Y-195237266D01*
X216441688Y-195092433D01*
X216305938Y-194856502D01*
X216111197Y-194566642D01*
X215883244Y-194260021D01*
X215647858Y-193973809D01*
X215517259Y-193830942D01*
X215279711Y-193558132D01*
X215123545Y-193295458D01*
X215007132Y-192966579D01*
X214969111Y-192825726D01*
X214615002Y-191720503D01*
X214134698Y-190690605D01*
X213693925Y-189960225D01*
X212925497Y-188936372D01*
X212027417Y-187999287D01*
X210989828Y-187139736D01*
X209905724Y-186410811D01*
X209202830Y-185981285D01*
X209482249Y-185766502D01*
X210363880Y-184984644D01*
X211124693Y-184091762D01*
X211750566Y-183105374D01*
X211954909Y-182699381D01*
X212240877Y-182031152D01*
X212443296Y-181405831D01*
X212576577Y-180762977D01*
X212655127Y-180042151D01*
X212676665Y-179671729D01*
X212686832Y-179451000D01*
X212047667Y-179451000D01*
X212036490Y-180129504D01*
X211996887Y-180685881D01*
X211919756Y-181166233D01*
X211795993Y-181616660D01*
X211616493Y-182083264D01*
X211459276Y-182430512D01*
X210909284Y-183412541D01*
X210233982Y-184288871D01*
X209424466Y-185069599D01*
X208580684Y-185694336D01*
X208227085Y-185920471D01*
X207978954Y-186060650D01*
X207804945Y-186128689D01*
X207673706Y-186138405D01*
X207607017Y-186123458D01*
X207417809Y-186090816D01*
X207120240Y-186068524D01*
X206775177Y-186060943D01*
X206738179Y-186061183D01*
X206369840Y-186074875D01*
X206084243Y-186120337D01*
X205803760Y-186216525D01*
X205477734Y-186368976D01*
X204870110Y-186670587D01*
X204600276Y-186511381D01*
X204195049Y-186347815D01*
X203747839Y-186289025D01*
X203307437Y-186331554D01*
X202922639Y-186471942D01*
X202693013Y-186646589D01*
X202544229Y-186782220D01*
X202438388Y-186797849D01*
X202359861Y-186746751D01*
X202202042Y-186633731D01*
X201975112Y-186491920D01*
X201910283Y-186454255D01*
X201439078Y-186237405D01*
X200930994Y-186090174D01*
X200434382Y-186020792D01*
X199997593Y-186037493D01*
X199784301Y-186092277D01*
X199639585Y-186120622D01*
X199472246Y-186083124D01*
X199236145Y-185965686D01*
X199090859Y-185880406D01*
X198136201Y-185210401D01*
X197298887Y-184424871D01*
X196588248Y-183535578D01*
X196013611Y-182554282D01*
X195584304Y-181492743D01*
X195566794Y-181437683D01*
X195487765Y-181165040D01*
X195432618Y-180908409D01*
X195397245Y-180627535D01*
X195377538Y-180282166D01*
X195369387Y-179832048D01*
X195368334Y-179493334D01*
X195371513Y-178960493D01*
X195383783Y-178556683D01*
X195409247Y-178241675D01*
X195452005Y-177975238D01*
X195516158Y-177717143D01*
X195566431Y-177550176D01*
X195987912Y-176482541D01*
X196549928Y-175501740D01*
X197242875Y-174616302D01*
X198057150Y-173834756D01*
X198734419Y-173345360D01*
X197793958Y-173345360D01*
X197332936Y-173749749D01*
X196875611Y-174205997D01*
X196411373Y-174765732D01*
X195984432Y-175371009D01*
X195638998Y-175963884D01*
X195629713Y-175982144D01*
X195453511Y-176357182D01*
X195279775Y-176773033D01*
X195123294Y-177188754D01*
X194998856Y-177563403D01*
X194921250Y-177856038D01*
X194902667Y-177994984D01*
X194883413Y-178095720D01*
X194796023Y-178130252D01*
X194596058Y-178112028D01*
X194542834Y-178103894D01*
X194268132Y-178035919D01*
X193928590Y-177918230D01*
X193674758Y-177810979D01*
X193086784Y-177448148D01*
X192576516Y-176954386D01*
X192176843Y-176362060D01*
X192150432Y-176310989D01*
X192028522Y-176052914D01*
X191953281Y-175829679D01*
X191913704Y-175584594D01*
X191898786Y-175260970D01*
X191897093Y-175006000D01*
X191903348Y-174599389D01*
X191929552Y-174302052D01*
X191986697Y-174054166D01*
X192085775Y-173795907D01*
X192142613Y-173669789D01*
X192465537Y-173133656D01*
X192880519Y-172682134D01*
X193467574Y-172243875D01*
X194101062Y-171960973D01*
X194762343Y-171832455D01*
X195432776Y-171857348D01*
X196093719Y-172034680D01*
X196726532Y-172363477D01*
X197312573Y-172842766D01*
X197385479Y-172917259D01*
X197793958Y-173345360D01*
X198734419Y-173345360D01*
X198983148Y-173165628D01*
X200011267Y-172617446D01*
X201131903Y-172198739D01*
X201787684Y-172025940D01*
X202429887Y-171919232D01*
X203168954Y-171859182D01*
X203944418Y-171846271D01*
X204695816Y-171880980D01*
X205362685Y-171963792D01*
X205528334Y-171996161D01*
X206686692Y-172324697D01*
X207765538Y-172789046D01*
X208753749Y-173379443D01*
X209640200Y-174086122D01*
X210413769Y-174899319D01*
X211063332Y-175809268D01*
X211577764Y-176806204D01*
X211850083Y-177546000D01*
X211930432Y-177827030D01*
X211985970Y-178092527D01*
X212021038Y-178384355D01*
X212039978Y-178744374D01*
X212047132Y-179214449D01*
X212047667Y-179451000D01*
X212686832Y-179451000D01*
X212725000Y-178622458D01*
X213066389Y-178521941D01*
X213686027Y-178255370D01*
X214256310Y-177848649D01*
X214754322Y-177328883D01*
X215157146Y-176723179D01*
X215441865Y-176058644D01*
X215558404Y-175574334D01*
X215591406Y-174869695D01*
X215585827Y-174835225D01*
X215014189Y-174835225D01*
X214977483Y-175485924D01*
X214796752Y-176126102D01*
X214467614Y-176734189D01*
X214187201Y-177085514D01*
X213903026Y-177355671D01*
X213566645Y-177614453D01*
X213220878Y-177834599D01*
X212908542Y-177988845D01*
X212672516Y-178049928D01*
X212578028Y-177998967D01*
X212499257Y-177823461D01*
X212437581Y-177567167D01*
X212169050Y-176653082D01*
X211736568Y-175757160D01*
X211145244Y-174887936D01*
X210400186Y-174053948D01*
X210244412Y-173902783D01*
X209372491Y-173074759D01*
X209694079Y-172758497D01*
X209944624Y-172553562D01*
X210274706Y-172336851D01*
X210566000Y-172178951D01*
X210859553Y-172047823D01*
X211107668Y-171968902D01*
X211374332Y-171929350D01*
X211723530Y-171916331D01*
X211878334Y-171915667D01*
X212271956Y-171922397D01*
X212560491Y-171951143D01*
X212807937Y-172014740D01*
X213078290Y-172126023D01*
X213190667Y-172178850D01*
X213808376Y-172558610D01*
X214303963Y-173035698D01*
X214673049Y-173588542D01*
X214911251Y-174195575D01*
X215014189Y-174835225D01*
X215585827Y-174835225D01*
X215475991Y-174156686D01*
X215227563Y-173465866D01*
X214861525Y-172827796D01*
X214393280Y-172273035D01*
X213838232Y-171832143D01*
X213605401Y-171699613D01*
X212881074Y-171420363D01*
X212130023Y-171296993D01*
X211376892Y-171325526D01*
G37*
X211376892Y-171325526D02*
X210646326Y-171501987D01*
X209962969Y-171822398D01*
X209351468Y-172282784D01*
X209225231Y-172406355D01*
X208858128Y-172783558D01*
X208383139Y-172497535D01*
X207822881Y-172204545D01*
X207144146Y-171921708D01*
X206397531Y-171668595D01*
X205842227Y-171514715D01*
X205260931Y-171407932D01*
X204567587Y-171341609D01*
X203814573Y-171315747D01*
X203054269Y-171330346D01*
X202339054Y-171385406D01*
X201721309Y-171480928D01*
X201573774Y-171514715D01*
X200389547Y-171878107D01*
X199316908Y-172345928D01*
X198820746Y-172621262D01*
X198148551Y-173025264D01*
X197901442Y-172695607D01*
X197451440Y-172222305D01*
X196884013Y-171822742D01*
X196243492Y-171520564D01*
X195574207Y-171339421D01*
X195294791Y-171305092D01*
X194525206Y-171321640D01*
X193817221Y-171480462D01*
X193178985Y-171764337D01*
X192618650Y-172156048D01*
X192144367Y-172638376D01*
X191764286Y-173194102D01*
X191486559Y-173806008D01*
X191319336Y-174456874D01*
X191270769Y-175129483D01*
X191349008Y-175806615D01*
X191562205Y-176471052D01*
X191918509Y-177105575D01*
X192320334Y-177588571D01*
X192822968Y-178006382D01*
X193425556Y-178354206D01*
X194062209Y-178596273D01*
X194270252Y-178647203D01*
X194733334Y-178743339D01*
X194733334Y-179545239D01*
X194814777Y-180666681D01*
X195058488Y-181740894D01*
X195463535Y-182765825D01*
X196028990Y-183739417D01*
X196753923Y-184659617D01*
X197300325Y-185218800D01*
X198098141Y-185973852D01*
X197536087Y-186280435D01*
X196817756Y-186721611D01*
X196075408Y-187265989D01*
X195345869Y-187880585D01*
X194665961Y-188532415D01*
X194072510Y-189188497D01*
X193621883Y-189786373D01*
X193074512Y-190710748D01*
X192619117Y-191694240D01*
X192279160Y-192682616D01*
X192157998Y-193170122D01*
X192066343Y-193366132D01*
X191869102Y-193640872D01*
X191589302Y-193962924D01*
X191534403Y-194020932D01*
X191271349Y-194307872D01*
X191043060Y-194579247D01*
X190883816Y-194793327D01*
X190841471Y-194864477D01*
X190753322Y-195041551D01*
X190706256Y-195135598D01*
X190705140Y-195137776D01*
X190644422Y-195091898D01*
X190489773Y-194949514D01*
X190266461Y-194734391D01*
X190067336Y-194537838D01*
X189631384Y-194140795D01*
X189234259Y-193872248D01*
X188833164Y-193712333D01*
X188385305Y-193641181D01*
X188117427Y-193632667D01*
X187466500Y-193714024D01*
X186859638Y-193951933D01*
X186306474Y-194337149D01*
X185816642Y-194860428D01*
X185399776Y-195512525D01*
X185065509Y-196284197D01*
X184941046Y-196680667D01*
X184885011Y-196911553D01*
X184844014Y-197165192D01*
X184816033Y-197471578D01*
X184799045Y-197860705D01*
X184791029Y-198362569D01*
X184789796Y-198924334D01*
X184793004Y-199536662D01*
X184802623Y-200019705D01*
X184822020Y-200413482D01*
X184854562Y-200758012D01*
X184903617Y-201093316D01*
X184972550Y-201459414D01*
X185023777Y-201705444D01*
X185125862Y-202162553D01*
X185233215Y-202604550D01*
X185333119Y-202981223D01*
X185412860Y-203242362D01*
X185413314Y-203243655D01*
X185733415Y-203916798D01*
X186181273Y-204478882D01*
X186756348Y-204929365D01*
X187409667Y-205249522D01*
X187625620Y-205325459D01*
X187834293Y-205378711D01*
X188072132Y-205413133D01*
X188375584Y-205432582D01*
X188781093Y-205440916D01*
X189230000Y-205442143D01*
X189839262Y-205433652D01*
X190371353Y-205404997D01*
X190866316Y-205349109D01*
X191364194Y-205258914D01*
X191905027Y-205127341D01*
X192528860Y-204947319D01*
X193167000Y-204746836D01*
X194274110Y-204359397D01*
X195464196Y-203885521D01*
X196688731Y-203345455D01*
X197748171Y-202835588D01*
X198811798Y-202302511D01*
X199884066Y-202658517D01*
X200793205Y-202932575D01*
X201633114Y-203120304D01*
X202472113Y-203232738D01*
X203378521Y-203280913D01*
X203760955Y-203284667D01*
X204936806Y-203234899D01*
X206033669Y-203078956D01*
X207111898Y-202806876D01*
X207574594Y-202655269D01*
X208389403Y-202371380D01*
X209244869Y-202822524D01*
X210192989Y-203296439D01*
X211210874Y-203758475D01*
X212262723Y-204195024D01*
X213312734Y-204592477D01*
X214325106Y-204937227D01*
X215264040Y-205215664D01*
X216027000Y-205400473D01*
X216686144Y-205512875D01*
X217378988Y-205586745D01*
X218060488Y-205620343D01*
X218685597Y-205611927D01*
X219209271Y-205559759D01*
X219366356Y-205529463D01*
X220123488Y-205282158D01*
X220772763Y-204912502D01*
X221305463Y-204427183D01*
X221712870Y-203832889D01*
X221794911Y-203666352D01*
X221977905Y-203175511D01*
X222145657Y-202552493D01*
X222292817Y-201834166D01*
X222414038Y-201057398D01*
X222503970Y-200259057D01*
X222557264Y-199476010D01*
X222559163Y-199353246D01*
X221988782Y-199353246D01*
X221944365Y-200139620D01*
X221874547Y-200744667D01*
X221759720Y-201461515D01*
X221632236Y-202125816D01*
X221498584Y-202709638D01*
X221365254Y-203185046D01*
X221238734Y-203524108D01*
X221219652Y-203563649D01*
X220851782Y-204109133D01*
X220360557Y-204550034D01*
X219765693Y-204872347D01*
X219117334Y-205056867D01*
X218639524Y-205105825D01*
X218048759Y-205112242D01*
X217395292Y-205078694D01*
X216729379Y-205007762D01*
X216101724Y-204902117D01*
X215414771Y-204737773D01*
X214623397Y-204510200D01*
X213773492Y-204234145D01*
X212910945Y-203924355D01*
X212240152Y-203661126D01*
X211873887Y-203506796D01*
X211450056Y-203321004D01*
X210994541Y-203115924D01*
X210533220Y-202903733D01*
X210091973Y-202696604D01*
X209696681Y-202506714D01*
X209373222Y-202346238D01*
X209147478Y-202227350D01*
X209045327Y-202162227D01*
X209042000Y-202156552D01*
X209108833Y-202097140D01*
X209287444Y-201972162D01*
X209545001Y-201804155D01*
X209670576Y-201725086D01*
X210244849Y-201321805D01*
X210821391Y-200836167D01*
X211354443Y-200311338D01*
X211798242Y-199790485D01*
X211957110Y-199568195D01*
X212150961Y-199247859D01*
X212351114Y-198869322D01*
X212539425Y-198473014D01*
X212697750Y-198099363D01*
X212807945Y-197788802D01*
X212851868Y-197581759D01*
X212852000Y-197574072D01*
X212872386Y-197472834D01*
X212947594Y-197420093D01*
X213098697Y-197418262D01*
X213346770Y-197469753D01*
X213712887Y-197576981D01*
X214164334Y-197724338D01*
X214605500Y-197873818D01*
X214911578Y-197985535D01*
X215108696Y-198073527D01*
X215222980Y-198151837D01*
X215280556Y-198234506D01*
X215307552Y-198335573D01*
X215308165Y-198339053D01*
X215374822Y-198523241D01*
X215512375Y-198584345D01*
X215549992Y-198585667D01*
X215650037Y-198567147D01*
X215735747Y-198492119D01*
X215825161Y-198331382D01*
X215936315Y-198055735D01*
X216020785Y-197823494D01*
X216381704Y-196927774D01*
X216781369Y-196145907D01*
X216881340Y-195993422D01*
X216173220Y-195993422D01*
X215888444Y-196716152D01*
X215721179Y-197104400D01*
X215583832Y-197346965D01*
X215481602Y-197434769D01*
X215476667Y-197434917D01*
X215353862Y-197406375D01*
X215104639Y-197330804D01*
X214761837Y-197218722D01*
X214358292Y-197080649D01*
X214227208Y-197034642D01*
X213104749Y-196638334D01*
X213077294Y-195570288D01*
X212500788Y-195570288D01*
X212489536Y-195938647D01*
X212434937Y-196634414D01*
X212337362Y-197225316D01*
X212181198Y-197773598D01*
X211950830Y-198341503D01*
X211814891Y-198628000D01*
X211380048Y-199343155D01*
X210799684Y-200033210D01*
X210097547Y-200677813D01*
X209297382Y-201256609D01*
X208422936Y-201749246D01*
X207899255Y-201984148D01*
X207123014Y-202261800D01*
X206270056Y-202501165D01*
X205420210Y-202681809D01*
X204851000Y-202764487D01*
X204428902Y-202809578D01*
X204109919Y-202836374D01*
X203838541Y-202844987D01*
X203559261Y-202835530D01*
X203216568Y-202808117D01*
X202812539Y-202768635D01*
X201517572Y-202575630D01*
X200317921Y-202269150D01*
X199573609Y-201988284D01*
X198120000Y-201988284D01*
X198046700Y-202043502D01*
X197843682Y-202154915D01*
X197536267Y-202310631D01*
X197149779Y-202498757D01*
X196709539Y-202707401D01*
X196240871Y-202924668D01*
X195769096Y-203138666D01*
X195319537Y-203337501D01*
X194917517Y-203509282D01*
X194648667Y-203618637D01*
X193304090Y-204110992D01*
X192058437Y-204491693D01*
X190916398Y-204759865D01*
X189882659Y-204914631D01*
X188961909Y-204955115D01*
X188158835Y-204880441D01*
X188030801Y-204855480D01*
X187518498Y-204721668D01*
X187116762Y-204549983D01*
X186767077Y-204311754D01*
X186576993Y-204143171D01*
X186320509Y-203856689D01*
X186102029Y-203511012D01*
X185914367Y-203085523D01*
X185750336Y-202559606D01*
X185602751Y-201912644D01*
X185464425Y-201124022D01*
X185417923Y-200817892D01*
X185292889Y-199651430D01*
X185271599Y-198572649D01*
X185351783Y-197589671D01*
X185531172Y-196710618D01*
X185807497Y-195943612D01*
X186178488Y-195296776D01*
X186641876Y-194778232D01*
X187195391Y-194396101D01*
X187215097Y-194385945D01*
X187769812Y-194184326D01*
X188311630Y-194149520D01*
X188837526Y-194279295D01*
X189344476Y-194571420D01*
X189829454Y-195023661D01*
X190289436Y-195633787D01*
X190721398Y-196399566D01*
X191095191Y-197249140D01*
X191281123Y-197695970D01*
X191433369Y-197992485D01*
X191563812Y-198151461D01*
X191684335Y-198185669D01*
X191806820Y-198107882D01*
X191849540Y-198060003D01*
X192016357Y-197939701D01*
X192345738Y-197787777D01*
X192839035Y-197603654D01*
X193205010Y-197480501D01*
X193626162Y-197345307D01*
X193986160Y-197234201D01*
X194256453Y-197155642D01*
X194408492Y-197118091D01*
X194431125Y-197117164D01*
X194465326Y-197206554D01*
X194533562Y-197416169D01*
X194622163Y-197703761D01*
X194638045Y-197756628D01*
X195019022Y-198738384D01*
X195550600Y-199644406D01*
X196230472Y-200471706D01*
X197056329Y-201217297D01*
X197633167Y-201632272D01*
X197875579Y-201797045D01*
X198049957Y-201924324D01*
X198119891Y-201987480D01*
X198120000Y-201988284D01*
X199573609Y-201988284D01*
X199220326Y-201854973D01*
X198231529Y-201338873D01*
X197358274Y-200726625D01*
X196607301Y-200024005D01*
X195985355Y-199236789D01*
X195499175Y-198370751D01*
X195155506Y-197431667D01*
X194961088Y-196425312D01*
X194927076Y-196013950D01*
X194941157Y-194740194D01*
X195110241Y-193440462D01*
X195426492Y-192135222D01*
X195882073Y-190844941D01*
X196469147Y-189590085D01*
X197179878Y-188391121D01*
X198006429Y-187268517D01*
X198214133Y-187028667D01*
X197463309Y-187028667D01*
X197446289Y-187091315D01*
X197346193Y-187259211D01*
X197181736Y-187502279D01*
X197081298Y-187642500D01*
X196745181Y-188111140D01*
X196481092Y-188501358D01*
X196255822Y-188867393D01*
X196036164Y-189263487D01*
X195788911Y-189743879D01*
X195762040Y-189797347D01*
X195178957Y-191104332D01*
X194755434Y-192389710D01*
X194486637Y-193672475D01*
X194367730Y-194971617D01*
X194360851Y-195302083D01*
X194352334Y-196505832D01*
X193886667Y-196674118D01*
X193510445Y-196807340D01*
X193103038Y-196947135D01*
X192699056Y-197082170D01*
X192333111Y-197201113D01*
X192039814Y-197292632D01*
X191853776Y-197345393D01*
X191810977Y-197353748D01*
X191743608Y-197282579D01*
X191631749Y-197087541D01*
X191493420Y-196802138D01*
X191400995Y-196591495D01*
X191077037Y-195824991D01*
X191313422Y-195357783D01*
X191487291Y-195071317D01*
X191736002Y-194731342D01*
X192012191Y-194401559D01*
X192075310Y-194333118D01*
X192330123Y-194055120D01*
X192497743Y-193837350D01*
X192609542Y-193621192D01*
X192696894Y-193348033D01*
X192776193Y-193023656D01*
X193114430Y-191934180D01*
X193606783Y-190878657D01*
X194238356Y-189880642D01*
X194994252Y-188963688D01*
X195855817Y-188154438D01*
X196200330Y-187879635D01*
X196553735Y-187612533D01*
X196886804Y-187373599D01*
X197170309Y-187183304D01*
X197375023Y-187062116D01*
X197463309Y-187028667D01*
X198214133Y-187028667D01*
X198489082Y-186711167D01*
X198691129Y-186496653D01*
X198819801Y-186388562D01*
X198913837Y-186366416D01*
X199011980Y-186409740D01*
X199033699Y-186423309D01*
X199080375Y-186498638D01*
X199052258Y-186643865D01*
X198941778Y-186893058D01*
X198919298Y-186938199D01*
X198723768Y-187489474D01*
X198640368Y-188105714D01*
X198666593Y-188738267D01*
X198799940Y-189338484D01*
X199037906Y-189857713D01*
X199072273Y-189910638D01*
X199366360Y-190258743D01*
X199706410Y-190472424D01*
X200132205Y-190571648D01*
X200415345Y-190584667D01*
X201103618Y-190511119D01*
X201719601Y-190286836D01*
X202278004Y-189906353D01*
X202304645Y-189883159D01*
X202720817Y-189516946D01*
X203020644Y-189669806D01*
X203338451Y-189772817D01*
X203728613Y-189818536D01*
X204114859Y-189803854D01*
X204418493Y-189726775D01*
X204565694Y-189681960D01*
X204705153Y-189714692D01*
X204895492Y-189842527D01*
X204951643Y-189886445D01*
X205467908Y-190241025D01*
X205965137Y-190459882D01*
X206491222Y-190562838D01*
X206606612Y-190571408D01*
X207031453Y-190582566D01*
X207341639Y-190549760D01*
X207589306Y-190458270D01*
X207826589Y-190293374D01*
X207939847Y-190194937D01*
X208273708Y-189785506D01*
X208506962Y-189272610D01*
X208635123Y-188692195D01*
X208648200Y-188261455D01*
X208100810Y-188261455D01*
X208091373Y-188516840D01*
X208011494Y-189036480D01*
X207851147Y-189476714D01*
X207624669Y-189806169D01*
X207434557Y-189954023D01*
X207131886Y-190046506D01*
X206738544Y-190066639D01*
X206316824Y-190014704D01*
X206072583Y-189947868D01*
X205767849Y-189807569D01*
X205459212Y-189612470D01*
X205374137Y-189545701D01*
X205183949Y-189373493D01*
X205104489Y-189249859D01*
X205111400Y-189121270D01*
X205141303Y-189033988D01*
X205180533Y-188847184D01*
X205211221Y-188541739D01*
X205229132Y-188168291D01*
X205230200Y-188087000D01*
X204639334Y-188087000D01*
X204635235Y-188462050D01*
X204617537Y-188708192D01*
X204578133Y-188865763D01*
X204508921Y-188975101D01*
X204448834Y-189035132D01*
X204269356Y-189176421D01*
X204131334Y-189254873D01*
X203814088Y-189306054D01*
X203454697Y-189272421D01*
X203192159Y-189183612D01*
X202989659Y-189035144D01*
X202861369Y-188819626D01*
X202794620Y-188503616D01*
X202776667Y-188087000D01*
X202789314Y-187765314D01*
X202822095Y-187483395D01*
X202846908Y-187379662D01*
X202268667Y-187379662D01*
X202268667Y-188228261D01*
X202255857Y-188710288D01*
X202203722Y-189061922D01*
X202091701Y-189321059D01*
X201899235Y-189525597D01*
X201605767Y-189713432D01*
X201406832Y-189816881D01*
X201009648Y-189986844D01*
X200656622Y-190064931D01*
X200424850Y-190076667D01*
X200139356Y-190064697D01*
X199944848Y-190007539D01*
X199763503Y-189873317D01*
X199642176Y-189756097D01*
X199363001Y-189389111D01*
X199199602Y-188949479D01*
X199143665Y-188409693D01*
X199151081Y-188131190D01*
X199236916Y-187557874D01*
X199415832Y-187102865D01*
X199679357Y-186775892D01*
X200019020Y-186586680D01*
X200426349Y-186544957D01*
X200522629Y-186556293D01*
X201156680Y-186705926D01*
X201687818Y-186938022D01*
X201953850Y-187120163D01*
X202268667Y-187379662D01*
X202846908Y-187379662D01*
X202857696Y-187334567D01*
X203029355Y-187101083D01*
X203307087Y-186946844D01*
X203644091Y-186878275D01*
X203993565Y-186901803D01*
X204308706Y-187023852D01*
X204432939Y-187118286D01*
X204531388Y-187224724D01*
X204592431Y-187345966D01*
X204624875Y-187523356D01*
X204637530Y-187798239D01*
X204639334Y-188087000D01*
X205230200Y-188087000D01*
X205232000Y-187950040D01*
X205232000Y-187104437D01*
X205791085Y-186842810D01*
X206227052Y-186668778D01*
X206621183Y-186586294D01*
X206855565Y-186572091D01*
X207146622Y-186574438D01*
X207333979Y-186611227D01*
X207483001Y-186707396D01*
X207646052Y-186873697D01*
X207906701Y-187250613D01*
X208055875Y-187704298D01*
X208100810Y-188261455D01*
X208648200Y-188261455D01*
X208653704Y-188080204D01*
X208558220Y-187472581D01*
X208349218Y-186915132D01*
X208250655Y-186708260D01*
X208230339Y-186593561D01*
X208286797Y-186513810D01*
X208337851Y-186473325D01*
X208482159Y-186379766D01*
X208548395Y-186354026D01*
X208639977Y-186415398D01*
X208811009Y-186586578D01*
X209039452Y-186841831D01*
X209303264Y-187155417D01*
X209580403Y-187501598D01*
X209848830Y-187854638D01*
X209936904Y-187975423D01*
X210705524Y-189164306D01*
X211346228Y-190410809D01*
X211852561Y-191694795D01*
X212218069Y-192996128D01*
X212436296Y-194294671D01*
X212500788Y-195570288D01*
X213077294Y-195570288D01*
X213069926Y-195283667D01*
X213029119Y-194418736D01*
X212947410Y-193655668D01*
X212813572Y-192929611D01*
X212616380Y-192175716D01*
X212428374Y-191577772D01*
X212194145Y-190950322D01*
X211887383Y-190244752D01*
X211535778Y-189517589D01*
X211167018Y-188825363D01*
X210808792Y-188224601D01*
X210718538Y-188087000D01*
X210466406Y-187711462D01*
X210297081Y-187456142D01*
X210198934Y-187300705D01*
X210160336Y-187224815D01*
X210169657Y-187208135D01*
X210215267Y-187230330D01*
X210235419Y-187242199D01*
X210642237Y-187519853D01*
X211113060Y-187900883D01*
X211612340Y-188351687D01*
X212104528Y-188838665D01*
X212554074Y-189328214D01*
X212920674Y-189780334D01*
X213243398Y-190259561D01*
X213560039Y-190812247D01*
X213856037Y-191404420D01*
X214116833Y-192002107D01*
X214327866Y-192571336D01*
X214474578Y-193078135D01*
X214542407Y-193488531D01*
X214545334Y-193571171D01*
X214605557Y-193719900D01*
X214757977Y-193911691D01*
X214849415Y-193999725D01*
X215162911Y-194317216D01*
X215482281Y-194709336D01*
X215767474Y-195121222D01*
X215978441Y-195498007D01*
X216028889Y-195615495D01*
X216173220Y-195993422D01*
X216881340Y-195993422D01*
X217211061Y-195490503D01*
X217662063Y-194974170D01*
X218125655Y-194609515D01*
X218312743Y-194508911D01*
X218856030Y-194343674D01*
X219408293Y-194343125D01*
X219954374Y-194504348D01*
X220479112Y-194824429D01*
X220635283Y-194955639D01*
X220985863Y-195311310D01*
X221266475Y-195698938D01*
X221506404Y-196165743D01*
X221710716Y-196689629D01*
X221845464Y-197205827D01*
X221937767Y-197847637D01*
X221986061Y-198576348D01*
X221988782Y-199353246D01*
X222559163Y-199353246D01*
X222568572Y-198745125D01*
X222556974Y-198413737D01*
X222445467Y-197391009D01*
X222232467Y-196480647D01*
X221921773Y-195688912D01*
X221517187Y-195022064D01*
X221022507Y-194486362D01*
X220441535Y-194088066D01*
X219778070Y-193833435D01*
X219776013Y-193832907D01*
X219146214Y-193745604D01*
X218550297Y-193818063D01*
X217980901Y-194052891D01*
X217430663Y-194452692D01*
X217099807Y-194780302D01*
X216828432Y-195070318D01*
X216649212Y-195243642D01*
X216545167Y-195313054D01*
X216499317Y-195291335D01*
X216492667Y-195237266D01*
X216441688Y-195092433D01*
X216305938Y-194856502D01*
X216111197Y-194566642D01*
X215883244Y-194260021D01*
X215647858Y-193973809D01*
X215517259Y-193830942D01*
X215279711Y-193558132D01*
X215123545Y-193295458D01*
X215007132Y-192966579D01*
X214969111Y-192825726D01*
X214615002Y-191720503D01*
X214134698Y-190690605D01*
X213693925Y-189960225D01*
X212925497Y-188936372D01*
X212027417Y-187999287D01*
X210989828Y-187139736D01*
X209905724Y-186410811D01*
X209202830Y-185981285D01*
X209482249Y-185766502D01*
X210363880Y-184984644D01*
X211124693Y-184091762D01*
X211750566Y-183105374D01*
X211954909Y-182699381D01*
X212240877Y-182031152D01*
X212443296Y-181405831D01*
X212576577Y-180762977D01*
X212655127Y-180042151D01*
X212676665Y-179671729D01*
X212686832Y-179451000D01*
X212047667Y-179451000D01*
X212036490Y-180129504D01*
X211996887Y-180685881D01*
X211919756Y-181166233D01*
X211795993Y-181616660D01*
X211616493Y-182083264D01*
X211459276Y-182430512D01*
X210909284Y-183412541D01*
X210233982Y-184288871D01*
X209424466Y-185069599D01*
X208580684Y-185694336D01*
X208227085Y-185920471D01*
X207978954Y-186060650D01*
X207804945Y-186128689D01*
X207673706Y-186138405D01*
X207607017Y-186123458D01*
X207417809Y-186090816D01*
X207120240Y-186068524D01*
X206775177Y-186060943D01*
X206738179Y-186061183D01*
X206369840Y-186074875D01*
X206084243Y-186120337D01*
X205803760Y-186216525D01*
X205477734Y-186368976D01*
X204870110Y-186670587D01*
X204600276Y-186511381D01*
X204195049Y-186347815D01*
X203747839Y-186289025D01*
X203307437Y-186331554D01*
X202922639Y-186471942D01*
X202693013Y-186646589D01*
X202544229Y-186782220D01*
X202438388Y-186797849D01*
X202359861Y-186746751D01*
X202202042Y-186633731D01*
X201975112Y-186491920D01*
X201910283Y-186454255D01*
X201439078Y-186237405D01*
X200930994Y-186090174D01*
X200434382Y-186020792D01*
X199997593Y-186037493D01*
X199784301Y-186092277D01*
X199639585Y-186120622D01*
X199472246Y-186083124D01*
X199236145Y-185965686D01*
X199090859Y-185880406D01*
X198136201Y-185210401D01*
X197298887Y-184424871D01*
X196588248Y-183535578D01*
X196013611Y-182554282D01*
X195584304Y-181492743D01*
X195566794Y-181437683D01*
X195487765Y-181165040D01*
X195432618Y-180908409D01*
X195397245Y-180627535D01*
X195377538Y-180282166D01*
X195369387Y-179832048D01*
X195368334Y-179493334D01*
X195371513Y-178960493D01*
X195383783Y-178556683D01*
X195409247Y-178241675D01*
X195452005Y-177975238D01*
X195516158Y-177717143D01*
X195566431Y-177550176D01*
X195987912Y-176482541D01*
X196549928Y-175501740D01*
X197242875Y-174616302D01*
X198057150Y-173834756D01*
X198734419Y-173345360D01*
X197793958Y-173345360D01*
X197332936Y-173749749D01*
X196875611Y-174205997D01*
X196411373Y-174765732D01*
X195984432Y-175371009D01*
X195638998Y-175963884D01*
X195629713Y-175982144D01*
X195453511Y-176357182D01*
X195279775Y-176773033D01*
X195123294Y-177188754D01*
X194998856Y-177563403D01*
X194921250Y-177856038D01*
X194902667Y-177994984D01*
X194883413Y-178095720D01*
X194796023Y-178130252D01*
X194596058Y-178112028D01*
X194542834Y-178103894D01*
X194268132Y-178035919D01*
X193928590Y-177918230D01*
X193674758Y-177810979D01*
X193086784Y-177448148D01*
X192576516Y-176954386D01*
X192176843Y-176362060D01*
X192150432Y-176310989D01*
X192028522Y-176052914D01*
X191953281Y-175829679D01*
X191913704Y-175584594D01*
X191898786Y-175260970D01*
X191897093Y-175006000D01*
X191903348Y-174599389D01*
X191929552Y-174302052D01*
X191986697Y-174054166D01*
X192085775Y-173795907D01*
X192142613Y-173669789D01*
X192465537Y-173133656D01*
X192880519Y-172682134D01*
X193467574Y-172243875D01*
X194101062Y-171960973D01*
X194762343Y-171832455D01*
X195432776Y-171857348D01*
X196093719Y-172034680D01*
X196726532Y-172363477D01*
X197312573Y-172842766D01*
X197385479Y-172917259D01*
X197793958Y-173345360D01*
X198734419Y-173345360D01*
X198983148Y-173165628D01*
X200011267Y-172617446D01*
X201131903Y-172198739D01*
X201787684Y-172025940D01*
X202429887Y-171919232D01*
X203168954Y-171859182D01*
X203944418Y-171846271D01*
X204695816Y-171880980D01*
X205362685Y-171963792D01*
X205528334Y-171996161D01*
X206686692Y-172324697D01*
X207765538Y-172789046D01*
X208753749Y-173379443D01*
X209640200Y-174086122D01*
X210413769Y-174899319D01*
X211063332Y-175809268D01*
X211577764Y-176806204D01*
X211850083Y-177546000D01*
X211930432Y-177827030D01*
X211985970Y-178092527D01*
X212021038Y-178384355D01*
X212039978Y-178744374D01*
X212047132Y-179214449D01*
X212047667Y-179451000D01*
X212686832Y-179451000D01*
X212725000Y-178622458D01*
X213066389Y-178521941D01*
X213686027Y-178255370D01*
X214256310Y-177848649D01*
X214754322Y-177328883D01*
X215157146Y-176723179D01*
X215441865Y-176058644D01*
X215558404Y-175574334D01*
X215591406Y-174869695D01*
X215585827Y-174835225D01*
X215014189Y-174835225D01*
X214977483Y-175485924D01*
X214796752Y-176126102D01*
X214467614Y-176734189D01*
X214187201Y-177085514D01*
X213903026Y-177355671D01*
X213566645Y-177614453D01*
X213220878Y-177834599D01*
X212908542Y-177988845D01*
X212672516Y-178049928D01*
X212578028Y-177998967D01*
X212499257Y-177823461D01*
X212437581Y-177567167D01*
X212169050Y-176653082D01*
X211736568Y-175757160D01*
X211145244Y-174887936D01*
X210400186Y-174053948D01*
X210244412Y-173902783D01*
X209372491Y-173074759D01*
X209694079Y-172758497D01*
X209944624Y-172553562D01*
X210274706Y-172336851D01*
X210566000Y-172178951D01*
X210859553Y-172047823D01*
X211107668Y-171968902D01*
X211374332Y-171929350D01*
X211723530Y-171916331D01*
X211878334Y-171915667D01*
X212271956Y-171922397D01*
X212560491Y-171951143D01*
X212807937Y-172014740D01*
X213078290Y-172126023D01*
X213190667Y-172178850D01*
X213808376Y-172558610D01*
X214303963Y-173035698D01*
X214673049Y-173588542D01*
X214911251Y-174195575D01*
X215014189Y-174835225D01*
X215585827Y-174835225D01*
X215475991Y-174156686D01*
X215227563Y-173465866D01*
X214861525Y-172827796D01*
X214393280Y-172273035D01*
X213838232Y-171832143D01*
X213605401Y-171699613D01*
X212881074Y-171420363D01*
X212130023Y-171296993D01*
X211376892Y-171325526D01*
%TD*%
M02*
