%TF.GenerationSoftware,KiCad,Pcbnew,(5.1.6)-1*%
%TF.CreationDate,2021-04-27T14:55:35-04:00*%
%TF.ProjectId,Logic,4c6f6769-632e-46b6-9963-61645f706362,rev?*%
%TF.SameCoordinates,Original*%
%TF.FileFunction,Copper,L1,Top*%
%TF.FilePolarity,Positive*%
%FSLAX46Y46*%
G04 Gerber Fmt 4.6, Leading zero omitted, Abs format (unit mm)*
G04 Created by KiCad (PCBNEW (5.1.6)-1) date 2021-04-27 14:55:35*
%MOMM*%
%LPD*%
G01*
G04 APERTURE LIST*
%TA.AperFunction,EtchedComponent*%
%ADD10C,0.002540*%
%TD*%
%TA.AperFunction,ComponentPad*%
%ADD11C,1.200000*%
%TD*%
%TA.AperFunction,ComponentPad*%
%ADD12C,5.000000*%
%TD*%
%TA.AperFunction,ComponentPad*%
%ADD13R,2.250000X2.250000*%
%TD*%
%TA.AperFunction,ComponentPad*%
%ADD14C,2.250000*%
%TD*%
%TA.AperFunction,SMDPad,CuDef*%
%ADD15R,1.470000X0.300000*%
%TD*%
%TA.AperFunction,SMDPad,CuDef*%
%ADD16R,0.300000X1.470000*%
%TD*%
%TA.AperFunction,SMDPad,CuDef*%
%ADD17R,1.460500X0.533400*%
%TD*%
%TA.AperFunction,SMDPad,CuDef*%
%ADD18R,0.558800X1.549400*%
%TD*%
%TA.AperFunction,ComponentPad*%
%ADD19C,2.800000*%
%TD*%
%TA.AperFunction,ComponentPad*%
%ADD20R,2.800000X2.800000*%
%TD*%
%TA.AperFunction,ComponentPad*%
%ADD21R,1.700000X1.700000*%
%TD*%
%TA.AperFunction,ComponentPad*%
%ADD22O,1.700000X1.700000*%
%TD*%
%TA.AperFunction,SMDPad,CuDef*%
%ADD23R,1.460500X0.558800*%
%TD*%
%TA.AperFunction,SMDPad,CuDef*%
%ADD24R,2.000000X5.500000*%
%TD*%
%TA.AperFunction,SMDPad,CuDef*%
%ADD25R,0.800000X0.900000*%
%TD*%
%TA.AperFunction,ComponentPad*%
%ADD26C,1.700000*%
%TD*%
%TA.AperFunction,ViaPad*%
%ADD27C,0.800000*%
%TD*%
%TA.AperFunction,Conductor*%
%ADD28C,0.250000*%
%TD*%
%TA.AperFunction,Conductor*%
%ADD29C,0.400000*%
%TD*%
G04 APERTURE END LIST*
D10*
%TO.C,VAL*%
G36*
X209948780Y-60838080D02*
G01*
X209941160Y-60960000D01*
X209918300Y-61087000D01*
X209892900Y-61183520D01*
X209844640Y-61310520D01*
X209786220Y-61429900D01*
X209740500Y-61503560D01*
X209740500Y-60825380D01*
X209735420Y-60751720D01*
X209722720Y-60688220D01*
X209720180Y-60685680D01*
X209692240Y-60606940D01*
X209656680Y-60535820D01*
X209641440Y-60512960D01*
X209641440Y-59852560D01*
X209638900Y-59796680D01*
X209636360Y-59745880D01*
X209633820Y-59702700D01*
X209628740Y-59669680D01*
X209621120Y-59649360D01*
X209618580Y-59644280D01*
X209608420Y-59646820D01*
X209593180Y-59664600D01*
X209572860Y-59692540D01*
X209550000Y-59728100D01*
X209522060Y-59771280D01*
X209494120Y-59817000D01*
X209466180Y-59867800D01*
X209440780Y-59916060D01*
X209417920Y-59964320D01*
X209407760Y-59984640D01*
X209392520Y-60017660D01*
X209377280Y-60060840D01*
X209362040Y-60106560D01*
X209346800Y-60149740D01*
X209334100Y-60190380D01*
X209326480Y-60223400D01*
X209321400Y-60243720D01*
X209321400Y-60246260D01*
X209326480Y-60253880D01*
X209334100Y-60253880D01*
X209349340Y-60248800D01*
X209374740Y-60243720D01*
X209402680Y-60238640D01*
X209456020Y-60233560D01*
X209514440Y-60238640D01*
X209565240Y-60251340D01*
X209567780Y-60253880D01*
X209577940Y-60251340D01*
X209585560Y-60238640D01*
X209595720Y-60215780D01*
X209605880Y-60180220D01*
X209618580Y-60129420D01*
X209623660Y-60104020D01*
X209631280Y-60065920D01*
X209636360Y-60020200D01*
X209638900Y-59966860D01*
X209641440Y-59910980D01*
X209641440Y-59852560D01*
X209641440Y-60512960D01*
X209613500Y-60474860D01*
X209567780Y-60424060D01*
X209514440Y-60391040D01*
X209511900Y-60388500D01*
X209461100Y-60370720D01*
X209407760Y-60368180D01*
X209349340Y-60378340D01*
X209283300Y-60403740D01*
X209212180Y-60444380D01*
X209191860Y-60457080D01*
X209128360Y-60507880D01*
X209059780Y-60568840D01*
X208993740Y-60639960D01*
X208930240Y-60716160D01*
X208874360Y-60792360D01*
X208828640Y-60868560D01*
X208821020Y-60886340D01*
X208780380Y-60982860D01*
X208747360Y-61092080D01*
X208727040Y-61203840D01*
X208719420Y-61318140D01*
X208719420Y-61323220D01*
X208727040Y-61417200D01*
X208742280Y-61503560D01*
X208770220Y-61574680D01*
X208808320Y-61638180D01*
X208854040Y-61686440D01*
X208909920Y-61722000D01*
X208973420Y-61744860D01*
X209047080Y-61752480D01*
X209072480Y-61752480D01*
X209115660Y-61747400D01*
X209158840Y-61737240D01*
X209189320Y-61727080D01*
X209252820Y-61699140D01*
X209313780Y-61666120D01*
X209372200Y-61620400D01*
X209407760Y-61587380D01*
X209496660Y-61493400D01*
X209572860Y-61386720D01*
X209638900Y-61269880D01*
X209689700Y-61142880D01*
X209720180Y-61043820D01*
X209732880Y-60977780D01*
X209740500Y-60901580D01*
X209740500Y-60825380D01*
X209740500Y-61503560D01*
X209720180Y-61539120D01*
X209643980Y-61638180D01*
X209562700Y-61727080D01*
X209473800Y-61800740D01*
X209379820Y-61864240D01*
X209283300Y-61909960D01*
X209181700Y-61942980D01*
X209166460Y-61945520D01*
X209072480Y-61958220D01*
X208978500Y-61953140D01*
X208892140Y-61935360D01*
X208810860Y-61899800D01*
X208737200Y-61851540D01*
X208694020Y-61815980D01*
X208638140Y-61752480D01*
X208594960Y-61681360D01*
X208561940Y-61602620D01*
X208536540Y-61511180D01*
X208526380Y-61465460D01*
X208511140Y-61381640D01*
X208478120Y-61442600D01*
X208440020Y-61503560D01*
X208440020Y-60820300D01*
X208429860Y-60728860D01*
X208419700Y-60685680D01*
X208394300Y-60609480D01*
X208358740Y-60540900D01*
X208338420Y-60510420D01*
X208338420Y-59867800D01*
X208338420Y-59814460D01*
X208335880Y-59763660D01*
X208333340Y-59717940D01*
X208328260Y-59679840D01*
X208323180Y-59654440D01*
X208315560Y-59639200D01*
X208313020Y-59639200D01*
X208305400Y-59646820D01*
X208290160Y-59664600D01*
X208269840Y-59695080D01*
X208246980Y-59730640D01*
X208219040Y-59771280D01*
X208193640Y-59817000D01*
X208168240Y-59860180D01*
X208145380Y-59900820D01*
X208140300Y-59913520D01*
X208109820Y-59974480D01*
X208084420Y-60040520D01*
X208059020Y-60109100D01*
X208036160Y-60170060D01*
X208023460Y-60225940D01*
X208020920Y-60231020D01*
X208018380Y-60248800D01*
X208020920Y-60256420D01*
X208028540Y-60253880D01*
X208043780Y-60248800D01*
X208071720Y-60243720D01*
X208097120Y-60238640D01*
X208140300Y-60233560D01*
X208175860Y-60233560D01*
X208206340Y-60238640D01*
X208234280Y-60246260D01*
X208259680Y-60248800D01*
X208269840Y-60251340D01*
X208280000Y-60243720D01*
X208290160Y-60220860D01*
X208300320Y-60185300D01*
X208313020Y-60137040D01*
X208323180Y-60078620D01*
X208328260Y-60060840D01*
X208333340Y-60020200D01*
X208335880Y-59974480D01*
X208338420Y-59923680D01*
X208338420Y-59867800D01*
X208338420Y-60510420D01*
X208318100Y-60479940D01*
X208269840Y-60431680D01*
X208219040Y-60393580D01*
X208206340Y-60388500D01*
X208178400Y-60375800D01*
X208155540Y-60368180D01*
X208127600Y-60368180D01*
X208104740Y-60368180D01*
X208066640Y-60375800D01*
X208028540Y-60383420D01*
X208005680Y-60391040D01*
X207952340Y-60418980D01*
X207896460Y-60457080D01*
X207835500Y-60500260D01*
X207779620Y-60548520D01*
X207746600Y-60579000D01*
X207655160Y-60678060D01*
X207578960Y-60784740D01*
X207515460Y-60899040D01*
X207467200Y-61013340D01*
X207436720Y-61132720D01*
X207418940Y-61254640D01*
X207418940Y-61353700D01*
X207429100Y-61447680D01*
X207449420Y-61531500D01*
X207482440Y-61600080D01*
X207523080Y-61658500D01*
X207573880Y-61704220D01*
X207634840Y-61734700D01*
X207662780Y-61742320D01*
X207708500Y-61752480D01*
X207749140Y-61755020D01*
X207797400Y-61749940D01*
X207820260Y-61747400D01*
X207850740Y-61737240D01*
X207891380Y-61724540D01*
X207929480Y-61709300D01*
X207937100Y-61706760D01*
X208020920Y-61655960D01*
X208102200Y-61592460D01*
X208178400Y-61516260D01*
X208246980Y-61424820D01*
X208307940Y-61323220D01*
X208361280Y-61214000D01*
X208396840Y-61114940D01*
X208422240Y-61018420D01*
X208437480Y-60916820D01*
X208440020Y-60820300D01*
X208440020Y-61503560D01*
X208412080Y-61549280D01*
X208335880Y-61645800D01*
X208252060Y-61732160D01*
X208165700Y-61805820D01*
X208071720Y-61866780D01*
X207975200Y-61912500D01*
X207916780Y-61932820D01*
X207871060Y-61942980D01*
X207820260Y-61950600D01*
X207766920Y-61955680D01*
X207713580Y-61955680D01*
X207670400Y-61953140D01*
X207650080Y-61950600D01*
X207556100Y-61922660D01*
X207474820Y-61882020D01*
X207403700Y-61826140D01*
X207342740Y-61760100D01*
X207291940Y-61678820D01*
X207253840Y-61587380D01*
X207225900Y-61485780D01*
X207225900Y-61480700D01*
X207218280Y-61424820D01*
X207215740Y-61356240D01*
X207215740Y-61285120D01*
X207218280Y-61211460D01*
X207225900Y-61140340D01*
X207236060Y-61079380D01*
X207238600Y-61076840D01*
X207279240Y-60934600D01*
X207332580Y-60799980D01*
X207403700Y-60675520D01*
X207439260Y-60622180D01*
X207474820Y-60573920D01*
X207520540Y-60523120D01*
X207568800Y-60469780D01*
X207622140Y-60416440D01*
X207672940Y-60368180D01*
X207718660Y-60330080D01*
X207751680Y-60304680D01*
X207784700Y-60281820D01*
X207802480Y-60264040D01*
X207812640Y-60251340D01*
X207815180Y-60241180D01*
X207817720Y-60215780D01*
X207825340Y-60172600D01*
X207840580Y-60119260D01*
X207860900Y-60053220D01*
X207871060Y-60025280D01*
X207899000Y-59951620D01*
X207934560Y-59870340D01*
X207975200Y-59786520D01*
X208020920Y-59705240D01*
X208066640Y-59629040D01*
X208114900Y-59560460D01*
X208158080Y-59504580D01*
X208165700Y-59496960D01*
X208206340Y-59458860D01*
X208246980Y-59438540D01*
X208297780Y-59428380D01*
X208333340Y-59428380D01*
X208389220Y-59441080D01*
X208437480Y-59466480D01*
X208478120Y-59504580D01*
X208506060Y-59557920D01*
X208521300Y-59603640D01*
X208541620Y-59730640D01*
X208549240Y-59865260D01*
X208541620Y-59999880D01*
X208523840Y-60137040D01*
X208493360Y-60261500D01*
X208470500Y-60337700D01*
X208503520Y-60383420D01*
X208556860Y-60472320D01*
X208597500Y-60568840D01*
X208627980Y-60675520D01*
X208630520Y-60698380D01*
X208638140Y-60731400D01*
X208640680Y-60756800D01*
X208643220Y-60769500D01*
X208643220Y-60772040D01*
X208648300Y-60766960D01*
X208658460Y-60751720D01*
X208673700Y-60726320D01*
X208686400Y-60708540D01*
X208744820Y-60619640D01*
X208813400Y-60530740D01*
X208889600Y-60446920D01*
X208970880Y-60370720D01*
X209049620Y-60309760D01*
X209080100Y-60284360D01*
X209100420Y-60264040D01*
X209113120Y-60248800D01*
X209113120Y-60246260D01*
X209146140Y-60106560D01*
X209189320Y-59977020D01*
X209242660Y-59852560D01*
X209311240Y-59725560D01*
X209334100Y-59687460D01*
X209369660Y-59629040D01*
X209405220Y-59575700D01*
X209440780Y-59529980D01*
X209468720Y-59494420D01*
X209486500Y-59476640D01*
X209527140Y-59448700D01*
X209575400Y-59430920D01*
X209628740Y-59428380D01*
X209684620Y-59438540D01*
X209707480Y-59448700D01*
X209750660Y-59474100D01*
X209783680Y-59512200D01*
X209809080Y-59560460D01*
X209826860Y-59623960D01*
X209829400Y-59636660D01*
X209847180Y-59773820D01*
X209849720Y-59916060D01*
X209837020Y-60058300D01*
X209811620Y-60198000D01*
X209788760Y-60281820D01*
X209770980Y-60335160D01*
X209816700Y-60403740D01*
X209872580Y-60505340D01*
X209913220Y-60609480D01*
X209938620Y-60721240D01*
X209948780Y-60838080D01*
G37*
X209948780Y-60838080D02*
X209941160Y-60960000D01*
X209918300Y-61087000D01*
X209892900Y-61183520D01*
X209844640Y-61310520D01*
X209786220Y-61429900D01*
X209740500Y-61503560D01*
X209740500Y-60825380D01*
X209735420Y-60751720D01*
X209722720Y-60688220D01*
X209720180Y-60685680D01*
X209692240Y-60606940D01*
X209656680Y-60535820D01*
X209641440Y-60512960D01*
X209641440Y-59852560D01*
X209638900Y-59796680D01*
X209636360Y-59745880D01*
X209633820Y-59702700D01*
X209628740Y-59669680D01*
X209621120Y-59649360D01*
X209618580Y-59644280D01*
X209608420Y-59646820D01*
X209593180Y-59664600D01*
X209572860Y-59692540D01*
X209550000Y-59728100D01*
X209522060Y-59771280D01*
X209494120Y-59817000D01*
X209466180Y-59867800D01*
X209440780Y-59916060D01*
X209417920Y-59964320D01*
X209407760Y-59984640D01*
X209392520Y-60017660D01*
X209377280Y-60060840D01*
X209362040Y-60106560D01*
X209346800Y-60149740D01*
X209334100Y-60190380D01*
X209326480Y-60223400D01*
X209321400Y-60243720D01*
X209321400Y-60246260D01*
X209326480Y-60253880D01*
X209334100Y-60253880D01*
X209349340Y-60248800D01*
X209374740Y-60243720D01*
X209402680Y-60238640D01*
X209456020Y-60233560D01*
X209514440Y-60238640D01*
X209565240Y-60251340D01*
X209567780Y-60253880D01*
X209577940Y-60251340D01*
X209585560Y-60238640D01*
X209595720Y-60215780D01*
X209605880Y-60180220D01*
X209618580Y-60129420D01*
X209623660Y-60104020D01*
X209631280Y-60065920D01*
X209636360Y-60020200D01*
X209638900Y-59966860D01*
X209641440Y-59910980D01*
X209641440Y-59852560D01*
X209641440Y-60512960D01*
X209613500Y-60474860D01*
X209567780Y-60424060D01*
X209514440Y-60391040D01*
X209511900Y-60388500D01*
X209461100Y-60370720D01*
X209407760Y-60368180D01*
X209349340Y-60378340D01*
X209283300Y-60403740D01*
X209212180Y-60444380D01*
X209191860Y-60457080D01*
X209128360Y-60507880D01*
X209059780Y-60568840D01*
X208993740Y-60639960D01*
X208930240Y-60716160D01*
X208874360Y-60792360D01*
X208828640Y-60868560D01*
X208821020Y-60886340D01*
X208780380Y-60982860D01*
X208747360Y-61092080D01*
X208727040Y-61203840D01*
X208719420Y-61318140D01*
X208719420Y-61323220D01*
X208727040Y-61417200D01*
X208742280Y-61503560D01*
X208770220Y-61574680D01*
X208808320Y-61638180D01*
X208854040Y-61686440D01*
X208909920Y-61722000D01*
X208973420Y-61744860D01*
X209047080Y-61752480D01*
X209072480Y-61752480D01*
X209115660Y-61747400D01*
X209158840Y-61737240D01*
X209189320Y-61727080D01*
X209252820Y-61699140D01*
X209313780Y-61666120D01*
X209372200Y-61620400D01*
X209407760Y-61587380D01*
X209496660Y-61493400D01*
X209572860Y-61386720D01*
X209638900Y-61269880D01*
X209689700Y-61142880D01*
X209720180Y-61043820D01*
X209732880Y-60977780D01*
X209740500Y-60901580D01*
X209740500Y-60825380D01*
X209740500Y-61503560D01*
X209720180Y-61539120D01*
X209643980Y-61638180D01*
X209562700Y-61727080D01*
X209473800Y-61800740D01*
X209379820Y-61864240D01*
X209283300Y-61909960D01*
X209181700Y-61942980D01*
X209166460Y-61945520D01*
X209072480Y-61958220D01*
X208978500Y-61953140D01*
X208892140Y-61935360D01*
X208810860Y-61899800D01*
X208737200Y-61851540D01*
X208694020Y-61815980D01*
X208638140Y-61752480D01*
X208594960Y-61681360D01*
X208561940Y-61602620D01*
X208536540Y-61511180D01*
X208526380Y-61465460D01*
X208511140Y-61381640D01*
X208478120Y-61442600D01*
X208440020Y-61503560D01*
X208440020Y-60820300D01*
X208429860Y-60728860D01*
X208419700Y-60685680D01*
X208394300Y-60609480D01*
X208358740Y-60540900D01*
X208338420Y-60510420D01*
X208338420Y-59867800D01*
X208338420Y-59814460D01*
X208335880Y-59763660D01*
X208333340Y-59717940D01*
X208328260Y-59679840D01*
X208323180Y-59654440D01*
X208315560Y-59639200D01*
X208313020Y-59639200D01*
X208305400Y-59646820D01*
X208290160Y-59664600D01*
X208269840Y-59695080D01*
X208246980Y-59730640D01*
X208219040Y-59771280D01*
X208193640Y-59817000D01*
X208168240Y-59860180D01*
X208145380Y-59900820D01*
X208140300Y-59913520D01*
X208109820Y-59974480D01*
X208084420Y-60040520D01*
X208059020Y-60109100D01*
X208036160Y-60170060D01*
X208023460Y-60225940D01*
X208020920Y-60231020D01*
X208018380Y-60248800D01*
X208020920Y-60256420D01*
X208028540Y-60253880D01*
X208043780Y-60248800D01*
X208071720Y-60243720D01*
X208097120Y-60238640D01*
X208140300Y-60233560D01*
X208175860Y-60233560D01*
X208206340Y-60238640D01*
X208234280Y-60246260D01*
X208259680Y-60248800D01*
X208269840Y-60251340D01*
X208280000Y-60243720D01*
X208290160Y-60220860D01*
X208300320Y-60185300D01*
X208313020Y-60137040D01*
X208323180Y-60078620D01*
X208328260Y-60060840D01*
X208333340Y-60020200D01*
X208335880Y-59974480D01*
X208338420Y-59923680D01*
X208338420Y-59867800D01*
X208338420Y-60510420D01*
X208318100Y-60479940D01*
X208269840Y-60431680D01*
X208219040Y-60393580D01*
X208206340Y-60388500D01*
X208178400Y-60375800D01*
X208155540Y-60368180D01*
X208127600Y-60368180D01*
X208104740Y-60368180D01*
X208066640Y-60375800D01*
X208028540Y-60383420D01*
X208005680Y-60391040D01*
X207952340Y-60418980D01*
X207896460Y-60457080D01*
X207835500Y-60500260D01*
X207779620Y-60548520D01*
X207746600Y-60579000D01*
X207655160Y-60678060D01*
X207578960Y-60784740D01*
X207515460Y-60899040D01*
X207467200Y-61013340D01*
X207436720Y-61132720D01*
X207418940Y-61254640D01*
X207418940Y-61353700D01*
X207429100Y-61447680D01*
X207449420Y-61531500D01*
X207482440Y-61600080D01*
X207523080Y-61658500D01*
X207573880Y-61704220D01*
X207634840Y-61734700D01*
X207662780Y-61742320D01*
X207708500Y-61752480D01*
X207749140Y-61755020D01*
X207797400Y-61749940D01*
X207820260Y-61747400D01*
X207850740Y-61737240D01*
X207891380Y-61724540D01*
X207929480Y-61709300D01*
X207937100Y-61706760D01*
X208020920Y-61655960D01*
X208102200Y-61592460D01*
X208178400Y-61516260D01*
X208246980Y-61424820D01*
X208307940Y-61323220D01*
X208361280Y-61214000D01*
X208396840Y-61114940D01*
X208422240Y-61018420D01*
X208437480Y-60916820D01*
X208440020Y-60820300D01*
X208440020Y-61503560D01*
X208412080Y-61549280D01*
X208335880Y-61645800D01*
X208252060Y-61732160D01*
X208165700Y-61805820D01*
X208071720Y-61866780D01*
X207975200Y-61912500D01*
X207916780Y-61932820D01*
X207871060Y-61942980D01*
X207820260Y-61950600D01*
X207766920Y-61955680D01*
X207713580Y-61955680D01*
X207670400Y-61953140D01*
X207650080Y-61950600D01*
X207556100Y-61922660D01*
X207474820Y-61882020D01*
X207403700Y-61826140D01*
X207342740Y-61760100D01*
X207291940Y-61678820D01*
X207253840Y-61587380D01*
X207225900Y-61485780D01*
X207225900Y-61480700D01*
X207218280Y-61424820D01*
X207215740Y-61356240D01*
X207215740Y-61285120D01*
X207218280Y-61211460D01*
X207225900Y-61140340D01*
X207236060Y-61079380D01*
X207238600Y-61076840D01*
X207279240Y-60934600D01*
X207332580Y-60799980D01*
X207403700Y-60675520D01*
X207439260Y-60622180D01*
X207474820Y-60573920D01*
X207520540Y-60523120D01*
X207568800Y-60469780D01*
X207622140Y-60416440D01*
X207672940Y-60368180D01*
X207718660Y-60330080D01*
X207751680Y-60304680D01*
X207784700Y-60281820D01*
X207802480Y-60264040D01*
X207812640Y-60251340D01*
X207815180Y-60241180D01*
X207817720Y-60215780D01*
X207825340Y-60172600D01*
X207840580Y-60119260D01*
X207860900Y-60053220D01*
X207871060Y-60025280D01*
X207899000Y-59951620D01*
X207934560Y-59870340D01*
X207975200Y-59786520D01*
X208020920Y-59705240D01*
X208066640Y-59629040D01*
X208114900Y-59560460D01*
X208158080Y-59504580D01*
X208165700Y-59496960D01*
X208206340Y-59458860D01*
X208246980Y-59438540D01*
X208297780Y-59428380D01*
X208333340Y-59428380D01*
X208389220Y-59441080D01*
X208437480Y-59466480D01*
X208478120Y-59504580D01*
X208506060Y-59557920D01*
X208521300Y-59603640D01*
X208541620Y-59730640D01*
X208549240Y-59865260D01*
X208541620Y-59999880D01*
X208523840Y-60137040D01*
X208493360Y-60261500D01*
X208470500Y-60337700D01*
X208503520Y-60383420D01*
X208556860Y-60472320D01*
X208597500Y-60568840D01*
X208627980Y-60675520D01*
X208630520Y-60698380D01*
X208638140Y-60731400D01*
X208640680Y-60756800D01*
X208643220Y-60769500D01*
X208643220Y-60772040D01*
X208648300Y-60766960D01*
X208658460Y-60751720D01*
X208673700Y-60726320D01*
X208686400Y-60708540D01*
X208744820Y-60619640D01*
X208813400Y-60530740D01*
X208889600Y-60446920D01*
X208970880Y-60370720D01*
X209049620Y-60309760D01*
X209080100Y-60284360D01*
X209100420Y-60264040D01*
X209113120Y-60248800D01*
X209113120Y-60246260D01*
X209146140Y-60106560D01*
X209189320Y-59977020D01*
X209242660Y-59852560D01*
X209311240Y-59725560D01*
X209334100Y-59687460D01*
X209369660Y-59629040D01*
X209405220Y-59575700D01*
X209440780Y-59529980D01*
X209468720Y-59494420D01*
X209486500Y-59476640D01*
X209527140Y-59448700D01*
X209575400Y-59430920D01*
X209628740Y-59428380D01*
X209684620Y-59438540D01*
X209707480Y-59448700D01*
X209750660Y-59474100D01*
X209783680Y-59512200D01*
X209809080Y-59560460D01*
X209826860Y-59623960D01*
X209829400Y-59636660D01*
X209847180Y-59773820D01*
X209849720Y-59916060D01*
X209837020Y-60058300D01*
X209811620Y-60198000D01*
X209788760Y-60281820D01*
X209770980Y-60335160D01*
X209816700Y-60403740D01*
X209872580Y-60505340D01*
X209913220Y-60609480D01*
X209938620Y-60721240D01*
X209948780Y-60838080D01*
G36*
X210637120Y-62047120D02*
G01*
X210632040Y-62105540D01*
X210626960Y-62156340D01*
X210621880Y-62184280D01*
X210614260Y-62219840D01*
X210601560Y-62263020D01*
X210586320Y-62308740D01*
X210583780Y-62318900D01*
X210532980Y-62435740D01*
X210466940Y-62552580D01*
X210426300Y-62613540D01*
X210426300Y-62039500D01*
X210426300Y-61991240D01*
X210423760Y-61958220D01*
X210421220Y-61932820D01*
X210416140Y-61912500D01*
X210411060Y-61892180D01*
X210405980Y-61887100D01*
X210372960Y-61831220D01*
X210352640Y-61810900D01*
X210352640Y-61201300D01*
X210350100Y-61178440D01*
X210347560Y-61135260D01*
X210339940Y-61089540D01*
X210332320Y-61043820D01*
X210324700Y-61003180D01*
X210317080Y-60967620D01*
X210309460Y-60942220D01*
X210304380Y-60932060D01*
X210296760Y-60934600D01*
X210284060Y-60949840D01*
X210263740Y-60977780D01*
X210243420Y-61013340D01*
X210218020Y-61056520D01*
X210192620Y-61104780D01*
X210169760Y-61155580D01*
X210144360Y-61206380D01*
X210124040Y-61257180D01*
X210106260Y-61302900D01*
X210106260Y-61305440D01*
X210085940Y-61368940D01*
X210068160Y-61437520D01*
X210050380Y-61516260D01*
X210037680Y-61582300D01*
X210032600Y-61610240D01*
X210078320Y-61597540D01*
X210106260Y-61592460D01*
X210144360Y-61589920D01*
X210187540Y-61587380D01*
X210210400Y-61587380D01*
X210301840Y-61587380D01*
X210319620Y-61506100D01*
X210339940Y-61399420D01*
X210350100Y-61297820D01*
X210352640Y-61201300D01*
X210352640Y-61810900D01*
X210327240Y-61788040D01*
X210291680Y-61765180D01*
X210245960Y-61749940D01*
X210187540Y-61739780D01*
X210126580Y-61739780D01*
X210060540Y-61744860D01*
X210019900Y-61755020D01*
X209918300Y-61790580D01*
X209819240Y-61838840D01*
X209725260Y-61902340D01*
X209631280Y-61973460D01*
X209547460Y-62057280D01*
X209468720Y-62146180D01*
X209397600Y-62240160D01*
X209339180Y-62339220D01*
X209293460Y-62440820D01*
X209260440Y-62542420D01*
X209245200Y-62621160D01*
X209242660Y-62697360D01*
X209250280Y-62768480D01*
X209273140Y-62831980D01*
X209306160Y-62885320D01*
X209346800Y-62925960D01*
X209400140Y-62956440D01*
X209412840Y-62961520D01*
X209458560Y-62971680D01*
X209514440Y-62974220D01*
X209575400Y-62971680D01*
X209633820Y-62964060D01*
X209659220Y-62958980D01*
X209760820Y-62923420D01*
X209859880Y-62872620D01*
X209956400Y-62809120D01*
X210050380Y-62732920D01*
X210136740Y-62649100D01*
X210218020Y-62555120D01*
X210286600Y-62456060D01*
X210347560Y-62351920D01*
X210393280Y-62245240D01*
X210398360Y-62230000D01*
X210411060Y-62194440D01*
X210418680Y-62166500D01*
X210423760Y-62138560D01*
X210426300Y-62108080D01*
X210426300Y-62067440D01*
X210426300Y-62039500D01*
X210426300Y-62613540D01*
X210390740Y-62666880D01*
X210301840Y-62773560D01*
X210202780Y-62870080D01*
X210096100Y-62958980D01*
X209986880Y-63035180D01*
X209897980Y-63083440D01*
X209839560Y-63111380D01*
X209773520Y-63134240D01*
X209702400Y-63157100D01*
X209638900Y-63172340D01*
X209598260Y-63177420D01*
X209504280Y-63182500D01*
X209415380Y-63172340D01*
X209334100Y-63149480D01*
X209260440Y-63113920D01*
X209196940Y-63065660D01*
X209179160Y-63050420D01*
X209171540Y-63045340D01*
X209169000Y-63045340D01*
X209174080Y-63055500D01*
X209186780Y-63075820D01*
X209204560Y-63103760D01*
X209229960Y-63139320D01*
X209247740Y-63167260D01*
X209303620Y-63251080D01*
X209346800Y-63324740D01*
X209379820Y-63390780D01*
X209405220Y-63456820D01*
X209425540Y-63520320D01*
X209438240Y-63586360D01*
X209440780Y-63614300D01*
X209445860Y-63713360D01*
X209433160Y-63817500D01*
X209410300Y-63921640D01*
X209372200Y-64025780D01*
X209323940Y-64122300D01*
X209262980Y-64211200D01*
X209255360Y-64221360D01*
X209237580Y-64241680D01*
X209237580Y-63693040D01*
X209235040Y-63637160D01*
X209229960Y-63588900D01*
X209217260Y-63540640D01*
X209202020Y-63492380D01*
X209176620Y-63441580D01*
X209143600Y-63383160D01*
X209102960Y-63317120D01*
X209069940Y-63266320D01*
X209021680Y-63197740D01*
X208986120Y-63136780D01*
X208958180Y-63083440D01*
X208937860Y-63035180D01*
X208922620Y-62989460D01*
X208920080Y-62971680D01*
X208912460Y-62923420D01*
X208907380Y-62877700D01*
X208909920Y-62831980D01*
X208915000Y-62776100D01*
X208927700Y-62710060D01*
X208927700Y-62702440D01*
X208940400Y-62636400D01*
X208945480Y-62580520D01*
X208945480Y-62532260D01*
X208935320Y-62491620D01*
X208922620Y-62448440D01*
X208915000Y-62435740D01*
X208879440Y-62377320D01*
X208831180Y-62329060D01*
X208775300Y-62296040D01*
X208711800Y-62278260D01*
X208643220Y-62275720D01*
X208597500Y-62280800D01*
X208567020Y-62288420D01*
X208526380Y-62303660D01*
X208475580Y-62323980D01*
X208422240Y-62349380D01*
X208353660Y-62379860D01*
X208297780Y-62402720D01*
X208246980Y-62412880D01*
X208203800Y-62415420D01*
X208163160Y-62407800D01*
X208122520Y-62392560D01*
X208081880Y-62364620D01*
X208074260Y-62362080D01*
X208026000Y-62326520D01*
X207985360Y-62303660D01*
X207947260Y-62288420D01*
X207911700Y-62280800D01*
X207871060Y-62278260D01*
X207853280Y-62278260D01*
X207810100Y-62278260D01*
X207777080Y-62283340D01*
X207746600Y-62290960D01*
X207723740Y-62298580D01*
X207645000Y-62336680D01*
X207576420Y-62382400D01*
X207518000Y-62435740D01*
X207462120Y-62496700D01*
X207416400Y-62567820D01*
X207380840Y-62646560D01*
X207360520Y-62699900D01*
X207337660Y-62765940D01*
X207312260Y-62824360D01*
X207284320Y-62880240D01*
X207251300Y-62933580D01*
X207213200Y-62986920D01*
X207167480Y-63040260D01*
X207139540Y-63065660D01*
X207139540Y-62331600D01*
X207139540Y-62280800D01*
X207137000Y-62242700D01*
X207134460Y-62209680D01*
X207129380Y-62181740D01*
X207121760Y-62153800D01*
X207116680Y-62133480D01*
X207088740Y-62052200D01*
X207055720Y-61986160D01*
X207012540Y-61925200D01*
X206966820Y-61874400D01*
X206949040Y-61859160D01*
X206949040Y-61031120D01*
X206949040Y-60993020D01*
X206949040Y-60965080D01*
X206946500Y-60954920D01*
X206941420Y-60921900D01*
X206908400Y-60960000D01*
X206872840Y-61000640D01*
X206837280Y-61053980D01*
X206796640Y-61114940D01*
X206758540Y-61175900D01*
X206722980Y-61239400D01*
X206697580Y-61292740D01*
X206679800Y-61328300D01*
X206662020Y-61368940D01*
X206644240Y-61417200D01*
X206626460Y-61462920D01*
X206611220Y-61506100D01*
X206598520Y-61544200D01*
X206588360Y-61572140D01*
X206585820Y-61584840D01*
X206593440Y-61587380D01*
X206616300Y-61587380D01*
X206646780Y-61589920D01*
X206672180Y-61587380D01*
X206730600Y-61587380D01*
X206773780Y-61592460D01*
X206799180Y-61597540D01*
X206837280Y-61607700D01*
X206849980Y-61577220D01*
X206860140Y-61556900D01*
X206872840Y-61523880D01*
X206885540Y-61488320D01*
X206885540Y-61480700D01*
X206908400Y-61412120D01*
X206926180Y-61346080D01*
X206936340Y-61280040D01*
X206943960Y-61206380D01*
X206949040Y-61127640D01*
X206949040Y-61079380D01*
X206949040Y-61031120D01*
X206949040Y-61859160D01*
X206905860Y-61818520D01*
X206842360Y-61777880D01*
X206773780Y-61752480D01*
X206700120Y-61739780D01*
X206654400Y-61739780D01*
X206568040Y-61747400D01*
X206486760Y-61770260D01*
X206413100Y-61810900D01*
X206344520Y-61864240D01*
X206281020Y-61932820D01*
X206227680Y-62014100D01*
X206199740Y-62064900D01*
X206174340Y-62123320D01*
X206156560Y-62174120D01*
X206143860Y-62224920D01*
X206136240Y-62278260D01*
X206133700Y-62341760D01*
X206133700Y-62382400D01*
X206133700Y-62435740D01*
X206136240Y-62476380D01*
X206138780Y-62509400D01*
X206143860Y-62539880D01*
X206151480Y-62570360D01*
X206154020Y-62572900D01*
X206187040Y-62666880D01*
X206232760Y-62750700D01*
X206288640Y-62821820D01*
X206352140Y-62882780D01*
X206423260Y-62928500D01*
X206484220Y-62956440D01*
X206540100Y-62969140D01*
X206603600Y-62974220D01*
X206669640Y-62971680D01*
X206725520Y-62964060D01*
X206730600Y-62961520D01*
X206814420Y-62928500D01*
X206893160Y-62880240D01*
X206961740Y-62816740D01*
X207020160Y-62743080D01*
X207070960Y-62656720D01*
X207109060Y-62562740D01*
X207121760Y-62522100D01*
X207129380Y-62489080D01*
X207134460Y-62456060D01*
X207137000Y-62420500D01*
X207139540Y-62372240D01*
X207139540Y-62331600D01*
X207139540Y-63065660D01*
X207111600Y-63096140D01*
X207045560Y-63157100D01*
X206969360Y-63225680D01*
X206913480Y-63271400D01*
X206829660Y-63342520D01*
X206761080Y-63403480D01*
X206700120Y-63459360D01*
X206651860Y-63510160D01*
X206608680Y-63555880D01*
X206575660Y-63601600D01*
X206545180Y-63647320D01*
X206517240Y-63695580D01*
X206512160Y-63708280D01*
X206479140Y-63776860D01*
X206458820Y-63837820D01*
X206446120Y-63898780D01*
X206438500Y-63962280D01*
X206438500Y-63995300D01*
X206438500Y-64038480D01*
X206441040Y-64068960D01*
X206443580Y-64091820D01*
X206451200Y-64112140D01*
X206461360Y-64137540D01*
X206463900Y-64145160D01*
X206481680Y-64178180D01*
X206502000Y-64208660D01*
X206517240Y-64228980D01*
X206545180Y-64254380D01*
X206583280Y-64279780D01*
X206626460Y-64302640D01*
X206667100Y-64317880D01*
X206677260Y-64320420D01*
X206712820Y-64325500D01*
X206758540Y-64328040D01*
X206811880Y-64328040D01*
X206862680Y-64325500D01*
X206908400Y-64320420D01*
X206926180Y-64317880D01*
X206951580Y-64307720D01*
X206989680Y-64295020D01*
X207035400Y-64274700D01*
X207081120Y-64254380D01*
X207106520Y-64241680D01*
X207164940Y-64213740D01*
X207213200Y-64190880D01*
X207251300Y-64178180D01*
X207284320Y-64168020D01*
X207312260Y-64160400D01*
X207345280Y-64157860D01*
X207370680Y-64157860D01*
X207413860Y-64160400D01*
X207449420Y-64168020D01*
X207482440Y-64185800D01*
X207518000Y-64211200D01*
X207543400Y-64231520D01*
X207584040Y-64267080D01*
X207617060Y-64287400D01*
X207650080Y-64300100D01*
X207688180Y-64307720D01*
X207713580Y-64307720D01*
X207754220Y-64305180D01*
X207794860Y-64295020D01*
X207838040Y-64279780D01*
X207886300Y-64254380D01*
X207919320Y-64234060D01*
X207975200Y-64201040D01*
X208020920Y-64180720D01*
X208061560Y-64165480D01*
X208102200Y-64160400D01*
X208132680Y-64157860D01*
X208173320Y-64160400D01*
X208208880Y-64165480D01*
X208244440Y-64175640D01*
X208282540Y-64193420D01*
X208325720Y-64221360D01*
X208348580Y-64236600D01*
X208407000Y-64274700D01*
X208457800Y-64300100D01*
X208506060Y-64317880D01*
X208556860Y-64325500D01*
X208612740Y-64330580D01*
X208622900Y-64330580D01*
X208719420Y-64322960D01*
X208810860Y-64297560D01*
X208897220Y-64262000D01*
X208975960Y-64211200D01*
X209047080Y-64150240D01*
X209110580Y-64076580D01*
X209161380Y-63997840D01*
X209199480Y-63908940D01*
X209224880Y-63814960D01*
X209237580Y-63715900D01*
X209237580Y-63693040D01*
X209237580Y-64241680D01*
X209174080Y-64310260D01*
X209082640Y-64386460D01*
X208983580Y-64447420D01*
X208874360Y-64493140D01*
X208762600Y-64523620D01*
X208724500Y-64531240D01*
X208620360Y-64538860D01*
X208518760Y-64531240D01*
X208422240Y-64505840D01*
X208328260Y-64465200D01*
X208236820Y-64409320D01*
X208234280Y-64406780D01*
X208191100Y-64378840D01*
X208155540Y-64363600D01*
X208122520Y-64363600D01*
X208084420Y-64373760D01*
X208043780Y-64399160D01*
X208041240Y-64399160D01*
X207970120Y-64442340D01*
X207906620Y-64472820D01*
X207848200Y-64493140D01*
X207787240Y-64505840D01*
X207726280Y-64510920D01*
X207713580Y-64510920D01*
X207662780Y-64510920D01*
X207624680Y-64505840D01*
X207586580Y-64495680D01*
X207573880Y-64493140D01*
X207533240Y-64472820D01*
X207487520Y-64447420D01*
X207444340Y-64416940D01*
X207408780Y-64386460D01*
X207403700Y-64381380D01*
X207388460Y-64368680D01*
X207368140Y-64363600D01*
X207342740Y-64366140D01*
X207309720Y-64376300D01*
X207266540Y-64394080D01*
X207215740Y-64416940D01*
X207142080Y-64452500D01*
X207081120Y-64480440D01*
X207025240Y-64500760D01*
X206974440Y-64516000D01*
X206921100Y-64526160D01*
X206900780Y-64528700D01*
X206847440Y-64536320D01*
X206804260Y-64538860D01*
X206766160Y-64538860D01*
X206722980Y-64533780D01*
X206700120Y-64531240D01*
X206603600Y-64510920D01*
X206517240Y-64475360D01*
X206438500Y-64427100D01*
X206372460Y-64368680D01*
X206319120Y-64300100D01*
X206275940Y-64221360D01*
X206248000Y-64137540D01*
X206232760Y-64043560D01*
X206232760Y-63947040D01*
X206245460Y-63858140D01*
X206270860Y-63754000D01*
X206308960Y-63654940D01*
X206359760Y-63558420D01*
X206420720Y-63466980D01*
X206496920Y-63373000D01*
X206588360Y-63281560D01*
X206636620Y-63233300D01*
X206700120Y-63177420D01*
X206656940Y-63182500D01*
X206601060Y-63185040D01*
X206535020Y-63177420D01*
X206463900Y-63162180D01*
X206395320Y-63139320D01*
X206329280Y-63111380D01*
X206293720Y-63093600D01*
X206250540Y-63063120D01*
X206204820Y-63025020D01*
X206156560Y-62979300D01*
X206113380Y-62933580D01*
X206082900Y-62895480D01*
X206024480Y-62801500D01*
X205978760Y-62697360D01*
X205945740Y-62580520D01*
X205938120Y-62550040D01*
X205927960Y-62491620D01*
X205922880Y-62423040D01*
X205922880Y-62349380D01*
X205925420Y-62278260D01*
X205933040Y-62214760D01*
X205938120Y-62191900D01*
X205971140Y-62080140D01*
X206014320Y-61970920D01*
X206072740Y-61871860D01*
X206138780Y-61782960D01*
X206217520Y-61704220D01*
X206301340Y-61638180D01*
X206331820Y-61620400D01*
X206357220Y-61602620D01*
X206375000Y-61589920D01*
X206382620Y-61574680D01*
X206390240Y-61551820D01*
X206390240Y-61541660D01*
X206418180Y-61437520D01*
X206458820Y-61328300D01*
X206507080Y-61214000D01*
X206568040Y-61099700D01*
X206634080Y-60987940D01*
X206707740Y-60883800D01*
X206750920Y-60827920D01*
X206794100Y-60779660D01*
X206834740Y-60746640D01*
X206875380Y-60726320D01*
X206918560Y-60716160D01*
X206941420Y-60713620D01*
X206997300Y-60721240D01*
X207048100Y-60744100D01*
X207088740Y-60777120D01*
X207121760Y-60820300D01*
X207137000Y-60858400D01*
X207142080Y-60878720D01*
X207147160Y-60911740D01*
X207152240Y-60952380D01*
X207154780Y-60982860D01*
X207159860Y-61102240D01*
X207149700Y-61226700D01*
X207129380Y-61356240D01*
X207098900Y-61488320D01*
X207070960Y-61569600D01*
X207040480Y-61658500D01*
X207091280Y-61704220D01*
X207164940Y-61788040D01*
X207228440Y-61879480D01*
X207279240Y-61981080D01*
X207317340Y-62090300D01*
X207340200Y-62204600D01*
X207345280Y-62242700D01*
X207350360Y-62306200D01*
X207398620Y-62265560D01*
X207482440Y-62199520D01*
X207566260Y-62148720D01*
X207650080Y-62110620D01*
X207723740Y-62085220D01*
X207817720Y-62069980D01*
X207909160Y-62072520D01*
X207998060Y-62090300D01*
X208081880Y-62125860D01*
X208165700Y-62176660D01*
X208168240Y-62179200D01*
X208193640Y-62196980D01*
X208213960Y-62209680D01*
X208224120Y-62212220D01*
X208234280Y-62209680D01*
X208257140Y-62199520D01*
X208290160Y-62186820D01*
X208328260Y-62169040D01*
X208340960Y-62161420D01*
X208434940Y-62120780D01*
X208523840Y-62092840D01*
X208602580Y-62075060D01*
X208673700Y-62069980D01*
X208762600Y-62077600D01*
X208846420Y-62100460D01*
X208922620Y-62138560D01*
X208988660Y-62194440D01*
X209049620Y-62260480D01*
X209064860Y-62285880D01*
X209108040Y-62346840D01*
X209133440Y-62290960D01*
X209202020Y-62171580D01*
X209280760Y-62057280D01*
X209369660Y-61948060D01*
X209466180Y-61849000D01*
X209570320Y-61760100D01*
X209677000Y-61686440D01*
X209743040Y-61645800D01*
X209826860Y-61602620D01*
X209844640Y-61511180D01*
X209870040Y-61399420D01*
X209905600Y-61280040D01*
X209948780Y-61158120D01*
X209969100Y-61107320D01*
X210012280Y-61005720D01*
X210058000Y-60919360D01*
X210106260Y-60848240D01*
X210157060Y-60792360D01*
X210207860Y-60749180D01*
X210258660Y-60723780D01*
X210306920Y-60713620D01*
X210357720Y-60721240D01*
X210385660Y-60731400D01*
X210413600Y-60749180D01*
X210439000Y-60769500D01*
X210444080Y-60777120D01*
X210479640Y-60827920D01*
X210507580Y-60893960D01*
X210527900Y-60970160D01*
X210543140Y-61056520D01*
X210553300Y-61147960D01*
X210555840Y-61247020D01*
X210550760Y-61348620D01*
X210538060Y-61450220D01*
X210517740Y-61549280D01*
X210515200Y-61559440D01*
X210492340Y-61658500D01*
X210525360Y-61694060D01*
X210553300Y-61732160D01*
X210578700Y-61777880D01*
X210604100Y-61831220D01*
X210621880Y-61884560D01*
X210626960Y-61899800D01*
X210632040Y-61940440D01*
X210634580Y-61991240D01*
X210637120Y-62047120D01*
G37*
X210637120Y-62047120D02*
X210632040Y-62105540D01*
X210626960Y-62156340D01*
X210621880Y-62184280D01*
X210614260Y-62219840D01*
X210601560Y-62263020D01*
X210586320Y-62308740D01*
X210583780Y-62318900D01*
X210532980Y-62435740D01*
X210466940Y-62552580D01*
X210426300Y-62613540D01*
X210426300Y-62039500D01*
X210426300Y-61991240D01*
X210423760Y-61958220D01*
X210421220Y-61932820D01*
X210416140Y-61912500D01*
X210411060Y-61892180D01*
X210405980Y-61887100D01*
X210372960Y-61831220D01*
X210352640Y-61810900D01*
X210352640Y-61201300D01*
X210350100Y-61178440D01*
X210347560Y-61135260D01*
X210339940Y-61089540D01*
X210332320Y-61043820D01*
X210324700Y-61003180D01*
X210317080Y-60967620D01*
X210309460Y-60942220D01*
X210304380Y-60932060D01*
X210296760Y-60934600D01*
X210284060Y-60949840D01*
X210263740Y-60977780D01*
X210243420Y-61013340D01*
X210218020Y-61056520D01*
X210192620Y-61104780D01*
X210169760Y-61155580D01*
X210144360Y-61206380D01*
X210124040Y-61257180D01*
X210106260Y-61302900D01*
X210106260Y-61305440D01*
X210085940Y-61368940D01*
X210068160Y-61437520D01*
X210050380Y-61516260D01*
X210037680Y-61582300D01*
X210032600Y-61610240D01*
X210078320Y-61597540D01*
X210106260Y-61592460D01*
X210144360Y-61589920D01*
X210187540Y-61587380D01*
X210210400Y-61587380D01*
X210301840Y-61587380D01*
X210319620Y-61506100D01*
X210339940Y-61399420D01*
X210350100Y-61297820D01*
X210352640Y-61201300D01*
X210352640Y-61810900D01*
X210327240Y-61788040D01*
X210291680Y-61765180D01*
X210245960Y-61749940D01*
X210187540Y-61739780D01*
X210126580Y-61739780D01*
X210060540Y-61744860D01*
X210019900Y-61755020D01*
X209918300Y-61790580D01*
X209819240Y-61838840D01*
X209725260Y-61902340D01*
X209631280Y-61973460D01*
X209547460Y-62057280D01*
X209468720Y-62146180D01*
X209397600Y-62240160D01*
X209339180Y-62339220D01*
X209293460Y-62440820D01*
X209260440Y-62542420D01*
X209245200Y-62621160D01*
X209242660Y-62697360D01*
X209250280Y-62768480D01*
X209273140Y-62831980D01*
X209306160Y-62885320D01*
X209346800Y-62925960D01*
X209400140Y-62956440D01*
X209412840Y-62961520D01*
X209458560Y-62971680D01*
X209514440Y-62974220D01*
X209575400Y-62971680D01*
X209633820Y-62964060D01*
X209659220Y-62958980D01*
X209760820Y-62923420D01*
X209859880Y-62872620D01*
X209956400Y-62809120D01*
X210050380Y-62732920D01*
X210136740Y-62649100D01*
X210218020Y-62555120D01*
X210286600Y-62456060D01*
X210347560Y-62351920D01*
X210393280Y-62245240D01*
X210398360Y-62230000D01*
X210411060Y-62194440D01*
X210418680Y-62166500D01*
X210423760Y-62138560D01*
X210426300Y-62108080D01*
X210426300Y-62067440D01*
X210426300Y-62039500D01*
X210426300Y-62613540D01*
X210390740Y-62666880D01*
X210301840Y-62773560D01*
X210202780Y-62870080D01*
X210096100Y-62958980D01*
X209986880Y-63035180D01*
X209897980Y-63083440D01*
X209839560Y-63111380D01*
X209773520Y-63134240D01*
X209702400Y-63157100D01*
X209638900Y-63172340D01*
X209598260Y-63177420D01*
X209504280Y-63182500D01*
X209415380Y-63172340D01*
X209334100Y-63149480D01*
X209260440Y-63113920D01*
X209196940Y-63065660D01*
X209179160Y-63050420D01*
X209171540Y-63045340D01*
X209169000Y-63045340D01*
X209174080Y-63055500D01*
X209186780Y-63075820D01*
X209204560Y-63103760D01*
X209229960Y-63139320D01*
X209247740Y-63167260D01*
X209303620Y-63251080D01*
X209346800Y-63324740D01*
X209379820Y-63390780D01*
X209405220Y-63456820D01*
X209425540Y-63520320D01*
X209438240Y-63586360D01*
X209440780Y-63614300D01*
X209445860Y-63713360D01*
X209433160Y-63817500D01*
X209410300Y-63921640D01*
X209372200Y-64025780D01*
X209323940Y-64122300D01*
X209262980Y-64211200D01*
X209255360Y-64221360D01*
X209237580Y-64241680D01*
X209237580Y-63693040D01*
X209235040Y-63637160D01*
X209229960Y-63588900D01*
X209217260Y-63540640D01*
X209202020Y-63492380D01*
X209176620Y-63441580D01*
X209143600Y-63383160D01*
X209102960Y-63317120D01*
X209069940Y-63266320D01*
X209021680Y-63197740D01*
X208986120Y-63136780D01*
X208958180Y-63083440D01*
X208937860Y-63035180D01*
X208922620Y-62989460D01*
X208920080Y-62971680D01*
X208912460Y-62923420D01*
X208907380Y-62877700D01*
X208909920Y-62831980D01*
X208915000Y-62776100D01*
X208927700Y-62710060D01*
X208927700Y-62702440D01*
X208940400Y-62636400D01*
X208945480Y-62580520D01*
X208945480Y-62532260D01*
X208935320Y-62491620D01*
X208922620Y-62448440D01*
X208915000Y-62435740D01*
X208879440Y-62377320D01*
X208831180Y-62329060D01*
X208775300Y-62296040D01*
X208711800Y-62278260D01*
X208643220Y-62275720D01*
X208597500Y-62280800D01*
X208567020Y-62288420D01*
X208526380Y-62303660D01*
X208475580Y-62323980D01*
X208422240Y-62349380D01*
X208353660Y-62379860D01*
X208297780Y-62402720D01*
X208246980Y-62412880D01*
X208203800Y-62415420D01*
X208163160Y-62407800D01*
X208122520Y-62392560D01*
X208081880Y-62364620D01*
X208074260Y-62362080D01*
X208026000Y-62326520D01*
X207985360Y-62303660D01*
X207947260Y-62288420D01*
X207911700Y-62280800D01*
X207871060Y-62278260D01*
X207853280Y-62278260D01*
X207810100Y-62278260D01*
X207777080Y-62283340D01*
X207746600Y-62290960D01*
X207723740Y-62298580D01*
X207645000Y-62336680D01*
X207576420Y-62382400D01*
X207518000Y-62435740D01*
X207462120Y-62496700D01*
X207416400Y-62567820D01*
X207380840Y-62646560D01*
X207360520Y-62699900D01*
X207337660Y-62765940D01*
X207312260Y-62824360D01*
X207284320Y-62880240D01*
X207251300Y-62933580D01*
X207213200Y-62986920D01*
X207167480Y-63040260D01*
X207139540Y-63065660D01*
X207139540Y-62331600D01*
X207139540Y-62280800D01*
X207137000Y-62242700D01*
X207134460Y-62209680D01*
X207129380Y-62181740D01*
X207121760Y-62153800D01*
X207116680Y-62133480D01*
X207088740Y-62052200D01*
X207055720Y-61986160D01*
X207012540Y-61925200D01*
X206966820Y-61874400D01*
X206949040Y-61859160D01*
X206949040Y-61031120D01*
X206949040Y-60993020D01*
X206949040Y-60965080D01*
X206946500Y-60954920D01*
X206941420Y-60921900D01*
X206908400Y-60960000D01*
X206872840Y-61000640D01*
X206837280Y-61053980D01*
X206796640Y-61114940D01*
X206758540Y-61175900D01*
X206722980Y-61239400D01*
X206697580Y-61292740D01*
X206679800Y-61328300D01*
X206662020Y-61368940D01*
X206644240Y-61417200D01*
X206626460Y-61462920D01*
X206611220Y-61506100D01*
X206598520Y-61544200D01*
X206588360Y-61572140D01*
X206585820Y-61584840D01*
X206593440Y-61587380D01*
X206616300Y-61587380D01*
X206646780Y-61589920D01*
X206672180Y-61587380D01*
X206730600Y-61587380D01*
X206773780Y-61592460D01*
X206799180Y-61597540D01*
X206837280Y-61607700D01*
X206849980Y-61577220D01*
X206860140Y-61556900D01*
X206872840Y-61523880D01*
X206885540Y-61488320D01*
X206885540Y-61480700D01*
X206908400Y-61412120D01*
X206926180Y-61346080D01*
X206936340Y-61280040D01*
X206943960Y-61206380D01*
X206949040Y-61127640D01*
X206949040Y-61079380D01*
X206949040Y-61031120D01*
X206949040Y-61859160D01*
X206905860Y-61818520D01*
X206842360Y-61777880D01*
X206773780Y-61752480D01*
X206700120Y-61739780D01*
X206654400Y-61739780D01*
X206568040Y-61747400D01*
X206486760Y-61770260D01*
X206413100Y-61810900D01*
X206344520Y-61864240D01*
X206281020Y-61932820D01*
X206227680Y-62014100D01*
X206199740Y-62064900D01*
X206174340Y-62123320D01*
X206156560Y-62174120D01*
X206143860Y-62224920D01*
X206136240Y-62278260D01*
X206133700Y-62341760D01*
X206133700Y-62382400D01*
X206133700Y-62435740D01*
X206136240Y-62476380D01*
X206138780Y-62509400D01*
X206143860Y-62539880D01*
X206151480Y-62570360D01*
X206154020Y-62572900D01*
X206187040Y-62666880D01*
X206232760Y-62750700D01*
X206288640Y-62821820D01*
X206352140Y-62882780D01*
X206423260Y-62928500D01*
X206484220Y-62956440D01*
X206540100Y-62969140D01*
X206603600Y-62974220D01*
X206669640Y-62971680D01*
X206725520Y-62964060D01*
X206730600Y-62961520D01*
X206814420Y-62928500D01*
X206893160Y-62880240D01*
X206961740Y-62816740D01*
X207020160Y-62743080D01*
X207070960Y-62656720D01*
X207109060Y-62562740D01*
X207121760Y-62522100D01*
X207129380Y-62489080D01*
X207134460Y-62456060D01*
X207137000Y-62420500D01*
X207139540Y-62372240D01*
X207139540Y-62331600D01*
X207139540Y-63065660D01*
X207111600Y-63096140D01*
X207045560Y-63157100D01*
X206969360Y-63225680D01*
X206913480Y-63271400D01*
X206829660Y-63342520D01*
X206761080Y-63403480D01*
X206700120Y-63459360D01*
X206651860Y-63510160D01*
X206608680Y-63555880D01*
X206575660Y-63601600D01*
X206545180Y-63647320D01*
X206517240Y-63695580D01*
X206512160Y-63708280D01*
X206479140Y-63776860D01*
X206458820Y-63837820D01*
X206446120Y-63898780D01*
X206438500Y-63962280D01*
X206438500Y-63995300D01*
X206438500Y-64038480D01*
X206441040Y-64068960D01*
X206443580Y-64091820D01*
X206451200Y-64112140D01*
X206461360Y-64137540D01*
X206463900Y-64145160D01*
X206481680Y-64178180D01*
X206502000Y-64208660D01*
X206517240Y-64228980D01*
X206545180Y-64254380D01*
X206583280Y-64279780D01*
X206626460Y-64302640D01*
X206667100Y-64317880D01*
X206677260Y-64320420D01*
X206712820Y-64325500D01*
X206758540Y-64328040D01*
X206811880Y-64328040D01*
X206862680Y-64325500D01*
X206908400Y-64320420D01*
X206926180Y-64317880D01*
X206951580Y-64307720D01*
X206989680Y-64295020D01*
X207035400Y-64274700D01*
X207081120Y-64254380D01*
X207106520Y-64241680D01*
X207164940Y-64213740D01*
X207213200Y-64190880D01*
X207251300Y-64178180D01*
X207284320Y-64168020D01*
X207312260Y-64160400D01*
X207345280Y-64157860D01*
X207370680Y-64157860D01*
X207413860Y-64160400D01*
X207449420Y-64168020D01*
X207482440Y-64185800D01*
X207518000Y-64211200D01*
X207543400Y-64231520D01*
X207584040Y-64267080D01*
X207617060Y-64287400D01*
X207650080Y-64300100D01*
X207688180Y-64307720D01*
X207713580Y-64307720D01*
X207754220Y-64305180D01*
X207794860Y-64295020D01*
X207838040Y-64279780D01*
X207886300Y-64254380D01*
X207919320Y-64234060D01*
X207975200Y-64201040D01*
X208020920Y-64180720D01*
X208061560Y-64165480D01*
X208102200Y-64160400D01*
X208132680Y-64157860D01*
X208173320Y-64160400D01*
X208208880Y-64165480D01*
X208244440Y-64175640D01*
X208282540Y-64193420D01*
X208325720Y-64221360D01*
X208348580Y-64236600D01*
X208407000Y-64274700D01*
X208457800Y-64300100D01*
X208506060Y-64317880D01*
X208556860Y-64325500D01*
X208612740Y-64330580D01*
X208622900Y-64330580D01*
X208719420Y-64322960D01*
X208810860Y-64297560D01*
X208897220Y-64262000D01*
X208975960Y-64211200D01*
X209047080Y-64150240D01*
X209110580Y-64076580D01*
X209161380Y-63997840D01*
X209199480Y-63908940D01*
X209224880Y-63814960D01*
X209237580Y-63715900D01*
X209237580Y-63693040D01*
X209237580Y-64241680D01*
X209174080Y-64310260D01*
X209082640Y-64386460D01*
X208983580Y-64447420D01*
X208874360Y-64493140D01*
X208762600Y-64523620D01*
X208724500Y-64531240D01*
X208620360Y-64538860D01*
X208518760Y-64531240D01*
X208422240Y-64505840D01*
X208328260Y-64465200D01*
X208236820Y-64409320D01*
X208234280Y-64406780D01*
X208191100Y-64378840D01*
X208155540Y-64363600D01*
X208122520Y-64363600D01*
X208084420Y-64373760D01*
X208043780Y-64399160D01*
X208041240Y-64399160D01*
X207970120Y-64442340D01*
X207906620Y-64472820D01*
X207848200Y-64493140D01*
X207787240Y-64505840D01*
X207726280Y-64510920D01*
X207713580Y-64510920D01*
X207662780Y-64510920D01*
X207624680Y-64505840D01*
X207586580Y-64495680D01*
X207573880Y-64493140D01*
X207533240Y-64472820D01*
X207487520Y-64447420D01*
X207444340Y-64416940D01*
X207408780Y-64386460D01*
X207403700Y-64381380D01*
X207388460Y-64368680D01*
X207368140Y-64363600D01*
X207342740Y-64366140D01*
X207309720Y-64376300D01*
X207266540Y-64394080D01*
X207215740Y-64416940D01*
X207142080Y-64452500D01*
X207081120Y-64480440D01*
X207025240Y-64500760D01*
X206974440Y-64516000D01*
X206921100Y-64526160D01*
X206900780Y-64528700D01*
X206847440Y-64536320D01*
X206804260Y-64538860D01*
X206766160Y-64538860D01*
X206722980Y-64533780D01*
X206700120Y-64531240D01*
X206603600Y-64510920D01*
X206517240Y-64475360D01*
X206438500Y-64427100D01*
X206372460Y-64368680D01*
X206319120Y-64300100D01*
X206275940Y-64221360D01*
X206248000Y-64137540D01*
X206232760Y-64043560D01*
X206232760Y-63947040D01*
X206245460Y-63858140D01*
X206270860Y-63754000D01*
X206308960Y-63654940D01*
X206359760Y-63558420D01*
X206420720Y-63466980D01*
X206496920Y-63373000D01*
X206588360Y-63281560D01*
X206636620Y-63233300D01*
X206700120Y-63177420D01*
X206656940Y-63182500D01*
X206601060Y-63185040D01*
X206535020Y-63177420D01*
X206463900Y-63162180D01*
X206395320Y-63139320D01*
X206329280Y-63111380D01*
X206293720Y-63093600D01*
X206250540Y-63063120D01*
X206204820Y-63025020D01*
X206156560Y-62979300D01*
X206113380Y-62933580D01*
X206082900Y-62895480D01*
X206024480Y-62801500D01*
X205978760Y-62697360D01*
X205945740Y-62580520D01*
X205938120Y-62550040D01*
X205927960Y-62491620D01*
X205922880Y-62423040D01*
X205922880Y-62349380D01*
X205925420Y-62278260D01*
X205933040Y-62214760D01*
X205938120Y-62191900D01*
X205971140Y-62080140D01*
X206014320Y-61970920D01*
X206072740Y-61871860D01*
X206138780Y-61782960D01*
X206217520Y-61704220D01*
X206301340Y-61638180D01*
X206331820Y-61620400D01*
X206357220Y-61602620D01*
X206375000Y-61589920D01*
X206382620Y-61574680D01*
X206390240Y-61551820D01*
X206390240Y-61541660D01*
X206418180Y-61437520D01*
X206458820Y-61328300D01*
X206507080Y-61214000D01*
X206568040Y-61099700D01*
X206634080Y-60987940D01*
X206707740Y-60883800D01*
X206750920Y-60827920D01*
X206794100Y-60779660D01*
X206834740Y-60746640D01*
X206875380Y-60726320D01*
X206918560Y-60716160D01*
X206941420Y-60713620D01*
X206997300Y-60721240D01*
X207048100Y-60744100D01*
X207088740Y-60777120D01*
X207121760Y-60820300D01*
X207137000Y-60858400D01*
X207142080Y-60878720D01*
X207147160Y-60911740D01*
X207152240Y-60952380D01*
X207154780Y-60982860D01*
X207159860Y-61102240D01*
X207149700Y-61226700D01*
X207129380Y-61356240D01*
X207098900Y-61488320D01*
X207070960Y-61569600D01*
X207040480Y-61658500D01*
X207091280Y-61704220D01*
X207164940Y-61788040D01*
X207228440Y-61879480D01*
X207279240Y-61981080D01*
X207317340Y-62090300D01*
X207340200Y-62204600D01*
X207345280Y-62242700D01*
X207350360Y-62306200D01*
X207398620Y-62265560D01*
X207482440Y-62199520D01*
X207566260Y-62148720D01*
X207650080Y-62110620D01*
X207723740Y-62085220D01*
X207817720Y-62069980D01*
X207909160Y-62072520D01*
X207998060Y-62090300D01*
X208081880Y-62125860D01*
X208165700Y-62176660D01*
X208168240Y-62179200D01*
X208193640Y-62196980D01*
X208213960Y-62209680D01*
X208224120Y-62212220D01*
X208234280Y-62209680D01*
X208257140Y-62199520D01*
X208290160Y-62186820D01*
X208328260Y-62169040D01*
X208340960Y-62161420D01*
X208434940Y-62120780D01*
X208523840Y-62092840D01*
X208602580Y-62075060D01*
X208673700Y-62069980D01*
X208762600Y-62077600D01*
X208846420Y-62100460D01*
X208922620Y-62138560D01*
X208988660Y-62194440D01*
X209049620Y-62260480D01*
X209064860Y-62285880D01*
X209108040Y-62346840D01*
X209133440Y-62290960D01*
X209202020Y-62171580D01*
X209280760Y-62057280D01*
X209369660Y-61948060D01*
X209466180Y-61849000D01*
X209570320Y-61760100D01*
X209677000Y-61686440D01*
X209743040Y-61645800D01*
X209826860Y-61602620D01*
X209844640Y-61511180D01*
X209870040Y-61399420D01*
X209905600Y-61280040D01*
X209948780Y-61158120D01*
X209969100Y-61107320D01*
X210012280Y-61005720D01*
X210058000Y-60919360D01*
X210106260Y-60848240D01*
X210157060Y-60792360D01*
X210207860Y-60749180D01*
X210258660Y-60723780D01*
X210306920Y-60713620D01*
X210357720Y-60721240D01*
X210385660Y-60731400D01*
X210413600Y-60749180D01*
X210439000Y-60769500D01*
X210444080Y-60777120D01*
X210479640Y-60827920D01*
X210507580Y-60893960D01*
X210527900Y-60970160D01*
X210543140Y-61056520D01*
X210553300Y-61147960D01*
X210555840Y-61247020D01*
X210550760Y-61348620D01*
X210538060Y-61450220D01*
X210517740Y-61549280D01*
X210515200Y-61559440D01*
X210492340Y-61658500D01*
X210525360Y-61694060D01*
X210553300Y-61732160D01*
X210578700Y-61777880D01*
X210604100Y-61831220D01*
X210621880Y-61884560D01*
X210626960Y-61899800D01*
X210632040Y-61940440D01*
X210634580Y-61991240D01*
X210637120Y-62047120D01*
G36*
X210736180Y-64635380D02*
G01*
X209732880Y-64632840D01*
X209732880Y-63380620D01*
X209730340Y-63375540D01*
X209722720Y-63375540D01*
X209710020Y-63383160D01*
X209707480Y-63406020D01*
X209707480Y-63408560D01*
X209707480Y-63428880D01*
X209712560Y-63433960D01*
X209717640Y-63421260D01*
X209727800Y-63400940D01*
X209732880Y-63380620D01*
X209732880Y-64632840D01*
X209730340Y-64632840D01*
X209699860Y-64632840D01*
X209699860Y-63400940D01*
X209692240Y-63403480D01*
X209689700Y-63406020D01*
X209679540Y-63411100D01*
X209677000Y-63403480D01*
X209677000Y-63395860D01*
X209671920Y-63378080D01*
X209661760Y-63373000D01*
X209651600Y-63383160D01*
X209649060Y-63393320D01*
X209641440Y-63416180D01*
X209638900Y-63426340D01*
X209638900Y-63378080D01*
X209633820Y-63375540D01*
X209616040Y-63373000D01*
X209613500Y-63373000D01*
X209593180Y-63375540D01*
X209588100Y-63378080D01*
X209590640Y-63380620D01*
X209598260Y-63390780D01*
X209593180Y-63408560D01*
X209593180Y-63411100D01*
X209585560Y-63428880D01*
X209585560Y-63439040D01*
X209588100Y-63439040D01*
X209595720Y-63431420D01*
X209603340Y-63416180D01*
X209608420Y-63403480D01*
X209608420Y-63400940D01*
X209616040Y-63388240D01*
X209628740Y-63380620D01*
X209638900Y-63378080D01*
X209638900Y-63426340D01*
X209636360Y-63439040D01*
X209638900Y-63439040D01*
X209649060Y-63428880D01*
X209654140Y-63418720D01*
X209666840Y-63393320D01*
X209669380Y-63418720D01*
X209671920Y-63436500D01*
X209677000Y-63439040D01*
X209689700Y-63426340D01*
X209699860Y-63411100D01*
X209699860Y-63400940D01*
X209699860Y-64632840D01*
X209577940Y-64632840D01*
X209440780Y-64632840D01*
X209318860Y-64632840D01*
X209209640Y-64632840D01*
X209118200Y-64632840D01*
X209036920Y-64632840D01*
X208968340Y-64632840D01*
X208912460Y-64630300D01*
X208866740Y-64630300D01*
X208831180Y-64630300D01*
X208805780Y-64627760D01*
X208785460Y-64627760D01*
X208775300Y-64625220D01*
X208772760Y-64625220D01*
X208775300Y-64622680D01*
X208780380Y-64622680D01*
X208897220Y-64589660D01*
X209008980Y-64543940D01*
X209113120Y-64482980D01*
X209212180Y-64406780D01*
X209283300Y-64338200D01*
X209356960Y-64251840D01*
X209417920Y-64157860D01*
X209466180Y-64056260D01*
X209506820Y-63944500D01*
X209514440Y-63916560D01*
X209522060Y-63881000D01*
X209529680Y-63853060D01*
X209532220Y-63822580D01*
X209534760Y-63787020D01*
X209537300Y-63741300D01*
X209537300Y-63695580D01*
X209534760Y-63619380D01*
X209532220Y-63553340D01*
X209522060Y-63497460D01*
X209506820Y-63444120D01*
X209486500Y-63388240D01*
X209468720Y-63350140D01*
X209456020Y-63319660D01*
X209445860Y-63296800D01*
X209440780Y-63284100D01*
X209448400Y-63281560D01*
X209468720Y-63281560D01*
X209499200Y-63279020D01*
X209511900Y-63279020D01*
X209621120Y-63271400D01*
X209735420Y-63248540D01*
X209849720Y-63210440D01*
X209964020Y-63159640D01*
X210078320Y-63093600D01*
X210126580Y-63060580D01*
X210174840Y-63025020D01*
X210230720Y-62976760D01*
X210289140Y-62920880D01*
X210347560Y-62862460D01*
X210400900Y-62804040D01*
X210449160Y-62748160D01*
X210489800Y-62699900D01*
X210492340Y-62694820D01*
X210573620Y-62570360D01*
X210637120Y-62443360D01*
X210687920Y-62316360D01*
X210718400Y-62204600D01*
X210733640Y-62123320D01*
X210733640Y-63380620D01*
X210736180Y-64635380D01*
G37*
X210736180Y-64635380D02*
X209732880Y-64632840D01*
X209732880Y-63380620D01*
X209730340Y-63375540D01*
X209722720Y-63375540D01*
X209710020Y-63383160D01*
X209707480Y-63406020D01*
X209707480Y-63408560D01*
X209707480Y-63428880D01*
X209712560Y-63433960D01*
X209717640Y-63421260D01*
X209727800Y-63400940D01*
X209732880Y-63380620D01*
X209732880Y-64632840D01*
X209730340Y-64632840D01*
X209699860Y-64632840D01*
X209699860Y-63400940D01*
X209692240Y-63403480D01*
X209689700Y-63406020D01*
X209679540Y-63411100D01*
X209677000Y-63403480D01*
X209677000Y-63395860D01*
X209671920Y-63378080D01*
X209661760Y-63373000D01*
X209651600Y-63383160D01*
X209649060Y-63393320D01*
X209641440Y-63416180D01*
X209638900Y-63426340D01*
X209638900Y-63378080D01*
X209633820Y-63375540D01*
X209616040Y-63373000D01*
X209613500Y-63373000D01*
X209593180Y-63375540D01*
X209588100Y-63378080D01*
X209590640Y-63380620D01*
X209598260Y-63390780D01*
X209593180Y-63408560D01*
X209593180Y-63411100D01*
X209585560Y-63428880D01*
X209585560Y-63439040D01*
X209588100Y-63439040D01*
X209595720Y-63431420D01*
X209603340Y-63416180D01*
X209608420Y-63403480D01*
X209608420Y-63400940D01*
X209616040Y-63388240D01*
X209628740Y-63380620D01*
X209638900Y-63378080D01*
X209638900Y-63426340D01*
X209636360Y-63439040D01*
X209638900Y-63439040D01*
X209649060Y-63428880D01*
X209654140Y-63418720D01*
X209666840Y-63393320D01*
X209669380Y-63418720D01*
X209671920Y-63436500D01*
X209677000Y-63439040D01*
X209689700Y-63426340D01*
X209699860Y-63411100D01*
X209699860Y-63400940D01*
X209699860Y-64632840D01*
X209577940Y-64632840D01*
X209440780Y-64632840D01*
X209318860Y-64632840D01*
X209209640Y-64632840D01*
X209118200Y-64632840D01*
X209036920Y-64632840D01*
X208968340Y-64632840D01*
X208912460Y-64630300D01*
X208866740Y-64630300D01*
X208831180Y-64630300D01*
X208805780Y-64627760D01*
X208785460Y-64627760D01*
X208775300Y-64625220D01*
X208772760Y-64625220D01*
X208775300Y-64622680D01*
X208780380Y-64622680D01*
X208897220Y-64589660D01*
X209008980Y-64543940D01*
X209113120Y-64482980D01*
X209212180Y-64406780D01*
X209283300Y-64338200D01*
X209356960Y-64251840D01*
X209417920Y-64157860D01*
X209466180Y-64056260D01*
X209506820Y-63944500D01*
X209514440Y-63916560D01*
X209522060Y-63881000D01*
X209529680Y-63853060D01*
X209532220Y-63822580D01*
X209534760Y-63787020D01*
X209537300Y-63741300D01*
X209537300Y-63695580D01*
X209534760Y-63619380D01*
X209532220Y-63553340D01*
X209522060Y-63497460D01*
X209506820Y-63444120D01*
X209486500Y-63388240D01*
X209468720Y-63350140D01*
X209456020Y-63319660D01*
X209445860Y-63296800D01*
X209440780Y-63284100D01*
X209448400Y-63281560D01*
X209468720Y-63281560D01*
X209499200Y-63279020D01*
X209511900Y-63279020D01*
X209621120Y-63271400D01*
X209735420Y-63248540D01*
X209849720Y-63210440D01*
X209964020Y-63159640D01*
X210078320Y-63093600D01*
X210126580Y-63060580D01*
X210174840Y-63025020D01*
X210230720Y-62976760D01*
X210289140Y-62920880D01*
X210347560Y-62862460D01*
X210400900Y-62804040D01*
X210449160Y-62748160D01*
X210489800Y-62699900D01*
X210492340Y-62694820D01*
X210573620Y-62570360D01*
X210637120Y-62443360D01*
X210687920Y-62316360D01*
X210718400Y-62204600D01*
X210733640Y-62123320D01*
X210733640Y-63380620D01*
X210736180Y-64635380D01*
G36*
X208478120Y-64625220D02*
G01*
X208475580Y-64627760D01*
X208465420Y-64627760D01*
X208450180Y-64630300D01*
X208424780Y-64630300D01*
X208391760Y-64630300D01*
X208348580Y-64632840D01*
X208295240Y-64632840D01*
X208229200Y-64632840D01*
X208150460Y-64632840D01*
X208056480Y-64632840D01*
X207952340Y-64632840D01*
X207830420Y-64632840D01*
X207708500Y-64632840D01*
X207571340Y-64632840D01*
X207451960Y-64632840D01*
X207345280Y-64632840D01*
X207253840Y-64632840D01*
X207177640Y-64632840D01*
X207111600Y-64632840D01*
X207060800Y-64630300D01*
X207017620Y-64630300D01*
X206987140Y-64630300D01*
X206964280Y-64627760D01*
X206949040Y-64627760D01*
X206941420Y-64625220D01*
X206949040Y-64622680D01*
X206951580Y-64622680D01*
X207002380Y-64609980D01*
X207053180Y-64594740D01*
X207109060Y-64574420D01*
X207170020Y-64546480D01*
X207230980Y-64518540D01*
X207347820Y-64462660D01*
X207388460Y-64498220D01*
X207454500Y-64546480D01*
X207530700Y-64579500D01*
X207617060Y-64602360D01*
X207711040Y-64609980D01*
X207713580Y-64609980D01*
X207797400Y-64604900D01*
X207878680Y-64587120D01*
X207957420Y-64559180D01*
X208041240Y-64516000D01*
X208081880Y-64490600D01*
X208135220Y-64455040D01*
X208180940Y-64490600D01*
X208274920Y-64551560D01*
X208373980Y-64594740D01*
X208465420Y-64622680D01*
X208473040Y-64622680D01*
X208478120Y-64625220D01*
G37*
X208478120Y-64625220D02*
X208475580Y-64627760D01*
X208465420Y-64627760D01*
X208450180Y-64630300D01*
X208424780Y-64630300D01*
X208391760Y-64630300D01*
X208348580Y-64632840D01*
X208295240Y-64632840D01*
X208229200Y-64632840D01*
X208150460Y-64632840D01*
X208056480Y-64632840D01*
X207952340Y-64632840D01*
X207830420Y-64632840D01*
X207708500Y-64632840D01*
X207571340Y-64632840D01*
X207451960Y-64632840D01*
X207345280Y-64632840D01*
X207253840Y-64632840D01*
X207177640Y-64632840D01*
X207111600Y-64632840D01*
X207060800Y-64630300D01*
X207017620Y-64630300D01*
X206987140Y-64630300D01*
X206964280Y-64627760D01*
X206949040Y-64627760D01*
X206941420Y-64625220D01*
X206949040Y-64622680D01*
X206951580Y-64622680D01*
X207002380Y-64609980D01*
X207053180Y-64594740D01*
X207109060Y-64574420D01*
X207170020Y-64546480D01*
X207230980Y-64518540D01*
X207347820Y-64462660D01*
X207388460Y-64498220D01*
X207454500Y-64546480D01*
X207530700Y-64579500D01*
X207617060Y-64602360D01*
X207711040Y-64609980D01*
X207713580Y-64609980D01*
X207797400Y-64604900D01*
X207878680Y-64587120D01*
X207957420Y-64559180D01*
X208041240Y-64516000D01*
X208081880Y-64490600D01*
X208135220Y-64455040D01*
X208180940Y-64490600D01*
X208274920Y-64551560D01*
X208373980Y-64594740D01*
X208465420Y-64622680D01*
X208473040Y-64622680D01*
X208478120Y-64625220D01*
G36*
X210736180Y-59326780D02*
G01*
X210733640Y-60632340D01*
X210733640Y-60807600D01*
X210733640Y-60967620D01*
X210733640Y-61112400D01*
X210733640Y-61239400D01*
X210733640Y-61356240D01*
X210733640Y-61457840D01*
X210733640Y-61546740D01*
X210733640Y-61622940D01*
X210731100Y-61688980D01*
X210731100Y-61744860D01*
X210731100Y-61790580D01*
X210731100Y-61826140D01*
X210728560Y-61854080D01*
X210728560Y-61871860D01*
X210726020Y-61884560D01*
X210726020Y-61892180D01*
X210723480Y-61892180D01*
X210723480Y-61887100D01*
X210705700Y-61826140D01*
X210682840Y-61765180D01*
X210657440Y-61711840D01*
X210632040Y-61668660D01*
X210616800Y-61650880D01*
X210609180Y-61640720D01*
X210606640Y-61630560D01*
X210606640Y-61617860D01*
X210609180Y-61595000D01*
X210616800Y-61561980D01*
X210634580Y-61455300D01*
X210647280Y-61346080D01*
X210649820Y-61231780D01*
X210647280Y-61120020D01*
X210637120Y-61013340D01*
X210616800Y-60919360D01*
X210616800Y-60914280D01*
X210588860Y-60827920D01*
X210550760Y-60756800D01*
X210505040Y-60698380D01*
X210451700Y-60655200D01*
X210423760Y-60639960D01*
X210395820Y-60627260D01*
X210367880Y-60619640D01*
X210337400Y-60617100D01*
X210304380Y-60617100D01*
X210266280Y-60617100D01*
X210235800Y-60619640D01*
X210212940Y-60627260D01*
X210182460Y-60639960D01*
X210174840Y-60645040D01*
X210116420Y-60683140D01*
X210080860Y-60716160D01*
X210042760Y-60759340D01*
X210032600Y-60695840D01*
X210007200Y-60584080D01*
X209969100Y-60474860D01*
X209918300Y-60378340D01*
X209915760Y-60370720D01*
X209880200Y-60317380D01*
X209897980Y-60258960D01*
X209913220Y-60198000D01*
X209925920Y-60144660D01*
X209933540Y-60091320D01*
X209938620Y-60037980D01*
X209941160Y-59977020D01*
X209943700Y-59905900D01*
X209943700Y-59875420D01*
X209941160Y-59776360D01*
X209936080Y-59692540D01*
X209928460Y-59621420D01*
X209913220Y-59560460D01*
X209895440Y-59509660D01*
X209870040Y-59466480D01*
X209842100Y-59428380D01*
X209819240Y-59408060D01*
X209781140Y-59375040D01*
X209743040Y-59354720D01*
X209702400Y-59342020D01*
X209651600Y-59334400D01*
X209613500Y-59334400D01*
X209560160Y-59336940D01*
X209511900Y-59347100D01*
X209468720Y-59364880D01*
X209430620Y-59395360D01*
X209389980Y-59436000D01*
X209346800Y-59489340D01*
X209329020Y-59512200D01*
X209245200Y-59641740D01*
X209171540Y-59778900D01*
X209108040Y-59916060D01*
X209059780Y-60055760D01*
X209042000Y-60111640D01*
X209031840Y-60149740D01*
X209024220Y-60180220D01*
X209016600Y-60203080D01*
X209014060Y-60210700D01*
X208958180Y-60253880D01*
X208894680Y-60307220D01*
X208831180Y-60365640D01*
X208770220Y-60429140D01*
X208732120Y-60472320D01*
X208688940Y-60523120D01*
X208655920Y-60452000D01*
X208638140Y-60416440D01*
X208620360Y-60383420D01*
X208605120Y-60358020D01*
X208600040Y-60350400D01*
X208579720Y-60322460D01*
X208597500Y-60246260D01*
X208620360Y-60149740D01*
X208635600Y-60045600D01*
X208643220Y-59938920D01*
X208643220Y-59834780D01*
X208638140Y-59733180D01*
X208627980Y-59639200D01*
X208610200Y-59557920D01*
X208605120Y-59542680D01*
X208577180Y-59479180D01*
X208541620Y-59425840D01*
X208500980Y-59390280D01*
X208460340Y-59362340D01*
X208419700Y-59347100D01*
X208376520Y-59336940D01*
X208323180Y-59334400D01*
X208310480Y-59334400D01*
X208259680Y-59336940D01*
X208216500Y-59344560D01*
X208175860Y-59362340D01*
X208137760Y-59387740D01*
X208099660Y-59423300D01*
X208059020Y-59469020D01*
X208015840Y-59529980D01*
X207990440Y-59565540D01*
X207924400Y-59672220D01*
X207865980Y-59786520D01*
X207812640Y-59903360D01*
X207769460Y-60017660D01*
X207736440Y-60126880D01*
X207733900Y-60139580D01*
X207718660Y-60205620D01*
X207662780Y-60248800D01*
X207573880Y-60319920D01*
X207490060Y-60406280D01*
X207408780Y-60502800D01*
X207335120Y-60604400D01*
X207271620Y-60708540D01*
X207264000Y-60726320D01*
X207223360Y-60802520D01*
X207208120Y-60774580D01*
X207175100Y-60723780D01*
X207126840Y-60680600D01*
X207070960Y-60645040D01*
X207010000Y-60622180D01*
X206974440Y-60614560D01*
X206918560Y-60614560D01*
X206865220Y-60624720D01*
X206816960Y-60645040D01*
X206766160Y-60675520D01*
X206715360Y-60721240D01*
X206662020Y-60782200D01*
X206603600Y-60855860D01*
X206570580Y-60904120D01*
X206486760Y-61036200D01*
X206415640Y-61170820D01*
X206359760Y-61305440D01*
X206319120Y-61429900D01*
X206288640Y-61531500D01*
X206245460Y-61556900D01*
X206214980Y-61577220D01*
X206179420Y-61607700D01*
X206138780Y-61645800D01*
X206098140Y-61686440D01*
X206057500Y-61727080D01*
X206024480Y-61767720D01*
X206001620Y-61795660D01*
X205938120Y-61907420D01*
X205887320Y-62029340D01*
X205849220Y-62153800D01*
X205846680Y-62171580D01*
X205839060Y-62219840D01*
X205833980Y-62280800D01*
X205831440Y-62346840D01*
X205833980Y-62417960D01*
X205836520Y-62484000D01*
X205841600Y-62544960D01*
X205849220Y-62595760D01*
X205849220Y-62603380D01*
X205882240Y-62720220D01*
X205930500Y-62829440D01*
X205988920Y-62931040D01*
X206057500Y-63022480D01*
X206138780Y-63101220D01*
X206217520Y-63159640D01*
X206263240Y-63187580D01*
X206319120Y-63215520D01*
X206375000Y-63238380D01*
X206425800Y-63256160D01*
X206435960Y-63258700D01*
X206458820Y-63263780D01*
X206410560Y-63322200D01*
X206334360Y-63416180D01*
X206270860Y-63512700D01*
X206220060Y-63611760D01*
X206179420Y-63715900D01*
X206156560Y-63794640D01*
X206143860Y-63865760D01*
X206136240Y-63944500D01*
X206133700Y-64023240D01*
X206138780Y-64099440D01*
X206151480Y-64165480D01*
X206154020Y-64170560D01*
X206187040Y-64267080D01*
X206235300Y-64353440D01*
X206296260Y-64432180D01*
X206367380Y-64498220D01*
X206448660Y-64551560D01*
X206540100Y-64592200D01*
X206585820Y-64607440D01*
X206621380Y-64617600D01*
X206649320Y-64625220D01*
X206669640Y-64627760D01*
X206667100Y-64630300D01*
X206646780Y-64630300D01*
X206613760Y-64630300D01*
X206568040Y-64630300D01*
X206512160Y-64632840D01*
X206446120Y-64632840D01*
X206369920Y-64632840D01*
X206288640Y-64632840D01*
X206258160Y-64632840D01*
X205823820Y-64635380D01*
X205823820Y-61981080D01*
X205823820Y-59326780D01*
X208280000Y-59326780D01*
X210736180Y-59326780D01*
G37*
X210736180Y-59326780D02*
X210733640Y-60632340D01*
X210733640Y-60807600D01*
X210733640Y-60967620D01*
X210733640Y-61112400D01*
X210733640Y-61239400D01*
X210733640Y-61356240D01*
X210733640Y-61457840D01*
X210733640Y-61546740D01*
X210733640Y-61622940D01*
X210731100Y-61688980D01*
X210731100Y-61744860D01*
X210731100Y-61790580D01*
X210731100Y-61826140D01*
X210728560Y-61854080D01*
X210728560Y-61871860D01*
X210726020Y-61884560D01*
X210726020Y-61892180D01*
X210723480Y-61892180D01*
X210723480Y-61887100D01*
X210705700Y-61826140D01*
X210682840Y-61765180D01*
X210657440Y-61711840D01*
X210632040Y-61668660D01*
X210616800Y-61650880D01*
X210609180Y-61640720D01*
X210606640Y-61630560D01*
X210606640Y-61617860D01*
X210609180Y-61595000D01*
X210616800Y-61561980D01*
X210634580Y-61455300D01*
X210647280Y-61346080D01*
X210649820Y-61231780D01*
X210647280Y-61120020D01*
X210637120Y-61013340D01*
X210616800Y-60919360D01*
X210616800Y-60914280D01*
X210588860Y-60827920D01*
X210550760Y-60756800D01*
X210505040Y-60698380D01*
X210451700Y-60655200D01*
X210423760Y-60639960D01*
X210395820Y-60627260D01*
X210367880Y-60619640D01*
X210337400Y-60617100D01*
X210304380Y-60617100D01*
X210266280Y-60617100D01*
X210235800Y-60619640D01*
X210212940Y-60627260D01*
X210182460Y-60639960D01*
X210174840Y-60645040D01*
X210116420Y-60683140D01*
X210080860Y-60716160D01*
X210042760Y-60759340D01*
X210032600Y-60695840D01*
X210007200Y-60584080D01*
X209969100Y-60474860D01*
X209918300Y-60378340D01*
X209915760Y-60370720D01*
X209880200Y-60317380D01*
X209897980Y-60258960D01*
X209913220Y-60198000D01*
X209925920Y-60144660D01*
X209933540Y-60091320D01*
X209938620Y-60037980D01*
X209941160Y-59977020D01*
X209943700Y-59905900D01*
X209943700Y-59875420D01*
X209941160Y-59776360D01*
X209936080Y-59692540D01*
X209928460Y-59621420D01*
X209913220Y-59560460D01*
X209895440Y-59509660D01*
X209870040Y-59466480D01*
X209842100Y-59428380D01*
X209819240Y-59408060D01*
X209781140Y-59375040D01*
X209743040Y-59354720D01*
X209702400Y-59342020D01*
X209651600Y-59334400D01*
X209613500Y-59334400D01*
X209560160Y-59336940D01*
X209511900Y-59347100D01*
X209468720Y-59364880D01*
X209430620Y-59395360D01*
X209389980Y-59436000D01*
X209346800Y-59489340D01*
X209329020Y-59512200D01*
X209245200Y-59641740D01*
X209171540Y-59778900D01*
X209108040Y-59916060D01*
X209059780Y-60055760D01*
X209042000Y-60111640D01*
X209031840Y-60149740D01*
X209024220Y-60180220D01*
X209016600Y-60203080D01*
X209014060Y-60210700D01*
X208958180Y-60253880D01*
X208894680Y-60307220D01*
X208831180Y-60365640D01*
X208770220Y-60429140D01*
X208732120Y-60472320D01*
X208688940Y-60523120D01*
X208655920Y-60452000D01*
X208638140Y-60416440D01*
X208620360Y-60383420D01*
X208605120Y-60358020D01*
X208600040Y-60350400D01*
X208579720Y-60322460D01*
X208597500Y-60246260D01*
X208620360Y-60149740D01*
X208635600Y-60045600D01*
X208643220Y-59938920D01*
X208643220Y-59834780D01*
X208638140Y-59733180D01*
X208627980Y-59639200D01*
X208610200Y-59557920D01*
X208605120Y-59542680D01*
X208577180Y-59479180D01*
X208541620Y-59425840D01*
X208500980Y-59390280D01*
X208460340Y-59362340D01*
X208419700Y-59347100D01*
X208376520Y-59336940D01*
X208323180Y-59334400D01*
X208310480Y-59334400D01*
X208259680Y-59336940D01*
X208216500Y-59344560D01*
X208175860Y-59362340D01*
X208137760Y-59387740D01*
X208099660Y-59423300D01*
X208059020Y-59469020D01*
X208015840Y-59529980D01*
X207990440Y-59565540D01*
X207924400Y-59672220D01*
X207865980Y-59786520D01*
X207812640Y-59903360D01*
X207769460Y-60017660D01*
X207736440Y-60126880D01*
X207733900Y-60139580D01*
X207718660Y-60205620D01*
X207662780Y-60248800D01*
X207573880Y-60319920D01*
X207490060Y-60406280D01*
X207408780Y-60502800D01*
X207335120Y-60604400D01*
X207271620Y-60708540D01*
X207264000Y-60726320D01*
X207223360Y-60802520D01*
X207208120Y-60774580D01*
X207175100Y-60723780D01*
X207126840Y-60680600D01*
X207070960Y-60645040D01*
X207010000Y-60622180D01*
X206974440Y-60614560D01*
X206918560Y-60614560D01*
X206865220Y-60624720D01*
X206816960Y-60645040D01*
X206766160Y-60675520D01*
X206715360Y-60721240D01*
X206662020Y-60782200D01*
X206603600Y-60855860D01*
X206570580Y-60904120D01*
X206486760Y-61036200D01*
X206415640Y-61170820D01*
X206359760Y-61305440D01*
X206319120Y-61429900D01*
X206288640Y-61531500D01*
X206245460Y-61556900D01*
X206214980Y-61577220D01*
X206179420Y-61607700D01*
X206138780Y-61645800D01*
X206098140Y-61686440D01*
X206057500Y-61727080D01*
X206024480Y-61767720D01*
X206001620Y-61795660D01*
X205938120Y-61907420D01*
X205887320Y-62029340D01*
X205849220Y-62153800D01*
X205846680Y-62171580D01*
X205839060Y-62219840D01*
X205833980Y-62280800D01*
X205831440Y-62346840D01*
X205833980Y-62417960D01*
X205836520Y-62484000D01*
X205841600Y-62544960D01*
X205849220Y-62595760D01*
X205849220Y-62603380D01*
X205882240Y-62720220D01*
X205930500Y-62829440D01*
X205988920Y-62931040D01*
X206057500Y-63022480D01*
X206138780Y-63101220D01*
X206217520Y-63159640D01*
X206263240Y-63187580D01*
X206319120Y-63215520D01*
X206375000Y-63238380D01*
X206425800Y-63256160D01*
X206435960Y-63258700D01*
X206458820Y-63263780D01*
X206410560Y-63322200D01*
X206334360Y-63416180D01*
X206270860Y-63512700D01*
X206220060Y-63611760D01*
X206179420Y-63715900D01*
X206156560Y-63794640D01*
X206143860Y-63865760D01*
X206136240Y-63944500D01*
X206133700Y-64023240D01*
X206138780Y-64099440D01*
X206151480Y-64165480D01*
X206154020Y-64170560D01*
X206187040Y-64267080D01*
X206235300Y-64353440D01*
X206296260Y-64432180D01*
X206367380Y-64498220D01*
X206448660Y-64551560D01*
X206540100Y-64592200D01*
X206585820Y-64607440D01*
X206621380Y-64617600D01*
X206649320Y-64625220D01*
X206669640Y-64627760D01*
X206667100Y-64630300D01*
X206646780Y-64630300D01*
X206613760Y-64630300D01*
X206568040Y-64630300D01*
X206512160Y-64632840D01*
X206446120Y-64632840D01*
X206369920Y-64632840D01*
X206288640Y-64632840D01*
X206258160Y-64632840D01*
X205823820Y-64635380D01*
X205823820Y-61981080D01*
X205823820Y-59326780D01*
X208280000Y-59326780D01*
X210736180Y-59326780D01*
%TD*%
D11*
%TO.P,U6,32*%
%TO.N,N/C*%
X173573800Y-96408800D03*
%TO.P,U6,24*%
%TO.N,/PI_SPI_CEO*%
X173573800Y-86248800D03*
%TO.P,U6,19*%
%TO.N,/PI_SPI_MOSI*%
X175935800Y-81168800D03*
%TO.P,U6,39*%
%TO.N,/ISO_RTN*%
X175935800Y-106568800D03*
%TO.P,U6,37*%
%TO.N,N/C*%
X175935800Y-104028800D03*
%TO.P,U6,28*%
X173573800Y-91328800D03*
%TO.P,U6,30*%
%TO.N,/ISO_RTN*%
X173573800Y-93868800D03*
%TO.P,U6,23*%
%TO.N,/PI_SPI_SCLK*%
X175935800Y-86248800D03*
%TO.P,U6,22*%
%TO.N,/GPIO25*%
X173573800Y-83708800D03*
%TO.P,U6,21*%
%TO.N,/PI_SPI_MISO*%
X175935800Y-83708800D03*
%TO.P,U6,20*%
%TO.N,/ISO_RTN*%
X173573800Y-81168800D03*
%TO.P,U6,40*%
%TO.N,N/C*%
X173573800Y-106568800D03*
%TO.P,U6,29*%
X175935800Y-93868800D03*
%TO.P,U6,35*%
X175935800Y-101488800D03*
%TO.P,U6,18*%
X173573800Y-78628800D03*
%TO.P,U6,27*%
X175935800Y-91328800D03*
%TO.P,U6,38*%
X173573800Y-104028800D03*
%TO.P,U6,34*%
%TO.N,/ISO_RTN*%
X173573800Y-98948800D03*
%TO.P,U6,33*%
%TO.N,N/C*%
X175935800Y-98948800D03*
%TO.P,U6,26*%
X173573800Y-88788800D03*
%TO.P,U6,31*%
%TO.N,/SR_CTRL*%
X175935800Y-96408800D03*
%TO.P,U6,36*%
%TO.N,N/C*%
X173573800Y-101488800D03*
%TO.P,U6,25*%
%TO.N,/ISO_RTN*%
X175935800Y-88788800D03*
%TO.P,U6,11*%
%TO.N,N/C*%
X175935800Y-71008800D03*
D12*
%TO.P,U6,44*%
X223795800Y-53320800D03*
D11*
%TO.P,U6,2*%
%TO.N,/5V_ISO*%
X173573800Y-58308800D03*
%TO.P,U6,4*%
X173573800Y-60848800D03*
%TO.P,U6,1*%
%TO.N,N/C*%
X175935800Y-58308800D03*
%TO.P,U6,13*%
X175935800Y-73548800D03*
%TO.P,U6,9*%
%TO.N,/ISO_RTN*%
X175935800Y-68468800D03*
%TO.P,U6,14*%
X173573800Y-73548800D03*
D12*
%TO.P,U6,43*%
%TO.N,N/C*%
X223795800Y-111320800D03*
D11*
%TO.P,U6,17*%
X175935800Y-78628800D03*
D12*
%TO.P,U6,41*%
X174795800Y-111320800D03*
D11*
%TO.P,U6,6*%
%TO.N,/ISO_RTN*%
X173573800Y-63388800D03*
%TO.P,U6,7*%
%TO.N,N/C*%
X175935800Y-65928800D03*
%TO.P,U6,10*%
X173573800Y-68468800D03*
%TO.P,U6,8*%
X173573800Y-65928800D03*
D12*
%TO.P,U6,42*%
X174795800Y-53320800D03*
D11*
%TO.P,U6,12*%
X173573800Y-71008800D03*
%TO.P,U6,3*%
%TO.N,/SDA_ISO_PI*%
X175935800Y-60848800D03*
%TO.P,U6,5*%
%TO.N,/SCL_ISO_PI*%
X175935800Y-63388800D03*
%TO.P,U6,15*%
%TO.N,N/C*%
X175935800Y-76088800D03*
%TO.P,U6,16*%
X173573800Y-76088800D03*
%TD*%
D13*
%TO.P,U4,1*%
%TO.N,/GLV_RTN*%
X197104000Y-58166000D03*
D14*
%TO.P,U4,2*%
%TO.N,/24V*%
X202184000Y-58166000D03*
%TO.P,U4,3*%
%TO.N,/5V_ISO*%
X209804000Y-78486000D03*
%TO.P,U4,5*%
%TO.N,/ISO_RTN*%
X189484000Y-78486000D03*
%TO.P,U4,6*%
%TO.N,N/C*%
X189484000Y-58166000D03*
%TO.P,U4,4*%
X199644000Y-78486000D03*
%TD*%
D15*
%TO.P,U3,1*%
%TO.N,N/C*%
X217252000Y-109160000D03*
%TO.P,U3,2*%
X217252000Y-108660000D03*
%TO.P,U3,3*%
%TO.N,/Cooling_CTRL*%
X217252000Y-108160000D03*
%TO.P,U3,4*%
%TO.N,N/C*%
X217252000Y-107660000D03*
%TO.P,U3,5*%
%TO.N,/SCL_ISO_PI*%
X217252000Y-107160000D03*
%TO.P,U3,6*%
%TO.N,/SDA_ISO_PI*%
X217252000Y-106660000D03*
%TO.P,U3,7*%
%TO.N,/ISO_RTN*%
X217252000Y-106160000D03*
%TO.P,U3,8*%
%TO.N,/3.3V_ISO*%
X217252000Y-105660000D03*
%TO.P,U3,9*%
%TO.N,/~MCLR~*%
X217252000Y-105160000D03*
%TO.P,U3,10*%
%TO.N,N/C*%
X217252000Y-104660000D03*
%TO.P,U3,11*%
X217252000Y-104160000D03*
%TO.P,U3,12*%
X217252000Y-103660000D03*
%TO.P,U3,13*%
X217252000Y-103160000D03*
%TO.P,U3,14*%
X217252000Y-102660000D03*
%TO.P,U3,15*%
%TO.N,/PGEC*%
X217252000Y-102160000D03*
%TO.P,U3,16*%
%TO.N,/PGED*%
X217252000Y-101660000D03*
D16*
%TO.P,U3,17*%
%TO.N,N/C*%
X215332000Y-99740000D03*
%TO.P,U3,18*%
%TO.N,/FlowRate*%
X214832000Y-99740000D03*
%TO.P,U3,19*%
%TO.N,/3.3V_ISO*%
X214332000Y-99740000D03*
%TO.P,U3,20*%
%TO.N,/ISO_RTN*%
X213832000Y-99740000D03*
%TO.P,U3,21*%
%TO.N,N/C*%
X213332000Y-99740000D03*
%TO.P,U3,22*%
X212832000Y-99740000D03*
%TO.P,U3,23*%
X212332000Y-99740000D03*
%TO.P,U3,24*%
X211832000Y-99740000D03*
%TO.P,U3,25*%
%TO.N,/ISO_RTN*%
X211332000Y-99740000D03*
%TO.P,U3,26*%
%TO.N,/3.3V_ISO*%
X210832000Y-99740000D03*
%TO.P,U3,27*%
%TO.N,N/C*%
X210332000Y-99740000D03*
%TO.P,U3,28*%
X209832000Y-99740000D03*
%TO.P,U3,29*%
%TO.N,/V_OUT_TEMP*%
X209332000Y-99740000D03*
%TO.P,U3,30*%
%TO.N,N/C*%
X208832000Y-99740000D03*
%TO.P,U3,31*%
X208332000Y-99740000D03*
%TO.P,U3,32*%
X207832000Y-99740000D03*
D15*
%TO.P,U3,33*%
X205912000Y-101660000D03*
%TO.P,U3,34*%
%TO.N,/ISO_RTN*%
X205912000Y-102160000D03*
%TO.P,U3,35*%
X205912000Y-102660000D03*
%TO.P,U3,36*%
%TO.N,N/C*%
X205912000Y-103160000D03*
%TO.P,U3,37*%
X205912000Y-103660000D03*
%TO.P,U3,38*%
X205912000Y-104160000D03*
%TO.P,U3,39*%
%TO.N,/3.3V_ISO*%
X205912000Y-104660000D03*
%TO.P,U3,40*%
%TO.N,/ISO_RTN*%
X205912000Y-105160000D03*
%TO.P,U3,41*%
%TO.N,/PIC_TXD*%
X205912000Y-105660000D03*
%TO.P,U3,42*%
%TO.N,/PIC_RXD*%
X205912000Y-106160000D03*
%TO.P,U3,43*%
%TO.N,N/C*%
X205912000Y-106660000D03*
%TO.P,U3,44*%
X205912000Y-107160000D03*
%TO.P,U3,45*%
X205912000Y-107660000D03*
%TO.P,U3,46*%
%TO.N,/STATE_OUT_1*%
X205912000Y-108160000D03*
%TO.P,U3,47*%
%TO.N,N/C*%
X205912000Y-108660000D03*
%TO.P,U3,48*%
X205912000Y-109160000D03*
D16*
%TO.P,U3,49*%
%TO.N,/STATE_OUT_2*%
X207832000Y-111080000D03*
%TO.P,U3,50*%
%TO.N,/STATE_OUT_3*%
X208332000Y-111080000D03*
%TO.P,U3,51*%
%TO.N,N/C*%
X208832000Y-111080000D03*
%TO.P,U3,52*%
X209332000Y-111080000D03*
%TO.P,U3,53*%
X209832000Y-111080000D03*
%TO.P,U3,54*%
%TO.N,/3.3V_ISO*%
X210332000Y-111080000D03*
%TO.P,U3,55*%
%TO.N,/ISO_RTN*%
X210832000Y-111080000D03*
%TO.P,U3,56*%
%TO.N,N/C*%
X211332000Y-111080000D03*
%TO.P,U3,57*%
X211832000Y-111080000D03*
%TO.P,U3,58*%
X212332000Y-111080000D03*
%TO.P,U3,59*%
%TO.N,/ISO_RTN*%
X212832000Y-111080000D03*
%TO.P,U3,60*%
%TO.N,/3.3V_ISO*%
X213332000Y-111080000D03*
%TO.P,U3,61*%
%TO.N,N/C*%
X213832000Y-111080000D03*
%TO.P,U3,62*%
X214332000Y-111080000D03*
%TO.P,U3,63*%
X214832000Y-111080000D03*
%TO.P,U3,64*%
X215332000Y-111080000D03*
%TD*%
D17*
%TO.P,U7,1*%
%TO.N,/3.3V_ISO*%
X192093850Y-68326000D03*
%TO.P,U7,2*%
X192093850Y-69596000D03*
%TO.P,U7,3*%
%TO.N,/ISO_RTN*%
X192093850Y-70866000D03*
%TO.P,U7,4*%
%TO.N,Net-(C13-Pad2)*%
X192093850Y-72136000D03*
%TO.P,U7,5*%
%TO.N,/5V_ISO*%
X197542150Y-72136000D03*
%TO.P,U7,6*%
%TO.N,/ISO_RTN*%
X197542150Y-70866000D03*
%TO.P,U7,7*%
X197542150Y-69596000D03*
%TO.P,U7,8*%
%TO.N,/5V_ISO*%
X197542150Y-68326000D03*
%TD*%
%TO.P,C2,2*%
%TO.N,Net-(C2-Pad2)*%
%TA.AperFunction,SMDPad,CuDef*%
G36*
G01*
X220377599Y-97071600D02*
X221277601Y-97071600D01*
G75*
G02*
X221527600Y-97321599I0J-249999D01*
G01*
X221527600Y-97971601D01*
G75*
G02*
X221277601Y-98221600I-249999J0D01*
G01*
X220377599Y-98221600D01*
G75*
G02*
X220127600Y-97971601I0J249999D01*
G01*
X220127600Y-97321599D01*
G75*
G02*
X220377599Y-97071600I249999J0D01*
G01*
G37*
%TD.AperFunction*%
%TO.P,C2,1*%
%TO.N,/ISO_RTN*%
%TA.AperFunction,SMDPad,CuDef*%
G36*
G01*
X220377599Y-95021600D02*
X221277601Y-95021600D01*
G75*
G02*
X221527600Y-95271599I0J-249999D01*
G01*
X221527600Y-95921601D01*
G75*
G02*
X221277601Y-96171600I-249999J0D01*
G01*
X220377599Y-96171600D01*
G75*
G02*
X220127600Y-95921601I0J249999D01*
G01*
X220127600Y-95271599D01*
G75*
G02*
X220377599Y-95021600I249999J0D01*
G01*
G37*
%TD.AperFunction*%
%TD*%
%TO.P,C3,2*%
%TO.N,/GLV_RTN*%
%TA.AperFunction,SMDPad,CuDef*%
G36*
G01*
X199194000Y-60763999D02*
X199194000Y-61664001D01*
G75*
G02*
X198944001Y-61914000I-249999J0D01*
G01*
X198293999Y-61914000D01*
G75*
G02*
X198044000Y-61664001I0J249999D01*
G01*
X198044000Y-60763999D01*
G75*
G02*
X198293999Y-60514000I249999J0D01*
G01*
X198944001Y-60514000D01*
G75*
G02*
X199194000Y-60763999I0J-249999D01*
G01*
G37*
%TD.AperFunction*%
%TO.P,C3,1*%
%TO.N,/24V*%
%TA.AperFunction,SMDPad,CuDef*%
G36*
G01*
X201244000Y-60763999D02*
X201244000Y-61664001D01*
G75*
G02*
X200994001Y-61914000I-249999J0D01*
G01*
X200343999Y-61914000D01*
G75*
G02*
X200094000Y-61664001I0J249999D01*
G01*
X200094000Y-60763999D01*
G75*
G02*
X200343999Y-60514000I249999J0D01*
G01*
X200994001Y-60514000D01*
G75*
G02*
X201244000Y-60763999I0J-249999D01*
G01*
G37*
%TD.AperFunction*%
%TD*%
%TO.P,C5,2*%
%TO.N,/ISO_RTN*%
%TA.AperFunction,SMDPad,CuDef*%
G36*
G01*
X199600399Y-70046000D02*
X200500401Y-70046000D01*
G75*
G02*
X200750400Y-70295999I0J-249999D01*
G01*
X200750400Y-70946001D01*
G75*
G02*
X200500401Y-71196000I-249999J0D01*
G01*
X199600399Y-71196000D01*
G75*
G02*
X199350400Y-70946001I0J249999D01*
G01*
X199350400Y-70295999D01*
G75*
G02*
X199600399Y-70046000I249999J0D01*
G01*
G37*
%TD.AperFunction*%
%TO.P,C5,1*%
%TO.N,/5V_ISO*%
%TA.AperFunction,SMDPad,CuDef*%
G36*
G01*
X199600399Y-67996000D02*
X200500401Y-67996000D01*
G75*
G02*
X200750400Y-68245999I0J-249999D01*
G01*
X200750400Y-68896001D01*
G75*
G02*
X200500401Y-69146000I-249999J0D01*
G01*
X199600399Y-69146000D01*
G75*
G02*
X199350400Y-68896001I0J249999D01*
G01*
X199350400Y-68245999D01*
G75*
G02*
X199600399Y-67996000I249999J0D01*
G01*
G37*
%TD.AperFunction*%
%TD*%
%TO.P,C6,2*%
%TO.N,/3.3V_ISO*%
%TA.AperFunction,SMDPad,CuDef*%
G36*
G01*
X210420800Y-112986399D02*
X210420800Y-113886401D01*
G75*
G02*
X210170801Y-114136400I-249999J0D01*
G01*
X209520799Y-114136400D01*
G75*
G02*
X209270800Y-113886401I0J249999D01*
G01*
X209270800Y-112986399D01*
G75*
G02*
X209520799Y-112736400I249999J0D01*
G01*
X210170801Y-112736400D01*
G75*
G02*
X210420800Y-112986399I0J-249999D01*
G01*
G37*
%TD.AperFunction*%
%TO.P,C6,1*%
%TO.N,/ISO_RTN*%
%TA.AperFunction,SMDPad,CuDef*%
G36*
G01*
X212470800Y-112986399D02*
X212470800Y-113886401D01*
G75*
G02*
X212220801Y-114136400I-249999J0D01*
G01*
X211570799Y-114136400D01*
G75*
G02*
X211320800Y-113886401I0J249999D01*
G01*
X211320800Y-112986399D01*
G75*
G02*
X211570799Y-112736400I249999J0D01*
G01*
X212220801Y-112736400D01*
G75*
G02*
X212470800Y-112986399I0J-249999D01*
G01*
G37*
%TD.AperFunction*%
%TD*%
%TO.P,C7,2*%
%TO.N,/3.3V_ISO*%
%TA.AperFunction,SMDPad,CuDef*%
G36*
G01*
X215918200Y-113861001D02*
X215918200Y-112960999D01*
G75*
G02*
X216168199Y-112711000I249999J0D01*
G01*
X216818201Y-112711000D01*
G75*
G02*
X217068200Y-112960999I0J-249999D01*
G01*
X217068200Y-113861001D01*
G75*
G02*
X216818201Y-114111000I-249999J0D01*
G01*
X216168199Y-114111000D01*
G75*
G02*
X215918200Y-113861001I0J249999D01*
G01*
G37*
%TD.AperFunction*%
%TO.P,C7,1*%
%TO.N,/ISO_RTN*%
%TA.AperFunction,SMDPad,CuDef*%
G36*
G01*
X213868200Y-113861001D02*
X213868200Y-112960999D01*
G75*
G02*
X214118199Y-112711000I249999J0D01*
G01*
X214768201Y-112711000D01*
G75*
G02*
X215018200Y-112960999I0J-249999D01*
G01*
X215018200Y-113861001D01*
G75*
G02*
X214768201Y-114111000I-249999J0D01*
G01*
X214118199Y-114111000D01*
G75*
G02*
X213868200Y-113861001I0J249999D01*
G01*
G37*
%TD.AperFunction*%
%TD*%
%TO.P,C8,2*%
%TO.N,/3.3V_ISO*%
%TA.AperFunction,SMDPad,CuDef*%
G36*
G01*
X210369999Y-96462000D02*
X211270001Y-96462000D01*
G75*
G02*
X211520000Y-96711999I0J-249999D01*
G01*
X211520000Y-97362001D01*
G75*
G02*
X211270001Y-97612000I-249999J0D01*
G01*
X210369999Y-97612000D01*
G75*
G02*
X210120000Y-97362001I0J249999D01*
G01*
X210120000Y-96711999D01*
G75*
G02*
X210369999Y-96462000I249999J0D01*
G01*
G37*
%TD.AperFunction*%
%TO.P,C8,1*%
%TO.N,/ISO_RTN*%
%TA.AperFunction,SMDPad,CuDef*%
G36*
G01*
X210369999Y-94412000D02*
X211270001Y-94412000D01*
G75*
G02*
X211520000Y-94661999I0J-249999D01*
G01*
X211520000Y-95312001D01*
G75*
G02*
X211270001Y-95562000I-249999J0D01*
G01*
X210369999Y-95562000D01*
G75*
G02*
X210120000Y-95312001I0J249999D01*
G01*
X210120000Y-94661999D01*
G75*
G02*
X210369999Y-94412000I249999J0D01*
G01*
G37*
%TD.AperFunction*%
%TD*%
%TO.P,C9,2*%
%TO.N,/3.3V_ISO*%
%TA.AperFunction,SMDPad,CuDef*%
G36*
G01*
X202888001Y-102674000D02*
X201987999Y-102674000D01*
G75*
G02*
X201738000Y-102424001I0J249999D01*
G01*
X201738000Y-101773999D01*
G75*
G02*
X201987999Y-101524000I249999J0D01*
G01*
X202888001Y-101524000D01*
G75*
G02*
X203138000Y-101773999I0J-249999D01*
G01*
X203138000Y-102424001D01*
G75*
G02*
X202888001Y-102674000I-249999J0D01*
G01*
G37*
%TD.AperFunction*%
%TO.P,C9,1*%
%TO.N,/ISO_RTN*%
%TA.AperFunction,SMDPad,CuDef*%
G36*
G01*
X202888001Y-104724000D02*
X201987999Y-104724000D01*
G75*
G02*
X201738000Y-104474001I0J249999D01*
G01*
X201738000Y-103823999D01*
G75*
G02*
X201987999Y-103574000I249999J0D01*
G01*
X202888001Y-103574000D01*
G75*
G02*
X203138000Y-103823999I0J-249999D01*
G01*
X203138000Y-104474001D01*
G75*
G02*
X202888001Y-104724000I-249999J0D01*
G01*
G37*
%TD.AperFunction*%
%TD*%
%TO.P,C10,1*%
%TO.N,/3.3V_ISO*%
%TA.AperFunction,SMDPad,CuDef*%
G36*
G01*
X215334001Y-97612000D02*
X214433999Y-97612000D01*
G75*
G02*
X214184000Y-97362001I0J249999D01*
G01*
X214184000Y-96711999D01*
G75*
G02*
X214433999Y-96462000I249999J0D01*
G01*
X215334001Y-96462000D01*
G75*
G02*
X215584000Y-96711999I0J-249999D01*
G01*
X215584000Y-97362001D01*
G75*
G02*
X215334001Y-97612000I-249999J0D01*
G01*
G37*
%TD.AperFunction*%
%TO.P,C10,2*%
%TO.N,/ISO_RTN*%
%TA.AperFunction,SMDPad,CuDef*%
G36*
G01*
X215334001Y-95562000D02*
X214433999Y-95562000D01*
G75*
G02*
X214184000Y-95312001I0J249999D01*
G01*
X214184000Y-94661999D01*
G75*
G02*
X214433999Y-94412000I249999J0D01*
G01*
X215334001Y-94412000D01*
G75*
G02*
X215584000Y-94661999I0J-249999D01*
G01*
X215584000Y-95312001D01*
G75*
G02*
X215334001Y-95562000I-249999J0D01*
G01*
G37*
%TD.AperFunction*%
%TD*%
%TO.P,C11,1*%
%TO.N,/5V_ISO*%
%TA.AperFunction,SMDPad,CuDef*%
G36*
G01*
X205003600Y-113886401D02*
X205003600Y-112986399D01*
G75*
G02*
X205253599Y-112736400I249999J0D01*
G01*
X205903601Y-112736400D01*
G75*
G02*
X206153600Y-112986399I0J-249999D01*
G01*
X206153600Y-113886401D01*
G75*
G02*
X205903601Y-114136400I-249999J0D01*
G01*
X205253599Y-114136400D01*
G75*
G02*
X205003600Y-113886401I0J249999D01*
G01*
G37*
%TD.AperFunction*%
%TO.P,C11,2*%
%TO.N,/ISO_RTN*%
%TA.AperFunction,SMDPad,CuDef*%
G36*
G01*
X207053600Y-113886401D02*
X207053600Y-112986399D01*
G75*
G02*
X207303599Y-112736400I249999J0D01*
G01*
X207953601Y-112736400D01*
G75*
G02*
X208203600Y-112986399I0J-249999D01*
G01*
X208203600Y-113886401D01*
G75*
G02*
X207953601Y-114136400I-249999J0D01*
G01*
X207303599Y-114136400D01*
G75*
G02*
X207053600Y-113886401I0J249999D01*
G01*
G37*
%TD.AperFunction*%
%TD*%
%TO.P,C12,1*%
%TO.N,/GLV_RTN*%
%TA.AperFunction,SMDPad,CuDef*%
G36*
G01*
X189541999Y-106858000D02*
X190442001Y-106858000D01*
G75*
G02*
X190692000Y-107107999I0J-249999D01*
G01*
X190692000Y-107758001D01*
G75*
G02*
X190442001Y-108008000I-249999J0D01*
G01*
X189541999Y-108008000D01*
G75*
G02*
X189292000Y-107758001I0J249999D01*
G01*
X189292000Y-107107999D01*
G75*
G02*
X189541999Y-106858000I249999J0D01*
G01*
G37*
%TD.AperFunction*%
%TO.P,C12,2*%
%TO.N,/5V_NON_ISO*%
%TA.AperFunction,SMDPad,CuDef*%
G36*
G01*
X189541999Y-108908000D02*
X190442001Y-108908000D01*
G75*
G02*
X190692000Y-109157999I0J-249999D01*
G01*
X190692000Y-109808001D01*
G75*
G02*
X190442001Y-110058000I-249999J0D01*
G01*
X189541999Y-110058000D01*
G75*
G02*
X189292000Y-109808001I0J249999D01*
G01*
X189292000Y-109157999D01*
G75*
G02*
X189541999Y-108908000I249999J0D01*
G01*
G37*
%TD.AperFunction*%
%TD*%
%TO.P,C13,1*%
%TO.N,/3.3V_ISO*%
%TA.AperFunction,SMDPad,CuDef*%
G36*
G01*
X189287999Y-68631000D02*
X190188001Y-68631000D01*
G75*
G02*
X190438000Y-68880999I0J-249999D01*
G01*
X190438000Y-69531001D01*
G75*
G02*
X190188001Y-69781000I-249999J0D01*
G01*
X189287999Y-69781000D01*
G75*
G02*
X189038000Y-69531001I0J249999D01*
G01*
X189038000Y-68880999D01*
G75*
G02*
X189287999Y-68631000I249999J0D01*
G01*
G37*
%TD.AperFunction*%
%TO.P,C13,2*%
%TO.N,Net-(C13-Pad2)*%
%TA.AperFunction,SMDPad,CuDef*%
G36*
G01*
X189287999Y-70681000D02*
X190188001Y-70681000D01*
G75*
G02*
X190438000Y-70930999I0J-249999D01*
G01*
X190438000Y-71581001D01*
G75*
G02*
X190188001Y-71831000I-249999J0D01*
G01*
X189287999Y-71831000D01*
G75*
G02*
X189038000Y-71581001I0J249999D01*
G01*
X189038000Y-70930999D01*
G75*
G02*
X189287999Y-70681000I249999J0D01*
G01*
G37*
%TD.AperFunction*%
%TD*%
%TO.P,C14,1*%
%TO.N,/ISO_RTN*%
%TA.AperFunction,SMDPad,CuDef*%
G36*
G01*
X185870001Y-102438000D02*
X184969999Y-102438000D01*
G75*
G02*
X184720000Y-102188001I0J249999D01*
G01*
X184720000Y-101537999D01*
G75*
G02*
X184969999Y-101288000I249999J0D01*
G01*
X185870001Y-101288000D01*
G75*
G02*
X186120000Y-101537999I0J-249999D01*
G01*
X186120000Y-102188001D01*
G75*
G02*
X185870001Y-102438000I-249999J0D01*
G01*
G37*
%TD.AperFunction*%
%TO.P,C14,2*%
%TO.N,/5V_ISO*%
%TA.AperFunction,SMDPad,CuDef*%
G36*
G01*
X185870001Y-100388000D02*
X184969999Y-100388000D01*
G75*
G02*
X184720000Y-100138001I0J249999D01*
G01*
X184720000Y-99487999D01*
G75*
G02*
X184969999Y-99238000I249999J0D01*
G01*
X185870001Y-99238000D01*
G75*
G02*
X186120000Y-99487999I0J-249999D01*
G01*
X186120000Y-100138001D01*
G75*
G02*
X185870001Y-100388000I-249999J0D01*
G01*
G37*
%TD.AperFunction*%
%TD*%
%TO.P,C15,1*%
%TO.N,/5V_ISO*%
%TA.AperFunction,SMDPad,CuDef*%
G36*
G01*
X187477200Y-92767999D02*
X187477200Y-93668001D01*
G75*
G02*
X187227201Y-93918000I-249999J0D01*
G01*
X186577199Y-93918000D01*
G75*
G02*
X186327200Y-93668001I0J249999D01*
G01*
X186327200Y-92767999D01*
G75*
G02*
X186577199Y-92518000I249999J0D01*
G01*
X187227201Y-92518000D01*
G75*
G02*
X187477200Y-92767999I0J-249999D01*
G01*
G37*
%TD.AperFunction*%
%TO.P,C15,2*%
%TO.N,/ISO_RTN*%
%TA.AperFunction,SMDPad,CuDef*%
G36*
G01*
X185427200Y-92767999D02*
X185427200Y-93668001D01*
G75*
G02*
X185177201Y-93918000I-249999J0D01*
G01*
X184527199Y-93918000D01*
G75*
G02*
X184277200Y-93668001I0J249999D01*
G01*
X184277200Y-92767999D01*
G75*
G02*
X184527199Y-92518000I249999J0D01*
G01*
X185177201Y-92518000D01*
G75*
G02*
X185427200Y-92767999I0J-249999D01*
G01*
G37*
%TD.AperFunction*%
%TD*%
%TO.P,C16,2*%
%TO.N,Net-(C16-Pad2)*%
%TA.AperFunction,SMDPad,CuDef*%
G36*
G01*
X202495999Y-90620000D02*
X203396001Y-90620000D01*
G75*
G02*
X203646000Y-90869999I0J-249999D01*
G01*
X203646000Y-91520001D01*
G75*
G02*
X203396001Y-91770000I-249999J0D01*
G01*
X202495999Y-91770000D01*
G75*
G02*
X202246000Y-91520001I0J249999D01*
G01*
X202246000Y-90869999D01*
G75*
G02*
X202495999Y-90620000I249999J0D01*
G01*
G37*
%TD.AperFunction*%
%TO.P,C16,1*%
%TO.N,/ISO_RTN*%
%TA.AperFunction,SMDPad,CuDef*%
G36*
G01*
X202495999Y-88570000D02*
X203396001Y-88570000D01*
G75*
G02*
X203646000Y-88819999I0J-249999D01*
G01*
X203646000Y-89470001D01*
G75*
G02*
X203396001Y-89720000I-249999J0D01*
G01*
X202495999Y-89720000D01*
G75*
G02*
X202246000Y-89470001I0J249999D01*
G01*
X202246000Y-88819999D01*
G75*
G02*
X202495999Y-88570000I249999J0D01*
G01*
G37*
%TD.AperFunction*%
%TD*%
%TO.P,C17,1*%
%TO.N,/ISO_RTN*%
%TA.AperFunction,SMDPad,CuDef*%
G36*
G01*
X202495999Y-80188000D02*
X203396001Y-80188000D01*
G75*
G02*
X203646000Y-80437999I0J-249999D01*
G01*
X203646000Y-81088001D01*
G75*
G02*
X203396001Y-81338000I-249999J0D01*
G01*
X202495999Y-81338000D01*
G75*
G02*
X202246000Y-81088001I0J249999D01*
G01*
X202246000Y-80437999D01*
G75*
G02*
X202495999Y-80188000I249999J0D01*
G01*
G37*
%TD.AperFunction*%
%TO.P,C17,2*%
%TO.N,Net-(C17-Pad2)*%
%TA.AperFunction,SMDPad,CuDef*%
G36*
G01*
X202495999Y-82238000D02*
X203396001Y-82238000D01*
G75*
G02*
X203646000Y-82487999I0J-249999D01*
G01*
X203646000Y-83138001D01*
G75*
G02*
X203396001Y-83388000I-249999J0D01*
G01*
X202495999Y-83388000D01*
G75*
G02*
X202246000Y-83138001I0J249999D01*
G01*
X202246000Y-82487999D01*
G75*
G02*
X202495999Y-82238000I249999J0D01*
G01*
G37*
%TD.AperFunction*%
%TD*%
%TO.P,C18,2*%
%TO.N,/ISO_RTN*%
%TA.AperFunction,SMDPad,CuDef*%
G36*
G01*
X204019999Y-71570000D02*
X204920001Y-71570000D01*
G75*
G02*
X205170000Y-71819999I0J-249999D01*
G01*
X205170000Y-72470001D01*
G75*
G02*
X204920001Y-72720000I-249999J0D01*
G01*
X204019999Y-72720000D01*
G75*
G02*
X203770000Y-72470001I0J249999D01*
G01*
X203770000Y-71819999D01*
G75*
G02*
X204019999Y-71570000I249999J0D01*
G01*
G37*
%TD.AperFunction*%
%TO.P,C18,1*%
%TO.N,/3.3V_ISO*%
%TA.AperFunction,SMDPad,CuDef*%
G36*
G01*
X204019999Y-69520000D02*
X204920001Y-69520000D01*
G75*
G02*
X205170000Y-69769999I0J-249999D01*
G01*
X205170000Y-70420001D01*
G75*
G02*
X204920001Y-70670000I-249999J0D01*
G01*
X204019999Y-70670000D01*
G75*
G02*
X203770000Y-70420001I0J249999D01*
G01*
X203770000Y-69769999D01*
G75*
G02*
X204019999Y-69520000I249999J0D01*
G01*
G37*
%TD.AperFunction*%
%TD*%
%TO.P,C19,1*%
%TO.N,/GLV_RTN*%
%TA.AperFunction,SMDPad,CuDef*%
G36*
G01*
X220802000Y-89262799D02*
X220802000Y-90162801D01*
G75*
G02*
X220552001Y-90412800I-249999J0D01*
G01*
X219901999Y-90412800D01*
G75*
G02*
X219652000Y-90162801I0J249999D01*
G01*
X219652000Y-89262799D01*
G75*
G02*
X219901999Y-89012800I249999J0D01*
G01*
X220552001Y-89012800D01*
G75*
G02*
X220802000Y-89262799I0J-249999D01*
G01*
G37*
%TD.AperFunction*%
%TO.P,C19,2*%
%TO.N,/5V_NON_ISO*%
%TA.AperFunction,SMDPad,CuDef*%
G36*
G01*
X218752000Y-89262799D02*
X218752000Y-90162801D01*
G75*
G02*
X218502001Y-90412800I-249999J0D01*
G01*
X217851999Y-90412800D01*
G75*
G02*
X217602000Y-90162801I0J249999D01*
G01*
X217602000Y-89262799D01*
G75*
G02*
X217851999Y-89012800I249999J0D01*
G01*
X218502001Y-89012800D01*
G75*
G02*
X218752000Y-89262799I0J-249999D01*
G01*
G37*
%TD.AperFunction*%
%TD*%
%TO.P,C20,1*%
%TO.N,/24V*%
%TA.AperFunction,SMDPad,CuDef*%
G36*
G01*
X217602000Y-80510801D02*
X217602000Y-79610799D01*
G75*
G02*
X217851999Y-79360800I249999J0D01*
G01*
X218502001Y-79360800D01*
G75*
G02*
X218752000Y-79610799I0J-249999D01*
G01*
X218752000Y-80510801D01*
G75*
G02*
X218502001Y-80760800I-249999J0D01*
G01*
X217851999Y-80760800D01*
G75*
G02*
X217602000Y-80510801I0J249999D01*
G01*
G37*
%TD.AperFunction*%
%TO.P,C20,2*%
%TO.N,/GLV_RTN*%
%TA.AperFunction,SMDPad,CuDef*%
G36*
G01*
X219652000Y-80510801D02*
X219652000Y-79610799D01*
G75*
G02*
X219901999Y-79360800I249999J0D01*
G01*
X220552001Y-79360800D01*
G75*
G02*
X220802000Y-79610799I0J-249999D01*
G01*
X220802000Y-80510801D01*
G75*
G02*
X220552001Y-80760800I-249999J0D01*
G01*
X219901999Y-80760800D01*
G75*
G02*
X219652000Y-80510801I0J249999D01*
G01*
G37*
%TD.AperFunction*%
%TD*%
D18*
%TO.P,CR1,1*%
%TO.N,/5V_NON_ISO*%
X218059000Y-87566500D03*
%TO.P,CR1,2*%
%TO.N,/GLV_RTN*%
X219329000Y-87566500D03*
%TO.P,CR1,3*%
X220599000Y-87566500D03*
%TO.P,CR1,4*%
%TO.N,N/C*%
X221869000Y-87566500D03*
%TO.P,CR1,5*%
X221869000Y-82207100D03*
%TO.P,CR1,6*%
%TO.N,/GLV_RTN*%
X220599000Y-82207100D03*
%TO.P,CR1,7*%
X219329000Y-82207100D03*
%TO.P,CR1,8*%
%TO.N,/24V*%
X218059000Y-82207100D03*
%TD*%
D19*
%TO.P,J1,4*%
%TO.N,N/C*%
X223940000Y-64144000D03*
%TO.P,J1,3*%
%TO.N,/ISO_RTN*%
X223940000Y-59944000D03*
%TO.P,J1,2*%
%TO.N,/BP_CAN-*%
X218440000Y-64144000D03*
D20*
%TO.P,J1,1*%
%TO.N,/BP_CAN+*%
X218440000Y-59944000D03*
%TD*%
%TO.P,J4,1*%
%TO.N,/SCL_TSI_GLV*%
X218440000Y-71120000D03*
D19*
%TO.P,J4,2*%
%TO.N,/SDA_TSI_GLV*%
X218440000Y-75320000D03*
%TO.P,J4,3*%
%TO.N,/GLV_RTN*%
X223940000Y-71120000D03*
%TO.P,J4,4*%
%TO.N,/24V*%
X223940000Y-75320000D03*
%TD*%
D21*
%TO.P,J5,1*%
%TO.N,/~MCLR~*%
X225755200Y-94030800D03*
D22*
%TO.P,J5,2*%
%TO.N,/3.3V_ISO*%
X225755200Y-91490800D03*
%TO.P,J5,3*%
%TO.N,/ISO_RTN*%
X225755200Y-88950800D03*
%TO.P,J5,4*%
%TO.N,/PGEC*%
X225755200Y-86410800D03*
%TO.P,J5,5*%
%TO.N,/PGED*%
X225755200Y-83870800D03*
%TO.P,J5,6*%
%TO.N,N/C*%
X225755200Y-81330800D03*
%TD*%
%TO.P,U2,8*%
%TO.N,/5V_NON_ISO*%
%TA.AperFunction,SMDPad,CuDef*%
G36*
G01*
X196136000Y-96428500D02*
X196136000Y-96103500D01*
G75*
G02*
X196298500Y-95941000I162500J0D01*
G01*
X198323500Y-95941000D01*
G75*
G02*
X198486000Y-96103500I0J-162500D01*
G01*
X198486000Y-96428500D01*
G75*
G02*
X198323500Y-96591000I-162500J0D01*
G01*
X196298500Y-96591000D01*
G75*
G02*
X196136000Y-96428500I0J162500D01*
G01*
G37*
%TD.AperFunction*%
%TO.P,U2,7*%
%TO.N,/BP_CAN+*%
%TA.AperFunction,SMDPad,CuDef*%
G36*
G01*
X196136000Y-98968500D02*
X196136000Y-98643500D01*
G75*
G02*
X196298500Y-98481000I162500J0D01*
G01*
X198323500Y-98481000D01*
G75*
G02*
X198486000Y-98643500I0J-162500D01*
G01*
X198486000Y-98968500D01*
G75*
G02*
X198323500Y-99131000I-162500J0D01*
G01*
X196298500Y-99131000D01*
G75*
G02*
X196136000Y-98968500I0J162500D01*
G01*
G37*
%TD.AperFunction*%
%TO.P,U2,6*%
%TO.N,/BP_CAN-*%
%TA.AperFunction,SMDPad,CuDef*%
G36*
G01*
X196136000Y-101508500D02*
X196136000Y-101183500D01*
G75*
G02*
X196298500Y-101021000I162500J0D01*
G01*
X198323500Y-101021000D01*
G75*
G02*
X198486000Y-101183500I0J-162500D01*
G01*
X198486000Y-101508500D01*
G75*
G02*
X198323500Y-101671000I-162500J0D01*
G01*
X196298500Y-101671000D01*
G75*
G02*
X196136000Y-101508500I0J162500D01*
G01*
G37*
%TD.AperFunction*%
%TO.P,U2,5*%
%TO.N,/GLV_RTN*%
%TA.AperFunction,SMDPad,CuDef*%
G36*
G01*
X196136000Y-104048500D02*
X196136000Y-103723500D01*
G75*
G02*
X196298500Y-103561000I162500J0D01*
G01*
X198323500Y-103561000D01*
G75*
G02*
X198486000Y-103723500I0J-162500D01*
G01*
X198486000Y-104048500D01*
G75*
G02*
X198323500Y-104211000I-162500J0D01*
G01*
X196298500Y-104211000D01*
G75*
G02*
X196136000Y-104048500I0J162500D01*
G01*
G37*
%TD.AperFunction*%
%TO.P,U2,4*%
%TO.N,/ISO_RTN*%
%TA.AperFunction,SMDPad,CuDef*%
G36*
G01*
X187086000Y-104048500D02*
X187086000Y-103723500D01*
G75*
G02*
X187248500Y-103561000I162500J0D01*
G01*
X189273500Y-103561000D01*
G75*
G02*
X189436000Y-103723500I0J-162500D01*
G01*
X189436000Y-104048500D01*
G75*
G02*
X189273500Y-104211000I-162500J0D01*
G01*
X187248500Y-104211000D01*
G75*
G02*
X187086000Y-104048500I0J162500D01*
G01*
G37*
%TD.AperFunction*%
%TO.P,U2,3*%
%TO.N,Net-(U2-Pad3)*%
%TA.AperFunction,SMDPad,CuDef*%
G36*
G01*
X187086000Y-101508500D02*
X187086000Y-101183500D01*
G75*
G02*
X187248500Y-101021000I162500J0D01*
G01*
X189273500Y-101021000D01*
G75*
G02*
X189436000Y-101183500I0J-162500D01*
G01*
X189436000Y-101508500D01*
G75*
G02*
X189273500Y-101671000I-162500J0D01*
G01*
X187248500Y-101671000D01*
G75*
G02*
X187086000Y-101508500I0J162500D01*
G01*
G37*
%TD.AperFunction*%
%TO.P,U2,2*%
%TO.N,Net-(U2-Pad2)*%
%TA.AperFunction,SMDPad,CuDef*%
G36*
G01*
X187086000Y-98968500D02*
X187086000Y-98643500D01*
G75*
G02*
X187248500Y-98481000I162500J0D01*
G01*
X189273500Y-98481000D01*
G75*
G02*
X189436000Y-98643500I0J-162500D01*
G01*
X189436000Y-98968500D01*
G75*
G02*
X189273500Y-99131000I-162500J0D01*
G01*
X187248500Y-99131000D01*
G75*
G02*
X187086000Y-98968500I0J162500D01*
G01*
G37*
%TD.AperFunction*%
%TO.P,U2,1*%
%TO.N,/5V_ISO*%
%TA.AperFunction,SMDPad,CuDef*%
G36*
G01*
X187086000Y-96428500D02*
X187086000Y-96103500D01*
G75*
G02*
X187248500Y-95941000I162500J0D01*
G01*
X189273500Y-95941000D01*
G75*
G02*
X189436000Y-96103500I0J-162500D01*
G01*
X189436000Y-96428500D01*
G75*
G02*
X189273500Y-96591000I-162500J0D01*
G01*
X187248500Y-96591000D01*
G75*
G02*
X187086000Y-96428500I0J162500D01*
G01*
G37*
%TD.AperFunction*%
%TD*%
%TO.P,U5,1*%
%TO.N,/5V_ISO*%
%TA.AperFunction,SMDPad,CuDef*%
G36*
G01*
X203566000Y-113883500D02*
X203566000Y-114208500D01*
G75*
G02*
X203403500Y-114371000I-162500J0D01*
G01*
X201378500Y-114371000D01*
G75*
G02*
X201216000Y-114208500I0J162500D01*
G01*
X201216000Y-113883500D01*
G75*
G02*
X201378500Y-113721000I162500J0D01*
G01*
X203403500Y-113721000D01*
G75*
G02*
X203566000Y-113883500I0J-162500D01*
G01*
G37*
%TD.AperFunction*%
%TO.P,U5,2*%
%TO.N,/PIC_RXD*%
%TA.AperFunction,SMDPad,CuDef*%
G36*
G01*
X203566000Y-111343500D02*
X203566000Y-111668500D01*
G75*
G02*
X203403500Y-111831000I-162500J0D01*
G01*
X201378500Y-111831000D01*
G75*
G02*
X201216000Y-111668500I0J162500D01*
G01*
X201216000Y-111343500D01*
G75*
G02*
X201378500Y-111181000I162500J0D01*
G01*
X203403500Y-111181000D01*
G75*
G02*
X203566000Y-111343500I0J-162500D01*
G01*
G37*
%TD.AperFunction*%
%TO.P,U5,3*%
%TO.N,/PIC_TXD*%
%TA.AperFunction,SMDPad,CuDef*%
G36*
G01*
X203566000Y-108803500D02*
X203566000Y-109128500D01*
G75*
G02*
X203403500Y-109291000I-162500J0D01*
G01*
X201378500Y-109291000D01*
G75*
G02*
X201216000Y-109128500I0J162500D01*
G01*
X201216000Y-108803500D01*
G75*
G02*
X201378500Y-108641000I162500J0D01*
G01*
X203403500Y-108641000D01*
G75*
G02*
X203566000Y-108803500I0J-162500D01*
G01*
G37*
%TD.AperFunction*%
%TO.P,U5,4*%
%TO.N,/ISO_RTN*%
%TA.AperFunction,SMDPad,CuDef*%
G36*
G01*
X203566000Y-106263500D02*
X203566000Y-106588500D01*
G75*
G02*
X203403500Y-106751000I-162500J0D01*
G01*
X201378500Y-106751000D01*
G75*
G02*
X201216000Y-106588500I0J162500D01*
G01*
X201216000Y-106263500D01*
G75*
G02*
X201378500Y-106101000I162500J0D01*
G01*
X203403500Y-106101000D01*
G75*
G02*
X203566000Y-106263500I0J-162500D01*
G01*
G37*
%TD.AperFunction*%
%TO.P,U5,5*%
%TO.N,/GLV_RTN*%
%TA.AperFunction,SMDPad,CuDef*%
G36*
G01*
X194516000Y-106263500D02*
X194516000Y-106588500D01*
G75*
G02*
X194353500Y-106751000I-162500J0D01*
G01*
X192328500Y-106751000D01*
G75*
G02*
X192166000Y-106588500I0J162500D01*
G01*
X192166000Y-106263500D01*
G75*
G02*
X192328500Y-106101000I162500J0D01*
G01*
X194353500Y-106101000D01*
G75*
G02*
X194516000Y-106263500I0J-162500D01*
G01*
G37*
%TD.AperFunction*%
%TO.P,U5,6*%
%TO.N,/BP_CAN-*%
%TA.AperFunction,SMDPad,CuDef*%
G36*
G01*
X194516000Y-108803500D02*
X194516000Y-109128500D01*
G75*
G02*
X194353500Y-109291000I-162500J0D01*
G01*
X192328500Y-109291000D01*
G75*
G02*
X192166000Y-109128500I0J162500D01*
G01*
X192166000Y-108803500D01*
G75*
G02*
X192328500Y-108641000I162500J0D01*
G01*
X194353500Y-108641000D01*
G75*
G02*
X194516000Y-108803500I0J-162500D01*
G01*
G37*
%TD.AperFunction*%
%TO.P,U5,7*%
%TO.N,/BP_CAN+*%
%TA.AperFunction,SMDPad,CuDef*%
G36*
G01*
X194516000Y-111343500D02*
X194516000Y-111668500D01*
G75*
G02*
X194353500Y-111831000I-162500J0D01*
G01*
X192328500Y-111831000D01*
G75*
G02*
X192166000Y-111668500I0J162500D01*
G01*
X192166000Y-111343500D01*
G75*
G02*
X192328500Y-111181000I162500J0D01*
G01*
X194353500Y-111181000D01*
G75*
G02*
X194516000Y-111343500I0J-162500D01*
G01*
G37*
%TD.AperFunction*%
%TO.P,U5,8*%
%TO.N,/5V_NON_ISO*%
%TA.AperFunction,SMDPad,CuDef*%
G36*
G01*
X194516000Y-113883500D02*
X194516000Y-114208500D01*
G75*
G02*
X194353500Y-114371000I-162500J0D01*
G01*
X192328500Y-114371000D01*
G75*
G02*
X192166000Y-114208500I0J162500D01*
G01*
X192166000Y-113883500D01*
G75*
G02*
X192328500Y-113721000I162500J0D01*
G01*
X194353500Y-113721000D01*
G75*
G02*
X194516000Y-113883500I0J-162500D01*
G01*
G37*
%TD.AperFunction*%
%TD*%
%TO.P,U8,1*%
%TO.N,Net-(U2-Pad3)*%
%TA.AperFunction,SMDPad,CuDef*%
G36*
G01*
X200239000Y-92179000D02*
X200239000Y-92479000D01*
G75*
G02*
X200089000Y-92629000I-150000J0D01*
G01*
X198339000Y-92629000D01*
G75*
G02*
X198189000Y-92479000I0J150000D01*
G01*
X198189000Y-92179000D01*
G75*
G02*
X198339000Y-92029000I150000J0D01*
G01*
X200089000Y-92029000D01*
G75*
G02*
X200239000Y-92179000I0J-150000D01*
G01*
G37*
%TD.AperFunction*%
%TO.P,U8,2*%
%TO.N,Net-(U2-Pad2)*%
%TA.AperFunction,SMDPad,CuDef*%
G36*
G01*
X200239000Y-90909000D02*
X200239000Y-91209000D01*
G75*
G02*
X200089000Y-91359000I-150000J0D01*
G01*
X198339000Y-91359000D01*
G75*
G02*
X198189000Y-91209000I0J150000D01*
G01*
X198189000Y-90909000D01*
G75*
G02*
X198339000Y-90759000I150000J0D01*
G01*
X200089000Y-90759000D01*
G75*
G02*
X200239000Y-90909000I0J-150000D01*
G01*
G37*
%TD.AperFunction*%
%TO.P,U8,3*%
%TO.N,N/C*%
%TA.AperFunction,SMDPad,CuDef*%
G36*
G01*
X200239000Y-89639000D02*
X200239000Y-89939000D01*
G75*
G02*
X200089000Y-90089000I-150000J0D01*
G01*
X198339000Y-90089000D01*
G75*
G02*
X198189000Y-89939000I0J150000D01*
G01*
X198189000Y-89639000D01*
G75*
G02*
X198339000Y-89489000I150000J0D01*
G01*
X200089000Y-89489000D01*
G75*
G02*
X200239000Y-89639000I0J-150000D01*
G01*
G37*
%TD.AperFunction*%
%TO.P,U8,4*%
%TA.AperFunction,SMDPad,CuDef*%
G36*
G01*
X200239000Y-88369000D02*
X200239000Y-88669000D01*
G75*
G02*
X200089000Y-88819000I-150000J0D01*
G01*
X198339000Y-88819000D01*
G75*
G02*
X198189000Y-88669000I0J150000D01*
G01*
X198189000Y-88369000D01*
G75*
G02*
X198339000Y-88219000I150000J0D01*
G01*
X200089000Y-88219000D01*
G75*
G02*
X200239000Y-88369000I0J-150000D01*
G01*
G37*
%TD.AperFunction*%
%TO.P,U8,5*%
%TA.AperFunction,SMDPad,CuDef*%
G36*
G01*
X200239000Y-87099000D02*
X200239000Y-87399000D01*
G75*
G02*
X200089000Y-87549000I-150000J0D01*
G01*
X198339000Y-87549000D01*
G75*
G02*
X198189000Y-87399000I0J150000D01*
G01*
X198189000Y-87099000D01*
G75*
G02*
X198339000Y-86949000I150000J0D01*
G01*
X200089000Y-86949000D01*
G75*
G02*
X200239000Y-87099000I0J-150000D01*
G01*
G37*
%TD.AperFunction*%
%TO.P,U8,6*%
%TA.AperFunction,SMDPad,CuDef*%
G36*
G01*
X200239000Y-85829000D02*
X200239000Y-86129000D01*
G75*
G02*
X200089000Y-86279000I-150000J0D01*
G01*
X198339000Y-86279000D01*
G75*
G02*
X198189000Y-86129000I0J150000D01*
G01*
X198189000Y-85829000D01*
G75*
G02*
X198339000Y-85679000I150000J0D01*
G01*
X200089000Y-85679000D01*
G75*
G02*
X200239000Y-85829000I0J-150000D01*
G01*
G37*
%TD.AperFunction*%
%TO.P,U8,7*%
%TO.N,Net-(C16-Pad2)*%
%TA.AperFunction,SMDPad,CuDef*%
G36*
G01*
X200239000Y-84559000D02*
X200239000Y-84859000D01*
G75*
G02*
X200089000Y-85009000I-150000J0D01*
G01*
X198339000Y-85009000D01*
G75*
G02*
X198189000Y-84859000I0J150000D01*
G01*
X198189000Y-84559000D01*
G75*
G02*
X198339000Y-84409000I150000J0D01*
G01*
X200089000Y-84409000D01*
G75*
G02*
X200239000Y-84559000I0J-150000D01*
G01*
G37*
%TD.AperFunction*%
%TO.P,U8,8*%
%TO.N,Net-(C17-Pad2)*%
%TA.AperFunction,SMDPad,CuDef*%
G36*
G01*
X200239000Y-83289000D02*
X200239000Y-83589000D01*
G75*
G02*
X200089000Y-83739000I-150000J0D01*
G01*
X198339000Y-83739000D01*
G75*
G02*
X198189000Y-83589000I0J150000D01*
G01*
X198189000Y-83289000D01*
G75*
G02*
X198339000Y-83139000I150000J0D01*
G01*
X200089000Y-83139000D01*
G75*
G02*
X200239000Y-83289000I0J-150000D01*
G01*
G37*
%TD.AperFunction*%
%TO.P,U8,9*%
%TO.N,/ISO_RTN*%
%TA.AperFunction,SMDPad,CuDef*%
G36*
G01*
X200239000Y-82019000D02*
X200239000Y-82319000D01*
G75*
G02*
X200089000Y-82469000I-150000J0D01*
G01*
X198339000Y-82469000D01*
G75*
G02*
X198189000Y-82319000I0J150000D01*
G01*
X198189000Y-82019000D01*
G75*
G02*
X198339000Y-81869000I150000J0D01*
G01*
X200089000Y-81869000D01*
G75*
G02*
X200239000Y-82019000I0J-150000D01*
G01*
G37*
%TD.AperFunction*%
%TO.P,U8,10*%
%TO.N,N/C*%
%TA.AperFunction,SMDPad,CuDef*%
G36*
G01*
X190939000Y-82019000D02*
X190939000Y-82319000D01*
G75*
G02*
X190789000Y-82469000I-150000J0D01*
G01*
X189039000Y-82469000D01*
G75*
G02*
X188889000Y-82319000I0J150000D01*
G01*
X188889000Y-82019000D01*
G75*
G02*
X189039000Y-81869000I150000J0D01*
G01*
X190789000Y-81869000D01*
G75*
G02*
X190939000Y-82019000I0J-150000D01*
G01*
G37*
%TD.AperFunction*%
%TO.P,U8,11*%
%TA.AperFunction,SMDPad,CuDef*%
G36*
G01*
X190939000Y-83289000D02*
X190939000Y-83589000D01*
G75*
G02*
X190789000Y-83739000I-150000J0D01*
G01*
X189039000Y-83739000D01*
G75*
G02*
X188889000Y-83589000I0J150000D01*
G01*
X188889000Y-83289000D01*
G75*
G02*
X189039000Y-83139000I150000J0D01*
G01*
X190789000Y-83139000D01*
G75*
G02*
X190939000Y-83289000I0J-150000D01*
G01*
G37*
%TD.AperFunction*%
%TO.P,U8,12*%
%TO.N,/GPIO25*%
%TA.AperFunction,SMDPad,CuDef*%
G36*
G01*
X190939000Y-84559000D02*
X190939000Y-84859000D01*
G75*
G02*
X190789000Y-85009000I-150000J0D01*
G01*
X189039000Y-85009000D01*
G75*
G02*
X188889000Y-84859000I0J150000D01*
G01*
X188889000Y-84559000D01*
G75*
G02*
X189039000Y-84409000I150000J0D01*
G01*
X190789000Y-84409000D01*
G75*
G02*
X190939000Y-84559000I0J-150000D01*
G01*
G37*
%TD.AperFunction*%
%TO.P,U8,13*%
%TO.N,/PI_SPI_SCLK*%
%TA.AperFunction,SMDPad,CuDef*%
G36*
G01*
X190939000Y-85829000D02*
X190939000Y-86129000D01*
G75*
G02*
X190789000Y-86279000I-150000J0D01*
G01*
X189039000Y-86279000D01*
G75*
G02*
X188889000Y-86129000I0J150000D01*
G01*
X188889000Y-85829000D01*
G75*
G02*
X189039000Y-85679000I150000J0D01*
G01*
X190789000Y-85679000D01*
G75*
G02*
X190939000Y-85829000I0J-150000D01*
G01*
G37*
%TD.AperFunction*%
%TO.P,U8,14*%
%TO.N,/PI_SPI_MOSI*%
%TA.AperFunction,SMDPad,CuDef*%
G36*
G01*
X190939000Y-87099000D02*
X190939000Y-87399000D01*
G75*
G02*
X190789000Y-87549000I-150000J0D01*
G01*
X189039000Y-87549000D01*
G75*
G02*
X188889000Y-87399000I0J150000D01*
G01*
X188889000Y-87099000D01*
G75*
G02*
X189039000Y-86949000I150000J0D01*
G01*
X190789000Y-86949000D01*
G75*
G02*
X190939000Y-87099000I0J-150000D01*
G01*
G37*
%TD.AperFunction*%
%TO.P,U8,15*%
%TO.N,/PI_SPI_MISO*%
%TA.AperFunction,SMDPad,CuDef*%
G36*
G01*
X190939000Y-88369000D02*
X190939000Y-88669000D01*
G75*
G02*
X190789000Y-88819000I-150000J0D01*
G01*
X189039000Y-88819000D01*
G75*
G02*
X188889000Y-88669000I0J150000D01*
G01*
X188889000Y-88369000D01*
G75*
G02*
X189039000Y-88219000I150000J0D01*
G01*
X190789000Y-88219000D01*
G75*
G02*
X190939000Y-88369000I0J-150000D01*
G01*
G37*
%TD.AperFunction*%
%TO.P,U8,16*%
%TO.N,/PI_SPI_CEO*%
%TA.AperFunction,SMDPad,CuDef*%
G36*
G01*
X190939000Y-89639000D02*
X190939000Y-89939000D01*
G75*
G02*
X190789000Y-90089000I-150000J0D01*
G01*
X189039000Y-90089000D01*
G75*
G02*
X188889000Y-89939000I0J150000D01*
G01*
X188889000Y-89639000D01*
G75*
G02*
X189039000Y-89489000I150000J0D01*
G01*
X190789000Y-89489000D01*
G75*
G02*
X190939000Y-89639000I0J-150000D01*
G01*
G37*
%TD.AperFunction*%
%TO.P,U8,17*%
%TO.N,Net-(R10-Pad2)*%
%TA.AperFunction,SMDPad,CuDef*%
G36*
G01*
X190939000Y-90909000D02*
X190939000Y-91209000D01*
G75*
G02*
X190789000Y-91359000I-150000J0D01*
G01*
X189039000Y-91359000D01*
G75*
G02*
X188889000Y-91209000I0J150000D01*
G01*
X188889000Y-90909000D01*
G75*
G02*
X189039000Y-90759000I150000J0D01*
G01*
X190789000Y-90759000D01*
G75*
G02*
X190939000Y-90909000I0J-150000D01*
G01*
G37*
%TD.AperFunction*%
%TO.P,U8,18*%
%TO.N,/5V_ISO*%
%TA.AperFunction,SMDPad,CuDef*%
G36*
G01*
X190939000Y-92179000D02*
X190939000Y-92479000D01*
G75*
G02*
X190789000Y-92629000I-150000J0D01*
G01*
X189039000Y-92629000D01*
G75*
G02*
X188889000Y-92479000I0J150000D01*
G01*
X188889000Y-92179000D01*
G75*
G02*
X189039000Y-92029000I150000J0D01*
G01*
X190789000Y-92029000D01*
G75*
G02*
X190939000Y-92179000I0J-150000D01*
G01*
G37*
%TD.AperFunction*%
%TD*%
D23*
%TO.P,U9,1*%
%TO.N,/3.3V_ISO*%
X206825850Y-69469000D03*
%TO.P,U9,2*%
%TO.N,/SDA_ISO_PI*%
X206825850Y-70739000D03*
%TO.P,U9,3*%
%TO.N,/SCL_ISO_PI*%
X206825850Y-72009000D03*
%TO.P,U9,4*%
%TO.N,/ISO_RTN*%
X206825850Y-73279000D03*
%TO.P,U9,5*%
%TO.N,/GLV_RTN*%
X212274150Y-73279000D03*
%TO.P,U9,6*%
%TO.N,/SCL_TSI_GLV*%
X212274150Y-72009000D03*
%TO.P,U9,7*%
%TO.N,/SDA_TSI_GLV*%
X212274150Y-70739000D03*
%TO.P,U9,8*%
%TO.N,/5V_NON_ISO*%
X212274150Y-69469000D03*
%TD*%
D24*
%TO.P,Y1,1*%
%TO.N,Net-(C16-Pad2)*%
X206756000Y-90856000D03*
%TO.P,Y1,2*%
%TO.N,Net-(C17-Pad2)*%
X206756000Y-81356000D03*
%TD*%
%TO.P,R1,2*%
%TO.N,/3.3V_ISO*%
%TA.AperFunction,SMDPad,CuDef*%
G36*
G01*
X179520000Y-61410001D02*
X179520000Y-60509999D01*
G75*
G02*
X179769999Y-60260000I249999J0D01*
G01*
X180420001Y-60260000D01*
G75*
G02*
X180670000Y-60509999I0J-249999D01*
G01*
X180670000Y-61410001D01*
G75*
G02*
X180420001Y-61660000I-249999J0D01*
G01*
X179769999Y-61660000D01*
G75*
G02*
X179520000Y-61410001I0J249999D01*
G01*
G37*
%TD.AperFunction*%
%TO.P,R1,1*%
%TO.N,/SDA_ISO_PI*%
%TA.AperFunction,SMDPad,CuDef*%
G36*
G01*
X177470000Y-61410001D02*
X177470000Y-60509999D01*
G75*
G02*
X177719999Y-60260000I249999J0D01*
G01*
X178370001Y-60260000D01*
G75*
G02*
X178620000Y-60509999I0J-249999D01*
G01*
X178620000Y-61410001D01*
G75*
G02*
X178370001Y-61660000I-249999J0D01*
G01*
X177719999Y-61660000D01*
G75*
G02*
X177470000Y-61410001I0J249999D01*
G01*
G37*
%TD.AperFunction*%
%TD*%
%TO.P,R2,1*%
%TO.N,/SCL_ISO_PI*%
%TA.AperFunction,SMDPad,CuDef*%
G36*
G01*
X177470000Y-63950001D02*
X177470000Y-63049999D01*
G75*
G02*
X177719999Y-62800000I249999J0D01*
G01*
X178370001Y-62800000D01*
G75*
G02*
X178620000Y-63049999I0J-249999D01*
G01*
X178620000Y-63950001D01*
G75*
G02*
X178370001Y-64200000I-249999J0D01*
G01*
X177719999Y-64200000D01*
G75*
G02*
X177470000Y-63950001I0J249999D01*
G01*
G37*
%TD.AperFunction*%
%TO.P,R2,2*%
%TO.N,/3.3V_ISO*%
%TA.AperFunction,SMDPad,CuDef*%
G36*
G01*
X179520000Y-63950001D02*
X179520000Y-63049999D01*
G75*
G02*
X179769999Y-62800000I249999J0D01*
G01*
X180420001Y-62800000D01*
G75*
G02*
X180670000Y-63049999I0J-249999D01*
G01*
X180670000Y-63950001D01*
G75*
G02*
X180420001Y-64200000I-249999J0D01*
G01*
X179769999Y-64200000D01*
G75*
G02*
X179520000Y-63950001I0J249999D01*
G01*
G37*
%TD.AperFunction*%
%TD*%
%TO.P,R3,2*%
%TO.N,/3.3V_ISO*%
%TA.AperFunction,SMDPad,CuDef*%
G36*
G01*
X223309601Y-96171600D02*
X222409599Y-96171600D01*
G75*
G02*
X222159600Y-95921601I0J249999D01*
G01*
X222159600Y-95271599D01*
G75*
G02*
X222409599Y-95021600I249999J0D01*
G01*
X223309601Y-95021600D01*
G75*
G02*
X223559600Y-95271599I0J-249999D01*
G01*
X223559600Y-95921601D01*
G75*
G02*
X223309601Y-96171600I-249999J0D01*
G01*
G37*
%TD.AperFunction*%
%TO.P,R3,1*%
%TO.N,Net-(C2-Pad2)*%
%TA.AperFunction,SMDPad,CuDef*%
G36*
G01*
X223309601Y-98221600D02*
X222409599Y-98221600D01*
G75*
G02*
X222159600Y-97971601I0J249999D01*
G01*
X222159600Y-97321599D01*
G75*
G02*
X222409599Y-97071600I249999J0D01*
G01*
X223309601Y-97071600D01*
G75*
G02*
X223559600Y-97321599I0J-249999D01*
G01*
X223559600Y-97971601D01*
G75*
G02*
X223309601Y-98221600I-249999J0D01*
G01*
G37*
%TD.AperFunction*%
%TD*%
%TO.P,R4,2*%
%TO.N,Net-(C2-Pad2)*%
%TA.AperFunction,SMDPad,CuDef*%
G36*
G01*
X220109201Y-103681000D02*
X219209199Y-103681000D01*
G75*
G02*
X218959200Y-103431001I0J249999D01*
G01*
X218959200Y-102780999D01*
G75*
G02*
X219209199Y-102531000I249999J0D01*
G01*
X220109201Y-102531000D01*
G75*
G02*
X220359200Y-102780999I0J-249999D01*
G01*
X220359200Y-103431001D01*
G75*
G02*
X220109201Y-103681000I-249999J0D01*
G01*
G37*
%TD.AperFunction*%
%TO.P,R4,1*%
%TO.N,/~MCLR~*%
%TA.AperFunction,SMDPad,CuDef*%
G36*
G01*
X220109201Y-105731000D02*
X219209199Y-105731000D01*
G75*
G02*
X218959200Y-105481001I0J249999D01*
G01*
X218959200Y-104830999D01*
G75*
G02*
X219209199Y-104581000I249999J0D01*
G01*
X220109201Y-104581000D01*
G75*
G02*
X220359200Y-104830999I0J-249999D01*
G01*
X220359200Y-105481001D01*
G75*
G02*
X220109201Y-105731000I-249999J0D01*
G01*
G37*
%TD.AperFunction*%
%TD*%
%TO.P,R10,1*%
%TO.N,/5V_ISO*%
%TA.AperFunction,SMDPad,CuDef*%
G36*
G01*
X184319000Y-91509001D02*
X184319000Y-90608999D01*
G75*
G02*
X184568999Y-90359000I249999J0D01*
G01*
X185219001Y-90359000D01*
G75*
G02*
X185469000Y-90608999I0J-249999D01*
G01*
X185469000Y-91509001D01*
G75*
G02*
X185219001Y-91759000I-249999J0D01*
G01*
X184568999Y-91759000D01*
G75*
G02*
X184319000Y-91509001I0J249999D01*
G01*
G37*
%TD.AperFunction*%
%TO.P,R10,2*%
%TO.N,Net-(R10-Pad2)*%
%TA.AperFunction,SMDPad,CuDef*%
G36*
G01*
X186369000Y-91509001D02*
X186369000Y-90608999D01*
G75*
G02*
X186618999Y-90359000I249999J0D01*
G01*
X187269001Y-90359000D01*
G75*
G02*
X187519000Y-90608999I0J-249999D01*
G01*
X187519000Y-91509001D01*
G75*
G02*
X187269001Y-91759000I-249999J0D01*
G01*
X186618999Y-91759000D01*
G75*
G02*
X186369000Y-91509001I0J249999D01*
G01*
G37*
%TD.AperFunction*%
%TD*%
D21*
%TO.P,J2,1*%
%TO.N,/SDA_TSI_GLV*%
X214884000Y-81229200D03*
D22*
%TO.P,J2,2*%
%TO.N,/SCL_TSI_GLV*%
X214884000Y-83769200D03*
%TO.P,J2,3*%
%TO.N,/5V_NON_ISO*%
X214884000Y-86309200D03*
%TO.P,J2,4*%
%TO.N,/GLV_RTN*%
X214884000Y-88849200D03*
%TD*%
D25*
%TO.P,U1,1*%
%TO.N,/5V_ISO*%
X200980000Y-98536000D03*
%TO.P,U1,2*%
%TO.N,/V_OUT_TEMP*%
X202880000Y-98536000D03*
%TO.P,U1,3*%
%TO.N,/ISO_RTN*%
X201930000Y-96536000D03*
%TD*%
%TO.P,C21,1*%
%TO.N,/5V_NON_ISO*%
%TA.AperFunction,SMDPad,CuDef*%
G36*
G01*
X213925999Y-69774000D02*
X214826001Y-69774000D01*
G75*
G02*
X215076000Y-70023999I0J-249999D01*
G01*
X215076000Y-70674001D01*
G75*
G02*
X214826001Y-70924000I-249999J0D01*
G01*
X213925999Y-70924000D01*
G75*
G02*
X213676000Y-70674001I0J249999D01*
G01*
X213676000Y-70023999D01*
G75*
G02*
X213925999Y-69774000I249999J0D01*
G01*
G37*
%TD.AperFunction*%
%TO.P,C21,2*%
%TO.N,/GLV_RTN*%
%TA.AperFunction,SMDPad,CuDef*%
G36*
G01*
X213925999Y-71824000D02*
X214826001Y-71824000D01*
G75*
G02*
X215076000Y-72073999I0J-249999D01*
G01*
X215076000Y-72724001D01*
G75*
G02*
X214826001Y-72974000I-249999J0D01*
G01*
X213925999Y-72974000D01*
G75*
G02*
X213676000Y-72724001I0J249999D01*
G01*
X213676000Y-72073999D01*
G75*
G02*
X213925999Y-71824000I249999J0D01*
G01*
G37*
%TD.AperFunction*%
%TD*%
D26*
%TO.P,U10,4*%
%TO.N,/SCL_ISO_PI*%
X182473600Y-112776000D03*
%TO.P,U10,3*%
%TO.N,/ISO_RTN*%
X184912000Y-112776000D03*
%TO.P,U10,2*%
%TO.N,N/C*%
X187452000Y-112776000D03*
%TO.P,U10,1*%
%TO.N,/3.3V_ISO*%
X189992000Y-112776000D03*
%TO.P,U10,5*%
%TO.N,/SDA_ISO_PI*%
X179832000Y-112776000D03*
%TO.P,U10,6*%
%TO.N,/ISO_RTN*%
X179832000Y-97536000D03*
%TO.P,U10,7*%
X182372000Y-97536000D03*
%TD*%
D21*
%TO.P,J3,1*%
%TO.N,/Cooling_CTRL*%
X180848000Y-71120000D03*
D22*
%TO.P,J3,2*%
%TO.N,/SDA_TSI_GLV*%
X183388000Y-71120000D03*
%TO.P,J3,3*%
%TO.N,/SR_CTRL*%
X180848000Y-73660000D03*
%TO.P,J3,4*%
%TO.N,/SCL_TSI_GLV*%
X183388000Y-73660000D03*
%TO.P,J3,5*%
%TO.N,/ISO_RTN*%
X180848000Y-76200000D03*
%TO.P,J3,6*%
%TO.N,/BP_CAN-*%
X183388000Y-76200000D03*
%TO.P,J3,7*%
%TO.N,/3.3V_ISO*%
X180848000Y-78740000D03*
%TO.P,J3,8*%
%TO.N,/BP_CAN+*%
X183388000Y-78740000D03*
%TO.P,J3,9*%
%TO.N,/FlowRate*%
X180848000Y-81280000D03*
%TO.P,J3,10*%
%TO.N,N/C*%
X183388000Y-81280000D03*
%TD*%
D21*
%TO.P,J6,1*%
%TO.N,Net-(J6-Pad1)*%
X216154000Y-51562000D03*
D22*
%TO.P,J6,2*%
%TO.N,/BP_CAN-*%
X218694000Y-51562000D03*
%TD*%
D21*
%TO.P,U11,1*%
%TO.N,N/C*%
X225552000Y-106172000D03*
D22*
%TO.P,U11,2*%
%TO.N,/3.3V_ISO*%
X223012000Y-106172000D03*
%TO.P,U11,3*%
%TO.N,N/C*%
X225552000Y-103632000D03*
%TO.P,U11,4*%
%TO.N,/SDA_ISO_PI*%
X223012000Y-103632000D03*
%TO.P,U11,5*%
%TO.N,/ISO_RTN*%
X225552000Y-101092000D03*
%TO.P,U11,6*%
%TO.N,/SCL_ISO_PI*%
X223012000Y-101092000D03*
%TD*%
D27*
%TO.N,/24V*%
X211556600Y-48514000D03*
X216408000Y-79248000D03*
X211632800Y-58166000D03*
%TO.N,/BP_CAN-*%
X194963847Y-103777847D03*
X195173600Y-90678000D03*
X186182000Y-76200000D03*
X185877200Y-65481200D03*
X186064015Y-68088385D03*
X191363600Y-105397300D03*
X192709800Y-107886500D03*
%TO.N,/BP_CAN+*%
X194157600Y-91643200D03*
X194157600Y-98806000D03*
X188468000Y-65786000D03*
X185318400Y-69037200D03*
%TO.N,/Cooling_CTRL*%
X218668600Y-113080800D03*
X178308000Y-104648000D03*
X178308000Y-94488000D03*
X178816000Y-82804000D03*
%TO.N,/GLV_RTN*%
X199898000Y-101854000D03*
X213461600Y-91186000D03*
X210958170Y-92237387D03*
X210762799Y-47428201D03*
X214884000Y-75184000D03*
%TO.N,/5V_NON_ISO*%
X199390000Y-96774000D03*
X223367600Y-83972400D03*
X213024720Y-48742600D03*
X211161800Y-86360000D03*
X188468000Y-109626400D03*
X214010240Y-65679320D03*
X214045800Y-68163440D03*
%TO.N,/3.3V_ISO*%
X215773000Y-105029000D03*
X213995000Y-101092000D03*
X210922540Y-101016001D03*
X199948800Y-103784400D03*
X222250000Y-93624400D03*
X187960000Y-71018400D03*
X186080400Y-77673200D03*
X182133240Y-60960000D03*
X202438000Y-100584000D03*
X212648800Y-89712800D03*
X210413600Y-89712800D03*
X202701000Y-70095000D03*
X212344000Y-105664000D03*
X208788000Y-97536000D03*
X224536000Y-97536000D03*
X227076000Y-97536000D03*
%TO.N,/5V_ISO*%
X196033447Y-94484247D03*
X200812400Y-94538800D03*
X183032400Y-91033600D03*
X196799200Y-80829999D03*
X200050400Y-67259200D03*
X199999600Y-72136000D03*
X199999600Y-76352400D03*
X195291101Y-76184099D03*
%TO.N,/SDA_ISO_PI*%
X179052147Y-58813773D03*
X220705680Y-107076240D03*
X208630520Y-74442320D03*
X208574640Y-70830440D03*
X217733880Y-92252800D03*
X218236800Y-99009200D03*
X212648800Y-78384400D03*
X227281401Y-109425401D03*
%TO.N,/SCL_ISO_PI*%
X211886800Y-92608400D03*
X218084400Y-100279200D03*
X188158547Y-64723853D03*
X211886800Y-76089700D03*
X190373000Y-63373000D03*
X219950094Y-110349094D03*
%TO.N,/SCL_TSI_GLV*%
X210870800Y-72034400D03*
X209092800Y-75844400D03*
%TO.N,/SDA_TSI_GLV*%
X201537401Y-73290599D03*
X208813400Y-66903600D03*
%TO.N,/PI_SPI_SCLK*%
X178054900Y-86360000D03*
%TO.N,/ISO_RTN*%
X215900000Y-106680000D03*
X203809600Y-95554800D03*
X201879200Y-87884000D03*
X220573600Y-94081600D03*
X194665600Y-70866000D03*
X207010000Y-74422000D03*
X195580000Y-78587600D03*
X201015600Y-80670400D03*
X207365600Y-102362000D03*
X206502000Y-111658400D03*
X202158600Y-107365800D03*
X212852000Y-94996000D03*
%TO.N,/FlowRate*%
X201066400Y-93014800D03*
%TO.N,/STATE_OUT_1*%
X207467200Y-104927400D03*
%TO.N,/STATE_OUT_2*%
X207832000Y-108677400D03*
%TO.N,/STATE_OUT_3*%
X208737200Y-109448600D03*
%TD*%
D28*
%TO.N,/24V*%
X200669000Y-59173000D02*
X201676000Y-58166000D01*
X200669000Y-61214000D02*
X200669000Y-59173000D01*
X218177000Y-82089100D02*
X218059000Y-82207100D01*
X218177000Y-80060800D02*
X218177000Y-82089100D01*
X202563840Y-57786160D02*
X202184000Y-58166000D01*
X202184000Y-58166000D02*
X211632800Y-58166000D01*
X211632800Y-48590200D02*
X211556600Y-48514000D01*
X211632800Y-58166000D02*
X211632800Y-48590200D01*
X222917800Y-75320000D02*
X223940000Y-75320000D01*
X218177000Y-80060800D02*
X217220800Y-80060800D01*
X217220800Y-80060800D02*
X216408000Y-79248000D01*
%TO.N,Net-(C13-Pad2)*%
X190618000Y-72136000D02*
X189738000Y-71256000D01*
X192093850Y-72136000D02*
X190618000Y-72136000D01*
%TO.N,Net-(C16-Pad2)*%
X206417000Y-91195000D02*
X206756000Y-90856000D01*
X202946000Y-91195000D02*
X206417000Y-91195000D01*
X199214000Y-84709000D02*
X200660000Y-84709000D01*
X200660000Y-84709000D02*
X204597000Y-88646000D01*
X204597000Y-89544000D02*
X202946000Y-91195000D01*
X204597000Y-88646000D02*
X204597000Y-89544000D01*
%TO.N,Net-(C17-Pad2)*%
X202320000Y-83439000D02*
X202946000Y-82813000D01*
X199214000Y-83439000D02*
X202320000Y-83439000D01*
X204403000Y-81356000D02*
X202946000Y-82813000D01*
X206756000Y-81356000D02*
X204403000Y-81356000D01*
%TO.N,/BP_CAN-*%
X197311000Y-101346000D02*
X195072000Y-103585000D01*
X195072000Y-103585000D02*
X195072000Y-103669694D01*
X195072000Y-103669694D02*
X194963847Y-103777847D01*
X193442600Y-108864400D02*
X193341000Y-108966000D01*
X183388000Y-76200000D02*
X186182000Y-76200000D01*
X186050347Y-65654347D02*
X185877200Y-65481200D01*
X185877200Y-67901570D02*
X186064015Y-68088385D01*
X185877200Y-65481200D02*
X185877200Y-67901570D01*
X194963847Y-103777847D02*
X192983053Y-103777847D01*
X192983053Y-103777847D02*
X191363600Y-105397300D01*
X192709800Y-108334800D02*
X193341000Y-108966000D01*
X192709800Y-107886500D02*
X192709800Y-108334800D01*
X188315600Y-76200000D02*
X186182000Y-76200000D01*
X191871600Y-76200000D02*
X188315600Y-76200000D01*
X195173600Y-79502000D02*
X191871600Y-76200000D01*
X195173600Y-90678000D02*
X195173600Y-79502000D01*
%TO.N,/BP_CAN+*%
X188966990Y-105044454D02*
X188966990Y-108246160D01*
X188966990Y-108246160D02*
X189179015Y-108458185D01*
X190555375Y-108458185D02*
X189179015Y-108458185D01*
X191414400Y-111506000D02*
X193341000Y-111506000D01*
X191414400Y-109317210D02*
X191414400Y-111506000D01*
X191414400Y-109317210D02*
X190555375Y-108458185D01*
X197311000Y-98806000D02*
X194157600Y-98806000D01*
X185318400Y-69037200D02*
X186385200Y-69037200D01*
X186385200Y-69037200D02*
X188468000Y-66954400D01*
X188468000Y-66954400D02*
X188468000Y-65786000D01*
X186893200Y-78740000D02*
X183388000Y-78740000D01*
X188417200Y-80264000D02*
X186893200Y-78740000D01*
X192328800Y-80264000D02*
X188417200Y-80264000D01*
X194157600Y-82092800D02*
X192328800Y-80264000D01*
X194157600Y-91643200D02*
X194157600Y-82092800D01*
X195205444Y-98806000D02*
X193411522Y-100599922D01*
X193598800Y-100412644D02*
X193411522Y-100599922D01*
X197311000Y-98806000D02*
X195205444Y-98806000D01*
X193411522Y-100599922D02*
X188966990Y-105044454D01*
%TO.N,/Cooling_CTRL*%
X217252000Y-108160000D02*
X218222002Y-108160000D01*
X218222002Y-108160000D02*
X218378401Y-108316399D01*
X218237000Y-108160000D02*
X218643200Y-108566200D01*
X217252000Y-108160000D02*
X218237000Y-108160000D01*
X218643200Y-108566200D02*
X218643200Y-113055400D01*
X218643200Y-113055400D02*
X218668600Y-113080800D01*
X178308000Y-104648000D02*
X178308000Y-94488000D01*
X178816000Y-75764198D02*
X178779901Y-75728099D01*
X178816000Y-82804000D02*
X178816000Y-75764198D01*
X182023001Y-74224001D02*
X182023001Y-72295001D01*
X180283999Y-75024999D02*
X181222003Y-75024999D01*
X182023001Y-72295001D02*
X180848000Y-71120000D01*
X179979788Y-75329210D02*
X180283999Y-75024999D01*
X179178790Y-75329210D02*
X179979788Y-75329210D01*
X178816000Y-75692000D02*
X179178790Y-75329210D01*
X181222003Y-75024999D02*
X182023001Y-74224001D01*
X178816000Y-75764198D02*
X178816000Y-75692000D01*
%TO.N,/SR_CTRL*%
X180848000Y-73660000D02*
X179628800Y-74879200D01*
X179628800Y-74879200D02*
X172008800Y-74879200D01*
X172008800Y-74879200D02*
X172008800Y-97764600D01*
X172008800Y-97764600D02*
X174580000Y-97764600D01*
X174580000Y-97764600D02*
X175935800Y-96408800D01*
%TO.N,/~MCLR~*%
X217256000Y-105156000D02*
X217252000Y-105160000D01*
X219655200Y-105160000D02*
X219659200Y-105156000D01*
X217252000Y-105160000D02*
X219655200Y-105160000D01*
X219659200Y-105156000D02*
X221183200Y-103632000D01*
X221183200Y-103632000D02*
X221183200Y-99364800D01*
X221183200Y-99364800D02*
X224637600Y-99364800D01*
X225755200Y-94030800D02*
X225755200Y-98247200D01*
X225755200Y-98247200D02*
X224739200Y-99263200D01*
X224637600Y-99364800D02*
X224739200Y-99263200D01*
X224739200Y-99263200D02*
X225044000Y-98958400D01*
%TO.N,/PGEC*%
X223415299Y-90166899D02*
X223520000Y-90062198D01*
X223977200Y-89604998D02*
X223034299Y-90547899D01*
X223977200Y-88188800D02*
X223977200Y-89604998D01*
X225755200Y-86410800D02*
X223977200Y-88188800D01*
X223034299Y-90547899D02*
X223415299Y-90166899D01*
X219557600Y-94024598D02*
X223034299Y-90547899D01*
X219557600Y-101447600D02*
X219557600Y-94024598D01*
X218845200Y-102160000D02*
X219557600Y-101447600D01*
X217252000Y-102160000D02*
X218845200Y-102160000D01*
%TO.N,/PGED*%
X217252000Y-101660000D02*
X217839600Y-101660000D01*
X225044000Y-83820000D02*
X223545400Y-85318600D01*
X218572409Y-101619991D02*
X217292009Y-101619991D01*
X223527190Y-87826010D02*
X223527190Y-89096010D01*
X223545400Y-85318600D02*
X223545400Y-87807800D01*
X218998800Y-101193600D02*
X218572409Y-101619991D01*
X218998800Y-93624400D02*
X218998800Y-101193600D01*
X223545400Y-87807800D02*
X223527190Y-87826010D01*
X217292009Y-101619991D02*
X217252000Y-101660000D01*
X223527190Y-89096010D02*
X218998800Y-93624400D01*
%TO.N,Net-(R10-Pad2)*%
X189914000Y-91059000D02*
X186944000Y-91059000D01*
%TO.N,Net-(U2-Pad3)*%
X190197000Y-101346000D02*
X199214000Y-92329000D01*
X188261000Y-101346000D02*
X190197000Y-101346000D01*
%TO.N,Net-(U2-Pad2)*%
X196008000Y-91059000D02*
X199214000Y-91059000D01*
X188261000Y-98806000D02*
X196008000Y-91059000D01*
%TO.N,/GPIO25*%
X174234300Y-83048300D02*
X173573800Y-83708800D01*
X176250600Y-82397600D02*
X174885000Y-82397600D01*
X178562000Y-84709000D02*
X176250600Y-82397600D01*
X174885000Y-82397600D02*
X174234300Y-83048300D01*
X189914000Y-84709000D02*
X178562000Y-84709000D01*
%TO.N,/PI_SPI_CEO*%
X175819801Y-87173801D02*
X174498801Y-87173801D01*
X174498801Y-87173801D02*
X173573800Y-86248800D01*
X178435000Y-89789000D02*
X175819801Y-87173801D01*
X189914000Y-89789000D02*
X178435000Y-89789000D01*
%TO.N,/GLV_RTN*%
X196596000Y-58166000D02*
X196596000Y-59191000D01*
X190999000Y-106426000D02*
X189992000Y-107433000D01*
X193341000Y-106426000D02*
X190999000Y-106426000D01*
X220227000Y-81835100D02*
X220599000Y-82207100D01*
X220227000Y-80060800D02*
X220227000Y-81835100D01*
X219329000Y-82207100D02*
X220599000Y-82207100D01*
X219329000Y-82207100D02*
X219329000Y-87566500D01*
X220599000Y-87566500D02*
X219329000Y-87566500D01*
X220599000Y-89340800D02*
X220227000Y-89712800D01*
X220599000Y-87566500D02*
X220599000Y-89340800D01*
X195881000Y-103886000D02*
X193341000Y-106426000D01*
X197311000Y-103886000D02*
X195881000Y-103886000D01*
X197311000Y-103886000D02*
X199343000Y-101854000D01*
X199343000Y-101854000D02*
X199898000Y-101854000D01*
X220227000Y-89712800D02*
X220227000Y-90313400D01*
X220227000Y-90313400D02*
X219303600Y-91236800D01*
X217271600Y-91236800D02*
X214884000Y-88849200D01*
X219303600Y-91236800D02*
X217271600Y-91236800D01*
X198619000Y-59681000D02*
X197104000Y-58166000D01*
X198619000Y-61214000D02*
X198619000Y-59681000D01*
D29*
X213563200Y-91287600D02*
X213461600Y-91186000D01*
X214884000Y-91287600D02*
X213563200Y-91287600D01*
X214884000Y-88849200D02*
X214884000Y-91287600D01*
X212009557Y-91186000D02*
X210958170Y-92237387D01*
X213461600Y-91186000D02*
X212009557Y-91186000D01*
D28*
X210616800Y-47574200D02*
X210762799Y-47428201D01*
X210616800Y-56591200D02*
X210616800Y-47574200D01*
X199212200Y-58166000D02*
X200787000Y-56591200D01*
X197104000Y-58166000D02*
X199212200Y-58166000D01*
X200787000Y-56591200D02*
X210616800Y-56591200D01*
X210159600Y-73279000D02*
X212274150Y-73279000D01*
X198619000Y-61214000D02*
X200350739Y-62945739D01*
X200350739Y-62945739D02*
X203170061Y-62945739D01*
X210039384Y-73158784D02*
X210159600Y-73279000D01*
X203170061Y-62945739D02*
X210039384Y-69815062D01*
X210039384Y-69815062D02*
X210039384Y-73158784D01*
X215138000Y-75590400D02*
X215569800Y-76022200D01*
X214376000Y-72399000D02*
X214376000Y-74828400D01*
X213496000Y-73279000D02*
X214376000Y-72399000D01*
X212274150Y-73279000D02*
X213496000Y-73279000D01*
X214376000Y-74209800D02*
X214376000Y-72399000D01*
X217800500Y-78252900D02*
X215061800Y-75514200D01*
X218419100Y-78252900D02*
X217800500Y-78252900D01*
X220227000Y-80060800D02*
X218419100Y-78252900D01*
X215061800Y-75514200D02*
X215569800Y-76022200D01*
X214807800Y-75260200D02*
X214884000Y-75184000D01*
X214807800Y-75260200D02*
X215061800Y-75514200D01*
X214376000Y-74828400D02*
X214807800Y-75260200D01*
%TO.N,/5V_NON_ISO*%
X218059000Y-89594800D02*
X218177000Y-89712800D01*
X218059000Y-87566500D02*
X218059000Y-89594800D01*
X197311000Y-96266000D02*
X198882000Y-96266000D01*
X198882000Y-96266000D02*
X199390000Y-96774000D01*
X189522998Y-114046000D02*
X193341000Y-114046000D01*
X216141300Y-87566500D02*
X214884000Y-86309200D01*
X218059000Y-87566500D02*
X216141300Y-87566500D01*
X213024720Y-48742600D02*
X213024720Y-64693800D01*
X213024720Y-64693800D02*
X214010240Y-65679320D01*
X214045800Y-68163440D02*
X214045800Y-69256800D01*
X214833200Y-86360000D02*
X214884000Y-86309200D01*
X211161800Y-86360000D02*
X214833200Y-86360000D01*
X188629400Y-113152402D02*
X189522998Y-114046000D01*
X188629400Y-109483000D02*
X188629400Y-113152402D01*
X189848600Y-109626400D02*
X189992000Y-109483000D01*
X188468000Y-109626400D02*
X189848600Y-109626400D01*
X213833600Y-69469000D02*
X214045800Y-69256800D01*
X214376000Y-70349000D02*
X214367000Y-70349000D01*
X214367000Y-70349000D02*
X213487000Y-69469000D01*
X212274150Y-69469000D02*
X213487000Y-69469000D01*
X213487000Y-69469000D02*
X213833600Y-69469000D01*
X215900000Y-71873000D02*
X214376000Y-70349000D01*
X223367600Y-81483200D02*
X218929401Y-77045001D01*
X218929401Y-77045001D02*
X217611999Y-77045001D01*
X217611999Y-77045001D02*
X215900000Y-75333002D01*
X223367600Y-83972400D02*
X223367600Y-81483200D01*
X215900000Y-75333002D02*
X215900000Y-71873000D01*
%TO.N,Net-(C2-Pad2)*%
X220827600Y-97646600D02*
X222859600Y-97646600D01*
X219659200Y-103106000D02*
X219659200Y-102870000D01*
X219659200Y-102870000D02*
X220624400Y-101904800D01*
X220624400Y-97849800D02*
X220827600Y-97646600D01*
X220624400Y-101904800D02*
X220624400Y-97849800D01*
%TO.N,/3.3V_ISO*%
X180095000Y-60960000D02*
X180095000Y-63500000D01*
X190618000Y-68326000D02*
X189738000Y-69206000D01*
X192093850Y-68326000D02*
X190618000Y-68326000D01*
X192093850Y-68326000D02*
X192093850Y-69596000D01*
X205096000Y-69469000D02*
X204470000Y-70095000D01*
X206825850Y-69469000D02*
X205096000Y-69469000D01*
X214332000Y-97589000D02*
X214332000Y-99740000D01*
X214884000Y-97037000D02*
X214332000Y-97589000D01*
X210820000Y-99728000D02*
X210832000Y-99740000D01*
X210820000Y-97037000D02*
X210820000Y-99728000D01*
X205912000Y-104660000D02*
X204927000Y-104660000D01*
X217252000Y-105660000D02*
X216404000Y-105660000D01*
X216404000Y-105660000D02*
X215773000Y-105029000D01*
X214332000Y-100755000D02*
X214332000Y-99740000D01*
X213995000Y-101092000D02*
X214332000Y-100755000D01*
X210832000Y-100925461D02*
X210832000Y-99740000D01*
X210922540Y-101016001D02*
X210832000Y-100925461D01*
X189992000Y-112776000D02*
X194614800Y-112776000D01*
X194614800Y-112776000D02*
X197815200Y-109575600D01*
X197815200Y-109575600D02*
X197815200Y-105918000D01*
X197815200Y-105918000D02*
X199948800Y-103784400D01*
X189738000Y-66802000D02*
X189738000Y-69206000D01*
X222910400Y-95545800D02*
X222859600Y-95596600D01*
X222910400Y-94234000D02*
X222910400Y-95545800D01*
X223012000Y-94234000D02*
X225755200Y-91490800D01*
X222910400Y-94234000D02*
X223012000Y-94234000D01*
X189738000Y-69206000D02*
X189738000Y-65278000D01*
X189738000Y-65278000D02*
X185420000Y-60960000D01*
X222910400Y-94234000D02*
X222859600Y-94234000D01*
X222859600Y-94234000D02*
X222250000Y-93624400D01*
X188171400Y-70772600D02*
X188171400Y-70807000D01*
X188171400Y-70807000D02*
X187960000Y-71018400D01*
X189738000Y-69206000D02*
X188171400Y-70772600D01*
X182023001Y-77564999D02*
X180848000Y-78740000D01*
X185972199Y-77564999D02*
X186080400Y-77673200D01*
X182023001Y-77564999D02*
X185972199Y-77564999D01*
X210332000Y-111080000D02*
X210332000Y-110095000D01*
X185420000Y-60960000D02*
X182133240Y-60960000D01*
X182133240Y-60960000D02*
X180095000Y-60960000D01*
X202438000Y-102099000D02*
X202438000Y-100584000D01*
X210332000Y-110095000D02*
X210454700Y-109972300D01*
X210639599Y-109787401D02*
X210454700Y-109972300D01*
X214122000Y-109745202D02*
X214164199Y-109787401D01*
X212648800Y-89712800D02*
X210413600Y-89712800D01*
X204470000Y-70095000D02*
X202701000Y-70095000D01*
X193379725Y-67040125D02*
X192093850Y-68326000D01*
X193885651Y-66534199D02*
X193379725Y-67040125D01*
X201306599Y-66534199D02*
X193885651Y-66534199D01*
X204470000Y-69697600D02*
X201306599Y-66534199D01*
X204470000Y-70095000D02*
X204470000Y-69697600D01*
X204359400Y-102099000D02*
X202438000Y-102099000D01*
X204654400Y-104387400D02*
X204654400Y-102089200D01*
X204927000Y-104660000D02*
X204654400Y-104387400D01*
X204644600Y-102099000D02*
X204359400Y-102099000D01*
X204654400Y-102089200D02*
X204644600Y-102099000D01*
X217576400Y-113411000D02*
X216493200Y-113411000D01*
X217601800Y-110744000D02*
X217601800Y-113385600D01*
X217601800Y-113385600D02*
X217576400Y-113411000D01*
X214164199Y-109787401D02*
X216645201Y-109787401D01*
X216645201Y-109787401D02*
X217601800Y-110744000D01*
X213332000Y-111080000D02*
X213332000Y-112138400D01*
X213332000Y-112138400D02*
X213436200Y-112242600D01*
X216331800Y-112242600D02*
X216331800Y-113249600D01*
X216331800Y-113249600D02*
X216493200Y-113411000D01*
X213436200Y-112242600D02*
X216331800Y-112242600D01*
X210332000Y-112950200D02*
X210332000Y-111080000D01*
X209845800Y-113436400D02*
X210332000Y-112950200D01*
X212403401Y-109787401D02*
X212403401Y-105723401D01*
X212403401Y-109787401D02*
X210639599Y-109787401D01*
X212403401Y-105723401D02*
X212344000Y-105664000D01*
X214164199Y-109787401D02*
X212403401Y-109787401D01*
X210321000Y-97536000D02*
X210820000Y-97037000D01*
X208788000Y-97536000D02*
X210321000Y-97536000D01*
X222859600Y-95596600D02*
X224120600Y-95596600D01*
X224120600Y-95596600D02*
X224120600Y-97120600D01*
X224120600Y-97120600D02*
X224536000Y-97536000D01*
X227076000Y-97536000D02*
X227076000Y-107696000D01*
X227076000Y-107696000D02*
X223520000Y-107696000D01*
X223012000Y-107188000D02*
X223012000Y-106172000D01*
X223520000Y-107696000D02*
X223012000Y-107188000D01*
%TO.N,/5V_ISO*%
X185048000Y-91059000D02*
X187207000Y-93218000D01*
X184894000Y-91059000D02*
X185048000Y-91059000D01*
X185420000Y-99107000D02*
X188261000Y-96266000D01*
X185420000Y-99813000D02*
X185420000Y-99107000D01*
X200890990Y-98625010D02*
X200980000Y-98536000D01*
X200890990Y-112545990D02*
X200890990Y-98625010D01*
X202391000Y-114046000D02*
X200890990Y-112545990D01*
X189118444Y-99813000D02*
X194443444Y-94488000D01*
X185420000Y-99813000D02*
X189118444Y-99813000D01*
X194443444Y-94488000D02*
X195834000Y-94488000D01*
X195834000Y-94488000D02*
X196029694Y-94488000D01*
X196029694Y-94488000D02*
X196033447Y-94484247D01*
X200812400Y-98368400D02*
X200980000Y-98536000D01*
X200812400Y-94538800D02*
X200812400Y-98368400D01*
X189025000Y-93218000D02*
X189914000Y-92329000D01*
X184894000Y-91059000D02*
X183057800Y-91059000D01*
X183057800Y-91059000D02*
X183032400Y-91033600D01*
X187207000Y-93218000D02*
X189025000Y-93218000D01*
X188261000Y-96266000D02*
X188261000Y-94272000D01*
X188261000Y-94272000D02*
X187207000Y-93218000D01*
X199805400Y-68326000D02*
X200050400Y-68571000D01*
X197542150Y-68326000D02*
X199805400Y-68326000D01*
X200050400Y-68571000D02*
X200050400Y-67259200D01*
X197542150Y-72136000D02*
X199999600Y-72136000D01*
X199999600Y-72136000D02*
X200152000Y-72136000D01*
D29*
X196799200Y-80829999D02*
X196799200Y-77216000D01*
X199999600Y-76352400D02*
X207670400Y-76352400D01*
X207670400Y-76352400D02*
X209804000Y-78486000D01*
D28*
X195459402Y-76352400D02*
X195291101Y-76184099D01*
D29*
X197815200Y-76352400D02*
X197662800Y-76352400D01*
X199999600Y-76352400D02*
X197815200Y-76352400D01*
X197815200Y-76352400D02*
X196799200Y-76352400D01*
X196799200Y-77216000D02*
X196799200Y-76352400D01*
X196799200Y-76352400D02*
X195459402Y-76352400D01*
D28*
X203000600Y-113436400D02*
X202391000Y-114046000D01*
X205578600Y-113436400D02*
X203000600Y-113436400D01*
%TO.N,/SDA_ISO_PI*%
X177933800Y-60848800D02*
X178045000Y-60960000D01*
X175935800Y-60848800D02*
X177933800Y-60848800D01*
X217252000Y-106660000D02*
X220248800Y-106660000D01*
X179070010Y-59934990D02*
X178045000Y-60960000D01*
X200636010Y-65227200D02*
X190652400Y-65227200D01*
X190652400Y-65227200D02*
X185360190Y-59934990D01*
X204273409Y-68864599D02*
X200636010Y-65227200D01*
X207806100Y-70739000D02*
X207881101Y-70663999D01*
X207881101Y-68929599D02*
X207816101Y-68864599D01*
X207881101Y-70663999D02*
X207881101Y-68929599D01*
X185360190Y-59934990D02*
X179070010Y-59934990D01*
X206825850Y-70739000D02*
X207806100Y-70739000D01*
X207816101Y-68864599D02*
X204273409Y-68864599D01*
X179070010Y-59934990D02*
X179070010Y-58831636D01*
X179070010Y-58831636D02*
X179052147Y-58813773D01*
X220700600Y-107071160D02*
X220705680Y-107076240D01*
X220659960Y-107071160D02*
X220700600Y-107071160D01*
X220659960Y-107071160D02*
X221790599Y-108201799D01*
X220248800Y-106660000D02*
X220659960Y-107071160D01*
X206917290Y-70830440D02*
X206825850Y-70739000D01*
X208574640Y-70830440D02*
X206917290Y-70830440D01*
X217733880Y-98506280D02*
X218236800Y-99009200D01*
X217733880Y-92252800D02*
X217733880Y-98506280D01*
X208763722Y-74442320D02*
X208630520Y-74442320D01*
X212648800Y-78327398D02*
X208763722Y-74442320D01*
X212648800Y-78384400D02*
X212648800Y-78327398D01*
X226057799Y-108201799D02*
X227281401Y-109425401D01*
X221790599Y-108201799D02*
X226057799Y-108201799D01*
%TO.N,/SCL_ISO_PI*%
X176047000Y-63500000D02*
X175935800Y-63388800D01*
X178045000Y-63500000D02*
X176047000Y-63500000D01*
X206825850Y-72009000D02*
X207806100Y-72009000D01*
X216966800Y-99161600D02*
X218084400Y-100279200D01*
X216966800Y-92608400D02*
X216966800Y-99161600D01*
X211886800Y-92608400D02*
X216966800Y-92608400D01*
X178045000Y-63500000D02*
X179264200Y-64719200D01*
X179264200Y-64719200D02*
X188153894Y-64719200D01*
X188153894Y-64719200D02*
X188158547Y-64723853D01*
X209395068Y-72009000D02*
X209589374Y-72203306D01*
X206825850Y-72009000D02*
X209395068Y-72009000D01*
X209589374Y-72203306D02*
X209589374Y-70001462D01*
X209589374Y-73792274D02*
X211886800Y-76089700D01*
X209589374Y-72203306D02*
X209589374Y-73792274D01*
X190657644Y-63657644D02*
X190373000Y-63373000D01*
X203245556Y-63657644D02*
X190657644Y-63657644D01*
X209589374Y-70001462D02*
X203245556Y-63657644D01*
X219950094Y-110349094D02*
X219125800Y-109524800D01*
X219125800Y-109524800D02*
X219125800Y-107188000D01*
X219097800Y-107160000D02*
X217252000Y-107160000D01*
X219125800Y-107188000D02*
X219097800Y-107160000D01*
%TO.N,/SCL_TSI_GLV*%
X211293900Y-72009000D02*
X212274150Y-72009000D01*
X211293900Y-72009000D02*
X210896200Y-72009000D01*
X210896200Y-72009000D02*
X210870800Y-72034400D01*
X183642000Y-73914000D02*
X183388000Y-73660000D01*
X185978800Y-75285600D02*
X184607200Y-73914000D01*
X195630800Y-75285600D02*
X185978800Y-75285600D01*
X184607200Y-73914000D02*
X183642000Y-73914000D01*
X195630800Y-75285600D02*
X208534000Y-75285600D01*
X208534000Y-75285600D02*
X209092800Y-75844400D01*
%TO.N,/SDA_TSI_GLV*%
X185558599Y-73290599D02*
X183388000Y-71120000D01*
X201537401Y-73290599D02*
X185558599Y-73290599D01*
X208864200Y-66852800D02*
X208813400Y-66903600D01*
X208813400Y-67729100D02*
X208813400Y-66903600D01*
X211823300Y-70739000D02*
X208813400Y-67729100D01*
X212274150Y-70739000D02*
X211823300Y-70739000D01*
X221183200Y-66852800D02*
X208864200Y-66852800D01*
X220742400Y-75320000D02*
X221183200Y-74879200D01*
X218440000Y-75320000D02*
X220742400Y-75320000D01*
X221183200Y-66852800D02*
X221183200Y-74879200D01*
%TO.N,/V_OUT_TEMP*%
X209098002Y-98536000D02*
X202880000Y-98536000D01*
X209332000Y-98769998D02*
X209098002Y-98536000D01*
X209332000Y-99740000D02*
X209332000Y-98769998D01*
%TO.N,/PIC_TXD*%
X204474000Y-105660000D02*
X205912000Y-105660000D01*
X204102790Y-108622010D02*
X204102790Y-106031210D01*
X203758800Y-108966000D02*
X204102790Y-108622010D01*
X204102790Y-106031210D02*
X204474000Y-105660000D01*
X202391000Y-108966000D02*
X203758800Y-108966000D01*
%TO.N,/PIC_RXD*%
X204341020Y-109555980D02*
X202391000Y-111506000D01*
X205912000Y-106160000D02*
X204927000Y-106160000D01*
X204552800Y-109344200D02*
X204341020Y-109555980D01*
X204552800Y-106534200D02*
X204552800Y-109344200D01*
X204927000Y-106160000D02*
X204552800Y-106534200D01*
%TO.N,/PI_SPI_MOSI*%
X189914000Y-87249000D02*
X191693800Y-87249000D01*
X191693800Y-87249000D02*
X191922400Y-87020400D01*
X191922400Y-87020400D02*
X191922400Y-81280000D01*
X191922400Y-81280000D02*
X191820800Y-81178400D01*
X175935800Y-81168800D02*
X178409200Y-83642200D01*
X178409200Y-83642200D02*
X187756800Y-83642200D01*
X187756800Y-81305400D02*
X187883800Y-81178400D01*
X187756800Y-83642200D02*
X187756800Y-81305400D01*
X191820800Y-81178400D02*
X187883800Y-81178400D01*
%TO.N,/PI_SPI_SCLK*%
X189914000Y-85979000D02*
X181483000Y-85979000D01*
X181483000Y-85979000D02*
X178435900Y-85979000D01*
X178435900Y-85979000D02*
X178054900Y-86360000D01*
%TO.N,/PI_SPI_MISO*%
X177329900Y-87312300D02*
X177329900Y-85102900D01*
X178536600Y-88519000D02*
X177329900Y-87312300D01*
X177329900Y-85102900D02*
X175935800Y-83708800D01*
X189914000Y-88519000D02*
X178536600Y-88519000D01*
%TO.N,/ISO_RTN*%
X192093850Y-70866000D02*
X194665600Y-70866000D01*
X197542150Y-69596000D02*
X197542150Y-70866000D01*
X197542150Y-70866000D02*
X196561900Y-70866000D01*
X205604000Y-73279000D02*
X204470000Y-72145000D01*
X206825850Y-73279000D02*
X205604000Y-73279000D01*
X204724000Y-94987000D02*
X206756000Y-94987000D01*
X206756000Y-94987000D02*
X208788000Y-94987000D01*
X203479000Y-94987000D02*
X201930000Y-96536000D01*
X204724000Y-94987000D02*
X203479000Y-94987000D01*
X208788000Y-94987000D02*
X210820000Y-94987000D01*
X202391000Y-104196000D02*
X202438000Y-104149000D01*
X202391000Y-106426000D02*
X202391000Y-104196000D01*
X217252000Y-106160000D02*
X216267000Y-106160000D01*
X215900000Y-106527000D02*
X215900000Y-106680000D01*
X216267000Y-106160000D02*
X215900000Y-106527000D01*
X201540000Y-82169000D02*
X202946000Y-80763000D01*
X199214000Y-82169000D02*
X201540000Y-82169000D01*
X205912000Y-102160000D02*
X205912000Y-102639999D01*
X205912000Y-102639999D02*
X205912000Y-102660000D01*
X186238000Y-101863000D02*
X185420000Y-101863000D01*
X188261000Y-103886000D02*
X186238000Y-101863000D01*
X182372000Y-98815000D02*
X185420000Y-101863000D01*
X182372000Y-97536000D02*
X182372000Y-98815000D01*
X185157000Y-94751000D02*
X182372000Y-97536000D01*
X185157000Y-93218000D02*
X185157000Y-94751000D01*
X203479000Y-94987000D02*
X203479000Y-95224200D01*
X203479000Y-95224200D02*
X203809600Y-95554800D01*
X202946000Y-89145000D02*
X202946000Y-88950800D01*
X202946000Y-88950800D02*
X201879200Y-87884000D01*
X220827600Y-95596600D02*
X220827600Y-94335600D01*
X220827600Y-94335600D02*
X220573600Y-94081600D01*
X194665600Y-70866000D02*
X197542150Y-70866000D01*
X206825850Y-73279000D02*
X206825850Y-74237850D01*
X206825850Y-74237850D02*
X207010000Y-74422000D01*
X199214000Y-82169000D02*
X195961000Y-82169000D01*
X195961000Y-82169000D02*
X195961000Y-78968600D01*
X195961000Y-78968600D02*
X195580000Y-78587600D01*
X201540000Y-82169000D02*
X201540000Y-81194800D01*
X201540000Y-81194800D02*
X201015600Y-80670400D01*
X199805400Y-70866000D02*
X200050400Y-70621000D01*
X197542150Y-70866000D02*
X199805400Y-70866000D01*
X204470000Y-72145000D02*
X202955000Y-72145000D01*
X201431000Y-70621000D02*
X200050400Y-70621000D01*
X202955000Y-72145000D02*
X201431000Y-70621000D01*
X205912000Y-102660000D02*
X207067600Y-102660000D01*
X207067600Y-102660000D02*
X207365600Y-102362000D01*
X188261000Y-103886000D02*
X186588400Y-103886000D01*
X186588400Y-103886000D02*
X184912000Y-105562400D01*
D29*
X173573800Y-93868800D02*
X174573801Y-92868799D01*
X179832000Y-93484798D02*
X179216001Y-92868799D01*
X179832000Y-97536000D02*
X179832000Y-93484798D01*
X174573801Y-92868799D02*
X179216001Y-92868799D01*
D28*
X184902400Y-106568800D02*
X184912000Y-106578400D01*
X175935800Y-106568800D02*
X184902400Y-106568800D01*
X184912000Y-105562400D02*
X184912000Y-106578400D01*
X184912000Y-106578400D02*
X184912000Y-112776000D01*
X203958000Y-104059800D02*
X203860400Y-103962200D01*
X203958000Y-105160000D02*
X203958000Y-104059800D01*
X205912000Y-105160000D02*
X203958000Y-105160000D01*
X202624800Y-103962200D02*
X202438000Y-104149000D01*
X203860400Y-103962200D02*
X202624800Y-103962200D01*
X212832000Y-111080000D02*
X212832000Y-112400400D01*
X207628600Y-113436400D02*
X207628600Y-112785000D01*
X207628600Y-112785000D02*
X206502000Y-111658400D01*
X202391000Y-107133400D02*
X202158600Y-107365800D01*
X202391000Y-106426000D02*
X202391000Y-107133400D01*
X207628600Y-113436400D02*
X207628600Y-114646600D01*
X211895800Y-114570400D02*
X211819600Y-114646600D01*
X211895800Y-113436400D02*
X211895800Y-114570400D01*
X207628600Y-114646600D02*
X211819600Y-114646600D01*
X214417800Y-113436400D02*
X214443200Y-113411000D01*
X212832000Y-112400400D02*
X213842600Y-113411000D01*
X213842600Y-113411000D02*
X214443200Y-113411000D01*
X211921200Y-113411000D02*
X211895800Y-113436400D01*
X213842600Y-113411000D02*
X211921200Y-113411000D01*
X210832000Y-112372600D02*
X210832000Y-111080000D01*
X211895800Y-113436400D02*
X210832000Y-112372600D01*
X211845010Y-98256988D02*
X211332000Y-98769998D01*
X211845010Y-96012010D02*
X211845010Y-98256988D01*
X211332000Y-98769998D02*
X211332000Y-99740000D01*
X210820000Y-94987000D02*
X211845010Y-96012010D01*
X213858990Y-96012010D02*
X213858990Y-98561010D01*
X213832000Y-99740000D02*
X213832000Y-98588000D01*
X213858990Y-98561010D02*
X213832000Y-98588000D01*
X214884000Y-94987000D02*
X213858990Y-96012010D01*
X213832000Y-98588000D02*
X213832000Y-98363600D01*
X212843000Y-94987000D02*
X212852000Y-94996000D01*
X212843000Y-94987000D02*
X214884000Y-94987000D01*
X210820000Y-94987000D02*
X212843000Y-94987000D01*
%TO.N,/FlowRate*%
X209043400Y-93473400D02*
X208130400Y-94386400D01*
X208130400Y-94386400D02*
X202438000Y-94386400D01*
X202438000Y-94386400D02*
X201066400Y-93014800D01*
X215290400Y-98399600D02*
X216458800Y-98399600D01*
X216458800Y-98399600D02*
X216516790Y-98341610D01*
X216516790Y-98341610D02*
X216516790Y-93479190D01*
X216511000Y-93473400D02*
X209043400Y-93473400D01*
X216516790Y-93479190D02*
X216511000Y-93473400D01*
X214832000Y-98858000D02*
X215290400Y-98399600D01*
X214832000Y-99740000D02*
X214832000Y-98858000D01*
%TO.N,/STATE_OUT_1*%
X207467200Y-105486200D02*
X207467200Y-104927400D01*
X207029500Y-105923900D02*
X207467200Y-105486200D01*
X205912000Y-108160000D02*
X207029500Y-108160000D01*
X207029500Y-108160000D02*
X207029500Y-105923900D01*
%TO.N,/STATE_OUT_2*%
X207832000Y-111080000D02*
X207832000Y-108479900D01*
X207832000Y-111080000D02*
X207832000Y-108677400D01*
%TO.N,/STATE_OUT_3*%
X208332000Y-109853800D02*
X208332000Y-111080000D01*
X208737200Y-109448600D02*
X208332000Y-109853800D01*
%TD*%
M02*
