M48
; DRILL file {KiCad (5.1.6)-1} date 04/27/21 14:52:24
; FORMAT={-:-/ absolute / inch / decimal}
; #@! TF.CreationDate,2021-04-27T14:52:24-04:00
; #@! TF.GenerationSoftware,Kicad,Pcbnew,(5.1.6)-1
; #@! TF.FileFunction,Plated,1,2,PTH
FMAT,2
INCH
T1C0.0157
T2C0.0300
T3C0.0315
T4C0.0394
T5C0.0433
T6C0.0472
T7C0.0512
T8C0.0550
T9C0.0551
T10C0.0591
T11C0.0709
T12C0.0886
T13C0.1319
T14C0.1378
%
G90
G05
T1
X4.58Y-2.58
X4.635Y-2.615
X4.6375Y-6.0058
X4.64Y-3.32
X4.64Y-5.775
X4.6627Y-2.7809
X4.675Y-3.5929
X4.6845Y-4.9758
X4.7128Y-4.6959
X4.8Y-3.58
X4.82Y-3.42
X4.875Y-3.57
X4.88Y-3.76
X4.8987Y-4.1749
X4.915Y-5.555
X4.9359Y-4.2253
X4.9517Y-2.8967
X4.9735Y-3.2021
X4.975Y-4.005
X4.9876Y-3.6924
X4.99Y-3.92
X5.0377Y-4.3237
X5.0629Y-5.6849
X5.11Y-5.555
X5.115Y-3.18
X5.1177Y-3.5752
X5.1196Y-4.1542
X5.12Y-3.4394
X5.1269Y-5.4344
X5.16Y-4.215
X5.17Y-3.76
X5.182Y-3.2
X5.2344Y-7.6937
X5.3066Y-6.4678
X5.31Y-4.165
X5.3325Y-8.105
X5.3355Y-6.9108
X5.4Y-6.0144
X5.4082Y-7.3165
X5.425Y-8.1075
X5.4661Y-5.4417
X5.4718Y-7.5295
X5.48Y-5.68
X5.52Y-7.675
X5.5396Y-6.3491
X5.5425Y-7.733
X5.565Y-4.32
X5.57Y-4.005
X5.5725Y-7.665
X5.58Y-5.79
X5.6037Y-7.7212
X5.6193Y-7.31
X5.6327Y-5.2754
X5.6402Y-6.2912
X5.6752Y-6.8077
X5.6775Y-4.0475
X5.7Y-6.105
X5.7022Y-7.5833
X5.7102Y-6.6828
X5.7324Y-7.4339
X5.745Y-6.28
X5.7937Y-7.6101
X5.8107Y-5.5204
X5.815Y-5.805
X5.825Y-5.715
X5.8776Y-7.4015
X5.9031Y-6.1967
X5.9501Y-6.2305
X6.0958Y-3.8056
X6.1Y-4.235
X6.1038Y-4.4594
X6.125Y-5.86
X6.1342Y-7.4303
X6.1436Y-6.0725
X6.145Y-6.25
X6.1878Y-7.205
X6.1969Y-6.128
X6.205Y-5.98
X6.239Y-6.9486
X6.241Y-6.814
X6.2443Y-7.1323
X6.3029Y-7.263
X6.308Y-6.9333
X6.325Y-5.93
X6.34Y-7.82
X6.3862Y-7.1321
X6.3983Y-7.2534
X6.425Y-6.195
X6.453Y-6.9668
X6.4637Y-6.0737
X6.5309Y-7.3274
X6.575Y-7.65
X6.6409Y-7.1681
X6.6481Y-7.2142
X6.655Y-7.815
X6.75Y-7.865
X6.7524Y-7.1409
X6.7732Y-7.4482
X6.7743Y-4.6513
X6.7888Y-4.2894
X6.82Y-7.715
X6.845Y-7.355
X6.8805Y-7.2309
X6.9091Y-7.6276
X6.9583Y-7.2678
X6.9838Y-3.9957
X6.9845Y-7.5951
X7.075Y-7.65
X7.16Y-4.73
X7.16Y-5.945
X7.18Y-7.59
X7.26Y-7.755
X7.3312Y-3.2546
X7.4268Y-3.7564
X7.4572Y-7.1113
X7.4624Y-8.4465
X7.4898Y-4.5081
X7.4905Y-7.7263
X7.4935Y-3.7401
X7.555Y-7.845
X7.57Y-8.265
X7.595Y-8.115
X7.6442Y-5.8844
X7.6822Y-5.2351
X7.7125Y-5.1025
X7.7173Y-8.4436
X7.7224Y-3.1658
X7.7413Y-3.0513
X7.76Y-8.18
X7.7817Y-5.8837
X7.825Y-2.9
X7.8356Y-4.8856
X7.8525Y-5.085
X7.854Y-5.2242
X7.8742Y-3.5251
X7.88Y-3.7515
X7.9043Y-5.4757
X7.927Y-4.3448
X7.9441Y-4.7273
X7.9522Y-5.2728
X7.9531Y-3.1748
X7.9639Y-5.8493
X8.0Y-5.4
X8.011Y-5.3299
X8.059Y-2.7331
X8.0703Y-5.274
X8.1067Y-5.4735
X8.1119Y-4.731
X8.1242Y-2.6165
X8.1355Y-4.2251
X8.1469Y-7.9926
X8.2157Y-5.9328
X8.2183Y-4.2873
X8.2223Y-5.2994
X8.2293Y-4.9117
X8.2449Y-2.4476
X8.2575Y-7.5225
X8.2581Y-2.6255
X8.2745Y-4.921
X8.32Y-5.26
X8.3675Y-6.75
X8.3826Y-4.8023
X8.3841Y-6.4501
X8.4059Y-7.4247
X8.4152Y-4.9278
X8.4175Y-7.3625
X8.4425Y-7.9325
X8.4526Y-6.1314
X8.4794Y-3.317
X8.4832Y-4.2567
X8.4852Y-3.3641
X8.4978Y-2.2429
X8.5126Y-7.8731
X8.5193Y-3.8293
X8.5229Y-5.3569
X8.5302Y-3.9101
X8.5363Y-5.8581
X8.5482Y-3.5476
X8.5567Y-2.4026
X8.5575Y-2.9575
X8.5625Y-2.875
X8.5669Y-7.538
X8.5684Y-3.8362
X8.5762Y-5.6474
X8.5831Y-3.4035
X8.6Y-5.32
X8.602Y-5.8159
X8.6118Y-5.4077
X8.6363Y-2.8165
X8.64Y-8.02
X8.66Y-3.4573
X8.66Y-5.3
X8.68Y-5.94
X8.6896Y-4.3719
X8.7Y-3.5191
X8.7054Y-7.7831
X8.707Y-4.2674
X8.71Y-5.8281
X8.7139Y-4.4611
X8.725Y-8.195
X8.735Y-3.255
X8.7357Y-3.8597
X8.7384Y-3.5781
X8.7435Y-5.4918
X8.77Y-7.41
X8.7744Y-5.2467
X8.7791Y-4.2936
X8.78Y-5.86
X8.79Y-3.3525
X8.7913Y-7.5298
X8.7963Y-7.328
X8.8Y-8.0
X8.8131Y-3.9268
X8.8237Y-4.1688
X8.8307Y-4.5035
X8.84Y-5.78
X8.86Y-6.0
X8.8622Y-7.6299
X8.8709Y-3.8369
X8.8765Y-8.105
X8.88Y-7.86
X8.8862Y-7.1016
X8.8873Y-5.4019
X8.8874Y-5.5973
X8.8974Y-5.487
X8.8989Y-8.2102
X8.9024Y-6.2392
X8.9058Y-5.9212
X8.92Y-5.86
X8.9213Y-7.621
X8.9334Y-7.4135
X8.9338Y-6.3746
X8.9358Y-4.3059
X8.936Y-6.8391
X8.94Y-7.7
X8.9416Y-4.1157
X8.9431Y-4.1688
X8.9517Y-7.3126
X8.9619Y-6.1478
X8.98Y-7.78
X8.99Y-7.42
X9.005Y-7.47
X9.0209Y-7.7009
X9.0282Y-5.0966
X9.0384Y-7.9209
X9.04Y-3.92
X9.0416Y-7.4234
X9.0432Y-4.6336
X9.0475Y-7.3675
X9.05Y-3.685
X9.06Y-6.24
X9.0731Y-7.7969
X9.08Y-8.0
X9.0865Y-4.9435
X9.0979Y-3.7304
X9.1Y-8.12
X9.1075Y-7.935
X9.1302Y-7.6439
X9.1368Y-7.2124
X9.16Y-7.7969
X9.1709Y-5.5069
X9.1762Y-7.6017
X9.1884Y-7.741
X9.2001Y-3.914
X9.212Y-3.6729
X9.2131Y-5.55
X9.2401Y-7.8872
X9.2419Y-8.0026
X9.2432Y-3.2999
X9.2525Y-8.0775
X9.2583Y-7.3041
X9.28Y-5.78
X9.2825Y-7.975
X9.3051Y-4.0658
X9.32Y-4.14
X9.3379Y-7.4804
X9.3481Y-7.0958
X9.3481Y-7.26
X9.3525Y-2.7215
X9.3555Y-4.0781
X9.3572Y-6.9217
X9.3575Y-2.8075
X9.36Y-7.7425
X9.3663Y-3.208
X9.42Y-2.8
X9.4375Y-7.51
X9.44Y-7.8925
X9.4415Y-4.1561
X9.48Y-3.44
X9.4825Y-8.105
X9.485Y-3.5848
X9.4904Y-8.0171
X9.5025Y-3.185
X9.509Y-3.3596
X9.5143Y-4.4787
X9.5175Y-2.695
X9.525Y-7.985
X9.5377Y-2.7911
X9.5391Y-3.7415
X9.549Y-6.7432
X9.5577Y-6.7835
X9.5596Y-2.616
X9.6Y-2.9865
X9.6028Y-7.4715
X9.6203Y-2.9143
X9.635Y-7.9125
X9.6373Y-3.3988
X9.6416Y-6.7466
X9.6488Y-3.1286
X9.6542Y-7.255
X9.6595Y-3.9467
X9.66Y-2.5
X9.6619Y-3.5395
X9.6634Y-6.8899
X9.6713Y-8.0998
X9.6775Y-2.6875
X9.68Y-3.1985
X9.6816Y-3.419
X9.7Y-6.36
X9.7075Y-2.9909
X9.7156Y-4.2165
X9.74Y-3.94
X9.7447Y-6.8787
X9.7489Y-2.9266
X9.7593Y-2.5
X9.7825Y-4.1275
X9.7837Y-7.3833
X9.7944Y-3.0194
X9.8Y-3.4475
X9.8125Y-3.3475
X9.82Y-3.18
X9.82Y-3.86
X9.8283Y-2.2898
X9.8283Y-5.3134
X9.8292Y-3.4212
X9.8347Y-2.9229
X9.8374Y-3.0817
X9.8625Y-2.6526
X9.863Y-2.2714
X9.8701Y-3.644
X9.8706Y-3.7387
X9.895Y-7.865
X9.9Y-4.0
X9.9Y-5.78
X9.9225Y-3.6575
X9.9225Y-3.735
X9.9233Y-5.5633
X9.9519Y-2.6269
X9.9575Y-3.7925
X9.96Y-3.08
X9.96Y-4.12
X9.9631Y-3.3401
X9.9675Y-2.9225
X9.9825Y-2.8353
X9.9827Y-5.7457
X9.9872Y-2.4542
X9.9872Y-2.7963
X9.9912Y-2.3682
X9.995Y-3.2525
X9.9975Y-3.4475
X10.0025Y-3.0775
X10.015Y-3.8625
X10.0175Y-3.33
X10.0195Y-3.6314
X10.02Y-3.14
X10.0275Y-2.5724
X10.0316Y-5.7035
X10.0375Y-7.8375
X10.085Y-2.4875
X10.085Y-3.475
X10.0946Y-5.2814
X10.1163Y-3.0098
X10.1287Y-2.698
X10.131Y-3.8589
X10.1381Y-4.2172
X10.14Y-3.2
X10.1485Y-3.7896
X10.1553Y-4.0268
X10.1741Y-3.0059
X10.175Y-3.3441
X10.1957Y-3.2871
X10.2015Y-3.244
X10.2031Y-4.4219
X10.22Y-2.86
X10.2453Y-2.7921
X10.2652Y-2.6474
X10.29Y-2.895
X10.2937Y-2.7098
X10.2994Y-3.7544
X10.3054Y-2.6268
X10.32Y-2.4575
X10.324Y-3.5877
X10.3384Y-3.2411
X10.3389Y-3.5217
X10.3406Y-3.8614
X10.3495Y-3.0404
X10.3635Y-3.4615
X10.3841Y-3.0688
X10.4Y-2.84
X10.4Y-3.38
X10.4201Y-2.9291
X10.4217Y-3.0805
X10.4225Y-3.2425
X10.425Y-3.6125
X10.4278Y-3.1409
X10.4564Y-3.394
X10.4564Y-4.6583
X10.46Y-2.5298
X10.4613Y-4.1509
X10.4672Y-2.9228
X10.4933Y-2.4549
X10.4981Y-3.9619
X10.52Y-2.7
X10.535Y-3.165
X10.56Y-2.62
X10.595Y-4.025
X10.5981Y-3.1072
X10.5981Y-3.6581
X10.625Y-3.0
X10.6475Y-3.7232
X10.69Y-3.17
X10.7Y-5.62
X10.7704Y-5.2639
X10.81Y-4.3
X10.8131Y-4.5817
X10.82Y-5.34
X10.84Y-2.805
X10.845Y-4.135
X10.86Y-2.28
X10.8696Y-2.6696
X10.8697Y-4.79
X10.875Y-4.065
X10.885Y-4.225
X10.895Y-2.865
X10.9287Y-2.4633
X10.9362Y-2.6434
X10.9805Y-2.3595
X11.0331Y-4.5287
X11.0377Y-5.3799
X11.0882Y-3.8736
X11.235Y-5.0835
X11.281Y-2.9853
X11.3391Y-4.4544
X11.35Y-4.695
X11.74Y-5.22
X11.88Y-5.22
T2
X10.644Y-6.061
X10.644Y-7.051
X10.644Y-7.151
X11.244Y-6.061
X11.244Y-7.151
T3
X8.02Y-7.825
X8.02Y-7.925
X8.02Y-8.025
X7.89Y-2.5222
X7.89Y-2.66
T4
X6.67Y-4.025
X6.67Y-4.125
X6.67Y-4.225
X10.45Y-8.35
X10.55Y-8.35
X6.025Y-4.125
X6.025Y-4.225
X6.35Y-4.125
X6.35Y-4.225
X8.35Y-5.55
X8.45Y-5.55
X8.55Y-5.55
X9.825Y-8.35
X9.825Y-8.45
X5.875Y-4.125
X5.875Y-4.225
X4.575Y-2.185
X4.675Y-2.185
X4.775Y-2.185
X4.875Y-2.185
X10.45Y-8.075
X10.55Y-8.075
X6.475Y-7.67
X6.475Y-7.77
X6.475Y-7.87
X6.195Y-4.125
X6.195Y-4.225
X7.925Y-3.575
X8.025Y-3.575
X5.375Y-8.2
X5.375Y-8.3
X10.84Y-3.04
X10.84Y-3.14
X10.84Y-3.24
X10.84Y-3.34
X10.84Y-3.44
X10.94Y-3.04
X10.94Y-3.14
X10.94Y-3.24
X10.94Y-3.34
X10.94Y-3.44
X10.45Y-7.8
X10.55Y-7.8
X4.8Y-7.425
X4.9Y-7.425
X11.2Y-3.3
X11.2Y-3.4
X6.51Y-4.125
X6.51Y-4.225
T5
X4.865Y-2.385
X4.865Y-2.5622
X5.1209Y-2.385
X5.1209Y-2.5622
X4.8Y-8.075
X4.8Y-8.375
X7.02Y-6.145
X7.02Y-6.3222
X7.2759Y-6.145
X7.2759Y-6.3222
X8.6Y-8.15
X8.6Y-8.45
X6.585Y-6.145
X6.585Y-6.3222
X6.8409Y-6.145
X6.8409Y-6.3222
X4.725Y-7.6
X5.025Y-7.6
T6
X11.6Y-7.2
X11.6Y-7.7906
X4.2Y-7.425
X4.4Y-7.425
T7
X5.0638Y-4.626
X5.0638Y-5.0709
X5.3Y-5.1496
X5.5362Y-4.626
X5.5362Y-5.0709
X4.1924Y-6.9806
X4.4956Y-6.1814
X4.594Y-6.9806
X4.6964Y-6.1814
X4.9956Y-6.1814
X4.9956Y-6.9806
X10.1504Y-4.9234
X10.1504Y-5.325
X10.1504Y-5.7266
X10.9496Y-5.2266
X10.9496Y-5.4274
X10.9496Y-5.7266
T8
X6.125Y-4.5345
X6.125Y-5.0845
X6.125Y-5.285
X6.125Y-5.735
X6.125Y-5.935
X6.525Y-4.5345
X6.525Y-5.0845
X6.525Y-5.285
X6.525Y-5.735
X6.525Y-5.935
X6.925Y-4.565
X6.925Y-4.765
X6.925Y-5.215
X6.925Y-5.4155
X6.925Y-5.9655
X7.325Y-4.565
X7.325Y-4.765
X7.325Y-5.215
X7.325Y-5.4155
X7.325Y-5.9655
T9
X11.525Y-6.275
X11.7415Y-6.275
X11.525Y-4.9096
X11.525Y-5.075
X11.7415Y-4.9096
X11.7415Y-5.075
X4.1515Y-5.375
X4.1515Y-5.5404
X4.1515Y-5.7057
X4.1515Y-5.8711
X4.368Y-5.375
X4.368Y-5.5404
X4.368Y-5.7057
X4.368Y-5.8711
X4.1515Y-4.585
X4.1515Y-4.7504
X4.1515Y-4.9157
X4.1515Y-5.0811
X4.368Y-4.585
X4.368Y-4.7504
X4.368Y-4.9157
X4.368Y-5.0811
X11.525Y-5.8096
X11.525Y-5.975
X11.7415Y-5.8096
X11.7415Y-5.975
X11.525Y-5.3596
X11.525Y-5.525
X11.7415Y-5.3596
X11.7415Y-5.525
X5.084Y-8.081
X5.084Y-8.2975
X11.525Y-3.8096
X11.525Y-3.975
X11.7415Y-3.8096
X11.7415Y-3.975
X11.525Y-2.7096
X11.525Y-2.875
X11.7415Y-2.7096
X11.7415Y-2.875
X4.1515Y-3.08
X4.1515Y-3.2454
X4.368Y-3.08
X4.368Y-3.2454
X11.525Y-3.1943
X11.525Y-3.3596
X11.525Y-3.525
X11.7415Y-3.1943
X11.7415Y-3.3596
X11.7415Y-3.525
X11.525Y-4.2693
X11.525Y-4.4346
X11.525Y-4.6
X11.7415Y-4.2693
X11.7415Y-4.4346
X11.7415Y-4.6
X4.1515Y-3.52
X4.1515Y-3.6854
X4.368Y-3.52
X4.368Y-3.6854
X5.65Y-8.122
X5.65Y-8.3385
X5.8154Y-8.122
X5.8154Y-8.3385
X5.9807Y-8.122
X5.9807Y-8.3385
X6.1461Y-8.122
X6.1461Y-8.3385
X6.46Y-8.12
X6.46Y-8.3365
X6.6254Y-8.12
X6.6254Y-8.3365
X8.275Y-8.175
X8.275Y-8.3915
X4.1515Y-3.96
X4.1515Y-4.1254
X4.1515Y-4.2907
X4.368Y-3.96
X4.368Y-4.1254
X4.368Y-4.2907
T10
X5.45Y-3.05
X5.45Y-3.2
X7.45Y-2.75
X7.45Y-3.05
X7.45Y-3.35
T11
X4.2006Y-2.75
X4.425Y-2.75
T12
X5.45Y-2.75
X5.45Y-3.35
T13
X11.024Y-7.6335
X11.024Y-7.9
X11.024Y-8.1665
T14
X11.6384Y-2.3861
X4.2486Y-8.2759
X4.2486Y-2.3861
X11.6384Y-8.2759
T0
M30
